<svg xmlns="http://www.w3.org/2000/svg" xmlns:xlink="http://www.w3.org/1999/xlink" version="1.1" class="marks" width="762" height="647" viewBox="0 0 762 647" style="background-color: white;"><g fill="none" stroke-miterlimit="10" transform="translate(79,10)"><g class="mark-group role-frame root" role="graphics-object" aria-roledescription="group mark container"><g transform="translate(0,0)"><path class="background" aria-hidden="true" d="M0.5,0.5h676v600h-676Z" fill="transparent" stroke="#ddd"></path><g><g class="mark-group role-axis" aria-hidden="true"><g transform="translate(0.5,600.5)"><path class="background" aria-hidden="true" d="M0,0h0v0h0Z" pointer-events="none"></path><g><g class="mark-rule role-axis-grid" pointer-events="none"><line transform="translate(18,-600)" x2="0" y2="600" stroke="#ddd" stroke-width="1" opacity="1"></line><line transform="translate(69,-600)" x2="0" y2="600" stroke="#ddd" stroke-width="1" opacity="1"></line><line transform="translate(119,-600)" x2="0" y2="600" stroke="#ddd" stroke-width="1" opacity="1"></line><line transform="translate(170,-600)" x2="0" y2="600" stroke="#ddd" stroke-width="1" opacity="1"></line><line transform="translate(221,-600)" x2="0" y2="600" stroke="#ddd" stroke-width="1" opacity="1"></line><line transform="translate(272,-600)" x2="0" y2="600" stroke="#ddd" stroke-width="1" opacity="1"></line><line transform="translate(323,-600)" x2="0" y2="600" stroke="#ddd" stroke-width="1" opacity="1"></line><line transform="translate(374,-600)" x2="0" y2="600" stroke="#ddd" stroke-width="1" opacity="1"></line><line transform="translate(424,-600)" x2="0" y2="600" stroke="#ddd" stroke-width="1" opacity="1"></line><line transform="translate(475,-600)" x2="0" y2="600" stroke="#ddd" stroke-width="1" opacity="1"></line><line transform="translate(526,-600)" x2="0" y2="600" stroke="#ddd" stroke-width="1" opacity="1"></line><line transform="translate(577,-600)" x2="0" y2="600" stroke="#ddd" stroke-width="1" opacity="1"></line><line transform="translate(628,-600)" x2="0" y2="600" stroke="#ddd" stroke-width="1" opacity="1"></line></g></g><path class="foreground" aria-hidden="true" d="" pointer-events="none" display="none"></path></g></g><g class="mark-group role-axis" aria-hidden="true"><g transform="translate(0.5,0.5)"><path class="background" aria-hidden="true" d="M0,0h0v0h0Z" pointer-events="none"></path><g><g class="mark-rule role-axis-grid" pointer-events="none"><line transform="translate(0,600)" x2="676" y2="0" stroke="#ddd" stroke-width="1" opacity="1"></line><line transform="translate(0,574)" x2="676" y2="0" stroke="#ddd" stroke-width="1" opacity="1"></line><line transform="translate(0,559)" x2="676" y2="0" stroke="#ddd" stroke-width="1" opacity="1"></line><line transform="translate(0,548)" x2="676" y2="0" stroke="#ddd" stroke-width="1" opacity="1"></line><line transform="translate(0,540)" x2="676" y2="0" stroke="#ddd" stroke-width="1" opacity="1"></line><line transform="translate(0,533)" x2="676" y2="0" stroke="#ddd" stroke-width="1" opacity="1"></line><line transform="translate(0,528)" x2="676" y2="0" stroke="#ddd" stroke-width="1" opacity="1"></line><line transform="translate(0,523)" x2="676" y2="0" stroke="#ddd" stroke-width="1" opacity="1"></line><line transform="translate(0,518)" x2="676" y2="0" stroke="#ddd" stroke-width="1" opacity="1"></line><line transform="translate(0,514)" x2="676" y2="0" stroke="#ddd" stroke-width="1" opacity="1"></line><line transform="translate(0,488)" x2="676" y2="0" stroke="#ddd" stroke-width="1" opacity="1"></line><line transform="translate(0,473)" x2="676" y2="0" stroke="#ddd" stroke-width="1" opacity="1"></line><line transform="translate(0,463)" x2="676" y2="0" stroke="#ddd" stroke-width="1" opacity="1"></line><line transform="translate(0,454)" x2="676" y2="0" stroke="#ddd" stroke-width="1" opacity="1"></line><line transform="translate(0,448)" x2="676" y2="0" stroke="#ddd" stroke-width="1" opacity="1"></line><line transform="translate(0,442)" x2="676" y2="0" stroke="#ddd" stroke-width="1" opacity="1"></line><line transform="translate(0,437)" x2="676" y2="0" stroke="#ddd" stroke-width="1" opacity="1"></line><line transform="translate(0,432)" x2="676" y2="0" stroke="#ddd" stroke-width="1" opacity="1"></line><line transform="translate(0,429)" x2="676" y2="0" stroke="#ddd" stroke-width="1" opacity="1"></line><line transform="translate(0,403)" x2="676" y2="0" stroke="#ddd" stroke-width="1" opacity="1"></line><line transform="translate(0,388)" x2="676" y2="0" stroke="#ddd" stroke-width="1" opacity="1"></line><line transform="translate(0,377)" x2="676" y2="0" stroke="#ddd" stroke-width="1" opacity="1"></line><line transform="translate(0,369)" x2="676" y2="0" stroke="#ddd" stroke-width="1" opacity="1"></line><line transform="translate(0,362)" x2="676" y2="0" stroke="#ddd" stroke-width="1" opacity="1"></line><line transform="translate(0,356)" x2="676" y2="0" stroke="#ddd" stroke-width="1" opacity="1"></line><line transform="translate(0,351)" x2="676" y2="0" stroke="#ddd" stroke-width="1" opacity="1"></line><line transform="translate(0,347)" x2="676" y2="0" stroke="#ddd" stroke-width="1" opacity="1"></line><line transform="translate(0,343)" x2="676" y2="0" stroke="#ddd" stroke-width="1" opacity="1"></line><line transform="translate(0,317)" x2="676" y2="0" stroke="#ddd" stroke-width="1" opacity="1"></line><line transform="translate(0,302)" x2="676" y2="0" stroke="#ddd" stroke-width="1" opacity="1"></line><line transform="translate(0,291)" x2="676" y2="0" stroke="#ddd" stroke-width="1" opacity="1"></line><line transform="translate(0,283)" x2="676" y2="0" stroke="#ddd" stroke-width="1" opacity="1"></line><line transform="translate(0,276)" x2="676" y2="0" stroke="#ddd" stroke-width="1" opacity="1"></line><line transform="translate(0,270)" x2="676" y2="0" stroke="#ddd" stroke-width="1" opacity="1"></line><line transform="translate(0,265)" x2="676" y2="0" stroke="#ddd" stroke-width="1" opacity="1"></line><line transform="translate(0,261)" x2="676" y2="0" stroke="#ddd" stroke-width="1" opacity="1"></line><line transform="translate(0,257)" x2="676" y2="0" stroke="#ddd" stroke-width="1" opacity="1"></line><line transform="translate(0,231)" x2="676" y2="0" stroke="#ddd" stroke-width="1" opacity="1"></line><line transform="translate(0,216)" x2="676" y2="0" stroke="#ddd" stroke-width="1" opacity="1"></line><line transform="translate(0,206)" x2="676" y2="0" stroke="#ddd" stroke-width="1" opacity="1"></line><line transform="translate(0,197)" x2="676" y2="0" stroke="#ddd" stroke-width="1" opacity="1"></line><line transform="translate(0,190)" x2="676" y2="0" stroke="#ddd" stroke-width="1" opacity="1"></line><line transform="translate(0,185)" x2="676" y2="0" stroke="#ddd" stroke-width="1" opacity="1"></line><line transform="translate(0,180)" x2="676" y2="0" stroke="#ddd" stroke-width="1" opacity="1"></line><line transform="translate(0,175)" x2="676" y2="0" stroke="#ddd" stroke-width="1" opacity="1"></line><line transform="translate(0,171)" x2="676" y2="0" stroke="#ddd" stroke-width="1" opacity="1"></line><line transform="translate(0,146)" x2="676" y2="0" stroke="#ddd" stroke-width="1" opacity="1"></line><line transform="translate(0,131)" x2="676" y2="0" stroke="#ddd" stroke-width="1" opacity="1"></line><line transform="translate(0,120)" x2="676" y2="0" stroke="#ddd" stroke-width="1" opacity="1"></line><line transform="translate(0,112)" x2="676" y2="0" stroke="#ddd" stroke-width="1" opacity="1"></line><line transform="translate(0,105)" x2="676" y2="0" stroke="#ddd" stroke-width="1" opacity="1"></line><line transform="translate(0,99)" x2="676" y2="0" stroke="#ddd" stroke-width="1" opacity="1"></line><line transform="translate(0,94)" x2="676" y2="0" stroke="#ddd" stroke-width="1" opacity="1"></line><line transform="translate(0,90)" x2="676" y2="0" stroke="#ddd" stroke-width="1" opacity="1"></line><line transform="translate(0,86)" x2="676" y2="0" stroke="#ddd" stroke-width="1" opacity="1"></line><line transform="translate(0,60)" x2="676" y2="0" stroke="#ddd" stroke-width="1" opacity="1"></line><line transform="translate(0,45)" x2="676" y2="0" stroke="#ddd" stroke-width="1" opacity="1"></line><line transform="translate(0,34)" x2="676" y2="0" stroke="#ddd" stroke-width="1" opacity="1"></line><line transform="translate(0,26)" x2="676" y2="0" stroke="#ddd" stroke-width="1" opacity="1"></line><line transform="translate(0,19)" x2="676" y2="0" stroke="#ddd" stroke-width="1" opacity="1"></line><line transform="translate(0,13)" x2="676" y2="0" stroke="#ddd" stroke-width="1" opacity="1"></line><line transform="translate(0,8)" x2="676" y2="0" stroke="#ddd" stroke-width="1" opacity="1"></line><line transform="translate(0,4)" x2="676" y2="0" stroke="#ddd" stroke-width="1" opacity="1"></line><line transform="translate(0,0)" x2="676" y2="0" stroke="#ddd" stroke-width="1" opacity="1"></line></g></g><path class="foreground" aria-hidden="true" d="" pointer-events="none" display="none"></path></g></g><g class="mark-group role-axis" role="graphics-symbol" aria-roledescription="axis" aria-label="X-axis titled 'Year Acquired' for a time scale with values from Monday, 01 January 1753, 12:00:00 AM to Tuesday, 01 January 2019, 12:00:00 AM"><g transform="translate(0.5,600.5)"><path class="background" aria-hidden="true" d="M0,0h0v0h0Z" pointer-events="none"></path><g><g class="mark-rule role-axis-tick" pointer-events="none"><line transform="translate(18,0)" x2="0" y2="5" stroke="#888" stroke-width="1" opacity="1"></line><line transform="translate(69,0)" x2="0" y2="5" stroke="#888" stroke-width="1" opacity="1"></line><line transform="translate(119,0)" x2="0" y2="5" stroke="#888" stroke-width="1" opacity="1"></line><line transform="translate(170,0)" x2="0" y2="5" stroke="#888" stroke-width="1" opacity="1"></line><line transform="translate(221,0)" x2="0" y2="5" stroke="#888" stroke-width="1" opacity="1"></line><line transform="translate(272,0)" x2="0" y2="5" stroke="#888" stroke-width="1" opacity="1"></line><line transform="translate(323,0)" x2="0" y2="5" stroke="#888" stroke-width="1" opacity="1"></line><line transform="translate(374,0)" x2="0" y2="5" stroke="#888" stroke-width="1" opacity="1"></line><line transform="translate(424,0)" x2="0" y2="5" stroke="#888" stroke-width="1" opacity="1"></line><line transform="translate(475,0)" x2="0" y2="5" stroke="#888" stroke-width="1" opacity="1"></line><line transform="translate(526,0)" x2="0" y2="5" stroke="#888" stroke-width="1" opacity="1"></line><line transform="translate(577,0)" x2="0" y2="5" stroke="#888" stroke-width="1" opacity="1"></line><line transform="translate(628,0)" x2="0" y2="5" stroke="#888" stroke-width="1" opacity="1"></line></g><g class="mark-text role-axis-label" pointer-events="none"><text text-anchor="middle" transform="translate(17.784712203268413,15)" font-family="sans-serif" font-size="10px" fill="#000" opacity="1">1760</text><text text-anchor="middle" transform="translate(68.61308569500383,15)" font-family="sans-serif" font-size="10px" fill="#000" opacity="1">1780</text><text text-anchor="middle" transform="translate(119.44145918673927,15)" font-family="sans-serif" font-size="10px" fill="#000" opacity="1">1800</text><text text-anchor="middle" transform="translate(170.26287465335602,15)" font-family="sans-serif" font-size="10px" fill="#000" opacity="1">1820</text><text text-anchor="middle" transform="translate(221.09124814509147,15)" font-family="sans-serif" font-size="10px" fill="#000" opacity="1">1840</text><text text-anchor="middle" transform="translate(271.9196216368269,15)" font-family="sans-serif" font-size="10px" fill="#000" opacity="1">1860</text><text text-anchor="middle" transform="translate(322.7479951285623,15)" font-family="sans-serif" font-size="10px" fill="#000" opacity="1">1880</text><text text-anchor="middle" transform="translate(373.5763686202977,15)" font-family="sans-serif" font-size="10px" fill="#000" opacity="1">1900</text><text text-anchor="middle" transform="translate(424.39781170962993,15)" font-family="sans-serif" font-size="10px" fill="#000" opacity="1">1920</text><text text-anchor="middle" transform="translate(475.2261852013654,15)" font-family="sans-serif" font-size="10px" fill="#000" opacity="1">1940</text><text text-anchor="middle" transform="translate(526.0545586931008,15)" font-family="sans-serif" font-size="10px" fill="#000" opacity="1">1960</text><text text-anchor="middle" transform="translate(576.8829321848362,15)" font-family="sans-serif" font-size="10px" fill="#000" opacity="1">1980</text><text text-anchor="middle" transform="translate(627.7113056765717,15)" font-family="sans-serif" font-size="10px" fill="#000" opacity="1">2000</text></g><g class="mark-rule role-axis-domain" pointer-events="none"><line transform="translate(0,0)" x2="676" y2="0" stroke="#888" stroke-width="1" opacity="1"></line></g><g class="mark-text role-axis-title" pointer-events="none"><text text-anchor="middle" transform="translate(338,30)" font-family="sans-serif" font-size="11px" font-weight="bold" fill="#000" opacity="1">Year Acquired</text></g></g><path class="foreground" aria-hidden="true" d="" pointer-events="none" display="none"></path></g></g><g class="mark-group role-axis" role="graphics-symbol" aria-roledescription="axis" aria-label="Y-axis titled 'stat' for a log scale with values from 1 to 10,000,000"><g transform="translate(0.5,0.5)"><path class="background" aria-hidden="true" d="M0,0h0v0h0Z" pointer-events="none"></path><g><g class="mark-rule role-axis-tick" pointer-events="none"><line transform="translate(0,600)" x2="-5" y2="0" stroke="#888" stroke-width="1" opacity="1"></line><line transform="translate(0,574)" x2="-5" y2="0" stroke="#888" stroke-width="1" opacity="1"></line><line transform="translate(0,559)" x2="-5" y2="0" stroke="#888" stroke-width="1" opacity="1"></line><line transform="translate(0,548)" x2="-5" y2="0" stroke="#888" stroke-width="1" opacity="1"></line><line transform="translate(0,540)" x2="-5" y2="0" stroke="#888" stroke-width="1" opacity="1"></line><line transform="translate(0,533)" x2="-5" y2="0" stroke="#888" stroke-width="1" opacity="1"></line><line transform="translate(0,528)" x2="-5" y2="0" stroke="#888" stroke-width="1" opacity="1"></line><line transform="translate(0,523)" x2="-5" y2="0" stroke="#888" stroke-width="1" opacity="1"></line><line transform="translate(0,518)" x2="-5" y2="0" stroke="#888" stroke-width="1" opacity="1"></line><line transform="translate(0,514)" x2="-5" y2="0" stroke="#888" stroke-width="1" opacity="1"></line><line transform="translate(0,488)" x2="-5" y2="0" stroke="#888" stroke-width="1" opacity="1"></line><line transform="translate(0,473)" x2="-5" y2="0" stroke="#888" stroke-width="1" opacity="1"></line><line transform="translate(0,463)" x2="-5" y2="0" stroke="#888" stroke-width="1" opacity="1"></line><line transform="translate(0,454)" x2="-5" y2="0" stroke="#888" stroke-width="1" opacity="1"></line><line transform="translate(0,448)" x2="-5" y2="0" stroke="#888" stroke-width="1" opacity="1"></line><line transform="translate(0,442)" x2="-5" y2="0" stroke="#888" stroke-width="1" opacity="1"></line><line transform="translate(0,437)" x2="-5" y2="0" stroke="#888" stroke-width="1" opacity="1"></line><line transform="translate(0,432)" x2="-5" y2="0" stroke="#888" stroke-width="1" opacity="1"></line><line transform="translate(0,429)" x2="-5" y2="0" stroke="#888" stroke-width="1" opacity="1"></line><line transform="translate(0,403)" x2="-5" y2="0" stroke="#888" stroke-width="1" opacity="1"></line><line transform="translate(0,388)" x2="-5" y2="0" stroke="#888" stroke-width="1" opacity="1"></line><line transform="translate(0,377)" x2="-5" y2="0" stroke="#888" stroke-width="1" opacity="1"></line><line transform="translate(0,369)" x2="-5" y2="0" stroke="#888" stroke-width="1" opacity="1"></line><line transform="translate(0,362)" x2="-5" y2="0" stroke="#888" stroke-width="1" opacity="1"></line><line transform="translate(0,356)" x2="-5" y2="0" stroke="#888" stroke-width="1" opacity="1"></line><line transform="translate(0,351)" x2="-5" y2="0" stroke="#888" stroke-width="1" opacity="1"></line><line transform="translate(0,347)" x2="-5" y2="0" stroke="#888" stroke-width="1" opacity="1"></line><line transform="translate(0,343)" x2="-5" y2="0" stroke="#888" stroke-width="1" opacity="1"></line><line transform="translate(0,317)" x2="-5" y2="0" stroke="#888" stroke-width="1" opacity="1"></line><line transform="translate(0,302)" x2="-5" y2="0" stroke="#888" stroke-width="1" opacity="1"></line><line transform="translate(0,291)" x2="-5" y2="0" stroke="#888" stroke-width="1" opacity="1"></line><line transform="translate(0,283)" x2="-5" y2="0" stroke="#888" stroke-width="1" opacity="1"></line><line transform="translate(0,276)" x2="-5" y2="0" stroke="#888" stroke-width="1" opacity="1"></line><line transform="translate(0,270)" x2="-5" y2="0" stroke="#888" stroke-width="1" opacity="1"></line><line transform="translate(0,265)" x2="-5" y2="0" stroke="#888" stroke-width="1" opacity="1"></line><line transform="translate(0,261)" x2="-5" y2="0" stroke="#888" stroke-width="1" opacity="1"></line><line transform="translate(0,257)" x2="-5" y2="0" stroke="#888" stroke-width="1" opacity="1"></line><line transform="translate(0,231)" x2="-5" y2="0" stroke="#888" stroke-width="1" opacity="1"></line><line transform="translate(0,216)" x2="-5" y2="0" stroke="#888" stroke-width="1" opacity="1"></line><line transform="translate(0,206)" x2="-5" y2="0" stroke="#888" stroke-width="1" opacity="1"></line><line transform="translate(0,197)" x2="-5" y2="0" stroke="#888" stroke-width="1" opacity="1"></line><line transform="translate(0,190)" x2="-5" y2="0" stroke="#888" stroke-width="1" opacity="1"></line><line transform="translate(0,185)" x2="-5" y2="0" stroke="#888" stroke-width="1" opacity="1"></line><line transform="translate(0,180)" x2="-5" y2="0" stroke="#888" stroke-width="1" opacity="1"></line><line transform="translate(0,175)" x2="-5" y2="0" stroke="#888" stroke-width="1" opacity="1"></line><line transform="translate(0,171)" x2="-5" y2="0" stroke="#888" stroke-width="1" opacity="1"></line><line transform="translate(0,146)" x2="-5" y2="0" stroke="#888" stroke-width="1" opacity="1"></line><line transform="translate(0,131)" x2="-5" y2="0" stroke="#888" stroke-width="1" opacity="1"></line><line transform="translate(0,120)" x2="-5" y2="0" stroke="#888" stroke-width="1" opacity="1"></line><line transform="translate(0,112)" x2="-5" y2="0" stroke="#888" stroke-width="1" opacity="1"></line><line transform="translate(0,105)" x2="-5" y2="0" stroke="#888" stroke-width="1" opacity="1"></line><line transform="translate(0,99)" x2="-5" y2="0" stroke="#888" stroke-width="1" opacity="1"></line><line transform="translate(0,94)" x2="-5" y2="0" stroke="#888" stroke-width="1" opacity="1"></line><line transform="translate(0,90)" x2="-5" y2="0" stroke="#888" stroke-width="1" opacity="1"></line><line transform="translate(0,86)" x2="-5" y2="0" stroke="#888" stroke-width="1" opacity="1"></line><line transform="translate(0,60)" x2="-5" y2="0" stroke="#888" stroke-width="1" opacity="1"></line><line transform="translate(0,45)" x2="-5" y2="0" stroke="#888" stroke-width="1" opacity="1"></line><line transform="translate(0,34)" x2="-5" y2="0" stroke="#888" stroke-width="1" opacity="1"></line><line transform="translate(0,26)" x2="-5" y2="0" stroke="#888" stroke-width="1" opacity="1"></line><line transform="translate(0,19)" x2="-5" y2="0" stroke="#888" stroke-width="1" opacity="1"></line><line transform="translate(0,13)" x2="-5" y2="0" stroke="#888" stroke-width="1" opacity="1"></line><line transform="translate(0,8)" x2="-5" y2="0" stroke="#888" stroke-width="1" opacity="1"></line><line transform="translate(0,4)" x2="-5" y2="0" stroke="#888" stroke-width="1" opacity="1"></line><line transform="translate(0,0)" x2="-5" y2="0" stroke="#888" stroke-width="1" opacity="1"></line></g><g class="mark-text role-axis-label" pointer-events="none"><text text-anchor="end" transform="translate(-7,603)" font-family="sans-serif" font-size="10px" fill="#000" opacity="1">1</text><text text-anchor="end" transform="translate(-7,577.1974289430873)" font-family="sans-serif" font-size="10px" fill="#000" opacity="1"></text><text text-anchor="end" transform="translate(-7,562.1038924526003)" font-family="sans-serif" font-size="10px" fill="#000" opacity="1"></text><text text-anchor="end" transform="translate(-7,551.3948578861747)" font-family="sans-serif" font-size="10px" fill="#000" opacity="1"></text><text text-anchor="end" transform="translate(-7,543.0882853426269)" font-family="sans-serif" font-size="10px" fill="#000" opacity="1"></text><text text-anchor="end" transform="translate(-7,536.3013213956876)" font-family="sans-serif" font-size="10px" fill="#000" opacity="1"></text><text text-anchor="end" transform="translate(-7,530.5630251416351)" font-family="sans-serif" font-size="10px" fill="#000" opacity="1"></text><text text-anchor="end" transform="translate(-7,525.592286829262)" font-family="sans-serif" font-size="10px" fill="#000" opacity="1"></text><text text-anchor="end" transform="translate(-7,521.2077849052007)" font-family="sans-serif" font-size="10px" fill="#000" opacity="1"></text><text text-anchor="end" transform="translate(-7,517.2857142857142)" font-family="sans-serif" font-size="10px" fill="#000" opacity="1">10</text><text text-anchor="end" transform="translate(-7,491.4831432288016)" font-family="sans-serif" font-size="10px" fill="#000" opacity="1"></text><text text-anchor="end" transform="translate(-7,476.3896067383147)" font-family="sans-serif" font-size="10px" fill="#000" opacity="1"></text><text text-anchor="end" transform="translate(-7,465.6805721718889)" font-family="sans-serif" font-size="10px" fill="#000" opacity="1"></text><text text-anchor="end" transform="translate(-7,457.37399962834127)" font-family="sans-serif" font-size="10px" fill="#000" opacity="1"></text><text text-anchor="end" transform="translate(-7,450.587035681402)" font-family="sans-serif" font-size="10px" fill="#000" opacity="1"></text><text text-anchor="end" transform="translate(-7,444.84873942734936)" font-family="sans-serif" font-size="10px" fill="#000" opacity="1"></text><text text-anchor="end" transform="translate(-7,439.87800111497626)" font-family="sans-serif" font-size="10px" fill="#000" opacity="1"></text><text text-anchor="end" transform="translate(-7,435.49349919091503)" font-family="sans-serif" font-size="10px" fill="#000" opacity="1"></text><text text-anchor="end" transform="translate(-7,431.5714285714285)" font-family="sans-serif" font-size="10px" fill="#000" opacity="1">100</text><text text-anchor="end" transform="translate(-7,405.7688575145159)" font-family="sans-serif" font-size="10px" fill="#000" opacity="1"></text><text text-anchor="end" transform="translate(-7,390.675321024029)" font-family="sans-serif" font-size="10px" fill="#000" opacity="1"></text><text text-anchor="end" transform="translate(-7,379.9662864576032)" font-family="sans-serif" font-size="10px" fill="#000" opacity="1"></text><text text-anchor="end" transform="translate(-7,371.65971391405554)" font-family="sans-serif" font-size="10px" fill="#000" opacity="1"></text><text text-anchor="end" transform="translate(-7,364.87274996711625)" font-family="sans-serif" font-size="10px" fill="#000" opacity="1"></text><text text-anchor="end" transform="translate(-7,359.1344537130637)" font-family="sans-serif" font-size="10px" fill="#000" opacity="1"></text><text text-anchor="end" transform="translate(-7,354.16371540069053)" font-family="sans-serif" font-size="10px" fill="#000" opacity="1"></text><text text-anchor="end" transform="translate(-7,349.77921347662937)" font-family="sans-serif" font-size="10px" fill="#000" opacity="1"></text><text text-anchor="end" transform="translate(-7,345.85714285714283)" font-family="sans-serif" font-size="10px" fill="#000" opacity="1">1,000</text><text text-anchor="end" transform="translate(-7,320.0545718002302)" font-family="sans-serif" font-size="10px" fill="#000" opacity="1"></text><text text-anchor="end" transform="translate(-7,304.96103530974324)" font-family="sans-serif" font-size="10px" fill="#000" opacity="1"></text><text text-anchor="end" transform="translate(-7,294.2520007433175)" font-family="sans-serif" font-size="10px" fill="#000" opacity="1"></text><text text-anchor="end" transform="translate(-7,285.9454281997698)" font-family="sans-serif" font-size="10px" fill="#000" opacity="1"></text><text text-anchor="end" transform="translate(-7,279.1584642528306)" font-family="sans-serif" font-size="10px" fill="#000" opacity="1"></text><text text-anchor="end" transform="translate(-7,273.420167998778)" font-family="sans-serif" font-size="10px" fill="#000" opacity="1"></text><text text-anchor="end" transform="translate(-7,268.44942968640487)" font-family="sans-serif" font-size="10px" fill="#000" opacity="1"></text><text text-anchor="end" transform="translate(-7,264.0649277623436)" font-family="sans-serif" font-size="10px" fill="#000" opacity="1"></text><text text-anchor="end" transform="translate(-7,260.1428571428571)" font-family="sans-serif" font-size="10px" fill="#000" opacity="1">10,000</text><text text-anchor="end" transform="translate(-7,234.3402860859445)" font-family="sans-serif" font-size="10px" fill="#000" opacity="1"></text><text text-anchor="end" transform="translate(-7,219.24674959545752)" font-family="sans-serif" font-size="10px" fill="#000" opacity="1"></text><text text-anchor="end" transform="translate(-7,208.53771502903183)" font-family="sans-serif" font-size="10px" fill="#000" opacity="1"></text><text text-anchor="end" transform="translate(-7,200.23114248548416)" font-family="sans-serif" font-size="10px" fill="#000" opacity="1"></text><text text-anchor="end" transform="translate(-7,193.44417853854486)" font-family="sans-serif" font-size="10px" fill="#000" opacity="1"></text><text text-anchor="end" transform="translate(-7,187.70588228449233)" font-family="sans-serif" font-size="10px" fill="#000" opacity="1"></text><text text-anchor="end" transform="translate(-7,182.73514397211918)" font-family="sans-serif" font-size="10px" fill="#000" opacity="1"></text><text text-anchor="end" transform="translate(-7,178.35064204805792)" font-family="sans-serif" font-size="10px" fill="#000" opacity="1"></text><text text-anchor="end" transform="translate(-7,174.42857142857142)" font-family="sans-serif" font-size="10px" fill="#000" opacity="1">100,000</text><text text-anchor="end" transform="translate(-7,148.62600037165876)" font-family="sans-serif" font-size="10px" fill="#000" opacity="1"></text><text text-anchor="end" transform="translate(-7,133.53246388117182)" font-family="sans-serif" font-size="10px" fill="#000" opacity="1"></text><text text-anchor="end" transform="translate(-7,122.8234293147461)" font-family="sans-serif" font-size="10px" fill="#000" opacity="1"></text><text text-anchor="end" transform="translate(-7,114.5168567711984)" font-family="sans-serif" font-size="10px" fill="#000" opacity="1"></text><text text-anchor="end" transform="translate(-7,107.72989282425917)" font-family="sans-serif" font-size="10px" fill="#000" opacity="1"></text><text text-anchor="end" transform="translate(-7,101.9915965702066)" font-family="sans-serif" font-size="10px" fill="#000" opacity="1"></text><text text-anchor="end" transform="translate(-7,97.02085825783344)" font-family="sans-serif" font-size="10px" fill="#000" opacity="1"></text><text text-anchor="end" transform="translate(-7,92.63635633377211)" font-family="sans-serif" font-size="10px" fill="#000" opacity="1"></text><text text-anchor="end" transform="translate(-7,88.71428571428574)" font-family="sans-serif" font-size="10px" fill="#000" opacity="1">1,000,000</text><text text-anchor="end" transform="translate(-7,62.91171465737308)" font-family="sans-serif" font-size="10px" fill="#000" opacity="1"></text><text text-anchor="end" transform="translate(-7,47.81817816688609)" font-family="sans-serif" font-size="10px" fill="#000" opacity="1"></text><text text-anchor="end" transform="translate(-7,37.10914360046042)" font-family="sans-serif" font-size="10px" fill="#000" opacity="1"></text><text text-anchor="end" transform="translate(-7,28.80257105691266)" font-family="sans-serif" font-size="10px" fill="#000" opacity="1"></text><text text-anchor="end" transform="translate(-7,22.015607109973367)" font-family="sans-serif" font-size="10px" fill="#000" opacity="1"></text><text text-anchor="end" transform="translate(-7,16.277310855920852)" font-family="sans-serif" font-size="10px" fill="#000" opacity="1"></text><text text-anchor="end" transform="translate(-7,11.306572543547697)" font-family="sans-serif" font-size="10px" fill="#000" opacity="1"></text><text text-anchor="end" transform="translate(-7,6.922070619486506)" font-family="sans-serif" font-size="10px" fill="#000" opacity="1"></text><text text-anchor="end" transform="translate(-7,3)" font-family="sans-serif" font-size="10px" fill="#000" opacity="1">10,000,000</text></g><g class="mark-rule role-axis-domain" pointer-events="none"><line transform="translate(0,600)" x2="0" y2="-600" stroke="#888" stroke-width="1" opacity="1"></line></g><g class="mark-text role-axis-title" pointer-events="none"><text text-anchor="middle" transform="translate(-62.728515625,300) rotate(-90) translate(0,-2)" font-family="sans-serif" font-size="11px" font-weight="bold" fill="#000" opacity="1">stat</text></g></g><path class="foreground" aria-hidden="true" d="" pointer-events="none" display="none"></path></g></g><g class="mark-group role-scope pathgroup" role="graphics-object" aria-roledescription="group mark container"><g transform="translate(0,0)"><path class="background" aria-hidden="true" d="M0,0h676v600h-676Z"></path><g><g class="mark-line role-mark marks" role="graphics-object" aria-roledescription="line mark container"><path aria-label="Year Acquired: Jan 01, 1753; stat: 1; Statistic: count" role="graphics-symbol" aria-roledescription="line mark" d="M0,600L124.521,574.197L144.852,559.104L200.76,600L213.472,600L216.012,600L218.552,600L221.091,522.592L223.638,600L228.717,600L231.257,600L233.804,559.104L241.423,548.395L246.509,574.197L254.135,600L256.675,600L259.214,533.301L261.754,600L264.301,574.197L266.84,574.197L269.38,600L271.92,533.301L279.546,600L284.632,518.208L289.711,600L297.337,600L299.877,540.088L302.417,600L304.963,600L307.503,600L310.043,559.104L312.582,540.088L317.669,600L322.748,522.592L325.295,600L327.834,574.197L330.374,574.197L335.46,548.395L338,504.519L340.54,548.395L343.079,574.197L348.166,527.563L350.705,600L353.245,559.104L355.792,533.301L358.331,600L360.871,527.563L363.411,533.301L365.957,600L368.497,574.197L371.037,559.104L373.576,477.312L376.116,559.104L378.656,522.592L381.195,533.301L383.735,527.563L386.282,504.519L388.821,574.197L391.361,518.208L393.901,510.738L396.447,527.563L398.987,484.935L401.527,522.592L404.066,518.208L406.613,494.533L409.153,548.395L411.692,496.79L414.232,510.738L416.779,574.197L419.318,533.301L421.858,533.301L424.398,464.59L426.944,492.405L429.484,514.286L432.024,504.519L434.563,522.592L437.11,504.519L439.65,494.533L442.189,492.405L444.729,473.39L447.276,465.583L449.815,428.201L452.355,474.652L454.895,447.587L457.441,518.208L459.981,504.519L462.521,400.25L465.061,447.587L467.607,452.914L470.147,470.987L472.687,473.39L475.226,443.479L477.773,477.312L480.313,480.177L482.852,518.208L485.392,514.286L487.938,488.483L490.478,522.592L493.018,488.483L495.558,451.509L498.104,462.681L500.644,407.74L503.184,464.59L505.723,459.133L508.27,444.607L510.81,440.287L513.349,444.607L515.889,451.509L518.436,450.155L520.975,431.675L523.515,445.771L526.055,415.781L528.601,453.637L531.141,440.8L533.681,424.022L536.22,418.805L538.767,408.167L541.307,438.301L543.846,422.727L546.386,420.865L548.933,446.366L551.472,399.904L554.012,425.363L556.552,421.476L559.098,420.265L561.638,404.288L564.178,396.293L566.717,416.313L569.264,429.323L571.804,437.346L574.343,423.046L576.883,417.125L579.43,407.74L581.969,436.878L584.509,450.155L587.049,416.853L589.595,414.23L592.135,409.038L594.675,411.309L597.214,417.4L599.761,404.288L602.301,406.28L604.84,428.946L607.38,425.023L609.927,432.082L612.466,426.053L615.006,421.169L617.546,416.853L620.092,425.707L622.632,420.564L625.172,413.231L627.711,381.2L630.258,409.259L632.798,423.046L635.337,427.111L637.877,437.346L640.424,439.28L642.963,404.095L645.503,460.864L648.043,510.738L650.589,488.483L653.129,484.935L655.669,483.28L658.208,483.28L660.755,522.592L663.295,469.842L665.834,488.483L668.374,514.286L670.921,600L673.46,548.395L676,574.197" stroke="#72b7b2" stroke-width="2" opacity="1"></path></g></g><path class="foreground" aria-hidden="true" d="" display="none"></path></g><g transform="translate(0,0)"><path class="background" aria-hidden="true" d="M0,0h676v600h-676Z"></path><g><g class="mark-line role-mark marks" role="graphics-object" aria-roledescription="line mark container"><path aria-label="Year Acquired: Jan 01, 1753; stat: 1200; Statistic: mean" role="graphics-symbol" aria-roledescription="line mark" d="M0,336.07L124.521,313.17L144.852,331.842L200.76,164.642L213.472,256.035L216.012,316.869L218.552,251.133L221.091,285.93L223.638,298.913L228.717,346.779L231.257,290.442L233.804,227.879L241.423,280.615L246.509,338.192L254.135,136.582L256.675,314.536L259.214,253.508L261.754,353.566L264.301,260.809L266.84,252.979L269.38,284.102L271.92,286.297L279.546,240.127L284.632,223.284L289.711,305.883L297.337,303.688L299.877,333.65L302.417,242.298L304.963,253.595L307.503,272.611L310.043,333.979L312.582,179.339L317.669,212.619L322.748,226.99L325.295,272.212L327.834,216.705L330.374,288.023L335.46,267.658L338,247.515L340.54,198.207L343.079,203.314L348.166,249.336L350.705,311.449L353.245,196.866L355.792,272.62L358.331,177.478L360.871,213.567L363.411,198.472L365.957,160.839L368.497,234.485L371.037,205.083L373.576,249.02L376.116,208.951L378.656,211.9L381.195,220.496L383.735,277.088L386.282,224.448L388.821,256.453L391.361,242.525L393.901,212.982L396.447,203.183L398.987,255.26L401.527,216.602L404.066,199.551L406.613,259.701L409.153,178.129L411.692,212.414L414.232,233.07L416.779,238.528L419.318,269.89L421.858,254.233L424.398,255.042L426.944,255.621L429.484,237.043L432.024,203.493L434.563,240.134L437.11,202.173L439.65,188.008L442.189,210.059L444.729,236.09L447.276,228.797L449.815,263.921L452.355,210.376L454.895,270.949L457.441,267.054L459.981,245.855L462.521,299.141L465.061,253.404L467.607,235.65L470.147,210.731L472.687,251.238L475.226,232.692L477.773,247.931L480.313,258.189L482.852,273.744L485.392,287.198L487.938,259.037L490.478,268.604L493.018,264.365L495.558,270.38L498.104,226.809L500.644,271.455L503.184,241.048L505.723,221.25L508.27,267.548L510.81,255.452L513.349,248.758L515.889,228.679L518.436,238.402L520.975,256.14L523.515,225.506L526.055,271.658L528.601,238.909L531.141,235.622L533.681,228.692L536.22,232.622L538.767,223.802L541.307,218.524L543.846,230.722L546.386,245.844L548.933,209.898L551.472,260.312L554.012,225.132L556.552,240.558L559.098,258.103L561.638,282.947L564.178,277.028L566.717,256.527L569.264,250.341L571.804,249.898L574.343,298.571L576.883,301.465L579.43,256.95L581.969,256.543L584.509,249.884L587.049,243.953L589.595,245.464L592.135,278.109L594.675,263.077L597.214,295.157L599.761,252.318L602.301,249.931L604.84,238.041L607.38,264.588L609.927,292.5L612.466,290.592L615.006,269.414L617.546,257.646L620.092,256.101L622.632,276.795L625.172,310.061L627.711,296.244L630.258,265.841L632.798,261.347L635.337,257.085L637.877,268.952L640.424,231.479L642.963,299.312L645.503,225.017L648.043,243.143L650.589,247.416L653.129,236.923L655.669,272.329L658.208,254.022L660.755,198.032L663.295,231.099L665.834,241.423L668.374,215.651L670.921,271.94L673.46,288.647L676,353.073" stroke="#eeca3b" stroke-width="2" opacity="1"></path></g></g><path class="foreground" aria-hidden="true" d="" display="none"></path></g><g transform="translate(0,0)"><path class="background" aria-hidden="true" d="M0,0h676v600h-676Z"></path><g><g class="mark-line role-mark marks" role="graphics-object" aria-roledescription="line mark container"><path aria-label="Year Acquired: Jan 01, 1753; stat: null; Statistic: std" role="graphics-symbol" aria-roledescription="line mark" d="M124.521,318.128L144.852,320.772M221.091,271.007ZM233.804,214.782L241.423,282.239L246.509,346.949M259.214,237.557ZM264.301,262.874L266.84,280.099M271.92,266.623ZM284.632,213.616ZM299.877,334.713ZM310.043,351.077L312.582,153.772M322.748,234.073ZM327.834,239.094L330.374,276.424L335.46,246.914L338,246.285L340.54,212.839L343.079,232.479L348.166,249.728M353.245,194.487L355.792,283.397M360.871,210.182L363.411,212.904M368.497,225.196L371.037,258.68L373.576,223.927L376.116,201.791L378.656,182.182L381.195,227.051L383.735,278.155L386.282,207.277L388.821,282.657L391.361,244.36L393.901,215.045L396.447,200.174L398.987,247.975L401.527,192.871L404.066,214.828L406.613,262.593L409.153,160.534L411.692,209.338L414.232,231.864L416.779,238.742L419.318,281.254L421.858,258.345L424.398,230.526L426.944,240.644L429.484,223.487L432.024,165.676L434.563,245.001L437.11,184.278L439.65,158.222L442.189,200.688L444.729,230.974L447.276,182.318L449.815,244.094L452.355,184.091L454.895,239.4L457.441,263.809L459.981,230.782L462.521,252.433L465.061,242.951L467.607,209.653L470.147,203.677L472.687,228.555L475.226,195.232L477.773,229.542L480.313,233.943L482.852,268.636L485.392,278.703L487.938,225.945L490.478,241.234L493.018,244.418L495.558,258.445L498.104,204.84L500.644,224.916L503.184,213.596L505.723,197.16L508.27,224.524L510.81,214.798L513.349,191.923L515.889,194.182L518.436,221.194L520.975,222.103L523.515,193.988L526.055,215.535L528.601,211.593L531.141,205.349L533.681,197.079L536.22,208.847L538.767,194.688L541.307,201.006L543.846,210.944L546.386,205.284L548.933,178.68L551.472,218.739L554.012,191.269L556.552,197.988L559.098,220.376L561.638,226.551L564.178,238.88L566.717,207.54L569.264,182.031L571.804,215.379L574.343,258.267L576.883,258.561L579.43,220.371L581.969,210.542L584.509,220.567L587.049,180.391L589.595,171.686L592.135,242.158L594.675,214.943L597.214,262.052L599.761,208.834L602.301,215.314L604.84,179.018L607.38,234.614L609.927,268.956L612.466,263.815L615.006,235.329L617.546,212.472L620.092,226.514L622.632,244.458L625.172,281.261L627.711,252.67L630.258,216.751L632.798,230.432L635.337,208.117L637.877,223.389L640.424,192.477L642.963,238.565L645.503,198.976L648.043,202.689L650.589,222.377L653.129,211.427L655.669,241.506L658.208,216.413L660.755,177.557L663.295,222.807L665.834,217.313L668.374,189.305M673.46,281.819Z" stroke="#ff9da6" stroke-width="2" opacity="1"></path></g></g><path class="foreground" aria-hidden="true" d="" display="none"></path></g><g transform="translate(0,0)"><path class="background" aria-hidden="true" d="M0,0h676v600h-676Z"></path><g><g class="mark-line role-mark marks" role="graphics-object" aria-roledescription="line mark container"><path aria-label="Year Acquired: Jan 01, 1753; stat: 1200; Statistic: min" role="graphics-symbol" aria-roledescription="line mark" d="M0,336.07L124.521,349.083L144.852,399.904L200.76,164.642L213.472,256.035L216.012,316.869L218.552,251.133L221.091,361.38L223.638,298.913L228.717,346.779L231.257,290.442L233.804,295.009L241.423,324.351L246.509,368.66L254.135,136.582L256.675,314.536L259.214,338.705L261.754,353.566L264.301,301.961L266.84,268.518L269.38,284.102L271.92,466.603L279.546,240.127L284.632,398.384L289.711,305.883L297.337,303.688L299.877,388.937L302.417,242.298L304.963,253.595L307.503,272.611L310.043,376.966L312.582,336.07L317.669,212.619L322.748,320.977L325.295,272.212L327.834,234.953L330.374,413.478L335.46,405.873L338,454.374L340.54,242.049L343.079,217.836L348.166,387.675L350.705,311.449L353.245,287.874L355.792,351.164L358.331,177.478L360.871,287.334L363.411,246.245L365.957,160.839L368.497,323.104L371.037,213.579L373.576,402.769L376.116,329.026L378.656,435.959L381.195,256.086L383.735,370.179L386.282,413.478L388.821,272.475L391.361,303.223L393.901,306.132L396.447,313.932L398.987,413.478L401.527,411.075L404.066,296.608L406.613,337.59L409.153,298.549L411.692,293.794L414.232,496.79L416.779,283.728L419.318,409.259L421.858,315.238L424.398,428.571L426.944,409.259L429.484,389.195L432.024,416.582L434.563,299.559L437.11,480.177L439.65,425.707L442.189,356.509L444.729,455.894L447.276,514.286L449.815,454.374L452.355,378.1L454.895,480.177L457.441,387.675L459.981,389.979L462.521,473.39L465.061,441.849L467.607,418.805L470.147,455.894L472.687,398.55L475.226,473.39L477.773,428.571L480.313,421.169L482.852,380.579L485.392,398.55L487.938,477.312L490.478,391.597L493.018,454.374L495.558,428.571L498.104,436.878L500.644,507.499L503.184,414.74L505.723,480.177L508.27,421.784L510.81,462.681L513.349,488.483L515.889,418.237L518.436,462.681L520.975,507.499L523.515,488.483L526.055,518.208L528.601,480.177L531.141,507.499L533.681,507.499L536.22,488.483L538.767,488.483L541.307,496.79L543.846,507.499L546.386,488.483L548.933,480.177L551.472,492.405L554.012,420.564L556.552,496.79L559.098,481.696L561.638,496.79L564.178,496.79L566.717,496.79L569.264,492.405L571.804,455.894L574.343,507.499L576.883,507.499L579.43,488.483L581.969,488.483L584.509,480.177L587.049,492.405L589.595,488.483L592.135,507.499L594.675,492.405L597.214,492.405L599.761,496.79L602.301,466.603L604.84,492.405L607.38,488.483L609.927,492.405L612.466,466.603L615.006,445.185L617.546,488.483L620.092,481.696L622.632,480.177L625.172,473.39L627.711,481.696L630.258,445.185L632.798,436.878L635.337,488.483L637.877,441.849L640.424,447.587L642.963,466.603L645.503,488.483L648.043,431.273L650.589,488.483L653.129,481.696L655.669,481.696L658.208,428.571L660.755,414.998L663.295,514.286L665.834,414.998L668.374,337.59L670.921,271.94L673.46,328.897L676,353.073" stroke="#b279a2" stroke-width="2" opacity="1"></path></g></g><path class="foreground" aria-hidden="true" d="" display="none"></path></g><g transform="translate(0,0)"><path class="background" aria-hidden="true" d="M0,0h676v600h-676Z"></path><g><g class="mark-line role-mark marks" role="graphics-object" aria-roledescription="line mark container"><path aria-label="Year Acquired: Jan 01, 1753; stat: 1200; Statistic: 25%" role="graphics-symbol" aria-roledescription="line mark" d="M0,336.07L124.521,326.954L144.852,387.613L200.76,164.642L213.472,256.035L216.012,316.869L218.552,251.133L221.091,353.566L223.638,298.913L228.717,346.779L231.257,290.442L233.804,291.871L241.423,315.612L246.509,350.392L254.135,136.582L256.675,314.536L259.214,316.776L261.754,353.566L264.301,275.967L266.84,259.944L269.38,284.102L271.92,366.684L279.546,240.127L284.632,398.384L289.711,305.883L297.337,303.688L299.877,355.397L302.417,242.298L304.963,253.595L307.503,272.611L310.043,346.205L312.582,276.158L317.669,212.619L322.748,294.582L325.295,272.212L327.834,224.722L330.374,312.567L335.46,362.609L338,404.678L340.54,222.917L343.079,209.872L348.166,341.041L350.705,311.449L353.245,229.664L355.792,309.122L358.331,177.478L360.871,247.233L363.411,232.952L365.957,160.839L368.497,256.994L371.037,210.265L373.576,340.917L376.116,251.48L378.656,390.982L381.195,241.238L383.735,320.158L386.282,276.721L388.821,263.609L391.361,278.561L393.901,266.981L396.447,234.955L398.987,359.354L401.527,281.05L404.066,214.215L406.613,276.308L409.153,266.922L411.692,245.276L414.232,307.145L416.779,254.652L419.318,283.57L421.858,278.805L424.398,325.947L426.944,320.853L429.484,357.571L432.024,323.082L434.563,259.259L437.11,320.977L439.65,285.767L442.189,281.351L444.729,312.316L447.276,308.748L449.815,351.164L452.355,317.997L454.895,384.696L457.441,307.561L459.981,389.979L462.521,397.891L465.061,346.779L467.607,316.966L470.147,308.7L472.687,318.998L475.226,351.397L477.773,328.377L480.313,374.101L482.852,347.785L485.392,358.283L487.938,345.279L490.478,345.739L493.018,366.79L495.558,348.331L498.104,321.581L500.644,386.575L503.184,364.775L505.723,325.859L508.27,390.244L510.81,363.392L513.349,381.937L515.889,310.548L518.436,347.468L520.975,364.441L523.515,309.622L526.055,389.195L528.601,354.7L531.141,333.682L533.681,327.467L536.22,361.873L538.767,328.872L541.307,316.172L543.846,320.977L546.386,344.571L548.933,362.53L551.472,395.982L554.012,329.361L556.552,414.998L559.098,320.977L561.638,466.603L564.178,359.47L566.717,402.769L569.264,460.864L571.804,366.211L574.343,413.478L576.883,421.784L579.43,374.101L581.969,376.966L584.509,396.924L587.049,404.288L589.595,395.982L592.135,404.678L594.675,427.111L597.214,399.221L599.761,414.998L602.301,405.974L604.84,365.52L607.38,380.888L609.927,432.493L612.466,364.441L615.006,386.575L617.546,414.998L620.092,398.426L622.632,389.454L625.172,414.998L627.711,414.998L630.258,414.998L632.798,383.902L635.337,414.998L637.877,414.998L640.424,414.998L642.963,439.28L645.503,368.53L648.043,414.23L650.589,371.241L653.129,369.034L655.669,414.998L658.208,348.907L660.755,414.998L663.295,299.559L665.834,356.348L668.374,309.288L670.921,271.94L673.46,328.897L676,353.073" stroke="#4c78a8" stroke-width="2" opacity="1"></path></g></g><path class="foreground" aria-hidden="true" d="" display="none"></path></g><g transform="translate(0,0)"><path class="background" aria-hidden="true" d="M0,0h676v600h-676Z"></path><g><g class="mark-line role-mark marks" role="graphics-object" aria-roledescription="line mark container"><path aria-label="Year Acquired: Jan 01, 1753; stat: 1200; Statistic: 50%" role="graphics-symbol" aria-roledescription="line mark" d="M0,336.07L124.521,313.17L144.852,378.389L200.76,164.642L213.472,256.035L216.012,316.869L218.552,251.133L221.091,327.963L223.638,298.913L228.717,346.779L231.257,290.442L233.804,288.978L241.423,296.495L246.509,338.192L254.135,136.582L256.675,314.536L259.214,279.56L261.754,353.566L264.301,260.809L266.84,252.979L269.38,284.102L271.92,325.21L279.546,240.127L284.632,258.896L289.711,305.883L297.337,303.688L299.877,352.683L302.417,242.298L304.963,253.595L307.503,272.611L310.043,329.595L312.582,266.969L317.669,212.619L322.748,222.651L325.295,272.212L327.834,216.705L330.374,288.023L335.46,331.37L338,260.235L340.54,199.853L343.079,203.314L348.166,258.662L350.705,311.449L353.245,207.978L355.792,271.733L358.331,177.478L360.871,225.448L363.411,198.517L365.957,160.839L368.497,234.485L371.037,207.222L373.576,313.17L376.116,228.071L378.656,361.349L381.195,230.645L383.735,291.252L386.282,267.852L388.821,256.453L391.361,257.834L393.901,213.675L396.447,206.787L398.987,278.231L401.527,261.144L404.066,196.929L406.613,276.308L409.153,224.846L411.692,227.287L414.232,235.511L416.779,238.528L419.318,273.053L421.858,276.05L424.398,298.611L426.944,279.215L429.484,322.604L432.024,300.945L434.563,247.724L437.11,264.097L439.65,248.469L442.189,236.818L444.729,259.609L447.276,287.823L449.815,311.322L452.355,301.652L454.895,340.688L457.441,299.096L459.981,337.493L462.521,396.137L465.061,279.826L467.607,249.093L470.147,220.268L472.687,293L475.226,306.495L477.773,291.252L480.313,313.812L482.852,324.601L485.392,298.861L487.938,322.951L490.478,324.216L493.018,300.975L495.558,299.5L498.104,267.015L500.644,331.03L503.184,313.044L505.723,259.882L508.27,324.945L510.81,347.112L513.349,328.541L515.889,287.51L518.436,276.608L520.975,310.268L523.515,276.158L526.055,343.458L528.601,304.529L531.141,299.102L533.681,293.122L536.22,306.833L538.767,289.436L541.307,277.018L543.846,263.86L546.386,310.268L548.933,287.233L551.472,347.237L554.012,277.678L556.552,333.668L559.098,302.967L561.638,323.545L564.178,305.479L566.717,338.638L569.264,381.99L571.804,329.283L574.343,371.723L576.883,386.455L579.43,296.758L581.969,342.857L584.509,346.779L587.049,339.309L589.595,350.932L592.135,346.945L594.675,338.374L597.214,346.779L599.761,325.724L602.301,320.77L604.84,322.496L607.38,320.606L609.927,341.041L612.466,326.113L615.006,318.574L617.546,336.822L620.092,320.463L622.632,349.017L625.172,378.486L627.711,396.924L630.258,386.096L632.798,333.091L635.337,406.691L637.877,414.998L640.424,389.195L642.963,439.28L645.503,309.348L648.043,356.134L650.589,315.07L653.129,291.252L655.669,330.706L658.208,309.288L660.755,306.257L663.295,246.284L665.834,300.121L668.374,297.826L670.921,271.94L673.46,319.906L676,353.073" stroke="#f58518" stroke-width="2" opacity="1"></path></g></g><path class="foreground" aria-hidden="true" d="" display="none"></path></g><g transform="translate(0,0)"><path class="background" aria-hidden="true" d="M0,0h676v600h-676Z"></path><g><g class="mark-line role-mark marks" role="graphics-object" aria-roledescription="line mark container"><path aria-label="Year Acquired: Jan 01, 1753; stat: 1200; Statistic: 75%" role="graphics-symbol" aria-roledescription="line mark" d="M0,336.07L124.521,303.133L144.852,318.798L200.76,164.642L213.472,256.035L216.012,316.869L218.552,251.133L221.091,289.27L223.638,298.913L228.717,346.779L231.257,290.442L233.804,214.888L241.423,271.948L246.509,329.019L254.135,136.582L256.675,314.536L259.214,268.121L261.754,353.566L264.301,250.069L266.84,247.114L269.38,284.102L271.92,298.617L279.546,240.127L284.632,186.812L289.711,305.883L297.337,303.688L299.877,336.07L302.417,242.298L304.963,253.595L307.503,272.611L310.043,323.017L312.582,228.822L317.669,212.619L322.748,212.906L325.295,272.212L327.834,210.112L330.374,273.358L335.46,264.023L338,233.553L340.54,184.586L343.079,197.741L348.166,225.396L350.705,311.449L353.245,182.864L355.792,256.667L358.331,177.478L360.871,214.433L363.411,184.511L365.957,160.839L368.497,220.557L371.037,201.466L373.576,268.95L376.116,194.354L378.656,241.74L381.195,225.406L383.735,262.105L386.282,239.447L388.821,250.454L391.361,240.158L393.901,198.936L396.447,206.077L398.987,244.559L401.527,237.056L404.066,195.811L406.613,270.559L409.153,171.56L411.692,211.936L414.232,218.564L416.779,227.315L419.318,263.324L421.858,241.565L424.398,267.432L426.944,252.786L429.484,206.049L432.024,299.559L434.563,241.091L437.11,206.492L439.65,188.369L442.189,197.253L444.729,229.783L447.276,265.918L449.815,255.157L452.355,241.507L454.895,279.957L457.441,250.356L459.981,248.917L462.521,351.164L465.061,239.353L467.607,235.602L470.147,212.452L472.687,253.991L475.226,246.69L477.773,247.924L480.313,267.315L482.852,253.48L485.392,284.233L487.938,298.419L490.478,297.296L493.018,279.01L495.558,268.472L498.104,237.221L500.644,286.252L503.184,262.113L505.723,219.651L508.27,294.044L510.81,283.697L513.349,281.343L515.889,244.88L518.436,231.23L520.975,265.25L523.515,237.536L526.055,303.069L528.601,263.838L531.141,248.996L533.681,233.25L536.22,235.957L538.767,225.944L541.307,209.382L543.846,234.263L546.386,269.392L548.933,245.659L551.472,287.869L554.012,230.781L556.552,280.406L559.098,301.468L561.638,304.529L564.178,293.654L566.717,295.174L569.264,322.367L571.804,271.477L574.343,313.17L576.883,320.977L579.43,261.502L581.969,288.01L584.509,249.903L587.049,256.552L589.595,288.129L592.135,301.961L594.675,284.667L597.214,300.074L599.761,280.538L602.301,246.825L604.84,281.925L607.38,285.17L609.927,289.232L612.466,291.852L615.006,284.349L617.546,290.955L620.092,285.629L622.632,288.569L625.172,315.168L627.711,325.735L630.258,310.244L632.798,274.342L635.337,309.409L637.877,290.767L640.424,301.517L642.963,356.134L645.503,254.164L648.043,309.69L650.589,260.301L653.129,253.806L655.669,290.918L658.208,285.487L660.755,194.093L663.295,226.073L665.834,255.008L668.374,293.23L670.921,271.94L673.46,285.348L676,353.073" stroke="#e45756" stroke-width="2" opacity="1"></path></g></g><path class="foreground" aria-hidden="true" d="" display="none"></path></g><g transform="translate(0,0)"><path class="background" aria-hidden="true" d="M0,0h676v600h-676Z"></path><g><g class="mark-line role-mark marks" role="graphics-object" aria-roledescription="line mark container"><path aria-label="Year Acquired: Jan 01, 1753; stat: 1200; Statistic: max" role="graphics-symbol" aria-roledescription="line mark" d="M0,336.07L124.521,295.236L144.852,296.953L200.76,164.642L213.472,256.035L216.012,316.869L218.552,251.133L221.091,230.931L223.638,298.913L228.717,346.779L231.257,290.442L233.804,191.72L241.423,248.248L246.509,321.665L254.135,136.582L256.675,314.536L259.214,201.054L261.754,353.566L264.301,241.743L266.84,242.049L269.38,284.102L271.92,231.044L279.546,240.127L284.632,185.763L289.711,305.883L297.337,303.688L299.877,296.964L302.417,242.298L304.963,253.595L307.503,272.611L310.043,317.429L312.582,122.927L317.669,212.619L322.748,194.285L325.295,272.212L327.834,204.513L330.374,262.866L335.46,219.826L338,201.319L340.54,176.773L343.079,192.894L348.166,219.609L350.705,311.449L353.245,168.003L355.792,247.448L358.331,177.478L360.871,168.32L363.411,174.13L365.957,160.839L368.497,210.445L371.037,196.482L373.576,168.681L376.116,176.957L378.656,143.107L381.195,183.963L383.735,241.312L386.282,161.053L388.821,245.288L391.361,199.018L393.901,170.502L396.447,158.302L398.987,201.094L401.527,152.396L404.066,171.217L406.613,210.07L409.153,132.679L411.692,156.639L414.232,192.933L416.779,218.709L419.318,239.904L421.858,220.111L424.398,171.429L426.944,186.966L429.484,193.17L432.024,117.975L434.563,199.146L437.11,145.034L439.65,104.979L442.189,156.172L444.729,184.919L447.276,115.439L449.815,182.71L452.355,130.561L454.895,175.268L457.441,221.417L459.981,191.511L462.521,179.735L465.061,181.533L467.607,136.635L470.147,160.409L472.687,168.087L475.226,125.753L477.773,175.778L480.313,184.034L482.852,233.99L485.392,233.592L487.938,172.792L490.478,201.153L493.018,197.843L495.558,207.15L498.104,148.485L500.644,135.826L503.184,154.962L505.723,133.082L508.27,152.801L510.81,138.286L513.349,115.231L515.889,126.811L518.436,164.797L520.975,147.344L523.515,125.367L526.055,127.722L528.601,148.781L531.141,136.976L533.681,126.323L536.22,148.351L538.767,114.577L541.307,141.267L543.846,140.735L546.386,133.49L548.933,114.887L551.472,140.99L554.012,111.517L556.552,125.01L559.098,148.436L561.638,133.39L564.178,153.862L566.717,130.722L569.264,100.544L571.804,157.717L574.343,184.18L576.883,178.704L579.43,142.712L581.969,136.073L584.509,157.087L587.049,89.093L589.595,78.927L592.135,170.833L594.675,125.413L597.214,182.138L599.761,115.95L602.301,141.066L604.84,94.976L607.38,164.724L609.927,205.538L612.466,197.775L615.006,164.735L617.546,138.505L620.092,163.122L622.632,165.894L625.172,201.153L627.711,161.14L630.258,129.639L632.798,158.903L635.337,128.312L637.877,155.073L640.424,126.397L642.963,149.548L645.503,145.116L648.043,157.705L650.589,172.948L653.129,156.789L655.669,188.042L658.208,159.982L660.755,140.316L663.295,173.405L665.834,169.612L668.374,148.73L670.921,271.94L673.46,250.356L676,353.073" stroke="#54a24b" stroke-width="2" opacity="1"></path></g></g><path class="foreground" aria-hidden="true" d="" display="none"></path></g></g></g><path class="foreground" aria-hidden="true" d="" display="none"></path></g></g></g></svg>