<svg xmlns="http://www.w3.org/2000/svg" xmlns:xlink="http://www.w3.org/1999/xlink" version="1.1" class="marks" width="400" height="400" viewBox="0 0 400 400" style="background-color: white;"><g fill="none" stroke-miterlimit="10" transform="translate(44,40)"><g class="mark-group role-frame root" role="graphics-object" aria-roledescription="group mark container"><g transform="translate(0,0)"><path class="background" aria-hidden="true" d="M0.5,0.5h350v323h-350Z" fill="transparent" stroke="#ddd"></path><g><g class="mark-group role-axis" role="graphics-symbol" aria-roledescription="axis" aria-label="X-axis titled 'Year' for a linear scale with values from 1,970 to 2,020"><g transform="translate(0.5,323.5)"><path class="background" aria-hidden="true" d="M0,0h0v0h0Z" pointer-events="none"></path><g><g class="mark-rule role-axis-tick" pointer-events="none"><line transform="translate(0,0)" x2="0" y2="5" stroke="#888" stroke-width="1" opacity="1"></line><line transform="translate(35,0)" x2="0" y2="5" stroke="#888" stroke-width="1" opacity="1"></line><line transform="translate(70,0)" x2="0" y2="5" stroke="#888" stroke-width="1" opacity="1"></line><line transform="translate(105,0)" x2="0" y2="5" stroke="#888" stroke-width="1" opacity="1"></line><line transform="translate(140,0)" x2="0" y2="5" stroke="#888" stroke-width="1" opacity="1"></line><line transform="translate(175,0)" x2="0" y2="5" stroke="#888" stroke-width="1" opacity="1"></line><line transform="translate(210,0)" x2="0" y2="5" stroke="#888" stroke-width="1" opacity="1"></line><line transform="translate(245,0)" x2="0" y2="5" stroke="#888" stroke-width="1" opacity="1"></line><line transform="translate(280,0)" x2="0" y2="5" stroke="#888" stroke-width="1" opacity="1"></line><line transform="translate(315,0)" x2="0" y2="5" stroke="#888" stroke-width="1" opacity="1"></line><line transform="translate(350,0)" x2="0" y2="5" stroke="#888" stroke-width="1" opacity="1"></line></g><g class="mark-text role-axis-label" pointer-events="none"><text text-anchor="start" transform="translate(0,15)" font-family="sans-serif" font-size="10px" fill="#000" opacity="1">1,970</text><text text-anchor="middle" transform="translate(35,15)" font-family="sans-serif" font-size="10px" fill="#000" opacity="0">1,975</text><text text-anchor="middle" transform="translate(70,15)" font-family="sans-serif" font-size="10px" fill="#000" opacity="1">1,980</text><text text-anchor="middle" transform="translate(105,15)" font-family="sans-serif" font-size="10px" fill="#000" opacity="0">1,985</text><text text-anchor="middle" transform="translate(140,15)" font-family="sans-serif" font-size="10px" fill="#000" opacity="1">1,990</text><text text-anchor="middle" transform="translate(175,15)" font-family="sans-serif" font-size="10px" fill="#000" opacity="0">1,995</text><text text-anchor="middle" transform="translate(210,15)" font-family="sans-serif" font-size="10px" fill="#000" opacity="1">2,000</text><text text-anchor="middle" transform="translate(244.99999999999997,15)" font-family="sans-serif" font-size="10px" fill="#000" opacity="0">2,005</text><text text-anchor="middle" transform="translate(280,15)" font-family="sans-serif" font-size="10px" fill="#000" opacity="1">2,010</text><text text-anchor="middle" transform="translate(315,15)" font-family="sans-serif" font-size="10px" fill="#000" opacity="0">2,015</text><text text-anchor="end" transform="translate(350,15)" font-family="sans-serif" font-size="10px" fill="#000" opacity="1">2,020</text></g><g class="mark-rule role-axis-domain" pointer-events="none"><line transform="translate(0,0)" x2="350" y2="0" stroke="#888" stroke-width="1" opacity="1"></line></g><g class="mark-text role-axis-title" pointer-events="none"><text text-anchor="middle" transform="translate(175,30)" font-family="sans-serif" font-size="11px" font-weight="bold" fill="#000" opacity="1">Year</text></g></g><path class="foreground" aria-hidden="true" d="" pointer-events="none" display="none"></path></g></g><g class="mark-group role-axis" role="graphics-symbol" aria-roledescription="axis" aria-label="Y-axis for a linear scale with values from 0 to 16,000"><g transform="translate(0.5,0.5)"><path class="background" aria-hidden="true" d="M0,0h0v0h0Z" pointer-events="none"></path><g><g class="mark-rule role-axis-tick" pointer-events="none"><line transform="translate(0,323)" x2="-5" y2="0" stroke="#888" stroke-width="1" opacity="1"></line><line transform="translate(0,283)" x2="-5" y2="0" stroke="#888" stroke-width="1" opacity="1"></line><line transform="translate(0,242)" x2="-5" y2="0" stroke="#888" stroke-width="1" opacity="1"></line><line transform="translate(0,202)" x2="-5" y2="0" stroke="#888" stroke-width="1" opacity="1"></line><line transform="translate(0,162)" x2="-5" y2="0" stroke="#888" stroke-width="1" opacity="1"></line><line transform="translate(0,121)" x2="-5" y2="0" stroke="#888" stroke-width="1" opacity="1"></line><line transform="translate(0,81)" x2="-5" y2="0" stroke="#888" stroke-width="1" opacity="1"></line><line transform="translate(0,40)" x2="-5" y2="0" stroke="#888" stroke-width="1" opacity="1"></line><line transform="translate(0,0)" x2="-5" y2="0" stroke="#888" stroke-width="1" opacity="1"></line></g><g class="mark-text role-axis-label" pointer-events="none"><text text-anchor="end" transform="translate(-7,326)" font-family="sans-serif" font-size="10px" fill="#000" opacity="1">0</text><text text-anchor="end" transform="translate(-7,285.625)" font-family="sans-serif" font-size="10px" fill="#000" opacity="1">2,000</text><text text-anchor="end" transform="translate(-7,245.25)" font-family="sans-serif" font-size="10px" fill="#000" opacity="1">4,000</text><text text-anchor="end" transform="translate(-7,204.875)" font-family="sans-serif" font-size="10px" fill="#000" opacity="1">6,000</text><text text-anchor="end" transform="translate(-7,164.5)" font-family="sans-serif" font-size="10px" fill="#000" opacity="1">8,000</text><text text-anchor="end" transform="translate(-7,124.125)" font-family="sans-serif" font-size="10px" fill="#000" opacity="1">10,000</text><text text-anchor="end" transform="translate(-7,83.75)" font-family="sans-serif" font-size="10px" fill="#000" opacity="1">12,000</text><text text-anchor="end" transform="translate(-7,43.375)" font-family="sans-serif" font-size="10px" fill="#000" opacity="1">14,000</text><text text-anchor="end" transform="translate(-7,3)" font-family="sans-serif" font-size="10px" fill="#000" opacity="1">16,000</text></g><g class="mark-rule role-axis-domain" pointer-events="none"><line transform="translate(0,323)" x2="0" y2="-323" stroke="#888" stroke-width="1" opacity="1"></line></g></g><path class="foreground" aria-hidden="true" d="" pointer-events="none" display="none"></path></g></g><g class="mark-group role-scope layer_0_pathgroup" role="graphics-object" aria-roledescription="group mark container"><g transform="translate(0,0)"><path class="background" aria-hidden="true" d="M0,0h350v323h-350Z"></path><g><g class="mark-line role-mark layer_0_marks" role="graphics-object" aria-roledescription="line mark container"><path aria-label="Year: 1970; Value1: 271.4065; Region: Sub Saharan Africa" role="graphics-symbol" aria-roledescription="line mark" d="M0,317.521L7,317.249L14,316.801L21,315.933L28,315.348L35,315.557L42,315.048L49,315.232L56,315.576L63,314.841L70,314.688L77,314.775L84,314.772L91,314.677L98,314.287L105,314.04L112,314.075L119,313.714L126,313.437L133,313.414L140,313.318L147,313.36L154,313.323L161,313.365L168,313.174L175,312.575L182,311.906L189,311.532L196,311.512L203,311.744L210,311.426L217,311.026L224,310.957L231,310.248L238,309.595L245,309.275L252,309.261L259,308.908L266,308.052L273,308.762L280,308.042L287,308.11L294,307.492L301,307.019L308,306.628L315,306.406L322,305.949L329,305.792L336,305.539" stroke="rgb(212, 238, 180)" stroke-width="2"></path></g></g><path class="foreground" aria-hidden="true" d="" display="none"></path></g><g transform="translate(0,0)"><path class="background" aria-hidden="true" d="M0,0h350v323h-350Z"></path><g><g class="mark-line role-mark layer_0_marks" role="graphics-object" aria-roledescription="line mark container"><path aria-label="Year: 1970; Value1: 531.5656; Region: Latin America and Caribbean" role="graphics-symbol" aria-roledescription="line mark" d="M0,312.269L7,312.225L14,311.559L21,310.574L28,310.026L35,309.791L42,308.874L49,308.33L56,307.284L63,306.403L70,305.785L77,305.791L84,305.575L91,306.08L98,305.793L105,305.628L112,304.928L119,304.322L126,303.915L133,303.295L140,303.461L147,303.03L154,302.643L161,302.001L168,300.861L175,300.328L182,298.824L189,297.39L196,296.446L203,296.693L210,295.568L217,295.601L224,295.632L231,294.928L238,293.616L245,292.749L252,291.952L259,290.98L266,289.504L273,290.309L280,288.197L287,287.407L294,285.681L301,285.212L308,284.63L315,285.193L322,285.502L329,285.422L336,285.769" stroke="rgb(169, 221, 183)" stroke-width="2"></path></g></g><path class="foreground" aria-hidden="true" d="" display="none"></path></g><g transform="translate(0,0)"><path class="background" aria-hidden="true" d="M0,0h350v323h-350Z"></path><g><g class="mark-line role-mark layer_0_marks" role="graphics-object" aria-roledescription="line mark container"><path aria-label="Year: 1970; Value1: 5050.316; Region: North America" role="graphics-symbol" aria-roledescription="line mark" d="M0,221.047L7,223.5L14,218.122L21,213.949L28,217.161L35,221.713L42,215.509L49,211.903L56,211.949L63,210.849L70,215.353L77,217.153L84,222.516L91,223.02L98,218.375L105,217.854L112,218.878L119,215.47L126,210.368L133,208.894L140,211.584L147,212.567L154,210.679L161,208.293L168,206.268L175,204.974L182,201.718L189,197.873L196,197.468L203,196.852L210,192.313L217,193.674L224,195.143L231,193.215L238,191.686L245,191.246L252,193.506L259,191.271L266,195.503L273,204.602L280,199.418L287,201.84L294,205.463L301,203.725L308,202.178L315,205.596L322,206.944L329,207.447L336,204.495" stroke="rgb(116, 201, 189)" stroke-width="2"></path></g></g><path class="foreground" aria-hidden="true" d="" display="none"></path></g><g transform="translate(0,0)"><path class="background" aria-hidden="true" d="M0,0h350v323h-350Z"></path><g><g class="mark-line role-mark layer_0_marks" role="graphics-object" aria-roledescription="line mark container"><path aria-label="Year: 1970; Value1: 2196.186; Region: East Asia and Pacific" role="graphics-symbol" aria-roledescription="line mark" d="M0,278.664L7,278.573L14,275.828L21,271.807L28,271.109L35,268.754L42,266.51L49,261.652L56,255.52L63,253.303L70,253.931L77,254.499L84,253.575L91,251.295L98,246.088L105,245.359L112,242.591L119,238.818L126,232.414L133,228.942L140,225.108L147,220.825L154,217.042L161,210.898L168,204.711L175,195.805L182,194.047L189,191.092L196,191.432L203,190.044L210,182.838L217,178.201L224,170.299L231,155.219L238,138.294L245,122.846L252,107.88L259,92.084L266,89.797L273,80.207L280,61.352L287,41.422L294,35.155L301,24.76L308,21.897L315,21.841L322,16.668L329,12.611L336,7.576" stroke="rgb(69, 180, 194)" stroke-width="2"></path></g></g><path class="foreground" aria-hidden="true" d="" display="none"></path></g><g transform="translate(0,0)"><path class="background" aria-hidden="true" d="M0,0h350v323h-350Z"></path><g><g class="mark-line role-mark layer_0_marks" role="graphics-object" aria-roledescription="line mark container"><path aria-label="Year: 1970; Value1: 6585.2; Region: Europe and Central Asia" role="graphics-symbol" aria-roledescription="line mark" d="M0,190.061L7,189.973L14,184.877L21,177.125L28,176.545L35,175.61L42,167.714L49,166.442L56,159.417L63,154.799L70,155.577L77,160.35L84,161.761L91,161.356L98,160.412L105,158.627L112,155.989L119,152.624L126,151.39L133,151.209L140,149.364L147,152.631L154,162.691L161,171.625L168,179.953L175,180.561L182,180.517L189,184.96L196,185.061L203,185.963L210,184.323L217,183.323L224,183.494L231,179.121L238,178.64L245,179.27L252,176.598L259,176.591L266,177.703L273,189.199L280,183.255L287,183.206L294,183.429L301,186.685L308,191.398L315,191.401L322,190.815L329,189.629L336,188.761" stroke="rgb(41, 151, 190)" stroke-width="2"></path></g></g><path class="foreground" aria-hidden="true" d="" display="none"></path></g><g transform="translate(0,0)"><path class="background" aria-hidden="true" d="M0,0h350v323h-350Z"></path><g><g class="mark-line role-mark layer_0_marks" role="graphics-object" aria-roledescription="line mark container"><path aria-label="Year: 1970; Value1: 261.4283; Region: South Asia" role="graphics-symbol" aria-roledescription="line mark" d="M0,317.722L7,317.682L14,317.47L21,317.466L28,317.079L35,316.668L42,316.286L49,316.142L56,316.735L63,316.253L70,315.945L77,315.285L84,314.748L91,314.244L98,313.486L105,312.984L112,312.327L119,311.464L126,310.774L133,309.961L140,309.25L147,308.316L154,307.683L161,306.911L168,305.93L175,304.614L182,303.745L189,302.797L196,302.45L203,300.814L210,300.031L217,299.557L224,298.717L231,298.074L238,295.959L245,294.743L252,292.886L259,290.249L266,288.433L273,284.742L280,282.909L287,280.758L294,277.751L301,276.824L308,272.714L315,271.019L322,268.999L329,267.106L336,263.285" stroke="rgb(33, 115, 177)" stroke-width="2"></path></g></g><path class="foreground" aria-hidden="true" d="" display="none"></path></g><g transform="translate(0,0)"><path class="background" aria-hidden="true" d="M0,0h350v323h-350Z"></path><g><g class="mark-line role-mark layer_0_marks" role="graphics-object" aria-roledescription="line mark container"><path aria-label="Year: 1970; Value1: 356.7005; Region: Middle East and North Africa" role="graphics-symbol" aria-roledescription="line mark" d="M0,315.799L7,315.308L14,314.384L21,313.005L28,312.996L35,312.897L42,311.198L49,310.767L56,310.158L63,309.669L70,309.445L77,310.11L84,309.18L91,308.392L98,308.545L105,307.805L112,307.456L119,306.697L126,305.966L133,304.906L140,304.66L147,303.801L154,302.622L161,301.437L168,299.724L175,299.104L182,298.214L189,297.088L196,297.104L203,296.12L210,294.937L217,293.424L224,292.332L231,291.19L238,289.435L245,287.114L252,285.122L259,283.391L266,281.164L273,279.21L280,277.383L287,276.397L294,274.113L301,272.837L308,271.04L315,270.458L322,268.986L329,267.523L336,266.205" stroke="rgb(35, 78, 160)" stroke-width="2"></path></g></g><path class="foreground" aria-hidden="true" d="" display="none"></path></g></g><g class="mark-rule role-mark layer_1_marks" role="graphics-object" aria-roledescription="rule mark container"><line aria-label="x: 1997" role="graphics-symbol" aria-roledescription="rule mark" transform="translate(189,0)" x2="0" y2="323" stroke="#e54753" stroke-width="2"></line><line aria-label="x: 2009" role="graphics-symbol" aria-roledescription="rule mark" transform="translate(273,0)" x2="0" y2="323" stroke="#e54753" stroke-width="2"></line><line aria-label="x: 2015" role="graphics-symbol" aria-roledescription="rule mark" transform="translate(315,0)" x2="0" y2="323" stroke="#e54753" stroke-width="2"></line></g><g class="mark-group role-legend" role="graphics-symbol" aria-roledescription="legend" aria-label="Symbol legend for stroke color with 7 values: Sub Saharan Africa, Latin America and Caribbean, North America, East Asia and Pacific, Europe and Central Asia, South Asia, Middle East and North Africa"><g transform="translate(18,18)"><path class="background" aria-hidden="true" d="M0,0h155v89h-155Z" pointer-events="none"></path><g><g class="mark-group role-legend-entry"><g transform="translate(0,0)"><path class="background" aria-hidden="true" d="M0,0h0v0h0Z" pointer-events="none"></path><g><g class="mark-group role-scope" role="graphics-object" aria-roledescription="group mark container"><g transform="translate(0,0)"><path class="background" aria-hidden="true" d="M0,0h154.88671875v11h-154.88671875Z" pointer-events="none" opacity="1"></path><g><g class="mark-symbol role-legend-symbol" pointer-events="none"><path transform="translate(6,6)" d="M-5,0L5,0" fill="transparent" stroke="rgb(212, 238, 180)" stroke-width="1.5" opacity="1"></path></g><g class="mark-text role-legend-label" pointer-events="none"><text text-anchor="start" transform="translate(16,9)" font-family="sans-serif" font-size="10px" fill="#000" opacity="1">Sub Saharan Africa</text></g></g><path class="foreground" aria-hidden="true" d="" pointer-events="none" display="none"></path></g><g transform="translate(0,13)"><path class="background" aria-hidden="true" d="M0,0h154.88671875v11h-154.88671875Z" pointer-events="none" opacity="1"></path><g><g class="mark-symbol role-legend-symbol" pointer-events="none"><path transform="translate(6,6)" d="M-5,0L5,0" fill="transparent" stroke="rgb(169, 221, 183)" stroke-width="1.5" opacity="1"></path></g><g class="mark-text role-legend-label" pointer-events="none"><text text-anchor="start" transform="translate(16,9)" font-family="sans-serif" font-size="10px" fill="#000" opacity="1">Latin America and Caribbean</text></g></g><path class="foreground" aria-hidden="true" d="" pointer-events="none" display="none"></path></g><g transform="translate(0,26)"><path class="background" aria-hidden="true" d="M0,0h154.88671875v11h-154.88671875Z" pointer-events="none" opacity="1"></path><g><g class="mark-symbol role-legend-symbol" pointer-events="none"><path transform="translate(6,6)" d="M-5,0L5,0" fill="transparent" stroke="rgb(116, 201, 189)" stroke-width="1.5" opacity="1"></path></g><g class="mark-text role-legend-label" pointer-events="none"><text text-anchor="start" transform="translate(16,9)" font-family="sans-serif" font-size="10px" fill="#000" opacity="1">North America</text></g></g><path class="foreground" aria-hidden="true" d="" pointer-events="none" display="none"></path></g><g transform="translate(0,39)"><path class="background" aria-hidden="true" d="M0,0h154.88671875v11h-154.88671875Z" pointer-events="none" opacity="1"></path><g><g class="mark-symbol role-legend-symbol" pointer-events="none"><path transform="translate(6,6)" d="M-5,0L5,0" fill="transparent" stroke="rgb(69, 180, 194)" stroke-width="1.5" opacity="1"></path></g><g class="mark-text role-legend-label" pointer-events="none"><text text-anchor="start" transform="translate(16,9)" font-family="sans-serif" font-size="10px" fill="#000" opacity="1">East Asia and Pacific</text></g></g><path class="foreground" aria-hidden="true" d="" pointer-events="none" display="none"></path></g><g transform="translate(0,52)"><path class="background" aria-hidden="true" d="M0,0h154.88671875v11h-154.88671875Z" pointer-events="none" opacity="1"></path><g><g class="mark-symbol role-legend-symbol" pointer-events="none"><path transform="translate(6,6)" d="M-5,0L5,0" fill="transparent" stroke="rgb(41, 151, 190)" stroke-width="1.5" opacity="1"></path></g><g class="mark-text role-legend-label" pointer-events="none"><text text-anchor="start" transform="translate(16,9)" font-family="sans-serif" font-size="10px" fill="#000" opacity="1">Europe and Central Asia</text></g></g><path class="foreground" aria-hidden="true" d="" pointer-events="none" display="none"></path></g><g transform="translate(0,65)"><path class="background" aria-hidden="true" d="M0,0h154.88671875v11h-154.88671875Z" pointer-events="none" opacity="1"></path><g><g class="mark-symbol role-legend-symbol" pointer-events="none"><path transform="translate(6,6)" d="M-5,0L5,0" fill="transparent" stroke="rgb(33, 115, 177)" stroke-width="1.5" opacity="1"></path></g><g class="mark-text role-legend-label" pointer-events="none"><text text-anchor="start" transform="translate(16,9)" font-family="sans-serif" font-size="10px" fill="#000" opacity="1">South Asia</text></g></g><path class="foreground" aria-hidden="true" d="" pointer-events="none" display="none"></path></g><g transform="translate(0,78)"><path class="background" aria-hidden="true" d="M0,0h154.88671875v11h-154.88671875Z" pointer-events="none" opacity="1"></path><g><g class="mark-symbol role-legend-symbol" pointer-events="none"><path transform="translate(6,6)" d="M-5,0L5,0" fill="transparent" stroke="rgb(35, 78, 160)" stroke-width="1.5" opacity="1"></path></g><g class="mark-text role-legend-label" pointer-events="none"><text text-anchor="start" transform="translate(16,9)" font-family="sans-serif" font-size="10px" fill="#000" opacity="1">Middle East and North Africa</text></g></g><path class="foreground" aria-hidden="true" d="" pointer-events="none" display="none"></path></g></g></g><path class="foreground" aria-hidden="true" d="" pointer-events="none" display="none"></path></g></g></g><path class="foreground" aria-hidden="true" d="" pointer-events="none" display="none"></path></g></g><g class="mark-group role-title"><g transform="translate(-38.728515625,-35)"><path class="background" aria-hidden="true" d="M0,0h0v0h0Z" pointer-events="none"></path><g><g class="mark-text role-title-text" role="graphics-symbol" aria-roledescription="title" aria-label="Title text 'CO₂ Emissions per capita by region'" pointer-events="none"><text text-anchor="start" transform="translate(0,10)" font-family="sans-serif" font-size="13px" font-weight="bold" fill="black" opacity="1">CO₂ Emissions per capita by region</text></g><g class="mark-text role-title-subtitle" role="graphics-symbol" aria-roledescription="subtitle" aria-label="Subtitle text 'Million tonnes. Source: Authors' calculations'" pointer-events="none"><text text-anchor="start" transform="translate(0,24)" font-family="sans-serif" font-size="10px" font-style="italic" fill="#000" opacity="1">Million tonnes. Source: Authors' calculations</text></g></g><path class="foreground" aria-hidden="true" d="" pointer-events="none" display="none"></path></g></g></g><path class="foreground" aria-hidden="true" d="" display="none"></path></g></g></g></svg>