<svg xmlns="http://www.w3.org/2000/svg" xmlns:xlink="http://www.w3.org/1999/xlink" version="1.1" class="marks" width="600" height="351" viewBox="0 0 600 351" style="background-color: rgb(241, 244, 244);"><g fill="none" stroke-miterlimit="10" transform="translate(55,10)"><g class="mark-group role-frame root" role="graphics-object" aria-roledescription="group mark container"><g transform="translate(0,0)"><path class="background" aria-hidden="true" d="M0.5,0.5h540v250h-540Z" fill="transparent" stroke="#ddd"></path><g><g class="mark-group role-axis" aria-hidden="true"><g transform="translate(0.5,0.5)"><path class="background" aria-hidden="true" d="M0,0h0v0h0Z" pointer-events="none"></path><g><g class="mark-rule role-axis-grid" pointer-events="none"><line transform="translate(0,250)" x2="540" y2="0" stroke="#ddd" stroke-width="1" opacity="1"></line><line transform="translate(0,200)" x2="540" y2="0" stroke="#ddd" stroke-width="1" opacity="1"></line><line transform="translate(0,150)" x2="540" y2="0" stroke="#ddd" stroke-width="1" opacity="1"></line><line transform="translate(0,100)" x2="540" y2="0" stroke="#ddd" stroke-width="1" opacity="1"></line><line transform="translate(0,50)" x2="540" y2="0" stroke="#ddd" stroke-width="1" opacity="1"></line><line transform="translate(0,0)" x2="540" y2="0" stroke="#ddd" stroke-width="1" opacity="1"></line></g></g><path class="foreground" aria-hidden="true" d="" pointer-events="none" display="none"></path></g></g><g class="mark-group role-axis" role="graphics-symbol" aria-roledescription="axis" aria-label="X-axis for a discrete scale with 24 values: Austria, Belgium, Bulgaria, Croatia, Cyprus, ending with United Kingdom"><g transform="translate(0.5,250.5)"><path class="background" aria-hidden="true" d="M0,0h0v0h0Z" pointer-events="none"></path><g><g class="mark-rule role-axis-tick" pointer-events="none"><line transform="translate(11,0)" x2="0" y2="5" stroke="#888" stroke-width="1" opacity="1"></line><line transform="translate(33,0)" x2="0" y2="5" stroke="#888" stroke-width="1" opacity="1"></line><line transform="translate(56,0)" x2="0" y2="5" stroke="#888" stroke-width="1" opacity="1"></line><line transform="translate(78,0)" x2="0" y2="5" stroke="#888" stroke-width="1" opacity="1"></line><line transform="translate(101,0)" x2="0" y2="5" stroke="#888" stroke-width="1" opacity="1"></line><line transform="translate(123,0)" x2="0" y2="5" stroke="#888" stroke-width="1" opacity="1"></line><line transform="translate(146,0)" x2="0" y2="5" stroke="#888" stroke-width="1" opacity="1"></line><line transform="translate(168,0)" x2="0" y2="5" stroke="#888" stroke-width="1" opacity="1"></line><line transform="translate(191,0)" x2="0" y2="5" stroke="#888" stroke-width="1" opacity="1"></line><line transform="translate(213,0)" x2="0" y2="5" stroke="#888" stroke-width="1" opacity="1"></line><line transform="translate(236,0)" x2="0" y2="5" stroke="#888" stroke-width="1" opacity="1"></line><line transform="translate(258,0)" x2="0" y2="5" stroke="#888" stroke-width="1" opacity="1"></line><line transform="translate(281,0)" x2="0" y2="5" stroke="#888" stroke-width="1" opacity="1"></line><line transform="translate(303,0)" x2="0" y2="5" stroke="#888" stroke-width="1" opacity="1"></line><line transform="translate(326,0)" x2="0" y2="5" stroke="#888" stroke-width="1" opacity="1"></line><line transform="translate(348,0)" x2="0" y2="5" stroke="#888" stroke-width="1" opacity="1"></line><line transform="translate(371,0)" x2="0" y2="5" stroke="#888" stroke-width="1" opacity="1"></line><line transform="translate(393,0)" x2="0" y2="5" stroke="#888" stroke-width="1" opacity="1"></line><line transform="translate(416,0)" x2="0" y2="5" stroke="#888" stroke-width="1" opacity="1"></line><line transform="translate(438,0)" x2="0" y2="5" stroke="#888" stroke-width="1" opacity="1"></line><line transform="translate(461,0)" x2="0" y2="5" stroke="#888" stroke-width="1" opacity="1"></line><line transform="translate(483,0)" x2="0" y2="5" stroke="#888" stroke-width="1" opacity="1"></line><line transform="translate(506,0)" x2="0" y2="5" stroke="#888" stroke-width="1" opacity="1"></line><line transform="translate(528,0)" x2="0" y2="5" stroke="#888" stroke-width="1" opacity="1"></line></g><g class="mark-text role-axis-label" pointer-events="none"><text text-anchor="end" transform="translate(10.75,7) rotate(270) translate(0,3)" font-family="sans-serif" font-size="10px" fill="#000" opacity="1">Austria</text><text text-anchor="end" transform="translate(33.25,7) rotate(270) translate(0,3)" font-family="sans-serif" font-size="10px" fill="#000" opacity="1">Belgium</text><text text-anchor="end" transform="translate(55.75,7) rotate(270) translate(0,3)" font-family="sans-serif" font-size="10px" fill="#000" opacity="1">Bulgaria</text><text text-anchor="end" transform="translate(78.25,7) rotate(270) translate(0,3)" font-family="sans-serif" font-size="10px" fill="#000" opacity="1">Croatia</text><text text-anchor="end" transform="translate(100.75,7) rotate(270) translate(0,3)" font-family="sans-serif" font-size="10px" fill="#000" opacity="1">Cyprus</text><text text-anchor="end" transform="translate(123.25,7) rotate(270) translate(0,3)" font-family="sans-serif" font-size="10px" fill="#000" opacity="1">Czechia</text><text text-anchor="end" transform="translate(145.75,7) rotate(270) translate(0,3)" font-family="sans-serif" font-size="10px" fill="#000" opacity="1">Denmark</text><text text-anchor="end" transform="translate(168.25,7) rotate(270) translate(0,3)" font-family="sans-serif" font-size="10px" fill="#000" opacity="1">Estonia</text><text text-anchor="end" transform="translate(190.75,7) rotate(270) translate(0,3)" font-family="sans-serif" font-size="10px" fill="#000" opacity="1">Finland</text><text text-anchor="end" transform="translate(213.25,7) rotate(270) translate(0,3)" font-family="sans-serif" font-size="10px" fill="#000" opacity="1">France</text><text text-anchor="end" transform="translate(235.75,7) rotate(270) translate(0,3)" font-family="sans-serif" font-size="10px" fill="#000" opacity="1">Germany</text><text text-anchor="end" transform="translate(258.25,7) rotate(270) translate(0,3)" font-family="sans-serif" font-size="10px" fill="#000" opacity="1">Greece</text><text text-anchor="end" transform="translate(280.75,7) rotate(270) translate(0,3)" font-family="sans-serif" font-size="10px" fill="#000" opacity="1">Hungary</text><text text-anchor="end" transform="translate(303.25,7) rotate(270) translate(0,3)" font-family="sans-serif" font-size="10px" fill="#000" opacity="1">Italy</text><text text-anchor="end" transform="translate(325.75,7) rotate(270) translate(0,3)" font-family="sans-serif" font-size="10px" fill="#000" opacity="1">Lithuania</text><text text-anchor="end" transform="translate(348.25,7) rotate(270) translate(0,3)" font-family="sans-serif" font-size="10px" fill="#000" opacity="1">Luxemburg</text><text text-anchor="end" transform="translate(370.75,7) rotate(270) translate(0,3)" font-family="sans-serif" font-size="10px" fill="#000" opacity="1">Malta</text><text text-anchor="end" transform="translate(393.25,7) rotate(270) translate(0,3)" font-family="sans-serif" font-size="10px" fill="#000" opacity="1">Netherlands</text><text text-anchor="end" transform="translate(415.75,7) rotate(270) translate(0,3)" font-family="sans-serif" font-size="10px" fill="#000" opacity="1">Poland</text><text text-anchor="end" transform="translate(438.25,7) rotate(270) translate(0,3)" font-family="sans-serif" font-size="10px" fill="#000" opacity="1">Romania</text><text text-anchor="end" transform="translate(460.75,7) rotate(270) translate(0,3)" font-family="sans-serif" font-size="10px" fill="#000" opacity="1">Slovakia</text><text text-anchor="end" transform="translate(483.25,7) rotate(270) translate(0,3)" font-family="sans-serif" font-size="10px" fill="#000" opacity="1">Spain</text><text text-anchor="end" transform="translate(505.75,7) rotate(270) translate(0,3)" font-family="sans-serif" font-size="10px" fill="#000" opacity="1">Sweden</text><text text-anchor="end" transform="translate(528.25,7) rotate(270) translate(0,3)" font-family="sans-serif" font-size="10px" fill="#000" opacity="1">United Kingdom</text></g><g class="mark-rule role-axis-domain" pointer-events="none"><line transform="translate(0,0)" x2="540" y2="0" stroke="#888" stroke-width="1" opacity="1"></line></g></g><path class="foreground" aria-hidden="true" d="" pointer-events="none" display="none"></path></g></g><g class="mark-group role-axis" role="graphics-symbol" aria-roledescription="axis" aria-label="Y-axis titled 'Ice-cream production (Liter)' for a linear scale with values from 0M to 500M"><g transform="translate(0.5,0.5)"><path class="background" aria-hidden="true" d="M0,0h0v0h0Z" pointer-events="none"></path><g><g class="mark-rule role-axis-tick" pointer-events="none"><line transform="translate(0,250)" x2="-5" y2="0" stroke="#888" stroke-width="1" opacity="1"></line><line transform="translate(0,200)" x2="-5" y2="0" stroke="#888" stroke-width="1" opacity="1"></line><line transform="translate(0,150)" x2="-5" y2="0" stroke="#888" stroke-width="1" opacity="1"></line><line transform="translate(0,100)" x2="-5" y2="0" stroke="#888" stroke-width="1" opacity="1"></line><line transform="translate(0,50)" x2="-5" y2="0" stroke="#888" stroke-width="1" opacity="1"></line><line transform="translate(0,0)" x2="-5" y2="0" stroke="#888" stroke-width="1" opacity="1"></line></g><g class="mark-text role-axis-label" pointer-events="none"><text text-anchor="end" transform="translate(-7,253)" font-family="sans-serif" font-size="10px" fill="#000" opacity="1">0M</text><text text-anchor="end" transform="translate(-7,203)" font-family="sans-serif" font-size="10px" fill="#000" opacity="1">100M</text><text text-anchor="end" transform="translate(-7,153)" font-family="sans-serif" font-size="10px" fill="#000" opacity="1">200M</text><text text-anchor="end" transform="translate(-7,103)" font-family="sans-serif" font-size="10px" fill="#000" opacity="1">300M</text><text text-anchor="end" transform="translate(-7,52.999999999999986)" font-family="sans-serif" font-size="10px" fill="#000" opacity="1">400M</text><text text-anchor="end" transform="translate(-7,3)" font-family="sans-serif" font-size="10px" fill="#000" opacity="1">500M</text></g><g class="mark-rule role-axis-domain" pointer-events="none"><line transform="translate(0,250)" x2="0" y2="-250" stroke="#888" stroke-width="1" opacity="1"></line></g><g class="mark-text role-axis-title" pointer-events="none"><text text-anchor="middle" transform="translate(-38.36328125,125) rotate(-90) translate(0,-2)" font-family="sans-serif" font-size="11px" font-weight="bold" fill="#000" opacity="1">Ice-cream production (Liter)</text></g></g><path class="foreground" aria-hidden="true" d="" pointer-events="none" display="none"></path></g></g><g class="mark-rect role-mark marks" role="graphics-object" aria-roledescription="rect mark container"><path aria-label="DECL: France; Ice-cream production (Liter): 450.600M; Value: 450M; Country: France" role="graphics-symbol" aria-roledescription="bar" d="M203.625,24.69996099999999h20.25v225.300039h-20.25Z" fill="#4c78a8"></path><path aria-label="DECL: Netherlands; Ice-cream production (Liter): 115.828M; Value: 120M; Country: Netherlands" role="graphics-symbol" aria-roledescription="bar" d="M383.625,192.086h20.25v57.91399999999999h-20.25Z" fill="#4c78a8"></path><path aria-label="DECL: Germany; Ice-cream production (Liter): 493.946M; Value: 490M; Country: Germany" role="graphics-symbol" aria-roledescription="bar" d="M226.125,3.0271645000000125h20.25v246.97283549999997h-20.25Z" fill="#4c78a8"></path><path aria-label="DECL: Italy; Ice-cream production (Liter): 435.463M; Value: 440M; Country: Italy" role="graphics-symbol" aria-roledescription="bar" d="M293.625,32.26847299999999h20.25v217.731527h-20.25Z" fill="#4c78a8"></path><path aria-label="DECL: United Kingdom; Ice-cream production (Liter): 328.055M; Value: 330M; Country: United Kingdom" role="graphics-symbol" aria-roledescription="bar" d="M518.625,85.9724795h20.25v164.02752049999998h-20.25Z" fill="#4c78a8"></path><path aria-label="DECL: Denmark; Ice-cream production (Liter): 17.9922M; Value: 18M; Country: Denmark" role="graphics-symbol" aria-roledescription="bar" d="M136.125,241.00387800000001h20.25v8.996121999999986h-20.25Z" fill="#4c78a8"></path><path aria-label="DECL: Greece; Ice-cream production (Liter): 30.1530M; Value: 30M; Country: Greece" role="graphics-symbol" aria-roledescription="bar" d="M248.625,234.92352499999998h20.25v15.076475000000016h-20.25Z" fill="#4c78a8"></path><path aria-label="DECL: Spain; Ice-cream production (Liter): 307.065M; Value: 310M; Country: Spain" role="graphics-symbol" aria-roledescription="bar" d="M473.625,96.46750000000002h20.25v153.53249999999997h-20.25Z" fill="#4c78a8"></path><path aria-label="DECL: Belgium; Ice-cream production (Liter): 209.300M; Value: 210M; Country: Belgium" role="graphics-symbol" aria-roledescription="bar" d="M23.625,145.349847h20.25v104.65015299999999h-20.25Z" fill="#4c78a8"></path><path aria-label="DECL: Luxemburg; Ice-cream production (Liter): 0.00000; Value: 0.0; Country: Luxemburg" role="graphics-symbol" aria-roledescription="bar" d="M338.625,250h20.25v0h-20.25Z" fill="#4c78a8"></path><path aria-label="DECL: Sweden; Ice-cream production (Liter): 99.1413M; Value: 99M; Country: Sweden" role="graphics-symbol" aria-roledescription="bar" d="M496.125,200.42935h20.25v49.57065h-20.25Z" fill="#4c78a8"></path><path aria-label="DECL: Finland; Ice-cream production (Liter): 39.8974M; Value: 40M; Country: Finland" role="graphics-symbol" aria-roledescription="bar" d="M181.125,230.0513095h20.25v19.948690499999998h-20.25Z" fill="#4c78a8"></path><path aria-label="DECL: Austria; Ice-cream production (Liter): 2.75740M; Value: 2.8M; Country: Austria" role="graphics-symbol" aria-roledescription="bar" d="M1.125,248.621302h20.25v1.3786980000000142h-20.25Z" fill="#4c78a8"></path><path aria-label="DECL: Malta; Ice-cream production (Liter): 0.00000; Value: 0.0; Country: Malta" role="graphics-symbol" aria-roledescription="bar" d="M361.125,250h20.25v0h-20.25Z" fill="#4c78a8"></path><path aria-label="DECL: Estonia; Ice-cream production (Liter): 20.3498M; Value: 20M; Country: Estonia" role="graphics-symbol" aria-roledescription="bar" d="M158.625,239.82510000000002h20.25v10.17489999999998h-20.25Z" fill="#4c78a8"></path><path aria-label="DECL: Lithuania; Ice-cream production (Liter): 42.1123M; Value: 42M; Country: Lithuania" role="graphics-symbol" aria-roledescription="bar" d="M316.125,228.9438395h20.25v21.056160500000004h-20.25Z" fill="#4c78a8"></path><path aria-label="DECL: Poland; Ice-cream production (Liter): 237.756M; Value: 240M; Country: Poland" role="graphics-symbol" aria-roledescription="bar" d="M406.125,131.1222h20.25v118.87780000000001h-20.25Z" fill="#4c78a8"></path><path aria-label="DECL: Czechia; Ice-cream production (Liter): 50.9050M; Value: 51M; Country: Czechia" role="graphics-symbol" aria-roledescription="bar" d="M113.625,224.5475h20.25v25.452499999999986h-20.25Z" fill="#4c78a8"></path><path aria-label="DECL: Slovakia; Ice-cream production (Liter): 176.103k; Value: 180k; Country: Slovakia" role="graphics-symbol" aria-roledescription="bar" d="M451.125,249.91194850000002h20.25v0.08805149999997752h-20.25Z" fill="#4c78a8"></path><path aria-label="DECL: Hungary; Ice-cream production (Liter): 65.0090M; Value: 65M; Country: Hungary" role="graphics-symbol" aria-roledescription="bar" d="M271.125,217.49550000000002h20.25v32.50449999999998h-20.25Z" fill="#4c78a8"></path><path aria-label="DECL: Romania; Ice-cream production (Liter): 49.8620M; Value: 50M; Country: Romania" role="graphics-symbol" aria-roledescription="bar" d="M428.625,225.068999h20.25v24.93100100000001h-20.25Z" fill="#4c78a8"></path><path aria-label="DECL: Bulgaria; Ice-cream production (Liter): 29.6740M; Value: 30M; Country: Bulgaria" role="graphics-symbol" aria-roledescription="bar" d="M46.125,235.16301349999998h20.25v14.836986500000023h-20.25Z" fill="#4c78a8"></path><path aria-label="DECL: Croatia; Ice-cream production (Liter): 34.8464M; Value: 35M; Country: Croatia" role="graphics-symbol" aria-roledescription="bar" d="M68.625,232.5768h20.25v17.42320000000001h-20.25Z" fill="#4c78a8"></path><path aria-label="DECL: Cyprus; Ice-cream production (Liter): 0.00000; Value: 0.0; Country: Cyprus" role="graphics-symbol" aria-roledescription="bar" d="M91.125,250h20.25v0h-20.25Z" fill="#4c78a8"></path></g></g><path class="foreground" aria-hidden="true" d="" display="none"></path></g></g></g></svg>