<svg xmlns="http://www.w3.org/2000/svg" xmlns:xlink="http://www.w3.org/1999/xlink" version="1.1" class="marks" width="762" height="675" viewBox="0 0 762 675" style="background-color: white;"><g fill="none" stroke-miterlimit="10" transform="translate(39,38)"><g class="mark-group role-frame root" role="graphics-object" aria-roledescription="group mark container"><g transform="translate(0,0)"><path class="background" aria-hidden="true" d="M0.5,0.5h717v600h-717Z" fill="transparent" stroke="transparent"></path><g><g class="mark-group role-axis" role="graphics-symbol" aria-roledescription="axis" aria-label="X-axis titled 'Income per person' for a log scale with values from $100 to $100,000"><g transform="translate(0.5,600.5)"><path class="background" aria-hidden="true" d="M0,0h0v0h0Z" pointer-events="none"></path><g><g class="mark-rule role-axis-tick" pointer-events="none"><line transform="translate(0,0)" x2="0" y2="5" stroke="#888" stroke-width="1" opacity="1"></line><line transform="translate(72,0)" x2="0" y2="5" stroke="#888" stroke-width="1" opacity="1"></line><line transform="translate(114,0)" x2="0" y2="5" stroke="#888" stroke-width="1" opacity="1"></line><line transform="translate(144,0)" x2="0" y2="5" stroke="#888" stroke-width="1" opacity="1"></line><line transform="translate(167,0)" x2="0" y2="5" stroke="#888" stroke-width="1" opacity="1"></line><line transform="translate(186,0)" x2="0" y2="5" stroke="#888" stroke-width="1" opacity="1"></line><line transform="translate(202,0)" x2="0" y2="5" stroke="#888" stroke-width="1" opacity="1"></line><line transform="translate(216,0)" x2="0" y2="5" stroke="#888" stroke-width="1" opacity="1"></line><line transform="translate(228,0)" x2="0" y2="5" stroke="#888" stroke-width="1" opacity="1"></line><line transform="translate(239,0)" x2="0" y2="5" stroke="#888" stroke-width="1" opacity="1"></line><line transform="translate(311,0)" x2="0" y2="5" stroke="#888" stroke-width="1" opacity="1"></line><line transform="translate(353,0)" x2="0" y2="5" stroke="#888" stroke-width="1" opacity="1"></line><line transform="translate(383,0)" x2="0" y2="5" stroke="#888" stroke-width="1" opacity="1"></line><line transform="translate(406,0)" x2="0" y2="5" stroke="#888" stroke-width="1" opacity="1"></line><line transform="translate(425,0)" x2="0" y2="5" stroke="#888" stroke-width="1" opacity="1"></line><line transform="translate(441,0)" x2="0" y2="5" stroke="#888" stroke-width="1" opacity="1"></line><line transform="translate(455,0)" x2="0" y2="5" stroke="#888" stroke-width="1" opacity="1"></line><line transform="translate(467,0)" x2="0" y2="5" stroke="#888" stroke-width="1" opacity="1"></line><line transform="translate(478,0)" x2="0" y2="5" stroke="#888" stroke-width="1" opacity="1"></line><line transform="translate(550,0)" x2="0" y2="5" stroke="#888" stroke-width="1" opacity="1"></line><line transform="translate(592,0)" x2="0" y2="5" stroke="#888" stroke-width="1" opacity="1"></line><line transform="translate(622,0)" x2="0" y2="5" stroke="#888" stroke-width="1" opacity="1"></line><line transform="translate(645,0)" x2="0" y2="5" stroke="#888" stroke-width="1" opacity="1"></line><line transform="translate(664,0)" x2="0" y2="5" stroke="#888" stroke-width="1" opacity="1"></line><line transform="translate(680,0)" x2="0" y2="5" stroke="#888" stroke-width="1" opacity="1"></line><line transform="translate(694,0)" x2="0" y2="5" stroke="#888" stroke-width="1" opacity="1"></line><line transform="translate(706,0)" x2="0" y2="5" stroke="#888" stroke-width="1" opacity="1"></line><line transform="translate(717,0)" x2="0" y2="5" stroke="#888" stroke-width="1" opacity="1"></line></g><g class="mark-text role-axis-label" pointer-events="none"><text text-anchor="start" transform="translate(0,15)" font-family="Roboto" font-size="10px" fill="#000" opacity="1">$100</text><text text-anchor="middle" transform="translate(71.94616896369142,15)" font-family="Roboto" font-size="10px" fill="#000" opacity="1">$200</text><text text-anchor="middle" transform="translate(114.03197987799926,15)" font-family="Roboto" font-size="10px" fill="#000" opacity="1">$300</text><text text-anchor="middle" transform="translate(143.89233792738295,15)" font-family="Roboto" font-size="10px" fill="#000" opacity="1"></text><text text-anchor="middle" transform="translate(167.05383103630842,15)" font-family="Roboto" font-size="10px" fill="#000" opacity="1"></text><text text-anchor="middle" transform="translate(185.9781488416908,15)" font-family="Roboto" font-size="10px" fill="#000" opacity="1"></text><text text-anchor="middle" transform="translate(201.9784315634073,15)" font-family="Roboto" font-size="10px" fill="#000" opacity="1"></text><text text-anchor="middle" transform="translate(215.83850689107447,15)" font-family="Roboto" font-size="10px" fill="#000" opacity="1"></text><text text-anchor="middle" transform="translate(228.0639597559986,15)" font-family="Roboto" font-size="10px" fill="#000" opacity="1"></text><text text-anchor="middle" transform="translate(238.99999999999994,15)" font-family="Roboto" font-size="10px" fill="#000" opacity="1">$1,000</text><text text-anchor="middle" transform="translate(310.94616896369143,15)" font-family="Roboto" font-size="10px" fill="#000" opacity="1">$2,000</text><text text-anchor="middle" transform="translate(353.0319798779992,15)" font-family="Roboto" font-size="10px" fill="#000" opacity="1">$3,000</text><text text-anchor="middle" transform="translate(382.89233792738304,15)" font-family="Roboto" font-size="10px" fill="#000" opacity="1"></text><text text-anchor="middle" transform="translate(406.05383103630857,15)" font-family="Roboto" font-size="10px" fill="#000" opacity="1"></text><text text-anchor="middle" transform="translate(424.97814884169077,15)" font-family="Roboto" font-size="10px" fill="#000" opacity="1"></text><text text-anchor="middle" transform="translate(440.9784315634073,15)" font-family="Roboto" font-size="10px" fill="#000" opacity="1"></text><text text-anchor="middle" transform="translate(454.83850689107453,15)" font-family="Roboto" font-size="10px" fill="#000" opacity="1"></text><text text-anchor="middle" transform="translate(467.06395975599867,15)" font-family="Roboto" font-size="10px" fill="#000" opacity="1"></text><text text-anchor="middle" transform="translate(478.00000000000006,15)" font-family="Roboto" font-size="10px" fill="#000" opacity="1">$10,000</text><text text-anchor="middle" transform="translate(549.9461689636914,15)" font-family="Roboto" font-size="10px" fill="#000" opacity="1">$20,000</text><text text-anchor="middle" transform="translate(592.0319798779993,15)" font-family="Roboto" font-size="10px" fill="#000" opacity="1">$30,000</text><text text-anchor="middle" transform="translate(621.8923379273829,15)" font-family="Roboto" font-size="10px" fill="#000" opacity="1"></text><text text-anchor="middle" transform="translate(645.0538310363085,15)" font-family="Roboto" font-size="10px" fill="#000" opacity="1"></text><text text-anchor="middle" transform="translate(663.9781488416909,15)" font-family="Roboto" font-size="10px" fill="#000" opacity="1"></text><text text-anchor="middle" transform="translate(679.9784315634073,15)" font-family="Roboto" font-size="10px" fill="#000" opacity="1"></text><text text-anchor="middle" transform="translate(693.8385068910744,15)" font-family="Roboto" font-size="10px" fill="#000" opacity="1"></text><text text-anchor="middle" transform="translate(706.0639597559986,15)" font-family="Roboto" font-size="10px" fill="#000" opacity="1"></text><text text-anchor="end" transform="translate(717,15)" font-family="Roboto" font-size="10px" fill="#000" opacity="1">$100,000</text></g><g class="mark-rule role-axis-domain" pointer-events="none"><line transform="translate(0,0)" x2="717" y2="0" stroke="#888" stroke-width="1" opacity="1"></line></g><g class="mark-text role-axis-title" pointer-events="none"><text text-anchor="middle" transform="translate(358.5,30)" font-family="sans-serif" font-size="11px" font-weight="bold" fill="#000" opacity="1">Income per person</text></g></g><path class="foreground" aria-hidden="true" d="" pointer-events="none" display="none"></path></g></g><g class="mark-group role-axis" role="graphics-symbol" aria-roledescription="axis" aria-label="Y-axis titled 'Life expectancy' for a linear scale with values from 50 to 78"><g transform="translate(0.5,0.5)"><path class="background" aria-hidden="true" d="M0,0h0v0h0Z" pointer-events="none"></path><g><g class="mark-rule role-axis-tick" pointer-events="none"><line transform="translate(0,600)" x2="-5" y2="0" stroke="#888" stroke-width="1" opacity="1"></line><line transform="translate(0,557)" x2="-5" y2="0" stroke="#888" stroke-width="1" opacity="1"></line><line transform="translate(0,514)" x2="-5" y2="0" stroke="#888" stroke-width="1" opacity="1"></line><line transform="translate(0,471)" x2="-5" y2="0" stroke="#888" stroke-width="1" opacity="1"></line><line transform="translate(0,429)" x2="-5" y2="0" stroke="#888" stroke-width="1" opacity="1"></line><line transform="translate(0,386)" x2="-5" y2="0" stroke="#888" stroke-width="1" opacity="1"></line><line transform="translate(0,343)" x2="-5" y2="0" stroke="#888" stroke-width="1" opacity="1"></line><line transform="translate(0,300)" x2="-5" y2="0" stroke="#888" stroke-width="1" opacity="1"></line><line transform="translate(0,257)" x2="-5" y2="0" stroke="#888" stroke-width="1" opacity="1"></line><line transform="translate(0,214)" x2="-5" y2="0" stroke="#888" stroke-width="1" opacity="1"></line><line transform="translate(0,171)" x2="-5" y2="0" stroke="#888" stroke-width="1" opacity="1"></line><line transform="translate(0,129)" x2="-5" y2="0" stroke="#888" stroke-width="1" opacity="1"></line><line transform="translate(0,86)" x2="-5" y2="0" stroke="#888" stroke-width="1" opacity="1"></line><line transform="translate(0,43)" x2="-5" y2="0" stroke="#888" stroke-width="1" opacity="1"></line><line transform="translate(0,0)" x2="-5" y2="0" stroke="#888" stroke-width="1" opacity="1"></line></g><g class="mark-text role-axis-label" pointer-events="none"><text text-anchor="end" transform="translate(-7,603)" font-family="Roboto" font-size="10px" fill="#000" opacity="1">50</text><text text-anchor="end" transform="translate(-7,560.1428571428571)" font-family="Roboto" font-size="10px" fill="#000" opacity="1">52</text><text text-anchor="end" transform="translate(-7,517.2857142857143)" font-family="Roboto" font-size="10px" fill="#000" opacity="1">54</text><text text-anchor="end" transform="translate(-7,474.42857142857144)" font-family="Roboto" font-size="10px" fill="#000" opacity="1">56</text><text text-anchor="end" transform="translate(-7,431.57142857142856)" font-family="Roboto" font-size="10px" fill="#000" opacity="1">58</text><text text-anchor="end" transform="translate(-7,388.71428571428567)" font-family="Roboto" font-size="10px" fill="#000" opacity="1">60</text><text text-anchor="end" transform="translate(-7,345.85714285714283)" font-family="Roboto" font-size="10px" fill="#000" opacity="1">62</text><text text-anchor="end" transform="translate(-7,303)" font-family="Roboto" font-size="10px" fill="#000" opacity="1">64</text><text text-anchor="end" transform="translate(-7,260.14285714285717)" font-family="Roboto" font-size="10px" fill="#000" opacity="1">66</text><text text-anchor="end" transform="translate(-7,217.28571428571425)" font-family="Roboto" font-size="10px" fill="#000" opacity="1">68</text><text text-anchor="end" transform="translate(-7,174.42857142857142)" font-family="Roboto" font-size="10px" fill="#000" opacity="1">70</text><text text-anchor="end" transform="translate(-7,131.57142857142858)" font-family="Roboto" font-size="10px" fill="#000" opacity="1">72</text><text text-anchor="end" transform="translate(-7,88.71428571428574)" font-family="Roboto" font-size="10px" fill="#000" opacity="1">74</text><text text-anchor="end" transform="translate(-7,45.85714285714284)" font-family="Roboto" font-size="10px" fill="#000" opacity="1">76</text><text text-anchor="end" transform="translate(-7,3)" font-family="Roboto" font-size="10px" fill="#000" opacity="1">78</text></g><g class="mark-rule role-axis-domain" pointer-events="none"><line transform="translate(0,600)" x2="0" y2="-600" stroke="#888" stroke-width="1" opacity="1"></line></g><g class="mark-text role-axis-title" pointer-events="none"><text text-anchor="middle" transform="translate(-22.728515625,300) rotate(-90) translate(0,-2)" font-family="sans-serif" font-size="11px" font-weight="bold" fill="#000" opacity="1">Life expectancy</text></g></g><path class="foreground" aria-hidden="true" d="" pointer-events="none" display="none"></path></g></g><g class="mark-symbol role-mark marks" role="graphics-object" aria-roledescription="symbol mark container" clip-path="url(#clip1)"><path aria-label="gdpPercap: $13,800; lifeExp: 77.6; Country: Algeria; GDP per capita: $13,800; Age (years): 77.6" role="graphics-symbol" aria-roledescription="point" transform="translate(511.4311016498955,8.571428571428674)" d="M2.739,0A2.739,2.739,0,1,1,-2.739,0A2.739,2.739,0,1,1,2.739,0" fill="transparent" stroke="#fc6721" stroke-width="2" opacity="0.7"></path><path aria-label="gdpPercap: $5,940; lifeExp: 64.9; Country: Angola; GDP per capita: $5,940; Age (years): 64.9" role="graphics-symbol" aria-roledescription="point" transform="translate(423.93496035050515,280.7142857142856)" d="M2.739,0A2.739,2.739,0,1,1,-2.739,0A2.739,2.739,0,1,1,2.739,0" fill="transparent" stroke="#fc6721" stroke-width="2" opacity="0.7"></path><path aria-label="gdpPercap: $2,080; lifeExp: 64.7; Country: Benin; GDP per capita: $2,080; Age (years): 64.7" role="graphics-symbol" aria-roledescription="point" transform="translate(315.01713705609995,284.99999999999994)" d="M2.739,0A2.739,2.739,0,1,1,-2.739,0A2.739,2.739,0,1,1,2.739,0" fill="transparent" stroke="#fc6721" stroke-width="2" opacity="0.7"></path><path aria-label="gdpPercap: $16,000; lifeExp: 66.3; Country: Botswana; GDP per capita: $16,000; Age (years): 66.3" role="graphics-symbol" aria-roledescription="point" transform="translate(526.784675854766,250.71428571428575)" d="M2.739,0A2.739,2.739,0,1,1,-2.739,0A2.739,2.739,0,1,1,2.739,0" fill="transparent" stroke="#fc6721" stroke-width="2" opacity="0.7"></path><path aria-label="gdpPercap: $1,650; lifeExp: 61.2; Country: Burkina Faso; GDP per capita: $1,650; Age (years): 61.2" role="graphics-symbol" aria-roledescription="point" transform="translate(290.97866266712356,359.99999999999994)" d="M2.739,0A2.739,2.739,0,1,1,-2.739,0A2.739,2.739,0,1,1,2.739,0" fill="transparent" stroke="#fc6721" stroke-width="2" opacity="0.7"></path><path aria-label="gdpPercap: $705; lifeExp: 60.8; Country: Burundi; GDP per capita: $705; Age (years): 60.8" role="graphics-symbol" aria-roledescription="point" transform="translate(202.7171989609443,368.5714285714286)" d="M2.739,0A2.739,2.739,0,1,1,-2.739,0A2.739,2.739,0,1,1,2.739,0" fill="transparent" stroke="#fc6721" stroke-width="2" opacity="0.7"></path><path aria-label="gdpPercap: $3,100; lifeExp: 60.7; Country: Cameroon; GDP per capita: $3,100; Age (years): 60.7" role="graphics-symbol" aria-roledescription="point" transform="translate(356.4354448263911,370.71428571428567)" d="M2.739,0A2.739,2.739,0,1,1,-2.739,0A2.739,2.739,0,1,1,2.739,0" fill="transparent" stroke="#fc6721" stroke-width="2" opacity="0.7"></path><path aria-label="gdpPercap: $6,240; lifeExp: 73.8; Country: Cape Verde; GDP per capita: $6,240; Age (years): 73.8" role="graphics-symbol" aria-roledescription="point" transform="translate(429.04911693409935,90.00000000000009)" d="M2.739,0A2.739,2.739,0,1,1,-2.739,0A2.739,2.739,0,1,1,2.739,0" fill="transparent" stroke="#fc6721" stroke-width="2" opacity="0.7"></path><path aria-label="gdpPercap: $668; lifeExp: 50.9; Country: Central African Republic; GDP per capita: $668; Age (years): 50.9" role="graphics-symbol" aria-roledescription="point" transform="translate(197.12157453165537,580.7142857142857)" d="M2.739,0A2.739,2.739,0,1,1,-2.739,0A2.739,2.739,0,1,1,2.739,0" fill="transparent" stroke="#fc6721" stroke-width="2" opacity="0.7"></path><path aria-label="gdpPercap: $1,840; lifeExp: 60.2; Country: Chad; GDP per capita: $1,840; Age (years): 60.2" role="graphics-symbol" aria-roledescription="point" transform="translate(302.29145969927913,381.4285714285714)" d="M2.739,0A2.739,2.739,0,1,1,-2.739,0A2.739,2.739,0,1,1,2.739,0" fill="transparent" stroke="#fc6721" stroke-width="2" opacity="0.7"></path><path aria-label="gdpPercap: $1,420; lifeExp: 67.8; Country: Comoros; GDP per capita: $1,420; Age (years): 67.8" role="graphics-symbol" aria-roledescription="point" transform="translate(275.3969143075505,218.57142857142867)" d="M2.739,0A2.739,2.739,0,1,1,-2.739,0A2.739,2.739,0,1,1,2.739,0" fill="transparent" stroke="#fc6721" stroke-width="2" opacity="0.7"></path><path aria-label="gdpPercap: $745; lifeExp: 62; Country: Congo, Dem. Rep.; GDP per capita: $745; Age (years): 62.0" role="graphics-symbol" aria-roledescription="point" transform="translate(208.44534918684198,342.85714285714283)" d="M2.739,0A2.739,2.739,0,1,1,-2.739,0A2.739,2.739,0,1,1,2.739,0" fill="transparent" stroke="#fc6721" stroke-width="2" opacity="0.7"></path><path aria-label="gdpPercap: $5,650; lifeExp: 63.4; Country: Congo, Rep.; GDP per capita: $5,650; Age (years): 63.4" role="graphics-symbol" aria-roledescription="point" transform="translate(418.73957902884587,312.8571428571429)" d="M2.739,0A2.739,2.739,0,1,1,-2.739,0A2.739,2.739,0,1,1,2.739,0" fill="transparent" stroke="#fc6721" stroke-width="2" opacity="0.7"></path><path aria-label="gdpPercap: $3,600; lifeExp: 60.6; Country: Cote d'Ivoire; GDP per capita: $3,600; Age (years): 60.6" role="graphics-symbol" aria-roledescription="point" transform="translate(371.9562976833816,372.8571428571429)" d="M2.739,0A2.739,2.739,0,1,1,-2.739,0A2.739,2.739,0,1,1,2.739,0" fill="transparent" stroke="#fc6721" stroke-width="2" opacity="0.7"></path><path aria-label="gdpPercap: $3,400; lifeExp: 66.9; Country: Djibouti; GDP per capita: $3,400; Age (years): 66.9" role="graphics-symbol" aria-roledescription="point" transform="translate(366.02346117309895,237.85714285714275)" d="M2.739,0A2.739,2.739,0,1,1,-2.739,0A2.739,2.739,0,1,1,2.739,0" fill="transparent" stroke="#fc6721" stroke-width="2" opacity="0.7"></path><path aria-label="gdpPercap: $10,500; lifeExp: 72.4; Country: Egypt; GDP per capita: $10,500; Age (years): 72.4" role="graphics-symbol" aria-roledescription="point" transform="translate(483.0642424777151,119.9999999999999)" d="M2.739,0A2.739,2.739,0,1,1,-2.739,0A2.739,2.739,0,1,1,2.739,0" fill="transparent" stroke="#fc6721" stroke-width="2" opacity="0.7"></path><path aria-label="gdpPercap: $21,900; lifeExp: 65.8; Country: Equatorial Guinea; GDP per capita: $21,900; Age (years): 65.8" role="graphics-symbol" aria-roledescription="point" transform="translate(559.3661434467882,261.4285714285715)" d="M2.739,0A2.739,2.739,0,1,1,-2.739,0A2.739,2.739,0,1,1,2.739,0" fill="transparent" stroke="#fc6721" stroke-width="2" opacity="0.7"></path><path aria-label="gdpPercap: $1,250; lifeExp: 64.1; Country: Eritrea; GDP per capita: $1,250; Age (years): 64.1" role="graphics-symbol" aria-roledescription="point" transform="translate(262.1614931089254,297.857142857143)" d="M2.739,0A2.739,2.739,0,1,1,-2.739,0A2.739,2.739,0,1,1,2.739,0" fill="transparent" stroke="#fc6721" stroke-width="2" opacity="0.7"></path><path aria-label="gdpPercap: $1,700; lifeExp: 66; Country: Ethiopia; GDP per capita: $1,700; Age (years): 66.0" role="graphics-symbol" aria-roledescription="point" transform="translate(294.0772922094074,257.14285714285717)" d="M2.739,0A2.739,2.739,0,1,1,-2.739,0A2.739,2.739,0,1,1,2.739,0" fill="transparent" stroke="#fc6721" stroke-width="2" opacity="0.7"></path><path aria-label="gdpPercap: $17,000; lifeExp: 67; Country: Gabon; GDP per capita: $17,000; Age (years): 67.0" role="graphics-symbol" aria-roledescription="point" transform="translate(533.0772922094076,235.71428571428575)" d="M2.739,0A2.739,2.739,0,1,1,-2.739,0A2.739,2.739,0,1,1,2.739,0" fill="transparent" stroke="#fc6721" stroke-width="2" opacity="0.7"></path><path aria-label="gdpPercap: $1,570; lifeExp: 67.6; Country: Gambia; GDP per capita: $1,570; Age (years): 67.6" role="graphics-symbol" aria-roledescription="point" transform="translate(285.8200169258068,222.857142857143)" d="M2.739,0A2.739,2.739,0,1,1,-2.739,0A2.739,2.739,0,1,1,2.739,0" fill="transparent" stroke="#fc6721" stroke-width="2" opacity="0.7"></path><path aria-label="gdpPercap: $4,240; lifeExp: 66.3; Country: Ghana; GDP per capita: $4,240; Age (years): 66.3" role="graphics-symbol" aria-roledescription="point" transform="translate(388.94043972566305,250.71428571428575)" d="M2.739,0A2.739,2.739,0,1,1,-2.739,0A2.739,2.739,0,1,1,2.739,0" fill="transparent" stroke="#fc6721" stroke-width="2" opacity="0.7"></path><path aria-label="gdpPercap: $1,240; lifeExp: 61.3; Country: Guinea; GDP per capita: $1,240; Age (years): 61.3" role="graphics-symbol" aria-roledescription="point" transform="translate(261.32778275377416,357.8571428571429)" d="M2.739,0A2.739,2.739,0,1,1,-2.739,0A2.739,2.739,0,1,1,2.739,0" fill="transparent" stroke="#fc6721" stroke-width="2" opacity="0.7"></path><path aria-label="gdpPercap: $1,510; lifeExp: 59.3; Country: Guinea-Bissau; GDP per capita: $1,510; Age (years): 59.3" role="graphics-symbol" aria-roledescription="point" transform="translate(281.7754904030675,400.7142857142858)" d="M2.739,0A2.739,2.739,0,1,1,-2.739,0A2.739,2.739,0,1,1,2.739,0" fill="transparent" stroke="#fc6721" stroke-width="2" opacity="0.7"></path><path aria-label="gdpPercap: $3,010; lifeExp: 67.1; Country: Kenya; GDP per capita: $3,010; Age (years): 67.1" role="graphics-symbol" aria-roledescription="point" transform="translate(353.37739244692864,233.57142857142867)" d="M2.739,0A2.739,2.739,0,1,1,-2.739,0A2.739,2.739,0,1,1,2.739,0" fill="transparent" stroke="#fc6721" stroke-width="2" opacity="0.7"></path><path aria-label="gdpPercap: $2,870; lifeExp: 50.8; Country: Lesotho; GDP per capita: $2,870; Age (years): 50.8" role="graphics-symbol" aria-roledescription="point" transform="translate(348.4337733194241,582.8571428571429)" d="M2.739,0A2.739,2.739,0,1,1,-2.739,0A2.739,2.739,0,1,1,2.739,0" fill="transparent" stroke="#fc6721" stroke-width="2" opacity="0.7"></path><path aria-label="gdpPercap: $776; lifeExp: 64.9; Country: Liberia; GDP per capita: $776; Age (years): 64.9" role="graphics-symbol" aria-roledescription="point" transform="translate(212.67695138070704,280.7142857142856)" d="M2.739,0A2.739,2.739,0,1,1,-2.739,0A2.739,2.739,0,1,1,2.739,0" fill="transparent" stroke="#fc6721" stroke-width="2" opacity="0.7"></path><path aria-label="gdpPercap: $17,900; lifeExp: 75.3; Country: Libya; GDP per capita: $17,900; Age (years): 75.3" role="graphics-symbol" aria-roledescription="point" transform="translate(538.4318744041944,57.85714285714292)" d="M2.739,0A2.739,2.739,0,1,1,-2.739,0A2.739,2.739,0,1,1,2.739,0" fill="transparent" stroke="#fc6721" stroke-width="2" opacity="0.7"></path><path aria-label="gdpPercap: $1,420; lifeExp: 63; Country: Madagascar; GDP per capita: $1,420; Age (years): 63.0" role="graphics-symbol" aria-roledescription="point" transform="translate(275.3969143075505,321.42857142857144)" d="M2.739,0A2.739,2.739,0,1,1,-2.739,0A2.739,2.739,0,1,1,2.739,0" fill="transparent" stroke="#fc6721" stroke-width="2" opacity="0.7"></path><path aria-label="gdpPercap: $1,110; lifeExp: 60.7; Country: Malawi; GDP per capita: $1,110; Age (years): 60.7" role="graphics-symbol" aria-roledescription="point" transform="translate(249.83219193001108,370.71428571428567)" d="M2.739,0A2.739,2.739,0,1,1,-2.739,0A2.739,2.739,0,1,1,2.739,0" fill="transparent" stroke="#fc6721" stroke-width="2" opacity="0.7"></path><path aria-label="gdpPercap: $1,990; lifeExp: 62.4; Country: Mali; GDP per capita: $1,990; Age (years): 62.4" role="graphics-symbol" aria-roledescription="point" transform="translate(310.42588526191986,334.2857142857143)" d="M2.739,0A2.739,2.739,0,1,1,-2.739,0A2.739,2.739,0,1,1,2.739,0" fill="transparent" stroke="#fc6721" stroke-width="2" opacity="0.7"></path><path aria-label="gdpPercap: $3,590; lifeExp: 70.4; Country: Mauritania; GDP per capita: $3,590; Age (years): 70.4" role="graphics-symbol" aria-roledescription="point" transform="translate(371.6675732102182,162.85714285714275)" d="M2.739,0A2.739,2.739,0,1,1,-2.739,0A2.739,2.739,0,1,1,2.739,0" fill="transparent" stroke="#fc6721" stroke-width="2" opacity="0.7"></path><path aria-label="gdpPercap: $20,300; lifeExp: 74.8; Country: Mauritius; GDP per capita: $20,300; Age (years): 74.8" role="graphics-symbol" aria-roledescription="point" transform="translate(551.4915530612578,68.57142857142865)" d="M2.739,0A2.739,2.739,0,1,1,-2.739,0A2.739,2.739,0,1,1,2.739,0" fill="transparent" stroke="#fc6721" stroke-width="2" opacity="0.7"></path><path aria-label="gdpPercap: $7,480; lifeExp: 75.2; Country: Morocco; GDP per capita: $7,480; Age (years): 75.2" role="graphics-symbol" aria-roledescription="point" transform="translate(447.86248188960633,59.99999999999992)" d="M2.739,0A2.739,2.739,0,1,1,-2.739,0A2.739,2.739,0,1,1,2.739,0" fill="transparent" stroke="#fc6721" stroke-width="2" opacity="0.7"></path><path aria-label="gdpPercap: $1,160; lifeExp: 60.5; Country: Mozambique; GDP per capita: $1,160; Age (years): 60.5" role="graphics-symbol" aria-roledescription="point" transform="translate(254.4054594252335,375)" d="M2.739,0A2.739,2.739,0,1,1,-2.739,0A2.739,2.739,0,1,1,2.739,0" fill="transparent" stroke="#fc6721" stroke-width="2" opacity="0.7"></path><path aria-label="gdpPercap: $10,200; lifeExp: 65.3; Country: Namibia; GDP per capita: $10,200; Age (years): 65.3" role="graphics-symbol" aria-roledescription="point" transform="translate(480.05544105109817,272.14285714285717)" d="M2.739,0A2.739,2.739,0,1,1,-2.739,0A2.739,2.739,0,1,1,2.739,0" fill="transparent" stroke="#fc6721" stroke-width="2" opacity="0.7"></path><path aria-label="gdpPercap: $928; lifeExp: 62.1; Country: Niger; GDP per capita: $928; Age (years): 62.1" role="graphics-symbol" aria-roledescription="point" transform="translate(231.24396631630802,340.7142857142857)" d="M2.739,0A2.739,2.739,0,1,1,-2.739,0A2.739,2.739,0,1,1,2.739,0" fill="transparent" stroke="#fc6721" stroke-width="2" opacity="0.7"></path><path aria-label="gdpPercap: $5,480; lifeExp: 65.6; Country: Nigeria; GDP per capita: $5,480; Age (years): 65.6" role="graphics-symbol" aria-roledescription="point" transform="translate(415.5685534777643,265.71428571428584)" d="M2.739,0A2.739,2.739,0,1,1,-2.739,0A2.739,2.739,0,1,1,2.739,0" fill="transparent" stroke="#fc6721" stroke-width="2" opacity="0.7"></path><path aria-label="gdpPercap: $1,850; lifeExp: 68; Country: Rwanda; GDP per capita: $1,850; Age (years): 68.0" role="graphics-symbol" aria-roledescription="point" transform="translate(302.8540430883202,214.28571428571425)" d="M2.739,0A2.739,2.739,0,1,1,-2.739,0A2.739,2.739,0,1,1,2.739,0" fill="transparent" stroke="#fc6721" stroke-width="2" opacity="0.7"></path><path aria-label="gdpPercap: $3,090; lifeExp: 70.7; Country: Sao Tome and Principe; GDP per capita: $3,090; Age (years): 70.7" role="graphics-symbol" aria-roledescription="point" transform="translate(356.1000765825355,156.42857142857133)" d="M2.739,0A2.739,2.739,0,1,1,-2.739,0A2.739,2.739,0,1,1,2.739,0" fill="transparent" stroke="#fc6721" stroke-width="2" opacity="0.7"></path><path aria-label="gdpPercap: $2,470; lifeExp: 66.5; Country: Senegal; GDP per capita: $2,470; Age (years): 66.5" role="graphics-symbol" aria-roledescription="point" transform="translate(332.85457182906003,246.42857142857142)" d="M2.739,0A2.739,2.739,0,1,1,-2.739,0A2.739,2.739,0,1,1,2.739,0" fill="transparent" stroke="#fc6721" stroke-width="2" opacity="0.7"></path><path aria-label="gdpPercap: $26,900; lifeExp: 74; Country: Seychelles; GDP per capita: $26,900; Age (years): 74.0" role="graphics-symbol" aria-roledescription="point" transform="translate(580.7107949205755,85.71428571428574)" d="M2.739,0A2.739,2.739,0,1,1,-2.739,0A2.739,2.739,0,1,1,2.739,0" fill="transparent" stroke="#fc6721" stroke-width="2" opacity="0.7"></path><path aria-label="gdpPercap: $1,430; lifeExp: 59.6; Country: Sierra Leone; GDP per capita: $1,430; Age (years): 59.6" role="graphics-symbol" aria-roledescription="point" transform="translate(276.1253129541497,394.2857142857142)" d="M2.739,0A2.739,2.739,0,1,1,-2.739,0A2.739,2.739,0,1,1,2.739,0" fill="transparent" stroke="#fc6721" stroke-width="2" opacity="0.7"></path><path aria-label="gdpPercap: $627; lifeExp: 57.6; Country: Somalia; GDP per capita: $627; Age (years): 57.6" role="graphics-symbol" aria-roledescription="point" transform="translate(190.5469422585412,437.1428571428571)" d="M2.739,0A2.739,2.739,0,1,1,-2.739,0A2.739,2.739,0,1,1,2.739,0" fill="transparent" stroke="#fc6721" stroke-width="2" opacity="0.7"></path><path aria-label="gdpPercap: $12,300; lifeExp: 63; Country: South Africa; GDP per capita: $12,300; Age (years): 63.0" role="graphics-symbol" aria-roledescription="point" transform="translate(499.48732163401615,321.42857142857144)" d="M2.739,0A2.739,2.739,0,1,1,-2.739,0A2.739,2.739,0,1,1,2.739,0" fill="transparent" stroke="#fc6721" stroke-width="2" opacity="0.7"></path><path aria-label="gdpPercap: $1,850; lifeExp: 60.2; Country: South Sudan; GDP per capita: $1,850; Age (years): 60.2" role="graphics-symbol" aria-roledescription="point" transform="translate(302.8540430883202,381.4285714285714)" d="M2.739,0A2.739,2.739,0,1,1,-2.739,0A2.739,2.739,0,1,1,2.739,0" fill="transparent" stroke="#fc6721" stroke-width="2" opacity="0.7"></path><path aria-label="gdpPercap: $4,410; lifeExp: 68.5; Country: Sudan; GDP per capita: $4,410; Age (years): 68.5" role="graphics-symbol" aria-roledescription="point" transform="translate(393.02082288281343,203.57142857142858)" d="M2.739,0A2.739,2.739,0,1,1,-2.739,0A2.739,2.739,0,1,1,2.739,0" fill="transparent" stroke="#fc6721" stroke-width="2" opacity="0.7"></path><path aria-label="gdpPercap: $7,660; lifeExp: 58.2; Country: Swaziland; GDP per capita: $7,660; Age (years): 58.2" role="graphics-symbol" aria-roledescription="point" transform="translate(450.33067594219233,424.2857142857142)" d="M2.739,0A2.739,2.739,0,1,1,-2.739,0A2.739,2.739,0,1,1,2.739,0" fill="transparent" stroke="#fc6721" stroke-width="2" opacity="0.7"></path><path aria-label="gdpPercap: $2,680; lifeExp: 64.9; Country: Tanzania; GDP per capita: $2,680; Age (years): 64.9" role="graphics-symbol" aria-roledescription="point" transform="translate(341.3242157728805,280.7142857142856)" d="M2.739,0A2.739,2.739,0,1,1,-2.739,0A2.739,2.739,0,1,1,2.739,0" fill="transparent" stroke="#fc6721" stroke-width="2" opacity="0.7"></path><path aria-label="gdpPercap: $1,430; lifeExp: 62.9; Country: Togo; GDP per capita: $1,430; Age (years): 62.9" role="graphics-symbol" aria-roledescription="point" transform="translate(276.1253129541497,323.5714285714286)" d="M2.739,0A2.739,2.739,0,1,1,-2.739,0A2.739,2.739,0,1,1,2.739,0" fill="transparent" stroke="#fc6721" stroke-width="2" opacity="0.7"></path><path aria-label="gdpPercap: $11,200; lifeExp: 77.7; Country: Tunisia; GDP per capita: $11,200; Age (years): 77.7" role="graphics-symbol" aria-roledescription="point" transform="translate(489.76310741817326,6.428571428571339)" d="M2.739,0A2.739,2.739,0,1,1,-2.739,0A2.739,2.739,0,1,1,2.739,0" fill="transparent" stroke="#fc6721" stroke-width="2" opacity="0.7"></path><path aria-label="gdpPercap: $1,760; lifeExp: 62.6; Country: Uganda; GDP per capita: $1,760; Age (years): 62.6" role="graphics-symbol" aria-roledescription="point" transform="translate(297.67752760758174,329.99999999999994)" d="M2.739,0A2.739,2.739,0,1,1,-2.739,0A2.739,2.739,0,1,1,2.739,0" fill="transparent" stroke="#fc6721" stroke-width="2" opacity="0.7"></path><path aria-label="gdpPercap: $3,750; lifeExp: 59.1; Country: Zambia; GDP per capita: $3,750; Age (years): 59.1" role="graphics-symbol" aria-roledescription="point" transform="translate(376.1934729869248,404.99999999999994)" d="M2.739,0A2.739,2.739,0,1,1,-2.739,0A2.739,2.739,0,1,1,2.739,0" fill="transparent" stroke="#fc6721" stroke-width="2" opacity="0.7"></path><path aria-label="gdpPercap: $1,910; lifeExp: 59.8; Country: Zimbabwe; GDP per capita: $1,910; Age (years): 59.8" role="graphics-symbol" aria-roledescription="point" transform="translate(306.16697477220686,390.00000000000006)" d="M2.739,0A2.739,2.739,0,1,1,-2.739,0A2.739,2.739,0,1,1,2.739,0" fill="transparent" stroke="#fc6721" stroke-width="2" opacity="0.7"></path></g><g class="mark-group role-title"><g transform="translate(358.5,-33)"><path class="background" aria-hidden="true" d="M0,0h0v0h0Z" pointer-events="none"></path><g><g class="mark-text role-title-text" role="graphics-symbol" aria-roledescription="title" aria-label="Title text 'Relationship between life expectancy and income in Africa, 2017'" pointer-events="none"><text text-anchor="middle" transform="translate(0,10)" font-family="sans-serif" font-size="13px" font-weight="bold" fill="#000" opacity="1">Relationship between life expectancy and income in Africa, 2017</text></g></g><path class="foreground" aria-hidden="true" d="" pointer-events="none" display="none"></path></g></g></g><path class="foreground" aria-hidden="true" d="" display="none"></path></g></g></g><defs><clipPath id="clip1"><rect x="0" y="0" width="717" height="600"></rect></clipPath></defs></svg>