<svg xmlns="http://www.w3.org/2000/svg" xmlns:xlink="http://www.w3.org/1999/xlink" version="1.1" class="marks" width="762" height="350" viewBox="0 0 762 350" style="background-color: white;"><g fill="none" stroke-miterlimit="10" transform="translate(39,5)"><g class="mark-group role-frame root" role="graphics-object" aria-roledescription="group mark container"><g transform="translate(0,0)"><path class="background" aria-hidden="true" d="M0.5,0.5h718v300h-718Z" fill="transparent" stroke="#ddd"></path><g><g class="mark-group role-axis" aria-hidden="true"><g transform="translate(0.5,0.5)"><path class="background" aria-hidden="true" d="M0,0h0v0h0Z" pointer-events="none"></path><g><g class="mark-rule role-axis-grid" pointer-events="none"><line transform="translate(0,300)" x2="718" y2="0" stroke="#ddd" stroke-width="1" opacity="1"></line><line transform="translate(0,254)" x2="718" y2="0" stroke="#ddd" stroke-width="1" opacity="1"></line><line transform="translate(0,208)" x2="718" y2="0" stroke="#ddd" stroke-width="1" opacity="1"></line><line transform="translate(0,162)" x2="718" y2="0" stroke="#ddd" stroke-width="1" opacity="1"></line><line transform="translate(0,115)" x2="718" y2="0" stroke="#ddd" stroke-width="1" opacity="1"></line><line transform="translate(0,69)" x2="718" y2="0" stroke="#ddd" stroke-width="1" opacity="1"></line><line transform="translate(0,23)" x2="718" y2="0" stroke="#ddd" stroke-width="1" opacity="1"></line></g></g><path class="foreground" aria-hidden="true" d="" pointer-events="none" display="none"></path></g></g><g class="mark-group role-axis" role="graphics-symbol" aria-roledescription="axis" aria-label="X-axis titled 'State' for a discrete scale with 51 values: AK, AL, AR, AZ, CA, ending with WY"><g transform="translate(0.5,300.5)"><path class="background" aria-hidden="true" d="M0,0h0v0h0Z" pointer-events="none"></path><g><g class="mark-rule role-axis-tick" pointer-events="none"><line transform="translate(7,0)" x2="0" y2="5" stroke="#888" stroke-width="1" opacity="1"></line><line transform="translate(21,0)" x2="0" y2="5" stroke="#888" stroke-width="1" opacity="1"></line><line transform="translate(35,0)" x2="0" y2="5" stroke="#888" stroke-width="1" opacity="1"></line><line transform="translate(49,0)" x2="0" y2="5" stroke="#888" stroke-width="1" opacity="1"></line><line transform="translate(63,0)" x2="0" y2="5" stroke="#888" stroke-width="1" opacity="1"></line><line transform="translate(77,0)" x2="0" y2="5" stroke="#888" stroke-width="1" opacity="1"></line><line transform="translate(91,0)" x2="0" y2="5" stroke="#888" stroke-width="1" opacity="1"></line><line transform="translate(105,0)" x2="0" y2="5" stroke="#888" stroke-width="1" opacity="1"></line><line transform="translate(119,0)" x2="0" y2="5" stroke="#888" stroke-width="1" opacity="1"></line><line transform="translate(133,0)" x2="0" y2="5" stroke="#888" stroke-width="1" opacity="1"></line><line transform="translate(147,0)" x2="0" y2="5" stroke="#888" stroke-width="1" opacity="1"></line><line transform="translate(161,0)" x2="0" y2="5" stroke="#888" stroke-width="1" opacity="1"></line><line transform="translate(175,0)" x2="0" y2="5" stroke="#888" stroke-width="1" opacity="1"></line><line transform="translate(190,0)" x2="0" y2="5" stroke="#888" stroke-width="1" opacity="1"></line><line transform="translate(204,0)" x2="0" y2="5" stroke="#888" stroke-width="1" opacity="1"></line><line transform="translate(218,0)" x2="0" y2="5" stroke="#888" stroke-width="1" opacity="1"></line><line transform="translate(232,0)" x2="0" y2="5" stroke="#888" stroke-width="1" opacity="1"></line><line transform="translate(246,0)" x2="0" y2="5" stroke="#888" stroke-width="1" opacity="1"></line><line transform="translate(260,0)" x2="0" y2="5" stroke="#888" stroke-width="1" opacity="1"></line><line transform="translate(274,0)" x2="0" y2="5" stroke="#888" stroke-width="1" opacity="1"></line><line transform="translate(288,0)" x2="0" y2="5" stroke="#888" stroke-width="1" opacity="1"></line><line transform="translate(302,0)" x2="0" y2="5" stroke="#888" stroke-width="1" opacity="1"></line><line transform="translate(316,0)" x2="0" y2="5" stroke="#888" stroke-width="1" opacity="1"></line><line transform="translate(330,0)" x2="0" y2="5" stroke="#888" stroke-width="1" opacity="1"></line><line transform="translate(344,0)" x2="0" y2="5" stroke="#888" stroke-width="1" opacity="1"></line><line transform="translate(359,0)" x2="0" y2="5" stroke="#888" stroke-width="1" opacity="1"></line><line transform="translate(373,0)" x2="0" y2="5" stroke="#888" stroke-width="1" opacity="1"></line><line transform="translate(387,0)" x2="0" y2="5" stroke="#888" stroke-width="1" opacity="1"></line><line transform="translate(401,0)" x2="0" y2="5" stroke="#888" stroke-width="1" opacity="1"></line><line transform="translate(415,0)" x2="0" y2="5" stroke="#888" stroke-width="1" opacity="1"></line><line transform="translate(429,0)" x2="0" y2="5" stroke="#888" stroke-width="1" opacity="1"></line><line transform="translate(443,0)" x2="0" y2="5" stroke="#888" stroke-width="1" opacity="1"></line><line transform="translate(457,0)" x2="0" y2="5" stroke="#888" stroke-width="1" opacity="1"></line><line transform="translate(471,0)" x2="0" y2="5" stroke="#888" stroke-width="1" opacity="1"></line><line transform="translate(485,0)" x2="0" y2="5" stroke="#888" stroke-width="1" opacity="1"></line><line transform="translate(499,0)" x2="0" y2="5" stroke="#888" stroke-width="1" opacity="1"></line><line transform="translate(513,0)" x2="0" y2="5" stroke="#888" stroke-width="1" opacity="1"></line><line transform="translate(527,0)" x2="0" y2="5" stroke="#888" stroke-width="1" opacity="1"></line><line transform="translate(542,0)" x2="0" y2="5" stroke="#888" stroke-width="1" opacity="1"></line><line transform="translate(556,0)" x2="0" y2="5" stroke="#888" stroke-width="1" opacity="1"></line><line transform="translate(570,0)" x2="0" y2="5" stroke="#888" stroke-width="1" opacity="1"></line><line transform="translate(584,0)" x2="0" y2="5" stroke="#888" stroke-width="1" opacity="1"></line><line transform="translate(598,0)" x2="0" y2="5" stroke="#888" stroke-width="1" opacity="1"></line><line transform="translate(612,0)" x2="0" y2="5" stroke="#888" stroke-width="1" opacity="1"></line><line transform="translate(626,0)" x2="0" y2="5" stroke="#888" stroke-width="1" opacity="1"></line><line transform="translate(640,0)" x2="0" y2="5" stroke="#888" stroke-width="1" opacity="1"></line><line transform="translate(654,0)" x2="0" y2="5" stroke="#888" stroke-width="1" opacity="1"></line><line transform="translate(668,0)" x2="0" y2="5" stroke="#888" stroke-width="1" opacity="1"></line><line transform="translate(682,0)" x2="0" y2="5" stroke="#888" stroke-width="1" opacity="1"></line><line transform="translate(696,0)" x2="0" y2="5" stroke="#888" stroke-width="1" opacity="1"></line><line transform="translate(710,0)" x2="0" y2="5" stroke="#888" stroke-width="1" opacity="1"></line></g><g class="mark-text role-axis-label" pointer-events="none"><text text-anchor="end" transform="translate(6.539215686274551,7) rotate(270) translate(0,3)" font-family="sans-serif" font-size="10px" fill="#000" opacity="1">AK</text><text text-anchor="end" transform="translate(20.61764705882357,7) rotate(270) translate(0,3)" font-family="sans-serif" font-size="10px" fill="#000" opacity="1">AL</text><text text-anchor="end" transform="translate(34.69607843137259,7) rotate(270) translate(0,3)" font-family="sans-serif" font-size="10px" fill="#000" opacity="1">AR</text><text text-anchor="end" transform="translate(48.77450980392161,7) rotate(270) translate(0,3)" font-family="sans-serif" font-size="10px" fill="#000" opacity="1">AZ</text><text text-anchor="end" transform="translate(62.85294117647063,7) rotate(270) translate(0,3)" font-family="sans-serif" font-size="10px" fill="#000" opacity="1">CA</text><text text-anchor="end" transform="translate(76.93137254901964,7) rotate(270) translate(0,3)" font-family="sans-serif" font-size="10px" fill="#000" opacity="1">CO</text><text text-anchor="end" transform="translate(91.00980392156866,7) rotate(270) translate(0,3)" font-family="sans-serif" font-size="10px" fill="#000" opacity="1">CT</text><text text-anchor="end" transform="translate(105.08823529411768,7) rotate(270) translate(0,3)" font-family="sans-serif" font-size="10px" fill="#000" opacity="1">DC</text><text text-anchor="end" transform="translate(119.1666666666667,7) rotate(270) translate(0,3)" font-family="sans-serif" font-size="10px" fill="#000" opacity="1">DE</text><text text-anchor="end" transform="translate(133.24509803921572,7) rotate(270) translate(0,3)" font-family="sans-serif" font-size="10px" fill="#000" opacity="1">FL</text><text text-anchor="end" transform="translate(147.32352941176475,7) rotate(270) translate(0,3)" font-family="sans-serif" font-size="10px" fill="#000" opacity="1">GA</text><text text-anchor="end" transform="translate(161.4019607843138,7) rotate(270) translate(0,3)" font-family="sans-serif" font-size="10px" fill="#000" opacity="1">HI</text><text text-anchor="end" transform="translate(175.4803921568628,7) rotate(270) translate(0,3)" font-family="sans-serif" font-size="10px" fill="#000" opacity="1">IA</text><text text-anchor="end" transform="translate(189.5588235294118,7) rotate(270) translate(0,3)" font-family="sans-serif" font-size="10px" fill="#000" opacity="1">ID</text><text text-anchor="end" transform="translate(203.63725490196083,7) rotate(270) translate(0,3)" font-family="sans-serif" font-size="10px" fill="#000" opacity="1">IL</text><text text-anchor="end" transform="translate(217.71568627450986,7) rotate(270) translate(0,3)" font-family="sans-serif" font-size="10px" fill="#000" opacity="1">IN</text><text text-anchor="end" transform="translate(231.79411764705887,7) rotate(270) translate(0,3)" font-family="sans-serif" font-size="10px" fill="#000" opacity="1">KS</text><text text-anchor="end" transform="translate(245.87254901960787,7) rotate(270) translate(0,3)" font-family="sans-serif" font-size="10px" fill="#000" opacity="1">KY</text><text text-anchor="end" transform="translate(259.9509803921569,7) rotate(270) translate(0,3)" font-family="sans-serif" font-size="10px" fill="#000" opacity="1">LA</text><text text-anchor="end" transform="translate(274.0294117647059,7) rotate(270) translate(0,3)" font-family="sans-serif" font-size="10px" fill="#000" opacity="1">MA</text><text text-anchor="end" transform="translate(288.1078431372549,7) rotate(270) translate(0,3)" font-family="sans-serif" font-size="10px" fill="#000" opacity="1">MD</text><text text-anchor="end" transform="translate(302.1862745098039,7) rotate(270) translate(0,3)" font-family="sans-serif" font-size="10px" fill="#000" opacity="1">ME</text><text text-anchor="end" transform="translate(316.264705882353,7) rotate(270) translate(0,3)" font-family="sans-serif" font-size="10px" fill="#000" opacity="1">MI</text><text text-anchor="end" transform="translate(330.343137254902,7) rotate(270) translate(0,3)" font-family="sans-serif" font-size="10px" fill="#000" opacity="1">MN</text><text text-anchor="end" transform="translate(344.421568627451,7) rotate(270) translate(0,3)" font-family="sans-serif" font-size="10px" fill="#000" opacity="1">MO</text><text text-anchor="end" transform="translate(358.5,7) rotate(270) translate(0,3)" font-family="sans-serif" font-size="10px" fill="#000" opacity="1">MS</text><text text-anchor="end" transform="translate(372.578431372549,7) rotate(270) translate(0,3)" font-family="sans-serif" font-size="10px" fill="#000" opacity="1">MT</text><text text-anchor="end" transform="translate(386.65686274509807,7) rotate(270) translate(0,3)" font-family="sans-serif" font-size="10px" fill="#000" opacity="1">NC</text><text text-anchor="end" transform="translate(400.7352941176471,7) rotate(270) translate(0,3)" font-family="sans-serif" font-size="10px" fill="#000" opacity="1">ND</text><text text-anchor="end" transform="translate(414.8137254901961,7) rotate(270) translate(0,3)" font-family="sans-serif" font-size="10px" fill="#000" opacity="1">NE</text><text text-anchor="end" transform="translate(428.89215686274514,7) rotate(270) translate(0,3)" font-family="sans-serif" font-size="10px" fill="#000" opacity="1">NH</text><text text-anchor="end" transform="translate(442.97058823529414,7) rotate(270) translate(0,3)" font-family="sans-serif" font-size="10px" fill="#000" opacity="1">NJ</text><text text-anchor="end" transform="translate(457.04901960784315,7) rotate(270) translate(0,3)" font-family="sans-serif" font-size="10px" fill="#000" opacity="1">NM</text><text text-anchor="end" transform="translate(471.12745098039215,7) rotate(270) translate(0,3)" font-family="sans-serif" font-size="10px" fill="#000" opacity="1">NV</text><text text-anchor="end" transform="translate(485.20588235294116,7) rotate(270) translate(0,3)" font-family="sans-serif" font-size="10px" fill="#000" opacity="1">NY</text><text text-anchor="end" transform="translate(499.2843137254902,7) rotate(270) translate(0,3)" font-family="sans-serif" font-size="10px" fill="#000" opacity="1">OH</text><text text-anchor="end" transform="translate(513.3627450980392,7) rotate(270) translate(0,3)" font-family="sans-serif" font-size="10px" fill="#000" opacity="1">OK</text><text text-anchor="end" transform="translate(527.4411764705883,7) rotate(270) translate(0,3)" font-family="sans-serif" font-size="10px" fill="#000" opacity="1">OR</text><text text-anchor="end" transform="translate(541.5196078431374,7) rotate(270) translate(0,3)" font-family="sans-serif" font-size="10px" fill="#000" opacity="1">PA</text><text text-anchor="end" transform="translate(555.5980392156863,7) rotate(270) translate(0,3)" font-family="sans-serif" font-size="10px" fill="#000" opacity="1">RI</text><text text-anchor="end" transform="translate(569.6764705882354,7) rotate(270) translate(0,3)" font-family="sans-serif" font-size="10px" fill="#000" opacity="1">SC</text><text text-anchor="end" transform="translate(583.7549019607844,7) rotate(270) translate(0,3)" font-family="sans-serif" font-size="10px" fill="#000" opacity="1">SD</text><text text-anchor="end" transform="translate(597.8333333333334,7) rotate(270) translate(0,3)" font-family="sans-serif" font-size="10px" fill="#000" opacity="1">TN</text><text text-anchor="end" transform="translate(611.9117647058824,7) rotate(270) translate(0,3)" font-family="sans-serif" font-size="10px" fill="#000" opacity="1">TX</text><text text-anchor="end" transform="translate(625.9901960784315,7) rotate(270) translate(0,3)" font-family="sans-serif" font-size="10px" fill="#000" opacity="1">UT</text><text text-anchor="end" transform="translate(640.0686274509804,7) rotate(270) translate(0,3)" font-family="sans-serif" font-size="10px" fill="#000" opacity="1">VA</text><text text-anchor="end" transform="translate(654.1470588235295,7) rotate(270) translate(0,3)" font-family="sans-serif" font-size="10px" fill="#000" opacity="1">VT</text><text text-anchor="end" transform="translate(668.2254901960785,7) rotate(270) translate(0,3)" font-family="sans-serif" font-size="10px" fill="#000" opacity="1">WA</text><text text-anchor="end" transform="translate(682.3039215686275,7) rotate(270) translate(0,3)" font-family="sans-serif" font-size="10px" fill="#000" opacity="1">WI</text><text text-anchor="end" transform="translate(696.3823529411766,7) rotate(270) translate(0,3)" font-family="sans-serif" font-size="10px" fill="#000" opacity="1">WV</text><text text-anchor="end" transform="translate(710.4607843137255,7) rotate(270) translate(0,3)" font-family="sans-serif" font-size="10px" fill="#000" opacity="1">WY</text></g><g class="mark-rule role-axis-domain" pointer-events="none"><line transform="translate(0,0)" x2="718" y2="0" stroke="#888" stroke-width="1" opacity="1"></line></g><g class="mark-text role-axis-title" pointer-events="none"><text text-anchor="middle" transform="translate(359,37.919921875)" font-family="sans-serif" font-size="11px" font-weight="bold" fill="#000" opacity="1">State</text></g></g><path class="foreground" aria-hidden="true" d="" pointer-events="none" display="none"></path></g></g><g class="mark-group role-axis" role="graphics-symbol" aria-roledescription="axis" aria-label="Y-axis titled 'Count of Records' for a linear scale with values from 0 to 65"><g transform="translate(0.5,0.5)"><path class="background" aria-hidden="true" d="M0,0h0v0h0Z" pointer-events="none"></path><g><g class="mark-rule role-axis-tick" pointer-events="none"><line transform="translate(0,300)" x2="-5" y2="0" stroke="#888" stroke-width="1" opacity="1"></line><line transform="translate(0,254)" x2="-5" y2="0" stroke="#888" stroke-width="1" opacity="1"></line><line transform="translate(0,208)" x2="-5" y2="0" stroke="#888" stroke-width="1" opacity="1"></line><line transform="translate(0,162)" x2="-5" y2="0" stroke="#888" stroke-width="1" opacity="1"></line><line transform="translate(0,115)" x2="-5" y2="0" stroke="#888" stroke-width="1" opacity="1"></line><line transform="translate(0,69)" x2="-5" y2="0" stroke="#888" stroke-width="1" opacity="1"></line><line transform="translate(0,23)" x2="-5" y2="0" stroke="#888" stroke-width="1" opacity="1"></line></g><g class="mark-text role-axis-label" pointer-events="none"><text text-anchor="end" transform="translate(-7,303)" font-family="sans-serif" font-size="10px" fill="#000" opacity="1">0</text><text text-anchor="end" transform="translate(-7,256.8461538461538)" font-family="sans-serif" font-size="10px" fill="#000" opacity="1">10</text><text text-anchor="end" transform="translate(-7,210.69230769230768)" font-family="sans-serif" font-size="10px" fill="#000" opacity="1">20</text><text text-anchor="end" transform="translate(-7,164.53846153846152)" font-family="sans-serif" font-size="10px" fill="#000" opacity="1">30</text><text text-anchor="end" transform="translate(-7,118.38461538461537)" font-family="sans-serif" font-size="10px" fill="#000" opacity="1">40</text><text text-anchor="end" transform="translate(-7,72.23076923076921)" font-family="sans-serif" font-size="10px" fill="#000" opacity="1">50</text><text text-anchor="end" transform="translate(-7,26.076923076923062)" font-family="sans-serif" font-size="10px" fill="#000" opacity="1">60</text></g><g class="mark-rule role-axis-domain" pointer-events="none"><line transform="translate(0,300)" x2="0" y2="-300" stroke="#888" stroke-width="1" opacity="1"></line></g><g class="mark-text role-axis-title" pointer-events="none"><text text-anchor="middle" transform="translate(-22.728515625,150) rotate(-90) translate(0,-2)" font-family="sans-serif" font-size="11px" font-weight="bold" fill="#000" opacity="1">Count of Records</text></g></g><path class="foreground" aria-hidden="true" d="" pointer-events="none" display="none"></path></g></g><g class="mark-rect role-mark marks" role="graphics-object" aria-roledescription="rect mark container"><path aria-label="State: TN; Count of Records: 19" role="graphics-symbol" aria-roledescription="bar" d="M591.9980392156863,212.3076923076923h12.670588235294117v87.69230769230771h-12.670588235294117Z" fill="#4c78a8"></path><path aria-label="State: NC; Count of Records: 21" role="graphics-symbol" aria-roledescription="bar" d="M380.82156862745103,203.0769230769231h12.670588235294117v96.9230769230769h-12.670588235294117Z" fill="#4c78a8"></path><path aria-label="State: VA; Count of Records: 17" role="graphics-symbol" aria-roledescription="bar" d="M634.2333333333333,221.53846153846155h12.670588235294117v78.46153846153845h-12.670588235294117Z" fill="#4c78a8"></path><path aria-label="State: SC; Count of Records: 8" role="graphics-symbol" aria-roledescription="bar" d="M563.8411764705883,263.0769230769231h12.670588235294117v36.923076923076906h-12.670588235294117Z" fill="#4c78a8"></path><path aria-label="State: MS; Count of Records: 19" role="graphics-symbol" aria-roledescription="bar" d="M352.66470588235296,212.3076923076923h12.670588235294117v87.69230769230771h-12.670588235294117Z" fill="#4c78a8"></path><path aria-label="State: LA; Count of Records: 12" role="graphics-symbol" aria-roledescription="bar" d="M254.11568627450984,244.6153846153846h12.670588235294117v55.38461538461539h-12.670588235294117Z" fill="#4c78a8"></path><path aria-label="State: AR; Count of Records: 18" role="graphics-symbol" aria-roledescription="bar" d="M28.86078431372553,216.9230769230769h12.670588235294117v83.0769230769231h-12.670588235294117Z" fill="#4c78a8"></path><path aria-label="State: KY; Count of Records: 21" role="graphics-symbol" aria-roledescription="bar" d="M240.0372549019608,203.0769230769231h12.670588235294117v96.9230769230769h-12.670588235294117Z" fill="#4c78a8"></path><path aria-label="State: AL; Count of Records: 14" role="graphics-symbol" aria-roledescription="bar" d="M14.782352941176512,235.3846153846154h12.670588235294117v64.61538461538461h-12.670588235294117Z" fill="#4c78a8"></path><path aria-label="State: GA; Count of Records: 28" role="graphics-symbol" aria-roledescription="bar" d="M141.4882352941177,170.76923076923077h12.670588235294117v129.23076923076923h-12.670588235294117Z" fill="#4c78a8"></path><path aria-label="State: FL; Count of Records: 16" role="graphics-symbol" aria-roledescription="bar" d="M127.40980392156867,226.15384615384616h12.670588235294117v73.84615384615384h-12.670588235294117Z" fill="#4c78a8"></path><path aria-label="State: WV; Count of Records: 10" role="graphics-symbol" aria-roledescription="bar" d="M690.5470588235295,253.84615384615384h12.670588235294117v46.15384615384616h-12.670588235294117Z" fill="#4c78a8"></path><path aria-label="State: MD; Count of Records: 3" role="graphics-symbol" aria-roledescription="bar" d="M282.2725490196079,286.15384615384613h12.670588235294117v13.846153846153868h-12.670588235294117Z" fill="#4c78a8"></path><path aria-label="State: DC; Count of Records: 1" role="graphics-symbol" aria-roledescription="bar" d="M99.25294117647063,295.3846153846154h12.670588235294117v4.615384615384585h-12.670588235294117Z" fill="#4c78a8"></path><path aria-label="State: MI; Count of Records: 18" role="graphics-symbol" aria-roledescription="bar" d="M310.42941176470595,216.9230769230769h12.670588235294117v83.0769230769231h-12.670588235294117Z" fill="#4c78a8"></path><path aria-label="State: OH; Count of Records: 17" role="graphics-symbol" aria-roledescription="bar" d="M493.4490196078432,221.53846153846155h12.670588235294117v78.46153846153845h-12.670588235294117Z" fill="#4c78a8"></path><path aria-label="State: IN; Count of Records: 17" role="graphics-symbol" aria-roledescription="bar" d="M211.8803921568628,221.53846153846155h12.670588235294117v78.46153846153845h-12.670588235294117Z" fill="#4c78a8"></path><path aria-label="State: IL; Count of Records: 18" role="graphics-symbol" aria-roledescription="bar" d="M197.80196078431376,216.9230769230769h12.670588235294117v83.0769230769231h-12.670588235294117Z" fill="#4c78a8"></path><path aria-label="State: PA; Count of Records: 13" role="graphics-symbol" aria-roledescription="bar" d="M535.6843137254903,240h12.670588235294117v60h-12.670588235294117Z" fill="#4c78a8"></path><path aria-label="State: NY; Count of Records: 12" role="graphics-symbol" aria-roledescription="bar" d="M479.3705882352941,244.6153846153846h12.670588235294117v55.38461538461539h-12.670588235294117Z" fill="#4c78a8"></path><path aria-label="State: NJ; Count of Records: 2" role="graphics-symbol" aria-roledescription="bar" d="M437.1352941176471,290.7692307692308h12.670588235294117v9.230769230769226h-12.670588235294117Z" fill="#4c78a8"></path><path aria-label="State: DE; Count of Records: 2" role="graphics-symbol" aria-roledescription="bar" d="M113.33137254901965,290.7692307692308h12.670588235294117v9.230769230769226h-12.670588235294117Z" fill="#4c78a8"></path><path aria-label="State: ME; Count of Records: 4" role="graphics-symbol" aria-roledescription="bar" d="M296.3509803921569,281.53846153846155h12.670588235294117v18.461538461538453h-12.670588235294117Z" fill="#4c78a8"></path><path aria-label="State: VT; Count of Records: 3" role="graphics-symbol" aria-roledescription="bar" d="M648.3117647058824,286.15384615384613h12.670588235294117v13.846153846153868h-12.670588235294117Z" fill="#4c78a8"></path><path aria-label="State: RI; Count of Records: 1" role="graphics-symbol" aria-roledescription="bar" d="M549.7627450980392,295.3846153846154h12.670588235294117v4.615384615384585h-12.670588235294117Z" fill="#4c78a8"></path><path aria-label="State: MA; Count of Records: 5" role="graphics-symbol" aria-roledescription="bar" d="M268.1941176470589,276.92307692307696h12.670588235294117v23.076923076923038h-12.670588235294117Z" fill="#4c78a8"></path><path aria-label="State: NH; Count of Records: 2" role="graphics-symbol" aria-roledescription="bar" d="M423.0568627450981,290.7692307692308h12.670588235294117v9.230769230769226h-12.670588235294117Z" fill="#4c78a8"></path><path aria-label="State: CT; Count of Records: 1" role="graphics-symbol" aria-roledescription="bar" d="M85.17450980392161,295.3846153846154h12.670588235294117v4.615384615384585h-12.670588235294117Z" fill="#4c78a8"></path><path aria-label="State: WI; Count of Records: 15" role="graphics-symbol" aria-roledescription="bar" d="M676.4686274509804,230.76923076923075h12.670588235294117v69.23076923076925h-12.670588235294117Z" fill="#4c78a8"></path><path aria-label="State: MN; Count of Records: 23" role="graphics-symbol" aria-roledescription="bar" d="M324.50784313725495,193.8461538461538h12.670588235294117v106.15384615384619h-12.670588235294117Z" fill="#4c78a8"></path><path aria-label="State: IA; Count of Records: 22" role="graphics-symbol" aria-roledescription="bar" d="M169.64509803921572,198.46153846153845h12.670588235294117v101.53846153846155h-12.670588235294117Z" fill="#4c78a8"></path><path aria-label="State: MO; Count of Records: 24" role="graphics-symbol" aria-roledescription="bar" d="M338.58627450980396,189.23076923076923h12.670588235294117v110.76923076923077h-12.670588235294117Z" fill="#4c78a8"></path><path aria-label="State: ND; Count of Records: 20" role="graphics-symbol" aria-roledescription="bar" d="M394.90000000000003,207.69230769230768h12.670588235294117v92.30769230769232h-12.670588235294117Z" fill="#4c78a8"></path><path aria-label="State: SD; Count of Records: 24" role="graphics-symbol" aria-roledescription="bar" d="M577.9196078431373,189.23076923076923h12.670588235294117v110.76923076923077h-12.670588235294117Z" fill="#4c78a8"></path><path aria-label="State: MT; Count of Records: 22" role="graphics-symbol" aria-roledescription="bar" d="M366.74313725490197,198.46153846153845h12.670588235294117v101.53846153846155h-12.670588235294117Z" fill="#4c78a8"></path><path aria-label="State: NE; Count of Records: 22" role="graphics-symbol" aria-roledescription="bar" d="M408.97843137254904,198.46153846153845h12.670588235294117v101.53846153846155h-12.670588235294117Z" fill="#4c78a8"></path><path aria-label="State: WY; Count of Records: 13" role="graphics-symbol" aria-roledescription="bar" d="M704.6254901960784,240h12.670588235294117v60h-12.670588235294117Z" fill="#4c78a8"></path><path aria-label="State: CO; Count of Records: 17" role="graphics-symbol" aria-roledescription="bar" d="M71.09607843137259,221.53846153846155h12.670588235294117v78.46153846153845h-12.670588235294117Z" fill="#4c78a8"></path><path aria-label="State: KS; Count of Records: 32" role="graphics-symbol" aria-roledescription="bar" d="M225.9588235294118,152.3076923076923h12.670588235294117v147.6923076923077h-12.670588235294117Z" fill="#4c78a8"></path><path aria-label="State: OK; Count of Records: 16" role="graphics-symbol" aria-roledescription="bar" d="M507.5274509803922,226.15384615384616h12.670588235294117v73.84615384615384h-12.670588235294117Z" fill="#4c78a8"></path><path aria-label="State: TX; Count of Records: 64" role="graphics-symbol" aria-roledescription="bar" d="M606.0764705882353,4.615384615384599h12.670588235294117v295.3846153846154h-12.670588235294117Z" fill="#4c78a8"></path><path aria-label="State: NM; Count of Records: 14" role="graphics-symbol" aria-roledescription="bar" d="M451.2137254901961,235.3846153846154h12.670588235294117v64.61538461538461h-12.670588235294117Z" fill="#4c78a8"></path><path aria-label="State: AK; Count of Records: 15" role="graphics-symbol" aria-roledescription="bar" d="M0.7039215686274929,230.76923076923075h12.670588235294117v69.23076923076925h-12.670588235294117Z" fill="#4c78a8"></path><path aria-label="State: ID; Count of Records: 9" role="graphics-symbol" aria-roledescription="bar" d="M183.72352941176473,258.46153846153845h12.670588235294117v41.53846153846155h-12.670588235294117Z" fill="#4c78a8"></path><path aria-label="State: HI; Count of Records: 4" role="graphics-symbol" aria-roledescription="bar" d="M155.56666666666672,281.53846153846155h12.670588235294117v18.461538461538453h-12.670588235294117Z" fill="#4c78a8"></path><path aria-label="State: AZ; Count of Records: 5" role="graphics-symbol" aria-roledescription="bar" d="M42.93921568627455,276.92307692307696h12.670588235294117v23.076923076923038h-12.670588235294117Z" fill="#4c78a8"></path><path aria-label="State: OR; Count of Records: 14" role="graphics-symbol" aria-roledescription="bar" d="M521.6058823529412,235.3846153846154h12.670588235294117v64.61538461538461h-12.670588235294117Z" fill="#4c78a8"></path><path aria-label="State: UT; Count of Records: 9" role="graphics-symbol" aria-roledescription="bar" d="M620.1549019607844,258.46153846153845h12.670588235294117v41.53846153846155h-12.670588235294117Z" fill="#4c78a8"></path><path aria-label="State: CA; Count of Records: 18" role="graphics-symbol" aria-roledescription="bar" d="M57.01764705882357,216.9230769230769h12.670588235294117v83.0769230769231h-12.670588235294117Z" fill="#4c78a8"></path><path aria-label="State: NV; Count of Records: 5" role="graphics-symbol" aria-roledescription="bar" d="M465.2921568627451,276.92307692307696h12.670588235294117v23.076923076923038h-12.670588235294117Z" fill="#4c78a8"></path><path aria-label="State: WA; Count of Records: 12" role="graphics-symbol" aria-roledescription="bar" d="M662.3901960784314,244.6153846153846h12.670588235294117v55.38461538461539h-12.670588235294117Z" fill="#4c78a8"></path></g></g><path class="foreground" aria-hidden="true" d="" display="none"></path></g></g></g></svg>