<svg xmlns="http://www.w3.org/2000/svg" xmlns:xlink="http://www.w3.org/1999/xlink" version="1.1" class="marks" width="852" height="264" viewBox="0 0 852 264" style="background-color: white;"><g fill="none" stroke-miterlimit="10" transform="translate(45,27)"><g class="mark-group role-frame root" role="graphics-object" aria-roledescription="group mark container"><g transform="translate(0,0)"><path class="background" aria-hidden="true" d="M0.5,0.5h800v200h-800Z" fill="transparent" stroke="#ddd"></path><g><g class="mark-group role-axis" aria-hidden="true"><g transform="translate(0.5,200.5)"><path class="background" aria-hidden="true" d="M0,0h0v0h0Z" pointer-events="none"></path><g><g class="mark-rule role-axis-grid" pointer-events="none"><line transform="translate(23,-200)" x2="0" y2="200" stroke="#ddd" stroke-width="1" opacity="1"></line><line transform="translate(80,-200)" x2="0" y2="200" stroke="#ddd" stroke-width="1" opacity="1"></line><line transform="translate(136,-200)" x2="0" y2="200" stroke="#ddd" stroke-width="1" opacity="1"></line><line transform="translate(193,-200)" x2="0" y2="200" stroke="#ddd" stroke-width="1" opacity="1"></line><line transform="translate(251,-200)" x2="0" y2="200" stroke="#ddd" stroke-width="1" opacity="1"></line><line transform="translate(307,-200)" x2="0" y2="200" stroke="#ddd" stroke-width="1" opacity="1"></line><line transform="translate(363,-200)" x2="0" y2="200" stroke="#ddd" stroke-width="1" opacity="1"></line><line transform="translate(420,-200)" x2="0" y2="200" stroke="#ddd" stroke-width="1" opacity="1"></line><line transform="translate(478,-200)" x2="0" y2="200" stroke="#ddd" stroke-width="1" opacity="1"></line><line transform="translate(533,-200)" x2="0" y2="200" stroke="#ddd" stroke-width="1" opacity="1"></line><line transform="translate(590,-200)" x2="0" y2="200" stroke="#ddd" stroke-width="1" opacity="1"></line><line transform="translate(647,-200)" x2="0" y2="200" stroke="#ddd" stroke-width="1" opacity="1"></line><line transform="translate(704,-200)" x2="0" y2="200" stroke="#ddd" stroke-width="1" opacity="1"></line><line transform="translate(760,-200)" x2="0" y2="200" stroke="#ddd" stroke-width="1" opacity="1"></line></g></g><path class="foreground" aria-hidden="true" d="" pointer-events="none" display="none"></path></g></g><g class="mark-group role-axis" aria-hidden="true"><g transform="translate(0.5,0.5)"><path class="background" aria-hidden="true" d="M0,0h0v0h0Z" pointer-events="none"></path><g><g class="mark-rule role-axis-grid" pointer-events="none"><line transform="translate(0,200)" x2="800" y2="0" stroke="#ddd" stroke-width="1" opacity="1"></line><line transform="translate(0,171)" x2="800" y2="0" stroke="#ddd" stroke-width="1" opacity="1"></line><line transform="translate(0,143)" x2="800" y2="0" stroke="#ddd" stroke-width="1" opacity="1"></line><line transform="translate(0,114)" x2="800" y2="0" stroke="#ddd" stroke-width="1" opacity="1"></line><line transform="translate(0,86)" x2="800" y2="0" stroke="#ddd" stroke-width="1" opacity="1"></line><line transform="translate(0,57)" x2="800" y2="0" stroke="#ddd" stroke-width="1" opacity="1"></line><line transform="translate(0,29)" x2="800" y2="0" stroke="#ddd" stroke-width="1" opacity="1"></line><line transform="translate(0,0)" x2="800" y2="0" stroke="#ddd" stroke-width="1" opacity="1"></line></g></g><path class="foreground" aria-hidden="true" d="" pointer-events="none" display="none"></path></g></g><g class="mark-group role-axis" role="graphics-symbol" aria-roledescription="axis" aria-label="X-axis titled 'Starred Date' for a time scale with values from Sunday, 24 November 2019, 7:53:49 PM to Saturday, 03 June 2023, 6:42:42 PM"><g transform="translate(0.5,200.5)"><path class="background" aria-hidden="true" d="M0,0h0v0h0Z" pointer-events="none"></path><g><g class="mark-rule role-axis-tick" pointer-events="none"><line transform="translate(23,0)" x2="0" y2="5" stroke="#888" stroke-width="1" opacity="1"></line><line transform="translate(80,0)" x2="0" y2="5" stroke="#888" stroke-width="1" opacity="1"></line><line transform="translate(136,0)" x2="0" y2="5" stroke="#888" stroke-width="1" opacity="1"></line><line transform="translate(193,0)" x2="0" y2="5" stroke="#888" stroke-width="1" opacity="1"></line><line transform="translate(251,0)" x2="0" y2="5" stroke="#888" stroke-width="1" opacity="1"></line><line transform="translate(307,0)" x2="0" y2="5" stroke="#888" stroke-width="1" opacity="1"></line><line transform="translate(363,0)" x2="0" y2="5" stroke="#888" stroke-width="1" opacity="1"></line><line transform="translate(420,0)" x2="0" y2="5" stroke="#888" stroke-width="1" opacity="1"></line><line transform="translate(478,0)" x2="0" y2="5" stroke="#888" stroke-width="1" opacity="1"></line><line transform="translate(533,0)" x2="0" y2="5" stroke="#888" stroke-width="1" opacity="1"></line><line transform="translate(590,0)" x2="0" y2="5" stroke="#888" stroke-width="1" opacity="1"></line><line transform="translate(647,0)" x2="0" y2="5" stroke="#888" stroke-width="1" opacity="1"></line><line transform="translate(704,0)" x2="0" y2="5" stroke="#888" stroke-width="1" opacity="1"></line><line transform="translate(760,0)" x2="0" y2="5" stroke="#888" stroke-width="1" opacity="1"></line></g><g class="mark-text role-axis-label" pointer-events="none"><text text-anchor="middle" transform="translate(23.106378914850335,15)" font-family="sans-serif" font-size="10px" fill="#000" opacity="1">2020</text><text text-anchor="middle" transform="translate(79.67420618073338,15)" font-family="sans-serif" font-size="10px" fill="#000" opacity="1">April</text><text text-anchor="middle" transform="translate(136.24203344661643,15)" font-family="sans-serif" font-size="10px" fill="#000" opacity="1">July</text><text text-anchor="middle" transform="translate(193.43148518794874,15)" font-family="sans-serif" font-size="10px" fill="#000" opacity="1">October</text><text text-anchor="middle" transform="translate(250.62093692928102,15)" font-family="sans-serif" font-size="10px" fill="#000" opacity="1">2021</text><text text-anchor="middle" transform="translate(306.5671397197148,15)" font-family="sans-serif" font-size="10px" fill="#000" opacity="1">April</text><text text-anchor="middle" transform="translate(363.1349669855978,15)" font-family="sans-serif" font-size="10px" fill="#000" opacity="1">July</text><text text-anchor="middle" transform="translate(420.3244187269302,15)" font-family="sans-serif" font-size="10px" fill="#000" opacity="1">October</text><text text-anchor="middle" transform="translate(477.51387046826244,15)" font-family="sans-serif" font-size="10px" fill="#000" opacity="1">2022</text><text text-anchor="middle" transform="translate(533.4600732586963,15)" font-family="sans-serif" font-size="10px" fill="#000" opacity="1">April</text><text text-anchor="middle" transform="translate(590.0279005245793,15)" font-family="sans-serif" font-size="10px" fill="#000" opacity="1">July</text><text text-anchor="middle" transform="translate(647.2173522659116,15)" font-family="sans-serif" font-size="10px" fill="#000" opacity="1">October</text><text text-anchor="middle" transform="translate(704.4068040072439,15)" font-family="sans-serif" font-size="10px" fill="#000" opacity="1">2023</text><text text-anchor="middle" transform="translate(760.3530067976777,15)" font-family="sans-serif" font-size="10px" fill="#000" opacity="1">April</text></g><g class="mark-rule role-axis-domain" pointer-events="none"><line transform="translate(0,0)" x2="800" y2="0" stroke="#888" stroke-width="1" opacity="1"></line></g><g class="mark-text role-axis-title" pointer-events="none"><text text-anchor="middle" transform="translate(400,30)" font-family="sans-serif" font-size="11px" font-weight="bold" fill="#000" opacity="1">Starred Date</text></g></g><path class="foreground" aria-hidden="true" d="" pointer-events="none" display="none"></path></g></g><g class="mark-group role-axis" role="graphics-symbol" aria-roledescription="axis" aria-label="Y-axis titled 'Cumulative Star Count' for a linear scale with values from 0 to 700"><g transform="translate(0.5,0.5)"><path class="background" aria-hidden="true" d="M0,0h0v0h0Z" pointer-events="none"></path><g><g class="mark-rule role-axis-tick" pointer-events="none"><line transform="translate(0,200)" x2="-5" y2="0" stroke="#888" stroke-width="1" opacity="1"></line><line transform="translate(0,171)" x2="-5" y2="0" stroke="#888" stroke-width="1" opacity="1"></line><line transform="translate(0,143)" x2="-5" y2="0" stroke="#888" stroke-width="1" opacity="1"></line><line transform="translate(0,114)" x2="-5" y2="0" stroke="#888" stroke-width="1" opacity="1"></line><line transform="translate(0,86)" x2="-5" y2="0" stroke="#888" stroke-width="1" opacity="1"></line><line transform="translate(0,57)" x2="-5" y2="0" stroke="#888" stroke-width="1" opacity="1"></line><line transform="translate(0,29)" x2="-5" y2="0" stroke="#888" stroke-width="1" opacity="1"></line><line transform="translate(0,0)" x2="-5" y2="0" stroke="#888" stroke-width="1" opacity="1"></line></g><g class="mark-text role-axis-label" pointer-events="none"><text text-anchor="end" transform="translate(-7,203)" font-family="sans-serif" font-size="10px" fill="#000" opacity="1">0</text><text text-anchor="end" transform="translate(-7,174.42857142857144)" font-family="sans-serif" font-size="10px" fill="#000" opacity="1">100</text><text text-anchor="end" transform="translate(-7,145.85714285714286)" font-family="sans-serif" font-size="10px" fill="#000" opacity="1">200</text><text text-anchor="end" transform="translate(-7,117.28571428571428)" font-family="sans-serif" font-size="10px" fill="#000" opacity="1">300</text><text text-anchor="end" transform="translate(-7,88.71428571428572)" font-family="sans-serif" font-size="10px" fill="#000" opacity="1">400</text><text text-anchor="end" transform="translate(-7,60.14285714285714)" font-family="sans-serif" font-size="10px" fill="#000" opacity="1">500</text><text text-anchor="end" transform="translate(-7,31.57142857142858)" font-family="sans-serif" font-size="10px" fill="#000" opacity="1">600</text><text text-anchor="end" transform="translate(-7,3)" font-family="sans-serif" font-size="10px" fill="#000" opacity="1">700</text></g><g class="mark-rule role-axis-domain" pointer-events="none"><line transform="translate(0,200)" x2="0" y2="-200" stroke="#888" stroke-width="1" opacity="1"></line></g><g class="mark-text role-axis-title" pointer-events="none"><text text-anchor="middle" transform="translate(-28.5927734375,100) rotate(-90) translate(0,-2)" font-family="sans-serif" font-size="11px" font-weight="bold" fill="#000" opacity="1">Cumulative Star Count</text></g></g><path class="foreground" aria-hidden="true" d="" pointer-events="none" display="none"></path></g></g><g class="mark-line role-mark marks" role="graphics-object" aria-roledescription="line mark container"><path aria-label="starredAt: Nov 24, 2019; cumulative_count: 1; Date: Nov 24, 2019; Cumulative Count: 1" role="graphics-symbol" aria-roledescription="line mark" d="M0,199.714L5.124,199.429L41.026,199.143L41.123,198.857L41.137,198.571L70.332,198.286L75.824,198L90.503,197.714L90.77,197.429L90.949,197.143L95.484,196.857L97.114,196.571L116.456,196.286L120.118,196L123.598,195.714L136.551,195.429L136.735,195.143L137.283,194.857L138.919,194.571L146.66,194.286L146.812,194L148.848,193.714L149.011,193.429L150.18,193.143L151.011,192.857L151.673,192.571L154.44,192.286L157.051,192L170.728,191.714L174.109,191.429L176.547,191.143L185.17,190.857L187.693,190.571L187.773,190.286L187.803,190L187.95,189.714L189.64,189.429L191.658,189.143L192.789,188.857L198.833,188.571L202.227,188.286L203.448,188L207.701,187.714L210.873,187.429L215.577,187.143L219.009,186.857L223.266,186.571L232.897,186.286L233.344,186L233.857,185.714L240.701,185.429L245.433,185.143L248.26,184.857L249.221,184.571L249.314,184.286L252.763,184L258.732,183.714L261.747,183.429L261.816,183.143L264.137,182.857L265.098,182.571L268.568,182.286L271.057,182L287.596,181.714L287.877,181.429L289.42,181.143L296.685,180.857L301.431,180.571L301.508,180.286L312.119,180L316.152,179.714L316.35,179.429L323.434,179.143L325.164,178.857L327.38,178.571L331.877,178.286L333.858,178L335.573,177.714L338.092,177.429L345.607,177.143L346.652,176.857L349.466,176.571L354.889,176.286L358.247,176L359.196,175.714L360.458,175.429L360.757,175.143L361.175,174.857L361.686,174.571L368.145,174.286L370.773,174L380.9,173.714L383.114,173.429L388.143,173.143L389.27,172.857L389.27,172.571L389.611,172.286L392.28,172L403.376,171.714L406.634,171.429L409.325,171.143L415.709,170.857L416.543,170.571L420.407,170.286L421.079,170L423.923,169.714L424.481,169.429L429.07,169.143L429.767,168.857L434.297,168.571L436.626,168.286L436.912,168L436.987,167.714L437.071,167.429L440.342,167.143L441.333,166.857L445.44,166.571L445.648,166.286L447.191,166L449.399,165.714L449.544,165.429L449.815,165.143L455.786,164.857L462.681,164.571L462.783,164.286L465.262,164L465.64,163.714L465.888,163.429L466.296,163.143L466.901,162.857L467.046,162.571L467.682,162.286L471.465,162L472.33,161.714L472.447,161.429L474.984,161.143L476.328,160.857L476.915,160.571L481.235,160.286L481.632,160L483.602,159.714L488.713,159.429L494.302,159.143L498.43,158.857L500.797,158.571L501.263,158.286L501.49,158L502.965,157.714L504.769,157.429L505.491,157.143L506.011,156.857L506.785,156.571L509.831,156.286L510.795,156L512.349,155.714L516.145,155.429L518.571,155.143L518.574,154.857L518.644,154.571L518.646,154.286L518.647,154L518.848,153.714L518.933,153.429L518.961,153.143L520.911,152.857L523.124,152.571L525.324,152.286L532.596,152L536.464,151.714L536.885,151.429L540.277,151.143L540.912,150.857L544.196,150.571L544.614,150.286L545.046,150L545.794,149.714L546.897,149.429L549.363,149.143L549.53,148.857L550.211,148.571L550.645,148.286L554.096,148L554.538,147.714L555.645,147.429L560.633,147.143L563.192,146.857L563.196,146.571L563.272,146.286L564.356,146L565.65,145.714L572.014,145.429L572.772,145.143L572.899,144.857L573.089,144.571L573.096,144.286L575.45,144L575.675,143.714L576.491,143.429L576.59,143.143L578.792,142.857L579.307,142.571L582.58,142.286L584.683,142L584.734,141.714L585.063,141.429L586.356,141.143L586.409,140.857L586.899,140.571L590.185,140.286L592.883,140L592.895,139.714L592.954,139.429L592.958,139.143L593.029,138.857L593.029,138.571L593.815,138.286L594.397,138L600.809,137.714L602.041,137.429L603.205,137.143L603.567,136.857L603.57,136.571L605.478,136.286L605.515,136L607.407,135.714L607.469,135.429L609.304,135.143L610.233,134.857L610.502,134.571L611.893,134.286L611.898,134L612.356,133.714L612.452,133.429L614.186,133.143L614.191,132.857L614.285,132.571L614.309,132.286L614.404,132L614.425,131.714L614.477,131.429L614.596,131.143L614.772,130.857L614.82,130.571L614.936,130.286L614.995,130L615.373,129.714L616.762,129.429L617.3,129.143L619.412,128.857L620.097,128.571L621.186,128.286L622.623,128L624.114,127.714L624.604,127.429L624.66,127.143L625.236,126.857L627.283,126.571L627.871,126.286L627.983,126L630.299,125.714L631.605,125.429L632.301,125.143L632.334,124.857L632.851,124.571L633.035,124.286L634.179,124L634.261,123.714L637.832,123.429L639.451,123.143L640.888,122.857L640.907,122.571L640.918,122.286L640.927,122L641.005,121.714L641.037,121.429L641.33,121.143L643.223,120.857L643.616,120.571L643.662,120.286L644.632,120L644.772,119.714L645.232,119.429L645.815,119.143L645.875,118.857L646.434,118.571L646.44,118.286L646.522,118L646.591,117.714L646.708,117.429L646.929,117.143L646.949,116.857L647.032,116.571L647.069,116.286L647.236,116L647.692,115.714L649.014,115.429L649.322,115.143L649.539,114.857L649.77,114.571L650.054,114.286L650.163,114L650.277,113.714L650.492,113.429L650.569,113.143L650.576,112.857L650.622,112.571L651.037,112.286L652.329,112L652.415,111.714L652.51,111.429L652.569,111.143L652.585,110.857L652.796,110.571L652.799,110.286L652.839,110L652.955,109.714L653.091,109.429L653.659,109.143L654.004,108.857L654.138,108.571L654.501,108.286L654.653,108L655.241,107.714L655.888,107.429L656.249,107.143L657.062,106.857L657.154,106.571L657.386,106.286L657.74,106L657.75,105.714L658.358,105.429L658.374,105.143L660.982,104.857L661.936,104.571L662.15,104.286L662.837,104L662.958,103.714L663.384,103.429L663.504,103.143L664.785,102.857L667.012,102.571L667.175,102.286L668.267,102L669.588,101.714L670.397,101.429L671.619,101.143L671.781,100.857L671.84,100.571L672.095,100.286L672.542,100L672.632,99.714L674.08,99.429L676.265,99.143L677.079,98.857L677.264,98.571L678.142,98.286L679.16,98L679.804,97.714L680.28,97.429L681.275,97.143L681.277,96.857L681.54,96.571L682.98,96.286L683.235,96L683.288,95.714L683.339,95.429L683.345,95.143L683.374,94.857L683.384,94.571L683.474,94.286L683.637,94L684.035,93.714L684.462,93.429L684.599,93.143L685.364,92.857L685.53,92.571L685.565,92.286L685.587,92L685.683,91.714L685.721,91.429L685.725,91.143L685.877,90.857L686.15,90.571L686.205,90.286L687.622,90L688.78,89.714L689.667,89.429L690.421,89.143L690.756,88.857L692.065,88.571L692.15,88.286L692.93,88L693.895,87.714L694.371,87.429L697.014,87.143L697.909,86.857L697.986,86.571L699.269,86.286L702.52,86L702.732,85.714L705.642,85.429L706.088,85.143L706.323,84.857L706.377,84.571L706.587,84.286L706.867,84L706.914,83.714L707.053,83.429L707.431,83.143L707.879,82.857L707.993,82.571L708.381,82.286L708.511,82L708.558,81.714L709.957,81.429L710.634,81.143L710.738,80.857L711.479,80.571L711.638,80.286L711.845,80L713.928,79.714L714.777,79.429L714.844,79.143L714.918,78.857L715.759,78.571L716.578,78.286L716.761,78L716.811,77.714L719.672,77.429L719.76,77.143L719.853,76.857L720.01,76.571L720.663,76.286L720.679,76L720.705,75.714L720.74,75.429L720.929,75.143L721.949,74.857L722.897,74.571L722.984,74.286L722.996,74L723.003,73.714L723.011,73.429L723.014,73.143L723.025,72.857L723.031,72.571L723.043,72.286L723.044,72L723.047,71.714L723.048,71.429L723.053,71.143L723.056,70.857L723.057,70.571L723.059,70.286L723.061,70L723.066,69.714L723.077,69.429L723.089,69.143L723.09,68.857L723.092,68.571L723.094,68.286L723.099,68L723.103,67.714L723.104,67.429L723.107,67.143L723.107,66.857L723.134,66.571L723.136,66.286L723.136,66L723.143,65.714L723.146,65.429L723.158,65.143L723.178,64.857L723.188,64.571L723.202,64.286L723.214,64L723.238,63.714L723.252,63.429L723.284,63.143L723.29,62.857L723.388,62.571L723.458,62.286L723.542,62L723.58,61.714L723.662,61.429L723.692,61.143L723.704,60.857L723.71,60.571L723.767,60.286L724.012,60L724.077,59.714L724.275,59.429L724.384,59.143L724.499,58.857L724.885,58.571L724.918,58.286L724.933,58L725.037,57.714L725.074,57.429L725.189,57.143L725.193,56.857L725.2,56.571L725.283,56.286L725.479,56L725.594,55.714L726.228,55.429L726.333,55.143L726.65,54.857L726.703,54.571L726.934,54.286L727.176,54L727.336,53.714L727.49,53.429L727.975,53.143L727.982,52.857L728.186,52.571L728.194,52.286L728.508,52L728.616,51.714L728.623,51.429L728.839,51.143L728.992,50.857L730.54,50.571L730.58,50.286L731.272,50L731.453,49.714L731.573,49.429L731.574,49.143L731.66,48.857L731.687,48.571L731.877,48.286L733.031,48L734.811,47.714L734.822,47.429L735.567,47.143L736.601,46.857L736.614,46.571L737.401,46.286L738.01,46L738.099,45.714L738.632,45.429L739.626,45.143L740.549,44.857L741.138,44.571L742.245,44.286L743.931,44L744.317,43.714L744.367,43.429L744.707,43.143L744.762,42.857L744.807,42.571L744.878,42.286L745.474,42L745.562,41.714L745.756,41.429L745.806,41.143L747.257,40.857L747.718,40.571L747.786,40.286L748.903,40L748.96,39.714L750.26,39.429L750.404,39.143L750.794,38.857L752.63,38.571L753.076,38.286L753.523,38L753.552,37.714L753.864,37.429L756.023,37.143L756.675,36.857L756.953,36.571L757.187,36.286L758.188,36L758.306,35.714L758.486,35.429L758.995,35.143L759.247,34.857L760.624,34.571L762.143,34.286L762.691,34L763.273,33.714L763.903,33.429L764.558,33.143L766.585,32.857L767.095,32.571L768.703,32.286L769.137,32L769.487,31.714L770.055,31.429L770.362,31.143L770.777,30.857L771.172,30.571L771.183,30.286L771.593,30L771.601,29.714L771.612,29.429L771.986,29.143L772.013,28.857L772.172,28.571L772.344,28.286L772.607,28L773.091,27.714L773.353,27.429L773.68,27.143L773.701,26.857L776.09,26.571L776.215,26.286L776.415,26L776.475,25.714L776.608,25.429L777.169,25.143L777.956,24.857L778.97,24.571L779.152,24.286L780.218,24L781.344,23.714L781.398,23.429L781.477,23.143L781.675,22.857L781.824,22.571L782.016,22.286L782.586,22L782.815,21.714L783.488,21.429L785.016,21.143L785.147,20.857L785.179,20.571L785.256,20.286L785.624,20L786.101,19.714L786.283,19.429L787.26,19.143L787.498,18.857L788.775,18.571L788.837,18.286L790.206,18L790.319,17.714L790.623,17.429L790.861,17.143L791.148,16.857L791.4,16.571L792.632,16.286L792.689,16L792.833,15.714L793.666,15.429L794.384,15.143L794.768,14.857L796.657,14.571L796.707,14.286L796.901,14L798.524,13.714L799.1,13.429L799.551,13.143L799.569,12.857L799.579,12.571L799.997,12.286L800,12" stroke="#4c78a8" stroke-width="2"></path></g><g class="mark-group role-title"><g transform="translate(400,-22)"><path class="background" aria-hidden="true" d="M0,0h0v0h0Z" pointer-events="none"></path><g><g class="mark-text role-title-text" role="graphics-symbol" aria-roledescription="title" aria-label="Title text 'Cumulative Count of GitHub Stars'" pointer-events="none"><text text-anchor="middle" transform="translate(0,10)" font-family="sans-serif" font-size="13px" font-weight="bold" fill="#000" opacity="1">Cumulative Count of GitHub Stars</text></g></g><path class="foreground" aria-hidden="true" d="" pointer-events="none" display="none"></path></g></g></g><path class="foreground" aria-hidden="true" d="" display="none"></path></g></g></g></svg>