<svg xmlns="http://www.w3.org/2000/svg" xmlns:xlink="http://www.w3.org/1999/xlink" version="1.1" class="marks" width="329" height="456" viewBox="0 0 329 456" style="background-color: white;"><g fill="none" stroke-miterlimit="10" transform="translate(32,40)"><g class="mark-group role-frame root" role="graphics-object" aria-roledescription="group mark container"><g transform="translate(0,0)"><path class="background" aria-hidden="true" d="M0.5,0.5h290v300h-290Z" fill="transparent" stroke="#ddd"></path><g><g class="mark-group role-axis" aria-hidden="true"><g transform="translate(0.5,300.5)"><path class="background" aria-hidden="true" d="M0,0h0v0h0Z" pointer-events="none"></path><g><g class="mark-rule role-axis-grid" pointer-events="none"><line transform="translate(62,-300)" x2="0" y2="300" stroke="#ddd" stroke-width="1" opacity="1"></line><line transform="translate(124,-300)" x2="0" y2="300" stroke="#ddd" stroke-width="1" opacity="1"></line><line transform="translate(186,-300)" x2="0" y2="300" stroke="#ddd" stroke-width="1" opacity="1"></line><line transform="translate(249,-300)" x2="0" y2="300" stroke="#ddd" stroke-width="1" opacity="1"></line></g></g><path class="foreground" aria-hidden="true" d="" pointer-events="none" display="none"></path></g></g><g class="mark-group role-axis" aria-hidden="true"><g transform="translate(0.5,0.5)"><path class="background" aria-hidden="true" d="M0,0h0v0h0Z" pointer-events="none"></path><g><g class="mark-rule role-axis-grid" pointer-events="none"><line transform="translate(0,300)" x2="290" y2="0" stroke="#ddd" stroke-width="1" opacity="1"></line><line transform="translate(0,267)" x2="290" y2="0" stroke="#ddd" stroke-width="1" opacity="1"></line><line transform="translate(0,233)" x2="290" y2="0" stroke="#ddd" stroke-width="1" opacity="1"></line><line transform="translate(0,200)" x2="290" y2="0" stroke="#ddd" stroke-width="1" opacity="1"></line><line transform="translate(0,167)" x2="290" y2="0" stroke="#ddd" stroke-width="1" opacity="1"></line><line transform="translate(0,133)" x2="290" y2="0" stroke="#ddd" stroke-width="1" opacity="1"></line><line transform="translate(0,100)" x2="290" y2="0" stroke="#ddd" stroke-width="1" opacity="1"></line><line transform="translate(0,67)" x2="290" y2="0" stroke="#ddd" stroke-width="1" opacity="1"></line><line transform="translate(0,33)" x2="290" y2="0" stroke="#ddd" stroke-width="1" opacity="1"></line><line transform="translate(0,0)" x2="290" y2="0" stroke="#ddd" stroke-width="1" opacity="1"></line></g></g><path class="foreground" aria-hidden="true" d="" pointer-events="none" display="none"></path></g></g><g class="mark-group role-axis" role="graphics-symbol" aria-roledescription="axis" aria-label="X-axis for a time scale with values from 2018 to 2022"><g transform="translate(0.5,300.5)"><path class="background" aria-hidden="true" d="M0,0h0v0h0Z" pointer-events="none"></path><g><g class="mark-rule role-axis-tick" pointer-events="none"><line transform="translate(62,0)" x2="0" y2="5" stroke="#888" stroke-width="1" opacity="1"></line><line transform="translate(124,0)" x2="0" y2="5" stroke="#888" stroke-width="1" opacity="1"></line><line transform="translate(186,0)" x2="0" y2="5" stroke="#888" stroke-width="1" opacity="1"></line><line transform="translate(249,0)" x2="0" y2="5" stroke="#888" stroke-width="1" opacity="1"></line></g><g class="mark-text role-axis-label" pointer-events="none"><text text-anchor="middle" transform="translate(62.061815336463226,15)" font-family="sans-serif" font-size="10px" fill="#000" opacity="1">2019</text><text text-anchor="middle" transform="translate(124.18035993740219,15)" font-family="sans-serif" font-size="10px" fill="#000" opacity="1">2020</text><text text-anchor="middle" transform="translate(186.4690923317684,15)" font-family="sans-serif" font-size="10px" fill="#000" opacity="1">2021</text><text text-anchor="middle" transform="translate(248.58763693270734,15)" font-family="sans-serif" font-size="10px" fill="#000" opacity="1">2022</text></g><g class="mark-rule role-axis-domain" pointer-events="none"><line transform="translate(0,0)" x2="290" y2="0" stroke="#888" stroke-width="1" opacity="1"></line></g></g><path class="foreground" aria-hidden="true" d="" pointer-events="none" display="none"></path></g></g><g class="mark-group role-axis" role="graphics-symbol" aria-roledescription="axis" aria-label="Y-axis for a linear scale with values from 0.0 to 18k"><g transform="translate(0.5,0.5)"><path class="background" aria-hidden="true" d="M0,0h0v0h0Z" pointer-events="none"></path><g><g class="mark-rule role-axis-tick" pointer-events="none"><line transform="translate(0,300)" x2="-5" y2="0" stroke="#888" stroke-width="1" opacity="1"></line><line transform="translate(0,267)" x2="-5" y2="0" stroke="#888" stroke-width="1" opacity="1"></line><line transform="translate(0,233)" x2="-5" y2="0" stroke="#888" stroke-width="1" opacity="1"></line><line transform="translate(0,200)" x2="-5" y2="0" stroke="#888" stroke-width="1" opacity="1"></line><line transform="translate(0,167)" x2="-5" y2="0" stroke="#888" stroke-width="1" opacity="1"></line><line transform="translate(0,133)" x2="-5" y2="0" stroke="#888" stroke-width="1" opacity="1"></line><line transform="translate(0,100)" x2="-5" y2="0" stroke="#888" stroke-width="1" opacity="1"></line><line transform="translate(0,67)" x2="-5" y2="0" stroke="#888" stroke-width="1" opacity="1"></line><line transform="translate(0,33)" x2="-5" y2="0" stroke="#888" stroke-width="1" opacity="1"></line><line transform="translate(0,0)" x2="-5" y2="0" stroke="#888" stroke-width="1" opacity="1"></line></g><g class="mark-text role-axis-label" pointer-events="none"><text text-anchor="end" transform="translate(-7,303)" font-family="sans-serif" font-size="10px" fill="#000" opacity="1">0.0</text><text text-anchor="end" transform="translate(-7,269.66666666666663)" font-family="sans-serif" font-size="10px" fill="#000" opacity="1">2.0k</text><text text-anchor="end" transform="translate(-7,236.33333333333334)" font-family="sans-serif" font-size="10px" fill="#000" opacity="1">4.0k</text><text text-anchor="end" transform="translate(-7,203.00000000000003)" font-family="sans-serif" font-size="10px" fill="#000" opacity="1">6.0k</text><text text-anchor="end" transform="translate(-7,169.66666666666669)" font-family="sans-serif" font-size="10px" fill="#000" opacity="1">8.0k</text><text text-anchor="end" transform="translate(-7,136.33333333333331)" font-family="sans-serif" font-size="10px" fill="#000" opacity="1">10k</text><text text-anchor="end" transform="translate(-7,103.00000000000001)" font-family="sans-serif" font-size="10px" fill="#000" opacity="1">12k</text><text text-anchor="end" transform="translate(-7,69.66666666666666)" font-family="sans-serif" font-size="10px" fill="#000" opacity="1">14k</text><text text-anchor="end" transform="translate(-7,36.33333333333335)" font-family="sans-serif" font-size="10px" fill="#000" opacity="1">16k</text><text text-anchor="end" transform="translate(-7,3)" font-family="sans-serif" font-size="10px" fill="#000" opacity="1">18k</text></g><g class="mark-rule role-axis-domain" pointer-events="none"><line transform="translate(0,300)" x2="0" y2="-300" stroke="#888" stroke-width="1" opacity="1"></line></g></g><path class="foreground" aria-hidden="true" d="" pointer-events="none" display="none"></path></g></g><g class="mark-group role-scope pathgroup" role="graphics-object" aria-roledescription="group mark container"><g transform="translate(0,0)"><path class="background" aria-hidden="true" d="M0,0h290v300h-290Z"></path><g><g class="mark-line role-mark marks" role="graphics-object" aria-roledescription="line mark container"><path aria-label="date: 2018; prices: 8.6k; region: East Midlands; Date: Jan 01, 2018; Region: East Midlands; Prices: 8,634; Total prices (UK): 116,458" role="graphics-symbol" aria-roledescription="line mark" d="M0,156.1L5.276,147.483L10.041,144.1L15.317,142.617L20.423,142.2L25.698,142.783L30.804,146.217L36.08,146.833L41.356,146.85L46.461,146.917L51.737,148.033L56.843,145.083L62.119,144.25L67.394,146.05L72.16,141.483L77.435,141.717L82.541,143.75L87.817,142.867L92.923,144.033L98.198,143.133L103.474,142.25L108.58,141.867L113.856,141.517L118.961,142.2L124.237,142.55L129.513,142.7L134.448,150.317L139.724,201.883L144.83,195.567L150.106,184.583L155.211,172.45L160.487,161.683L165.763,153.167L170.869,147.817L176.144,194.15L181.25,179.917L186.526,182.633L191.802,174.883L196.567,172.883L201.843,169.883L206.948,177.383L212.224,161.767L217.33,147.5L222.606,145.383L227.881,145.15L232.987,146.067L238.263,144.367L243.369,146.483L248.644,145.517L253.92,147.05L258.685,142.767L263.961,140.683L269.067,141.683L274.343,142.25L279.448,142.4L284.724,143.167L290,145.167" stroke="#377eb8" stroke-width="2" opacity="1"></path></g></g><path class="foreground" aria-hidden="true" d="" display="none"></path></g><g transform="translate(0,0)"><path class="background" aria-hidden="true" d="M0,0h290v300h-290Z"></path><g><g class="mark-line role-mark marks" role="graphics-object" aria-roledescription="line mark container"><path aria-label="date: 2018; prices: 6.2k; region: Wales; Date: Jan 01, 2018; Region: Wales; Prices: 6,163; Total prices (UK): 116,458" role="graphics-symbol" aria-roledescription="line mark" d="M0,197.283L5.276,191.8L10.041,190.017L15.317,187.867L20.423,187.417L25.698,188.333L30.804,190.65L36.08,191.25L41.356,191.433L46.461,191.967L51.737,192.217L56.843,191.433L62.119,189.933L67.394,189.733L72.16,186.6L77.435,187.05L82.541,186.633L87.817,186.183L92.923,186.65L98.198,187.717L103.474,187.367L108.58,188.1L113.856,188.85L118.961,188.767L124.237,187.9L129.513,187.517L134.448,195.567L139.724,225.117L144.83,220.833L150.106,214.283L155.211,210.183L160.487,196.367L165.763,195.367L170.869,213.117L176.144,217.75L181.25,211.833L186.526,214.533L191.802,211.6L196.567,209.333L201.843,208.75L206.948,211.717L212.224,197.333L217.33,190.967L222.606,190.117L227.881,190.783L232.987,191.283L238.263,190.117L243.369,190.883L248.644,190.9L253.92,192.467L258.685,189.117L263.961,186.65L269.067,186.217L274.343,184.35L279.448,186.1L284.724,188.15L290,188.317" stroke="#e41a1c" stroke-width="2" opacity="1"></path></g></g><path class="foreground" aria-hidden="true" d="" display="none"></path></g><g transform="translate(0,0)"><path class="background" aria-hidden="true" d="M0,0h290v300h-290Z"></path><g><g class="mark-line role-mark marks" role="graphics-object" aria-roledescription="line mark container"><path aria-label="date: 2018; prices: 10k; region: South West; Date: Jan 01, 2018; Region: South West; Prices: 9,999; Total prices (UK): 116,458" role="graphics-symbol" aria-roledescription="line mark" d="M0,133.35L5.276,126.2L10.041,124.633L15.317,123.283L20.423,120.683L25.698,118.833L30.804,122.467L36.08,124.083L41.356,124.167L46.461,124.933L51.737,125.25L56.843,121.55L62.119,121.333L67.394,122.85L72.16,117.333L77.435,115.733L82.541,115.967L87.817,116.217L92.923,117.233L98.198,118.117L103.474,117.667L108.58,119.167L113.856,117.55L118.961,119.067L124.237,118.067L129.513,122.7L134.448,134.967L139.724,201.783L144.83,181.183L150.106,169.683L155.211,159.383L160.487,143.583L165.763,140.9L170.869,135.733L176.144,189.583L181.25,172.7L186.526,168.833L191.802,161.75L196.567,158.783L201.843,158.433L206.948,169.8L212.224,151.233L217.33,134.367L222.606,131.983L227.881,134.5L232.987,132.183L238.263,132.3L243.369,132.95L248.644,131.033L253.92,136.483L258.685,129.25L263.961,127.45L269.067,128.717L274.343,126.3L279.448,126.583L284.724,127.567L290,130.283" stroke="#999999" stroke-width="2" opacity="1"></path></g></g><path class="foreground" aria-hidden="true" d="" display="none"></path></g><g transform="translate(0,0)"><path class="background" aria-hidden="true" d="M0,0h290v300h-290Z"></path><g><g class="mark-line role-mark marks" role="graphics-object" aria-roledescription="line mark container"><path aria-label="date: 2018; prices: 9.1k; region: West Midlands; Date: Jan 01, 2018; Region: West Midlands; Prices: 9,125; Total prices (UK): 116,458" role="graphics-symbol" aria-roledescription="line mark" d="M0,147.917L5.276,138.233L10.041,134.5L15.317,134.083L20.423,132.583L25.698,134.4L30.804,136.95L36.08,135.133L41.356,135.767L46.461,135.367L51.737,136.933L56.843,134.633L62.119,132.917L67.394,136.817L72.16,132.6L77.435,130.467L82.541,131.467L87.817,130.45L92.923,130.383L98.198,131.483L103.474,131.733L108.58,131.617L113.856,130.167L118.961,130.367L124.237,130.667L129.513,131.883L134.448,141.65L139.724,199.317L144.83,181.467L150.106,172.117L155.211,164.467L160.487,147.95L165.763,148.267L170.869,140.683L176.144,189.95L181.25,174.05L186.526,169.983L191.802,164.867L196.567,160.35L201.843,158.883L206.948,168.317L212.224,157.883L217.33,136.2L222.606,134.15L227.881,134.883L232.987,135.067L238.263,136.7L243.369,135.067L248.644,134.3L253.92,137.833L258.685,134.133L263.961,132.1L269.067,131.367L274.343,130.5L279.448,129.733L284.724,133.183L290,131.867" stroke="#377eb8" stroke-width="2" opacity="1"></path></g></g><path class="foreground" aria-hidden="true" d="" display="none"></path></g><g transform="translate(0,0)"><path class="background" aria-hidden="true" d="M0,0h290v300h-290Z"></path><g><g class="mark-line role-mark marks" role="graphics-object" aria-roledescription="line mark container"><path aria-label="date: 2018; prices: 13k; region: London; Date: Jan 01, 2018; Region: London; Prices: 13,190; Total prices (UK): 116,458" role="graphics-symbol" aria-roledescription="line mark" d="M0,80.167L5.276,71.567L10.041,64.333L15.317,61.2L20.423,62.4L25.698,61.783L30.804,63.883L36.08,65.3L41.356,64.733L46.461,64.267L51.737,64.65L56.843,61L62.119,63.117L67.394,67.067L72.16,56.45L77.435,54.1L82.541,54.867L87.817,53.783L92.923,55.967L98.198,59.267L103.474,58.983L108.58,59.767L113.856,59.7L118.961,57.55L124.237,59.083L129.513,63.183L134.448,83.617L139.724,178.55L144.83,144.8L150.106,127.467L155.211,109.417L160.487,93.083L165.763,81.233L170.869,73.367L176.144,166.733L181.25,138.6L186.526,129.233L191.802,121.417L196.567,116.15L201.843,113.883L206.948,141.45L212.224,107.317L217.33,66.417L222.606,65.333L227.881,64.45L232.987,67.15L238.263,65.567L243.369,65.433L248.644,64.1L253.92,69.817L258.685,59.6L263.961,56.783L269.067,55.583L274.343,54.85L279.448,55.833L284.724,61.2L290,60.283" stroke="#4daf4a" stroke-width="2" opacity="1"></path></g></g><path class="foreground" aria-hidden="true" d="" display="none"></path></g><g transform="translate(0,0)"><path class="background" aria-hidden="true" d="M0,0h290v300h-290Z"></path><g><g class="mark-line role-mark marks" role="graphics-object" aria-roledescription="line mark container"><path aria-label="date: 2018; prices: 6.1k; region: North; Date: Jan 01, 2018; Region: North; Prices: 6,126; Total prices (UK): 116,458" role="graphics-symbol" aria-roledescription="line mark" d="M0,197.9L5.276,192.25L10.041,189.867L15.317,190.467L20.423,189.117L25.698,189.083L30.804,191.05L36.08,191.083L41.356,191.95L46.461,192.35L51.737,192.833L56.843,191.483L62.119,191.133L67.394,191.35L72.16,187.367L77.435,187.683L82.541,187.55L87.817,187.4L92.923,187.4L98.198,188.833L103.474,188.667L108.58,188.45L113.856,188.8L118.961,188.667L124.237,187.633L129.513,188.083L134.448,194.8L139.724,225.333L144.83,219.117L150.106,210.65L155.211,205.6L160.487,200.9L165.763,197.367L170.869,211.3L176.144,218.333L181.25,209.2L186.526,210.167L191.802,207.683L196.567,205.017L201.843,202.467L206.948,204L212.224,197.7L217.33,190.85L222.606,190.233L227.881,189.733L232.987,190.2L238.263,190.05L243.369,191.083L248.644,190.267L253.92,190.633L258.685,189.717L263.961,187.717L269.067,187.75L274.343,185.483L279.448,185.817L284.724,188.067L290,187.2" stroke="#984ea3" stroke-width="2" opacity="1"></path></g></g><path class="foreground" aria-hidden="true" d="" display="none"></path></g><g transform="translate(0,0)"><path class="background" aria-hidden="true" d="M0,0h290v300h-290Z"></path><g><g class="mark-line role-mark marks" role="graphics-object" aria-roledescription="line mark container"><path aria-label="date: 2018; prices: 15k; region: South East; Date: Jan 01, 2018; Region: South East; Prices: 15,067; Total prices (UK): 116,458" role="graphics-symbol" aria-roledescription="line mark" d="M0,48.883L5.276,35.15L10.041,26.15L15.317,25L20.423,24.583L25.698,25.183L30.804,28.433L36.08,30.783L41.356,29.067L46.461,28.333L51.737,30.167L56.843,23.417L62.119,23.883L67.394,30.967L72.16,22.7L77.435,21.95L82.541,20.8L87.817,20.333L92.923,21.65L98.198,22.717L103.474,24.183L108.58,22.8L113.856,23.167L118.961,24.967L124.237,23.8L129.513,26.05L134.448,42.433L139.724,154.117L144.83,124.333L150.106,101.683L155.211,80.517L160.487,48.25L165.763,43.833L170.869,36.783L176.144,131.983L181.25,97.9L186.526,95.367L191.802,88.15L196.567,80.55L201.843,78.35L206.948,99.333L212.224,67.683L217.33,34.433L222.606,33.583L227.881,33.983L232.987,32.05L238.263,31.867L243.369,31.4L248.644,30.967L253.92,37.75L258.685,30.467L263.961,25.85L269.067,24.817L274.343,28.217L279.448,26.683L284.724,29.717L290,27.617" stroke="#f781bf" stroke-width="2" opacity="1"></path></g></g><path class="foreground" aria-hidden="true" d="" display="none"></path></g><g transform="translate(0,0)"><path class="background" aria-hidden="true" d="M0,0h290v300h-290Z"></path><g><g class="mark-line role-mark marks" role="graphics-object" aria-roledescription="line mark container"><path aria-label="date: 2018; prices: 5.0k; region: Northern Ireland; Date: Jan 01, 2018; Region: Northern Ireland; Prices: 4,986; Total prices (UK): 116,458" role="graphics-symbol" aria-roledescription="line mark" d="M0,216.9L5.276,211.817L10.041,211.183L15.317,211.45L20.423,210.783L25.698,211.4L30.804,214.4L36.08,214.733L41.356,214.733L46.461,214.35L51.737,214.933L56.843,213.367L62.119,212.983L67.394,213.933L72.16,211.133L77.435,211.633L82.541,211.5L87.817,211.017L92.923,211.65L98.198,212.067L103.474,211.767L108.58,212.083L113.856,210.6L118.961,211.5L124.237,211.317L129.513,209.9L134.448,214.433L139.724,241.767L144.83,239.117L150.106,231.717L155.211,229.233L160.487,219.667L165.763,218.717L170.869,219.767L176.144,238.15L181.25,232.783L186.526,238.867L191.802,235.383L196.567,235.517L201.843,234.3L206.948,236.433L212.224,219.133L217.33,213.733L222.606,214.017L227.881,214.583L232.987,214.033L238.263,213.05L243.369,214.833L248.644,214.6L253.92,212.467L258.685,210.05L263.961,208.95L269.067,209.267L274.343,208.35L279.448,210.783L284.724,210.583L290,211" stroke="#ffff33" stroke-width="2" opacity="1"></path></g></g><path class="foreground" aria-hidden="true" d="" display="none"></path></g><g transform="translate(0,0)"><path class="background" aria-hidden="true" d="M0,0h290v300h-290Z"></path><g><g class="mark-line role-mark marks" role="graphics-object" aria-roledescription="line mark container"><path aria-label="date: 2018; prices: 10k; region: Scotland; Date: Jan 01, 2018; Region: Scotland; Prices: 9,983; Total prices (UK): 116,458" role="graphics-symbol" aria-roledescription="line mark" d="M0,133.617L5.276,124.95L10.041,123.2L15.317,118.9L20.423,117.133L25.698,117.45L30.804,121.667L36.08,123.517L41.356,121.683L46.461,122.667L51.737,124.133L56.843,120.55L62.119,121.967L67.394,123.183L72.16,116.517L77.435,114.65L82.541,113.1L87.817,114.167L92.923,114.283L98.198,116.417L103.474,115.067L108.58,115.183L113.856,115.45L118.961,114.083L124.237,114.9L129.513,116.2L134.448,124.133L139.724,194.333L144.83,180.7L150.106,172.867L155.211,160.333L160.487,145.183L165.763,133.467L170.869,138.283L176.144,179.1L181.25,164.883L186.526,168.983L191.802,162.283L196.567,159.383L201.843,158.883L206.948,170.583L212.224,143.133L217.33,133L222.606,128.767L227.881,129.8L232.987,128.817L238.263,126.917L243.369,129.45L248.644,126.517L253.92,126.7L258.685,123.133L263.961,121.567L269.067,120.25L274.343,118.933L279.448,118.6L284.724,120.983L290,121" stroke="#a65628" stroke-width="2" opacity="1"></path></g></g><path class="foreground" aria-hidden="true" d="" display="none"></path></g><g transform="translate(0,0)"><path class="background" aria-hidden="true" d="M0,0h290v300h-290Z"></path><g><g class="mark-line role-mark marks" role="graphics-object" aria-roledescription="line mark container"><path aria-label="date: 2018; prices: 11k; region: East Anglia; Date: Jan 01, 2018; Region: East Anglia; Prices: 10,600; Total prices (UK): 116,458" role="graphics-symbol" aria-roledescription="line mark" d="M0,123.333L5.276,113.367L10.041,109.7L15.317,107.233L20.423,107.767L25.698,107.9L30.804,111.9L36.08,111.967L41.356,111.283L46.461,114.583L51.737,114.483L56.843,111.167L62.119,112.033L67.394,115.133L72.16,110.25L77.435,107.067L82.541,106.883L87.817,107.033L92.923,111.367L98.198,112.567L103.474,110.367L108.58,110.367L113.856,109.383L118.961,109.45L124.237,110.733L129.513,112.733L134.448,126.6L139.724,188.683L144.83,171.583L150.106,156.817L155.211,141.533L160.487,129.783L165.763,125.667L170.869,120.383L176.144,172.567L181.25,145.967L186.526,158.667L191.802,154.283L196.567,148.067L201.843,145.9L206.948,148.733L212.224,130.533L217.33,116.367L222.606,113.85L227.881,115.717L232.987,113.5L238.263,112.667L243.369,113.583L248.644,111.85L253.92,115.25L258.685,107.567L263.961,106.483L269.067,106.9L274.343,107.583L279.448,110.233L284.724,112.117L290,110.833" stroke="#e41a1c" stroke-width="2" opacity="1"></path></g></g><path class="foreground" aria-hidden="true" d="" display="none"></path></g><g transform="translate(0,0)"><path class="background" aria-hidden="true" d="M0,0h290v300h-290Z"></path><g><g class="mark-line role-mark marks" role="graphics-object" aria-roledescription="line mark container"><path aria-label="date: 2018; prices: 9.9k; region: Yorkshire &amp; Humber; Date: Jan 01, 2018; Region: Yorkshire &amp; Humber; Prices: 9,881; Total prices (UK): 116,458" role="graphics-symbol" aria-roledescription="line mark" d="M0,135.317L5.276,126.183L10.041,121.9L15.317,121.5L20.423,121.6L25.698,123.017L30.804,125.1L36.08,123.933L41.356,124.417L46.461,124.783L51.737,125.1L56.843,123.317L62.119,121.733L67.394,124.867L72.16,119.067L77.435,117.55L82.541,117.55L87.817,117.35L92.923,117.033L98.198,119.8L103.474,119.917L108.58,122.3L113.856,119.933L118.961,120.083L124.237,120.85L129.513,122.5L134.448,129.483L139.724,196.25L144.83,182.45L150.106,170.5L155.211,157.15L160.487,138.333L165.763,137.95L170.869,132.333L176.144,186.467L181.25,170.6L186.526,171.233L191.802,167.583L196.567,162.25L201.843,160.15L206.948,168.1L212.224,146.2L217.33,127.85L222.606,125.233L227.881,128.317L232.987,126.7L238.263,126.283L243.369,125.217L248.644,124.667L253.92,126.983L258.685,122.65L263.961,120.067L269.067,121.783L274.343,120.95L279.448,121.783L284.724,125.2L290,125.633" stroke="#4daf4a" stroke-width="2" opacity="1"></path></g></g><path class="foreground" aria-hidden="true" d="" display="none"></path></g><g transform="translate(0,0)"><path class="background" aria-hidden="true" d="M0,0h290v300h-290Z"></path><g><g class="mark-line role-mark marks" role="graphics-object" aria-roledescription="line mark container"><path aria-label="date: 2018; prices: 12k; region: North West; Date: Jan 01, 2018; Region: North West; Prices: 12,196; Total prices (UK): 116,458" role="graphics-symbol" aria-roledescription="line mark" d="M0,96.733L5.276,87.417L10.041,83L15.317,81.65L20.423,76.95L25.698,77.517L30.804,81.217L36.08,81.233L41.356,81.85L46.461,78.567L51.737,85.8L56.843,82.717L62.119,81.617L67.394,80.867L72.16,76.833L77.435,72.117L82.541,74.567L87.817,71.583L92.923,70.55L98.198,72.867L103.474,73.183L108.58,72.617L113.856,72.833L118.961,73.633L124.237,74.5L129.513,76.7L134.448,89.433L139.724,164.067L144.83,146.8L150.106,130.367L155.211,113.133L160.487,101.667L165.763,99.2L170.869,92.9L176.144,149.183L181.25,131.567L186.526,132.15L191.802,125.9L196.567,118.783L201.843,117.783L206.948,126.567L212.224,106.417L217.33,83.867L222.606,79.217L227.881,82.8L232.987,80.733L238.263,81.2L243.369,82.133L248.644,83.617L253.92,84.6L258.685,76.5L263.961,75.667L269.067,75.717L274.343,76.8L279.448,78L284.724,80.2L290,78.583" stroke="#ff7f00" stroke-width="2" opacity="1"></path></g></g><path class="foreground" aria-hidden="true" d="" display="none"></path></g></g><g class="mark-group role-legend" role="graphics-symbol" aria-roledescription="legend" aria-label="Symbol legend for stroke color with 12 values: East Anglia, East Midlands, London, North, North West, ending with Yorkshire &amp; Humber"><g transform="translate(0,335)"><path class="background" aria-hidden="true" d="M0,0h213v76h-213Z" pointer-events="none"></path><g><g class="mark-group role-legend-entry"><g transform="translate(0,0)"><path class="background" aria-hidden="true" d="M0,0h0v0h0Z" pointer-events="none"></path><g><g class="mark-group role-scope region_legend_entries" role="graphics-object" aria-roledescription="group mark container"><g transform="translate(0,0)"><path class="background" aria-hidden="true" d="M0,0h87.1083984375v11h-87.1083984375Z" fill="transparent" opacity="1"></path><g><g class="mark-symbol role-legend-symbol region_legend_symbols"><path transform="translate(6,6)" d="M-5,0L5,0" fill="transparent" stroke="#e41a1c" stroke-width="1.5" opacity="1"></path></g><g class="mark-text role-legend-label region_legend_labels"><text text-anchor="start" transform="translate(16,9)" font-family="sans-serif" font-size="10px" fill="#000" opacity="1">East Anglia</text></g></g><path class="foreground" aria-hidden="true" d="" display="none"></path></g><g transform="translate(99,0)"><path class="background" aria-hidden="true" d="M0,0h113.2705078125v11h-113.2705078125Z" fill="transparent" opacity="1"></path><g><g class="mark-symbol role-legend-symbol region_legend_symbols"><path transform="translate(6,6)" d="M-5,0L5,0" fill="transparent" stroke="#377eb8" stroke-width="1.5" opacity="1"></path></g><g class="mark-text role-legend-label region_legend_labels"><text text-anchor="start" transform="translate(16,9)" font-family="sans-serif" font-size="10px" fill="#000" opacity="1">East Midlands</text></g></g><path class="foreground" aria-hidden="true" d="" display="none"></path></g><g transform="translate(0,13)"><path class="background" aria-hidden="true" d="M0,0h87.1083984375v11h-87.1083984375Z" fill="transparent" opacity="1"></path><g><g class="mark-symbol role-legend-symbol region_legend_symbols"><path transform="translate(6,6)" d="M-5,0L5,0" fill="transparent" stroke="#4daf4a" stroke-width="1.5" opacity="1"></path></g><g class="mark-text role-legend-label region_legend_labels"><text text-anchor="start" transform="translate(16,9)" font-family="sans-serif" font-size="10px" fill="#000" opacity="1">London</text></g></g><path class="foreground" aria-hidden="true" d="" display="none"></path></g><g transform="translate(99,13)"><path class="background" aria-hidden="true" d="M0,0h113.2705078125v11h-113.2705078125Z" fill="transparent" opacity="1"></path><g><g class="mark-symbol role-legend-symbol region_legend_symbols"><path transform="translate(6,6)" d="M-5,0L5,0" fill="transparent" stroke="#984ea3" stroke-width="1.5" opacity="1"></path></g><g class="mark-text role-legend-label region_legend_labels"><text text-anchor="start" transform="translate(16,9)" font-family="sans-serif" font-size="10px" fill="#000" opacity="1">North</text></g></g><path class="foreground" aria-hidden="true" d="" display="none"></path></g><g transform="translate(0,26)"><path class="background" aria-hidden="true" d="M0,0h87.1083984375v11h-87.1083984375Z" fill="transparent" opacity="1"></path><g><g class="mark-symbol role-legend-symbol region_legend_symbols"><path transform="translate(6,6)" d="M-5,0L5,0" fill="transparent" stroke="#ff7f00" stroke-width="1.5" opacity="1"></path></g><g class="mark-text role-legend-label region_legend_labels"><text text-anchor="start" transform="translate(16,9)" font-family="sans-serif" font-size="10px" fill="#000" opacity="1">North West</text></g></g><path class="foreground" aria-hidden="true" d="" display="none"></path></g><g transform="translate(99,26)"><path class="background" aria-hidden="true" d="M0,0h113.2705078125v11h-113.2705078125Z" fill="transparent" opacity="1"></path><g><g class="mark-symbol role-legend-symbol region_legend_symbols"><path transform="translate(6,6)" d="M-5,0L5,0" fill="transparent" stroke="#ffff33" stroke-width="1.5" opacity="1"></path></g><g class="mark-text role-legend-label region_legend_labels"><text text-anchor="start" transform="translate(16,9)" font-family="sans-serif" font-size="10px" fill="#000" opacity="1">Northern Ireland</text></g></g><path class="foreground" aria-hidden="true" d="" display="none"></path></g><g transform="translate(0,39)"><path class="background" aria-hidden="true" d="M0,0h87.1083984375v11h-87.1083984375Z" fill="transparent" opacity="1"></path><g><g class="mark-symbol role-legend-symbol region_legend_symbols"><path transform="translate(6,6)" d="M-5,0L5,0" fill="transparent" stroke="#a65628" stroke-width="1.5" opacity="1"></path></g><g class="mark-text role-legend-label region_legend_labels"><text text-anchor="start" transform="translate(16,9)" font-family="sans-serif" font-size="10px" fill="#000" opacity="1">Scotland</text></g></g><path class="foreground" aria-hidden="true" d="" display="none"></path></g><g transform="translate(99,39)"><path class="background" aria-hidden="true" d="M0,0h113.2705078125v11h-113.2705078125Z" fill="transparent" opacity="1"></path><g><g class="mark-symbol role-legend-symbol region_legend_symbols"><path transform="translate(6,6)" d="M-5,0L5,0" fill="transparent" stroke="#f781bf" stroke-width="1.5" opacity="1"></path></g><g class="mark-text role-legend-label region_legend_labels"><text text-anchor="start" transform="translate(16,9)" font-family="sans-serif" font-size="10px" fill="#000" opacity="1">South East</text></g></g><path class="foreground" aria-hidden="true" d="" display="none"></path></g><g transform="translate(0,52)"><path class="background" aria-hidden="true" d="M0,0h87.1083984375v11h-87.1083984375Z" fill="transparent" opacity="1"></path><g><g class="mark-symbol role-legend-symbol region_legend_symbols"><path transform="translate(6,6)" d="M-5,0L5,0" fill="transparent" stroke="#999999" stroke-width="1.5" opacity="1"></path></g><g class="mark-text role-legend-label region_legend_labels"><text text-anchor="start" transform="translate(16,9)" font-family="sans-serif" font-size="10px" fill="#000" opacity="1">South West</text></g></g><path class="foreground" aria-hidden="true" d="" display="none"></path></g><g transform="translate(99,52)"><path class="background" aria-hidden="true" d="M0,0h113.2705078125v11h-113.2705078125Z" fill="transparent" opacity="1"></path><g><g class="mark-symbol role-legend-symbol region_legend_symbols"><path transform="translate(6,6)" d="M-5,0L5,0" fill="transparent" stroke="#e41a1c" stroke-width="1.5" opacity="1"></path></g><g class="mark-text role-legend-label region_legend_labels"><text text-anchor="start" transform="translate(16,9)" font-family="sans-serif" font-size="10px" fill="#000" opacity="1">Wales</text></g></g><path class="foreground" aria-hidden="true" d="" display="none"></path></g><g transform="translate(0,65)"><path class="background" aria-hidden="true" d="M0,0h87.1083984375v11h-87.1083984375Z" fill="transparent" opacity="1"></path><g><g class="mark-symbol role-legend-symbol region_legend_symbols"><path transform="translate(6,6)" d="M-5,0L5,0" fill="transparent" stroke="#377eb8" stroke-width="1.5" opacity="1"></path></g><g class="mark-text role-legend-label region_legend_labels"><text text-anchor="start" transform="translate(16,9)" font-family="sans-serif" font-size="10px" fill="#000" opacity="1">West Midlands</text></g></g><path class="foreground" aria-hidden="true" d="" display="none"></path></g><g transform="translate(99,65)"><path class="background" aria-hidden="true" d="M0,0h113.2705078125v11h-113.2705078125Z" fill="transparent" opacity="1"></path><g><g class="mark-symbol role-legend-symbol region_legend_symbols"><path transform="translate(6,6)" d="M-5,0L5,0" fill="transparent" stroke="#4daf4a" stroke-width="1.5" opacity="1"></path></g><g class="mark-text role-legend-label region_legend_labels"><text text-anchor="start" transform="translate(16,9)" font-family="sans-serif" font-size="10px" fill="#000" opacity="1">Yorkshire &amp; Humber</text></g></g><path class="foreground" aria-hidden="true" d="" display="none"></path></g></g></g><path class="foreground" aria-hidden="true" d="" pointer-events="none" display="none"></path></g></g></g><path class="foreground" aria-hidden="true" d="" pointer-events="none" display="none"></path></g></g><g class="mark-group role-title"><g transform="translate(-26.580078125,-35)"><path class="background" aria-hidden="true" d="M0,0h0v0h0Z" pointer-events="none"></path><g><g class="mark-text role-title-text" role="graphics-symbol" aria-roledescription="title" aria-label="Title text 'Covid-19 and price collection - regional impact'" pointer-events="none"><text text-anchor="start" transform="translate(0,10)" font-family="sans-serif" font-size="13px" font-weight="bold" fill="black" opacity="1">Covid-19 and price collection - regional impact</text></g><g class="mark-text role-title-subtitle" role="graphics-symbol" aria-roledescription="subtitle" aria-label="Subtitle text 'Number of useable prices in the LRPD.'" pointer-events="none"><text text-anchor="start" transform="translate(0,24)" font-family="sans-serif" font-size="10px" font-style="italic" fill="#000" opacity="1">Number of useable prices in the LRPD.</text></g></g><path class="foreground" aria-hidden="true" d="" pointer-events="none" display="none"></path></g></g></g><path class="foreground" aria-hidden="true" d="" display="none"></path></g></g></g></svg>