<svg xmlns="http://www.w3.org/2000/svg" xmlns:xlink="http://www.w3.org/1999/xlink" version="1.1" class="marks" width="858" height="733" viewBox="0 0 858 733" style="background-color: white;"><g fill="none" stroke-miterlimit="10" transform="translate(53,10)"><g class="mark-group role-frame root" role="graphics-object" aria-roledescription="group mark container"><g transform="translate(0,0)"><path class="background" aria-hidden="true" d="M0.5,0.5h800v600h-800Z" fill="transparent" stroke="#ddd"></path><g><g class="mark-group role-axis" aria-hidden="true"><g transform="translate(0.5,0.5)"><path class="background" aria-hidden="true" d="M0,0h0v0h0Z" pointer-events="none"></path><g><g class="mark-rule role-axis-grid" pointer-events="none"><line transform="translate(0,600)" x2="800" y2="0" stroke="#ddd" stroke-width="1" opacity="1"></line><line transform="translate(0,570)" x2="800" y2="0" stroke="#ddd" stroke-width="1" opacity="1"></line><line transform="translate(0,540)" x2="800" y2="0" stroke="#ddd" stroke-width="1" opacity="1"></line><line transform="translate(0,510)" x2="800" y2="0" stroke="#ddd" stroke-width="1" opacity="1"></line><line transform="translate(0,480)" x2="800" y2="0" stroke="#ddd" stroke-width="1" opacity="1"></line><line transform="translate(0,450)" x2="800" y2="0" stroke="#ddd" stroke-width="1" opacity="1"></line><line transform="translate(0,420)" x2="800" y2="0" stroke="#ddd" stroke-width="1" opacity="1"></line><line transform="translate(0,390)" x2="800" y2="0" stroke="#ddd" stroke-width="1" opacity="1"></line><line transform="translate(0,360)" x2="800" y2="0" stroke="#ddd" stroke-width="1" opacity="1"></line><line transform="translate(0,330)" x2="800" y2="0" stroke="#ddd" stroke-width="1" opacity="1"></line><line transform="translate(0,300)" x2="800" y2="0" stroke="#ddd" stroke-width="1" opacity="1"></line><line transform="translate(0,270)" x2="800" y2="0" stroke="#ddd" stroke-width="1" opacity="1"></line><line transform="translate(0,240)" x2="800" y2="0" stroke="#ddd" stroke-width="1" opacity="1"></line><line transform="translate(0,210)" x2="800" y2="0" stroke="#ddd" stroke-width="1" opacity="1"></line><line transform="translate(0,180)" x2="800" y2="0" stroke="#ddd" stroke-width="1" opacity="1"></line><line transform="translate(0,150)" x2="800" y2="0" stroke="#ddd" stroke-width="1" opacity="1"></line><line transform="translate(0,120)" x2="800" y2="0" stroke="#ddd" stroke-width="1" opacity="1"></line><line transform="translate(0,90)" x2="800" y2="0" stroke="#ddd" stroke-width="1" opacity="1"></line><line transform="translate(0,60)" x2="800" y2="0" stroke="#ddd" stroke-width="1" opacity="1"></line><line transform="translate(0,30)" x2="800" y2="0" stroke="#ddd" stroke-width="1" opacity="1"></line><line transform="translate(0,0)" x2="800" y2="0" stroke="#ddd" stroke-width="1" opacity="1"></line></g></g><path class="foreground" aria-hidden="true" d="" pointer-events="none" display="none"></path></g></g><g class="mark-group role-axis" role="graphics-symbol" aria-roledescription="axis" aria-label="X-axis titled 'State' for a discrete scale with 49 values: Alabama, Arizona, Arkansas, California, Colorado, ending with Wyoming"><g transform="translate(0.5,600.5)"><path class="background" aria-hidden="true" d="M0,0h0v0h0Z" pointer-events="none"></path><g><g class="mark-rule role-axis-tick" pointer-events="none"><line transform="translate(8,0)" x2="0" y2="5" stroke="#888" stroke-width="1" opacity="1"></line><line transform="translate(24,0)" x2="0" y2="5" stroke="#888" stroke-width="1" opacity="1"></line><line transform="translate(40,0)" x2="0" y2="5" stroke="#888" stroke-width="1" opacity="1"></line><line transform="translate(57,0)" x2="0" y2="5" stroke="#888" stroke-width="1" opacity="1"></line><line transform="translate(73,0)" x2="0" y2="5" stroke="#888" stroke-width="1" opacity="1"></line><line transform="translate(89,0)" x2="0" y2="5" stroke="#888" stroke-width="1" opacity="1"></line><line transform="translate(106,0)" x2="0" y2="5" stroke="#888" stroke-width="1" opacity="1"></line><line transform="translate(122,0)" x2="0" y2="5" stroke="#888" stroke-width="1" opacity="1"></line><line transform="translate(138,0)" x2="0" y2="5" stroke="#888" stroke-width="1" opacity="1"></line><line transform="translate(155,0)" x2="0" y2="5" stroke="#888" stroke-width="1" opacity="1"></line><line transform="translate(171,0)" x2="0" y2="5" stroke="#888" stroke-width="1" opacity="1"></line><line transform="translate(187,0)" x2="0" y2="5" stroke="#888" stroke-width="1" opacity="1"></line><line transform="translate(204,0)" x2="0" y2="5" stroke="#888" stroke-width="1" opacity="1"></line><line transform="translate(220,0)" x2="0" y2="5" stroke="#888" stroke-width="1" opacity="1"></line><line transform="translate(236,0)" x2="0" y2="5" stroke="#888" stroke-width="1" opacity="1"></line><line transform="translate(253,0)" x2="0" y2="5" stroke="#888" stroke-width="1" opacity="1"></line><line transform="translate(269,0)" x2="0" y2="5" stroke="#888" stroke-width="1" opacity="1"></line><line transform="translate(285,0)" x2="0" y2="5" stroke="#888" stroke-width="1" opacity="1"></line><line transform="translate(302,0)" x2="0" y2="5" stroke="#888" stroke-width="1" opacity="1"></line><line transform="translate(318,0)" x2="0" y2="5" stroke="#888" stroke-width="1" opacity="1"></line><line transform="translate(334,0)" x2="0" y2="5" stroke="#888" stroke-width="1" opacity="1"></line><line transform="translate(351,0)" x2="0" y2="5" stroke="#888" stroke-width="1" opacity="1"></line><line transform="translate(367,0)" x2="0" y2="5" stroke="#888" stroke-width="1" opacity="1"></line><line transform="translate(383,0)" x2="0" y2="5" stroke="#888" stroke-width="1" opacity="1"></line><line transform="translate(400,0)" x2="0" y2="5" stroke="#888" stroke-width="1" opacity="1"></line><line transform="translate(416,0)" x2="0" y2="5" stroke="#888" stroke-width="1" opacity="1"></line><line transform="translate(432,0)" x2="0" y2="5" stroke="#888" stroke-width="1" opacity="1"></line><line transform="translate(448,0)" x2="0" y2="5" stroke="#888" stroke-width="1" opacity="1"></line><line transform="translate(465,0)" x2="0" y2="5" stroke="#888" stroke-width="1" opacity="1"></line><line transform="translate(481,0)" x2="0" y2="5" stroke="#888" stroke-width="1" opacity="1"></line><line transform="translate(497,0)" x2="0" y2="5" stroke="#888" stroke-width="1" opacity="1"></line><line transform="translate(514,0)" x2="0" y2="5" stroke="#888" stroke-width="1" opacity="1"></line><line transform="translate(530,0)" x2="0" y2="5" stroke="#888" stroke-width="1" opacity="1"></line><line transform="translate(546,0)" x2="0" y2="5" stroke="#888" stroke-width="1" opacity="1"></line><line transform="translate(563,0)" x2="0" y2="5" stroke="#888" stroke-width="1" opacity="1"></line><line transform="translate(579,0)" x2="0" y2="5" stroke="#888" stroke-width="1" opacity="1"></line><line transform="translate(595,0)" x2="0" y2="5" stroke="#888" stroke-width="1" opacity="1"></line><line transform="translate(612,0)" x2="0" y2="5" stroke="#888" stroke-width="1" opacity="1"></line><line transform="translate(628,0)" x2="0" y2="5" stroke="#888" stroke-width="1" opacity="1"></line><line transform="translate(644,0)" x2="0" y2="5" stroke="#888" stroke-width="1" opacity="1"></line><line transform="translate(661,0)" x2="0" y2="5" stroke="#888" stroke-width="1" opacity="1"></line><line transform="translate(677,0)" x2="0" y2="5" stroke="#888" stroke-width="1" opacity="1"></line><line transform="translate(693,0)" x2="0" y2="5" stroke="#888" stroke-width="1" opacity="1"></line><line transform="translate(710,0)" x2="0" y2="5" stroke="#888" stroke-width="1" opacity="1"></line><line transform="translate(726,0)" x2="0" y2="5" stroke="#888" stroke-width="1" opacity="1"></line><line transform="translate(742,0)" x2="0" y2="5" stroke="#888" stroke-width="1" opacity="1"></line><line transform="translate(759,0)" x2="0" y2="5" stroke="#888" stroke-width="1" opacity="1"></line><line transform="translate(775,0)" x2="0" y2="5" stroke="#888" stroke-width="1" opacity="1"></line><line transform="translate(791,0)" x2="0" y2="5" stroke="#888" stroke-width="1" opacity="1"></line></g><g class="mark-text role-axis-label" pointer-events="none"><text text-anchor="end" transform="translate(7.663265306122433,7) rotate(270) translate(0,3)" font-family="sans-serif" font-size="10px" fill="#000" opacity="1">Alabama</text><text text-anchor="end" transform="translate(23.98979591836733,7) rotate(270) translate(0,3)" font-family="sans-serif" font-size="10px" fill="#000" opacity="1">Arizona</text><text text-anchor="end" transform="translate(40.31632653061223,7) rotate(270) translate(0,3)" font-family="sans-serif" font-size="10px" fill="#000" opacity="1">Arkansas</text><text text-anchor="end" transform="translate(56.64285714285713,7) rotate(270) translate(0,3)" font-family="sans-serif" font-size="10px" fill="#000" opacity="1">California</text><text text-anchor="end" transform="translate(72.96938775510203,7) rotate(270) translate(0,3)" font-family="sans-serif" font-size="10px" fill="#000" opacity="1">Colorado</text><text text-anchor="end" transform="translate(89.29591836734693,7) rotate(270) translate(0,3)" font-family="sans-serif" font-size="10px" fill="#000" opacity="1">Connecticut</text><text text-anchor="end" transform="translate(105.62244897959184,7) rotate(270) translate(0,3)" font-family="sans-serif" font-size="10px" fill="#000" opacity="1">Delaware</text><text text-anchor="end" transform="translate(121.94897959183673,7) rotate(270) translate(0,3)" font-family="sans-serif" font-size="10px" fill="#000" opacity="1">District of Columbia</text><text text-anchor="end" transform="translate(138.27551020408163,7) rotate(270) translate(0,3)" font-family="sans-serif" font-size="10px" fill="#000" opacity="1">Florida</text><text text-anchor="end" transform="translate(154.60204081632654,7) rotate(270) translate(0,3)" font-family="sans-serif" font-size="10px" fill="#000" opacity="1">Georgia</text><text text-anchor="end" transform="translate(170.92857142857142,7) rotate(270) translate(0,3)" font-family="sans-serif" font-size="10px" fill="#000" opacity="1">Idaho</text><text text-anchor="end" transform="translate(187.25510204081633,7) rotate(270) translate(0,3)" font-family="sans-serif" font-size="10px" fill="#000" opacity="1">Illinois</text><text text-anchor="end" transform="translate(203.58163265306123,7) rotate(270) translate(0,3)" font-family="sans-serif" font-size="10px" fill="#000" opacity="1">Indiana</text><text text-anchor="end" transform="translate(219.90816326530611,7) rotate(270) translate(0,3)" font-family="sans-serif" font-size="10px" fill="#000" opacity="1">Iowa</text><text text-anchor="end" transform="translate(236.23469387755102,7) rotate(270) translate(0,3)" font-family="sans-serif" font-size="10px" fill="#000" opacity="1">Kansas</text><text text-anchor="end" transform="translate(252.5612244897959,7) rotate(270) translate(0,3)" font-family="sans-serif" font-size="10px" fill="#000" opacity="1">Kentucky</text><text text-anchor="end" transform="translate(268.8877551020408,7) rotate(270) translate(0,3)" font-family="sans-serif" font-size="10px" fill="#000" opacity="1">Louisiana</text><text text-anchor="end" transform="translate(285.21428571428567,7) rotate(270) translate(0,3)" font-family="sans-serif" font-size="10px" fill="#000" opacity="1">Maine</text><text text-anchor="end" transform="translate(301.5408163265306,7) rotate(270) translate(0,3)" font-family="sans-serif" font-size="10px" fill="#000" opacity="1">Maryland</text><text text-anchor="end" transform="translate(317.8673469387755,7) rotate(270) translate(0,3)" font-family="sans-serif" font-size="10px" fill="#000" opacity="1">Massachusetts</text><text text-anchor="end" transform="translate(334.19387755102036,7) rotate(270) translate(0,3)" font-family="sans-serif" font-size="10px" fill="#000" opacity="1">Michigan</text><text text-anchor="end" transform="translate(350.5204081632653,7) rotate(270) translate(0,3)" font-family="sans-serif" font-size="10px" fill="#000" opacity="1">Minnesota</text><text text-anchor="end" transform="translate(366.8469387755102,7) rotate(270) translate(0,3)" font-family="sans-serif" font-size="10px" fill="#000" opacity="1">Mississippi</text><text text-anchor="end" transform="translate(383.17346938775506,7) rotate(270) translate(0,3)" font-family="sans-serif" font-size="10px" fill="#000" opacity="1">Missouri</text><text text-anchor="end" transform="translate(399.5,7) rotate(270) translate(0,3)" font-family="sans-serif" font-size="10px" fill="#000" opacity="1">Montana</text><text text-anchor="end" transform="translate(415.8265306122449,7) rotate(270) translate(0,3)" font-family="sans-serif" font-size="10px" fill="#000" opacity="1">Nebraska</text><text text-anchor="end" transform="translate(432.15306122448976,7) rotate(270) translate(0,3)" font-family="sans-serif" font-size="10px" fill="#000" opacity="1">Nevada</text><text text-anchor="end" transform="translate(448.47959183673464,7) rotate(270) translate(0,3)" font-family="sans-serif" font-size="10px" fill="#000" opacity="1">New Hampshire</text><text text-anchor="end" transform="translate(464.8061224489796,7) rotate(270) translate(0,3)" font-family="sans-serif" font-size="10px" fill="#000" opacity="1">New Jersey</text><text text-anchor="end" transform="translate(481.13265306122446,7) rotate(270) translate(0,3)" font-family="sans-serif" font-size="10px" fill="#000" opacity="1">New Mexico</text><text text-anchor="end" transform="translate(497.45918367346934,7) rotate(270) translate(0,3)" font-family="sans-serif" font-size="10px" fill="#000" opacity="1">New York</text><text text-anchor="end" transform="translate(513.7857142857143,7) rotate(270) translate(0,3)" font-family="sans-serif" font-size="10px" fill="#000" opacity="1">North Carolina</text><text text-anchor="end" transform="translate(530.1122448979592,7) rotate(270) translate(0,3)" font-family="sans-serif" font-size="10px" fill="#000" opacity="1">North Dakota</text><text text-anchor="end" transform="translate(546.4387755102042,7) rotate(270) translate(0,3)" font-family="sans-serif" font-size="10px" fill="#000" opacity="1">Ohio</text><text text-anchor="end" transform="translate(562.765306122449,7) rotate(270) translate(0,3)" font-family="sans-serif" font-size="10px" fill="#000" opacity="1">Oklahoma</text><text text-anchor="end" transform="translate(579.0918367346939,7) rotate(270) translate(0,3)" font-family="sans-serif" font-size="10px" fill="#000" opacity="1">Oregon</text><text text-anchor="end" transform="translate(595.4183673469389,7) rotate(270) translate(0,3)" font-family="sans-serif" font-size="10px" fill="#000" opacity="1">Pennsylvania</text><text text-anchor="end" transform="translate(611.7448979591837,7) rotate(270) translate(0,3)" font-family="sans-serif" font-size="10px" fill="#000" opacity="1">Rhode Island</text><text text-anchor="end" transform="translate(628.0714285714286,7) rotate(270) translate(0,3)" font-family="sans-serif" font-size="10px" fill="#000" opacity="1">South Carolina</text><text text-anchor="end" transform="translate(644.3979591836736,7) rotate(270) translate(0,3)" font-family="sans-serif" font-size="10px" fill="#000" opacity="1">South Dakota</text><text text-anchor="end" transform="translate(660.7244897959184,7) rotate(270) translate(0,3)" font-family="sans-serif" font-size="10px" fill="#000" opacity="1">Tennessee</text><text text-anchor="end" transform="translate(677.0510204081633,7) rotate(270) translate(0,3)" font-family="sans-serif" font-size="10px" fill="#000" opacity="1">Texas</text><text text-anchor="end" transform="translate(693.3775510204083,7) rotate(270) translate(0,3)" font-family="sans-serif" font-size="10px" fill="#000" opacity="1">Utah</text><text text-anchor="end" transform="translate(709.7040816326531,7) rotate(270) translate(0,3)" font-family="sans-serif" font-size="10px" fill="#000" opacity="1">Vermont</text><text text-anchor="end" transform="translate(726.030612244898,7) rotate(270) translate(0,3)" font-family="sans-serif" font-size="10px" fill="#000" opacity="1">Virginia</text><text text-anchor="end" transform="translate(742.357142857143,7) rotate(270) translate(0,3)" font-family="sans-serif" font-size="10px" fill="#000" opacity="1">Washington</text><text text-anchor="end" transform="translate(758.6836734693878,7) rotate(270) translate(0,3)" font-family="sans-serif" font-size="10px" fill="#000" opacity="1">West Virginia</text><text text-anchor="end" transform="translate(775.0102040816327,7) rotate(270) translate(0,3)" font-family="sans-serif" font-size="10px" fill="#000" opacity="1">Wisconsin</text><text text-anchor="end" transform="translate(791.3367346938777,7) rotate(270) translate(0,3)" font-family="sans-serif" font-size="10px" fill="#000" opacity="1">Wyoming</text></g><g class="mark-rule role-axis-domain" pointer-events="none"><line transform="translate(0,0)" x2="800" y2="0" stroke="#888" stroke-width="1" opacity="1"></line></g><g class="mark-text role-axis-title" pointer-events="none"><text text-anchor="middle" transform="translate(400,115.21484375000001)" font-family="sans-serif" font-size="11px" font-weight="bold" fill="#000" opacity="1">State</text></g></g><path class="foreground" aria-hidden="true" d="" pointer-events="none" display="none"></path></g></g><g class="mark-group role-axis" role="graphics-symbol" aria-roledescription="axis" aria-label="Y-axis titled 'Mean of Profit' for a linear scale with values from −100 to 300"><g transform="translate(0.5,0.5)"><path class="background" aria-hidden="true" d="M0,0h0v0h0Z" pointer-events="none"></path><g><g class="mark-rule role-axis-tick" pointer-events="none"><line transform="translate(0,600)" x2="-5" y2="0" stroke="#888" stroke-width="1" opacity="1"></line><line transform="translate(0,570)" x2="-5" y2="0" stroke="#888" stroke-width="1" opacity="1"></line><line transform="translate(0,540)" x2="-5" y2="0" stroke="#888" stroke-width="1" opacity="1"></line><line transform="translate(0,510)" x2="-5" y2="0" stroke="#888" stroke-width="1" opacity="1"></line><line transform="translate(0,480)" x2="-5" y2="0" stroke="#888" stroke-width="1" opacity="1"></line><line transform="translate(0,450)" x2="-5" y2="0" stroke="#888" stroke-width="1" opacity="1"></line><line transform="translate(0,420)" x2="-5" y2="0" stroke="#888" stroke-width="1" opacity="1"></line><line transform="translate(0,390)" x2="-5" y2="0" stroke="#888" stroke-width="1" opacity="1"></line><line transform="translate(0,360)" x2="-5" y2="0" stroke="#888" stroke-width="1" opacity="1"></line><line transform="translate(0,330)" x2="-5" y2="0" stroke="#888" stroke-width="1" opacity="1"></line><line transform="translate(0,300)" x2="-5" y2="0" stroke="#888" stroke-width="1" opacity="1"></line><line transform="translate(0,270)" x2="-5" y2="0" stroke="#888" stroke-width="1" opacity="1"></line><line transform="translate(0,240)" x2="-5" y2="0" stroke="#888" stroke-width="1" opacity="1"></line><line transform="translate(0,210)" x2="-5" y2="0" stroke="#888" stroke-width="1" opacity="1"></line><line transform="translate(0,180)" x2="-5" y2="0" stroke="#888" stroke-width="1" opacity="1"></line><line transform="translate(0,150)" x2="-5" y2="0" stroke="#888" stroke-width="1" opacity="1"></line><line transform="translate(0,120)" x2="-5" y2="0" stroke="#888" stroke-width="1" opacity="1"></line><line transform="translate(0,90)" x2="-5" y2="0" stroke="#888" stroke-width="1" opacity="1"></line><line transform="translate(0,60)" x2="-5" y2="0" stroke="#888" stroke-width="1" opacity="1"></line><line transform="translate(0,30)" x2="-5" y2="0" stroke="#888" stroke-width="1" opacity="1"></line><line transform="translate(0,0)" x2="-5" y2="0" stroke="#888" stroke-width="1" opacity="1"></line></g><g class="mark-text role-axis-label" pointer-events="none"><text text-anchor="end" transform="translate(-7,603)" font-family="sans-serif" font-size="10px" fill="#000" opacity="1">−100</text><text text-anchor="end" transform="translate(-7,573)" font-family="sans-serif" font-size="10px" fill="#000" opacity="1">−80</text><text text-anchor="end" transform="translate(-7,543)" font-family="sans-serif" font-size="10px" fill="#000" opacity="1">−60</text><text text-anchor="end" transform="translate(-7,513)" font-family="sans-serif" font-size="10px" fill="#000" opacity="1">−40</text><text text-anchor="end" transform="translate(-7,483)" font-family="sans-serif" font-size="10px" fill="#000" opacity="1">−20</text><text text-anchor="end" transform="translate(-7,453)" font-family="sans-serif" font-size="10px" fill="#000" opacity="1">0</text><text text-anchor="end" transform="translate(-7,423)" font-family="sans-serif" font-size="10px" fill="#000" opacity="1">20</text><text text-anchor="end" transform="translate(-7,393)" font-family="sans-serif" font-size="10px" fill="#000" opacity="1">40</text><text text-anchor="end" transform="translate(-7,363)" font-family="sans-serif" font-size="10px" fill="#000" opacity="1">60</text><text text-anchor="end" transform="translate(-7,333)" font-family="sans-serif" font-size="10px" fill="#000" opacity="1">80</text><text text-anchor="end" transform="translate(-7,303)" font-family="sans-serif" font-size="10px" fill="#000" opacity="1">100</text><text text-anchor="end" transform="translate(-7,273)" font-family="sans-serif" font-size="10px" fill="#000" opacity="1">120</text><text text-anchor="end" transform="translate(-7,243)" font-family="sans-serif" font-size="10px" fill="#000" opacity="1">140</text><text text-anchor="end" transform="translate(-7,213)" font-family="sans-serif" font-size="10px" fill="#000" opacity="1">160</text><text text-anchor="end" transform="translate(-7,183.00000000000003)" font-family="sans-serif" font-size="10px" fill="#000" opacity="1">180</text><text text-anchor="end" transform="translate(-7,153)" font-family="sans-serif" font-size="10px" fill="#000" opacity="1">200</text><text text-anchor="end" transform="translate(-7,122.99999999999997)" font-family="sans-serif" font-size="10px" fill="#000" opacity="1">220</text><text text-anchor="end" transform="translate(-7,93.00000000000001)" font-family="sans-serif" font-size="10px" fill="#000" opacity="1">240</text><text text-anchor="end" transform="translate(-7,62.999999999999986)" font-family="sans-serif" font-size="10px" fill="#000" opacity="1">260</text><text text-anchor="end" transform="translate(-7,33.00000000000003)" font-family="sans-serif" font-size="10px" fill="#000" opacity="1">280</text><text text-anchor="end" transform="translate(-7,3)" font-family="sans-serif" font-size="10px" fill="#000" opacity="1">300</text></g><g class="mark-rule role-axis-domain" pointer-events="none"><line transform="translate(0,600)" x2="0" y2="-600" stroke="#888" stroke-width="1" opacity="1"></line></g><g class="mark-text role-axis-title" pointer-events="none"><text text-anchor="middle" transform="translate(-36.009765625,300) rotate(-90) translate(0,-2)" font-family="sans-serif" font-size="11px" font-weight="bold" fill="#000" opacity="1">Mean of Profit</text></g></g><path class="foreground" aria-hidden="true" d="" pointer-events="none" display="none"></path></g></g><g class="mark-rect role-mark marks" role="graphics-object" aria-roledescription="rect mark container"><path aria-label="State: Indiana; Mean of Profit: 161.715" role="graphics-symbol" aria-roledescription="bar" d="M196.73469387755102,207.42719374999996h14.693877551020408v242.57280625000004h-14.693877551020408Z" fill="#4c78a8"></path><path aria-label="State: New York; Mean of Profit: 61.0298" role="graphics-symbol" aria-roledescription="bar" d="M490.61224489795916,358.45530982142856h14.693877551020408v91.54469017857144h-14.693877551020408Z" fill="#4c78a8"></path><path aria-label="State: California; Mean of Profit: 41.5241" role="graphics-symbol" aria-roledescription="bar" d="M49.79591836734693,387.7138246425568h14.693877551020408v62.2861753574432h-14.693877551020408Z" fill="#4c78a8"></path><path aria-label="State: Colorado; Mean of Profit: −51.5485" role="graphics-symbol" aria-roledescription="bar" d="M66.12244897959182,450h14.693877551020408v77.32275530973448h-14.693877551020408Z" fill="#4c78a8"></path><path aria-label="State: Michigan; Mean of Profit: 126.669" role="graphics-symbol" aria-roledescription="bar" d="M327.3469387755102,259.99694999999986h14.693877551020408v190.00305000000014h-14.693877551020408Z" fill="#4c78a8"></path><path aria-label="State: Washington; Mean of Profit: 63.6993" role="graphics-symbol" aria-roledescription="bar" d="M735.5102040816328,354.4510882789318h14.693877551020408v95.54891172106818h-14.693877551020408Z" fill="#4c78a8"></path><path aria-label="State: Kentucky; Mean of Profit: 81.7587" role="graphics-symbol" aria-roledescription="bar" d="M245.7142857142857,327.36197260273974h14.693877551020408v122.63802739726026h-14.693877551020408Z" fill="#4c78a8"></path><path aria-label="State: North Dakota; Mean of Profit: 32.8785" role="graphics-symbol" aria-roledescription="bar" d="M523.2653061224489,400.6822071428571h14.693877551020408v49.31779285714288h-14.693877551020408Z" fill="#4c78a8"></path><path aria-label="State: New Mexico; Mean of Profit: 32.7824" role="graphics-symbol" aria-roledescription="bar" d="M474.2857142857143,400.82640000000004h14.693877551020408v49.173599999999965h-14.693877551020408Z" fill="#4c78a8"></path><path aria-label="State: Texas; Mean of Profit: −24.9171" role="graphics-symbol" aria-roledescription="bar" d="M670.204081632653,450h14.693877551020408v37.37564548672566h-14.693877551020408Z" fill="#4c78a8"></path><path aria-label="State: Tennessee; Mean of Profit: −28.8966" role="graphics-symbol" aria-roledescription="bar" d="M653.8775510204082,450h14.693877551020408v43.34488249999998h-14.693877551020408Z" fill="#4c78a8"></path><path aria-label="State: Illinois; Mean of Profit: −32.6097" role="graphics-symbol" aria-roledescription="bar" d="M180.40816326530611,450h14.693877551020408v48.91461040955636h-14.693877551020408Z" fill="#4c78a8"></path><path aria-label="State: Ohio; Mean of Profit: −31.8752" role="graphics-symbol" aria-roledescription="bar" d="M539.591836734694,450h14.693877551020408v47.81274215017066h-14.693877551020408Z" fill="#4c78a8"></path><path aria-label="State: Iowa; Mean of Profit: 24.3311" role="graphics-symbol" aria-roledescription="bar" d="M213.0612244897959,413.50341875000004h14.693877551020408v36.49658124999996h-14.693877551020408Z" fill="#4c78a8"></path><path aria-label="State: Nebraska; Mean of Profit: 71.0184" role="graphics-symbol" aria-roledescription="bar" d="M408.9795918367347,343.47237000000007h14.693877551020408v106.52762999999993h-14.693877551020408Z" fill="#4c78a8"></path><path aria-label="State: Alabama; Mean of Profit: 95.3231" role="graphics-symbol" aria-roledescription="bar" d="M0.8163265306122298,307.0153928571428h14.693877551020408v142.98460714285721h-14.693877551020408Z" fill="#4c78a8"></path><path aria-label="State: New Jersey; Mean of Profit: 78.4032" role="graphics-symbol" aria-roledescription="bar" d="M457.9591836734694,332.39518695652174h14.693877551020408v117.60481304347826h-14.693877551020408Z" fill="#4c78a8"></path><path aria-label="State: Florida; Mean of Profit: −1.07428" role="graphics-symbol" aria-roledescription="bar" d="M131.42857142857142,450h14.693877551020408v1.6114139150943743h-14.693877551020408Z" fill="#4c78a8"></path><path aria-label="State: Louisiana; Mean of Profit: 68.4827" role="graphics-symbol" aria-roledescription="bar" d="M262.0408163265306,347.2758868421053h14.693877551020408v102.72411315789469h-14.693877551020408Z" fill="#4c78a8"></path><path aria-label="State: Massachusetts; Mean of Profit: 43.9502" role="graphics-symbol" aria-roledescription="bar" d="M311.0204081632653,384.07464999999996h14.693877551020408v65.92535000000004h-14.693877551020408Z" fill="#4c78a8"></path><path aria-label="State: Arizona; Mean of Profit: −24.4346" role="graphics-symbol" aria-roledescription="bar" d="M17.142857142857128,450h14.693877551020408v36.651902654867285h-14.693877551020408Z" fill="#4c78a8"></path><path aria-label="State: Idaho; Mean of Profit: 39.9463" role="graphics-symbol" aria-roledescription="bar" d="M164.0816326530612,390.0806125h14.693877551020408v59.91938750000003h-14.693877551020408Z" fill="#4c78a8"></path><path aria-label="State: Connecticut; Mean of Profit: 41.7681" role="graphics-symbol" aria-roledescription="bar" d="M82.44897959183672,387.3478526785714h14.693877551020408v62.65214732142857h-14.693877551020408Z" fill="#4c78a8"></path><path aria-label="State: Arkansas; Mean of Profit: 48.0512" role="graphics-symbol" aria-roledescription="bar" d="M33.46938775510203,377.923273076923h14.693877551020408v72.07672692307699h-14.693877551020408Z" fill="#4c78a8"></path><path aria-label="State: Missouri; Mean of Profit: 77.4822" role="graphics-symbol" aria-roledescription="bar" d="M376.3265306122449,333.77668874999995h14.693877551020408v116.22331125000005h-14.693877551020408Z" fill="#4c78a8"></path><path aria-label="State: Rhode Island; Mean of Profit: 156.318" role="graphics-symbol" aria-roledescription="bar" d="M604.8979591836735,215.5226208333334h14.693877551020408v234.4773791666666h-14.693877551020408Z" fill="#4c78a8"></path><path aria-label="State: Minnesota; Mean of Profit: 62.2684" role="graphics-symbol" aria-roledescription="bar" d="M343.6734693877551,356.59733804347826h14.693877551020408v93.40266195652174h-14.693877551020408Z" fill="#4c78a8"></path><path aria-label="State: South Carolina; Mean of Profit: 23.0916" role="graphics-symbol" aria-roledescription="bar" d="M621.2244897959183,415.3625289473684h14.693877551020408v34.63747105263161h-14.693877551020408Z" fill="#4c78a8"></path><path aria-label="State: Wisconsin; Mean of Profit: 68.2151" role="graphics-symbol" aria-roledescription="bar" d="M768.1632653061224,347.6774162337662h14.693877551020408v102.32258376623378h-14.693877551020408Z" fill="#4c78a8"></path><path aria-label="State: Pennsylvania; Mean of Profit: −27.7546" role="graphics-symbol" aria-roledescription="bar" d="M588.5714285714287,450h14.693877551020408v41.63192910447765h-14.693877551020408Z" fill="#4c78a8"></path><path aria-label="State: North Carolina; Mean of Profit: −30.3628" role="graphics-symbol" aria-roledescription="bar" d="M506.9387755102041,450h14.693877551020408v45.54426698113207h-14.693877551020408Z" fill="#4c78a8"></path><path aria-label="State: Virginia; Mean of Profit: 92.8605" role="graphics-symbol" aria-roledescription="bar" d="M719.1836734693877,310.7093134615384h14.693877551020408v139.2906865384616h-14.693877551020408Z" fill="#4c78a8"></path><path aria-label="State: Oklahoma; Mean of Profit: 70.0377" role="graphics-symbol" aria-roledescription="bar" d="M555.9183673469388,344.94346224489794h14.693877551020408v105.05653775510206h-14.693877551020408Z" fill="#4c78a8"></path><path aria-label="State: Nevada; Mean of Profit: 162.403" role="graphics-symbol" aria-roledescription="bar" d="M425.3061224489796,206.39573437500002h14.693877551020408v243.60426562499998h-14.693877551020408Z" fill="#4c78a8"></path><path aria-label="State: Mississippi; Mean of Profit: 69.5623" role="graphics-symbol" aria-roledescription="bar" d="M360,345.6565916666666h14.693877551020408v104.3434083333334h-14.693877551020408Z" fill="#4c78a8"></path><path aria-label="State: Vermont; Mean of Profit: 117.006" role="graphics-symbol" aria-roledescription="bar" d="M702.8571428571429,274.49145h14.693877551020408v175.50855h-14.693877551020408Z" fill="#4c78a8"></path><path aria-label="State: Delaware; Mean of Profit: 163.486" role="graphics-symbol" aria-roledescription="bar" d="M98.77551020408163,204.77055697674422h14.693877551020408v245.22944302325578h-14.693877551020408Z" fill="#4c78a8"></path><path aria-label="State: Maryland; Mean of Profit: 61.8121" role="graphics-symbol" aria-roledescription="bar" d="M294.6938775510204,357.2818427419355h14.693877551020408v92.71815725806448h-14.693877551020408Z" fill="#4c78a8"></path><path aria-label="State: Georgia; Mean of Profit: 86.9080" role="graphics-symbol" aria-roledescription="bar" d="M147.75510204081633,319.63804565217384h14.693877551020408v130.36195434782616h-14.693877551020408Z" fill="#4c78a8"></path><path aria-label="State: Kansas; Mean of Profit: 38.0162" role="graphics-symbol" aria-roledescription="bar" d="M229.3877551020408,392.9757h14.693877551020408v57.02429999999998h-14.693877551020408Z" fill="#4c78a8"></path><path aria-label="State: Oregon; Mean of Profit: −14.5073" role="graphics-symbol" aria-roledescription="bar" d="M572.2448979591836,450h14.693877551020408v21.76088999999996h-14.693877551020408Z" fill="#4c78a8"></path><path aria-label="State: South Dakota; Mean of Profit: 43.2590" role="graphics-symbol" aria-roledescription="bar" d="M637.5510204081634,385.11155625000004h14.693877551020408v64.88844374999996h-14.693877551020408Z" fill="#4c78a8"></path><path aria-label="State: Utah; Mean of Profit: 45.8492" role="graphics-symbol" aria-roledescription="bar" d="M686.5306122448981,381.22625217391305h14.693877551020408v68.77374782608695h-14.693877551020408Z" fill="#4c78a8"></path><path aria-label="State: West Virginia; Mean of Profit: 46.4804" role="graphics-symbol" aria-roledescription="bar" d="M751.8367346938776,380.2794h14.693877551020408v69.72059999999999h-14.693877551020408Z" fill="#4c78a8"></path><path aria-label="State: Montana; Mean of Profit: 293.185" role="graphics-symbol" aria-roledescription="bar" d="M392.6530612244898,10.222350000000002h14.693877551020408v439.77765h-14.693877551020408Z" fill="#4c78a8"></path><path aria-label="State: New Hampshire; Mean of Profit: 53.6248" role="graphics-symbol" aria-roledescription="bar" d="M441.63265306122446,369.56285769230766h14.693877551020408v80.43714230769234h-14.693877551020408Z" fill="#4c78a8"></path><path aria-label="State: District of Columbia; Mean of Profit: 12.1823" role="graphics-symbol" aria-roledescription="bar" d="M115.10204081632652,431.7266142857143h14.693877551020408v18.273385714285723h-14.693877551020408Z" fill="#4c78a8"></path><path aria-label="State: Wyoming; Mean of Profit: 100.196" role="graphics-symbol" aria-roledescription="bar" d="M784.4897959183675,299.706h14.693877551020408v150.29399999999998h-14.693877551020408Z" fill="#4c78a8"></path><path aria-label="State: Maine; Mean of Profit: 82.6469" role="graphics-symbol" aria-roledescription="bar" d="M278.3673469387755,326.02965h14.693877551020408v123.97035h-14.693877551020408Z" fill="#4c78a8"></path></g></g><path class="foreground" aria-hidden="true" d="" display="none"></path></g></g></g></svg>