<svg xmlns="http://www.w3.org/2000/svg" xmlns:xlink="http://www.w3.org/1999/xlink" version="1.1" class="marks" width="562" height="522" viewBox="0 0 562 522" style="background-color: white;"><g fill="none" stroke-miterlimit="10" transform="translate(46,54)"><g class="mark-group role-frame root" role="graphics-object" aria-roledescription="group mark container"><g transform="translate(0,0)"><path class="background" aria-hidden="true" d="M0,0h0v0h0Z"></path><g><g class="mark-group role-scope concat_0_group" role="graphics-object" aria-roledescription="group mark container"><g transform="translate(0,0)"><path class="background" aria-hidden="true" d="M0,0h0v0h0Z"></path><g><g class="mark-group role-column-footer concat_0_column_footer" role="graphics-object" aria-roledescription="group mark container"><g transform="translate(0,431)"><path class="background" aria-hidden="true" d="M0,0h400v0h-400Z"></path><g><g class="mark-group role-axis" role="graphics-symbol" aria-roledescription="axis" aria-label="X-axis titled 'm_probability' for a linear scale with values from 0.0 to 1.0"><g transform="translate(0.5,0.5)"><path class="background" aria-hidden="true" d="M0,0h0v0h0Z" pointer-events="none"></path><g><g class="mark-rule role-axis-tick" pointer-events="none"><line transform="translate(0,0)" x2="0" y2="5" stroke="#888" stroke-width="1" opacity="1"></line><line transform="translate(40,0)" x2="0" y2="5" stroke="#888" stroke-width="1" opacity="1"></line><line transform="translate(80,0)" x2="0" y2="5" stroke="#888" stroke-width="1" opacity="1"></line><line transform="translate(120,0)" x2="0" y2="5" stroke="#888" stroke-width="1" opacity="1"></line><line transform="translate(160,0)" x2="0" y2="5" stroke="#888" stroke-width="1" opacity="1"></line><line transform="translate(200,0)" x2="0" y2="5" stroke="#888" stroke-width="1" opacity="1"></line><line transform="translate(240,0)" x2="0" y2="5" stroke="#888" stroke-width="1" opacity="1"></line><line transform="translate(280,0)" x2="0" y2="5" stroke="#888" stroke-width="1" opacity="1"></line><line transform="translate(320,0)" x2="0" y2="5" stroke="#888" stroke-width="1" opacity="1"></line><line transform="translate(360,0)" x2="0" y2="5" stroke="#888" stroke-width="1" opacity="1"></line><line transform="translate(400,0)" x2="0" y2="5" stroke="#888" stroke-width="1" opacity="1"></line></g><g class="mark-text role-axis-label" pointer-events="none"><text text-anchor="start" transform="translate(0,15)" font-family="sans-serif" font-size="10px" fill="#000" opacity="1">0.0</text><text text-anchor="middle" transform="translate(40,15)" font-family="sans-serif" font-size="10px" fill="#000" opacity="1">0.1</text><text text-anchor="middle" transform="translate(80,15)" font-family="sans-serif" font-size="10px" fill="#000" opacity="1">0.2</text><text text-anchor="middle" transform="translate(120,15)" font-family="sans-serif" font-size="10px" fill="#000" opacity="1">0.3</text><text text-anchor="middle" transform="translate(160,15)" font-family="sans-serif" font-size="10px" fill="#000" opacity="1">0.4</text><text text-anchor="middle" transform="translate(200,15)" font-family="sans-serif" font-size="10px" fill="#000" opacity="1">0.5</text><text text-anchor="middle" transform="translate(240,15)" font-family="sans-serif" font-size="10px" fill="#000" opacity="1">0.6</text><text text-anchor="middle" transform="translate(280,15)" font-family="sans-serif" font-size="10px" fill="#000" opacity="1">0.7</text><text text-anchor="middle" transform="translate(320,15)" font-family="sans-serif" font-size="10px" fill="#000" opacity="1">0.8</text><text text-anchor="middle" transform="translate(360,15)" font-family="sans-serif" font-size="10px" fill="#000" opacity="1">0.9</text><text text-anchor="end" transform="translate(400,15)" font-family="sans-serif" font-size="10px" fill="#000" opacity="1">1.0</text></g><g class="mark-rule role-axis-domain" pointer-events="none"><line transform="translate(0,0)" x2="400" y2="0" stroke="#888" stroke-width="1" opacity="1"></line></g><g class="mark-text role-axis-title" pointer-events="none"><text text-anchor="middle" transform="translate(200,30)" font-family="sans-serif" font-size="11px" font-weight="bold" fill="#000" opacity="1">m_probability</text></g></g><path class="foreground" aria-hidden="true" d="" pointer-events="none" display="none"></path></g></g></g><path class="foreground" aria-hidden="true" d="" display="none"></path></g></g><g class="mark-group role-scope concat_0_cell" role="graphics-object" aria-roledescription="group mark container"><g transform="translate(0,0)"><path class="background" aria-hidden="true" d="M0.5,0.5h400v60h-400Z" fill="transparent" stroke="#ddd"></path><g><g class="mark-group role-axis" aria-hidden="true"><g transform="translate(0.5,60.5)"><path class="background" aria-hidden="true" d="M0,0h0v0h0Z" pointer-events="none"></path><g><g class="mark-rule role-axis-grid" pointer-events="none"><line transform="translate(0,0)" x2="0" y2="-60" stroke="#ddd" stroke-width="1" opacity="1"></line><line transform="translate(40,0)" x2="0" y2="-60" stroke="#ddd" stroke-width="1" opacity="1"></line><line transform="translate(80,0)" x2="0" y2="-60" stroke="#ddd" stroke-width="1" opacity="1"></line><line transform="translate(120,0)" x2="0" y2="-60" stroke="#ddd" stroke-width="1" opacity="1"></line><line transform="translate(160,0)" x2="0" y2="-60" stroke="#ddd" stroke-width="1" opacity="1"></line><line transform="translate(200,0)" x2="0" y2="-60" stroke="#ddd" stroke-width="1" opacity="1"></line><line transform="translate(240,0)" x2="0" y2="-60" stroke="#ddd" stroke-width="1" opacity="1"></line><line transform="translate(280,0)" x2="0" y2="-60" stroke="#ddd" stroke-width="1" opacity="1"></line><line transform="translate(320,0)" x2="0" y2="-60" stroke="#ddd" stroke-width="1" opacity="1"></line><line transform="translate(360,0)" x2="0" y2="-60" stroke="#ddd" stroke-width="1" opacity="1"></line><line transform="translate(400,0)" x2="0" y2="-60" stroke="#ddd" stroke-width="1" opacity="1"></line></g></g><path class="foreground" aria-hidden="true" d="" pointer-events="none" display="none"></path></g></g><g class="mark-group role-axis" aria-hidden="true"><g transform="translate(0.5,0.5)"><path class="background" aria-hidden="true" d="M0,0h0v0h0Z" pointer-events="none"></path><g><g class="mark-rule role-axis-grid" pointer-events="none"><line transform="translate(0,10)" x2="400" y2="0" stroke="#ddd" stroke-width="1" opacity="1"></line><line transform="translate(0,30)" x2="400" y2="0" stroke="#ddd" stroke-width="1" opacity="1"></line><line transform="translate(0,50)" x2="400" y2="0" stroke="#ddd" stroke-width="1" opacity="1"></line></g></g><path class="foreground" aria-hidden="true" d="" pointer-events="none" display="none"></path></g></g><g class="mark-group role-axis" role="graphics-symbol" aria-roledescription="axis" aria-label="Y-axis for a discrete scale with 3 values: level_0, level_1, level_2"><g transform="translate(0.5,0.5)"><path class="background" aria-hidden="true" d="M0,0h0v0h0Z" pointer-events="none"></path><g><g class="mark-rule role-axis-tick" pointer-events="none"><line transform="translate(0,10)" x2="-5" y2="0" stroke="#888" stroke-width="1" opacity="1"></line><line transform="translate(0,30)" x2="-5" y2="0" stroke="#888" stroke-width="1" opacity="1"></line><line transform="translate(0,50)" x2="-5" y2="0" stroke="#888" stroke-width="1" opacity="1"></line></g><g class="mark-text role-axis-label" pointer-events="none"><text text-anchor="end" transform="translate(-7,13)" font-family="sans-serif" font-size="10px" fill="#000" opacity="1">level_0</text><text text-anchor="end" transform="translate(-7,33)" font-family="sans-serif" font-size="10px" fill="#000" opacity="1">level_1</text><text text-anchor="end" transform="translate(-7,53)" font-family="sans-serif" font-size="10px" fill="#000" opacity="1">level_2</text></g><g class="mark-rule role-axis-domain" pointer-events="none"><line transform="translate(0,0)" x2="0" y2="60" stroke="#888" stroke-width="1" opacity="1"></line></g></g><path class="foreground" aria-hidden="true" d="" pointer-events="none" display="none"></path></g></g><g class="mark-symbol role-mark concat_0_child_marks" role="graphics-object" aria-roledescription="symbol mark container" clip-path="url(#clip1)"><path aria-label="m_probability: 0.161868123786; level_name: level_0; estimate_name: True value; column_name: surname_std; u_probability: 0.998660820375" role="graphics-symbol" aria-roledescription="point" transform="translate(64.74724951457563,10)" d="M-5,-5h10v10h-10Z" fill="transparent" stroke="#f58518" stroke-width="2" opacity="0.7"></path><path aria-label="m_probability: 0.182948544637; level_name: level_1; estimate_name: True value; column_name: surname_std; u_probability: 0.000862279606354" role="graphics-symbol" aria-roledescription="point" transform="translate(73.17941785467065,30)" d="M-5,-5h10v10h-10Z" fill="transparent" stroke="#f58518" stroke-width="2" opacity="0.7"></path><path aria-label="m_probability: 0.655183331577; level_name: level_2; estimate_name: True value; column_name: surname_std; u_probability: 0.000476900018148" role="graphics-symbol" aria-roledescription="point" transform="translate(262.0733326307537,50)" d="M-5,-5h10v10h-10Z" fill="transparent" stroke="#f58518" stroke-width="2" opacity="0.7"></path><path aria-label="m_probability: 0.0815201122944; level_name: level_0; estimate_name: Estimated value; column_name: surname_std; u_probability: 0.998635413755" role="graphics-symbol" aria-roledescription="point" transform="translate(32.6080449177505,10)" d="M5,0A5,5,0,1,1,-5,0A5,5,0,1,1,5,0" fill="transparent" stroke="#4c78a8" stroke-width="2" opacity="0.7"></path><path aria-label="m_probability: 0.125779415724; level_name: level_1; estimate_name: Estimated value; column_name: surname_std; u_probability: 0.000893471928483" role="graphics-symbol" aria-roledescription="point" transform="translate(50.31176628952141,30)" d="M5,0A5,5,0,1,1,-5,0A5,5,0,1,1,5,0" fill="transparent" stroke="#4c78a8" stroke-width="2" opacity="0.7"></path><path aria-label="m_probability: 0.792700471982; level_name: level_2; estimate_name: Estimated value; column_name: surname_std; u_probability: 0.000471114316028" role="graphics-symbol" aria-roledescription="point" transform="translate(317.08018879272817,50)" d="M5,0A5,5,0,1,1,-5,0A5,5,0,1,1,5,0" fill="transparent" stroke="#4c78a8" stroke-width="2" opacity="0.7"></path></g></g><path class="foreground" aria-hidden="true" d="" display="none"></path></g><g transform="translate(0,82)"><path class="background" aria-hidden="true" d="M0.5,0.5h400v60h-400Z" fill="transparent" stroke="#ddd"></path><g><g class="mark-group role-axis" aria-hidden="true"><g transform="translate(0.5,60.5)"><path class="background" aria-hidden="true" d="M0,0h0v0h0Z" pointer-events="none"></path><g><g class="mark-rule role-axis-grid" pointer-events="none"><line transform="translate(0,0)" x2="0" y2="-60" stroke="#ddd" stroke-width="1" opacity="1"></line><line transform="translate(40,0)" x2="0" y2="-60" stroke="#ddd" stroke-width="1" opacity="1"></line><line transform="translate(80,0)" x2="0" y2="-60" stroke="#ddd" stroke-width="1" opacity="1"></line><line transform="translate(120,0)" x2="0" y2="-60" stroke="#ddd" stroke-width="1" opacity="1"></line><line transform="translate(160,0)" x2="0" y2="-60" stroke="#ddd" stroke-width="1" opacity="1"></line><line transform="translate(200,0)" x2="0" y2="-60" stroke="#ddd" stroke-width="1" opacity="1"></line><line transform="translate(240,0)" x2="0" y2="-60" stroke="#ddd" stroke-width="1" opacity="1"></line><line transform="translate(280,0)" x2="0" y2="-60" stroke="#ddd" stroke-width="1" opacity="1"></line><line transform="translate(320,0)" x2="0" y2="-60" stroke="#ddd" stroke-width="1" opacity="1"></line><line transform="translate(360,0)" x2="0" y2="-60" stroke="#ddd" stroke-width="1" opacity="1"></line><line transform="translate(400,0)" x2="0" y2="-60" stroke="#ddd" stroke-width="1" opacity="1"></line></g></g><path class="foreground" aria-hidden="true" d="" pointer-events="none" display="none"></path></g></g><g class="mark-group role-axis" aria-hidden="true"><g transform="translate(0.5,0.5)"><path class="background" aria-hidden="true" d="M0,0h0v0h0Z" pointer-events="none"></path><g><g class="mark-rule role-axis-grid" pointer-events="none"><line transform="translate(0,10)" x2="400" y2="0" stroke="#ddd" stroke-width="1" opacity="1"></line><line transform="translate(0,30)" x2="400" y2="0" stroke="#ddd" stroke-width="1" opacity="1"></line><line transform="translate(0,50)" x2="400" y2="0" stroke="#ddd" stroke-width="1" opacity="1"></line></g></g><path class="foreground" aria-hidden="true" d="" pointer-events="none" display="none"></path></g></g><g class="mark-group role-axis" role="graphics-symbol" aria-roledescription="axis" aria-label="Y-axis for a discrete scale with 3 values: level_0, level_1, level_2"><g transform="translate(0.5,0.5)"><path class="background" aria-hidden="true" d="M0,0h0v0h0Z" pointer-events="none"></path><g><g class="mark-rule role-axis-tick" pointer-events="none"><line transform="translate(0,10)" x2="-5" y2="0" stroke="#888" stroke-width="1" opacity="1"></line><line transform="translate(0,30)" x2="-5" y2="0" stroke="#888" stroke-width="1" opacity="1"></line><line transform="translate(0,50)" x2="-5" y2="0" stroke="#888" stroke-width="1" opacity="1"></line></g><g class="mark-text role-axis-label" pointer-events="none"><text text-anchor="end" transform="translate(-7,13)" font-family="sans-serif" font-size="10px" fill="#000" opacity="1">level_0</text><text text-anchor="end" transform="translate(-7,33)" font-family="sans-serif" font-size="10px" fill="#000" opacity="1">level_1</text><text text-anchor="end" transform="translate(-7,53)" font-family="sans-serif" font-size="10px" fill="#000" opacity="1">level_2</text></g><g class="mark-rule role-axis-domain" pointer-events="none"><line transform="translate(0,0)" x2="0" y2="60" stroke="#888" stroke-width="1" opacity="1"></line></g></g><path class="foreground" aria-hidden="true" d="" pointer-events="none" display="none"></path></g></g><g class="mark-symbol role-mark concat_0_child_marks" role="graphics-object" aria-roledescription="symbol mark container" clip-path="url(#clip2)"><path aria-label="m_probability: 0.327013528098; level_name: level_0; estimate_name: True value; column_name: forename1_std; u_probability: 0.992494609447" role="graphics-symbol" aria-roledescription="point" transform="translate(130.8054112391135,10)" d="M-5,-5h10v10h-10Z" fill="transparent" stroke="#f58518" stroke-width="2" opacity="0.7"></path><path aria-label="m_probability: 0.185888899645; level_name: level_1; estimate_name: True value; column_name: forename1_std; u_probability: 0.00278414277951" role="graphics-symbol" aria-roledescription="point" transform="translate(74.35555985815755,30)" d="M-5,-5h10v10h-10Z" fill="transparent" stroke="#f58518" stroke-width="2" opacity="0.7"></path><path aria-label="m_probability: 0.487097572257; level_name: level_2; estimate_name: True value; column_name: forename1_std; u_probability: 0.00472124777359" role="graphics-symbol" aria-roledescription="point" transform="translate(194.83902890272893,50)" d="M-5,-5h10v10h-10Z" fill="transparent" stroke="#f58518" stroke-width="2" opacity="0.7"></path><path aria-label="m_probability: 0.204113936176; level_name: level_0; estimate_name: Estimated value; column_name: forename1_std; u_probability: 0.992817196109" role="graphics-symbol" aria-roledescription="point" transform="translate(81.64557447057541,10)" d="M5,0A5,5,0,1,1,-5,0A5,5,0,1,1,5,0" fill="transparent" stroke="#4c78a8" stroke-width="2" opacity="0.7"></path><path aria-label="m_probability: 0.126816824535; level_name: level_1; estimate_name: Estimated value; column_name: forename1_std; u_probability: 0.00251552022145" role="graphics-symbol" aria-roledescription="point" transform="translate(50.726729813984484,30)" d="M5,0A5,5,0,1,1,-5,0A5,5,0,1,1,5,0" fill="transparent" stroke="#4c78a8" stroke-width="2" opacity="0.7"></path><path aria-label="m_probability: 0.669069239289; level_name: level_2; estimate_name: Estimated value; column_name: forename1_std; u_probability: 0.00466728366948" role="graphics-symbol" aria-roledescription="point" transform="translate(267.6276957154401,50)" d="M5,0A5,5,0,1,1,-5,0A5,5,0,1,1,5,0" fill="transparent" stroke="#4c78a8" stroke-width="2" opacity="0.7"></path></g></g><path class="foreground" aria-hidden="true" d="" display="none"></path></g><g transform="translate(0,164)"><path class="background" aria-hidden="true" d="M0.5,0.5h400v40h-400Z" fill="transparent" stroke="#ddd"></path><g><g class="mark-group role-axis" aria-hidden="true"><g transform="translate(0.5,40.5)"><path class="background" aria-hidden="true" d="M0,0h0v0h0Z" pointer-events="none"></path><g><g class="mark-rule role-axis-grid" pointer-events="none"><line transform="translate(0,0)" x2="0" y2="-40" stroke="#ddd" stroke-width="1" opacity="1"></line><line transform="translate(40,0)" x2="0" y2="-40" stroke="#ddd" stroke-width="1" opacity="1"></line><line transform="translate(80,0)" x2="0" y2="-40" stroke="#ddd" stroke-width="1" opacity="1"></line><line transform="translate(120,0)" x2="0" y2="-40" stroke="#ddd" stroke-width="1" opacity="1"></line><line transform="translate(160,0)" x2="0" y2="-40" stroke="#ddd" stroke-width="1" opacity="1"></line><line transform="translate(200,0)" x2="0" y2="-40" stroke="#ddd" stroke-width="1" opacity="1"></line><line transform="translate(240,0)" x2="0" y2="-40" stroke="#ddd" stroke-width="1" opacity="1"></line><line transform="translate(280,0)" x2="0" y2="-40" stroke="#ddd" stroke-width="1" opacity="1"></line><line transform="translate(320,0)" x2="0" y2="-40" stroke="#ddd" stroke-width="1" opacity="1"></line><line transform="translate(360,0)" x2="0" y2="-40" stroke="#ddd" stroke-width="1" opacity="1"></line><line transform="translate(400,0)" x2="0" y2="-40" stroke="#ddd" stroke-width="1" opacity="1"></line></g></g><path class="foreground" aria-hidden="true" d="" pointer-events="none" display="none"></path></g></g><g class="mark-group role-axis" aria-hidden="true"><g transform="translate(0.5,0.5)"><path class="background" aria-hidden="true" d="M0,0h0v0h0Z" pointer-events="none"></path><g><g class="mark-rule role-axis-grid" pointer-events="none"><line transform="translate(0,10)" x2="400" y2="0" stroke="#ddd" stroke-width="1" opacity="1"></line><line transform="translate(0,30)" x2="400" y2="0" stroke="#ddd" stroke-width="1" opacity="1"></line></g></g><path class="foreground" aria-hidden="true" d="" pointer-events="none" display="none"></path></g></g><g class="mark-group role-axis" role="graphics-symbol" aria-roledescription="axis" aria-label="Y-axis for a discrete scale with 2 values: level_0, level_1"><g transform="translate(0.5,0.5)"><path class="background" aria-hidden="true" d="M0,0h0v0h0Z" pointer-events="none"></path><g><g class="mark-rule role-axis-tick" pointer-events="none"><line transform="translate(0,10)" x2="-5" y2="0" stroke="#888" stroke-width="1" opacity="1"></line><line transform="translate(0,30)" x2="-5" y2="0" stroke="#888" stroke-width="1" opacity="1"></line></g><g class="mark-text role-axis-label" pointer-events="none"><text text-anchor="end" transform="translate(-7,13)" font-family="sans-serif" font-size="10px" fill="#000" opacity="1">level_0</text><text text-anchor="end" transform="translate(-7,33)" font-family="sans-serif" font-size="10px" fill="#000" opacity="1">level_1</text></g><g class="mark-rule role-axis-domain" pointer-events="none"><line transform="translate(0,0)" x2="0" y2="40" stroke="#888" stroke-width="1" opacity="1"></line></g></g><path class="foreground" aria-hidden="true" d="" pointer-events="none" display="none"></path></g></g><g class="mark-symbol role-mark concat_0_child_marks" role="graphics-object" aria-roledescription="symbol mark container" clip-path="url(#clip3)"><path aria-label="m_probability: 0.505572257388; level_name: level_0; estimate_name: True value; column_name: forename2_std; u_probability: 0.994260173298" role="graphics-symbol" aria-roledescription="point" transform="translate(202.22890295528506,10)" d="M-5,-5h10v10h-10Z" fill="transparent" stroke="#f58518" stroke-width="2" opacity="0.7"></path><path aria-label="m_probability: 0.494427742612; level_name: level_1; estimate_name: True value; column_name: forename2_std; u_probability: 0.00573982670192" role="graphics-symbol" aria-roledescription="point" transform="translate(197.77109704471494,30)" d="M-5,-5h10v10h-10Z" fill="transparent" stroke="#f58518" stroke-width="2" opacity="0.7"></path><path aria-label="m_probability: 0.420326048832; level_name: level_0; estimate_name: Estimated value; column_name: forename2_std; u_probability: 0.994030738789" role="graphics-symbol" aria-roledescription="point" transform="translate(168.13041953281714,10)" d="M5,0A5,5,0,1,1,-5,0A5,5,0,1,1,5,0" fill="transparent" stroke="#4c78a8" stroke-width="2" opacity="0.7"></path><path aria-label="m_probability: 0.568423694198; level_name: level_1; estimate_name: Estimated value; column_name: forename2_std; u_probability: 0.00596926121053" role="graphics-symbol" aria-roledescription="point" transform="translate(227.36947767922607,30)" d="M5,0A5,5,0,1,1,-5,0A5,5,0,1,1,5,0" fill="transparent" stroke="#4c78a8" stroke-width="2" opacity="0.7"></path></g></g><path class="foreground" aria-hidden="true" d="" display="none"></path></g><g transform="translate(0,226)"><path class="background" aria-hidden="true" d="M0.5,0.5h400v40h-400Z" fill="transparent" stroke="#ddd"></path><g><g class="mark-group role-axis" aria-hidden="true"><g transform="translate(0.5,40.5)"><path class="background" aria-hidden="true" d="M0,0h0v0h0Z" pointer-events="none"></path><g><g class="mark-rule role-axis-grid" pointer-events="none"><line transform="translate(0,0)" x2="0" y2="-40" stroke="#ddd" stroke-width="1" opacity="1"></line><line transform="translate(40,0)" x2="0" y2="-40" stroke="#ddd" stroke-width="1" opacity="1"></line><line transform="translate(80,0)" x2="0" y2="-40" stroke="#ddd" stroke-width="1" opacity="1"></line><line transform="translate(120,0)" x2="0" y2="-40" stroke="#ddd" stroke-width="1" opacity="1"></line><line transform="translate(160,0)" x2="0" y2="-40" stroke="#ddd" stroke-width="1" opacity="1"></line><line transform="translate(200,0)" x2="0" y2="-40" stroke="#ddd" stroke-width="1" opacity="1"></line><line transform="translate(240,0)" x2="0" y2="-40" stroke="#ddd" stroke-width="1" opacity="1"></line><line transform="translate(280,0)" x2="0" y2="-40" stroke="#ddd" stroke-width="1" opacity="1"></line><line transform="translate(320,0)" x2="0" y2="-40" stroke="#ddd" stroke-width="1" opacity="1"></line><line transform="translate(360,0)" x2="0" y2="-40" stroke="#ddd" stroke-width="1" opacity="1"></line><line transform="translate(400,0)" x2="0" y2="-40" stroke="#ddd" stroke-width="1" opacity="1"></line></g></g><path class="foreground" aria-hidden="true" d="" pointer-events="none" display="none"></path></g></g><g class="mark-group role-axis" aria-hidden="true"><g transform="translate(0.5,0.5)"><path class="background" aria-hidden="true" d="M0,0h0v0h0Z" pointer-events="none"></path><g><g class="mark-rule role-axis-grid" pointer-events="none"><line transform="translate(0,10)" x2="400" y2="0" stroke="#ddd" stroke-width="1" opacity="1"></line><line transform="translate(0,30)" x2="400" y2="0" stroke="#ddd" stroke-width="1" opacity="1"></line></g></g><path class="foreground" aria-hidden="true" d="" pointer-events="none" display="none"></path></g></g><g class="mark-group role-axis" role="graphics-symbol" aria-roledescription="axis" aria-label="Y-axis for a discrete scale with 2 values: level_0, level_1"><g transform="translate(0.5,0.5)"><path class="background" aria-hidden="true" d="M0,0h0v0h0Z" pointer-events="none"></path><g><g class="mark-rule role-axis-tick" pointer-events="none"><line transform="translate(0,10)" x2="-5" y2="0" stroke="#888" stroke-width="1" opacity="1"></line><line transform="translate(0,30)" x2="-5" y2="0" stroke="#888" stroke-width="1" opacity="1"></line></g><g class="mark-text role-axis-label" pointer-events="none"><text text-anchor="end" transform="translate(-7,13)" font-family="sans-serif" font-size="10px" fill="#000" opacity="1">level_0</text><text text-anchor="end" transform="translate(-7,33)" font-family="sans-serif" font-size="10px" fill="#000" opacity="1">level_1</text></g><g class="mark-rule role-axis-domain" pointer-events="none"><line transform="translate(0,0)" x2="0" y2="40" stroke="#888" stroke-width="1" opacity="1"></line></g></g><path class="foreground" aria-hidden="true" d="" pointer-events="none" display="none"></path></g></g><g class="mark-symbol role-mark concat_0_child_marks" role="graphics-object" aria-roledescription="symbol mark container" clip-path="url(#clip4)"><path aria-label="m_probability: 0.123834156021; level_name: level_0; estimate_name: True value; column_name: occupation; u_probability: 0.962857713366" role="graphics-symbol" aria-roledescription="point" transform="translate(49.53366240845737,10)" d="M-5,-5h10v10h-10Z" fill="transparent" stroke="#f58518" stroke-width="2" opacity="0.7"></path><path aria-label="m_probability: 0.876165843979; level_name: level_1; estimate_name: True value; column_name: occupation; u_probability: 0.0371422866335" role="graphics-symbol" aria-roledescription="point" transform="translate(350.46633759154264,30)" d="M-5,-5h10v10h-10Z" fill="transparent" stroke="#f58518" stroke-width="2" opacity="0.7"></path><path aria-label="m_probability: 0.0789182143693; level_name: level_0; estimate_name: Estimated value; column_name: occupation; u_probability: 0.958540655135" role="graphics-symbol" aria-roledescription="point" transform="translate(31.567285747727336,10)" d="M5,0A5,5,0,1,1,-5,0A5,5,0,1,1,5,0" fill="transparent" stroke="#4c78a8" stroke-width="2" opacity="0.7"></path><path aria-label="m_probability: 0.920925322178; level_name: level_1; estimate_name: Estimated value; column_name: occupation; u_probability: 0.041459344865" role="graphics-symbol" aria-roledescription="point" transform="translate(368.3701288712792,30)" d="M5,0A5,5,0,1,1,-5,0A5,5,0,1,1,5,0" fill="transparent" stroke="#4c78a8" stroke-width="2" opacity="0.7"></path></g></g><path class="foreground" aria-hidden="true" d="" display="none"></path></g><g transform="translate(0,288)"><path class="background" aria-hidden="true" d="M0.5,0.5h400v60h-400Z" fill="transparent" stroke="#ddd"></path><g><g class="mark-group role-axis" aria-hidden="true"><g transform="translate(0.5,60.5)"><path class="background" aria-hidden="true" d="M0,0h0v0h0Z" pointer-events="none"></path><g><g class="mark-rule role-axis-grid" pointer-events="none"><line transform="translate(0,0)" x2="0" y2="-60" stroke="#ddd" stroke-width="1" opacity="1"></line><line transform="translate(40,0)" x2="0" y2="-60" stroke="#ddd" stroke-width="1" opacity="1"></line><line transform="translate(80,0)" x2="0" y2="-60" stroke="#ddd" stroke-width="1" opacity="1"></line><line transform="translate(120,0)" x2="0" y2="-60" stroke="#ddd" stroke-width="1" opacity="1"></line><line transform="translate(160,0)" x2="0" y2="-60" stroke="#ddd" stroke-width="1" opacity="1"></line><line transform="translate(200,0)" x2="0" y2="-60" stroke="#ddd" stroke-width="1" opacity="1"></line><line transform="translate(240,0)" x2="0" y2="-60" stroke="#ddd" stroke-width="1" opacity="1"></line><line transform="translate(280,0)" x2="0" y2="-60" stroke="#ddd" stroke-width="1" opacity="1"></line><line transform="translate(320,0)" x2="0" y2="-60" stroke="#ddd" stroke-width="1" opacity="1"></line><line transform="translate(360,0)" x2="0" y2="-60" stroke="#ddd" stroke-width="1" opacity="1"></line><line transform="translate(400,0)" x2="0" y2="-60" stroke="#ddd" stroke-width="1" opacity="1"></line></g></g><path class="foreground" aria-hidden="true" d="" pointer-events="none" display="none"></path></g></g><g class="mark-group role-axis" aria-hidden="true"><g transform="translate(0.5,0.5)"><path class="background" aria-hidden="true" d="M0,0h0v0h0Z" pointer-events="none"></path><g><g class="mark-rule role-axis-grid" pointer-events="none"><line transform="translate(0,10)" x2="400" y2="0" stroke="#ddd" stroke-width="1" opacity="1"></line><line transform="translate(0,30)" x2="400" y2="0" stroke="#ddd" stroke-width="1" opacity="1"></line><line transform="translate(0,50)" x2="400" y2="0" stroke="#ddd" stroke-width="1" opacity="1"></line></g></g><path class="foreground" aria-hidden="true" d="" pointer-events="none" display="none"></path></g></g><g class="mark-group role-axis" role="graphics-symbol" aria-roledescription="axis" aria-label="Y-axis for a discrete scale with 3 values: level_0, level_1, level_2"><g transform="translate(0.5,0.5)"><path class="background" aria-hidden="true" d="M0,0h0v0h0Z" pointer-events="none"></path><g><g class="mark-rule role-axis-tick" pointer-events="none"><line transform="translate(0,10)" x2="-5" y2="0" stroke="#888" stroke-width="1" opacity="1"></line><line transform="translate(0,30)" x2="-5" y2="0" stroke="#888" stroke-width="1" opacity="1"></line><line transform="translate(0,50)" x2="-5" y2="0" stroke="#888" stroke-width="1" opacity="1"></line></g><g class="mark-text role-axis-label" pointer-events="none"><text text-anchor="end" transform="translate(-7,13)" font-family="sans-serif" font-size="10px" fill="#000" opacity="1">level_0</text><text text-anchor="end" transform="translate(-7,33)" font-family="sans-serif" font-size="10px" fill="#000" opacity="1">level_1</text><text text-anchor="end" transform="translate(-7,53)" font-family="sans-serif" font-size="10px" fill="#000" opacity="1">level_2</text></g><g class="mark-rule role-axis-domain" pointer-events="none"><line transform="translate(0,0)" x2="0" y2="60" stroke="#888" stroke-width="1" opacity="1"></line></g></g><path class="foreground" aria-hidden="true" d="" pointer-events="none" display="none"></path></g></g><g class="mark-symbol role-mark concat_0_child_marks" role="graphics-object" aria-roledescription="symbol mark container" clip-path="url(#clip5)"><path aria-label="m_probability: 0.070154564016; level_name: level_0; estimate_name: True value; column_name: dob; u_probability: 0.995384986614" role="graphics-symbol" aria-roledescription="point" transform="translate(28.061825606398237,10)" d="M-5,-5h10v10h-10Z" fill="transparent" stroke="#f58518" stroke-width="2" opacity="0.7"></path><path aria-label="m_probability: 0.430486876108; level_name: level_1; estimate_name: True value; column_name: dob; u_probability: 0.00429965700387" role="graphics-symbol" aria-roledescription="point" transform="translate(172.19475044317682,30)" d="M-5,-5h10v10h-10Z" fill="transparent" stroke="#f58518" stroke-width="2" opacity="0.7"></path><path aria-label="m_probability: 0.499358559876; level_name: level_2; estimate_name: True value; column_name: dob; u_probability: 0.000315356381667" role="graphics-symbol" aria-roledescription="point" transform="translate(199.74342395042495,50)" d="M-5,-5h10v10h-10Z" fill="transparent" stroke="#f58518" stroke-width="2" opacity="0.7"></path><path aria-label="m_probability: 0.0705926985567; level_name: level_0; estimate_name: Estimated value; column_name: dob; u_probability: 0.995106467296" role="graphics-symbol" aria-roledescription="point" transform="translate(28.237079422683475,10)" d="M5,0A5,5,0,1,1,-5,0A5,5,0,1,1,5,0" fill="transparent" stroke="#4c78a8" stroke-width="2" opacity="0.7"></path><path aria-label="m_probability: 0.342497220176; level_name: level_1; estimate_name: Estimated value; column_name: dob; u_probability: 0.00458109527461" role="graphics-symbol" aria-roledescription="point" transform="translate(136.9988880702571,30)" d="M5,0A5,5,0,1,1,-5,0A5,5,0,1,1,5,0" fill="transparent" stroke="#4c78a8" stroke-width="2" opacity="0.7"></path><path aria-label="m_probability: 0.586910081268; level_name: level_2; estimate_name: Estimated value; column_name: dob; u_probability: 0.000312437429765" role="graphics-symbol" aria-roledescription="point" transform="translate(234.76403250705945,50)" d="M5,0A5,5,0,1,1,-5,0A5,5,0,1,1,5,0" fill="transparent" stroke="#4c78a8" stroke-width="2" opacity="0.7"></path></g></g><path class="foreground" aria-hidden="true" d="" display="none"></path></g><g transform="translate(0,370)"><path class="background" aria-hidden="true" d="M0.5,0.5h400v60h-400Z" fill="transparent" stroke="#ddd"></path><g><g class="mark-group role-axis" aria-hidden="true"><g transform="translate(0.5,60.5)"><path class="background" aria-hidden="true" d="M0,0h0v0h0Z" pointer-events="none"></path><g><g class="mark-rule role-axis-grid" pointer-events="none"><line transform="translate(0,0)" x2="0" y2="-60" stroke="#ddd" stroke-width="1" opacity="1"></line><line transform="translate(40,0)" x2="0" y2="-60" stroke="#ddd" stroke-width="1" opacity="1"></line><line transform="translate(80,0)" x2="0" y2="-60" stroke="#ddd" stroke-width="1" opacity="1"></line><line transform="translate(120,0)" x2="0" y2="-60" stroke="#ddd" stroke-width="1" opacity="1"></line><line transform="translate(160,0)" x2="0" y2="-60" stroke="#ddd" stroke-width="1" opacity="1"></line><line transform="translate(200,0)" x2="0" y2="-60" stroke="#ddd" stroke-width="1" opacity="1"></line><line transform="translate(240,0)" x2="0" y2="-60" stroke="#ddd" stroke-width="1" opacity="1"></line><line transform="translate(280,0)" x2="0" y2="-60" stroke="#ddd" stroke-width="1" opacity="1"></line><line transform="translate(320,0)" x2="0" y2="-60" stroke="#ddd" stroke-width="1" opacity="1"></line><line transform="translate(360,0)" x2="0" y2="-60" stroke="#ddd" stroke-width="1" opacity="1"></line><line transform="translate(400,0)" x2="0" y2="-60" stroke="#ddd" stroke-width="1" opacity="1"></line></g></g><path class="foreground" aria-hidden="true" d="" pointer-events="none" display="none"></path></g></g><g class="mark-group role-axis" aria-hidden="true"><g transform="translate(0.5,0.5)"><path class="background" aria-hidden="true" d="M0,0h0v0h0Z" pointer-events="none"></path><g><g class="mark-rule role-axis-grid" pointer-events="none"><line transform="translate(0,10)" x2="400" y2="0" stroke="#ddd" stroke-width="1" opacity="1"></line><line transform="translate(0,30)" x2="400" y2="0" stroke="#ddd" stroke-width="1" opacity="1"></line><line transform="translate(0,50)" x2="400" y2="0" stroke="#ddd" stroke-width="1" opacity="1"></line></g></g><path class="foreground" aria-hidden="true" d="" pointer-events="none" display="none"></path></g></g><g class="mark-group role-axis" role="graphics-symbol" aria-roledescription="axis" aria-label="Y-axis for a discrete scale with 3 values: level_0, level_1, level_2"><g transform="translate(0.5,0.5)"><path class="background" aria-hidden="true" d="M0,0h0v0h0Z" pointer-events="none"></path><g><g class="mark-rule role-axis-tick" pointer-events="none"><line transform="translate(0,10)" x2="-5" y2="0" stroke="#888" stroke-width="1" opacity="1"></line><line transform="translate(0,30)" x2="-5" y2="0" stroke="#888" stroke-width="1" opacity="1"></line><line transform="translate(0,50)" x2="-5" y2="0" stroke="#888" stroke-width="1" opacity="1"></line></g><g class="mark-text role-axis-label" pointer-events="none"><text text-anchor="end" transform="translate(-7,13)" font-family="sans-serif" font-size="10px" fill="#000" opacity="1">level_0</text><text text-anchor="end" transform="translate(-7,33)" font-family="sans-serif" font-size="10px" fill="#000" opacity="1">level_1</text><text text-anchor="end" transform="translate(-7,53)" font-family="sans-serif" font-size="10px" fill="#000" opacity="1">level_2</text></g><g class="mark-rule role-axis-domain" pointer-events="none"><line transform="translate(0,0)" x2="0" y2="60" stroke="#888" stroke-width="1" opacity="1"></line></g></g><path class="foreground" aria-hidden="true" d="" pointer-events="none" display="none"></path></g></g><g class="mark-symbol role-mark concat_0_child_marks" role="graphics-object" aria-roledescription="symbol mark container" clip-path="url(#clip6)"><path aria-label="m_probability: 0.294760936369; level_name: level_0; estimate_name: True value; column_name: postcode; u_probability: 0.999930551426" role="graphics-symbol" aria-roledescription="point" transform="translate(117.90437454747902,10)" d="M-5,-5h10v10h-10Z" fill="transparent" stroke="#f58518" stroke-width="2" opacity="0.7"></path><path aria-label="m_probability: 0.107989619011; level_name: level_1; estimate_name: True value; column_name: postcode; u_probability: 0.0000529815488877" role="graphics-symbol" aria-roledescription="point" transform="translate(43.195847604447565,30)" d="M-5,-5h10v10h-10Z" fill="transparent" stroke="#f58518" stroke-width="2" opacity="0.7"></path><path aria-label="m_probability: 0.59724944462; level_name: level_2; estimate_name: True value; column_name: postcode; u_probability: 0.000016467025019" role="graphics-symbol" aria-roledescription="point" transform="translate(238.8997778480734,50)" d="M-5,-5h10v10h-10Z" fill="transparent" stroke="#f58518" stroke-width="2" opacity="0.7"></path><path aria-label="m_probability: 0.240781711609; level_name: level_0; estimate_name: Estimated value; column_name: postcode; u_probability: 0.99992190531" role="graphics-symbol" aria-roledescription="point" transform="translate(96.31268464360429,10)" d="M5,0A5,5,0,1,1,-5,0A5,5,0,1,1,5,0" fill="transparent" stroke="#4c78a8" stroke-width="2" opacity="0.7"></path><path aria-label="m_probability: 0.0862931839327; level_name: level_1; estimate_name: Estimated value; column_name: postcode; u_probability: 0.0000621825917049" role="graphics-symbol" aria-roledescription="point" transform="translate(34.517273573077496,30)" d="M5,0A5,5,0,1,1,-5,0A5,5,0,1,1,5,0" fill="transparent" stroke="#4c78a8" stroke-width="2" opacity="0.7"></path><path aria-label="m_probability: 0.672925104458; level_name: level_2; estimate_name: Estimated value; column_name: postcode; u_probability: 0.000015912098506" role="graphics-symbol" aria-roledescription="point" transform="translate(269.17004178331837,50)" d="M5,0A5,5,0,1,1,-5,0A5,5,0,1,1,5,0" fill="transparent" stroke="#4c78a8" stroke-width="2" opacity="0.7"></path></g></g><path class="foreground" aria-hidden="true" d="" display="none"></path></g></g><g class="mark-group role-title"><g transform="translate(180.39892578125,-18)"><path class="background" aria-hidden="true" d="M0,0h0v0h0Z" pointer-events="none"></path><g><g class="mark-text role-title-text" role="graphics-symbol" aria-roledescription="title" aria-label="Title text 'Matches'" pointer-events="none"><text text-anchor="middle" transform="translate(0,10)" font-family="sans-serif" font-size="13px" font-weight="bold" fill="#000" opacity="1">Matches</text></g></g><path class="foreground" aria-hidden="true" d="" pointer-events="none" display="none"></path></g></g></g><path class="foreground" aria-hidden="true" d="" display="none"></path></g></g><g class="mark-group role-legend" role="graphics-symbol" aria-roledescription="legend" aria-label="Symbol legend titled 'estimate_name' for shape and stroke color with 2 values: Estimated value, True value"><g transform="translate(419,0)"><path class="background" aria-hidden="true" d="M0,0h92v45h-92Z" pointer-events="none"></path><g><g class="mark-group role-legend-entry"><g transform="translate(0,16)"><path class="background" aria-hidden="true" d="M0,0h0v0h0Z" pointer-events="none"></path><g><g class="mark-group role-scope" role="graphics-object" aria-roledescription="group mark container"><g transform="translate(0,0)"><path class="background" aria-hidden="true" d="M0,0h91.1611328125v12.5h-91.1611328125Z" pointer-events="none" opacity="1"></path><g><g class="mark-symbol role-legend-symbol" pointer-events="none"><path transform="translate(6,6)" d="M5,0A5,5,0,1,1,-5,0A5,5,0,1,1,5,0" fill="transparent" stroke="#4c78a8" stroke-width="1.5" opacity="0.7"></path></g><g class="mark-text role-legend-label" pointer-events="none"><text text-anchor="start" transform="translate(16,9)" font-family="sans-serif" font-size="10px" fill="#000" opacity="1">Estimated value</text></g></g><path class="foreground" aria-hidden="true" d="" pointer-events="none" display="none"></path></g><g transform="translate(0,16)"><path class="background" aria-hidden="true" d="M0,0h91.1611328125v12.5h-91.1611328125Z" pointer-events="none" opacity="1"></path><g><g class="mark-symbol role-legend-symbol" pointer-events="none"><path transform="translate(6,6)" d="M-5,-5h10v10h-10Z" fill="transparent" stroke="#f58518" stroke-width="1.5" opacity="0.7"></path></g><g class="mark-text role-legend-label" pointer-events="none"><text text-anchor="start" transform="translate(16,9)" font-family="sans-serif" font-size="10px" fill="#000" opacity="1">True value</text></g></g><path class="foreground" aria-hidden="true" d="" pointer-events="none" display="none"></path></g></g></g><path class="foreground" aria-hidden="true" d="" pointer-events="none" display="none"></path></g></g><g class="mark-text role-legend-title" pointer-events="none"><text text-anchor="start" transform="translate(0,9)" font-family="sans-serif" font-size="11px" font-weight="bold" fill="#000" opacity="1">estimate_name</text></g></g><path class="foreground" aria-hidden="true" d="" pointer-events="none" display="none"></path></g></g><g class="mark-group role-title"><g transform="translate(235.39892578125,-49)"><path class="background" aria-hidden="true" d="M0,0h0v0h0Z" pointer-events="none"></path><g><g class="mark-text role-title-text" role="graphics-symbol" aria-roledescription="title" aria-label="Title text 'Comparison of parameter estimates between jobs'" pointer-events="none"><text text-anchor="middle" transform="translate(0,10)" font-family="sans-serif" font-size="13px" font-weight="bold" fill="#000" opacity="1">Comparison of parameter estimates between jobs</text></g><g class="mark-text role-title-subtitle" role="graphics-symbol" aria-roledescription="subtitle" aria-label="Subtitle text 'Use mousewheeel to zoom'" pointer-events="none"><text text-anchor="middle" transform="translate(0,25)" font-family="sans-serif" font-size="12px" fill="#000" opacity="1">Use mousewheeel to zoom</text></g></g><path class="foreground" aria-hidden="true" d="" pointer-events="none" display="none"></path></g></g></g><path class="foreground" aria-hidden="true" d="" display="none"></path></g></g></g><defs><clipPath id="clip1"><rect x="0" y="0" width="400" height="60"></rect></clipPath><clipPath id="clip2"><rect x="0" y="0" width="400" height="60"></rect></clipPath><clipPath id="clip3"><rect x="0" y="0" width="400" height="40"></rect></clipPath><clipPath id="clip4"><rect x="0" y="0" width="400" height="40"></rect></clipPath><clipPath id="clip5"><rect x="0" y="0" width="400" height="60"></rect></clipPath><clipPath id="clip6"><rect x="0" y="0" width="400" height="60"></rect></clipPath></defs></svg>