<svg xmlns="http://www.w3.org/2000/svg" xmlns:xlink="http://www.w3.org/1999/xlink" version="1.1" class="marks" width="854" height="727" viewBox="0 0 854 727" style="background-color: white;"><g fill="none" stroke-miterlimit="10" transform="translate(49,10)"><g class="mark-group role-frame root" role="graphics-object" aria-roledescription="group mark container"><g transform="translate(0,0)"><path class="background" aria-hidden="true" d="M0.5,0.5h800v600h-800Z" fill="transparent" stroke="#ddd"></path><g><g class="mark-group role-axis" aria-hidden="true"><g transform="translate(0.5,0.5)"><path class="background" aria-hidden="true" d="M0,0h0v0h0Z" pointer-events="none"></path><g><g class="mark-rule role-axis-grid" pointer-events="none"><line transform="translate(0,600)" x2="800" y2="0" stroke="#ddd" stroke-width="1" opacity="1"></line><line transform="translate(0,554)" x2="800" y2="0" stroke="#ddd" stroke-width="1" opacity="1"></line><line transform="translate(0,508)" x2="800" y2="0" stroke="#ddd" stroke-width="1" opacity="1"></line><line transform="translate(0,462)" x2="800" y2="0" stroke="#ddd" stroke-width="1" opacity="1"></line><line transform="translate(0,415)" x2="800" y2="0" stroke="#ddd" stroke-width="1" opacity="1"></line><line transform="translate(0,369)" x2="800" y2="0" stroke="#ddd" stroke-width="1" opacity="1"></line><line transform="translate(0,323)" x2="800" y2="0" stroke="#ddd" stroke-width="1" opacity="1"></line><line transform="translate(0,277)" x2="800" y2="0" stroke="#ddd" stroke-width="1" opacity="1"></line><line transform="translate(0,231)" x2="800" y2="0" stroke="#ddd" stroke-width="1" opacity="1"></line><line transform="translate(0,185)" x2="800" y2="0" stroke="#ddd" stroke-width="1" opacity="1"></line><line transform="translate(0,138)" x2="800" y2="0" stroke="#ddd" stroke-width="1" opacity="1"></line><line transform="translate(0,92)" x2="800" y2="0" stroke="#ddd" stroke-width="1" opacity="1"></line><line transform="translate(0,46)" x2="800" y2="0" stroke="#ddd" stroke-width="1" opacity="1"></line><line transform="translate(0,0)" x2="800" y2="0" stroke="#ddd" stroke-width="1" opacity="1"></line></g></g><path class="foreground" aria-hidden="true" d="" pointer-events="none" display="none"></path></g></g><g class="mark-group role-axis" role="graphics-symbol" aria-roledescription="axis" aria-label="X-axis titled 'Country' for a discrete scale with 24 values: Germany, Spain, France, England, Belgium, ending with Hungary"><g transform="translate(0.5,600.5)"><path class="background" aria-hidden="true" d="M0,0h0v0h0Z" pointer-events="none"></path><g><g class="mark-rule role-axis-tick" pointer-events="none"><line transform="translate(16,0)" x2="0" y2="5" stroke="#888" stroke-width="1" opacity="1"></line><line transform="translate(50,0)" x2="0" y2="5" stroke="#888" stroke-width="1" opacity="1"></line><line transform="translate(83,0)" x2="0" y2="5" stroke="#888" stroke-width="1" opacity="1"></line><line transform="translate(116,0)" x2="0" y2="5" stroke="#888" stroke-width="1" opacity="1"></line><line transform="translate(150,0)" x2="0" y2="5" stroke="#888" stroke-width="1" opacity="1"></line><line transform="translate(183,0)" x2="0" y2="5" stroke="#888" stroke-width="1" opacity="1"></line><line transform="translate(216,0)" x2="0" y2="5" stroke="#888" stroke-width="1" opacity="1"></line><line transform="translate(250,0)" x2="0" y2="5" stroke="#888" stroke-width="1" opacity="1"></line><line transform="translate(283,0)" x2="0" y2="5" stroke="#888" stroke-width="1" opacity="1"></line><line transform="translate(316,0)" x2="0" y2="5" stroke="#888" stroke-width="1" opacity="1"></line><line transform="translate(350,0)" x2="0" y2="5" stroke="#888" stroke-width="1" opacity="1"></line><line transform="translate(383,0)" x2="0" y2="5" stroke="#888" stroke-width="1" opacity="1"></line><line transform="translate(416,0)" x2="0" y2="5" stroke="#888" stroke-width="1" opacity="1"></line><line transform="translate(450,0)" x2="0" y2="5" stroke="#888" stroke-width="1" opacity="1"></line><line transform="translate(483,0)" x2="0" y2="5" stroke="#888" stroke-width="1" opacity="1"></line><line transform="translate(516,0)" x2="0" y2="5" stroke="#888" stroke-width="1" opacity="1"></line><line transform="translate(550,0)" x2="0" y2="5" stroke="#888" stroke-width="1" opacity="1"></line><line transform="translate(583,0)" x2="0" y2="5" stroke="#888" stroke-width="1" opacity="1"></line><line transform="translate(616,0)" x2="0" y2="5" stroke="#888" stroke-width="1" opacity="1"></line><line transform="translate(650,0)" x2="0" y2="5" stroke="#888" stroke-width="1" opacity="1"></line><line transform="translate(683,0)" x2="0" y2="5" stroke="#888" stroke-width="1" opacity="1"></line><line transform="translate(716,0)" x2="0" y2="5" stroke="#888" stroke-width="1" opacity="1"></line><line transform="translate(750,0)" x2="0" y2="5" stroke="#888" stroke-width="1" opacity="1"></line><line transform="translate(783,0)" x2="0" y2="5" stroke="#888" stroke-width="1" opacity="1"></line></g><g class="mark-text role-axis-label" pointer-events="none"><text text-anchor="end" transform="translate(16.166666666666686,7) rotate(270) translate(0,3)" font-family="sans-serif" font-size="10px" fill="#000" opacity="1">Germany</text><text text-anchor="end" transform="translate(49.50000000000002,7) rotate(270) translate(0,3)" font-family="sans-serif" font-size="10px" fill="#000" opacity="1">Spain</text><text text-anchor="end" transform="translate(82.83333333333336,7) rotate(270) translate(0,3)" font-family="sans-serif" font-size="10px" fill="#000" opacity="1">France</text><text text-anchor="end" transform="translate(116.16666666666669,7) rotate(270) translate(0,3)" font-family="sans-serif" font-size="10px" fill="#000" opacity="1">England</text><text text-anchor="end" transform="translate(149.50000000000003,7) rotate(270) translate(0,3)" font-family="sans-serif" font-size="10px" fill="#000" opacity="1">Belgium</text><text text-anchor="end" transform="translate(182.83333333333337,7) rotate(270) translate(0,3)" font-family="sans-serif" font-size="10px" fill="#000" opacity="1">Portugal</text><text text-anchor="end" transform="translate(216.16666666666669,7) rotate(270) translate(0,3)" font-family="sans-serif" font-size="10px" fill="#000" opacity="1">Croatia</text><text text-anchor="end" transform="translate(249.50000000000003,7) rotate(270) translate(0,3)" font-family="sans-serif" font-size="10px" fill="#000" opacity="1">Italy</text><text text-anchor="end" transform="translate(282.83333333333337,7) rotate(270) translate(0,3)" font-family="sans-serif" font-size="10px" fill="#000" opacity="1">Poland</text><text text-anchor="end" transform="translate(316.1666666666667,7) rotate(270) translate(0,3)" font-family="sans-serif" font-size="10px" fill="#000" opacity="1">Turkey</text><text text-anchor="end" transform="translate(349.50000000000006,7) rotate(270) translate(0,3)" font-family="sans-serif" font-size="10px" fill="#000" opacity="1">Switzerland</text><text text-anchor="end" transform="translate(382.83333333333337,7) rotate(270) translate(0,3)" font-family="sans-serif" font-size="10px" fill="#000" opacity="1">Wales</text><text text-anchor="end" transform="translate(416.1666666666667,7) rotate(270) translate(0,3)" font-family="sans-serif" font-size="10px" fill="#000" opacity="1">Russia</text><text text-anchor="end" transform="translate(449.50000000000006,7) rotate(270) translate(0,3)" font-family="sans-serif" font-size="10px" fill="#000" opacity="1">Austria</text><text text-anchor="end" transform="translate(482.83333333333337,7) rotate(270) translate(0,3)" font-family="sans-serif" font-size="10px" fill="#000" opacity="1">Ukraine</text><text text-anchor="end" transform="translate(516.1666666666667,7) rotate(270) translate(0,3)" font-family="sans-serif" font-size="10px" fill="#000" opacity="1">Republic of Ireland</text><text text-anchor="end" transform="translate(549.5,7) rotate(270) translate(0,3)" font-family="sans-serif" font-size="10px" fill="#000" opacity="1">Sweden</text><text text-anchor="end" transform="translate(582.8333333333335,7) rotate(270) translate(0,3)" font-family="sans-serif" font-size="10px" fill="#000" opacity="1">Slovakia</text><text text-anchor="end" transform="translate(616.1666666666667,7) rotate(270) translate(0,3)" font-family="sans-serif" font-size="10px" fill="#000" opacity="1">Czech Republic</text><text text-anchor="end" transform="translate(649.5,7) rotate(270) translate(0,3)" font-family="sans-serif" font-size="10px" fill="#000" opacity="1">Romania</text><text text-anchor="end" transform="translate(682.8333333333335,7) rotate(270) translate(0,3)" font-family="sans-serif" font-size="10px" fill="#000" opacity="1">Albania</text><text text-anchor="end" transform="translate(716.1666666666667,7) rotate(270) translate(0,3)" font-family="sans-serif" font-size="10px" fill="#000" opacity="1">Iceland</text><text text-anchor="end" transform="translate(749.5,7) rotate(270) translate(0,3)" font-family="sans-serif" font-size="10px" fill="#000" opacity="1">Northern Ireland</text><text text-anchor="end" transform="translate(782.8333333333335,7) rotate(270) translate(0,3)" font-family="sans-serif" font-size="10px" fill="#000" opacity="1">Hungary</text></g><g class="mark-rule role-axis-domain" pointer-events="none"><line transform="translate(0,0)" x2="800" y2="0" stroke="#888" stroke-width="1" opacity="1"></line></g><g class="mark-text role-axis-title" pointer-events="none"><text text-anchor="middle" transform="translate(400,109.755859375)" font-family="sans-serif" font-size="11px" font-weight="bold" fill="#000" opacity="1">Country</text></g></g><path class="foreground" aria-hidden="true" d="" pointer-events="none" display="none"></path></g></g><g class="mark-group role-axis" role="graphics-symbol" aria-roledescription="axis" aria-label="Y-axis titled 'Mean of Salary' for a linear scale with values from 0M to 26M"><g transform="translate(0.5,0.5)"><path class="background" aria-hidden="true" d="M0,0h0v0h0Z" pointer-events="none"></path><g><g class="mark-rule role-axis-tick" pointer-events="none"><line transform="translate(0,600)" x2="-5" y2="0" stroke="#888" stroke-width="1" opacity="1"></line><line transform="translate(0,554)" x2="-5" y2="0" stroke="#888" stroke-width="1" opacity="1"></line><line transform="translate(0,508)" x2="-5" y2="0" stroke="#888" stroke-width="1" opacity="1"></line><line transform="translate(0,462)" x2="-5" y2="0" stroke="#888" stroke-width="1" opacity="1"></line><line transform="translate(0,415)" x2="-5" y2="0" stroke="#888" stroke-width="1" opacity="1"></line><line transform="translate(0,369)" x2="-5" y2="0" stroke="#888" stroke-width="1" opacity="1"></line><line transform="translate(0,323)" x2="-5" y2="0" stroke="#888" stroke-width="1" opacity="1"></line><line transform="translate(0,277)" x2="-5" y2="0" stroke="#888" stroke-width="1" opacity="1"></line><line transform="translate(0,231)" x2="-5" y2="0" stroke="#888" stroke-width="1" opacity="1"></line><line transform="translate(0,185)" x2="-5" y2="0" stroke="#888" stroke-width="1" opacity="1"></line><line transform="translate(0,138)" x2="-5" y2="0" stroke="#888" stroke-width="1" opacity="1"></line><line transform="translate(0,92)" x2="-5" y2="0" stroke="#888" stroke-width="1" opacity="1"></line><line transform="translate(0,46)" x2="-5" y2="0" stroke="#888" stroke-width="1" opacity="1"></line><line transform="translate(0,0)" x2="-5" y2="0" stroke="#888" stroke-width="1" opacity="1"></line></g><g class="mark-text role-axis-label" pointer-events="none"><text text-anchor="end" transform="translate(-7,603)" font-family="sans-serif" font-size="10px" fill="#000" opacity="1">0M</text><text text-anchor="end" transform="translate(-7,556.8461538461539)" font-family="sans-serif" font-size="10px" fill="#000" opacity="1">2M</text><text text-anchor="end" transform="translate(-7,510.6923076923077)" font-family="sans-serif" font-size="10px" fill="#000" opacity="1">4M</text><text text-anchor="end" transform="translate(-7,464.5384615384615)" font-family="sans-serif" font-size="10px" fill="#000" opacity="1">6M</text><text text-anchor="end" transform="translate(-7,418.38461538461536)" font-family="sans-serif" font-size="10px" fill="#000" opacity="1">8M</text><text text-anchor="end" transform="translate(-7,372.2307692307692)" font-family="sans-serif" font-size="10px" fill="#000" opacity="1">10M</text><text text-anchor="end" transform="translate(-7,326.07692307692304)" font-family="sans-serif" font-size="10px" fill="#000" opacity="1">12M</text><text text-anchor="end" transform="translate(-7,279.92307692307696)" font-family="sans-serif" font-size="10px" fill="#000" opacity="1">14M</text><text text-anchor="end" transform="translate(-7,233.76923076923075)" font-family="sans-serif" font-size="10px" fill="#000" opacity="1">16M</text><text text-anchor="end" transform="translate(-7,187.6153846153846)" font-family="sans-serif" font-size="10px" fill="#000" opacity="1">18M</text><text text-anchor="end" transform="translate(-7,141.46153846153842)" font-family="sans-serif" font-size="10px" fill="#000" opacity="1">20M</text><text text-anchor="end" transform="translate(-7,95.3076923076923)" font-family="sans-serif" font-size="10px" fill="#000" opacity="1">22M</text><text text-anchor="end" transform="translate(-7,49.153846153846125)" font-family="sans-serif" font-size="10px" fill="#000" opacity="1">24M</text><text text-anchor="end" transform="translate(-7,3)" font-family="sans-serif" font-size="10px" fill="#000" opacity="1">26M</text></g><g class="mark-rule role-axis-domain" pointer-events="none"><line transform="translate(0,600)" x2="0" y2="-600" stroke="#888" stroke-width="1" opacity="1"></line></g><g class="mark-text role-axis-title" pointer-events="none"><text text-anchor="middle" transform="translate(-32.4990234375,300) rotate(-90) translate(0,-2)" font-family="sans-serif" font-size="11px" font-weight="bold" fill="#000" opacity="1">Mean of Salary</text></g></g><path class="foreground" aria-hidden="true" d="" pointer-events="none" display="none"></path></g></g><g class="mark-rect role-mark marks" role="graphics-object" aria-roledescription="rect mark container"><path aria-label="Country: Albania; Mean of Salary: 2.00652M" role="graphics-symbol" aria-roledescription="bar" d="M668.3333333333335,553.695652173913h30.000000000000004v46.304347826086996h-30.000000000000004Z" fill="#4c78a8"></path><path aria-label="Country: France; Mean of Salary: 21.1739M" role="graphics-symbol" aria-roledescription="bar" d="M68.33333333333336,111.37123745819397h30.000000000000004v488.62876254180605h-30.000000000000004Z" fill="#4c78a8"></path><path aria-label="Country: Romania; Mean of Salary: 2.37826M" role="graphics-symbol" aria-roledescription="bar" d="M635,545.1170568561873h30.000000000000004v54.88294314381267h-30.000000000000004Z" fill="#4c78a8"></path><path aria-label="Country: Switzerland; Mean of Salary: 7.60217M" role="graphics-symbol" aria-roledescription="bar" d="M335.00000000000006,424.5652173913043h30.000000000000004v175.43478260869568h-30.000000000000004Z" fill="#4c78a8"></path><path aria-label="Country: England; Mean of Salary: 20.7391M" role="graphics-symbol" aria-roledescription="bar" d="M101.66666666666669,121.40468227424755h30.000000000000004v478.59531772575247h-30.000000000000004Z" fill="#4c78a8"></path><path aria-label="Country: Russia; Mean of Salary: 5.92174M" role="graphics-symbol" aria-roledescription="bar" d="M401.6666666666667,463.3444816053512h30.000000000000004v136.65551839464882h-30.000000000000004Z" fill="#4c78a8"></path><path aria-label="Country: Slovakia; Mean of Salary: 3.66957M" role="graphics-symbol" aria-roledescription="bar" d="M568.3333333333335,515.3177257525083h30.000000000000004v84.6822742474917h-30.000000000000004Z" fill="#4c78a8"></path><path aria-label="Country: Wales; Mean of Salary: 7.39565M" role="graphics-symbol" aria-roledescription="bar" d="M368.33333333333337,429.3311036789298h30.000000000000004v170.66889632107018h-30.000000000000004Z" fill="#4c78a8"></path><path aria-label="Country: Germany; Mean of Salary: 25.2174M" role="graphics-symbol" aria-roledescription="bar" d="M1.6666666666666856,18.060200668896307h30.000000000000004v581.9397993311037h-30.000000000000004Z" fill="#4c78a8"></path><path aria-label="Country: Northern Ireland; Mean of Salary: 1.65652M" role="graphics-symbol" aria-roledescription="bar" d="M735,561.7725752508361h30.000000000000004v38.2274247491639h-30.000000000000004Z" fill="#4c78a8"></path><path aria-label="Country: Poland; Mean of Salary: 8.41087M" role="graphics-symbol" aria-roledescription="bar" d="M268.33333333333337,405.90301003344484h30.000000000000004v194.09698996655516h-30.000000000000004Z" fill="#4c78a8"></path><path aria-label="Country: Ukraine; Mean of Salary: 5.37391M" role="graphics-symbol" aria-roledescription="bar" d="M468.33333333333337,475.98662207357864h30.000000000000004v124.01337792642136h-30.000000000000004Z" fill="#4c78a8"></path><path aria-label="Country: Croatia; Mean of Salary: 11.8370M" role="graphics-symbol" aria-roledescription="bar" d="M201.66666666666669,326.83946488294316h30.000000000000004v273.16053511705684h-30.000000000000004Z" fill="#4c78a8"></path><path aria-label="Country: Czech Republic; Mean of Salary: 2.80217M" role="graphics-symbol" aria-roledescription="bar" d="M601.6666666666667,535.3344481605351h30.000000000000004v64.66555183946491h-30.000000000000004Z" fill="#4c78a8"></path><path aria-label="Country: Spain; Mean of Salary: 24.2391M" role="graphics-symbol" aria-roledescription="bar" d="M35.00000000000002,40.63545150501673h30.000000000000004v559.3645484949833h-30.000000000000004Z" fill="#4c78a8"></path><path aria-label="Country: Turkey; Mean of Salary: 8.08913M" role="graphics-symbol" aria-roledescription="bar" d="M301.6666666666667,413.32775919732444h30.000000000000004v186.67224080267556h-30.000000000000004Z" fill="#4c78a8"></path><path aria-label="Country: Belgium; Mean of Salary: 20.0391M" role="graphics-symbol" aria-roledescription="bar" d="M135.00000000000003,137.55852842809364h30.000000000000004v462.4414715719064h-30.000000000000004Z" fill="#4c78a8"></path><path aria-label="Country: Italy; Mean of Salary: 11.8261M" role="graphics-symbol" aria-roledescription="bar" d="M235.00000000000003,327.0903010033445h30.000000000000004v272.9096989966555h-30.000000000000004Z" fill="#4c78a8"></path><path aria-label="Country: Republic of Ireland; Mean of Salary: 3.88261M" role="graphics-symbol" aria-roledescription="bar" d="M501.66666666666674,510.40133779264215h30.000000000000004v89.59866220735785h-30.000000000000004Z" fill="#4c78a8"></path><path aria-label="Country: Sweden; Mean of Salary: 3.77609M" role="graphics-symbol" aria-roledescription="bar" d="M535,512.8595317725753h30.000000000000004v87.14046822742466h-30.000000000000004Z" fill="#4c78a8"></path><path aria-label="Country: Austria; Mean of Salary: 5.58043M" role="graphics-symbol" aria-roledescription="bar" d="M435.00000000000006,471.22073578595314h30.000000000000004v128.77926421404686h-30.000000000000004Z" fill="#4c78a8"></path><path aria-label="Country: Hungary; Mean of Salary: 1.18696M" role="graphics-symbol" aria-roledescription="bar" d="M768.3333333333335,572.608695652174h30.000000000000004v27.391304347826008h-30.000000000000004Z" fill="#4c78a8"></path><path aria-label="Country: Iceland; Mean of Salary: 1.80652M" role="graphics-symbol" aria-roledescription="bar" d="M701.6666666666667,558.3110367892976h30.000000000000004v41.688963210702354h-30.000000000000004Z" fill="#4c78a8"></path><path aria-label="Country: Portugal; Mean of Salary: 13.9870M" role="graphics-symbol" aria-roledescription="bar" d="M168.33333333333337,277.2240802675585h30.000000000000004v322.7759197324415h-30.000000000000004Z" fill="#4c78a8"></path></g></g><path class="foreground" aria-hidden="true" d="" display="none"></path></g></g></g></svg>