<svg xmlns="http://www.w3.org/2000/svg" xmlns:xlink="http://www.w3.org/1999/xlink" version="1.1" class="marks" width="982" height="664" viewBox="0 0 982 664" style="background-color: white;"><g fill="none" stroke-miterlimit="10" transform="translate(45,27)"><g class="mark-group role-frame root" role="graphics-object" aria-roledescription="group mark container"><g transform="translate(0,0)"><path class="background" aria-hidden="true" d="M0.5,0.5h800v600h-800Z" fill="transparent" stroke="#ddd"></path><g><g class="mark-group role-axis" aria-hidden="true"><g transform="translate(0.5,600.5)"><path class="background" aria-hidden="true" d="M0,0h0v0h0Z" pointer-events="none"></path><g><g class="mark-rule role-axis-grid" pointer-events="none"><line transform="translate(4,-600)" x2="0" y2="600" stroke="#ddd" stroke-width="1" opacity="1"></line><line transform="translate(72,-600)" x2="0" y2="600" stroke="#ddd" stroke-width="1" opacity="1"></line><line transform="translate(132,-600)" x2="0" y2="600" stroke="#ddd" stroke-width="1" opacity="1"></line><line transform="translate(200,-600)" x2="0" y2="600" stroke="#ddd" stroke-width="1" opacity="1"></line><line transform="translate(265,-600)" x2="0" y2="600" stroke="#ddd" stroke-width="1" opacity="1"></line><line transform="translate(332,-600)" x2="0" y2="600" stroke="#ddd" stroke-width="1" opacity="1"></line><line transform="translate(397,-600)" x2="0" y2="600" stroke="#ddd" stroke-width="1" opacity="1"></line><line transform="translate(464,-600)" x2="0" y2="600" stroke="#ddd" stroke-width="1" opacity="1"></line><line transform="translate(532,-600)" x2="0" y2="600" stroke="#ddd" stroke-width="1" opacity="1"></line><line transform="translate(597,-600)" x2="0" y2="600" stroke="#ddd" stroke-width="1" opacity="1"></line><line transform="translate(664,-600)" x2="0" y2="600" stroke="#ddd" stroke-width="1" opacity="1"></line><line transform="translate(729,-600)" x2="0" y2="600" stroke="#ddd" stroke-width="1" opacity="1"></line><line transform="translate(796,-600)" x2="0" y2="600" stroke="#ddd" stroke-width="1" opacity="1"></line></g></g><path class="foreground" aria-hidden="true" d="" pointer-events="none" display="none"></path></g></g><g class="mark-group role-axis" aria-hidden="true"><g transform="translate(0.5,0.5)"><path class="background" aria-hidden="true" d="M0,0h0v0h0Z" pointer-events="none"></path><g><g class="mark-rule role-axis-grid" pointer-events="none"><line transform="translate(0,600)" x2="800" y2="0" stroke="#ddd" stroke-width="1" opacity="1"></line><line transform="translate(0,570)" x2="800" y2="0" stroke="#ddd" stroke-width="1" opacity="1"></line><line transform="translate(0,540)" x2="800" y2="0" stroke="#ddd" stroke-width="1" opacity="1"></line><line transform="translate(0,510)" x2="800" y2="0" stroke="#ddd" stroke-width="1" opacity="1"></line><line transform="translate(0,480)" x2="800" y2="0" stroke="#ddd" stroke-width="1" opacity="1"></line><line transform="translate(0,450)" x2="800" y2="0" stroke="#ddd" stroke-width="1" opacity="1"></line><line transform="translate(0,420)" x2="800" y2="0" stroke="#ddd" stroke-width="1" opacity="1"></line><line transform="translate(0,390)" x2="800" y2="0" stroke="#ddd" stroke-width="1" opacity="1"></line><line transform="translate(0,360)" x2="800" y2="0" stroke="#ddd" stroke-width="1" opacity="1"></line><line transform="translate(0,330)" x2="800" y2="0" stroke="#ddd" stroke-width="1" opacity="1"></line><line transform="translate(0,300)" x2="800" y2="0" stroke="#ddd" stroke-width="1" opacity="1"></line><line transform="translate(0,270)" x2="800" y2="0" stroke="#ddd" stroke-width="1" opacity="1"></line><line transform="translate(0,240)" x2="800" y2="0" stroke="#ddd" stroke-width="1" opacity="1"></line><line transform="translate(0,210)" x2="800" y2="0" stroke="#ddd" stroke-width="1" opacity="1"></line><line transform="translate(0,180)" x2="800" y2="0" stroke="#ddd" stroke-width="1" opacity="1"></line><line transform="translate(0,150)" x2="800" y2="0" stroke="#ddd" stroke-width="1" opacity="1"></line><line transform="translate(0,120)" x2="800" y2="0" stroke="#ddd" stroke-width="1" opacity="1"></line><line transform="translate(0,90)" x2="800" y2="0" stroke="#ddd" stroke-width="1" opacity="1"></line><line transform="translate(0,60)" x2="800" y2="0" stroke="#ddd" stroke-width="1" opacity="1"></line><line transform="translate(0,30)" x2="800" y2="0" stroke="#ddd" stroke-width="1" opacity="1"></line><line transform="translate(0,0)" x2="800" y2="0" stroke="#ddd" stroke-width="1" opacity="1"></line></g></g><path class="foreground" aria-hidden="true" d="" pointer-events="none" display="none"></path></g></g><g class="mark-group role-axis" role="graphics-symbol" aria-roledescription="axis" aria-label="X-axis titled 'Datum' for a time scale with values from Friday, 30 December 2022, 12:42:31 AM to Tuesday, 02 January 2024, 3:17:28 PM"><g transform="translate(0.5,600.5)"><path class="background" aria-hidden="true" d="M0,0h0v0h0Z" pointer-events="none"></path><g><g class="mark-rule role-axis-tick" pointer-events="none"><line transform="translate(4,0)" x2="0" y2="5" stroke="#888" stroke-width="1" opacity="1"></line><line transform="translate(72,0)" x2="0" y2="5" stroke="#888" stroke-width="1" opacity="1"></line><line transform="translate(132,0)" x2="0" y2="5" stroke="#888" stroke-width="1" opacity="1"></line><line transform="translate(200,0)" x2="0" y2="5" stroke="#888" stroke-width="1" opacity="1"></line><line transform="translate(265,0)" x2="0" y2="5" stroke="#888" stroke-width="1" opacity="1"></line><line transform="translate(332,0)" x2="0" y2="5" stroke="#888" stroke-width="1" opacity="1"></line><line transform="translate(397,0)" x2="0" y2="5" stroke="#888" stroke-width="1" opacity="1"></line><line transform="translate(464,0)" x2="0" y2="5" stroke="#888" stroke-width="1" opacity="1"></line><line transform="translate(532,0)" x2="0" y2="5" stroke="#888" stroke-width="1" opacity="1"></line><line transform="translate(597,0)" x2="0" y2="5" stroke="#888" stroke-width="1" opacity="1"></line><line transform="translate(664,0)" x2="0" y2="5" stroke="#888" stroke-width="1" opacity="1"></line><line transform="translate(729,0)" x2="0" y2="5" stroke="#888" stroke-width="1" opacity="1"></line><line transform="translate(796,0)" x2="0" y2="5" stroke="#888" stroke-width="1" opacity="1"></line></g><g class="mark-text role-axis-label" pointer-events="none"><text text-anchor="middle" transform="translate(4.276556794936091,15)" font-family="sans-serif" font-size="10px" fill="#000" opacity="1">2023</text><text text-anchor="middle" transform="translate(71.55677657416645,15)" font-family="sans-serif" font-size="10px" fill="#000" opacity="1">February</text><text text-anchor="middle" transform="translate(132.32600734250352,15)" font-family="sans-serif" font-size="10px" fill="#000" opacity="1">March</text><text text-anchor="middle" transform="translate(199.6062271217339,15)" font-family="sans-serif" font-size="10px" fill="#000" opacity="1">April</text><text text-anchor="middle" transform="translate(264.7161172306665,15)" font-family="sans-serif" font-size="10px" fill="#000" opacity="1">May</text><text text-anchor="middle" transform="translate(331.9963370098968,15)" font-family="sans-serif" font-size="10px" fill="#000" opacity="1">June</text><text text-anchor="middle" transform="translate(397.10622711882945,15)" font-family="sans-serif" font-size="10px" fill="#000" opacity="1">July</text><text text-anchor="middle" transform="translate(464.38644689805983,15)" font-family="sans-serif" font-size="10px" fill="#000" opacity="1">August</text><text text-anchor="middle" transform="translate(531.6666666772901,15)" font-family="sans-serif" font-size="10px" fill="#000" opacity="1">September</text><text text-anchor="middle" transform="translate(596.7765567862227,15)" font-family="sans-serif" font-size="10px" fill="#000" opacity="1">October</text><text text-anchor="middle" transform="translate(664.0567765654531,15)" font-family="sans-serif" font-size="10px" fill="#000" opacity="1">November</text><text text-anchor="middle" transform="translate(729.1666666743856,15)" font-family="sans-serif" font-size="10px" fill="#000" opacity="1">December</text><text text-anchor="middle" transform="translate(796.446886453616,15)" font-family="sans-serif" font-size="10px" fill="#000" opacity="1">2024</text></g><g class="mark-rule role-axis-domain" pointer-events="none"><line transform="translate(0,0)" x2="800" y2="0" stroke="#888" stroke-width="1" opacity="1"></line></g><g class="mark-text role-axis-title" pointer-events="none"><text text-anchor="middle" transform="translate(400,30)" font-family="sans-serif" font-size="11px" font-weight="bold" fill="#000" opacity="1">Datum</text></g></g><path class="foreground" aria-hidden="true" d="" pointer-events="none" display="none"></path></g></g><g class="mark-group role-axis" role="graphics-symbol" aria-roledescription="axis" aria-label="Y-axis titled 'Vulniveau (%)' for a linear scale with values from 0 to 100"><g transform="translate(0.5,0.5)"><path class="background" aria-hidden="true" d="M0,0h0v0h0Z" pointer-events="none"></path><g><g class="mark-rule role-axis-tick" pointer-events="none"><line transform="translate(0,600)" x2="-5" y2="0" stroke="#888" stroke-width="1" opacity="1"></line><line transform="translate(0,570)" x2="-5" y2="0" stroke="#888" stroke-width="1" opacity="1"></line><line transform="translate(0,540)" x2="-5" y2="0" stroke="#888" stroke-width="1" opacity="1"></line><line transform="translate(0,510)" x2="-5" y2="0" stroke="#888" stroke-width="1" opacity="1"></line><line transform="translate(0,480)" x2="-5" y2="0" stroke="#888" stroke-width="1" opacity="1"></line><line transform="translate(0,450)" x2="-5" y2="0" stroke="#888" stroke-width="1" opacity="1"></line><line transform="translate(0,420)" x2="-5" y2="0" stroke="#888" stroke-width="1" opacity="1"></line><line transform="translate(0,390)" x2="-5" y2="0" stroke="#888" stroke-width="1" opacity="1"></line><line transform="translate(0,360)" x2="-5" y2="0" stroke="#888" stroke-width="1" opacity="1"></line><line transform="translate(0,330)" x2="-5" y2="0" stroke="#888" stroke-width="1" opacity="1"></line><line transform="translate(0,300)" x2="-5" y2="0" stroke="#888" stroke-width="1" opacity="1"></line><line transform="translate(0,270)" x2="-5" y2="0" stroke="#888" stroke-width="1" opacity="1"></line><line transform="translate(0,240)" x2="-5" y2="0" stroke="#888" stroke-width="1" opacity="1"></line><line transform="translate(0,210)" x2="-5" y2="0" stroke="#888" stroke-width="1" opacity="1"></line><line transform="translate(0,180)" x2="-5" y2="0" stroke="#888" stroke-width="1" opacity="1"></line><line transform="translate(0,150)" x2="-5" y2="0" stroke="#888" stroke-width="1" opacity="1"></line><line transform="translate(0,120)" x2="-5" y2="0" stroke="#888" stroke-width="1" opacity="1"></line><line transform="translate(0,90)" x2="-5" y2="0" stroke="#888" stroke-width="1" opacity="1"></line><line transform="translate(0,60)" x2="-5" y2="0" stroke="#888" stroke-width="1" opacity="1"></line><line transform="translate(0,30)" x2="-5" y2="0" stroke="#888" stroke-width="1" opacity="1"></line><line transform="translate(0,0)" x2="-5" y2="0" stroke="#888" stroke-width="1" opacity="1"></line></g><g class="mark-text role-axis-label" pointer-events="none"><text text-anchor="end" transform="translate(-7,603)" font-family="sans-serif" font-size="10px" fill="#000" opacity="1">0</text><text text-anchor="end" transform="translate(-7,573)" font-family="sans-serif" font-size="10px" fill="#000" opacity="1">5</text><text text-anchor="end" transform="translate(-7,543)" font-family="sans-serif" font-size="10px" fill="#000" opacity="1">10</text><text text-anchor="end" transform="translate(-7,513)" font-family="sans-serif" font-size="10px" fill="#000" opacity="1">15</text><text text-anchor="end" transform="translate(-7,483)" font-family="sans-serif" font-size="10px" fill="#000" opacity="1">20</text><text text-anchor="end" transform="translate(-7,453)" font-family="sans-serif" font-size="10px" fill="#000" opacity="1">25</text><text text-anchor="end" transform="translate(-7,423)" font-family="sans-serif" font-size="10px" fill="#000" opacity="1">30</text><text text-anchor="end" transform="translate(-7,393)" font-family="sans-serif" font-size="10px" fill="#000" opacity="1">35</text><text text-anchor="end" transform="translate(-7,363)" font-family="sans-serif" font-size="10px" fill="#000" opacity="1">40</text><text text-anchor="end" transform="translate(-7,333)" font-family="sans-serif" font-size="10px" fill="#000" opacity="1">45</text><text text-anchor="end" transform="translate(-7,303)" font-family="sans-serif" font-size="10px" fill="#000" opacity="1">50</text><text text-anchor="end" transform="translate(-7,273)" font-family="sans-serif" font-size="10px" fill="#000" opacity="1">55</text><text text-anchor="end" transform="translate(-7,243)" font-family="sans-serif" font-size="10px" fill="#000" opacity="1">60</text><text text-anchor="end" transform="translate(-7,213)" font-family="sans-serif" font-size="10px" fill="#000" opacity="1">65</text><text text-anchor="end" transform="translate(-7,183.00000000000003)" font-family="sans-serif" font-size="10px" fill="#000" opacity="1">70</text><text text-anchor="end" transform="translate(-7,153)" font-family="sans-serif" font-size="10px" fill="#000" opacity="1">75</text><text text-anchor="end" transform="translate(-7,122.99999999999997)" font-family="sans-serif" font-size="10px" fill="#000" opacity="1">80</text><text text-anchor="end" transform="translate(-7,93.00000000000001)" font-family="sans-serif" font-size="10px" fill="#000" opacity="1">85</text><text text-anchor="end" transform="translate(-7,62.999999999999986)" font-family="sans-serif" font-size="10px" fill="#000" opacity="1">90</text><text text-anchor="end" transform="translate(-7,33.00000000000003)" font-family="sans-serif" font-size="10px" fill="#000" opacity="1">95</text><text text-anchor="end" transform="translate(-7,3)" font-family="sans-serif" font-size="10px" fill="#000" opacity="1">100</text></g><g class="mark-rule role-axis-domain" pointer-events="none"><line transform="translate(0,600)" x2="0" y2="-600" stroke="#888" stroke-width="1" opacity="1"></line></g><g class="mark-text role-axis-title" pointer-events="none"><text text-anchor="middle" transform="translate(-28.5927734375,300) rotate(-90) translate(0,-2)" font-family="sans-serif" font-size="11px" font-weight="bold" fill="#000" opacity="1">Vulniveau (%)</text></g></g><path class="foreground" aria-hidden="true" d="" pointer-events="none" display="none"></path></g></g><g class="mark-group role-axis" role="graphics-symbol" aria-roledescription="axis" aria-label="Y-axis titled 'Gastoevoer (GWh/week)' for a linear scale with values from −15,000 to 15,000"><g transform="translate(800.5,0.5)"><path class="background" aria-hidden="true" d="M0,0h0v0h0Z" pointer-events="none"></path><g><g class="mark-rule role-axis-tick" pointer-events="none"><line transform="translate(0,580)" x2="5" y2="0" stroke="#888" stroke-width="1" opacity="1"></line><line transform="translate(0,540)" x2="5" y2="0" stroke="#888" stroke-width="1" opacity="1"></line><line transform="translate(0,500)" x2="5" y2="0" stroke="#888" stroke-width="1" opacity="1"></line><line transform="translate(0,460)" x2="5" y2="0" stroke="#888" stroke-width="1" opacity="1"></line><line transform="translate(0,420)" x2="5" y2="0" stroke="#888" stroke-width="1" opacity="1"></line><line transform="translate(0,380)" x2="5" y2="0" stroke="#888" stroke-width="1" opacity="1"></line><line transform="translate(0,340)" x2="5" y2="0" stroke="#888" stroke-width="1" opacity="1"></line><line transform="translate(0,300)" x2="5" y2="0" stroke="#888" stroke-width="1" opacity="1"></line><line transform="translate(0,260)" x2="5" y2="0" stroke="#888" stroke-width="1" opacity="1"></line><line transform="translate(0,220)" x2="5" y2="0" stroke="#888" stroke-width="1" opacity="1"></line><line transform="translate(0,180)" x2="5" y2="0" stroke="#888" stroke-width="1" opacity="1"></line><line transform="translate(0,140)" x2="5" y2="0" stroke="#888" stroke-width="1" opacity="1"></line><line transform="translate(0,100)" x2="5" y2="0" stroke="#888" stroke-width="1" opacity="1"></line><line transform="translate(0,60)" x2="5" y2="0" stroke="#888" stroke-width="1" opacity="1"></line><line transform="translate(0,20)" x2="5" y2="0" stroke="#888" stroke-width="1" opacity="1"></line></g><g class="mark-text role-axis-label" pointer-events="none"><text text-anchor="start" transform="translate(7,583)" font-family="sans-serif" font-size="10px" fill="#000" opacity="1">−14,000</text><text text-anchor="start" transform="translate(7,543)" font-family="sans-serif" font-size="10px" fill="#000" opacity="1">−12,000</text><text text-anchor="start" transform="translate(7,503)" font-family="sans-serif" font-size="10px" fill="#000" opacity="1">−10,000</text><text text-anchor="start" transform="translate(7,462.99999999999994)" font-family="sans-serif" font-size="10px" fill="#000" opacity="1">−8,000</text><text text-anchor="start" transform="translate(7,423)" font-family="sans-serif" font-size="10px" fill="#000" opacity="1">−6,000</text><text text-anchor="start" transform="translate(7,383)" font-family="sans-serif" font-size="10px" fill="#000" opacity="1">−4,000</text><text text-anchor="start" transform="translate(7,343)" font-family="sans-serif" font-size="10px" fill="#000" opacity="1">−2,000</text><text text-anchor="start" transform="translate(7,303)" font-family="sans-serif" font-size="10px" fill="#000" opacity="1">0</text><text text-anchor="start" transform="translate(7,263)" font-family="sans-serif" font-size="10px" fill="#000" opacity="1">2,000</text><text text-anchor="start" transform="translate(7,223.00000000000003)" font-family="sans-serif" font-size="10px" fill="#000" opacity="1">4,000</text><text text-anchor="start" transform="translate(7,183.00000000000003)" font-family="sans-serif" font-size="10px" fill="#000" opacity="1">6,000</text><text text-anchor="start" transform="translate(7,142.99999999999997)" font-family="sans-serif" font-size="10px" fill="#000" opacity="1">8,000</text><text text-anchor="start" transform="translate(7,102.99999999999997)" font-family="sans-serif" font-size="10px" fill="#000" opacity="1">10,000</text><text text-anchor="start" transform="translate(7,62.999999999999986)" font-family="sans-serif" font-size="10px" fill="#000" opacity="1">12,000</text><text text-anchor="start" transform="translate(7,22.999999999999996)" font-family="sans-serif" font-size="10px" fill="#000" opacity="1">14,000</text></g><g class="mark-rule role-axis-domain" pointer-events="none"><line transform="translate(0,600)" x2="0" y2="-600" stroke="#888" stroke-width="1" opacity="1"></line></g><g class="mark-text role-axis-title" pointer-events="none"><text text-anchor="middle" transform="translate(50.1455078125,300) rotate(90) translate(0,-2)" font-family="sans-serif" font-size="11px" font-weight="bold" fill="#000" opacity="1">Gastoevoer (GWh/week)</text></g></g><path class="foreground" aria-hidden="true" d="" pointer-events="none" display="none"></path></g></g><g class="mark-line role-mark layer_0_marks" role="graphics-object" aria-roledescription="line mark container" clip-path="url(#clip1)"><path aria-label="gasDayStart: Jan 01, 2023; full: 77.23" role="graphics-symbol" aria-roledescription="line mark" d="M4.277,136.62L6.447,137.16L8.617,137.52L10.788,137.94L12.958,138.78L15.128,139.2L17.299,139.56L19.469,139.86L21.639,141.3L23.81,142.14L25.98,142.8L28.15,143.52L30.321,144.42L32.491,145.14L34.661,146.22L36.832,148.32L39.002,150.9L41.172,153.96L43.342,156.84L45.513,160.14L47.683,162.78L49.853,165.36L52.024,168.3L54.194,171.06L56.364,174.54L58.535,177.66L60.705,180L62.875,182.82L65.046,185.34L67.216,187.44L69.386,189.06L71.557,190.92L73.727,192.3L75.897,193.56L78.068,194.58L80.238,195.72L82.408,198.06L84.579,200.58L86.749,203.4L88.919,206.16L91.09,207.84L93.26,209.52L95.43,210.9L97.601,212.28L99.771,213.78L101.941,214.98L104.112,215.4L106.282,215.1L108.452,215.16L110.623,215.34L112.793,216.12L114.963,217.26L117.134,217.62L119.304,217.98L121.474,218.58L123.645,219.18L125.815,220.2L127.985,222.06L130.156,223.68L132.326,226.2L134.496,228.42L136.667,230.58L138.837,232.32L141.007,241.98L143.178,237.24L145.348,239.64L147.518,242.4L149.689,244.14L151.859,245.7L154.029,246.6L156.2,246.66L158.37,245.88L160.54,246.12L162.711,247.86L164.881,248.76L167.051,248.46L169.222,247.86L171.392,247.44L173.562,247.98L175.733,248.4L177.903,248.22L180.073,247.98L182.244,247.32L184.414,246.66L186.584,246.3L188.755,246.72L190.925,247.38L193.095,247.56L195.266,246.36L197.436,245.1L199.606,251.58L201.777,250.14L203.947,249.6L206.117,249.12L208.288,248.52L210.458,248.34L212.628,247.86L214.799,246.96L216.969,245.7L219.139,244.44L221.31,243.42L223.48,243.12L225.65,243.3L227.821,242.88L229.991,241.74L232.161,240.84L234.332,240.18L236.502,239.76L238.672,239.4L240.842,239.4L243.013,238.32L245.183,237.3L247.353,235.98L249.524,235.44L251.694,235.44L253.864,235.8L256.035,235.14L258.205,234.3L260.375,232.8L262.546,231.12L264.716,232.14L266.886,231.36L269.057,230.52L271.227,229.2L273.397,227.64L275.568,226.14L277.738,224.76L279.908,223.5L282.079,222.42L284.249,221.28L286.419,220.2L288.59,218.46L290.76,216.54L292.93,214.74L295.101,213.54L297.271,212.4L299.441,210.84L301.612,208.98L303.782,206.88L305.952,204.78L308.123,202.86L310.293,201.24L312.463,199.8L314.634,199.02L316.804,197.76L318.974,196.26L321.145,194.64L323.315,192.84L325.485,190.98L327.656,190.14L329.826,188.94L331.996,187.14L334.167,185.28L336.337,183.3L338.507,181.2L340.678,179.82L342.848,178.14L345.018,176.22L347.189,174L349.359,171.6" stroke="red" stroke-width="2"></path></g><g class="mark-rect role-mark layer_1_marks" role="graphics-object" aria-roledescription="rect mark container" clip-path="url(#clip2)"><path aria-label="gasDayStart: Jan 01, 2023; value: 184; variable: injectie" role="graphics-symbol" aria-roledescription="bar" d="M1.7765567949360914,296.32h5v3.680000000000007h-5Z" fill="#f58518" opacity="0.6"></path><path aria-label="gasDayStart: Jan 08, 2023; value: 379; variable: injectie" role="graphics-symbol" aria-roledescription="bar" d="M16.968864487020365,292.41999999999996h5v7.580000000000041h-5Z" fill="#f58518" opacity="0.6"></path><path aria-label="gasDayStart: Jan 15, 2023; value: 273; variable: injectie" role="graphics-symbol" aria-roledescription="bar" d="M32.16117217910464,294.54h5v5.4599999999999795h-5Z" fill="#f58518" opacity="0.6"></path><path aria-label="gasDayStart: Jan 22, 2023; value: 245; variable: injectie" role="graphics-symbol" aria-roledescription="bar" d="M47.35347987118891,295.1h5v4.899999999999977h-5Z" fill="#f58518" opacity="0.6"></path><path aria-label="gasDayStart: Jan 29, 2023; value: 419; variable: injectie" role="graphics-symbol" aria-roledescription="bar" d="M62.54578756327318,291.62h5v8.379999999999995h-5Z" fill="#f58518" opacity="0.6"></path><path aria-label="gasDayStart: Feb 05, 2023; value: 300; variable: injectie" role="graphics-symbol" aria-roledescription="bar" d="M77.73809525535745,294h5v6h-5Z" fill="#f58518" opacity="0.6"></path><path aria-label="gasDayStart: Feb 12, 2023; value: 331; variable: injectie" role="graphics-symbol" aria-roledescription="bar" d="M92.93040294744173,293.38h5v6.6200000000000045h-5Z" fill="#f58518" opacity="0.6"></path><path aria-label="gasDayStart: Feb 19, 2023; value: 462; variable: injectie" role="graphics-symbol" aria-roledescription="bar" d="M108.122710639526,290.76h5v9.240000000000009h-5Z" fill="#f58518" opacity="0.6"></path><path aria-label="gasDayStart: Feb 26, 2023; value: 407; variable: injectie" role="graphics-symbol" aria-roledescription="bar" d="M123.31501833161029,291.86h5v8.139999999999986h-5Z" fill="#f58518" opacity="0.6"></path><path aria-label="gasDayStart: Mar 05, 2023; value: 418; variable: injectie" role="graphics-symbol" aria-roledescription="bar" d="M138.50732602369453,291.64h5v8.360000000000014h-5Z" fill="#f58518" opacity="0.6"></path><path aria-label="gasDayStart: Mar 12, 2023; value: 367; variable: injectie" role="graphics-symbol" aria-roledescription="bar" d="M153.69963371577882,292.66h5v7.339999999999975h-5Z" fill="#f58518" opacity="0.6"></path><path aria-label="gasDayStart: Mar 19, 2023; value: 917; variable: injectie" role="graphics-symbol" aria-roledescription="bar" d="M168.8919414078631,281.66h5v18.339999999999975h-5Z" fill="#f58518" opacity="0.6"></path><path aria-label="gasDayStart: Mar 26, 2023; value: 1138; variable: injectie" role="graphics-symbol" aria-roledescription="bar" d="M184.08424909994739,277.23999999999995h5v22.760000000000048h-5Z" fill="#f58518" opacity="0.6"></path><path aria-label="gasDayStart: Apr 02, 2023; value: 1547; variable: injectie" role="graphics-symbol" aria-roledescription="bar" d="M199.27655679203164,269.06h5v30.939999999999998h-5Z" fill="#f58518" opacity="0.6"></path><path aria-label="gasDayStart: Apr 09, 2023; value: 1531; variable: injectie" role="graphics-symbol" aria-roledescription="bar" d="M214.4688644841159,269.38h5v30.620000000000005h-5Z" fill="#f58518" opacity="0.6"></path><path aria-label="gasDayStart: Apr 16, 2023; value: 1425; variable: injectie" role="graphics-symbol" aria-roledescription="bar" d="M229.6611721762002,271.5h5v28.5h-5Z" fill="#f58518" opacity="0.6"></path><path aria-label="gasDayStart: Apr 23, 2023; value: 1788; variable: injectie" role="graphics-symbol" aria-roledescription="bar" d="M244.85347986828447,264.24h5v35.75999999999999h-5Z" fill="#f58518" opacity="0.6"></path><path aria-label="gasDayStart: Apr 30, 2023; value: 2161; variable: injectie" role="graphics-symbol" aria-roledescription="bar" d="M260.04578756036875,256.78000000000003h5v43.21999999999997h-5Z" fill="#f58518" opacity="0.6"></path><path aria-label="gasDayStart: May 07, 2023; value: 2378; variable: injectie" role="graphics-symbol" aria-roledescription="bar" d="M275.238095252453,252.43999999999997h5v47.56000000000003h-5Z" fill="#f58518" opacity="0.6"></path><path aria-label="gasDayStart: May 14, 2023; value: 2433; variable: injectie" role="graphics-symbol" aria-roledescription="bar" d="M290.4304029445373,251.34000000000003h5v48.65999999999997h-5Z" fill="#f58518" opacity="0.6"></path><path aria-label="gasDayStart: May 21, 2023; value: 2968; variable: injectie" role="graphics-symbol" aria-roledescription="bar" d="M305.62271063662155,240.64000000000001h5v59.359999999999985h-5Z" fill="#f58518" opacity="0.6"></path><path aria-label="gasDayStart: May 28, 2023; value: 2638; variable: injectie" role="graphics-symbol" aria-roledescription="bar" d="M320.81501832870583,247.24h5v52.75999999999999h-5Z" fill="#f58518" opacity="0.6"></path><path aria-label="gasDayStart: Jun 04, 2023; value: 3033; variable: injectie" role="graphics-symbol" aria-roledescription="bar" d="M336.0073260207901,239.34000000000003h5v60.65999999999997h-5Z" fill="#f58518" opacity="0.6"></path><path aria-label="gasDayStart: Jun 11, 2023; value: 2439; variable: injectie" role="graphics-symbol" aria-roledescription="bar" d="M351.1996337128744,251.21999999999997h5v48.78000000000003h-5Z" fill="#f58518" opacity="0.6"></path><path aria-label="gasDayStart: Jan 01, 2023; value: −64; variable: afname" role="graphics-symbol" aria-roledescription="bar" d="M1.7765567949360914,300h5v1.2799999999999727h-5Z" fill="#4c78a8" opacity="0.6"></path><path aria-label="gasDayStart: Jan 08, 2023; value: −1138; variable: afname" role="graphics-symbol" aria-roledescription="bar" d="M16.968864487020365,300h5v22.760000000000048h-5Z" fill="#4c78a8" opacity="0.6"></path><path aria-label="gasDayStart: Jan 15, 2023; value: −1746; variable: afname" role="graphics-symbol" aria-roledescription="bar" d="M32.16117217910464,300h5v34.920000000000016h-5Z" fill="#4c78a8" opacity="0.6"></path><path aria-label="gasDayStart: Jan 22, 2023; value: −4663; variable: afname" role="graphics-symbol" aria-roledescription="bar" d="M47.35347987118891,300h5v93.25999999999999h-5Z" fill="#4c78a8" opacity="0.6"></path><path aria-label="gasDayStart: Jan 29, 2023; value: −4930; variable: afname" role="graphics-symbol" aria-roledescription="bar" d="M62.54578756327318,300h5v98.60000000000002h-5Z" fill="#4c78a8" opacity="0.6"></path><path aria-label="gasDayStart: Feb 05, 2023; value: −2691; variable: afname" role="graphics-symbol" aria-roledescription="bar" d="M77.73809525535745,300h5v53.81999999999999h-5Z" fill="#4c78a8" opacity="0.6"></path><path aria-label="gasDayStart: Feb 12, 2023; value: −3732; variable: afname" role="graphics-symbol" aria-roledescription="bar" d="M92.93040294744173,300h5v74.64000000000004h-5Z" fill="#4c78a8" opacity="0.6"></path><path aria-label="gasDayStart: Feb 19, 2023; value: −1436; variable: afname" role="graphics-symbol" aria-roledescription="bar" d="M108.122710639526,300h5v28.720000000000027h-5Z" fill="#4c78a8" opacity="0.6"></path><path aria-label="gasDayStart: Feb 26, 2023; value: −1537; variable: afname" role="graphics-symbol" aria-roledescription="bar" d="M123.31501833161029,300h5v30.74000000000001h-5Z" fill="#4c78a8" opacity="0.6"></path><path aria-label="gasDayStart: Mar 05, 2023; value: −3575; variable: afname" role="graphics-symbol" aria-roledescription="bar" d="M138.50732602369453,300h5v71.5h-5Z" fill="#4c78a8" opacity="0.6"></path><path aria-label="gasDayStart: Mar 12, 2023; value: −3080; variable: afname" role="graphics-symbol" aria-roledescription="bar" d="M153.69963371577882,300h5v61.60000000000002h-5Z" fill="#4c78a8" opacity="0.6"></path><path aria-label="gasDayStart: Mar 19, 2023; value: −1057; variable: afname" role="graphics-symbol" aria-roledescription="bar" d="M168.8919414078631,300h5v21.139999999999986h-5Z" fill="#4c78a8" opacity="0.6"></path><path aria-label="gasDayStart: Mar 26, 2023; value: −1147; variable: afname" role="graphics-symbol" aria-roledescription="bar" d="M184.08424909994739,300h5v22.939999999999998h-5Z" fill="#4c78a8" opacity="0.6"></path><path aria-label="gasDayStart: Apr 02, 2023; value: −942; variable: afname" role="graphics-symbol" aria-roledescription="bar" d="M199.27655679203164,300h5v18.839999999999975h-5Z" fill="#4c78a8" opacity="0.6"></path><path aria-label="gasDayStart: Apr 09, 2023; value: −459; variable: afname" role="graphics-symbol" aria-roledescription="bar" d="M214.4688644841159,300h5v9.180000000000007h-5Z" fill="#4c78a8" opacity="0.6"></path><path aria-label="gasDayStart: Apr 16, 2023; value: −329; variable: afname" role="graphics-symbol" aria-roledescription="bar" d="M229.6611721762002,300h5v6.579999999999984h-5Z" fill="#4c78a8" opacity="0.6"></path><path aria-label="gasDayStart: Apr 23, 2023; value: −661; variable: afname" role="graphics-symbol" aria-roledescription="bar" d="M244.85347986828447,300h5v13.220000000000027h-5Z" fill="#4c78a8" opacity="0.6"></path><path aria-label="gasDayStart: Apr 30, 2023; value: −1061; variable: afname" role="graphics-symbol" aria-roledescription="bar" d="M260.04578756036875,300h5v21.21999999999997h-5Z" fill="#4c78a8" opacity="0.6"></path><path aria-label="gasDayStart: May 07, 2023; value: −290; variable: afname" role="graphics-symbol" aria-roledescription="bar" d="M275.238095252453,300h5v5.800000000000011h-5Z" fill="#4c78a8" opacity="0.6"></path><path aria-label="gasDayStart: May 14, 2023; value: −46; variable: afname" role="graphics-symbol" aria-roledescription="bar" d="M290.4304029445373,300h5v0.9200000000000159h-5Z" fill="#4c78a8" opacity="0.6"></path><path aria-label="gasDayStart: May 21, 2023; value: −176; variable: afname" role="graphics-symbol" aria-roledescription="bar" d="M305.62271063662155,300h5v3.5200000000000387h-5Z" fill="#4c78a8" opacity="0.6"></path><path aria-label="gasDayStart: May 28, 2023; value: −322; variable: afname" role="graphics-symbol" aria-roledescription="bar" d="M320.81501832870583,300h5v6.439999999999941h-5Z" fill="#4c78a8" opacity="0.6"></path><path aria-label="gasDayStart: Jun 04, 2023; value: −330; variable: afname" role="graphics-symbol" aria-roledescription="bar" d="M336.0073260207901,300h5v6.600000000000023h-5Z" fill="#4c78a8" opacity="0.6"></path><path aria-label="gasDayStart: Jun 11, 2023; value: −178; variable: afname" role="graphics-symbol" aria-roledescription="bar" d="M351.1996337128744,300h5v3.5600000000000023h-5Z" fill="#4c78a8" opacity="0.6"></path></g><g class="mark-group role-legend" role="graphics-symbol" aria-roledescription="legend" aria-label="Symbol legend titled 'variable' for fill color with 2 values: afname, injectie"><g transform="translate(880,0)"><path class="background" aria-hidden="true" d="M0,0h52v40h-52Z" pointer-events="none"></path><g><g class="mark-group role-legend-entry"><g transform="translate(0,16)"><path class="background" aria-hidden="true" d="M0,0h0v0h0Z" pointer-events="none"></path><g><g class="mark-group role-scope" role="graphics-object" aria-roledescription="group mark container"><g transform="translate(0,0)"><path class="background" aria-hidden="true" d="M0,0h51.7275390625v11h-51.7275390625Z" pointer-events="none" opacity="1"></path><g><g class="mark-symbol role-legend-symbol" pointer-events="none"><path transform="translate(6,6)" d="M-5,-5h10v10h-10Z" fill="#4c78a8" stroke-width="1.5" opacity="0.6"></path></g><g class="mark-text role-legend-label" pointer-events="none"><text text-anchor="start" transform="translate(16,9)" font-family="sans-serif" font-size="10px" fill="#000" opacity="1">afname</text></g></g><path class="foreground" aria-hidden="true" d="" pointer-events="none" display="none"></path></g><g transform="translate(0,13)"><path class="background" aria-hidden="true" d="M0,0h51.7275390625v11h-51.7275390625Z" pointer-events="none" opacity="1"></path><g><g class="mark-symbol role-legend-symbol" pointer-events="none"><path transform="translate(6,6)" d="M-5,-5h10v10h-10Z" fill="#f58518" stroke-width="1.5" opacity="0.6"></path></g><g class="mark-text role-legend-label" pointer-events="none"><text text-anchor="start" transform="translate(16,9)" font-family="sans-serif" font-size="10px" fill="#000" opacity="1">injectie</text></g></g><path class="foreground" aria-hidden="true" d="" pointer-events="none" display="none"></path></g></g></g><path class="foreground" aria-hidden="true" d="" pointer-events="none" display="none"></path></g></g><g class="mark-text role-legend-title" pointer-events="none"><text text-anchor="start" transform="translate(0,9)" font-family="sans-serif" font-size="11px" font-weight="bold" fill="#000" opacity="1">variable</text></g></g><path class="foreground" aria-hidden="true" d="" pointer-events="none" display="none"></path></g></g><g class="mark-group role-title"><g transform="translate(400,-22)"><path class="background" aria-hidden="true" d="M0,0h0v0h0Z" pointer-events="none"></path><g><g class="mark-text role-title-text" role="graphics-symbol" aria-roledescription="title" aria-label="Title text 'Gasvoorraad in Nederland 2023'" pointer-events="none"><text text-anchor="middle" transform="translate(0,10)" font-family="sans-serif" font-size="13px" font-weight="bold" fill="#000" opacity="1">Gasvoorraad in Nederland 2023</text></g></g><path class="foreground" aria-hidden="true" d="" pointer-events="none" display="none"></path></g></g></g><path class="foreground" aria-hidden="true" d="" display="none"></path></g></g></g><defs><clipPath id="clip1"><rect x="0" y="0" width="800" height="600"></rect></clipPath><clipPath id="clip2"><rect x="0" y="0" width="800" height="600"></rect></clipPath></defs></svg>