<svg xmlns="http://www.w3.org/2000/svg" xmlns:xlink="http://www.w3.org/1999/xlink" version="1.1" class="marks" width="880" height="259" viewBox="0 0 880 259" style="background-color: white;"><g fill="none" stroke-miterlimit="10" transform="translate(73,22)"><g class="mark-group role-frame root" role="graphics-object" aria-roledescription="group mark container"><g transform="translate(0,0)"><path class="background" aria-hidden="true" d="M0.5,0.5h800v200h-800Z" fill="transparent" stroke="#ddd"></path><g><g class="mark-group role-axis" aria-hidden="true"><g transform="translate(0.5,200.5)"><path class="background" aria-hidden="true" d="M0,0h0v0h0Z" pointer-events="none"></path><g><g class="mark-rule role-axis-grid" pointer-events="none"><line transform="translate(13,-200)" x2="0" y2="200" stroke="#ddd" stroke-width="1" opacity="1"></line><line transform="translate(75,-200)" x2="0" y2="200" stroke="#ddd" stroke-width="1" opacity="1"></line><line transform="translate(137,-200)" x2="0" y2="200" stroke="#ddd" stroke-width="1" opacity="1"></line><line transform="translate(199,-200)" x2="0" y2="200" stroke="#ddd" stroke-width="1" opacity="1"></line><line transform="translate(261,-200)" x2="0" y2="200" stroke="#ddd" stroke-width="1" opacity="1"></line><line transform="translate(322,-200)" x2="0" y2="200" stroke="#ddd" stroke-width="1" opacity="1"></line><line transform="translate(385,-200)" x2="0" y2="200" stroke="#ddd" stroke-width="1" opacity="1"></line><line transform="translate(447,-200)" x2="0" y2="200" stroke="#ddd" stroke-width="1" opacity="1"></line><line transform="translate(508,-200)" x2="0" y2="200" stroke="#ddd" stroke-width="1" opacity="1"></line><line transform="translate(570,-200)" x2="0" y2="200" stroke="#ddd" stroke-width="1" opacity="1"></line><line transform="translate(632,-200)" x2="0" y2="200" stroke="#ddd" stroke-width="1" opacity="1"></line><line transform="translate(695,-200)" x2="0" y2="200" stroke="#ddd" stroke-width="1" opacity="1"></line><line transform="translate(756,-200)" x2="0" y2="200" stroke="#ddd" stroke-width="1" opacity="1"></line></g></g><path class="foreground" aria-hidden="true" d="" pointer-events="none" display="none"></path></g></g><g class="mark-group role-axis" aria-hidden="true"><g transform="translate(0.5,0.5)"><path class="background" aria-hidden="true" d="M0,0h0v0h0Z" pointer-events="none"></path><g><g class="mark-rule role-axis-grid" pointer-events="none"><line transform="translate(0,200)" x2="800" y2="0" stroke="#ddd" stroke-width="1" opacity="1"></line><line transform="translate(0,169)" x2="800" y2="0" stroke="#ddd" stroke-width="1" opacity="1"></line><line transform="translate(0,138)" x2="800" y2="0" stroke="#ddd" stroke-width="1" opacity="1"></line><line transform="translate(0,108)" x2="800" y2="0" stroke="#ddd" stroke-width="1" opacity="1"></line><line transform="translate(0,77)" x2="800" y2="0" stroke="#ddd" stroke-width="1" opacity="1"></line><line transform="translate(0,46)" x2="800" y2="0" stroke="#ddd" stroke-width="1" opacity="1"></line><line transform="translate(0,15)" x2="800" y2="0" stroke="#ddd" stroke-width="1" opacity="1"></line></g></g><path class="foreground" aria-hidden="true" d="" pointer-events="none" display="none"></path></g></g><g class="mark-group role-axis" role="graphics-symbol" aria-roledescription="axis" aria-label="X-axis titled 'Date' for a time scale with values from Friday, 13 March 2020, 12:00:00 AM to Monday, 05 June 2023, 12:00:00 AM"><g transform="translate(0.5,200.5)"><path class="background" aria-hidden="true" d="M0,0h0v0h0Z" pointer-events="none"></path><g><g class="mark-rule role-axis-tick" pointer-events="none"><line transform="translate(13,0)" x2="0" y2="5" stroke="#888" stroke-width="1" opacity="1"></line><line transform="translate(75,0)" x2="0" y2="5" stroke="#888" stroke-width="1" opacity="1"></line><line transform="translate(137,0)" x2="0" y2="5" stroke="#888" stroke-width="1" opacity="1"></line><line transform="translate(199,0)" x2="0" y2="5" stroke="#888" stroke-width="1" opacity="1"></line><line transform="translate(261,0)" x2="0" y2="5" stroke="#888" stroke-width="1" opacity="1"></line><line transform="translate(322,0)" x2="0" y2="5" stroke="#888" stroke-width="1" opacity="1"></line><line transform="translate(385,0)" x2="0" y2="5" stroke="#888" stroke-width="1" opacity="1"></line><line transform="translate(447,0)" x2="0" y2="5" stroke="#888" stroke-width="1" opacity="1"></line><line transform="translate(508,0)" x2="0" y2="5" stroke="#888" stroke-width="1" opacity="1"></line><line transform="translate(570,0)" x2="0" y2="5" stroke="#888" stroke-width="1" opacity="1"></line><line transform="translate(632,0)" x2="0" y2="5" stroke="#888" stroke-width="1" opacity="1"></line><line transform="translate(695,0)" x2="0" y2="5" stroke="#888" stroke-width="1" opacity="1"></line><line transform="translate(756,0)" x2="0" y2="5" stroke="#888" stroke-width="1" opacity="1"></line></g><g class="mark-text role-axis-label" pointer-events="none"><text text-anchor="middle" transform="translate(12.892281594571669,15)" font-family="sans-serif" font-size="10px" fill="#000" opacity="1">April</text><text text-anchor="middle" transform="translate(74.6395250212044,15)" font-family="sans-serif" font-size="10px" fill="#000" opacity="1">July</text><text text-anchor="middle" transform="translate(137.06530958439356,15)" font-family="sans-serif" font-size="10px" fill="#000" opacity="1">October</text><text text-anchor="middle" transform="translate(199.49109414758271,15)" font-family="sans-serif" font-size="10px" fill="#000" opacity="1">2021</text><text text-anchor="middle" transform="translate(260.55979643765903,15)" font-family="sans-serif" font-size="10px" fill="#000" opacity="1">April</text><text text-anchor="middle" transform="translate(322.30703986429177,15)" font-family="sans-serif" font-size="10px" fill="#000" opacity="1">July</text><text text-anchor="middle" transform="translate(384.7328244274809,15)" font-family="sans-serif" font-size="10px" fill="#000" opacity="1">October</text><text text-anchor="middle" transform="translate(447.15860899067013,15)" font-family="sans-serif" font-size="10px" fill="#000" opacity="1">2022</text><text text-anchor="middle" transform="translate(508.22731128074633,15)" font-family="sans-serif" font-size="10px" fill="#000" opacity="1">April</text><text text-anchor="middle" transform="translate(569.9745547073792,15)" font-family="sans-serif" font-size="10px" fill="#000" opacity="1">July</text><text text-anchor="middle" transform="translate(632.4003392705682,15)" font-family="sans-serif" font-size="10px" fill="#000" opacity="1">October</text><text text-anchor="middle" transform="translate(694.8261238337574,15)" font-family="sans-serif" font-size="10px" fill="#000" opacity="1">2023</text><text text-anchor="middle" transform="translate(755.8948261238338,15)" font-family="sans-serif" font-size="10px" fill="#000" opacity="1">April</text></g><g class="mark-rule role-axis-domain" pointer-events="none"><line transform="translate(0,0)" x2="800" y2="0" stroke="#888" stroke-width="1" opacity="1"></line></g><g class="mark-text role-axis-title" pointer-events="none"><text text-anchor="middle" transform="translate(400,30)" font-family="sans-serif" font-size="11px" font-weight="bold" fill="#000" opacity="1">Date</text></g></g><path class="foreground" aria-hidden="true" d="" pointer-events="none" display="none"></path></g></g><g class="mark-group role-axis" role="graphics-symbol" aria-roledescription="axis" aria-label="Y-axis titled 'Cumulative Sum of Downloads' for a linear scale with values from 0 to 6,500,000"><g transform="translate(0.5,0.5)"><path class="background" aria-hidden="true" d="M0,0h0v0h0Z" pointer-events="none"></path><g><g class="mark-rule role-axis-tick" pointer-events="none"><line transform="translate(0,200)" x2="-5" y2="0" stroke="#888" stroke-width="1" opacity="1"></line><line transform="translate(0,169)" x2="-5" y2="0" stroke="#888" stroke-width="1" opacity="1"></line><line transform="translate(0,138)" x2="-5" y2="0" stroke="#888" stroke-width="1" opacity="1"></line><line transform="translate(0,108)" x2="-5" y2="0" stroke="#888" stroke-width="1" opacity="1"></line><line transform="translate(0,77)" x2="-5" y2="0" stroke="#888" stroke-width="1" opacity="1"></line><line transform="translate(0,46)" x2="-5" y2="0" stroke="#888" stroke-width="1" opacity="1"></line><line transform="translate(0,15)" x2="-5" y2="0" stroke="#888" stroke-width="1" opacity="1"></line></g><g class="mark-text role-axis-label" pointer-events="none"><text text-anchor="end" transform="translate(-7,203)" font-family="sans-serif" font-size="10px" fill="#000" opacity="1">0</text><text text-anchor="end" transform="translate(-7,172.23076923076923)" font-family="sans-serif" font-size="10px" fill="#000" opacity="1">1,000,000</text><text text-anchor="end" transform="translate(-7,141.46153846153845)" font-family="sans-serif" font-size="10px" fill="#000" opacity="1">2,000,000</text><text text-anchor="end" transform="translate(-7,110.6923076923077)" font-family="sans-serif" font-size="10px" fill="#000" opacity="1">3,000,000</text><text text-anchor="end" transform="translate(-7,79.92307692307692)" font-family="sans-serif" font-size="10px" fill="#000" opacity="1">4,000,000</text><text text-anchor="end" transform="translate(-7,49.153846153846146)" font-family="sans-serif" font-size="10px" fill="#000" opacity="1">5,000,000</text><text text-anchor="end" transform="translate(-7,18.384615384615373)" font-family="sans-serif" font-size="10px" fill="#000" opacity="1">6,000,000</text></g><g class="mark-rule role-axis-domain" pointer-events="none"><line transform="translate(0,200)" x2="0" y2="-200" stroke="#888" stroke-width="1" opacity="1"></line></g><g class="mark-text role-axis-title" pointer-events="none"><text text-anchor="middle" transform="translate(-56.8642578125,100) rotate(-90) translate(0,-2)" font-family="sans-serif" font-size="11px" font-weight="bold" fill="#000" opacity="1">Cumulative Sum of Downloads</text></g></g><path class="foreground" aria-hidden="true" d="" pointer-events="none" display="none"></path></g></g><g class="mark-line role-mark marks" role="graphics-object" aria-roledescription="line mark container"><path aria-label="date: Mar 13, 2020; cumulative_sum: 348; Date: 2020-03-13; Cumulative Sum of Downloads: 348" role="graphics-symbol" aria-roledescription="line mark" d="M0,199.989L0.679,199.983L1.357,199.981L2.036,199.973L2.714,199.963L3.393,199.958L4.071,199.955L4.75,199.954L5.428,199.953L6.107,199.952L6.785,199.951L7.464,199.95L8.142,199.95L8.821,199.948L9.5,199.948L10.178,199.947L10.857,199.946L11.535,199.946L12.214,199.946L12.892,199.944L13.571,199.942L14.249,199.942L14.928,199.942L15.606,199.941L16.964,199.941L17.642,199.94L18.321,199.94L18.999,199.94L19.678,199.939L20.356,199.939L21.035,199.938L21.713,199.938L22.392,199.937L23.07,199.937L23.749,199.936L24.427,199.934L25.106,199.934L26.463,199.933L27.142,199.933L27.82,199.933L28.499,199.932L29.177,199.932L29.856,199.932L30.534,199.931L31.213,199.93L31.891,199.93L32.57,199.929L33.249,199.929L33.927,199.929L34.606,199.928L35.284,199.928L37.32,199.927L37.998,199.927L38.677,199.927L40.034,199.926L40.712,199.926L41.391,199.925L42.07,199.924L42.748,199.918L43.427,199.916L44.105,199.912L44.784,199.901L45.462,199.895L46.141,199.891L46.819,199.887L47.498,199.885L48.176,199.883L48.855,199.882L49.534,199.88L50.212,199.876L50.891,199.869L51.569,199.864L52.248,199.86L52.926,199.86L53.605,199.857L54.283,199.853L54.962,199.848L55.64,199.844L56.319,199.84L56.997,199.834L57.676,199.829L58.355,199.824L59.033,199.818L59.712,199.81L60.39,199.803L61.069,199.793L61.747,199.784L62.426,199.783L63.104,199.782L63.783,199.776L64.461,199.772L65.14,199.764L65.818,199.751L66.497,199.744L67.176,199.74L67.854,199.736L68.533,199.728L69.211,199.718L69.89,199.712L70.568,199.704L71.247,199.695L71.925,199.692L72.604,199.69L73.282,199.687L73.961,199.682L74.64,199.675L75.318,199.663L75.997,199.659L76.675,199.657L77.354,199.654L78.032,199.644L78.711,199.633L79.389,199.626L80.068,199.618L80.746,199.609L81.425,199.606L82.103,199.604L82.782,199.596L83.461,199.582L84.139,199.569L84.818,199.559L85.496,199.551L86.175,199.548L86.853,199.546L87.532,199.53L88.21,199.511L88.889,199.491L89.567,199.473L90.246,199.451L90.925,199.437L91.603,199.423L92.282,199.399L92.96,199.373L93.639,199.343L94.317,199.311L94.996,199.283L95.674,199.256L96.353,199.227L97.031,199.191L97.71,199.15L98.388,199.113L99.067,199.078L99.746,199.043L100.424,199.015L101.103,198.987L101.781,198.953L102.46,198.917L103.138,198.879L103.817,198.845L104.495,198.81L105.174,198.781L105.852,198.749L106.531,198.708L107.209,198.673L107.888,198.638L108.567,198.603L109.245,198.568L109.924,198.54L110.602,198.512L111.281,198.474L111.959,198.43L112.638,198.393L113.316,198.357L113.995,198.32L114.673,198.292L115.352,198.269L116.031,198.228L116.709,198.19L117.388,198.154L118.066,198.117L118.745,198.081L119.423,198.056L120.102,198.027L120.78,197.991L121.459,197.949L122.137,197.906L122.816,197.87L123.494,197.837L124.173,197.809L124.852,197.782L125.53,197.749L126.209,197.712L126.887,197.677L127.566,197.644L128.244,197.609L128.923,197.585L129.601,197.553L130.28,197.519L130.958,197.479L131.637,197.449L132.316,197.418L132.994,197.392L133.673,197.364L134.351,197.337L135.03,197.305L135.708,197.266L136.387,197.23L137.065,197.195L137.744,197.164L138.422,197.136L139.101,197.105L139.779,197.069L140.458,197.031L141.137,196.991L141.815,196.958L142.494,196.92L143.172,196.894L143.851,196.866L144.529,196.829L145.208,196.793L145.886,196.756L146.565,196.72L147.243,196.685L147.922,196.655L148.601,196.622L149.279,196.586L149.958,196.545L150.636,196.502L151.315,196.465L151.993,196.421L152.672,196.384L153.35,196.346L154.029,196.302L154.707,196.259L155.386,196.214L156.064,196.175L156.743,196.135L157.422,196.108L158.1,196.081L158.779,196.034L159.457,195.979L160.136,195.94L160.814,195.898L161.493,195.852L162.171,195.819L162.85,195.782L163.528,195.73L164.207,195.686L164.885,195.644L165.564,195.603L166.243,195.558L166.921,195.52L167.6,195.481L168.278,195.435L168.957,195.384L169.635,195.335L170.314,195.289L170.992,195.243L171.671,195.212L172.349,195.177L173.028,195.12L173.707,195.064L174.385,195.01L175.064,194.964L175.742,194.909L176.421,194.882L177.099,194.853L177.778,194.807L178.456,194.765L179.135,194.712L179.813,194.661L180.492,194.615L181.17,194.585L181.849,194.555L182.528,194.504L183.206,194.457L183.885,194.406L184.563,194.358L185.242,194.31L185.92,194.276L186.599,194.227L187.277,194.159L187.956,194.088L188.634,194.024L189.313,193.966L189.992,193.919L190.67,193.883L191.349,193.852L192.027,193.812L192.706,193.768L193.384,193.726L194.063,193.687L194.741,193.657L195.42,193.628L196.098,193.597L196.777,193.565L197.455,193.527L198.134,193.488L198.813,193.453L199.491,193.427L200.17,193.398L200.848,193.37L201.527,193.328L202.205,193.284L202.884,193.238L203.562,193.189L204.241,193.132L204.919,193.103L205.598,193.072L206.277,193.022L206.955,192.971L207.634,192.927L208.312,192.886L208.991,192.838L209.669,192.803L210.348,192.771L211.026,192.723L211.705,192.666L212.383,192.613L213.062,192.561L213.74,192.511L214.419,192.468L215.098,192.425L215.776,192.353L216.455,192.302L217.133,192.247L217.812,192.192L218.49,192.14L219.169,192.086L219.847,192.043L220.526,191.977L221.204,191.911L221.883,191.824L222.561,191.721L223.24,191.645L223.919,191.606L224.597,191.541L225.276,191.459L225.954,191.397L226.633,191.331L227.311,191.265L227.99,191.206L228.668,191.167L229.347,191.114L230.025,191.05L230.704,190.983L231.383,190.911L232.061,190.847L232.74,190.783L233.418,190.745L234.097,190.704L234.775,190.624L235.454,190.546L236.132,190.473L236.811,190.414L237.489,190.356L238.168,190.322L238.846,190.285L239.525,190.215L240.204,190.142L240.882,190.065L241.561,190.002L242.239,189.932L242.918,189.872L243.596,189.823L244.275,189.722L244.953,189.621L245.632,189.522L246.31,189.415L246.989,189.328L247.668,189.261L248.346,189.195L249.025,189.069L249.703,188.933L250.382,188.825L251.06,188.693L251.739,188.62L252.417,188.533L253.096,188.466L253.774,188.361L254.453,188.276L255.131,188.188L255.81,188.135L256.489,188.049L257.167,187.998L257.846,187.944L258.524,187.877L259.203,187.805L259.881,187.736L260.56,187.641L261.238,187.584L261.917,187.521L262.595,187.456L263.274,187.388L263.953,187.299L264.631,187.231L265.31,187.161L265.988,187.085L266.667,187.036L267.345,186.98L268.024,186.912L268.702,186.833L269.381,186.744L270.059,186.676L270.738,186.591L271.416,186.529L272.095,186.477L272.774,186.409L273.452,186.332L274.131,186.267L274.809,186.198L275.488,186.134L276.166,186.084L276.845,186.03L277.523,185.968L278.202,185.894L278.88,185.825L279.559,185.755L280.237,185.691L280.916,185.629L281.595,185.57L282.273,185.5L282.952,185.415L283.63,185.35L284.309,185.285L284.987,185.223L285.666,185.174L286.344,185.128L287.023,185.048L287.701,184.968L288.38,184.903L289.059,184.845L289.737,184.776L290.416,184.72L291.094,184.656L291.773,184.556L292.451,184.465L293.13,184.381L293.808,184.287L294.487,184.215L295.165,184.173L295.844,184.112L296.522,184.026L297.201,183.931L297.88,183.862L298.558,183.793L299.237,183.729L299.915,183.687L300.594,183.638L301.272,183.582L301.951,183.521L302.629,183.454L303.308,183.378L303.986,183.314L304.665,183.264L305.344,183.203L306.022,183.121L306.701,183.04L307.379,182.96L308.058,182.874L308.736,182.812L309.415,182.759L310.093,182.699L310.772,182.622L311.45,182.553L312.129,182.477L312.807,182.394L313.486,182.315L314.165,182.26L314.843,182.201L315.522,182.118L316.2,182.043L316.879,181.965L317.557,181.885L318.236,181.807L318.914,181.743L319.593,181.683L320.271,181.607L320.95,181.533L321.628,181.445L322.307,181.361L322.986,181.299L323.664,181.268L324.343,181.222L325.021,181.168L325.7,181.114L326.378,181.043L327.057,180.978L327.735,180.916L328.414,180.868L329.092,180.809L329.771,180.744L330.45,180.676L331.128,180.605L331.807,180.541L332.485,180.472L333.164,180.427L333.842,180.382L334.521,180.298L335.199,180.218L335.878,180.121L336.556,180.049L337.235,179.982L337.913,179.934L338.592,179.885L339.271,179.81L339.949,179.746L340.628,179.681L341.306,179.621L341.985,179.548L342.663,179.515L343.342,179.471L344.02,179.407L344.699,179.325L345.377,179.237L346.056,179.149L346.735,179.061L347.413,178.997L348.092,178.93L348.77,178.85L349.449,178.762L350.127,178.676L350.806,178.585L351.484,178.493L352.163,178.432L352.841,178.368L353.52,178.274L354.198,178.173L354.877,178.077L355.556,177.976L356.234,177.872L356.913,177.804L357.591,177.733L358.27,177.642L358.948,177.534L359.627,177.441L360.305,177.337L360.984,177.256L361.662,177.199L362.341,177.134L363.02,177.048L363.698,176.968L364.377,176.901L365.055,176.837L365.734,176.777L366.412,176.736L367.091,176.689L367.769,176.629L368.448,176.54L369.126,176.464L369.805,176.392L370.483,176.309L371.162,176.255L371.841,176.202L372.519,176.123L373.198,176.016L373.876,175.792L374.555,175.567L375.233,175.346L375.912,175.168L376.59,174.988L377.269,174.758L377.947,174.564L378.626,174.36L379.304,174.144L379.983,173.912L380.662,173.728L381.34,173.554L382.019,173.328L382.697,173.11L383.376,172.879L384.054,172.658L384.733,172.431L385.411,172.187L386.09,171.938L386.768,171.686L387.447,171.469L388.126,171.242L388.804,170.855L389.483,170.488L390.161,170.072L390.84,169.891L391.518,169.555L392.197,169.046L392.875,168.602L393.554,168.397L394.232,168.186L394.911,168.028L395.589,167.897L396.268,167.705L396.947,167.51L397.625,167.317L398.304,167.05L398.982,166.829L399.661,166.633L400.339,166.467L401.018,166.23L401.696,165.887L402.375,165.671L403.053,165.382L403.732,165.147L404.411,164.99L405.089,164.854L405.768,164.647L406.446,164.419L407.125,164.188L407.803,163.946L408.482,163.592L409.16,163.451L409.839,163.3L410.517,163.042L411.196,162.814L411.874,162.602L412.553,162.39L413.232,162.161L413.91,161.975L414.589,161.844L415.267,161.586L415.946,161.377L416.624,161.132L417.303,160.895L417.981,160.654L418.66,160.479L419.338,160.3L420.017,160.049L420.696,159.851L421.374,159.641L422.053,159.475L422.731,159.321L423.41,159.188L424.088,159.065L424.767,158.842L425.445,158.636L426.124,158.442L426.802,158.251L427.481,158.032L428.159,157.895L428.838,157.766L429.517,157.521L430.195,157.324L430.874,157.096L431.552,156.905L432.231,156.705L432.909,156.534L433.588,156.401L434.266,156.166L434.945,155.961L435.623,155.765L436.302,155.558L436.98,155.352L437.659,155.191L438.338,155.066L439.016,154.839L439.695,154.679L440.373,154.498L441.052,154.335L441.73,154.166L442.409,154.04L443.087,153.889L443.766,153.7L444.444,153.548L445.123,153.379L445.802,153.212L446.48,153.047L447.159,152.926L447.837,152.781L448.516,152.585L449.194,152.408L449.873,152.199L450.551,151.962L451.23,151.734L451.908,151.568L452.587,151.423L453.265,151.17L453.944,150.976L454.623,150.771L455.301,150.562L455.98,150.346L456.658,150.203L457.337,150.062L458.015,149.839L458.694,149.664L459.372,149.468L460.051,149.298L460.729,149.105L461.408,148.968L462.087,148.84L462.765,148.62L463.444,148.439L464.122,148.25L464.801,148.057L465.479,147.876L466.158,147.762L466.836,147.643L467.515,147.433L468.193,147.249L468.872,147.053L469.55,146.871L470.229,146.682L470.908,146.542L471.586,146.436L472.265,146.225L472.943,146.054L473.622,145.865L474.3,145.662L474.979,145.483L475.657,145.328L476.336,145.206L477.014,144.997L477.693,144.836L478.372,144.655L479.05,144.469L479.729,144.272L480.407,144.085L481.086,143.938L481.764,143.681L482.443,143.51L483.121,143.305L483.8,143.088L484.478,142.836L485.157,142.634L485.835,142.449L486.514,142.181L487.193,141.935L487.871,141.651L488.55,141.403L489.228,141.174L489.907,140.976L490.585,140.779L491.264,140.53L491.942,140.315L492.621,140.058L493.299,139.83L493.978,139.621L494.656,139.436L495.335,139.265L496.014,138.996L496.692,138.768L497.371,138.524L498.049,138.295L498.728,138.084L499.406,137.902L500.085,137.736L500.763,137.462L501.442,137.234L502.12,136.953L502.799,136.442L503.478,136.049L504.156,135.81L504.835,135.516L505.513,135.061L506.192,134.804L506.87,134.534L507.549,134.243L508.227,133.971L508.906,133.768L509.584,133.566L510.263,133.257L510.941,133.017L511.62,132.549L512.299,132.231L512.977,131.92L513.656,131.717L514.334,131.516L515.013,131.184L515.691,130.921L516.37,130.642L517.048,130.371L517.727,130.117L518.405,129.914L519.084,129.725L519.763,129.434L520.441,129.181L521.12,128.897L521.798,128.624L522.477,128.35L523.155,128.106L523.834,127.884L524.512,127.566L525.191,127.265L525.869,126.954L526.548,126.665L527.226,126.341L527.905,126.072L528.584,125.846L529.262,125.524L529.941,125.258L530.619,124.95L531.298,124.652L531.976,124.405L532.655,124.225L533.333,124.023L534.012,123.763L534.69,123.502L535.369,123.247L536.047,122.999L536.726,122.738L537.405,122.518L538.083,122.317L538.762,122.017L539.44,121.761L540.119,121.421L540.797,121.119L541.476,120.791L542.154,120.503L542.833,120.267L543.511,119.965L544.19,119.68L544.869,119.319L545.547,119.05L546.226,118.772L546.904,118.54L547.583,118.333L548.261,118.052L548.94,117.828L549.618,117.59L550.297,117.341L550.975,117.043L551.654,116.802L552.332,116.592L553.011,116.32L553.69,116.049L554.368,115.74L555.047,115.436L555.725,115.157L556.404,114.945L557.082,114.728L557.761,114.433L558.439,114.127L559.118,113.834L559.796,113.556L560.475,113.25L561.154,113.025L561.832,112.825L562.511,112.515L563.189,112.269L563.868,111.977L564.546,111.719L565.225,111.464L565.903,111.254L566.582,111.033L567.26,110.732L567.939,110.512L568.617,110.265L569.296,110.027L569.975,109.763L570.653,109.513L571.332,109.276L572.01,108.996L572.689,108.727L573.367,108.439L574.046,108.179L574.724,107.906L575.403,107.672L576.081,107.451L576.76,107.169L577.439,106.932L578.117,106.683L578.796,106.398L579.474,106.142L580.153,105.918L580.831,105.725L581.51,105.434L582.188,105.18L582.867,104.942L583.545,104.681L584.224,104.4L584.902,104.14L585.581,103.912L586.26,103.632L586.938,103.394L587.617,103.125L588.295,102.872L588.974,102.532L589.652,102.308L590.331,102.084L591.009,101.782L591.688,101.521L592.366,101.241L593.045,100.973L593.723,100.715L594.402,100.481L595.081,100.267L595.759,99.978L596.438,99.719L597.116,99.468L597.795,99.238L598.473,99.007L599.152,98.793L599.83,98.567L600.509,98.292L601.187,97.99L601.866,97.725L602.545,97.432L603.223,97.142L603.902,96.863L604.58,96.651L605.259,96.332L605.937,96.038L606.616,95.756L607.294,95.499L607.973,95.215L608.651,94.993L609.33,94.79L610.008,94.5L610.687,94.215L611.366,93.85L612.044,93.548L612.723,93.299L613.401,93.075L614.08,92.888L614.758,92.65L615.437,92.374L616.115,92.099L616.794,91.855L617.472,91.573L618.151,91.347L618.83,91.148L619.508,90.861L620.187,90.628L620.865,90.376L621.544,90.102L622.222,89.848L622.901,89.651L623.579,89.479L624.258,89.24L624.936,89.003L625.615,88.717L626.293,88.477L626.972,88.226L627.651,87.981L628.329,87.757L629.008,87.444L629.686,87.185L630.365,86.924L631.043,86.667L631.722,86.41L632.4,86.181L633.079,85.982L633.757,85.713L634.436,85.435L635.115,85.08L635.793,84.72L636.472,84.374L637.15,84.101L637.829,83.84L638.507,83.533L639.186,83.221L639.864,82.932L640.543,82.662L641.221,82.35L641.9,82.1L642.578,81.869L643.257,81.511L643.936,81.182L644.614,80.851L645.293,80.518L645.971,80.208L646.65,79.928L647.328,79.64L648.007,79.31L648.685,78.987L649.364,78.698L650.042,78.411L650.721,78.154L651.399,77.917L652.078,77.694L652.757,77.41L653.435,77.123L654.114,76.803L654.792,76.468L655.471,76.145L656.149,75.919L656.828,75.689L657.506,75.332L658.185,75.026L658.863,74.742L659.542,74.504L660.221,74.257L660.899,74.047L661.578,73.845L662.256,73.546L662.935,73.214L663.613,72.902L664.292,72.603L664.97,72.272L665.649,71.964L666.327,71.669L667.006,71.283L667.684,70.936L668.363,70.609L669.042,70.356L669.72,70.153L670.399,69.962L671.077,69.77L671.756,69.498L672.434,69.243L673.113,68.995L673.791,68.744L674.47,68.51L675.148,68.291L675.827,68.099L676.506,67.843L677.184,67.567L677.863,67.315L678.541,67.01L679.22,66.649L679.898,66.462L680.577,66.287L681.255,65.961L681.934,65.645L682.612,65.333L683.291,65.039L683.969,64.762L684.648,64.533L685.327,64.306L686.005,63.919L686.684,63.646L687.362,63.343L688.041,63.083L688.719,62.885L689.398,62.698L690.076,62.521L690.755,62.304L691.433,62.101L692.112,61.864L692.791,61.62L693.469,61.372L694.148,61.146L694.826,60.948L695.505,60.668L696.183,60.336L696.862,60.039L697.54,59.644L698.219,59.287L698.897,58.987L699.576,58.731L700.254,58.368L700.933,57.985L701.612,57.642L702.29,57.319L702.969,57.047L703.647,56.817L704.326,56.606L705.004,56.301L705.683,56.007L706.361,55.685L707.04,55.34L707.718,54.93L708.397,54.665L709.075,54.389L709.754,53.948L710.433,53.618L711.111,53.247L711.79,52.941L712.468,52.671L713.147,52.431L713.825,52.205L714.504,51.875L715.182,51.577L715.861,51.291L716.539,50.984L717.218,50.676L717.897,50.441L718.575,50.208L719.254,49.818L719.932,49.524L720.611,49.258L721.289,48.95L721.968,48.643L722.646,48.387L723.325,48.158L724.003,47.868L724.682,47.466L725.36,47.147L726.039,46.835L726.718,46.53L727.396,46.275L728.075,45.999L728.753,45.624L729.432,45.295L730.11,44.912L730.789,44.592L731.467,44.264L732.146,43.7L732.824,43.284L733.503,42.886L734.182,42.498L734.86,42.075L735.539,41.693L736.217,41.284L736.896,40.958L737.574,40.613L738.253,40.202L738.931,39.787L739.61,39.427L740.288,39.037L740.967,38.661L741.645,38.326L742.324,38.023L743.003,37.663L743.681,37.339L744.36,36.954L745.038,36.61L745.717,36.305L746.395,36.02L747.074,35.725L747.752,35.319L748.431,34.961L749.109,34.616L749.788,34.243L750.466,33.881L751.145,33.577L751.824,33.251L752.502,32.761L753.181,32.197L753.859,31.82L754.538,31.352L755.216,30.924L755.895,30.56L756.573,30.124L757.252,29.641L757.93,29.159L758.609,28.659L759.288,28.155L759.966,27.716L760.645,27.299L761.323,26.898L762.002,26.436L762.68,25.905L763.359,25.302L764.037,24.729L764.716,24.148L765.394,23.59L766.073,23.09L766.751,22.425L767.43,21.887L768.109,21.394L768.787,20.891L769.466,20.362L770.144,19.979L770.823,19.598L771.501,19.076L772.18,18.608L772.858,18.154L773.537,17.711L774.215,17.292L774.894,16.868L775.573,16.492L776.251,16.012L776.93,15.503L777.608,15.007L778.287,14.65L778.965,14.33L779.644,13.977L780.322,13.675L781.001,13.294L781.679,12.887L782.358,12.531L783.036,12.188L783.715,11.852L784.394,11.584L785.072,11.301L785.751,10.926L786.429,10.544L787.108,10.208L787.786,9.826L788.465,9.521L789.143,9.198L789.822,8.78L790.5,8.184L791.179,7.632L791.858,7.142L792.536,6.665L793.215,6.119L793.893,5.59L794.572,5.066L795.25,4.679L795.929,4.312L796.607,3.961L797.286,3.595L797.964,3.237L798.643,2.939L799.321,2.637L800,2.191" stroke="#4c78a8" stroke-width="2"></path></g><g class="mark-group role-title"><g transform="translate(400,-17)"><path class="background" aria-hidden="true" d="M0,0h0v0h0Z" pointer-events="none"></path><g><g class="mark-text role-title-text" role="graphics-symbol" aria-roledescription="title" aria-label="Title text 'Cumulative Sum of Downloads'" pointer-events="none"><text text-anchor="middle" transform="translate(0,10)" font-family="sans-serif" font-size="13px" font-weight="bold" fill="#000" opacity="1">Cumulative Sum of Downloads</text></g></g><path class="foreground" aria-hidden="true" d="" pointer-events="none" display="none"></path></g></g></g><path class="foreground" aria-hidden="true" d="" display="none"></path></g></g></g></svg>