<svg xmlns="http://www.w3.org/2000/svg" xmlns:xlink="http://www.w3.org/1999/xlink" version="1.1" class="marks" width="478" height="359" viewBox="0 0 478 359" style="background-color: white;"><g fill="none" stroke-miterlimit="10" transform="translate(5,37)"><g class="mark-group role-frame root" role="graphics-object" aria-roledescription="group mark container"><g transform="translate(0,0)"><path class="background" aria-hidden="true" d="M0,0h400v300h-400Z" fill="transparent"></path><g><g class="mark-group role-axis" aria-hidden="true"><g transform="translate(0.5,0.5)"><path class="background" aria-hidden="true" d="M0,0h0v0h0Z" pointer-events="none"></path><g><g class="mark-rule role-axis-grid" pointer-events="none"><line transform="translate(0,270)" x2="400" y2="0" stroke="#ddd" stroke-width="1" opacity="1"></line><line transform="translate(0,210)" x2="400" y2="0" stroke="#ddd" stroke-width="1" opacity="1"></line><line transform="translate(0,150)" x2="400" y2="0" stroke="#ddd" stroke-width="1" opacity="1"></line><line transform="translate(0,90)" x2="400" y2="0" stroke="#ddd" stroke-width="1" opacity="1"></line><line transform="translate(0,30)" x2="400" y2="0" stroke="#ddd" stroke-width="1" opacity="1"></line></g></g><path class="foreground" aria-hidden="true" d="" pointer-events="none" display="none"></path></g></g><g class="mark-group role-axis" role="graphics-symbol" aria-roledescription="axis" aria-label="X-axis titled 'Pollution' for a linear scale with values from −1.6 to 1.4"><g transform="translate(0.5,300.5)"><path class="background" aria-hidden="true" d="M0,0h0v0h0Z" pointer-events="none"></path><g><g class="mark-rule role-axis-tick" pointer-events="none"><line transform="translate(80,0)" x2="0" y2="5" stroke="#676A86" stroke-width="1" opacity="1"></line><line transform="translate(213,0)" x2="0" y2="5" stroke="#676A86" stroke-width="1" opacity="1"></line><line transform="translate(347,0)" x2="0" y2="5" stroke="#676A86" stroke-width="1" opacity="1"></line></g><g class="mark-text role-axis-label" pointer-events="none"><text text-anchor="middle" transform="translate(80.00000000000001,15)" font-family="sans-serif" font-size="10px" fill="#676A86" opacity="1">−1.0</text><text text-anchor="middle" transform="translate(213.33333333333334,15)" font-family="sans-serif" font-size="10px" fill="#676A86" opacity="1">0.0</text><text text-anchor="middle" transform="translate(346.6666666666667,15)" font-family="sans-serif" font-size="10px" fill="#676A86" opacity="1">1.0</text></g><g class="mark-rule role-axis-domain" pointer-events="none"><line transform="translate(0,0)" x2="400" y2="0" stroke="#676A86" stroke-width="1" opacity="1"></line></g><g class="mark-text role-axis-title" pointer-events="none"><text text-anchor="end" transform="translate(400,-7)" font-family="sans-serif" font-size="10px" font-weight="normal" fill="#676A86" opacity="1">Pollution</text></g></g><path class="foreground" aria-hidden="true" d="" pointer-events="none" display="none"></path></g></g><g class="mark-group role-axis" role="graphics-symbol" aria-roledescription="axis" aria-label="Y-axis titled 'Share of low-skilled workers (standardised)' for a linear scale with values from −0.5 to 0.5"><g transform="translate(0.5,0.5)"><path class="background" aria-hidden="true" d="M0,0h0v0h0Z" pointer-events="none"></path><g><g class="mark-text role-axis-label" pointer-events="none"><text text-anchor="start" transform="translate(5,263)" font-family="sans-serif" font-size="10px" fill="#676A86" opacity="1">−0.4</text><text text-anchor="start" transform="translate(5,203)" font-family="sans-serif" font-size="10px" fill="#676A86" opacity="1">−0.2</text><text text-anchor="start" transform="translate(5,143)" font-family="sans-serif" font-size="10px" fill="#676A86" opacity="1">0.0</text><text text-anchor="start" transform="translate(5,83.00000000000001)" font-family="sans-serif" font-size="10px" fill="#676A86" opacity="1">0.2</text><text text-anchor="start" transform="translate(5,22.999999999999993)" font-family="sans-serif" font-size="10px" fill="#676A86" opacity="1">0.4</text></g><g class="mark-rule role-axis-domain" pointer-events="none"><line transform="translate(0,300)" x2="0" y2="-300" stroke="#676A86" stroke-width="1" opacity="1"></line></g><g class="mark-text role-axis-title" pointer-events="none"><text text-anchor="start" transform="translate(25,23)" font-family="sans-serif" font-size="10px" font-weight="normal" fill="#676A86" opacity="1">Share of low-skilled workers (standardised)</text></g></g><path class="foreground" aria-hidden="true" d="" pointer-events="none" display="none"></path></g></g><g class="mark-group role-scope layer_0_pathgroup" role="graphics-object" aria-roledescription="group mark container"><g transform="translate(0,0)"><path class="background" aria-hidden="true" d="M0,0h400v300h-400Z"></path><g><g class="mark-line role-mark layer_0_marks" role="graphics-object" aria-roledescription="line mark container"><path aria-label="x: −1.4; y: −0.2; year: 1881" role="graphics-symbol" aria-roledescription="line mark" d="M29.069,203.067L32.192,201.005C35.315,198.943,41.562,194.819,48.288,191.663C55.015,188.507,62.222,186.319,68.228,185.509C74.234,184.699,79.039,185.267,83.684,185.695C88.328,186.124,92.813,186.414,98.178,186.155C103.544,185.895,109.79,185.086,115.636,184.275C121.481,183.465,126.927,182.653,132.773,181.428C138.619,180.203,144.865,178.565,150.951,176.512C157.037,174.459,162.963,171.991,168.889,169.8C174.815,167.608,180.741,165.693,186.587,163.363C192.432,161.033,198.198,158.289,203.884,155.544C209.57,152.799,215.175,150.054,220.861,146.895C226.547,143.736,232.312,140.163,237.758,137.141C243.203,134.119,248.328,131.649,253.614,128.627C258.899,125.604,264.344,122.03,269.71,118.594C275.075,115.158,280.36,111.859,286.206,108.7C292.052,105.542,298.458,102.523,305.185,99.781C311.912,97.04,318.959,94.576,325.445,92.938C331.932,91.301,337.858,90.491,343.944,90.095C350.03,89.7,356.276,89.719,362.122,89.323C367.968,88.927,373.413,88.115,378.138,88.268C382.863,88.421,386.867,89.538,390.39,90.93C393.914,92.322,396.957,93.989,398.478,94.823L400,95.656" stroke="#0063AF" stroke-width="2"></path></g></g><path class="foreground" aria-hidden="true" d="" display="none"></path></g><g transform="translate(0,0)"><path class="background" aria-hidden="true" d="M0,0h400v300h-400Z"></path><g><g class="mark-line role-mark layer_0_marks" role="graphics-object" aria-roledescription="line mark container"><path aria-label="x: −1.4; y: −0.1; year: 1817" role="graphics-symbol" aria-roledescription="line mark" d="M32.613,170.776L34.283,169.556C35.954,168.337,39.295,165.898,43.048,163.793C46.8,161.687,50.964,159.915,54.814,158.846C58.664,157.778,62.198,157.413,66.484,157.405C70.769,157.398,75.805,157.748,80.599,157.637C85.392,157.527,89.944,156.956,94.157,156.468C98.369,155.98,102.243,155.575,106.292,155.321C110.342,155.067,114.566,154.966,118.537,154.936C122.508,154.907,126.224,154.95,130.237,154.649C134.25,154.348,138.559,153.704,142.693,153.482C146.827,153.26,150.786,153.46,154.999,153.614C159.211,153.768,163.678,153.876,169.799,153.631C175.921,153.386,183.696,152.788,193.269,151.955C202.843,151.121,214.214,150.051,225.265,149.395C236.316,148.739,247.047,148.496,256.624,147.489C266.202,146.482,274.626,144.712,280.805,143.9C286.984,143.089,290.918,143.237,294.865,143.207C298.811,143.178,302.77,142.971,306.913,142.724C311.057,142.477,315.386,142.189,319.399,142.092C323.412,141.995,327.109,142.088,331.191,142.189C335.273,142.289,339.74,142.397,343.702,142.243C347.664,142.089,351.121,141.674,355.054,141.355C358.986,141.036,363.394,140.814,367.374,141.403C371.355,141.991,374.907,143.391,377.875,144.754C380.843,146.118,383.225,147.445,385.941,148.572C388.658,149.7,391.708,150.628,393.234,151.092L394.759,151.556" stroke="#36B7B4" stroke-width="2"></path></g></g><path class="foreground" aria-hidden="true" d="" display="none"></path></g><g transform="translate(0,0)"><path class="background" aria-hidden="true" d="M0,0h400v300h-400Z"></path><g><g class="mark-line role-mark layer_0_marks" role="graphics-object" aria-roledescription="line mark container"><path aria-label="x: −1.4; y: −0.4; year: 2011" role="graphics-symbol" aria-roledescription="line mark" d="M25.93,265.464L27.335,265.266C28.739,265.069,31.547,264.673,34.579,264.496C37.61,264.319,40.864,264.36,44.06,263.329C47.255,262.299,50.393,260.197,53.56,257.285C56.727,254.373,59.922,250.652,63.282,246.562C66.641,242.472,70.164,238.013,73.301,234.303C76.439,230.593,79.192,227.633,82.224,224.439C85.257,221.246,88.569,217.819,91.912,214.196C95.255,210.573,98.63,206.754,103.133,202.349C107.637,197.944,113.268,192.954,117.653,189.752C122.038,186.551,125.176,185.138,128.371,183.616C131.567,182.095,134.821,180.463,138.046,178.884C141.271,177.304,144.467,175.777,147.619,174.16C150.771,172.544,153.88,170.838,158.539,168.673C163.198,166.508,169.407,163.882,174.914,161.887C180.42,159.891,185.225,158.525,190.096,157.131C194.966,155.737,199.903,154.316,204.027,153.122C208.151,151.928,211.463,150.962,214.717,150.149C217.971,149.336,221.167,148.677,228.638,146.651C236.108,144.625,247.854,141.233,255.746,139.208C263.637,137.182,267.674,136.524,272.327,135.093C276.979,133.663,282.246,131.461,286.339,129.422C290.432,127.383,293.351,125.507,296.538,123.774C299.726,122.042,303.184,120.451,306.404,118.582C309.624,116.714,312.607,114.566,316.395,111.767C320.183,108.968,324.776,105.517,329.286,101.033C333.796,96.549,338.223,91.032,342.24,86.203C346.256,81.374,349.862,77.234,354.697,71.41C359.532,65.587,365.597,58.081,370.227,53.309C374.858,48.537,378.053,46.498,382.456,43.514C386.859,40.529,392.468,36.598,395.273,34.632L398.078,32.667" stroke="#676A86" stroke-width="2"></path></g></g><path class="foreground" aria-hidden="true" d="" display="none"></path></g><g transform="translate(0,0)"><path class="background" aria-hidden="true" d="M0,0h400v300h-400Z"></path><g><g class="mark-line role-mark layer_0_marks" role="graphics-object" aria-roledescription="line mark container"><path aria-label="x: −1.4; y: −0.4; year: 1971" role="graphics-symbol" aria-roledescription="line mark" d="M32.613,270.527L34.254,270.786C35.896,271.045,39.179,271.562,42.374,270.689C45.57,269.815,48.679,267.551,51.802,265.076C54.925,262.601,58.063,259.915,61.243,257.106C64.422,254.297,67.644,251.365,70.884,248.318C74.123,245.271,77.38,242.111,80.578,238.994C83.775,235.878,86.913,232.806,90.05,229.809C93.188,226.812,96.326,223.89,99.472,221.041C102.618,218.192,105.771,215.415,108.996,212.719C112.221,210.023,115.517,207.408,118.761,204.996C122.006,202.584,125.198,200.375,128.409,198.256C131.619,196.136,134.847,194.105,138.075,192.139C141.303,190.172,144.531,188.27,147.742,186.256C150.952,184.242,154.145,182.118,157.295,180.05C160.446,177.982,163.555,175.972,166.736,174.249C169.917,172.527,173.171,171.092,179.429,167.62C185.686,164.147,194.947,158.636,201.295,155.108C207.643,151.58,211.078,150.035,216.054,147.551C221.029,145.066,227.544,141.641,232.527,138.932C237.509,136.222,240.959,134.229,244.282,132.579C247.605,130.929,250.801,129.624,253.939,128.174C257.077,126.725,260.156,125.131,263.352,123.446C266.548,121.76,269.86,119.984,273.13,118.121C276.4,116.258,279.628,114.309,282.824,112.438C286.02,110.566,289.183,108.774,292.334,106.919C295.485,105.065,298.622,103.148,301.92,101.124C305.217,99.1,308.675,96.969,312.045,94.701C315.415,92.432,318.698,90.027,322.068,87.329C325.438,84.632,328.896,81.642,332.253,78.847C335.61,76.053,338.867,73.453,342.092,71.046C345.317,68.638,348.51,66.421,351.675,63.894C354.84,61.367,357.978,58.529,361.159,56.09C364.34,53.652,367.565,51.614,370.776,49.787C373.986,47.96,377.182,46.346,380.32,45.217C383.457,44.088,386.537,43.446,389.297,43.671C392.057,43.895,394.497,44.988,395.718,45.534L396.938,46.08" stroke="#179FDB" stroke-width="2"></path></g></g><path class="foreground" aria-hidden="true" d="" display="none"></path></g><g transform="translate(0,0)"><path class="background" aria-hidden="true" d="M0,0h400v300h-400Z"></path><g><g class="mark-line role-mark layer_0_marks" role="graphics-object" aria-roledescription="line mark container"><path aria-label="x: −1.4; y: −0.4; year: 1991" role="graphics-symbol" aria-roledescription="line mark" d="M28.589,269.364L29.259,269.768C29.93,270.172,31.271,270.981,33.496,270.656C35.721,270.331,38.83,268.873,41.703,266.603C44.576,264.332,47.213,261.249,50.017,258.625C52.821,256,55.79,253.833,58.83,250.925C61.869,248.016,64.978,244.366,68.174,240.606C71.369,236.846,74.652,232.977,77.921,229.292C81.189,225.606,84.443,222.104,87.596,218.842C90.748,215.58,93.798,212.558,96.965,209.461C100.132,206.364,103.415,203.192,106.767,200.226C110.12,197.261,113.542,194.501,116.665,192.16C119.788,189.819,122.613,187.895,125.695,185.97C128.778,184.045,132.119,182.118,135.388,180.473C138.656,178.828,141.852,177.465,145.048,176.001C148.244,174.536,151.44,172.971,154.635,171.594C157.831,170.217,161.027,169.028,164.223,168.06C167.419,167.092,170.615,166.345,173.81,165.117C177.006,163.889,180.202,162.18,184.996,160.218C189.79,158.257,196.181,156.043,201.185,154.129C206.188,152.215,209.804,150.602,213.305,149.316C216.806,148.03,220.192,147.072,223.469,146.129C226.745,145.186,229.912,144.258,234.662,143.014C239.412,141.769,245.746,140.209,253.306,137.725C260.866,135.241,269.652,131.834,277.743,128.07C285.835,124.305,293.231,120.183,301.811,114.08C310.392,107.976,320.157,99.892,326.307,94.997C332.456,90.103,334.99,88.398,340.64,82.429C346.289,76.46,355.053,66.225,361.033,59.917C367.013,53.61,370.209,51.229,373.361,49.094C376.514,46.958,379.622,45.069,382.818,43.011C386.014,40.953,389.297,38.727,391.955,37.04C394.614,35.353,396.647,34.205,397.664,33.631L398.681,33.057" stroke="#00A767" stroke-width="2"></path></g></g><path class="foreground" aria-hidden="true" d="" display="none"></path></g></g><g class="mark-text role-mark layer_1_marks" role="graphics-object" aria-roledescription="text mark container"><text aria-label="x: 1.4; y: 0.2; year: 1881" role="graphics-symbol" aria-roledescription="text mark" text-anchor="start" transform="translate(405,98.65626399880544)" font-family="sans-serif" font-size="11px" fill="#0063AF">1881</text><text aria-label="x: 1.4; y: 0.0; year: 1817" role="graphics-symbol" aria-roledescription="text mark" text-anchor="start" transform="translate(399.7589189189189,154.55627445124682)" font-family="sans-serif" font-size="11px" fill="#36B7B4">1817</text><text aria-label="x: 1.4; y: 0.3; year: 1971" role="graphics-symbol" aria-roledescription="text mark" text-anchor="start" transform="translate(401.9378978978979,49.08044945497982)" font-family="sans-serif" font-size="11px" fill="#179FDB">1971</text><text aria-label="x: 1.4; y: 0.4; year: 1991" role="graphics-symbol" aria-roledescription="text mark" text-anchor="start" transform="translate(403.6810810810811,36.057137524264576)" font-family="sans-serif" font-size="11px" fill="#00A767">1991</text></g><g class="mark-text role-mark layer_2_marks" role="graphics-object" aria-roledescription="text mark container"><text aria-label="x: −1.4; y: −0.2; year: 1881" role="graphics-symbol" aria-roledescription="text mark" text-anchor="start" transform="translate(49.06906906906907,206.06704494549794)" font-family="sans-serif" font-size="11px" fill="#0063AF">1881</text><text aria-label="x: −1.4; y: −0.1; year: 1817" role="graphics-symbol" aria-roledescription="text mark" text-anchor="start" transform="translate(52.612612612612615,173.7756816484993)" font-family="sans-serif" font-size="11px" fill="#36B7B4">1817</text><text aria-label="x: −1.4; y: −0.4; year: 1971" role="graphics-symbol" aria-roledescription="text mark" text-anchor="start" transform="translate(52.612612612612615,273.5274596495037)" font-family="sans-serif" font-size="11px" fill="#179FDB">1971</text></g><g class="mark-text role-mark layer_3_marks" role="graphics-object" aria-roledescription="text mark container"><text aria-label="x: 0.95; y: 0.11; t: 2021" role="graphics-symbol" aria-roledescription="text mark" text-anchor="middle" transform="translate(340,120)" font-family="sans-serif" font-size="11px" fill="#676A86">2021</text></g><g class="mark-group role-title"><g transform="translate(0,-31)"><path class="background" aria-hidden="true" d="M0,0h0v0h0Z" pointer-events="none"></path><g><g class="mark-text role-title-text" role="graphics-symbol" aria-roledescription="title" aria-label="Title text 'Pollution and shares of low-skilled workers across neighbourhoods and time'" pointer-events="none"><text text-anchor="start" transform="translate(5,9)" font-family="sans-serif" font-size="12px" font-weight="bold" fill="#000" opacity="1">Pollution and shares of low-skilled workers across neighbourhoods and time</text></g><g class="mark-text role-title-subtitle" role="graphics-symbol" aria-roledescription="subtitle" aria-label="Subtitle text 'Source: Heblich et al. (2021)'" pointer-events="none"><text text-anchor="start" transform="translate(5,24)" font-family="sans-serif" font-size="11px" font-style="italic" fill="#000" opacity="1">Source: Heblich et al. (2021)</text></g></g><path class="foreground" aria-hidden="true" d="" pointer-events="none" display="none"></path></g></g></g><path class="foreground" aria-hidden="true" d="" display="none"></path></g></g></g></svg>