<svg xmlns="http://www.w3.org/2000/svg" xmlns:xlink="http://www.w3.org/1999/xlink" version="1.1" class="marks" width="400" height="400" viewBox="0 0 400 400" style="background-color: white;"><g fill="none" stroke-miterlimit="10" transform="translate(44,67)"><g class="mark-group role-frame root" role="graphics-object" aria-roledescription="group mark container"><g transform="translate(0,0)"><path class="background" aria-hidden="true" d="M0.5,0.5h349v311h-349Z" fill="transparent" stroke="#ddd"></path><g><g class="mark-group role-axis" role="graphics-symbol" aria-roledescription="axis" aria-label="X-axis for a time scale with values from Thursday, 01 January 1970, 8:00:00 AM to Monday, 01 January 2018, 8:00:00 AM"><g transform="translate(0.5,311.5)"><path class="background" aria-hidden="true" d="M0,0h0v0h0Z" pointer-events="none"></path><g><g class="mark-rule role-axis-tick" pointer-events="none"><line transform="translate(36,0)" x2="0" y2="5" stroke="#888" stroke-width="1" opacity="1"></line><line transform="translate(73,0)" x2="0" y2="5" stroke="#888" stroke-width="1" opacity="1"></line><line transform="translate(109,0)" x2="0" y2="5" stroke="#888" stroke-width="1" opacity="1"></line><line transform="translate(145,0)" x2="0" y2="5" stroke="#888" stroke-width="1" opacity="1"></line><line transform="translate(182,0)" x2="0" y2="5" stroke="#888" stroke-width="1" opacity="1"></line><line transform="translate(218,0)" x2="0" y2="5" stroke="#888" stroke-width="1" opacity="1"></line><line transform="translate(254,0)" x2="0" y2="5" stroke="#888" stroke-width="1" opacity="1"></line><line transform="translate(291,0)" x2="0" y2="5" stroke="#888" stroke-width="1" opacity="1"></line><line transform="translate(327,0)" x2="0" y2="5" stroke="#888" stroke-width="1" opacity="1"></line></g><g class="mark-text role-axis-label" pointer-events="none"><text text-anchor="middle" transform="translate(36.342554566887216,15)" font-family="sans-serif" font-size="10px" fill="#000" opacity="1">1975</text><text text-anchor="middle" transform="translate(72.6917446193627,15)" font-family="sans-serif" font-size="10px" fill="#000" opacity="1">1980</text><text text-anchor="middle" transform="translate(109.06084112860293,15)" font-family="sans-serif" font-size="10px" fill="#000" opacity="1">1985</text><text text-anchor="middle" transform="translate(145.4100311810784,15)" font-family="sans-serif" font-size="10px" fill="#000" opacity="1">1990</text><text text-anchor="middle" transform="translate(181.7592212335539,15)" font-family="sans-serif" font-size="10px" fill="#000" opacity="1">1995</text><text text-anchor="middle" transform="translate(218.10841128602937,15)" font-family="sans-serif" font-size="10px" fill="#000" opacity="1">2000</text><text text-anchor="middle" transform="translate(254.47750779526962,15)" font-family="sans-serif" font-size="10px" fill="#000" opacity="1">2005</text><text text-anchor="middle" transform="translate(290.8266978477451,15)" font-family="sans-serif" font-size="10px" fill="#000" opacity="1">2010</text><text text-anchor="middle" transform="translate(327.1758879002205,15)" font-family="sans-serif" font-size="10px" fill="#000" opacity="1">2015</text></g><g class="mark-rule role-axis-domain" pointer-events="none"><line transform="translate(0,0)" x2="349" y2="0" stroke="#888" stroke-width="1" opacity="1"></line></g></g><path class="foreground" aria-hidden="true" d="" pointer-events="none" display="none"></path></g></g><g class="mark-group role-axis" role="graphics-symbol" aria-roledescription="axis" aria-label="X-axis titled 'x' for a linear scale with values from 0 to 2,200"><g transform="translate(0.5,0.5)"><path class="background" aria-hidden="true" d="M0,0h0v0h0Z" pointer-events="none"></path><g><g class="mark-rule role-axis-tick" pointer-events="none"><line transform="translate(0,0)" x2="0" y2="-5" stroke="#888" stroke-width="1" opacity="1"></line><line transform="translate(32,0)" x2="0" y2="-5" stroke="#888" stroke-width="1" opacity="1"></line><line transform="translate(63,0)" x2="0" y2="-5" stroke="#888" stroke-width="1" opacity="1"></line><line transform="translate(95,0)" x2="0" y2="-5" stroke="#888" stroke-width="1" opacity="1"></line><line transform="translate(127,0)" x2="0" y2="-5" stroke="#888" stroke-width="1" opacity="1"></line><line transform="translate(159,0)" x2="0" y2="-5" stroke="#888" stroke-width="1" opacity="1"></line><line transform="translate(190,0)" x2="0" y2="-5" stroke="#888" stroke-width="1" opacity="1"></line><line transform="translate(222,0)" x2="0" y2="-5" stroke="#888" stroke-width="1" opacity="1"></line><line transform="translate(254,0)" x2="0" y2="-5" stroke="#888" stroke-width="1" opacity="1"></line><line transform="translate(286,0)" x2="0" y2="-5" stroke="#888" stroke-width="1" opacity="1"></line><line transform="translate(317,0)" x2="0" y2="-5" stroke="#888" stroke-width="1" opacity="1"></line><line transform="translate(349,0)" x2="0" y2="-5" stroke="#888" stroke-width="1" opacity="1"></line></g><g class="mark-text role-axis-label" pointer-events="none"><text text-anchor="start" transform="translate(0,-9)" font-family="sans-serif" font-size="10px" fill="#000" opacity="1">0</text><text text-anchor="middle" transform="translate(31.727272727272727,-9)" font-family="sans-serif" font-size="10px" fill="#000" opacity="0">200</text><text text-anchor="middle" transform="translate(63.45454545454545,-9)" font-family="sans-serif" font-size="10px" fill="#000" opacity="1">400</text><text text-anchor="middle" transform="translate(95.18181818181817,-9)" font-family="sans-serif" font-size="10px" fill="#000" opacity="0">600</text><text text-anchor="middle" transform="translate(126.9090909090909,-9)" font-family="sans-serif" font-size="10px" fill="#000" opacity="1">800</text><text text-anchor="middle" transform="translate(158.63636363636363,-9)" font-family="sans-serif" font-size="10px" fill="#000" opacity="0">1,000</text><text text-anchor="middle" transform="translate(190.36363636363635,-9)" font-family="sans-serif" font-size="10px" fill="#000" opacity="1">1,200</text><text text-anchor="middle" transform="translate(222.0909090909091,-9)" font-family="sans-serif" font-size="10px" fill="#000" opacity="0">1,400</text><text text-anchor="middle" transform="translate(253.8181818181818,-9)" font-family="sans-serif" font-size="10px" fill="#000" opacity="1">1,600</text><text text-anchor="middle" transform="translate(285.54545454545456,-9)" font-family="sans-serif" font-size="10px" fill="#000" opacity="0">1,800</text><text text-anchor="middle" transform="translate(317.27272727272725,-9)" font-family="sans-serif" font-size="10px" fill="#000" opacity="1">2,000</text><text text-anchor="end" transform="translate(349,-9)" font-family="sans-serif" font-size="10px" fill="#000" opacity="0">2,200</text></g><g class="mark-rule role-axis-domain" pointer-events="none"><line transform="translate(0,0)" x2="349" y2="0" stroke="#888" stroke-width="1" opacity="1"></line></g><g class="mark-text role-axis-title" pointer-events="none"><text text-anchor="middle" transform="translate(174.5,-23)" font-family="sans-serif" font-size="11px" font-weight="bold" fill="#000" opacity="1">x</text></g></g><path class="foreground" aria-hidden="true" d="" pointer-events="none" display="none"></path></g></g><g class="mark-group role-axis" role="graphics-symbol" aria-roledescription="axis" aria-label="Y-axis for a linear scale with values from 0 to 16,000"><g transform="translate(0.5,0.5)"><path class="background" aria-hidden="true" d="M0,0h0v0h0Z" pointer-events="none"></path><g><g class="mark-rule role-axis-tick" pointer-events="none"><line transform="translate(0,311)" x2="-5" y2="0" stroke="#888" stroke-width="1" opacity="1"></line><line transform="translate(0,272)" x2="-5" y2="0" stroke="#888" stroke-width="1" opacity="1"></line><line transform="translate(0,233)" x2="-5" y2="0" stroke="#888" stroke-width="1" opacity="1"></line><line transform="translate(0,194)" x2="-5" y2="0" stroke="#888" stroke-width="1" opacity="1"></line><line transform="translate(0,156)" x2="-5" y2="0" stroke="#888" stroke-width="1" opacity="1"></line><line transform="translate(0,117)" x2="-5" y2="0" stroke="#888" stroke-width="1" opacity="1"></line><line transform="translate(0,78)" x2="-5" y2="0" stroke="#888" stroke-width="1" opacity="1"></line><line transform="translate(0,39)" x2="-5" y2="0" stroke="#888" stroke-width="1" opacity="1"></line><line transform="translate(0,0)" x2="-5" y2="0" stroke="#888" stroke-width="1" opacity="1"></line></g><g class="mark-text role-axis-label" pointer-events="none"><text text-anchor="end" transform="translate(-7,314)" font-family="sans-serif" font-size="10px" fill="#000" opacity="1">0</text><text text-anchor="end" transform="translate(-7,275.125)" font-family="sans-serif" font-size="10px" fill="#000" opacity="1">2,000</text><text text-anchor="end" transform="translate(-7,236.25)" font-family="sans-serif" font-size="10px" fill="#000" opacity="1">4,000</text><text text-anchor="end" transform="translate(-7,197.375)" font-family="sans-serif" font-size="10px" fill="#000" opacity="1">6,000</text><text text-anchor="end" transform="translate(-7,158.5)" font-family="sans-serif" font-size="10px" fill="#000" opacity="1">8,000</text><text text-anchor="end" transform="translate(-7,119.625)" font-family="sans-serif" font-size="10px" fill="#000" opacity="1">10,000</text><text text-anchor="end" transform="translate(-7,80.75)" font-family="sans-serif" font-size="10px" fill="#000" opacity="1">12,000</text><text text-anchor="end" transform="translate(-7,41.875)" font-family="sans-serif" font-size="10px" fill="#000" opacity="1">14,000</text><text text-anchor="end" transform="translate(-7,3)" font-family="sans-serif" font-size="10px" fill="#000" opacity="1">16,000</text></g><g class="mark-rule role-axis-domain" pointer-events="none"><line transform="translate(0,311)" x2="0" y2="-311" stroke="#888" stroke-width="1" opacity="1"></line></g></g><path class="foreground" aria-hidden="true" d="" pointer-events="none" display="none"></path></g></g><g class="mark-group role-scope layer_0_pathgroup" role="graphics-object" aria-roledescription="group mark container"><g transform="translate(0,0)"><path class="background" aria-hidden="true" d="M0,0h349v311h-349Z"></path><g><g class="mark-line role-mark layer_0_marks" role="graphics-object" aria-roledescription="line mark container"><path aria-label="Year: Jan 01, 1970; Value1: 271.4065; Region: Sub Saharan Africa" role="graphics-symbol" aria-roledescription="line mark" d="M0,305.725L7.266,305.462L14.532,305.031L21.817,304.195L29.083,303.632L36.349,303.833L43.615,303.344L50.901,303.52L58.167,303.852L65.433,303.144L72.698,302.996L79.984,303.08L87.25,303.077L94.516,302.986L101.782,302.611L109.067,302.372L116.333,302.406L123.599,302.059L130.865,301.792L138.151,301.77L145.417,301.677L152.683,301.718L159.948,301.682L167.234,301.723L174.5,301.539L181.766,300.962L189.032,300.318L196.317,299.958L203.583,299.939L210.849,300.162L218.115,299.856L225.401,299.471L232.667,299.404L239.933,298.722L247.198,298.093L254.484,297.785L261.75,297.771L269.016,297.432L276.282,296.607L283.567,297.291L290.833,296.598L298.099,296.663L305.365,296.069L312.651,295.613L319.917,295.236L327.183,295.023L334.448,294.582L341.734,294.432L349,294.187" stroke="rgb(212, 238, 180)" stroke-width="2"></path></g></g><path class="foreground" aria-hidden="true" d="" display="none"></path></g><g transform="translate(0,0)"><path class="background" aria-hidden="true" d="M0,0h349v311h-349Z"></path><g><g class="mark-line role-mark layer_0_marks" role="graphics-object" aria-roledescription="line mark container"><path aria-label="Year: Jan 01, 1970; Value1: 531.5656; Region: Latin America and Caribbean" role="graphics-symbol" aria-roledescription="line mark" d="M0,300.668L7.266,300.625L14.532,299.984L21.817,299.036L29.083,298.508L36.349,298.282L43.615,297.399L50.901,296.875L58.167,295.868L65.433,295.02L72.698,294.425L79.984,294.43L87.25,294.222L94.516,294.708L101.782,294.433L109.067,294.274L116.333,293.6L123.599,293.016L130.865,292.624L138.151,292.027L145.417,292.187L152.683,291.772L159.948,291.4L167.234,290.781L174.5,289.683L181.766,289.17L189.032,287.722L196.317,286.342L203.583,285.433L210.849,285.67L218.115,284.587L225.401,284.619L232.667,284.649L239.933,283.97L247.198,282.708L254.484,281.873L261.75,281.106L269.016,280.17L276.282,278.748L283.567,279.524L290.833,277.49L298.099,276.729L305.365,275.067L312.651,274.615L319.917,274.055L327.183,274.598L334.448,274.895L341.734,274.818L349,275.152" stroke="rgb(169, 221, 183)" stroke-width="2"></path></g></g><path class="foreground" aria-hidden="true" d="" display="none"></path></g><g transform="translate(0,0)"><path class="background" aria-hidden="true" d="M0,0h349v311h-349Z"></path><g><g class="mark-line role-mark layer_0_marks" role="graphics-object" aria-roledescription="line mark container"><path aria-label="Year: Jan 01, 1970; Value1: 5050.316; Region: North America" role="graphics-symbol" aria-roledescription="line mark" d="M0,212.834L7.266,215.197L14.532,210.018L21.817,206.001L29.083,209.093L36.349,213.476L43.615,207.503L50.901,204.03L58.167,204.075L65.433,203.016L72.698,207.352L79.984,209.085L87.25,214.249L94.516,214.734L101.782,210.262L109.067,209.76L116.333,210.746L123.599,207.465L130.865,202.553L138.151,201.133L145.417,203.724L152.683,204.67L159.948,202.852L167.234,200.555L174.5,198.605L181.766,197.359L189.032,194.224L196.317,190.522L203.583,190.132L210.849,189.539L218.115,185.168L225.401,186.479L232.667,187.893L239.933,186.037L247.198,184.565L254.484,184.14L261.75,186.317L269.016,184.165L276.282,188.24L283.567,197.001L290.833,192.01L298.099,194.341L305.365,197.83L312.651,196.156L319.917,194.667L327.183,197.958L334.448,199.255L341.734,199.74L349,196.898" stroke="rgb(116, 201, 189)" stroke-width="2"></path></g></g><path class="foreground" aria-hidden="true" d="" display="none"></path></g><g transform="translate(0,0)"><path class="background" aria-hidden="true" d="M0,0h349v311h-349Z"></path><g><g class="mark-line role-mark layer_0_marks" role="graphics-object" aria-roledescription="line mark container"><path aria-label="Year: Jan 01, 1970; Value1: 2196.186; Region: East Asia and Pacific" role="graphics-symbol" aria-roledescription="line mark" d="M0,268.312L7.266,268.223L14.532,265.58L21.817,261.709L29.083,261.037L36.349,258.769L43.615,256.609L50.901,251.931L58.167,246.027L65.433,243.892L72.698,244.497L79.984,245.044L87.25,244.155L94.516,241.959L101.782,236.945L109.067,236.243L116.333,233.578L123.599,229.946L130.865,223.779L138.151,220.437L145.417,216.745L152.683,212.621L159.948,208.978L167.234,203.062L174.5,197.106L181.766,188.531L189.032,186.838L196.317,183.993L203.583,184.32L210.849,182.983L218.115,176.045L225.401,171.58L232.667,163.972L239.933,149.453L247.198,133.156L254.484,118.282L261.75,103.872L269.016,88.663L276.282,86.461L283.567,77.227L290.833,59.073L298.099,39.883L305.365,33.849L312.651,23.84L319.917,21.083L327.183,21.03L334.448,16.049L341.734,12.142L349,7.294" stroke="rgb(69, 180, 194)" stroke-width="2"></path></g></g><path class="foreground" aria-hidden="true" d="" display="none"></path></g><g transform="translate(0,0)"><path class="background" aria-hidden="true" d="M0,0h349v311h-349Z"></path><g><g class="mark-line role-mark layer_0_marks" role="graphics-object" aria-roledescription="line mark container"><path aria-label="Year: Jan 01, 1970; Value1: 6585.2; Region: Europe and Central Asia" role="graphics-symbol" aria-roledescription="line mark" d="M0,183L7.266,182.915L14.532,178.009L21.817,170.545L29.083,169.986L36.349,169.085L43.615,161.483L50.901,160.258L58.167,153.495L65.433,149.048L72.698,149.797L79.984,154.392L87.25,155.751L94.516,155.362L101.782,154.452L109.067,152.734L116.333,150.194L123.599,146.954L130.865,145.765L138.151,145.592L145.417,143.815L152.683,146.96L159.948,156.647L167.234,165.248L174.5,173.267L181.766,173.853L189.032,173.81L196.317,178.089L203.583,178.186L210.849,179.054L218.115,177.475L225.401,176.513L232.667,176.677L239.933,172.467L247.198,172.003L254.484,172.61L261.75,170.037L269.016,170.03L276.282,171.101L283.567,182.17L290.833,176.447L298.099,176.4L305.365,176.614L312.651,179.749L319.917,184.287L327.183,184.29L334.448,183.726L341.734,182.584L349,181.748" stroke="rgb(41, 151, 190)" stroke-width="2"></path></g></g><path class="foreground" aria-hidden="true" d="" display="none"></path></g><g transform="translate(0,0)"><path class="background" aria-hidden="true" d="M0,0h349v311h-349Z"></path><g><g class="mark-line role-mark layer_0_marks" role="graphics-object" aria-roledescription="line mark container"><path aria-label="Year: Jan 01, 1970; Value1: 261.4283; Region: South Asia" role="graphics-symbol" aria-roledescription="line mark" d="M0,305.918L7.266,305.88L14.532,305.676L21.817,305.672L29.083,305.299L36.349,304.904L43.615,304.535L50.901,304.397L58.167,304.968L65.433,304.504L72.698,304.207L79.984,303.572L87.25,303.055L94.516,302.569L101.782,301.84L109.067,301.356L116.333,300.724L123.599,299.892L130.865,299.228L138.151,298.445L145.417,297.761L152.683,296.862L159.948,296.252L167.234,295.509L174.5,294.564L181.766,293.297L189.032,292.46L196.317,291.548L203.583,291.213L210.849,289.638L218.115,288.884L225.401,288.428L232.667,287.619L239.933,287L247.198,284.964L254.484,283.793L261.75,282.004L269.016,279.466L276.282,277.717L283.567,274.163L290.833,272.398L298.099,270.327L305.365,267.432L312.651,266.54L319.917,262.583L327.183,260.95L334.448,259.005L341.734,257.182L349,253.504" stroke="rgb(33, 115, 177)" stroke-width="2"></path></g></g><path class="foreground" aria-hidden="true" d="" display="none"></path></g><g transform="translate(0,0)"><path class="background" aria-hidden="true" d="M0,0h349v311h-349Z"></path><g><g class="mark-line role-mark layer_0_marks" role="graphics-object" aria-roledescription="line mark container"><path aria-label="Year: Jan 01, 1970; Value1: 356.7005; Region: Middle East and North Africa" role="graphics-symbol" aria-roledescription="line mark" d="M0,304.067L7.266,303.594L14.532,302.704L21.817,301.377L29.083,301.368L36.349,301.272L43.615,299.637L50.901,299.222L58.167,298.635L65.433,298.164L72.698,297.948L79.984,298.589L87.25,297.693L94.516,296.935L101.782,297.082L109.067,296.37L116.333,296.034L123.599,295.303L130.865,294.599L138.151,293.578L145.417,293.341L152.683,292.514L159.948,291.379L167.234,290.239L174.5,288.589L181.766,287.992L189.032,287.135L196.317,286.051L203.583,286.066L210.849,285.119L218.115,283.979L225.401,282.523L232.667,281.471L239.933,280.372L247.198,278.682L254.484,276.447L261.75,274.529L269.016,272.863L276.282,270.718L283.567,268.837L290.833,267.078L298.099,266.128L305.365,263.93L312.651,262.701L319.917,260.97L327.183,260.41L334.448,258.992L341.734,257.584L349,256.315" stroke="rgb(35, 78, 160)" stroke-width="2"></path></g></g><path class="foreground" aria-hidden="true" d="" display="none"></path></g></g><g class="mark-rule role-mark layer_1_marks" role="graphics-object" aria-roledescription="rule mark container"><line aria-label="x: 1997" role="graphics-symbol" aria-roledescription="rule mark" transform="translate(316.7968181818182,0)" x2="0" y2="311" stroke="#e54753" stroke-width="2"></line><line aria-label="x: 2009" role="graphics-symbol" aria-roledescription="rule mark" transform="translate(318.70045454545453,0)" x2="0" y2="311" stroke="#e54753" stroke-width="2"></line><line aria-label="x: 2015" role="graphics-symbol" aria-roledescription="rule mark" transform="translate(319.6522727272727,0)" x2="0" y2="311" stroke="#e54753" stroke-width="2"></line></g><g class="mark-group role-legend" role="graphics-symbol" aria-roledescription="legend" aria-label="Symbol legend for stroke color with 7 values: Sub Saharan Africa, Latin America and Caribbean, North America, East Asia and Pacific, Europe and Central Asia, South Asia, Middle East and North Africa"><g transform="translate(18,18)"><path class="background" aria-hidden="true" d="M0,0h155v89h-155Z" pointer-events="none"></path><g><g class="mark-group role-legend-entry"><g transform="translate(0,0)"><path class="background" aria-hidden="true" d="M0,0h0v0h0Z" pointer-events="none"></path><g><g class="mark-group role-scope" role="graphics-object" aria-roledescription="group mark container"><g transform="translate(0,0)"><path class="background" aria-hidden="true" d="M0,0h154.88671875v11h-154.88671875Z" pointer-events="none" opacity="1"></path><g><g class="mark-symbol role-legend-symbol" pointer-events="none"><path transform="translate(6,6)" d="M-5,0L5,0" fill="transparent" stroke="rgb(212, 238, 180)" stroke-width="1.5" opacity="1"></path></g><g class="mark-text role-legend-label" pointer-events="none"><text text-anchor="start" transform="translate(16,9)" font-family="sans-serif" font-size="10px" fill="#000" opacity="1">Sub Saharan Africa</text></g></g><path class="foreground" aria-hidden="true" d="" pointer-events="none" display="none"></path></g><g transform="translate(0,13)"><path class="background" aria-hidden="true" d="M0,0h154.88671875v11h-154.88671875Z" pointer-events="none" opacity="1"></path><g><g class="mark-symbol role-legend-symbol" pointer-events="none"><path transform="translate(6,6)" d="M-5,0L5,0" fill="transparent" stroke="rgb(169, 221, 183)" stroke-width="1.5" opacity="1"></path></g><g class="mark-text role-legend-label" pointer-events="none"><text text-anchor="start" transform="translate(16,9)" font-family="sans-serif" font-size="10px" fill="#000" opacity="1">Latin America and Caribbean</text></g></g><path class="foreground" aria-hidden="true" d="" pointer-events="none" display="none"></path></g><g transform="translate(0,26)"><path class="background" aria-hidden="true" d="M0,0h154.88671875v11h-154.88671875Z" pointer-events="none" opacity="1"></path><g><g class="mark-symbol role-legend-symbol" pointer-events="none"><path transform="translate(6,6)" d="M-5,0L5,0" fill="transparent" stroke="rgb(116, 201, 189)" stroke-width="1.5" opacity="1"></path></g><g class="mark-text role-legend-label" pointer-events="none"><text text-anchor="start" transform="translate(16,9)" font-family="sans-serif" font-size="10px" fill="#000" opacity="1">North America</text></g></g><path class="foreground" aria-hidden="true" d="" pointer-events="none" display="none"></path></g><g transform="translate(0,39)"><path class="background" aria-hidden="true" d="M0,0h154.88671875v11h-154.88671875Z" pointer-events="none" opacity="1"></path><g><g class="mark-symbol role-legend-symbol" pointer-events="none"><path transform="translate(6,6)" d="M-5,0L5,0" fill="transparent" stroke="rgb(69, 180, 194)" stroke-width="1.5" opacity="1"></path></g><g class="mark-text role-legend-label" pointer-events="none"><text text-anchor="start" transform="translate(16,9)" font-family="sans-serif" font-size="10px" fill="#000" opacity="1">East Asia and Pacific</text></g></g><path class="foreground" aria-hidden="true" d="" pointer-events="none" display="none"></path></g><g transform="translate(0,52)"><path class="background" aria-hidden="true" d="M0,0h154.88671875v11h-154.88671875Z" pointer-events="none" opacity="1"></path><g><g class="mark-symbol role-legend-symbol" pointer-events="none"><path transform="translate(6,6)" d="M-5,0L5,0" fill="transparent" stroke="rgb(41, 151, 190)" stroke-width="1.5" opacity="1"></path></g><g class="mark-text role-legend-label" pointer-events="none"><text text-anchor="start" transform="translate(16,9)" font-family="sans-serif" font-size="10px" fill="#000" opacity="1">Europe and Central Asia</text></g></g><path class="foreground" aria-hidden="true" d="" pointer-events="none" display="none"></path></g><g transform="translate(0,65)"><path class="background" aria-hidden="true" d="M0,0h154.88671875v11h-154.88671875Z" pointer-events="none" opacity="1"></path><g><g class="mark-symbol role-legend-symbol" pointer-events="none"><path transform="translate(6,6)" d="M-5,0L5,0" fill="transparent" stroke="rgb(33, 115, 177)" stroke-width="1.5" opacity="1"></path></g><g class="mark-text role-legend-label" pointer-events="none"><text text-anchor="start" transform="translate(16,9)" font-family="sans-serif" font-size="10px" fill="#000" opacity="1">South Asia</text></g></g><path class="foreground" aria-hidden="true" d="" pointer-events="none" display="none"></path></g><g transform="translate(0,78)"><path class="background" aria-hidden="true" d="M0,0h154.88671875v11h-154.88671875Z" pointer-events="none" opacity="1"></path><g><g class="mark-symbol role-legend-symbol" pointer-events="none"><path transform="translate(6,6)" d="M-5,0L5,0" fill="transparent" stroke="rgb(35, 78, 160)" stroke-width="1.5" opacity="1"></path></g><g class="mark-text role-legend-label" pointer-events="none"><text text-anchor="start" transform="translate(16,9)" font-family="sans-serif" font-size="10px" fill="#000" opacity="1">Middle East and North Africa</text></g></g><path class="foreground" aria-hidden="true" d="" pointer-events="none" display="none"></path></g></g></g><path class="foreground" aria-hidden="true" d="" pointer-events="none" display="none"></path></g></g></g><path class="foreground" aria-hidden="true" d="" pointer-events="none" display="none"></path></g></g><g class="mark-group role-title"><g transform="translate(-38.728515625,-62)"><path class="background" aria-hidden="true" d="M0,0h0v0h0Z" pointer-events="none"></path><g><g class="mark-text role-title-text" role="graphics-symbol" aria-roledescription="title" aria-label="Title text 'CO₂ Emissions by region'" pointer-events="none"><text text-anchor="start" transform="translate(0,10)" font-family="sans-serif" font-size="13px" font-weight="bold" fill="black" opacity="1">CO₂ Emissions by region</text></g><g class="mark-text role-title-subtitle" role="graphics-symbol" aria-roledescription="subtitle" aria-label="Subtitle text 'Million tonnes. Source: Authors' calculations'" pointer-events="none"><text text-anchor="start" transform="translate(0,24)" font-family="sans-serif" font-size="10px" font-style="italic" fill="#000" opacity="1">Million tonnes. Source: Authors' calculations</text></g></g><path class="foreground" aria-hidden="true" d="" pointer-events="none" display="none"></path></g></g></g><path class="foreground" aria-hidden="true" d="" display="none"></path></g></g></g></svg>