<svg xmlns="http://www.w3.org/2000/svg" xmlns:xlink="http://www.w3.org/1999/xlink" version="1.1" class="marks" width="1029" height="647" viewBox="0 0 1029 647" style="background-color: white;"><g fill="none" stroke-miterlimit="10" transform="translate(65,10)"><g class="mark-group role-frame root" role="graphics-object" aria-roledescription="group mark container"><g transform="translate(0,0)"><path class="background" aria-hidden="true" d="M0.5,0.5h800v600h-800Z" fill="transparent" stroke="#ddd"></path><g><g class="mark-group role-axis" aria-hidden="true"><g transform="translate(0.5,600.5)"><path class="background" aria-hidden="true" d="M0,0h0v0h0Z" pointer-events="none"></path><g><g class="mark-rule role-axis-grid" pointer-events="none"><line transform="translate(0,-600)" x2="0" y2="600" stroke="#ddd" stroke-width="1" opacity="1"></line><line transform="translate(40,-600)" x2="0" y2="600" stroke="#ddd" stroke-width="1" opacity="1"></line><line transform="translate(80,-600)" x2="0" y2="600" stroke="#ddd" stroke-width="1" opacity="1"></line><line transform="translate(120,-600)" x2="0" y2="600" stroke="#ddd" stroke-width="1" opacity="1"></line><line transform="translate(160,-600)" x2="0" y2="600" stroke="#ddd" stroke-width="1" opacity="1"></line><line transform="translate(200,-600)" x2="0" y2="600" stroke="#ddd" stroke-width="1" opacity="1"></line><line transform="translate(240,-600)" x2="0" y2="600" stroke="#ddd" stroke-width="1" opacity="1"></line><line transform="translate(280,-600)" x2="0" y2="600" stroke="#ddd" stroke-width="1" opacity="1"></line><line transform="translate(320,-600)" x2="0" y2="600" stroke="#ddd" stroke-width="1" opacity="1"></line><line transform="translate(360,-600)" x2="0" y2="600" stroke="#ddd" stroke-width="1" opacity="1"></line><line transform="translate(400,-600)" x2="0" y2="600" stroke="#ddd" stroke-width="1" opacity="1"></line><line transform="translate(440,-600)" x2="0" y2="600" stroke="#ddd" stroke-width="1" opacity="1"></line><line transform="translate(480,-600)" x2="0" y2="600" stroke="#ddd" stroke-width="1" opacity="1"></line><line transform="translate(520,-600)" x2="0" y2="600" stroke="#ddd" stroke-width="1" opacity="1"></line><line transform="translate(560,-600)" x2="0" y2="600" stroke="#ddd" stroke-width="1" opacity="1"></line><line transform="translate(600,-600)" x2="0" y2="600" stroke="#ddd" stroke-width="1" opacity="1"></line><line transform="translate(640,-600)" x2="0" y2="600" stroke="#ddd" stroke-width="1" opacity="1"></line><line transform="translate(680,-600)" x2="0" y2="600" stroke="#ddd" stroke-width="1" opacity="1"></line><line transform="translate(720,-600)" x2="0" y2="600" stroke="#ddd" stroke-width="1" opacity="1"></line><line transform="translate(760,-600)" x2="0" y2="600" stroke="#ddd" stroke-width="1" opacity="1"></line><line transform="translate(800,-600)" x2="0" y2="600" stroke="#ddd" stroke-width="1" opacity="1"></line></g></g><path class="foreground" aria-hidden="true" d="" pointer-events="none" display="none"></path></g></g><g class="mark-group role-axis" aria-hidden="true"><g transform="translate(0.5,0.5)"><path class="background" aria-hidden="true" d="M0,0h0v0h0Z" pointer-events="none"></path><g><g class="mark-rule role-axis-grid" pointer-events="none"><line transform="translate(0,600)" x2="800" y2="0" stroke="#ddd" stroke-width="1" opacity="1"></line><line transform="translate(0,567)" x2="800" y2="0" stroke="#ddd" stroke-width="1" opacity="1"></line><line transform="translate(0,533)" x2="800" y2="0" stroke="#ddd" stroke-width="1" opacity="1"></line><line transform="translate(0,500)" x2="800" y2="0" stroke="#ddd" stroke-width="1" opacity="1"></line><line transform="translate(0,467)" x2="800" y2="0" stroke="#ddd" stroke-width="1" opacity="1"></line><line transform="translate(0,433)" x2="800" y2="0" stroke="#ddd" stroke-width="1" opacity="1"></line><line transform="translate(0,400)" x2="800" y2="0" stroke="#ddd" stroke-width="1" opacity="1"></line><line transform="translate(0,367)" x2="800" y2="0" stroke="#ddd" stroke-width="1" opacity="1"></line><line transform="translate(0,333)" x2="800" y2="0" stroke="#ddd" stroke-width="1" opacity="1"></line><line transform="translate(0,300)" x2="800" y2="0" stroke="#ddd" stroke-width="1" opacity="1"></line><line transform="translate(0,267)" x2="800" y2="0" stroke="#ddd" stroke-width="1" opacity="1"></line><line transform="translate(0,233)" x2="800" y2="0" stroke="#ddd" stroke-width="1" opacity="1"></line><line transform="translate(0,200)" x2="800" y2="0" stroke="#ddd" stroke-width="1" opacity="1"></line><line transform="translate(0,167)" x2="800" y2="0" stroke="#ddd" stroke-width="1" opacity="1"></line><line transform="translate(0,133)" x2="800" y2="0" stroke="#ddd" stroke-width="1" opacity="1"></line><line transform="translate(0,100)" x2="800" y2="0" stroke="#ddd" stroke-width="1" opacity="1"></line><line transform="translate(0,67)" x2="800" y2="0" stroke="#ddd" stroke-width="1" opacity="1"></line><line transform="translate(0,33)" x2="800" y2="0" stroke="#ddd" stroke-width="1" opacity="1"></line><line transform="translate(0,0)" x2="800" y2="0" stroke="#ddd" stroke-width="1" opacity="1"></line></g></g><path class="foreground" aria-hidden="true" d="" pointer-events="none" display="none"></path></g></g><g class="mark-group role-axis" role="graphics-symbol" aria-roledescription="axis" aria-label="X-axis titled 'Task Duration (ns)' for a linear scale with values from 0 to 100,000"><g transform="translate(0.5,600.5)"><path class="background" aria-hidden="true" d="M0,0h0v0h0Z" pointer-events="none"></path><g><g class="mark-rule role-axis-tick" pointer-events="none"><line transform="translate(0,0)" x2="0" y2="5" stroke="#888" stroke-width="1" opacity="1"></line><line transform="translate(40,0)" x2="0" y2="5" stroke="#888" stroke-width="1" opacity="1"></line><line transform="translate(80,0)" x2="0" y2="5" stroke="#888" stroke-width="1" opacity="1"></line><line transform="translate(120,0)" x2="0" y2="5" stroke="#888" stroke-width="1" opacity="1"></line><line transform="translate(160,0)" x2="0" y2="5" stroke="#888" stroke-width="1" opacity="1"></line><line transform="translate(200,0)" x2="0" y2="5" stroke="#888" stroke-width="1" opacity="1"></line><line transform="translate(240,0)" x2="0" y2="5" stroke="#888" stroke-width="1" opacity="1"></line><line transform="translate(280,0)" x2="0" y2="5" stroke="#888" stroke-width="1" opacity="1"></line><line transform="translate(320,0)" x2="0" y2="5" stroke="#888" stroke-width="1" opacity="1"></line><line transform="translate(360,0)" x2="0" y2="5" stroke="#888" stroke-width="1" opacity="1"></line><line transform="translate(400,0)" x2="0" y2="5" stroke="#888" stroke-width="1" opacity="1"></line><line transform="translate(440,0)" x2="0" y2="5" stroke="#888" stroke-width="1" opacity="1"></line><line transform="translate(480,0)" x2="0" y2="5" stroke="#888" stroke-width="1" opacity="1"></line><line transform="translate(520,0)" x2="0" y2="5" stroke="#888" stroke-width="1" opacity="1"></line><line transform="translate(560,0)" x2="0" y2="5" stroke="#888" stroke-width="1" opacity="1"></line><line transform="translate(600,0)" x2="0" y2="5" stroke="#888" stroke-width="1" opacity="1"></line><line transform="translate(640,0)" x2="0" y2="5" stroke="#888" stroke-width="1" opacity="1"></line><line transform="translate(680,0)" x2="0" y2="5" stroke="#888" stroke-width="1" opacity="1"></line><line transform="translate(720,0)" x2="0" y2="5" stroke="#888" stroke-width="1" opacity="1"></line><line transform="translate(760,0)" x2="0" y2="5" stroke="#888" stroke-width="1" opacity="1"></line><line transform="translate(800,0)" x2="0" y2="5" stroke="#888" stroke-width="1" opacity="1"></line></g><g class="mark-text role-axis-label" pointer-events="none"><text text-anchor="start" transform="translate(0,15)" font-family="sans-serif" font-size="10px" fill="#000" opacity="1">0</text><text text-anchor="middle" transform="translate(40,15)" font-family="sans-serif" font-size="10px" fill="#000" opacity="0">5,000</text><text text-anchor="middle" transform="translate(80,15)" font-family="sans-serif" font-size="10px" fill="#000" opacity="1">10,000</text><text text-anchor="middle" transform="translate(120,15)" font-family="sans-serif" font-size="10px" fill="#000" opacity="0">15,000</text><text text-anchor="middle" transform="translate(160,15)" font-family="sans-serif" font-size="10px" fill="#000" opacity="1">20,000</text><text text-anchor="middle" transform="translate(200,15)" font-family="sans-serif" font-size="10px" fill="#000" opacity="0">25,000</text><text text-anchor="middle" transform="translate(240,15)" font-family="sans-serif" font-size="10px" fill="#000" opacity="1">30,000</text><text text-anchor="middle" transform="translate(280,15)" font-family="sans-serif" font-size="10px" fill="#000" opacity="0">35,000</text><text text-anchor="middle" transform="translate(320,15)" font-family="sans-serif" font-size="10px" fill="#000" opacity="1">40,000</text><text text-anchor="middle" transform="translate(360,15)" font-family="sans-serif" font-size="10px" fill="#000" opacity="0">45,000</text><text text-anchor="middle" transform="translate(400,15)" font-family="sans-serif" font-size="10px" fill="#000" opacity="1">50,000</text><text text-anchor="middle" transform="translate(440.00000000000006,15)" font-family="sans-serif" font-size="10px" fill="#000" opacity="0">55,000</text><text text-anchor="middle" transform="translate(480,15)" font-family="sans-serif" font-size="10px" fill="#000" opacity="1">60,000</text><text text-anchor="middle" transform="translate(520,15)" font-family="sans-serif" font-size="10px" fill="#000" opacity="0">65,000</text><text text-anchor="middle" transform="translate(560,15)" font-family="sans-serif" font-size="10px" fill="#000" opacity="1">70,000</text><text text-anchor="middle" transform="translate(600,15)" font-family="sans-serif" font-size="10px" fill="#000" opacity="0">75,000</text><text text-anchor="middle" transform="translate(640,15)" font-family="sans-serif" font-size="10px" fill="#000" opacity="1">80,000</text><text text-anchor="middle" transform="translate(680,15)" font-family="sans-serif" font-size="10px" fill="#000" opacity="0">85,000</text><text text-anchor="middle" transform="translate(720,15)" font-family="sans-serif" font-size="10px" fill="#000" opacity="1">90,000</text><text text-anchor="middle" transform="translate(760,15)" font-family="sans-serif" font-size="10px" fill="#000" opacity="0">95,000</text><text text-anchor="end" transform="translate(800,15)" font-family="sans-serif" font-size="10px" fill="#000" opacity="1">100,000</text></g><g class="mark-rule role-axis-domain" pointer-events="none"><line transform="translate(0,0)" x2="800" y2="0" stroke="#888" stroke-width="1" opacity="1"></line></g><g class="mark-text role-axis-title" pointer-events="none"><text text-anchor="middle" transform="translate(400,30)" font-family="sans-serif" font-size="11px" font-weight="bold" fill="#000" opacity="1">Task Duration (ns)</text></g></g><path class="foreground" aria-hidden="true" d="" pointer-events="none" display="none"></path></g></g><g class="mark-group role-axis" role="graphics-symbol" aria-roledescription="axis" aria-label="Y-axis titled 'Execution Time (ns)' for a linear scale with values from 0 to 180,000"><g transform="translate(0.5,0.5)"><path class="background" aria-hidden="true" d="M0,0h0v0h0Z" pointer-events="none"></path><g><g class="mark-rule role-axis-tick" pointer-events="none"><line transform="translate(0,600)" x2="-5" y2="0" stroke="#888" stroke-width="1" opacity="1"></line><line transform="translate(0,567)" x2="-5" y2="0" stroke="#888" stroke-width="1" opacity="1"></line><line transform="translate(0,533)" x2="-5" y2="0" stroke="#888" stroke-width="1" opacity="1"></line><line transform="translate(0,500)" x2="-5" y2="0" stroke="#888" stroke-width="1" opacity="1"></line><line transform="translate(0,467)" x2="-5" y2="0" stroke="#888" stroke-width="1" opacity="1"></line><line transform="translate(0,433)" x2="-5" y2="0" stroke="#888" stroke-width="1" opacity="1"></line><line transform="translate(0,400)" x2="-5" y2="0" stroke="#888" stroke-width="1" opacity="1"></line><line transform="translate(0,367)" x2="-5" y2="0" stroke="#888" stroke-width="1" opacity="1"></line><line transform="translate(0,333)" x2="-5" y2="0" stroke="#888" stroke-width="1" opacity="1"></line><line transform="translate(0,300)" x2="-5" y2="0" stroke="#888" stroke-width="1" opacity="1"></line><line transform="translate(0,267)" x2="-5" y2="0" stroke="#888" stroke-width="1" opacity="1"></line><line transform="translate(0,233)" x2="-5" y2="0" stroke="#888" stroke-width="1" opacity="1"></line><line transform="translate(0,200)" x2="-5" y2="0" stroke="#888" stroke-width="1" opacity="1"></line><line transform="translate(0,167)" x2="-5" y2="0" stroke="#888" stroke-width="1" opacity="1"></line><line transform="translate(0,133)" x2="-5" y2="0" stroke="#888" stroke-width="1" opacity="1"></line><line transform="translate(0,100)" x2="-5" y2="0" stroke="#888" stroke-width="1" opacity="1"></line><line transform="translate(0,67)" x2="-5" y2="0" stroke="#888" stroke-width="1" opacity="1"></line><line transform="translate(0,33)" x2="-5" y2="0" stroke="#888" stroke-width="1" opacity="1"></line><line transform="translate(0,0)" x2="-5" y2="0" stroke="#888" stroke-width="1" opacity="1"></line></g><g class="mark-text role-axis-label" pointer-events="none"><text text-anchor="end" transform="translate(-7,603)" font-family="sans-serif" font-size="10px" fill="#000" opacity="1">0</text><text text-anchor="end" transform="translate(-7,569.6666666666666)" font-family="sans-serif" font-size="10px" fill="#000" opacity="1">10,000</text><text text-anchor="end" transform="translate(-7,536.3333333333333)" font-family="sans-serif" font-size="10px" fill="#000" opacity="1">20,000</text><text text-anchor="end" transform="translate(-7,503)" font-family="sans-serif" font-size="10px" fill="#000" opacity="1">30,000</text><text text-anchor="end" transform="translate(-7,469.6666666666667)" font-family="sans-serif" font-size="10px" fill="#000" opacity="1">40,000</text><text text-anchor="end" transform="translate(-7,436.3333333333333)" font-family="sans-serif" font-size="10px" fill="#000" opacity="1">50,000</text><text text-anchor="end" transform="translate(-7,403.00000000000006)" font-family="sans-serif" font-size="10px" fill="#000" opacity="1">60,000</text><text text-anchor="end" transform="translate(-7,369.6666666666667)" font-family="sans-serif" font-size="10px" fill="#000" opacity="1">70,000</text><text text-anchor="end" transform="translate(-7,336.33333333333337)" font-family="sans-serif" font-size="10px" fill="#000" opacity="1">80,000</text><text text-anchor="end" transform="translate(-7,303)" font-family="sans-serif" font-size="10px" fill="#000" opacity="1">90,000</text><text text-anchor="end" transform="translate(-7,269.66666666666663)" font-family="sans-serif" font-size="10px" fill="#000" opacity="1">100,000</text><text text-anchor="end" transform="translate(-7,236.33333333333331)" font-family="sans-serif" font-size="10px" fill="#000" opacity="1">110,000</text><text text-anchor="end" transform="translate(-7,203.00000000000003)" font-family="sans-serif" font-size="10px" fill="#000" opacity="1">120,000</text><text text-anchor="end" transform="translate(-7,169.66666666666669)" font-family="sans-serif" font-size="10px" fill="#000" opacity="1">130,000</text><text text-anchor="end" transform="translate(-7,136.33333333333331)" font-family="sans-serif" font-size="10px" fill="#000" opacity="1">140,000</text><text text-anchor="end" transform="translate(-7,102.99999999999997)" font-family="sans-serif" font-size="10px" fill="#000" opacity="1">150,000</text><text text-anchor="end" transform="translate(-7,69.6666666666667)" font-family="sans-serif" font-size="10px" fill="#000" opacity="1">160,000</text><text text-anchor="end" transform="translate(-7,36.33333333333335)" font-family="sans-serif" font-size="10px" fill="#000" opacity="1">170,000</text><text text-anchor="end" transform="translate(-7,3)" font-family="sans-serif" font-size="10px" fill="#000" opacity="1">180,000</text></g><g class="mark-rule role-axis-domain" pointer-events="none"><line transform="translate(0,600)" x2="0" y2="-600" stroke="#888" stroke-width="1" opacity="1"></line></g><g class="mark-text role-axis-title" pointer-events="none"><text text-anchor="middle" transform="translate(-48.5927734375,300) rotate(-90) translate(0,-2)" font-family="sans-serif" font-size="11px" font-weight="bold" fill="#000" opacity="1">Execution Time (ns)</text></g></g><path class="foreground" aria-hidden="true" d="" pointer-events="none" display="none"></path></g></g><g class="mark-group role-scope layer_0_pathgroup" role="graphics-object" aria-roledescription="group mark container"><g transform="translate(0,0)"><path class="background" aria-hidden="true" d="M0,0h800v600h-800Z"></path><g><g class="mark-line role-mark layer_0_marks" role="graphics-object" aria-roledescription="line mark container"><path aria-label="Task Duration (ns): 100; Execution Time (ns): 69366; l1: Eager (Thread Pool)" role="graphics-symbol" aria-roledescription="line mark" d="M0.8,368.78L1.6,368.05L2.4,367.997L3.2,367.273L4,367.34L4.8,367.03L5.6,366.457L6.4,365.913L7.2,366.12L8,365.5L8.8,365.493L9.6,364.793L10.4,364.28L11.2,364.493L12,364.133L12.8,363.693L13.6,363.46L14.4,362.693L15.2,360.507L16,362.217L16.8,361.873L17.6,356.033L18.4,361.23L19.2,360.43L20,360.543L20.8,359.977L21.6,359.9L22.4,359.393L23.2,359.007L24,359.013L24.8,358.39L25.6,358.363L26.4,357.65L27.2,357.407L28,357.373L28.8,356.923L29.6,356.68L30.4,356.507L31.2,355.487L32,355.517L32.8,355.11L33.6,354.75L34.4,353.617L35.2,351.517L36,351.24L36.8,351.06L37.6,353.07L38.4,352.803L39.2,349.873L40,352.163L40.8,352.027L41.6,351.423L42.4,351.287L43.2,348.973L44,350.357L44.8,350.28L45.6,350.097L46.4,349.353L47.2,349.077L48,348.73L48.8,345.557L49.6,348.217L50.4,347.867L51.2,347.677L52,347.33L52.8,346.58L53.6,346.607L54.4,343.9L55.2,345.73L56,345.617L56.8,345.037L57.6,344.473L58.4,344.497L59.2,343.987L60,344.073L60.8,343.353L61.6,340.67L62.4,342.86L63.2,342.423L64,342.02L64.8,342.087L65.6,341.657L66.4,341.147L67.2,341.017L68,340.553L68.8,340.053L69.6,336.8L70.4,339.72L71.2,339.317L72,338.413L72.8,338.613L73.6,337.84L74.4,337.737L75.2,337.623L76,337.14L76.8,337.003L77.6,336.483L78.4,335.497L79.2,335.74L80,335.657L80.8,335.007L81.6,334.867L82.4,334.34L83.2,334.527L84,333.76L84.8,333.12L85.6,333.057L86.4,332.683L87.2,332.33L88,332.553L88.8,331.65L89.6,331.55L90.4,331.1L91.2,330.377L92,330.347L92.8,330.257L93.6,329.75L94.4,329.047L95.2,329.017L96,328.803L96.8,328.06L97.6,327.477L98.4,327.363L99.2,327.577L100,325.68L100.8,326.85L101.6,326.33L102.4,325.863L103.2,325.87L104,325.36L104.8,325.38L105.6,324.59L106.4,324.32L107.2,321.497L108,323.777L108.8,323.437L109.6,323.05L110.4,322.713L111.2,322.1L112,322.38L112.8,319.077L113.6,321.603L114.4,320.833L115.2,321.327L116,320.707L116.8,320.223L117.6,319.77L118.4,319.297L119.2,318.547L120,318.917L120.8,318.357L121.6,318.303L122.4,318.057L123.2,317.447L124,317.137L124.8,316.787L125.6,316.237L126.4,316.157L127.2,315.63L128,315.267L128.8,315.187L129.6,314.93L130.4,314.593L131.2,314.417L132,313.62L132.8,313.453L133.6,313.04L134.4,312.533L135.2,312.627L136,311.367L136.8,311.727L137.6,311.697L138.4,310.827L139.2,310.82L140,310.237L140.8,309.89L141.6,310.067L142.4,309.317L143.2,309.03L144,308.397L144.8,308.153L145.6,307.953L146.4,307.69L147.2,307.29L148,306.793L148.8,306.45L149.6,306.277L150.4,305.59L151.2,305.64L152,305.18L152.8,304.893L153.6,304.713L154.4,304.253L155.2,303.813L156,303.917L156.8,303.337L157.6,302.86L158.4,302.823L159.2,302.437L160,302.123L160.8,301.84L161.6,301.167L162.4,300.927L163.2,300.763L164,300.407L164.8,300.363L165.6,299.233L166.4,299.647L167.2,298.64L168,298.633L168.8,298.68L169.6,298.12L170.4,297.733L171.2,297.65L172,296.917L172.8,296.863L173.6,296.337L174.4,295.833L175.2,294.227L176,295.26L176.8,294.953L177.6,295.097L178.4,294.347L179.2,294.137L180,294.047L180.8,293.09L181.6,293.277L182.4,292.413L183.2,292.37L184,289.82L184.8,291.7L185.6,288.863L186.4,291.083L187.2,287.763L188,288.28L188.8,289.983L189.6,289.36L190.4,289.16L191.2,288.96L192,288.877L192.8,288.377L193.6,287.883L194.4,287.7L195.2,287.103L196,286.607L196.8,286.84L197.6,286.223L198.4,285.73L199.2,285.747L200,284.703L200.8,285.233L201.6,284.943L202.4,284.26L203.2,283.853L204,283.53L204.8,283.503L205.6,283.153L206.4,282.293L207.2,282.647L208,281.987L208.8,281.793L209.6,281.313L210.4,278.197L211.2,280.727L212,280.457L212.8,280.113L213.6,279.907L214.4,279.4L215.2,279L216,278.873L216.8,278.307L217.6,276.26L218.4,277.853L219.2,277.3L220,277.363L220.8,276.463L221.6,276.31L222.4,276.277L223.2,275.46L224,275.423L224.8,273.417L225.6,274.15L226.4,274.52L227.2,274.017L228,273.643L228.8,273.227L229.6,273.097L230.4,272.68L231.2,272.103L232,271.7L232.8,269.33L233.6,268.6L234.4,270.873L235.2,270.76L236,270.337L236.8,270.11L237.6,269.56L238.4,268.81L239.2,269.133L240,268.767L240.8,265.117L241.6,267.843L242.4,267.41L243.2,262.427L244,267.057L244.8,266.767L245.6,266.42L246.4,265.957L247.2,265.47L248,263.237L248.8,265.057L249.6,264.85L250.4,264.393L251.2,263.55L252,263.897L252.8,259.35L253.6,263.093L254.4,262.873L255.2,262.357L256,261.98L256.8,261.203L257.6,260.85L258.4,260.863L259.2,257.647L260,257.303L260.8,257.073L261.6,259.86L262.4,259.573L263.2,258.717L264,258.487L264.8,258.543L265.6,258.12L266.4,257.59L267.2,254.73L268,256.997L268.8,256.743L269.6,256.287L270.4,255.873L271.2,255.533L272,255.123L272.8,254.767L273.6,254.42L274.4,254.297L275.2,253.977L276,253.677L276.8,253.17L277.6,253.25L278.4,252.497L279.2,252.107L280,251.86L280.8,251.637L281.6,251.297L282.4,249.497L283.2,250.52L284,250.553L284.8,249.63L285.6,249.42L286.4,249.44L287.2,248.88L288,248.897L288.8,246.74L289.6,247.63L290.4,248.037L291.2,244.85L292,247.093L292.8,247.007L293.6,246.38L294.4,246.133L295.2,245.603L296,245.253L296.8,245.2L297.6,244.593L298.4,244.34L299.2,243.833L300,243.287L300.8,243.583L301.6,242.97L302.4,242.683L303.2,240.293L304,241.937L304.8,241.58L305.6,241.003L306.4,240.727L307.2,238.18L308,240.297L308.8,239.783L309.6,236.317L310.4,239.52L311.2,239.313L312,238.497L312.8,238.44L313.6,235.903L314.4,237.477L315.2,237.083L316,234.857L316.8,236.67L317.6,234.157L318.4,235.903L319.2,235.567L320,235.413L320.8,232.187L321.6,234.377L322.4,233.897L323.2,233.91L324,233.597L324.8,230.807L325.6,232.923L326.4,232.603L327.2,232.59L328,231.56L328.8,231.153L329.6,231.647L330.4,230.983L331.2,230.897L332,230.503L332.8,230.177L333.6,229.817L334.4,229.283L335.2,229.253L336,228.61L336.8,225.633L337.6,228.33L338.4,227.603L339.2,227.507L340,227.22L340.8,226.64L341.6,226.637L342.4,226.103L343.2,225.413L344,225.617L344.8,224.857L345.6,225.097L346.4,224.273L347.2,223.637L348,223.697L348.8,223.5L349.6,223.063L350.4,222.93L351.2,222.357L352,222.107L352.8,222.01L353.6,221.35L354.4,221.493L355.2,220.657L356,217.75L356.8,220.13L357.6,219.703L358.4,219.623L359.2,219.29L360,218.613L360.8,218.823L361.6,218.28L362.4,217.67L363.2,217.547L364,216.943L364.8,216.843L365.6,216.42L366.4,216.03L367.2,215.75L368,215.56L368.8,214.867L369.6,214.587L370.4,214.403L371.2,214.1L372,213.643L372.8,213.08L373.6,213.117L374.4,212.503L375.2,212.027L376,212.15L376.8,211.723L377.6,211.563L378.4,211.27L379.2,210.593L380,208.393L380.8,210.17L381.6,209.56L382.4,209.53L383.2,208.903L384,208.787L384.8,207.777L385.6,207.96L386.4,206.013L387.2,207.36L388,204.413L388.8,206.733L389.6,205.397L390.4,206.203L391.2,205.95L392,205.367L392.8,204.947L393.6,204.827L394.4,202.13L395.2,204.1L396,203.703L396.8,203.277L397.6,203.123L398.4,202.643L399.2,202.49L400,202.15L400.8,201.393L401.6,201.637L402.4,200.747L403.2,200.21L404,200.657L404.8,200.18L405.6,199.937L406.4,199.597L407.2,198.833L408,198.67L408.8,198.073L409.6,197.82L410.4,197.33L411.2,196.917L412,197.113L412.8,194.28L413.6,196.243L414.4,195.827L415.2,195.363L416,195.39L416.8,195.43L417.6,192.937L418.4,194.567L419.2,194.033L420,193.517L420.8,193.77L421.6,193.05L422.4,192.803L423.2,192.5L424,191.767L424.8,189.257L425.6,191.34L426.4,190.93L427.2,190.877L428,187.337L428.8,190.32L429.6,189.84L430.4,189.24L431.2,189.29L432,188.597L432.8,188.17L433.6,188.103L434.4,187.53L435.2,187.7L436,187.093L436.8,186.327L437.6,186.34L438.4,185.82L439.2,185.573L440,185.637L440.8,185.013L441.6,184.577L442.4,184.303L443.2,183.767L444,183.493L444.8,183.43L445.6,183.097L446.4,183.23L447.2,182.34L448,182.003L448.8,181.73L449.6,181.303L450.4,180.857L451.2,180.513L452,180.21L452.8,180.34L453.6,179.47L454.4,179.383L455.2,178.99L456,178.493L456.8,178.237L457.6,177.947L458.4,177.78L459.2,177.187L460,177.12L460.8,176.817L461.6,176.213L462.4,175.71L463.2,175.433L464,175.283L464.8,174.783L465.6,174.517L466.4,174.227L467.2,173.94L468,173.697L468.8,173.727L469.6,173.28L470.4,172.767L471.2,172.26L472,172.06L472.8,171.697L473.6,171.16L474.4,168.297L475.2,170.483L476,169.473L476.8,170.177L477.6,169.83L478.4,169.693L479.2,168.79L480,168.943L480.8,168.447L481.6,168.07L482.4,168L483.2,167.05L484,166.897L484.8,166.783L485.6,166.21L486.4,166.107L487.2,165.69L488,165.303L488.8,164.887L489.6,164.447L490.4,164.25L491.2,163.797L492,162.9L492.8,163.143L493.6,162.84L494.4,160.52L495.2,162.47L496,161.887L496.8,161.843L497.6,161.513L498.4,160.843L499.2,160.247L500,160.113L500.8,160.11L501.6,159.797L502.4,159.263L503.2,156.337L504,158.913L504.8,158.267L505.6,157.98L506.4,157.93L507.2,157.24L508,156.94L508.8,156.757L509.6,155.93L510.4,156.093L511.2,155.48L512,155.463L512.8,155.167L513.6,154.267L514.4,154.577L515.2,154.007L516,153.457L516.8,153.4L517.6,152.943L518.4,152.563L519.2,152.437L520,151.647L520.8,151.74L521.6,151.27L522.4,150.737L523.2,150.817L524,150.29L524.8,150.037L525.6,147.077L526.4,149.043L527.2,149.02L528,148.597L528.8,148.037L529.6,147.94L530.4,147.437L531.2,147.47L532,147.093L532.8,146.5L533.6,146.263L534.4,145.603L535.2,145.72L536,145.703L536.8,144.79L537.6,144.687L538.4,144.287L539.2,143.843L540,143.66L540.8,143.15L541.6,142.637L542.4,142.833L543.2,142.143L544,142.213L544.8,141.84L545.6,141.163L546.4,141.107L547.2,140.757L548,139.923L548.8,140.197L549.6,137.893L550.4,139.61L551.2,139.09L552,138.557L552.8,137.98L553.6,138.053L554.4,137.573L555.2,137.577L556,136.647L556.8,136.703L557.6,136.15L558.4,135.47L559.2,135.257L560,135.373L560.8,134.993L561.6,134.353L562.4,134.113L563.2,133.923L564,133.997L564.8,133.203L565.6,132.93L566.4,130.723L567.2,132.123L568,132.123L568.8,131.48L569.6,131.18L570.4,131.05L571.2,130.48L572,130.317L572.8,129.713L573.6,129.003L574.4,129.303L575.2,129.02L576,128.267L576.8,125.733L577.6,127.667L578.4,127.627L579.2,127.293L580,126.79L580.8,126.56L581.6,125.78L582.4,126.01L583.2,125.627L584,124.737L584.8,122.033L585.6,124.63L586.4,124.117L587.2,123.743L588,123.5L588.8,123.05L589.6,122.663L590.4,122.72L591.2,122.267L592,121.733L592.8,121.657L593.6,121.47L594.4,121.133L595.2,120.717L596,118.31L596.8,119.623L597.6,117.153L598.4,119.577L599.2,118.93L600,118.907L600.8,118.11L601.6,118.037L602.4,117.817L603.2,117.05L604,117.097L604.8,116.523L605.6,116.237L606.4,115.887L607.2,115.4L608,115.163L608.8,114.75L609.6,114.587L610.4,114.53L611.2,113.89L612,113.817L612.8,113.2L613.6,112.99L614.4,112.657L615.2,112.327L616,111.133L616.8,111.473L617.6,111.113L618.4,110.827L619.2,110.747L620,110.013L620.8,110.203L621.6,109.81L622.4,109.183L623.2,109.12L624,108.48L624.8,107.763L625.6,108.06L626.4,107.423L627.2,106.99L628,107.073L628.8,106.39L629.6,106.7L630.4,106.053L631.2,105.387L632,105.393L632.8,104.723L633.6,104.59L634.4,104.31L635.2,103.757L636,103.907L636.8,103.157L637.6,102.717L638.4,102.797L639.2,102.253L640,102.03L640.8,101.733L641.6,100.43L642.4,101.023L643.2,98.023L644,100.103L644.8,100.103L645.6,99.64L646.4,99.397L647.2,99.12L648,98.7L648.8,98.45L649.6,95.72L650.4,97.753L651.2,97.37L652,97.02L652.8,96.617L653.6,96.393L654.4,95.923L655.2,95.737L656,95.203L656.8,95.047L657.6,94.507L658.4,94.117L659.2,93.353L660,93.567L660.8,92.993L661.6,92.59L662.4,92.43L663.2,91.923L664,92.123L664.8,88.927L665.6,91.333L666.4,90.687L667.2,90.657L668,90.573L668.8,89.833L669.6,89.353L670.4,86.647L671.2,88.687L672,88.56L672.8,88.063L673.6,87.623L674.4,87.627L675.2,86.77L676,87.123L676.8,86.543L677.6,86.363L678.4,85.827L679.2,85.65L680,85.027L680.8,84.837L681.6,84.537L682.4,84.327L683.2,84.19L684,83.683L684.8,83.167L685.6,83.013L686.4,82.387L687.2,82.343L688,81.743L688.8,81.333L689.6,78.927L690.4,80.923L691.2,80.433L692,80.27L692.8,79.56L693.6,79.76L694.4,79.473L695.2,78.703L696,78.83L696.8,78.427L697.6,78.003L698.4,74.797L699.2,77.15L700,74.757L700.8,76.16L701.6,76.5L702.4,75.82L703.2,75.38L704,75.303L704.8,75.053L705.6,74.547L706.4,74.527L707.2,74.057L708,72.893L708.8,72.417L709.6,73.03L710.4,72.3L711.2,72.073L712,71.657L712.8,71.88L713.6,71.137L714.4,70.527L715.2,69.95L716,70.21L716.8,69.353L717.6,69.597L718.4,69.147L719.2,69.03L720,68.657L720.8,68.22L721.6,67.957L722.4,67.23L723.2,67.163L724,66.83L724.8,66.627L725.6,66.24L726.4,65.983L727.2,65.533L728,65.643L728.8,64.85L729.6,64.553L730.4,64.44L731.2,63.433L732,63.717L732.8,63.28L733.6,62.617L734.4,62.953L735.2,62.2L736,62.04L736.8,61.527L737.6,61.28L738.4,61.013L739.2,60.48L740,60.27L740.8,59.933L741.6,59.683L742.4,59.32L743.2,58.367L744,58.613L744.8,58.053L745.6,57.603L746.4,57.41L747.2,55.05L748,56.847L748.8,56.587L749.6,56.427L750.4,55.923L751.2,55.66L752,55.17L752.8,54.7L753.6,54.697L754.4,54.21L755.2,53.15L756,53.527L756.8,53.437L757.6,52.607L758.4,52.48L759.2,52.267L760,52.03L760.8,51.497L761.6,51.297L762.4,48.81L763.2,50.213L764,50.323L764.8,49.383L765.6,49.613L766.4,49.11L767.2,48.34L768,48.36L768.8,48.32L769.6,47.64L770.4,47.05L771.2,46.67L772,46.54L772.8,46.77L773.6,43.237L774.4,45.877L775.2,42.903L776,44.59L776.8,45.103L777.6,44.473L778.4,43.59L779.2,43.783L780,43.623L780.8,43.377L781.6,41.837L782.4,42.573L783.2,42.163L784,41.833L784.8,41.383L785.6,41.227L786.4,41.14L787.2,40.843L788,40.567L788.8,39.477L789.6,39.57L790.4,39.057L791.2,38.743L792,38.88L792.8,38.38L793.6,38.093L794.4,37.17L795.2,37.057L796,37.04L796.8,36.63L797.6,36.08L798.4,35.917L799.2,35.4L800,35.057" stroke="#72b7b2" stroke-width="2"></path></g></g><path class="foreground" aria-hidden="true" d="" display="none"></path></g></g><g class="mark-group role-scope layer_1_pathgroup" role="graphics-object" aria-roledescription="group mark container"><g transform="translate(0,0)"><path class="background" aria-hidden="true" d="M0,0h800v600h-800Z"></path><g><g class="mark-line role-mark layer_1_marks" role="graphics-object" aria-roledescription="line mark container"><path aria-label="Task Duration (ns): 100; Execution Time (ns): 68506; l2: Deferred (Thread Pool)" role="graphics-symbol" aria-roledescription="line mark" d="M0.8,371.647L1.6,370.713L2.4,370.893L3.2,370.273L4,369.757L4.8,370.003L5.6,368.813L6.4,369.17L7.2,368.763L8,368.37L8.8,368.287L9.6,367.52L10.4,367.433L11.2,364.993L12,366.997L12.8,366.407L13.6,365.827L14.4,365.39L15.2,365.177L16,364.867L16.8,364.173L17.6,363.95L18.4,364.057L19.2,363.54L20,363.173L20.8,362.7L21.6,362.63L22.4,362.26L23.2,361.487L24,361.727L24.8,360.607L25.6,361.093L26.4,360.697L27.2,360.16L28,360.177L28.8,359.787L29.6,359.247L30.4,359.13L31.2,358.63L32,358.17L32.8,355.537L33.6,357.507L34.4,357.35L35.2,357.177L36,356.627L36.8,356.343L37.6,355.68L38.4,355.523L39.2,355.173L40,354.763L40.8,354.493L41.6,354.137L42.4,353.813L43.2,353.533L44,353.15L44.8,353.237L45.6,352.833L46.4,352.067L47.2,351.913L48,351.75L48.8,351.143L49.6,351.14L50.4,350.39L51.2,350.203L52,349.997L52.8,349.54L53.6,349.31L54.4,348.75L55.2,346.96L56,348.51L56.8,347.707L57.6,347.11L58.4,344.647L59.2,346.743L60,346.757L60.8,346.15L61.6,345.88L62.4,342.873L63.2,345.253L64,344.823L64.8,344.713L65.6,344.54L66.4,343.997L67.2,343.367L68,343.14L68.8,343.023L69.6,342.673L70.4,342.127L71.2,341.827L72,341.42L72.8,341.35L73.6,340.787L74.4,337.637L75.2,340.263L76,337.217L76.8,339.68L77.6,339.437L78.4,338.917L79.2,338.657L80,338.043L80.8,337.583L81.6,335.027L82.4,337.227L83.2,336.75L84,336.607L84.8,335.953L85.6,335.54L86.4,335.743L87.2,335.04L88,334.993L88.8,334.3L89.6,334.423L90.4,333.65L91.2,333.33L92,332.38L92.8,333.037L93.6,332.267L94.4,332.083L95.2,331.663L96,331.293L96.8,331.027L97.6,330.63L98.4,330.3L99.2,330.283L100,329.583L100.8,329.57L101.6,329.067L102.4,329.073L103.2,328.447L104,328.227L104.8,327.917L105.6,327.423L106.4,327.217L107.2,327.197L108,326.457L108.8,326.02L109.6,325.84L110.4,325.387L111.2,324.987L112,325.043L112.8,324.297L113.6,324.41L114.4,323.837L115.2,323.71L116,323.213L116.8,322.783L117.6,322.46L118.4,322.267L119.2,321.733L120,321.587L120.8,320.927L121.6,320.853L122.4,320.457L123.2,319.907L124,319.757L124.8,319.43L125.6,318.89L126.4,318.747L127.2,318.283L128,318.207L128.8,317.637L129.6,317.14L130.4,317.29L131.2,316.79L132,315.807L132.8,316.13L133.6,315.78L134.4,315.503L135.2,315.21L136,314.687L136.8,314.517L137.6,311.883L138.4,313.4L139.2,313.503L140,312.763L140.8,312.623L141.6,312.623L142.4,311.76L143.2,311.553L144,307.993L144.8,311.05L145.6,310.89L146.4,310.417L147.2,308.147L148,309.777L148.8,309.117L149.6,309.087L150.4,309.02L151.2,308.543L152,308.08L152.8,307.367L153.6,307.573L154.4,307.303L155.2,306.47L156,306.527L156.8,306.137L157.6,305.45L158.4,305.577L159.2,304.983L160,304.49L160.8,304.59L161.6,303.873L162.4,303.52L163.2,303.23L164,302.977L164.8,303.183L165.6,302.143L166.4,302.013L167.2,301.877L168,298.33L168.8,301.257L169.6,300.643L170.4,299.947L171.2,300.167L172,299.597L172.8,299.41L173.6,299.143L174.4,298.56L175.2,298.52L176,297.88L176.8,297.74L177.6,297.58L178.4,296.79L179.2,296.913L180,296.37L180.8,295.53L181.6,296.173L182.4,295.353L183.2,295.01L184,294.93L184.8,294.397L185.6,294.28L186.4,293.747L187.2,293.11L188,293.367L188.8,292.65L189.6,292.357L190.4,292.197L191.2,291.797L192,291.303L192.8,291.09L193.6,290.55L194.4,290.197L195.2,290.01L196,289.6L196.8,289.307L197.6,288.693L198.4,288.663L199.2,288.387L200,287.243L200.8,287.95L201.6,287.393L202.4,287.027L203.2,286.733L204,286.37L204.8,286.23L205.6,285.667L206.4,284.817L207.2,284.84L208,284.58L208.8,284.467L209.6,283.92L210.4,283.43L211.2,283.31L212,282.907L212.8,282.543L213.6,282.4L214.4,281.997L215.2,281.627L216,281.537L216.8,280.837L217.6,280.753L218.4,280.637L219.2,279.807L220,279.917L220.8,279.25L221.6,278.763L222.4,278.747L223.2,277.693L224,277.95L224.8,277.943L225.6,276.917L226.4,277.287L227.2,276.613L228,276.26L228.8,276.017L229.6,275.75L230.4,275.4L231.2,274.813L232,274.553L232.8,273.567L233.6,274.027L234.4,273.603L235.2,273.613L236,273.09L236.8,272.647L237.6,272.383L238.4,271.373L239.2,271.62L240,271.26L240.8,270.76L241.6,270.943L242.4,270.097L243.2,269.79L244,269.947L244.8,269.197L245.6,269.247L246.4,268.53L247.2,268.007L248,267.903L248.8,267.56L249.6,265.71L250.4,266.773L251.2,266.447L252,266.68L252.8,266.01L253.6,265.447L254.4,265.16L255.2,264.6L256,264.29L256.8,264.367L257.6,263.533L258.4,261.323L259.2,263.07L260,262.86L260.8,261.193L261.6,262.07L262.4,262.1L263.2,261.69L264,261.083L264.8,260.89L265.6,260.663L266.4,260.113L267.2,260.113L268,259.46L268.8,259.263L269.6,258.85L270.4,258.447L271.2,258.54L272,257.873L272.8,257.493L273.6,257.167L274.4,256.73L275.2,256.413L276,256.053L276.8,256.003L277.6,255.683L278.4,255.18L279.2,254.7L280,254.67L280.8,254.28L281.6,254.013L282.4,253.52L283.2,253.387L284,253.187L284.8,252.543L285.6,252.15L286.4,252.007L287.2,251.207L288,251.47L288.8,251.02L289.6,250.34L290.4,250.147L291.2,249.853L292,249.67L292.8,249.407L293.6,248.88L294.4,248.533L295.2,247.493L296,244.467L296.8,247.677L297.6,247.223L298.4,246.847L299.2,246.65L300,245.82L300.8,245.937L301.6,245.357L302.4,245.17L303.2,242.167L304,241.95L304.8,244.12L305.6,244.213L306.4,243.5L307.2,242.947L308,242.823L308.8,242.363L309.6,242.117L310.4,239.127L311.2,241.537L312,241.59L312.8,240.72L313.6,240.723L314.4,240.063L315.2,239.957L316,239.89L316.8,236.643L317.6,238.92L318.4,238.727L319.2,237.683L320,237.593L320.8,237.39L321.6,237.367L322.4,237.027L323.2,236.487L324,236.14L324.8,233.263L325.6,235.513L326.4,235.177L327.2,235.197L328,234.373L328.8,234.447L329.6,234.033L330.4,233.737L331.2,233.533L332,230.49L332.8,230.107L333.6,232.553L334.4,231.713L335.2,231.8L336,230.937L336.8,230.823L337.6,230.583L338.4,230.28L339.2,230.02L340,229.62L340.8,229.2L341.6,229.12L342.4,228.693L343.2,226.453L344,228.25L344.8,227.427L345.6,227.407L346.4,227.003L347.2,226.323L348,226.63L348.8,226.08L349.6,225.4L350.4,225.48L351.2,222.56L352,221.72L352.8,224.463L353.6,224.043L354.4,223.893L355.2,223.233L356,222.777L356.8,222.837L357.6,221.877L358.4,222.057L359.2,221.8L360,221.2L360.8,221.273L361.6,220.917L362.4,220.33L363.2,220.15L364,219.57L364.8,219.293L365.6,219.077L366.4,216.957L367.2,218.53L368,218.223L368.8,217.74L369.6,217.267L370.4,216.797L371.2,216.503L372,216.403L372.8,215.813L373.6,215.73L374.4,215.133L375.2,215.087L376,214.763L376.8,213.783L377.6,214.24L378.4,213.697L379.2,212.957L380,213.053L380.8,212.643L381.6,211.867L382.4,212.017L383.2,211.287L384,211.383L384.8,210.737L385.6,210.517L386.4,210.66L387.2,210.03L388,209.47L388.8,209.37L389.6,208.867L390.4,208.903L391.2,208.517L392,207.603L392.8,207.62L393.6,207.183L394.4,206.923L395.2,206.907L396,206.34L396.8,204.15L397.6,205.567L398.4,205.01L399.2,205.1L400,204.377L400.8,204.127L401.6,204.06L402.4,203.333L403.2,203.313L404,202.807L404.8,202.357L405.6,202.5L406.4,201.873L407.2,199.103L408,201.447L408.8,200.733L409.6,200.77L410.4,200.323L411.2,199.967L412,199.893L412.8,196.897L413.6,198.863L414.4,198.617L415.2,198.153L416,198.43L416.8,197.87L417.6,196.89L418.4,196.903L419.2,196.497L420,196.273L420.8,196.01L421.6,195.523L422.4,195.58L423.2,192.5L424,192.077L424.8,194.577L425.6,194.097L426.4,193.557L427.2,193.57L428,190.533L428.8,192.95L429.6,192.18L430.4,191.95L431.2,191.507L432,191.27L432.8,190.707L433.6,190.783L434.4,190.01L435.2,190.2L436,189.883L436.8,189.023L437.6,188.44L438.4,188.607L439.2,187.86L440,188.047L440.8,187.827L441.6,187.23L442.4,186.917L443.2,186.43L444,185.793L444.8,182.863L445.6,185.597L446.4,185.62L447.2,184.82L448,184.57L448.8,183.833L449.6,183.557L450.4,183.583L451.2,183.217L452,183.057L452.8,182.797L453.6,182.19L454.4,181.923L455.2,181.707L456,181.177L456.8,180.7L457.6,179.14L458.4,180.217L459.2,180.053L460,177.29L460.8,179.38L461.6,178.857L462.4,175.8L463.2,178.22L464,177.837L464.8,174.333L465.6,177.273L466.4,176.597L467.2,176.577L468,176.25L468.8,175.643L469.6,175.793L470.4,175.057L471.2,174.673L472,174.78L472.8,173.83L473.6,173.737L474.4,173.69L475.2,173.137L476,172.733L476.8,172.847L477.6,172.197L478.4,172.073L479.2,171.347L480,171.26L480.8,171.05L481.6,170.457L482.4,167.943L483.2,169.887L484,169.49L484.8,169.45L485.6,168.947L486.4,168.46L487.2,165.537L488,167.383L488.8,167.647L489.6,167.113L490.4,166.81L491.2,166.58L492,165.85L492.8,163.48L493.6,165.463L494.4,165.093L495.2,165.173L496,164.473L496.8,164.263L497.6,164.27L498.4,163.49L499.2,163.383L500,162.95L500.8,162.497L501.6,161.973L502.4,161.643L503.2,161.413L504,160.96L504.8,160.9L505.6,160.603L506.4,160.217L507.2,159.423L508,159.747L508.8,159.03L509.6,158.697L510.4,158.627L511.2,157.997L512,157.87L512.8,157.67L513.6,156.517L514.4,157.157L515.2,156.077L516,156.04L516.8,153.413L517.6,155.24L518.4,155.027L519.2,154.767L520,154.34L520.8,154.32L521.6,153.697L522.4,153.52L523.2,153.417L524,152.807L524.8,152.507L525.6,152.39L526.4,151.01L527.2,151.607L528,151.25L528.8,150.703L529.6,150.717L530.4,150.257L531.2,150.173L532,149.613L532.8,148.757L533.6,149.013L534.4,144.06L535.2,147.853L536,148.02L536.8,147.377L537.6,147.097L538.4,146.733L539.2,146.377L540,146.17L540.8,145.727L541.6,142.637L542.4,145.297L543.2,144.673L544,142.443L544.8,144.33L545.6,143.71L546.4,143.63L547.2,142.977L548,142.683L548.8,142.743L549.6,141.74L550.4,142.033L551.2,141.487L552,138.323L552.8,140.52L553.6,140.447L554.4,139.963L555.2,137.217L556,139.203L556.8,139.437L557.6,138.98L558.4,138.347L559.2,138.53L560,137.39L560.8,137.16L561.6,137.363L562.4,136.7L563.2,136.453L564,135.84L564.8,136.083L565.6,135.747L566.4,135.117L567.2,134.83L568,134.517L568.8,133.797L569.6,133.9L570.4,133.48L571.2,132.923L572,133.127L572.8,132.397L573.6,131.987L574.4,131.943L575.2,131.427L576,131.073L576.8,130.953L577.6,130.247L578.4,130.11L579.2,129.697L580,129.277L580.8,129.38L581.6,129.01L582.4,128.45L583.2,128.237L584,127.52L584.8,127.557L585.6,126.437L586.4,126.583L587.2,126.71L588,125.94L588.8,125.597L589.6,125.007L590.4,125.01L591.2,124.967L592,124.123L592.8,124.15L593.6,123.883L594.4,123.47L595.2,123.037L596,122.803L596.8,122.357L597.6,121.97L598.4,121.857L599.2,121.097L600,121.273L600.8,120.623L601.6,120.333L602.4,119.953L603.2,119.61L604,119.697L604.8,118.71L605.6,118.657L606.4,118.437L607.2,118.25L608,117.923L608.8,117.677L609.6,117.29L610.4,117.04L611.2,116.61L612,113.353L612.8,115.903L613.6,115.307L614.4,115.187L615.2,114.95L616,113.78L616.8,114.037L617.6,113.56L618.4,113.217L619.2,113.213L620,112.497L620.8,112.557L621.6,112.073L622.4,111.933L623.2,111.563L624,111.017L624.8,110.65L625.6,110.333L626.4,109.993L627.2,109.567L628,109.567L628.8,109.003L629.6,108.763L630.4,108.567L631.2,107.913L632,107.877L632.8,107.203L633.6,107.18L634.4,103.603L635.2,106.217L636,104.66L636.8,105.783L637.6,102.597L638.4,105.333L639.2,104.72L640,104.507L640.8,104.06L641.6,103.793L642.4,103.59L643.2,103.16L644,102.953L644.8,102.04L645.6,102.003L646.4,102.06L647.2,101.52L648,100.8L648.8,101.1L649.6,100.327L650.4,100.207L651.2,99.793L652,99.233L652.8,99.06L653.6,98.903L654.4,98.53L655.2,97.903L656,98.067L656.8,97.16L657.6,96.8L658.4,96.677L659.2,96.59L660,96.317L660.8,95.823L661.6,95.467L662.4,94.287L663.2,94.763L664,94.683L664.8,94.027L665.6,93.963L666.4,93.557L667.2,92.883L668,92.897L668.8,92.663L669.6,91.533L670.4,91.88L671.2,91.477L672,91.227L672.8,90.733L673.6,90.473L674.4,89.087L675.2,90.023L676,89.49L676.8,86.497L677.6,88.723L678.4,88.543L679.2,85.947L680,87.45L680.8,87.563L681.6,87.21L682.4,86.537L683.2,86.58L684,86.267L684.8,86L685.6,85.63L686.4,85.067L687.2,84.977L688,84.377L688.8,83.74L689.6,83.57L690.4,83.157L691.2,82.687L692,82.873L692.8,79.657L693.6,82.383L694.4,81.8L695.2,80.237L696,81.297L696.8,80.85L697.6,77.957L698.4,79.993L699.2,79.523L700,79.38L700.8,79.033L701.6,78.89L702.4,78.587L703.2,78.05L704,77.783L704.8,77.553L705.6,77.023L706.4,76.93L707.2,76.353L708,72.703L708.8,76.067L709.6,74.92L710.4,75.07L711.2,74.727L712,74.367L712.8,74.093L713.6,73.683L714.4,73.257L715.2,72.72L716,72.747L716.8,72.747L717.6,71.933L718.4,71.423L719.2,69.503L720,70.88L720.8,70.597L721.6,70.427L722.4,70.037L723.2,69.867L724,69.32L724.8,69.09L725.6,66.14L726.4,68.71L727.2,67.977L728,67.67L728.8,66.823L729.6,67.047L730.4,67.013L731.2,66.36L732,66.323L732.8,65.843L733.6,65.26L734.4,65.19L735.2,64.763L736,64.483L736.8,64.143L737.6,63.51L738.4,63.38L739.2,63.107L740,62.767L740.8,62.427L741.6,61.517L742.4,61.693L743.2,61.05L744,61.303L744.8,60.513L745.6,60.35L746.4,59.903L747.2,59.883L748,59.52L748.8,58.997L749.6,58.673L750.4,58.613L751.2,57.94L752,57.597L752.8,57.377L753.6,57.027L754.4,56.797L755.2,56.383L756,53.747L756.8,55.85L757.6,55.04L758.4,55.293L759.2,54.65L760,54.28L760.8,54.2L761.6,53.933L762.4,53.493L763.2,52.467L764,53.087L764.8,52.433L765.6,52.063L766.4,51.9L767.2,50.59L768,50.497L768.8,50.56L769.6,50.04L770.4,50.207L771.2,49.553L772,48.823L772.8,48.9L773.6,48.767L774.4,48.437L775.2,47.957L776,45.34L776.8,47.407L777.6,47.12L778.4,46.033L779.2,46.48L780,46.19L780.8,45.67L781.6,45.59L782.4,44.793L783.2,44.883L784,44.19L784.8,43.7L785.6,43.867L786.4,43.443L787.2,43.32L788,42.693L788.8,42.237L789.6,42.387L790.4,41.467L791.2,41.4L792,41.313L792.8,40.753L793.6,40.363L794.4,40.373L795.2,39.247L796,39.197L796.8,39.16L797.6,38.397L798.4,38.683L799.2,37.923L800,34.987" stroke="#f58518" stroke-width="2"></path></g></g><path class="foreground" aria-hidden="true" d="" display="none"></path></g></g><g class="mark-group role-scope layer_2_pathgroup" role="graphics-object" aria-roledescription="group mark container"><g transform="translate(0,0)"><path class="background" aria-hidden="true" d="M0,0h800v600h-800Z"></path><g><g class="mark-line role-mark layer_2_marks" role="graphics-object" aria-roledescription="line mark container"><path aria-label="Task Duration (ns): 100; Execution Time (ns): 55757; l3: Deferred (Inline Executor)" role="graphics-symbol" aria-roledescription="line mark" d="M0.8,414.143L1.6,413.573L2.4,413.54L3.2,412.753L4,412.387L4.8,412.423L5.6,412.04L6.4,411.51L7.2,411.23L8,410.82L8.8,410.733L9.6,410.11L10.4,409.803L11.2,409.717L12,409.203L12.8,409.007L13.6,408.71L14.4,407.947L15.2,407.94L16,407.587L16.8,407.133L17.6,406.813L18.4,406.54L19.2,406.08L20,405.107L20.8,405.47L21.6,405.313L22.4,404.923L23.2,404.39L24,404.2L24.8,403.647L25.6,403.617L26.4,402.59L27.2,402.433L28,402.617L28.8,402.197L29.6,401.67L30.4,401.547L31.2,401.013L32,400.94L32.8,400.49L33.6,400.067L34.4,399.98L35.2,399.463L36,399.107L36.8,398.753L37.6,398.347L38.4,398.137L39.2,397.72L40,397.297L40.8,397.2L41.6,396.84L42.4,396.387L43.2,396.163L44,395.687L44.8,395.507L45.6,395.287L46.4,394.687L47.2,394.723L48,394.143L48.8,393.673L49.6,393.737L50.4,393.213L51.2,392.943L52,392.583L52.8,391.59L53.6,392.033L54.4,391.653L55.2,391.09L56,391.02L56.8,390.393L57.6,389.893L58.4,389.197L59.2,389.4L60,389.083L60.8,388.74L61.6,388.433L62.4,388.257L63.2,387.793L64,387.473L64.8,387.247L65.6,386.653L66.4,386.53L67.2,386.077L68,385.707L68.8,385.547L69.6,385.047L70.4,384.773L71.2,384.587L72,384.073L72.8,383.85L73.6,383.4L74.4,382.967L75.2,382.777L76,382.427L76.8,382.17L77.6,381.787L78.4,381.327L79.2,381.253L80,380.723L80.8,380.343L81.6,380.17L82.4,379.697L83.2,379.46L84,379.253L84.8,378.563L85.6,378.587L86.4,377.963L87.2,377.87L88,377.37L88.8,377.137L89.6,376.947L90.4,376.517L91.2,375.81L92,375.957L92.8,375.317L93.6,374.85L94.4,374.89L95.2,374.24L96,374.13L96.8,373.85L97.6,373.513L98.4,373.123L99.2,372.75L100,372.26L100.8,372.123L101.6,371.77L102.4,371.493L103.2,371.297L104,370.447L104.8,370.51L105.6,370.02L106.4,369.717L107.2,369.633L108,368.907L108.8,368.833L109.6,368.31L110.4,368.007L111.2,367.833L112,367.6L112.8,366.87L113.6,366.807L114.4,366.087L115.2,366.237L116,365.84L116.8,365.18L117.6,365.207L118.4,364.807L119.2,364.19L120,364.187L120.8,363.66L121.6,363.217L122.4,363.09L123.2,362.68L124,362.59L124.8,361.973L125.6,361.61L126.4,361.4L127.2,361.127L128,360.863L128.8,360.47L129.6,359.95L130.4,359.93L131.2,359.337L132,358.98L132.8,358.9L133.6,357.923L134.4,357.81L135.2,357.817L136,357.27L136.8,357.113L137.6,356.813L138.4,356.087L139.2,356.15L140,355.633L140.8,355.34L141.6,355.093L142.4,354.59L143.2,354.38L144,353.737L144.8,353.573L145.6,353.47L146.4,352.86L147.2,352.667L148,352.277L148.8,351.837L149.6,351.79L150.4,351.233L151.2,350.963L152,350.79L152.8,350.33L153.6,350.12L154.4,349.7L155.2,348.517L156,349.177L156.8,348.587L157.6,348.153L158.4,348.107L159.2,347.583L160,347.48L160.8,346.983L161.6,346.663L162.4,346.527L163.2,345.703L164,345.697L164.8,345.46L165.6,345.033L166.4,344.663L167.2,344.24L168,343.887L168.8,344.013L169.6,343.44L170.4,342.94L171.2,342.683L172,342.323L172.8,342.16L173.6,341.817L174.4,341.24L175.2,341.127L176,340.597L176.8,339.993L177.6,340.177L178.4,339.523L179.2,339.343L180,339.037L180.8,338.5L181.6,338.577L182.4,337.89L183.2,337.603L184,337.447L184.8,336.897L185.6,336.797L186.4,336.43L187.2,335.94L188,335.803L188.8,335.043L189.6,334.88L190.4,334.66L191.2,334.07L192,334.08L192.8,333.677L193.6,333.347L194.4,333.11L195.2,332.77L196,332.217L196.8,332.193L197.6,331.493L198.4,331.32L199.2,331.043L200,330.467L200.8,330.623L201.6,329.937L202.4,329.637L203.2,329.423L204,328.933L204.8,328.787L205.6,328.343L206.4,327.74L207.2,327.933L208,327.19L208.8,327.007L209.6,326.757L210.4,326.167L211.2,325.973L212,325.343L212.8,325.203L213.6,325.143L214.4,324.62L215.2,324.2L216,324.067L216.8,323.62L217.6,323.543L218.4,322.983L219.2,322.62L220,322.507L220.8,321.87L221.6,321.497L222.4,321.413L223.2,320.82L224,320.603L224.8,320.39L225.6,319.787L226.4,319.873L227.2,319.253L228,318.907L228.8,318.63L229.6,318.2L230.4,317.987L231.2,317.583L232,317.007L232.8,317.04L233.6,316.553L234.4,316.197L235.2,316.047L236,315.737L236.8,315.107L237.6,315.05L238.4,314.297L239.2,314.46L240,314.003L240.8,313.59L241.6,313.423L242.4,312.833L243.2,312.643L244,312.22L244.8,311.937L245.6,311.767L246.4,311.35L247.2,310.93L248,310.76L248.8,310.01L249.6,310.143L250.4,309.567L251.2,309.257L252,309.15L252.8,308.523L253.6,308.247L254.4,308.193L255.2,307.517L256,307.36L256.8,307.033L257.6,306.5L258.4,306.47L259.2,305.85L260,305.64L260.8,305.463L261.6,304.857L262.4,304.78L263.2,304.233L264,303.947L264.8,303.57L265.6,303.193L266.4,302.72L267.2,302.32L268,301.88L268.8,301.837L269.6,301.68L270.4,301.23L271.2,301.113L272,300.58L272.8,300.24L273.6,299.913L274.4,299.26L275.2,299.313L276,298.977L276.8,298.383L277.6,298.493L278.4,297.93L279.2,297.353L280,297.337L280.8,296.823L281.6,296.517L282.4,296.243L283.2,295.837L284,295.843L284.8,295.253L285.6,294.893L286.4,294.703L287.2,294.323L288,294.173L288.8,293.557L289.6,293.143L290.4,292.897L291.2,292.693L292,292.187L292.8,292.093L293.6,291.55L294.4,291.273L295.2,290.933L296,290.44L296.8,290.383L297.6,289.94L298.4,289.4L299.2,289.393L300,288.663L300.8,288.49L301.6,288.35L302.4,287.777L303.2,287.71L304,287.333L304.8,286.94L305.6,286.84L306.4,286.14L307.2,285.843L308,285.733L308.8,284.927L309.6,284.793L310.4,284.643L311.2,284.157L312,284.06L312.8,283.61L313.6,283.44L314.4,283.023L315.2,282.52L316,282.41L316.8,281.977L317.6,281.51L318.4,281.44L319.2,280.887L320,280.643L320.8,280.267L321.6,279.833L322.4,279.84L323.2,279.277L324,278.883L324.8,278.68L325.6,278.243L326.4,278.013L327.2,277.723L328,276.837L328.8,277.097L329.6,276.687L330.4,276.29L331.2,276.063L332,275.783L332.8,275.667L333.6,275.113L334.4,274.447L335.2,274.497L336,274.057L336.8,273.443L337.6,273.32L338.4,272.96L339.2,272.773L340,272.497L340.8,271.783L341.6,271.72L342.4,271.393L343.2,270.827L344,270.783L344.8,270.25L345.6,270.09L346.4,269.883L347.2,269.303L348,269.207L348.8,268.63L349.6,268.327L350.4,268.093L351.2,267.19L352,267.543L352.8,267.163L353.6,266.67L354.4,266.59L355.2,265.993L356,265.65L356.8,265.553L357.6,264.997L358.4,264.94L359.2,264.307L360,263.913L360.8,263.83L361.6,263.473L362.4,262.663L363.2,262.983L364,262.24L364.8,262.003L365.6,261.727L366.4,261.24L367.2,261.283L368,260.733L368.8,260.26L369.6,260.197L370.4,259.557L371.2,259.467L372,258.827L372.8,258.253L373.6,258.563L374.4,258.177L375.2,257.613L376,257.547L376.8,257.057L377.6,256.51L378.4,256.327L379.2,255.897L380,255.887L380.8,255.397L381.6,254.897L382.4,254.813L383.2,254.267L384,254.093L384.8,253.543L385.6,253.297L386.4,253.207L387.2,252.72L388,252.31L388.8,252.207L389.6,251.623L390.4,251.393L391.2,251.14L392,250.597L392.8,250.617L393.6,250.05L394.4,249.56L395.2,249.54L396,248.883L396.8,248.63L397.6,248.51L398.4,247.617L399.2,247.853L400,247.393L400.8,247.12L401.6,246.997L402.4,246.293L403.2,246.13L404,245.657L404.8,245.403L405.6,245.253L406.4,244.687L407.2,244.233L408,244.147L408.8,243.54L409.6,243.377L410.4,243.22L411.2,242.597L412,242.527L412.8,242.157L413.6,241.61L414.4,241.39L415.2,239.637L416,240.85L416.8,240.533L417.6,239.913L418.4,239.797L419.2,239.177L420,238.68L420.8,238.673L421.6,238.27L422.4,238.15L423.2,237.797L424,237.223L424.8,237.273L425.6,236.63L426.4,236.07L427.2,236.01L428,235.517L428.8,235.403L429.6,235.14L430.4,234.517L431.2,234.2L432,233.73L432.8,233.58L433.6,233.62L434.4,232.78L435.2,232.827L436,232.447L436.8,231.937L437.6,231.553L438.4,231.32L439.2,230.89L440,230.837L440.8,230.26L441.6,230.283L442.4,229.7L443.2,229.103L444,229.13L444.8,228.73L445.6,228.283L446.4,228.173L447.2,227.727L448,227.29L448.8,227.02L449.6,226.61L450.4,226.24L451.2,225.99L452,225.577L452.8,225.513L453.6,224.857L454.4,224.723L455.2,224.41L456,223.877L456.8,223.963L457.6,223.303L458.4,222.913L459.2,222.837L460,221.953L460.8,222.223L461.6,221.767L462.4,220.993L463.2,221.163L464,220.633L464.8,220.26L465.6,220.253L466.4,219.457L467.2,219.587L468,218.86L468.8,218.533L469.6,218.103L470.4,217.417L471.2,217.43L472,217L472.8,216.817L473.6,216.763L474.4,216.453L475.2,215.817L476,215.7L476.8,215.363L477.6,214.86L478.4,214.72L479.2,214.28L480,214.193L480.8,213.79L481.6,213.173L482.4,213.133L483.2,212.92L484,211.963L484.8,212.09L485.6,211.633L486.4,211.27L487.2,211.027L488,210.563L488.8,210.463L489.6,210.017L490.4,209.513L491.2,209.007L492,208.987L492.8,208.713L493.6,208.09L494.4,207.98L495.2,207.763L496,207.113L496.8,206.92L497.6,206.673L498.4,206.263L499.2,206.113L500,205.753L500.8,205.127L501.6,205.13L502.4,204.397L503.2,204.327L504,204.147L504.8,203.503L505.6,203.453L506.4,203.193L507.2,202.433L508,202.54L508.8,201.947L509.6,201.49L510.4,201.343L511.2,200.91L512,200.713L512.8,200.333L513.6,199.74L514.4,199.81L515.2,199.157L516,198.933L516.8,198.703L517.6,198.22L518.4,198.017L519.2,197.817L520,197.013L520.8,196.99L521.6,196.59L522.4,196.293L523.2,196.087L524,195.537L524.8,195.173L525.6,194.843L526.4,194.663L527.2,194.383L528,194.137L528.8,193.227L529.6,193.64L530.4,192.837L531.2,192.903L532,192.253L532.8,191.783L533.6,191.83L534.4,191.043L535.2,190.97L536,190.797L536.8,190.123L537.6,190.097L538.4,189.617L539.2,189.36L540,189.127L540.8,188.83L541.6,188.217L542.4,188.07L543.2,187.463L544,187.497L544.8,186.323L545.6,186.493L546.4,186.493L547.2,186.007L548,185.503L548.8,185.537L549.6,184.97L550.4,184.713L551.2,184.377L552,183.827L552.8,183.69L553.6,183.173L554.4,182.597L555.2,182.51L556,182.26L556.8,182.117L557.6,181.84L558.4,180.95L559.2,181.08L560,180.613L560.8,180.157L561.6,180.163L562.4,179.607L563.2,179.503L564,179.047L564.8,178.333L565.6,178.557L566.4,177.947L567.2,177.503L568,177.337L568.8,176.697L569.6,176.72L570.4,176.273L571.2,175.983L572,175.453L572.8,175.127L573.6,174.847L574.4,174.72L575.2,174.32L576,174.007L576.8,173.8L577.6,173.14L578.4,173.137L579.2,172.47L580,172.177L580.8,172.077L581.6,171.617L582.4,171.39L583.2,171.093L584,170.583L584.8,170.593L585.6,169.96L586.4,169.313L587.2,169.377L588,168.863L588.8,168.603L589.6,168.24L590.4,167.823L591.2,167.753L592,167.15L592.8,166.92L593.6,166.707L594.4,166.17L595.2,165.927L596,165.48L596.8,165.17L597.6,164.95L598.4,164.64L599.2,164.197L600,164.3L600.8,163.493L601.6,163.367L602.4,163.09L603.2,162.403L604,162.527L604.8,161.793L605.6,161.657L606.4,161.39L607.2,160.967L608,160.72L608.8,160.253L609.6,160.09L610.4,159.783L611.2,159.263L612,159.02L612.8,158.66L613.6,157.973L614.4,158.077L615.2,157.613L616,156.907L616.8,156.977L617.6,156.61L618.4,156.227L619.2,156.113L620,155.443L620.8,155.217L621.6,155.173L622.4,154.603L623.2,154.53L624,153.897L624.8,153.59L625.6,153.45L626.4,152.92L627.2,152.64L628,152.207L628.8,151.97L629.6,151.683L630.4,151.247L631.2,150.953L632,150.673L632.8,150L633.6,149.99L634.4,149.567L635.2,148.703L636,149.19L636.8,148.72L637.6,148.25L638.4,148.113L639.2,147.697L640,147.323L640.8,146.853L641.6,146.517L642.4,146.467L643.2,145.987L644,145.61L644.8,145.223L645.6,144.873L646.4,144.557L647.2,144.35L648,143.837L648.8,143.823L649.6,142.8L650.4,142.923L651.2,142.75L652,142.26L652.8,141.757L653.6,141.48L654.4,141.177L655.2,140.927L656,140.623L656.8,139.54L657.6,139.083L658.4,139.543L659.2,139.13L660,138.993L660.8,138.517L661.6,138.363L662.4,137.853L663.2,137.477L664,137.35L664.8,136.913L665.6,136.697L666.4,136.11L667.2,135.877L668,135.393L668.8,135.133L669.6,134.713L670.4,134.793L671.2,134.233L672,133.923L672.8,133.553L673.6,133.297L674.4,133.02L675.2,132.63L676,132.18L676.8,132.127L677.6,131.34L678.4,131.47L679.2,130.93L680,130.33L680.8,130.337L681.6,129.857L682.4,129.443L683.2,129.453L684,128.983L684.8,128.723L685.6,128.183L686.4,127.72L687.2,127.78L688,127.387L688.8,126.757L689.6,126.527L690.4,126.123L691.2,125.897L692,125.603L692.8,125.147L693.6,124.84L694.4,124.567L695.2,124.163L696,124.02L696.8,123.623L697.6,123.29L698.4,122.88L699.2,121.993L700,122.463L700.8,121.827L701.6,121.493L702.4,121.447L703.2,120.763L704,120.71L704.8,120.22L705.6,119.86L706.4,119.677L707.2,119.157L708,118.763L708.8,118.717L709.6,117.647L710.4,118.047L711.2,117.863L712,117.043L712.8,116.933L713.6,116.757L714.4,116.137L715.2,116.1L716,115.517L716.8,115.367L717.6,114.867L718.4,114.467L719.2,114.5L720,114.023L720.8,113.45L721.6,112.82L722.4,112.913L723.2,112.613L724,112.287L724.8,111.733L725.6,111.507L726.4,111.313L727.2,110.853L728,110.78L728.8,110.207L729.6,110.157L730.4,109.707L731.2,109.193L732,109.09L732.8,108.553L733.6,108.097L734.4,108.03L735.2,107.417L736,107.343L736.8,106.86L737.6,106.48L738.4,106.357L739.2,105.957L740,105.517L740.8,105.403L741.6,104.64L742.4,104.663L743.2,104.047L744,103.86L744.8,103.64L745.6,103.233L746.4,102.887L747.2,102.697L748,102.233L748.8,101.953L749.6,101.693L750.4,101.19L751.2,100.64L752,100.153L752.8,100.253L753.6,100.057L754.4,99.377L755.2,99.11L756,99.037L756.8,98.593L757.6,98.167L758.4,97.863L759.2,97.507L760,97.307L760.8,96.767L761.6,96.81L762.4,96.183L763.2,95.737L764,95.753L764.8,95.303L765.6,94.927L766.4,94.717L767.2,94.073L768,94.033L768.8,93.42L769.6,92.887L770.4,92.7L771.2,92.327L772,92.153L772.8,91.867L773.6,91.55L774.4,91.253L775.2,90.45L776,90.537L776.8,90.29L777.6,89.677L778.4,89.533L779.2,89.353L780,88.893L780.8,88.56L781.6,88.257L782.4,87.84L783.2,87.627L784,87.253L784.8,86.747L785.6,86.52L786.4,86.243L787.2,85.98L788,85.65L788.8,85.2L789.6,85.097L790.4,84.32L791.2,84.213L792,83.977L792.8,83.487L793.6,83.303L794.4,82.66L795.2,82.273L796,82.307L796.8,81.233L797.6,81.5L798.4,81.397L799.2,80.847L800,80.68" stroke="#4c78a8" stroke-width="2"></path></g></g><path class="foreground" aria-hidden="true" d="" display="none"></path></g></g><g class="mark-group role-scope layer_3_pathgroup" role="graphics-object" aria-roledescription="group mark container"><g transform="translate(0,0)"><path class="background" aria-hidden="true" d="M0,0h800v600h-800Z"></path><g><g class="mark-line role-mark layer_3_marks" role="graphics-object" aria-roledescription="line mark container"><path aria-label="Task Duration (ns): 100; Execution Time (ns): 55011; l4: Execute (Inline Executor)" role="graphics-symbol" aria-roledescription="line mark" d="M0.8,416.63L1.6,416.13L2.4,416.077L3.2,415.623L4,415.017L4.8,415.017L5.6,414.533L6.4,414.347L7.2,414.063L8,413.377L8.8,413.34L9.6,412.957L10.4,412.363L11.2,412.48L12,411.86L12.8,411.633L13.6,411.057L14.4,410.663L15.2,410.633L16,410.013L16.8,409.703L17.6,409.557L18.4,409L19.2,408.757L20,408.44L20.8,407.993L21.6,407.8L22.4,407.28L23.2,406.84L24,406.807L24.8,406.217L25.6,406.13L26.4,405.83L27.2,404.823L28,405.337L28.8,404.707L29.6,404.267L30.4,404.2L31.2,403.683L32,403.223L32.8,403.29L33.6,402.62L34.4,402.637L35.2,402.01L36,401.717L36.8,401.54L37.6,401.13L38.4,400.633L39.2,400.457L40,400.03L40.8,399.903L41.6,399.37L42.4,398.93L43.2,398.727L44,398.347L44.8,398.047L45.6,397.847L46.4,397.293L47.2,397.12L48,396.64L48.8,396.143L49.6,396.103L50.4,395.677L51.2,395.597L52,395.177L52.8,394.623L53.6,394.543L54.4,394.173L55.2,393.757L56,393.547L56.8,392.923L57.6,392.637L58.4,392.513L59.2,391.817L60,391.897L60.8,391.303L61.6,390.713L62.4,390.873L63.2,390.313L64,390.097L64.8,389.73L65.6,389.11L66.4,389.24L67.2,388.547L68,388.227L68.8,388.003L69.6,387.647L70.4,387.447L71.2,386.953L72,386.493L72.8,386.43L73.6,386.08L74.4,385.437L75.2,385.527L76,384.82L76.8,384.697L77.6,384.553L78.4,383.893L79.2,383.837L80,383.43L80.8,382.86L81.6,382.677L82.4,382.12L83.2,382.097L84,381.777L84.8,381.133L85.6,381.217L86.4,380.733L87.2,379.983L88,379.967L88.8,379.583L89.6,379.353L90.4,378.813L91.2,378.287L92,378.407L92.8,377.887L93.6,377.39L94.4,377.44L95.2,376.953L96,376.74L96.8,376.323L97.6,375.35L98.4,375.82L99.2,375.513L100,374.703L100.8,374.713L101.6,374.12L102.4,373.98L103.2,373.74L104,373.187L104.8,372.877L105.6,372.423L106.4,372.17L107.2,372.073L108,371.54L108.8,371.223L109.6,370.843L110.4,370.46L111.2,370.437L112,369.853L112.8,369.467L113.6,369.43L114.4,368.78L115.2,368.71L116,368.393L116.8,367.78L117.6,367.747L118.4,367.147L119.2,366.8L120,366.733L120.8,366.147L121.6,365.947L122.4,365.597L123.2,365.227L124,365.147L124.8,364.593L125.6,364.1L126.4,364.083L127.2,363.633L128,363.373L128.8,362.927L129.6,362.413L130.4,362.52L131.2,362.027L132,361.407L132.8,361.36L133.6,360.857L134.4,360.337L135.2,360.333L136,359.697L136.8,359.62L137.6,359.22L138.4,358.427L139.2,358.657L140,358.137L140.8,357.937L141.6,357.81L142.4,357.11L143.2,357.143L144,356.533L144.8,355.993L145.6,355.977L146.4,355.533L147.2,355.327L148,354.97L148.8,354.407L149.6,354.33L150.4,353.827L151.2,353.51L152,353.19L152.8,352.807L153.6,352.397L154.4,352.173L155.2,351.807L156,351.69L156.8,351.323L157.6,350.757L158.4,350.713L159.2,350.123L160,349.867L160.8,349.61L161.6,349.063L162.4,349.21L163.2,348.57L164,348.087L164.8,347.94L165.6,347.417L166.4,347.343L167.2,346.94L168,346.18L168.8,346.543L169.6,345.977L170.4,345.303L171.2,345.397L172,344.86L172.8,344.69L173.6,344.227L174.4,343.743L175.2,343.67L176,343.3L176.8,342.773L177.6,342.613L178.4,342.113L179.2,341.657L180,341.63L180.8,341.123L181.6,341.207L182.4,340.54L183.2,340.053L184,340.017L184.8,339.46L185.6,339.237L186.4,338.987L187.2,338.333L188,338.283L188.8,337.91L189.6,337.287L190.4,337.187L191.2,336.727L192,336.803L192.8,336.297L193.6,335.8L194.4,335.76L195.2,335.023L196,334.61L196.8,334.777L197.6,334.027L198.4,333.903L199.2,333.65L200,333.027L200.8,333.017L201.6,332.57L202.4,332L203.2,331.863L204,331.6L204.8,331.197L205.6,330.843L206.4,330.413L207.2,330.317L208,329.787L208.8,329.45L209.6,329.36L210.4,328.753L211.2,328.8L212,328.287L212.8,327.767L213.6,327.72L214.4,325.827L215.2,326.603L216,326.723L216.8,326.047L217.6,325.98L218.4,325.663L219.2,325.167L220,325.003L220.8,324.55L221.6,324.003L222.4,323.973L223.2,323.56L224,322.98L224.8,322.93L225.6,322.343L226.4,322.217L227.2,321.79L228,321.313L228.8,321.1L229.6,320.747L230.4,320.423L231.2,320.07L232,319.707L232.8,319.683L233.6,319.197L234.4,318.683L235.2,318.61L236,318.053L236.8,317.853L237.6,317.64L238.4,316.93L239.2,317.077L240,316.527L240.8,315.893L241.6,315.967L242.4,315.463L243.2,315.267L244,314.963L244.8,314.32L245.6,314.25L246.4,313.82L247.2,313.23L248,313.313L248.8,312.677L249.6,312.663L250.4,312.14L251.2,311.7L252,311.69L252.8,311.243L253.6,310.72L254.4,310.61L255.2,309.957L256,309.903L256.8,309.457L257.6,309.08L258.4,309.07L259.2,308.57L260,307.947L260.8,307.917L261.6,307.453L262.4,307.277L263.2,306.917L264,306.35L264.8,306.31L265.6,305.937L266.4,305.31L267.2,305.263L268,304.623L268.8,304.573L269.6,303.35L270.4,303.76L271.2,303.69L272,303.15L272.8,302.783L273.6,302.623L274.4,302.113L275.2,301.793L276,301.567L276.8,301.063L277.6,301.017L278.4,300.55L279.2,299.963L280,299.643L280.8,299.52L281.6,299.22L282.4,299.02L283.2,298.453L284,298.233L284.8,297.79L285.6,297.387L286.4,297.183L287.2,296.787L288,296.55L288.8,296.283L289.6,295.653L290.4,295.633L291.2,295.12L292,294.62L292.8,294.523L293.6,294.017L294.4,293.763L295.2,293.637L296,292.987L296.8,292.993L297.6,292.417L298.4,291.957L299.2,291.927L300,291.353L300.8,291.297L301.6,291.017L302.4,290.443L303.2,290.237L304,289.7L304.8,289.343L305.6,289.363L306.4,288.77L307.2,288.35L308,288.273L308.8,287.75L309.6,287.7L310.4,287.18L311.2,286.627L312,286.64L312.8,285.93L313.6,285.827L314.4,285.55L315.2,284.943L316,285L316.8,284.59L317.6,284.09L318.4,284.08L319.2,283.367L320,283.307L320.8,283.073L321.6,282.393L322.4,282.377L323.2,281.923L324,281.297L324.8,281.267L325.6,280.727L326.4,280.543L327.2,280.327L328,279.76L328.8,279.673L329.6,279.17L330.4,278.697L331.2,278.887L332,278.28L332.8,277.923L333.6,277.613L334.4,277.107L335.2,277.007L336,276.52L336.8,276.06L337.6,276.09L338.4,275.547L339.2,275.327L340,274.917L340.8,274.39L341.6,274.483L342.4,273.95L343.2,273.46L344,273.38L344.8,272.797L345.6,272.593L346.4,272.31L347.2,271.623L348,271.847L348.8,271.15L349.6,270.76L350.4,270.87L351.2,270.267L352,269.967L352.8,269.63L353.6,269.123L354.4,268.997L355.2,268.627L356,268.227L356.8,268.2L357.6,267.66L358.4,267.46L359.2,267.033L360,266.473L360.8,266.457L361.6,265.817L362.4,265.217L363.2,265.45L364,264.857L364.8,264.67L365.6,264.287L366.4,263.83L367.2,263.613L368,263.25L368.8,262.7L369.6,262.68L370.4,262.117L371.2,262.013L372,261.643L372.8,261.177L373.6,261.15L374.4,260.68L375.2,259.99L376,260.057L376.8,259.687L377.6,259.313L378.4,258.99L379.2,258.447L380,258.553L380.8,257.973L381.6,257.33L382.4,257.363L383.2,256.723L384,256.823L384.8,256.2L385.6,255.743L386.4,255.743L387.2,255.16L388,254.62L388.8,254.603L389.6,254.453L390.4,254.03L391.2,253.623L392,253.207L392.8,253.02L393.6,252.603L394.4,252.073L395.2,251.943L396,251.48L396.8,250.743L397.6,251.063L398.4,250.333L399.2,250.447L400,249.853L400.8,249.433L401.6,249.477L402.4,248.803L403.2,248.59L404,248.387L404.8,247.857L405.6,247.717L406.4,247.323L407.2,246.693L408,246.737L408.8,246.207L409.6,245.973L410.4,245.553L411.2,245.17L412,245.08L412.8,244.527L413.6,244.243L414.4,244.107L415.2,243.453L416,243.313L416.8,243.023L417.6,242.523L418.4,242.27L419.2,241.937L420,241.457L420.8,241.357L421.6,240.713L422.4,240.647L423.2,240.347L424,239.7L424.8,239.877L425.6,239.223L426.4,238.643L427.2,238.863L428,237.98L428.8,237.993L429.6,237.653L430.4,237.18L431.2,237.09L432,236.593L432.8,236.28L433.6,236.073L434.4,235.53L435.2,235.453L436,235.07L436.8,234.403L437.6,234.267L438.4,233.947L439.2,233.22L440,233.253L440.8,232.85L441.6,232.553L442.4,232.257L443.2,231.727L444,231.893L444.8,231.24L445.6,230.703L446.4,230.827L447.2,230.31L448,229.93L448.8,229.503L449.6,229.023L450.4,228.633L451.2,228.47L452,228.057L452.8,228.06L453.6,227.52L454.4,227.093L455.2,227.017L456,226.543L456.8,226.323L457.6,225.963L458.4,225.333L459.2,225.477L460,224.99L460.8,224.827L461.6,224.14L462.4,223.817L463.2,223.527L464,222.987L464.8,222.677L465.6,222.76L466.4,222.057L467.2,221.95L468,221.6L468.8,221.213L469.6,220.97L470.4,220.633L471.2,220.02L472,219.97L472.8,219.473L473.6,219.06L474.4,218.803L475.2,218.423L476,218.003L476.8,217.927L477.6,217.103L478.4,217.59L479.2,216.967L480,216.617L480.8,216.267L481.6,215.633L482.4,215.777L483.2,215.22L484,214.477L484.8,214.603L485.6,214.2L486.4,213.957L487.2,213.603L488,212.56L488.8,213.107L489.6,212.55L490.4,212.003L491.2,212.04L492,211.49L492.8,211.33L493.6,210.933L494.4,210.397L495.2,210.46L496,209.993L496.8,209.483L497.6,209.36L498.4,208.573L499.2,208.67L500,208.357L500.8,207.85L501.6,207.663L502.4,207.183L503.2,206.583L504,206.713L504.8,206.11L505.6,205.91L506.4,205.57L507.2,205.027L508,205.093L508.8,204.507L509.6,204.03L510.4,203.913L511.2,203.63L512,203.253L512.8,202.547L513.6,202.41L514.4,202.333L515.2,201.837L516,201.313L516.8,201.203L517.6,200.737L518.4,200.583L519.2,200.047L520,199.703L520.8,199.567L521.6,199.103L522.4,198.73L523.2,198.523L524,198.073L524.8,197.923L525.6,197.353L526.4,197.157L527.2,197.06L528,196.643L528.8,196.123L529.6,195.967L530.4,195.49L531.2,195.187L532,194.883L532.8,194.363L533.6,194.243L534.4,193.94L535.2,193.29L536,193.373L536.8,192.797L537.6,192.68L538.4,192.187L539.2,191.737L540,191.733L540.8,191.26L541.6,190.657L542.4,190.65L543.2,190.03L544,190.01L544.8,189.76L545.6,189.19L546.4,188.92L547.2,188.67L548,187.943L548.8,187.717L549.6,187.6L550.4,187.187L551.2,186.94L552,186.447L552.8,186.43L553.6,185.967L554.4,185.43L555.2,185.303L556,184.84L556.8,184.157L557.6,184.223L558.4,183.73L559.2,183.75L560,183.183L560.8,182.75L561.6,182.74L562.4,182.007L563.2,181.967L564,181.573L564.8,181.223L565.6,181.023L566.4,180.367L567.2,180.013L568,180.1L568.8,179.25L569.6,179.237L570.4,178.907L571.2,178.333L572,178.18L572.8,177.39L573.6,177.467L574.4,177.457L575.2,176.71L576,176.66L576.8,176.26L577.6,175.847L578.4,175.513L579.2,175.153L580,174.7L580.8,174.66L581.6,174.157L582.4,174.003L583.2,173.68L584,173.16L584.8,172.993L585.6,172.633L586.4,172.033L587.2,171.907L588,171.383L588.8,171.29L589.6,170.937L590.4,169.39L591.2,170.353L592,169.94L592.8,169.39L593.6,169.313L594.4,168.657L595.2,168.707L596,168.157L596.8,167.793L597.6,167.613L598.4,167.163L599.2,166.613L600,166.597L600.8,166.11L601.6,165.897L602.4,165.673L603.2,165.083L604,164.86L604.8,164.31L605.6,163.94L606.4,163.953L607.2,163.403L608,163.317L608.8,162.887L609.6,162.487L610.4,162.09L611.2,161.917L612,161.397L612.8,161.247L613.6,160.763L614.4,160.63L615.2,160.24L616,159.61L616.8,159.623L617.6,159.223L618.4,158.563L619.2,158.563L620,158.067L620.8,157.98L621.6,157.393L622.4,157.113L623.2,156.873L624,156.45L624.8,155.89L625.6,155.76L626.4,154.417L627.2,155.303L628,154.873L628.8,154.313L629.6,154.367L630.4,153.807L631.2,153.443L632,153.18L632.8,152.76L633.6,152.663L634.4,152.173L635.2,151.77L636,151.673L636.8,151.143L637.6,150.503L638.4,150.603L639.2,150.11L640,149.963L640.8,149.583L641.6,149.307L642.4,148.967L643.2,148.497L644,147.283L644.8,148.027L645.6,147.453L646.4,147.197L647.2,146.83L648,146.317L648.8,146.303L649.6,145.877L650.4,145.46L651.2,145.363L652,144.737L652.8,144.597L653.6,144.253L654.4,143.697L655.2,143.697L656,143.267L656.8,142.857L657.6,142.613L658.4,142.02L659.2,142.103L660,141.623L660.8,140.943L661.6,140.843L662.4,140.64L663.2,139.947L664,140.033L664.8,139.283L665.6,139.33L666.4,138.783L667.2,138.303L668,138.187L668.8,137.777L669.6,137.027L670.4,137.37L671.2,136.587L672,136.543L672.8,136.213L673.6,135.83L674.4,135.773L675.2,135.207L676,134.607L676.8,134.61L677.6,134.133L678.4,133.89L679.2,133.547L680,132.183L680.8,133.05L681.6,132.41L682.4,131.97L683.2,132.083L684,131.17L684.8,130.733L685.6,130.947L686.4,130.433L687.2,130.297L688,129.747L688.8,129.26L689.6,128.797L690.4,128.86L691.2,128.39L692,128.067L692.8,127.843L693.6,127.537L694.4,127.027L695.2,126.797L696,126.757L696.8,126.177L697.6,125.92L698.4,125.6L699.2,125.077L700,125.063L700.8,124.503L701.6,124.09L702.4,124.037L703.2,123.28L704,123.22L704.8,122.877L705.6,122.28L706.4,122.207L707.2,121.717L708,121.367L708.8,121.19L709.6,120.883L710.4,120.443L711.2,120.087L712,119.74L712.8,119.727L713.6,118.96L714.4,118.61L715.2,118.573L716,118.053L716.8,117.827L717.6,117.493L718.4,116.953L719.2,116.84L720,116.37L720.8,115.87L721.6,115.843L722.4,115.473L723.2,115.253L724,114.853L724.8,114.253L725.6,114.273L726.4,113.777L727.2,113.483L728,113.18L728.8,112.467L729.6,112.363L730.4,112.137L731.2,111.773L732,111.54L732.8,111.217L733.6,110.713L734.4,110.58L735.2,110.24L736,109.45L736.8,109.58L737.6,109.063L738.4,108.843L739.2,108.507L740,108.127L740.8,108L741.6,107.49L742.4,107.38L743.2,106.787L744,106.3L744.8,106.263L745.6,105.773L746.4,105.337L747.2,105.15L748,104.84L748.8,104.653L749.6,103.877L750.4,103.547L751.2,103.473L752,102.503L752.8,102.657L753.6,102.54L754.4,102.187L755.2,101.793L756,101.577L756.8,101.173L757.6,100.88L758.4,100.52L759.2,99.977L760,100.07L760.8,99.427L761.6,99.093L762.4,98.797L763.2,98.237L764,98.317L764.8,97.74L765.6,97.077L766.4,97.217L767.2,96.793L768,96.373L768.8,96.117L769.6,95.72L770.4,95.633L771.2,95.027L772,94.637L772.8,94.55L773.6,94.18L774.4,93.94L775.2,93.47L776,92.96L776.8,93.023L777.6,92.457L778.4,92.073L779.2,91.987L780,91.507L780.8,91.307L781.6,90.933L782.4,90.257L783.2,90.303L784,89.667L784.8,89.4L785.6,89.14L786.4,88.613L787.2,88.62L788,88.19L788.8,87.65L789.6,87.49L790.4,87.123L791.2,86.623L792,86.607L792.8,86.173L793.6,85.517L794.4,85.423L795.2,85.14L796,84.277L796.8,84.083L797.6,83.953L798.4,83.937L799.2,83.477L800,83.287" stroke="#54a24b" stroke-width="2"></path></g></g><path class="foreground" aria-hidden="true" d="" display="none"></path></g></g><g class="mark-group role-scope layer_4_pathgroup" role="graphics-object" aria-roledescription="group mark container"><g transform="translate(0,0)"><path class="background" aria-hidden="true" d="M0,0h800v600h-800Z"></path><g><g class="mark-line role-mark layer_4_marks" role="graphics-object" aria-roledescription="line mark container"><path aria-label="Task Duration (ns): 100; Execution Time (ns): 54866; l5: Direct Invoke" role="graphics-symbol" aria-roledescription="line mark" d="M0.8,417.113L1.6,416.457L2.4,416.42L3.2,416.077L4,415.387L4.8,415.403L5.6,414.927L6.4,414.567L7.2,414.26L8,413.793L8.8,413.433L9.6,413.127L10.4,412.55L11.2,412.467L12,412.147L12.8,411.893L13.6,411.597L14.4,411.04L15.2,410.773L16,410.333L16.8,409.89L17.6,409.743L18.4,409.137L19.2,408.927L20,408.863L20.8,408.237L21.6,408.053L22.4,407.717L23.2,407.203L24,407.02L24.8,406.55L25.6,406.387L26.4,406.093L27.2,405.547L28,405.427L28.8,405.017L29.6,404.48L30.4,404.397L31.2,403.85L32,403.71L32.8,403.35L33.6,402.92L34.4,402.8L35.2,402.367L36,401.763L36.8,401.677L37.6,401.2L38.4,400.983L39.2,400.697L40,400.21L40.8,400.1L41.6,399.673L42.4,399.1L43.2,399.133L44,398.613L44.8,398.15L45.6,398.12L46.4,397.3L47.2,397.367L48,396.897L48.8,396.45L49.6,396.393L50.4,395.883L51.2,395.583L52,395.277L52.8,394.847L53.6,394.52L54.4,394.333L55.2,393.733L56,393.717L56.8,393.143L57.6,392.777L58.4,392.41L59.2,392.083L60,391.977L60.8,391.457L61.6,390.973L62.4,391.18L63.2,390.543L64,390.043L64.8,390.023L65.6,389.52L66.4,389.483L67.2,388.713L68,388.3L68.8,388.257L69.6,387.773L70.4,387.45L71.2,387.273L72,386.337L72.8,386.73L73.6,386.243L74.4,385.55L75.2,385.663L76,385.133L76.8,385.03L77.6,384.637L78.4,383.96L79.2,384.11L80,383.37L80.8,382.843L81.6,383.023L82.4,382.303L83.2,382.12L84,381.857L84.8,381.423L85.6,381.277L86.4,380.99L87.2,380.413L88,380.347L88.8,379.823L89.6,379.457L90.4,378.987L91.2,378.587L92,378.44L92.8,377.977L93.6,377.597L94.4,377.523L95.2,377.207L96,376.84L96.8,376.553L97.6,375.347L98.4,375.863L99.2,375.277L100,375.09L100.8,374.783L101.6,374.34L102.4,374.087L103.2,373.817L104,373.16L104.8,373.097L105.6,372.753L106.4,372.433L107.2,372.273L108,371.75L108.8,371.43L109.6,370.98L110.4,370.717L111.2,370.5L112,370.073L112.8,369.62L113.6,369.47L114.4,368.997L115.2,368.807L116,368.6L116.8,367.967L117.6,367.99L118.4,367.493L119.2,366.95L120,366.72L120.8,366.44L121.6,366.143L122.4,365.86L123.2,365.35L124,365.283L124.8,364.727L125.6,364.237L126.4,364.13L127.2,363.607L128,363.327L128.8,363.06L129.6,362.663L130.4,362.557L131.2,362.193L132,361.57L132.8,361.6L133.6,360.853L134.4,360.793L135.2,360.517L136,360.07L136.8,359.953L137.6,359.447L138.4,358.957L139.2,358.627L140,358.257L140.8,358.127L141.6,357.85L142.4,357.417L143.2,357.213L144,356.727L144.8,356.303L145.6,356.09L146.4,355.81L147.2,355.263L148,355.047L148.8,354.457L149.6,354.513L150.4,354.08L151.2,353.52L152,353.327L152.8,353.083L153.6,352.76L154.4,352.443L155.2,352L156,351.9L156.8,351.227L157.6,349.713L158.4,350.713L159.2,350.287L160,350.013L160.8,349.847L161.6,349.28L162.4,349.133L163.2,348.537L164,348.33L164.8,348.227L165.6,347.797L166.4,347.4L167.2,346.96L168,346.553L168.8,346.58L169.6,346.187L170.4,345.49L171.2,345.603L172,344.837L172.8,344.86L173.6,344.397L174.4,343.95L175.2,343.717L176,343.387L176.8,342.86L177.6,342.823L178.4,342.22L179.2,342.113L180,341.88L180.8,341.203L181.6,341.197L182.4,340.647L183.2,340.213L184,340.05L184.8,339.713L185.6,339.39L186.4,339.063L187.2,338.68L188,338.487L188.8,338.117L189.6,337.323L190.4,337.587L191.2,336.927L192,336.487L192.8,336.45L193.6,335.793L194.4,335.647L195.2,335.353L196,334.903L196.8,334.913L197.6,334.18L198.4,334.103L199.2,333.857L200,333.257L200.8,333.243L201.6,332.62L202.4,332.247L203.2,332.087L204,331.663L204.8,331.387L205.6,331.057L206.4,330.363L207.2,330.473L208,329.987L208.8,329.573L209.6,329.567L210.4,328.863L211.2,328.657L212,328.417L212.8,327.867L213.6,327.75L214.4,327.49L215.2,326.883L216,326.863L216.8,326.363L217.6,326.223L218.4,325.747L219.2,325.233L220,325.16L220.8,324.71L221.6,324L222.4,323.787L223.2,323.563L224,323.523L224.8,323.027L225.6,322.383L226.4,322.433L227.2,321.81L228,321.633L228.8,321.587L229.6,320.943L230.4,320.733L231.2,320.417L232,319.727L232.8,319.777L233.6,319.26L234.4,318.713L235.2,318.677L236,318.167L236.8,318.113L237.6,317.643L238.4,317.087L239.2,317.137L240,316.467L240.8,316.213L241.6,316.05L242.4,315.543L243.2,315.27L244,314.37L244.8,314.733L245.6,314.51L246.4,314.067L247.2,313.417L248,313.563L248.8,312.887L249.6,312.713L250.4,312.41L251.2,311.967L252,311.813L252.8,311.347L253.6,310.693L254.4,310.763L255.2,310.157L256,310L256.8,309.707L257.6,308.957L258.4,309.073L259.2,308.697L260,308.197L260.8,308.143L261.6,307.623L262.4,307.37L263.2,307.143L264,306.41L264.8,306.54L265.6,305.683L266.4,305.33L267.2,305.347L268,304.96L268.8,304.643L269.6,304.377L270.4,303.843L271.2,303.867L272,303.34L272.8,302.77L273.6,302.203L274.4,302.197L275.2,301.933L276,301.673L276.8,301.287L277.6,301.17L278.4,300.373L279.2,299.917L280,299.43L280.8,299.66L281.6,299.297L282.4,299.017L283.2,298.57L284,298.42L284.8,298.013L285.6,297.4L286.4,297.393L287.2,296.9L288,296.75L288.8,296.38L289.6,295.747L290.4,295.627L291.2,295.313L292,294.85L292.8,294.767L293.6,294.14L294.4,294L295.2,293.563L296,293.107L296.8,293.063L297.6,292.477L298.4,292.117L299.2,292.15L300,291.64L300.8,291.273L301.6,290.86L302.4,290.603L303.2,290.427L304,289.983L304.8,289.457L305.6,289.563L306.4,288.953L307.2,288.683L308,288.32L308.8,287.973L309.6,287.78L310.4,287.26L311.2,286.847L312,286.883L312.8,286.307L313.6,286.063L314.4,285.76L315.2,285.387L316,285.243L316.8,284.59L317.6,284.107L318.4,284.103L319.2,283.543L320,283.44L320.8,283.043L321.6,282.46L322.4,282.51L323.2,282.017L324,281.607L324.8,281.317L325.6,280.98L326.4,280.86L327.2,280.51L328,279.907L328.8,279.713L329.6,279.367L330.4,278.93L331.2,279.083L332,278.367L332.8,278.223L333.6,277.69L334.4,277.247L335.2,277.13L336,276.697L336.8,276.253L337.6,276.05L338.4,275.72L339.2,275.577L340,275.06L340.8,274.593L341.6,274.523L342.4,274.1L343.2,273.527L344,273.39L344.8,273.013L345.6,272.867L346.4,272.317L347.2,272.037L348,271.74L348.8,271.29L349.6,271.08L350.4,270.973L351.2,270.317L352,269.953L352.8,269.807L353.6,269.363L354.4,269.17L355.2,268.75L356,268.293L356.8,268.25L357.6,267.63L358.4,267.437L359.2,267.16L360,266.477L360.8,266.517L361.6,266.067L362.4,265.573L363.2,265.607L364,264.95L364.8,264.637L365.6,264.697L366.4,263.95L367.2,263.737L368,263.367L368.8,262.947L369.6,263.03L370.4,262.54L371.2,261.967L372,261.71L372.8,261.35L373.6,261.27L374.4,260.88L375.2,260.437L376,260.243L376.8,259.723L377.6,259.347L378.4,259.19L379.2,258.593L380,258.187L380.8,257.977L381.6,257.65L382.4,257.533L383.2,256.83L384,256.96L384.8,256.46L385.6,255.93L386.4,255.977L387.2,255.197L388,254.783L388.8,254.95L389.6,254.413L390.4,254.097L391.2,253.6L392,253.453L392.8,253.187L393.6,252.4L394.4,252.25L395.2,252.257L396,251.64L396.8,251.52L397.6,251.307L398.4,250.693L399.2,250.5L400,250.067L400.8,249.537L401.6,249.727L402.4,248.897L403.2,248.73L404,248.557L404.8,247.94L405.6,247.863L406.4,247.33L407.2,246.943L408,246.533L408.8,246.32L409.6,246.223L410.4,245.853L411.2,245.267L412,245.257L412.8,244.733L413.6,244.18L414.4,244.327L415.2,243.523L416,243.533L416.8,243.363L417.6,242.58L418.4,242.51L419.2,242.013L420,241.553L420.8,241.337L421.6,240.87L422.4,240.797L423.2,240.453L424,239.87L424.8,239.937L425.6,239.563L426.4,238.987L427.2,239.013L428,238.473L428.8,238.047L429.6,237.847L430.4,237.327L431.2,237.25L432,236.45L432.8,236.197L433.6,236.313L434.4,235.69L435.2,235.48L436,235.103L436.8,234.653L437.6,234.643L438.4,233.963L439.2,233.57L440,233.653L440.8,232.95L441.6,232.853L442.4,232.557L443.2,232.03L444,231.833L444.8,231.05L445.6,230.593L446.4,230.863L447.2,230.357L448,229.713L448.8,229.76L449.6,229.377L450.4,229.167L451.2,228.547L452,228.07L452.8,227.767L453.6,227.603L454.4,227.35L455.2,227.02L456,226.633L456.8,226.5L457.6,226.077L458.4,225.49L459.2,225.6L460,224.9L460.8,224.73L461.6,224.433L462.4,223.55L463.2,223.697L464,223.367L464.8,223.03L465.6,222.783L466.4,222.343L467.2,221.953L468,221.813L468.8,221.453L469.6,221.213L470.4,220.78L471.2,220.087L472,220.257L472.8,219.693L473.6,219.257L474.4,219.207L475.2,218.37L476,218.613L476.8,218.077L477.6,217.487L478.4,217.517L479.2,216.853L480,216.767L480.8,216.257L481.6,215.88L482.4,215.813L483.2,215.427L484,214.713L484.8,214.853L485.6,214.397L486.4,214.187L487.2,213.737L488,213.297L488.8,213.317L489.6,212.687L490.4,212.153L491.2,212.057L492,211.597L492.8,211.507L493.6,210.903L494.4,210.557L495.2,210.12L496,210.073L496.8,209.403L497.6,209.64L498.4,208.947L499.2,208.597L500,208.597L500.8,207.963L501.6,207.777L502.4,207.367L503.2,206.803L504,206.743L504.8,206.43L505.6,206.187L506.4,205.917L507.2,205.187L508,205.223L508.8,203.873L509.6,204.143L510.4,204.183L511.2,203.66L512,203.333L512.8,202.923L513.6,202.577L514.4,202.56L515.2,202.007L516,201.64L516.8,201.373L517.6,200.84L518.4,200.683L519.2,200.473L520,199.983L520.8,199.71L521.6,199.533L522.4,198.907L523.2,198.693L524,198.227L524.8,198.107L525.6,197.703L526.4,197.123L527.2,197.26L528,196.81L528.8,196.167L529.6,196.263L530.4,195.607L531.2,195.567L532,195.067L532.8,194.41L533.6,194.453L534.4,194.093L535.2,192.707L536,193.51L536.8,192.98L537.6,192.743L538.4,192.353L539.2,192.037L540,191.923L540.8,191.38L541.6,190.747L542.4,190.723L543.2,190.183L544,190.107L544.8,189.623L545.6,189.08L546.4,189.09L547.2,188.713L548,188.11L548.8,188.26L549.6,187.627L550.4,187.417L551.2,187.13L552,186.33L552.8,186.4L553.6,186.097L554.4,185.593L555.2,185.683L556,184.92L556.8,184.923L557.6,184.6L558.4,183.91L559.2,183.86L560,183.253L560.8,182.823L561.6,182.78L562.4,182.113L563.2,182.033L564,181.813L564.8,181.193L565.6,181.04L566.4,180.647L567.2,180.027L568,180.17L568.8,179.61L569.6,178.89L570.4,179.07L571.2,178.513L572,178.52L572.8,178.073L573.6,177.593L574.4,177.423L575.2,177.087L576,176.75L576.8,176.457L577.6,175.753L578.4,175.813L579.2,175.287L580,174.737L580.8,174.927L581.6,174.243L582.4,174.03L583.2,173.56L584,173.28L584.8,173.13L585.6,172.477L586.4,172.13L587.2,172.207L588,171.733L588.8,171.21L589.6,171.1L590.4,170.503L591.2,170.46L592,170.03L592.8,169.387L593.6,169.117L594.4,168.793L595.2,168.73L596,168.367L596.8,167.927L597.6,167.847L598.4,167.477L599.2,166.76L600,166.793L600.8,166.28L601.6,166.083L602.4,165.73L603.2,165.303L604,165.123L604.8,164.507L605.6,164.24L606.4,163.98L607.2,163.62L608,163.43L608.8,163.163L609.6,162.623L610.4,162.53L611.2,161.953L612,161.567L612.8,161.54L613.6,160.937L614.4,160.727L615.2,160.487L616,159.823L616.8,159.877L617.6,159.473L618.4,158.807L619.2,158.647L620,158.33L620.8,157.927L621.6,157.66L622.4,157.137L623.2,156.923L624,156.54L624.8,156.157L625.6,156.143L626.4,155.54L627.2,155.357L628,154.497L628.8,154.41L629.6,154.397L630.4,153.96L631.2,153.547L632,153.547L632.8,152.893L633.6,152.587L634.4,152.143L635.2,152.003L636,151.763L636.8,151.05L637.6,150.817L638.4,150.683L639.2,150.117L640,150.223L640.8,149.207L641.6,149.07L642.4,148.977L643.2,148.7L644,148.057L644.8,148.063L645.6,147.717L646.4,147.403L647.2,147.093L648,146.683L648.8,146.513L649.6,145.767L650.4,145.45L651.2,145.277L652,145.013L652.8,144.7L653.6,144.37L654.4,143.917L655.2,143.77L656,143.34L656.8,142.803L657.6,142.617L658.4,142.243L659.2,141.533L660,141.743L660.8,141.187L661.6,141.123L662.4,140.58L663.2,139.613L664,140.097L664.8,139.51L665.6,139.323L666.4,138.99L667.2,138.437L668,138.27L668.8,138.127L669.6,137.45L670.4,137.463L671.2,136.927L672,136.607L672.8,136.34L673.6,135.913L674.4,135.41L675.2,135.13L676,134.92L676.8,134.667L677.6,134.15L678.4,134.05L679.2,133.647L680,133.27L680.8,133.123L681.6,132.66L682.4,131.943L683.2,132.187L684,131.7L684.8,131.257L685.6,131.11L686.4,130.59L687.2,130.543L688,130.053L688.8,129.46L689.6,129.527L690.4,128.847L691.2,128.567L692,128.253L692.8,128L693.6,127.667L694.4,127.23L695.2,126.593L696,126.913L696.8,126.03L697.6,126.06L698.4,125.68L699.2,125.243L700,125.183L700.8,124.59L701.6,124.247L702.4,124.257L703.2,123.387L704,123.343L704.8,123.067L705.6,122.523L706.4,122.13L707.2,122L708,121.533L708.8,121.387L709.6,120.817L710.4,120.677L711.2,120.217L712,119.767L712.8,119.67L713.6,119.413L714.4,118.52L715.2,118.703L716,118.203L716.8,118.123L717.6,117.68L718.4,117.107L719.2,117.03L720,116.44L720.8,116.177L721.6,116.107L722.4,115.773L723.2,114.99L724,115.007L724.8,114.573L725.6,114.287L726.4,113.907L727.2,113.307L728,113.403L728.8,112.833L729.6,112.73L730.4,112.483L731.2,111.79L732,111.933L732.8,111.39L733.6,110.823L734.4,110.69L735.2,110.367L736,110.02L736.8,109.787L737.6,109.147L738.4,109.147L739.2,108.627L740,108.157L740.8,107.96L741.6,107.607L742.4,107.247L743.2,106.713L744,106.39L744.8,106.25L745.6,106L746.4,105.29L747.2,105.517L748,104.973L748.8,104.62L749.6,104.29L750.4,103.917L751.2,103.477L752,103.19L752.8,102.79L753.6,102.86L754.4,102.287L755.2,101.93L756,101.623L756.8,101.22L757.6,100.96L758.4,100.547L759.2,100.103L760,100.1L760.8,99.587L761.6,99.423L762.4,98.753L763.2,98.147L764,98.453L764.8,98.117L765.6,97.047L766.4,97.46L767.2,96.81L768,96.66L768.8,96.13L769.6,95.83L770.4,95.513L771.2,95.14L772,94.777L772.8,94.71L773.6,94.18L774.4,93.707L775.2,93.457L776,93.257L776.8,92.95L777.6,92.66L778.4,92.027L779.2,91.997L780,91.693L780.8,91.337L781.6,91.027L782.4,90.537L783.2,90.453L784,89.853L784.8,89.487L785.6,89.403L786.4,88.917L787.2,88.753L788,88.39L788.8,87.873L789.6,87.65L790.4,87.32L791.2,86.823L792,86.88L792.8,86.167L793.6,86.083L794.4,85.71L795.2,85.117L796,85.16L796.8,84.513L797.6,84.22L798.4,84.043L799.2,83.58L800,83.35" stroke="#e45756" stroke-width="2"></path></g></g><path class="foreground" aria-hidden="true" d="" display="none"></path></g></g><g class="mark-group role-legend" role="graphics-symbol" aria-roledescription="legend" aria-label="Symbol legend titled 'Execution' for stroke color with 5 values: Deferred (Inline Executor), Deferred (Thread Pool), Direct Invoke, Eager (Thread Pool), Execute (Inline Executor)"><g transform="translate(820,0)"><path class="background" aria-hidden="true" d="M0,0h139v79h-139Z" pointer-events="none"></path><g><g class="mark-group role-legend-entry"><g transform="translate(0,16)"><path class="background" aria-hidden="true" d="M0,0h0v0h0Z" pointer-events="none"></path><g><g class="mark-group role-scope" role="graphics-object" aria-roledescription="group mark container"><g transform="translate(0,0)"><path class="background" aria-hidden="true" d="M0,0h138.0068359375v11h-138.0068359375Z" pointer-events="none" opacity="1"></path><g><g class="mark-symbol role-legend-symbol" pointer-events="none"><path transform="translate(6,6)" d="M-5,0L5,0" fill="transparent" stroke="#4c78a8" stroke-width="1.5" opacity="1"></path></g><g class="mark-text role-legend-label" pointer-events="none"><text text-anchor="start" transform="translate(16,9)" font-family="sans-serif" font-size="10px" fill="#000" opacity="1">Deferred (Inline Executor)</text></g></g><path class="foreground" aria-hidden="true" d="" pointer-events="none" display="none"></path></g><g transform="translate(0,13)"><path class="background" aria-hidden="true" d="M0,0h138.0068359375v11h-138.0068359375Z" pointer-events="none" opacity="1"></path><g><g class="mark-symbol role-legend-symbol" pointer-events="none"><path transform="translate(6,6)" d="M-5,0L5,0" fill="transparent" stroke="#f58518" stroke-width="1.5" opacity="1"></path></g><g class="mark-text role-legend-label" pointer-events="none"><text text-anchor="start" transform="translate(16,9)" font-family="sans-serif" font-size="10px" fill="#000" opacity="1">Deferred (Thread Pool)</text></g></g><path class="foreground" aria-hidden="true" d="" pointer-events="none" display="none"></path></g><g transform="translate(0,26)"><path class="background" aria-hidden="true" d="M0,0h138.0068359375v11h-138.0068359375Z" pointer-events="none" opacity="1"></path><g><g class="mark-symbol role-legend-symbol" pointer-events="none"><path transform="translate(6,6)" d="M-5,0L5,0" fill="transparent" stroke="#e45756" stroke-width="1.5" opacity="1"></path></g><g class="mark-text role-legend-label" pointer-events="none"><text text-anchor="start" transform="translate(16,9)" font-family="sans-serif" font-size="10px" fill="#000" opacity="1">Direct Invoke</text></g></g><path class="foreground" aria-hidden="true" d="" pointer-events="none" display="none"></path></g><g transform="translate(0,39)"><path class="background" aria-hidden="true" d="M0,0h138.0068359375v11h-138.0068359375Z" pointer-events="none" opacity="1"></path><g><g class="mark-symbol role-legend-symbol" pointer-events="none"><path transform="translate(6,6)" d="M-5,0L5,0" fill="transparent" stroke="#72b7b2" stroke-width="1.5" opacity="1"></path></g><g class="mark-text role-legend-label" pointer-events="none"><text text-anchor="start" transform="translate(16,9)" font-family="sans-serif" font-size="10px" fill="#000" opacity="1">Eager (Thread Pool)</text></g></g><path class="foreground" aria-hidden="true" d="" pointer-events="none" display="none"></path></g><g transform="translate(0,52)"><path class="background" aria-hidden="true" d="M0,0h138.0068359375v11h-138.0068359375Z" pointer-events="none" opacity="1"></path><g><g class="mark-symbol role-legend-symbol" pointer-events="none"><path transform="translate(6,6)" d="M-5,0L5,0" fill="transparent" stroke="#54a24b" stroke-width="1.5" opacity="1"></path></g><g class="mark-text role-legend-label" pointer-events="none"><text text-anchor="start" transform="translate(16,9)" font-family="sans-serif" font-size="10px" fill="#000" opacity="1">Execute (Inline Executor)</text></g></g><path class="foreground" aria-hidden="true" d="" pointer-events="none" display="none"></path></g></g></g><path class="foreground" aria-hidden="true" d="" pointer-events="none" display="none"></path></g></g><g class="mark-text role-legend-title" pointer-events="none"><text text-anchor="start" transform="translate(0,9)" font-family="sans-serif" font-size="11px" font-weight="bold" fill="#000" opacity="1">Execution</text></g></g><path class="foreground" aria-hidden="true" d="" pointer-events="none" display="none"></path></g></g></g><path class="foreground" aria-hidden="true" d="" display="none"></path></g></g></g></svg>