<svg xmlns="http://www.w3.org/2000/svg" xmlns:xlink="http://www.w3.org/1999/xlink" version="1.1" class="marks" width="340" height="386" viewBox="0 0 340 386" style="background-color: rgb(18, 43, 57);"><g fill="none" stroke-miterlimit="10" transform="translate(33,64)"><g class="mark-group role-frame root" role="graphics-object" aria-roledescription="group mark container"><g transform="translate(0,0)"><path class="background" aria-hidden="true" d="M0.5,0.5h300v300h-300Z" fill="transparent" stroke="transparent"></path><g><g class="mark-group role-axis" role="graphics-symbol" aria-roledescription="axis" aria-label="X-axis for a time scale with values from Sunday, 01 January 1950, 8:00:00 AM to Friday, 01 January 2100, 8:00:00 AM"><g transform="translate(0.5,300.5)"><path class="background" aria-hidden="true" d="M0,0h0v0h0Z" pointer-events="none"></path><g><g class="mark-rule role-axis-tick" pointer-events="none"><line transform="translate(20,0)" x2="0" y2="5" stroke="pink" stroke-width="1" opacity="1"></line><line transform="translate(60,0)" x2="0" y2="5" stroke="pink" stroke-width="1" opacity="1"></line><line transform="translate(100,0)" x2="0" y2="5" stroke="pink" stroke-width="1" opacity="1"></line><line transform="translate(140,0)" x2="0" y2="5" stroke="pink" stroke-width="1" opacity="1"></line><line transform="translate(180,0)" x2="0" y2="5" stroke="pink" stroke-width="1" opacity="1"></line><line transform="translate(220,0)" x2="0" y2="5" stroke="pink" stroke-width="1" opacity="1"></line><line transform="translate(260,0)" x2="0" y2="5" stroke="pink" stroke-width="1" opacity="1"></line><line transform="translate(300,0)" x2="0" y2="5" stroke="pink" stroke-width="1" opacity="1"></line></g><g class="mark-text role-axis-label" pointer-events="none"><text text-anchor="middle" transform="translate(19.995619398762482,15)" font-family="sans-serif" font-size="10px" fill="#00a767" opacity="1">1960</text><text text-anchor="middle" transform="translate(59.995984448865606,15)" font-family="sans-serif" font-size="10px" fill="#00a767" opacity="0">1980</text><text text-anchor="middle" transform="translate(99.99634949896874,15)" font-family="sans-serif" font-size="10px" fill="#00a767" opacity="1">2000</text><text text-anchor="middle" transform="translate(139.99671454907187,15)" font-family="sans-serif" font-size="10px" fill="#00a767" opacity="0">2020</text><text text-anchor="middle" transform="translate(179.99707959917498,15)" font-family="sans-serif" font-size="10px" fill="#00a767" opacity="1">2040</text><text text-anchor="middle" transform="translate(219.99744464927812,15)" font-family="sans-serif" font-size="10px" fill="#00a767" opacity="0">2060</text><text text-anchor="middle" transform="translate(259.9978096993812,15)" font-family="sans-serif" font-size="10px" fill="#00a767" opacity="1">2080</text><text text-anchor="end" transform="translate(299.99817474948435,15)" font-family="sans-serif" font-size="10px" fill="#00a767" opacity="0">2100</text></g><g class="mark-rule role-axis-domain" pointer-events="none"><line transform="translate(0,0)" x2="300" y2="0" stroke="dimgrey" stroke-width="1" opacity="1"></line></g></g><path class="foreground" aria-hidden="true" d="" pointer-events="none" display="none"></path></g></g><g class="mark-group role-axis" role="graphics-symbol" aria-roledescription="axis" aria-label="Y-axis for a linear scale with values from 0% to 40%"><g transform="translate(0.5,0.5)"><path class="background" aria-hidden="true" d="M0,0h0v0h0Z" pointer-events="none"></path><g><g class="mark-rule role-axis-tick" pointer-events="none"><line transform="translate(0,300)" x2="-5" y2="0" stroke="pink" stroke-width="1" opacity="1"></line><line transform="translate(0,263)" x2="-5" y2="0" stroke="pink" stroke-width="1" opacity="1"></line><line transform="translate(0,225)" x2="-5" y2="0" stroke="pink" stroke-width="1" opacity="1"></line><line transform="translate(0,188)" x2="-5" y2="0" stroke="pink" stroke-width="1" opacity="1"></line><line transform="translate(0,150)" x2="-5" y2="0" stroke="pink" stroke-width="1" opacity="1"></line><line transform="translate(0,113)" x2="-5" y2="0" stroke="pink" stroke-width="1" opacity="1"></line><line transform="translate(0,75)" x2="-5" y2="0" stroke="pink" stroke-width="1" opacity="1"></line><line transform="translate(0,38)" x2="-5" y2="0" stroke="pink" stroke-width="1" opacity="1"></line><line transform="translate(0,0)" x2="-5" y2="0" stroke="pink" stroke-width="1" opacity="1"></line></g><g class="mark-text role-axis-label" pointer-events="none"><text text-anchor="end" transform="translate(-7,303)" font-family="sans-serif" font-size="10px" fill="#00a767" opacity="1">0%</text><text text-anchor="end" transform="translate(-7,265.5)" font-family="sans-serif" font-size="10px" fill="#00a767" opacity="1">5%</text><text text-anchor="end" transform="translate(-7,228)" font-family="sans-serif" font-size="10px" fill="#00a767" opacity="1">10%</text><text text-anchor="end" transform="translate(-7,190.5)" font-family="sans-serif" font-size="10px" fill="#00a767" opacity="1">15%</text><text text-anchor="end" transform="translate(-7,153)" font-family="sans-serif" font-size="10px" fill="#00a767" opacity="1">20%</text><text text-anchor="end" transform="translate(-7,115.5)" font-family="sans-serif" font-size="10px" fill="#00a767" opacity="1">25%</text><text text-anchor="end" transform="translate(-7,78.00000000000003)" font-family="sans-serif" font-size="10px" fill="#00a767" opacity="1">30%</text><text text-anchor="end" transform="translate(-7,40.500000000000036)" font-family="sans-serif" font-size="10px" fill="#00a767" opacity="1">35%</text><text text-anchor="end" transform="translate(-7,3)" font-family="sans-serif" font-size="10px" fill="#00a767" opacity="1">40%</text></g><g class="mark-rule role-axis-domain" pointer-events="none"><line transform="translate(0,300)" x2="0" y2="-300" stroke="dimgrey" stroke-width="1" opacity="1"></line></g></g><path class="foreground" aria-hidden="true" d="" pointer-events="none" display="none"></path></g></g><g class="mark-group role-scope pathgroup" role="graphics-object" aria-roledescription="group mark container"><g transform="translate(0,0)"><path class="background" aria-hidden="true" d="M0,0h300v300h-300Z"></path><g><g class="mark-line role-mark marks" role="graphics-object" aria-roledescription="line mark container"><path aria-label="Year: Jan 01, 1950; sh_65+: 8.167923%; Region: Australia" role="graphics-symbol" aria-roledescription="line mark" d="M0,238.741L1.999,238.218L3.997,237.656L6.001,237.211L8,236.937L9.999,236.807L11.997,236.216L14.001,235.883L16,235.722L17.999,235.664L19.997,235.668L22.002,235.522L24,235.444L25.999,235.423L27.998,235.474L30.002,235.593L32,236.145L33.999,236.752L35.998,237.361L38.002,237.91L40,238.347L41.999,237.577L43.998,236.848L46.002,236.101L48,235.247L49.999,234.237L51.998,233.088L54.002,231.725L56.001,230.282L57.999,228.969L59.998,227.89L62.002,226.692L64.001,225.841L65.999,225.142L67.998,224.313L70.002,223.213L72.001,222.172L73.999,220.914L75.998,219.551L78.002,218.239L80.001,217.031L81.999,215.531L83.998,214.173L86.002,212.966L88.001,211.903L89.999,210.964L91.998,210.134L94.002,209.42L96.001,208.778L98,208.137L99.998,207.415L102.002,206.722L104.001,205.965L106,205.132L107.998,204.24L110.002,203.293L112.001,202.806L114,202.322L115.998,201.677L118.002,200.654L120.001,199.143L122,197.191L123.998,194.873L126.003,192.37L128.001,189.933L130,187.672L130,187.672L131.998,185.603L134.003,183.723L136.001,181.93L138,180.053L139.999,177.978L142.003,175.911L144.001,173.734L146,171.444L147.999,169.07L150.003,166.624L152.001,164.389L154,162.14L155.999,159.902L158.003,157.718L160.001,155.608L162,154.045L163.999,152.62L166.003,151.234L168.002,149.749L170,148.083L171.999,146.746L174.003,145.279L176.002,143.761L178,142.327L179.999,141.036L182.003,140.348L184.002,139.86L186,139.417L187.999,138.77L190.003,137.737L192.002,136.875L194,135.766L195.999,134.421L198.003,132.905L200.002,131.261L202,130.005L203.999,128.719L206.003,127.384L208.002,125.967L210.001,124.432L211.999,123.319L214.003,122.225L216.002,121.134L218.001,120.03L219.999,118.875L222.003,118.312L224.002,117.82L226.001,117.307L227.999,116.684L230.003,115.891L232.002,115.63L234.001,115.328L235.999,114.914L238.004,114.267L240.002,113.264L242.001,112.735L243.999,111.998L246.004,111.001L248.002,109.759L250.001,108.293L252,107.462L254.004,106.55L256.002,105.527L258.001,104.304L260,102.764L262.004,101.761L264.002,100.665L266.001,99.414L268,97.964L270.004,96.265L272.002,95.262L274.001,94.232L276,93.098L278.004,91.77L280.003,90.162L282.001,89.31L284,88.402L286.004,87.353L288.003,86.085L290.001,84.535L292,83.82L294.004,83.019L296.003,82.061L298.001,80.872L300,79.374" stroke="#C1D0E6" stroke-width="2"></path></g></g><path class="foreground" aria-hidden="true" d="" display="none"></path></g><g transform="translate(0,0)"><path class="background" aria-hidden="true" d="M0,0h300v300h-300Z"></path><g><g class="mark-line role-mark marks" role="graphics-object" aria-roledescription="line mark container"><path aria-label="Year: Jan 01, 1950; sh_65+: 3.911982%; Region: Bangladesh" role="graphics-symbol" aria-roledescription="line mark" d="M0,270.66L1.999,271.852L3.997,273.134L6.001,274.511L8,275.939L9.999,277.365L11.997,277.77L14.001,278.243L16,278.766L17.999,279.321L19.997,279.883L22.002,279.852L24,279.856L25.999,279.902L27.998,279.995L30.002,280.12L32,279.86L33.999,279.675L35.998,279.558L38.002,279.486L40,279.425L41.999,278.958L43.998,278.516L46.002,278.093L48,277.705L49.999,277.36L51.998,277.108L54.002,276.98L56.001,276.962L57.999,277.02L59.998,277.125L62.002,277.063L64.001,277.065L65.999,277.137L67.998,277.283L70.002,277.492L72.001,277.251L73.999,277.046L75.998,276.873L78.002,276.722L80.001,276.58L81.999,276.173L83.998,275.789L86.002,275.423L88.001,275.073L89.999,274.733L91.998,274.009L94.002,273.315L96.001,272.637L98,271.959L99.998,271.27L102.002,270.577L104.001,269.93L106,269.308L107.998,268.685L110.002,268.046L112.001,267.259L114,266.52L115.998,265.853L118.002,265.285L120.001,264.828L122,264.077L123.998,263.403L126.003,262.839L128.001,262.437L130,262.214L130,262.214L131.998,261.919L134.003,261.763L136.001,261.639L138,261.408L139.999,260.98L142.003,260.142L144.001,259.144L146,257.964L147.999,256.574L150.003,254.958L152.001,252.978L154,250.825L155.999,248.517L158.003,246.083L160.001,243.543L162,240.828L163.999,238.032L166.003,235.191L168.002,232.372L170,229.608L171.999,226.865L174.003,224.208L176.002,221.541L178,218.743L179.999,215.741L182.003,212.57L184.002,209.262L186,205.82L187.999,202.261L190.003,198.594L192.002,194.915L194,191.162L195.999,187.331L198.003,183.451L200.002,179.557L202,175.745L203.999,171.951L206.003,168.174L208.002,164.403L210.001,160.62L211.999,156.903L214.003,153.249L216.002,149.61L218.001,145.928L219.999,142.154L222.003,138.445L224.002,134.751L226.001,131.039L227.999,127.283L230.003,123.461L232.002,119.824L234.001,116.209L235.999,112.604L238.004,109.053L240.002,105.601L242.001,102.484L243.999,99.525L246.004,96.693L248.002,93.924L250.001,91.159L252,88.655L254.004,86.246L256.002,83.883L258.001,81.517L260,79.114L262.004,76.995L264.002,74.917L266.001,72.848L268,70.774L270.004,68.694L272.002,66.952L274.001,65.26L276,63.588L278.004,61.922L280.003,60.264L282.001,58.938L284,57.656L286.004,56.407L288.003,55.183L290.001,53.977L292,53.082L294.004,52.23L296.003,51.396L298.001,50.561L300,49.712" stroke="#C1D0E6" stroke-width="2"></path></g></g><path class="foreground" aria-hidden="true" d="" display="none"></path></g><g transform="translate(0,0)"><path class="background" aria-hidden="true" d="M0,0h300v300h-300Z"></path><g><g class="mark-line role-mark marks" role="graphics-object" aria-roledescription="line mark container"><path aria-label="Year: Jan 01, 1950; sh_65+: 2.974627%; Region: Brazil" role="graphics-symbol" aria-roledescription="line mark" d="M0,277.69L1.999,277.599L3.997,277.489L6.001,277.396L8,277.32L9.999,277.253L11.997,277.051L14.001,276.884L16,276.731L17.999,276.563L19.997,276.371L22.002,276.014L24,275.667L25.999,275.354L27.998,275.102L30.002,274.917L32,274.736L33.999,274.596L35.998,274.473L38.002,274.337L40,274.17L41.999,273.876L43.998,273.596L46.002,273.324L48,273.056L49.999,272.792L51.998,272.503L54.002,272.251L56.001,272.04L57.999,271.879L59.998,271.767L62.002,271.629L64.001,271.539L65.999,271.474L67.998,271.403L70.002,271.304L72.001,271.014L73.999,270.724L75.998,270.417L78.002,270.073L80.001,269.681L81.999,268.954L83.998,268.222L86.002,267.513L88.001,266.866L89.999,266.299L91.998,265.411L94.002,264.603L96.001,263.813L98,262.964L99.998,262.011L102.002,260.844L104.001,259.566L106,258.236L107.998,256.936L110.002,255.7L112.001,254.477L114,253.315L115.998,252.147L118.002,250.89L120.001,249.492L122,247.863L123.998,246.149L126.003,244.329L128.001,242.384L130,240.297L130,240.297L131.998,238.145L134.003,235.857L136.001,233.451L138,230.959L139.999,228.39L142.003,225.783L144.001,223.152L146,220.448L147.999,217.597L150.003,214.556L152.001,211.48L154,208.278L155.999,204.973L158.003,201.622L160.001,198.26L162,195.065L163.999,191.881L166.003,188.701L168.002,185.514L170,182.293L171.999,179.288L174.003,176.298L176.002,173.245L178,170.04L179.999,166.628L182.003,163.306L184.002,159.853L186,156.247L187.999,152.458L190.003,148.463L192.002,144.575L194,140.559L195.999,136.463L198.003,132.369L200.002,128.313L202,124.656L203.999,121.116L206.003,117.649L208.002,114.202L210.001,110.733L211.999,107.675L214.003,104.718L216.002,101.789L218.001,98.777L219.999,95.596L222.003,92.772L224.002,89.899L226.001,86.984L227.999,84.073L230.003,81.189L232.002,78.917L234.001,76.762L235.999,74.689L238.004,72.672L240.002,70.685L242.001,69.324L243.999,68.112L246.004,66.962L248.002,65.746L250.001,64.358L252,63.379L254.004,62.364L256.002,61.293L258.001,60.148L260,58.877L262.004,58.134L264.002,57.416L266.001,56.646L268,55.767L270.004,54.742L272.002,54.283L274.001,53.817L276,53.287L278.004,52.651L280.003,51.875L282.001,51.615L284,51.332L286.004,50.999L288.003,50.567L290.001,49.969L292,49.872L294.004,49.764L296.003,49.569L298.001,49.202L300,48.604" stroke="#C1D0E6" stroke-width="2"></path></g></g><path class="foreground" aria-hidden="true" d="" display="none"></path></g><g transform="translate(0,0)"><path class="background" aria-hidden="true" d="M0,0h300v300h-300Z"></path><g><g class="mark-line role-mark marks" role="graphics-object" aria-roledescription="line mark container"><path aria-label="Year: Jan 01, 1950; sh_65+: 7.648520%; Region: Canada" role="graphics-symbol" aria-roledescription="line mark" d="M0,242.636L1.999,242.175L3.997,241.756L6.001,241.499L8,241.423L9.999,241.501L11.997,241.521L14.001,241.711L16,241.961L17.999,242.196L19.997,242.401L22.002,242.383L24,242.369L25.999,242.329L27.998,242.23L30.002,242.043L32,241.866L33.999,241.555L35.998,241.116L38.002,240.593L40,240.01L41.999,239.31L43.998,238.695L46.002,238.066L48,237.305L49.999,236.36L51.998,235.072L54.002,233.648L56.001,232.162L57.999,230.733L59.998,229.406L62.002,228.13L64.001,226.974L65.999,225.833L67.998,224.566L70.002,223.103L72.001,221.744L73.999,220.253L75.998,218.678L78.002,217.112L80.001,215.608L81.999,214.37L83.998,213.28L86.002,212.283L88.001,211.309L89.999,210.31L91.998,209.39L94.002,208.438L96.001,207.477L98,206.567L99.998,205.722L102.002,204.916L104.001,204.21L106,203.503L107.998,202.66L110.002,201.597L112.001,200.43L114,199.133L115.998,197.625L118.002,195.804L120.001,193.602L122,191.269L123.998,188.522L126.003,185.441L128.001,182.194L130,178.892L130,178.892L131.998,175.704L134.003,172.617L136.001,169.508L138,166.194L139.999,162.568L142.003,159.006L144.001,155.294L146,151.428L147.999,147.424L150.003,143.3L152.001,139.486L154,135.616L155.999,131.822L158.003,128.305L160.001,125.171L162,122.984L163.999,121.218L166.003,119.734L168.002,118.334L170,116.881L171.999,116.043L174.003,115.236L176.002,114.419L178,113.554L179.999,112.595L182.003,112.197L184.002,111.787L186,111.298L187.999,110.627L190.003,109.674L192.002,109.13L194,108.425L195.999,107.558L198.003,106.582L200.002,105.511L202,104.971L203.999,104.504L206.003,103.979L208.002,103.199L210.001,102.016L211.999,101.046L214.003,99.882L216.002,98.587L218.001,97.255L219.999,95.9L222.003,95.243L224.002,94.731L226.001,94.235L227.999,93.65L230.003,92.925L232.002,92.942L234.001,92.979L235.999,92.924L238.004,92.607L240.002,91.887L242.001,91.7L243.999,91.271L246.004,90.589L248.002,89.68L250.001,88.535L252,88.106L254.004,87.622L256.002,87.028L258.001,86.229L260,85.111L262.004,84.749L264.002,84.323L266.001,83.721L268,82.861L270.004,81.684L272.002,81.268L274.001,80.782L276,80.183L278.004,79.374L280.003,78.213L282.001,77.843L284,77.424L286.004,76.814L288.003,75.909L290.001,74.644L292,74.313L294.004,73.876L296.003,73.257L298.001,72.374L300,71.136" stroke="#C1D0E6" stroke-width="2"></path></g></g><path class="foreground" aria-hidden="true" d="" display="none"></path></g><g transform="translate(0,0)"><path class="background" aria-hidden="true" d="M0,0h300v300h-300Z"></path><g><g class="mark-line role-mark marks" role="graphics-object" aria-roledescription="line mark container"><path aria-label="Year: Jan 01, 1950; sh_65+: 4.287037%; Region: Chile" role="graphics-symbol" aria-roledescription="line mark" d="M0,267.847L1.999,267.563L3.997,267.351L6.001,267.106L8,266.801L9.999,266.456L11.997,265.951L14.001,265.398L16,264.866L17.999,264.416L19.997,264.066L22.002,263.563L24,263.181L25.999,262.897L27.998,262.68L30.002,262.511L32,262.288L33.999,262.147L35.998,262.049L38.002,261.951L40,261.825L41.999,261.397L43.998,260.955L46.002,260.531L48,260.177L49.999,259.912L51.998,259.38L54.002,258.957L56.001,258.606L57.999,258.285L59.998,257.973L62.002,257.452L64.001,256.966L65.999,256.511L67.998,256.089L70.002,255.696L72.001,255.196L73.999,254.735L75.998,254.281L78.002,253.78L80.001,253.2L81.999,252.466L83.998,251.662L86.002,250.812L88.001,249.95L89.999,249.09L91.998,248.042L94.002,247.014L96.001,245.997L98,244.983L99.998,243.963L102.002,242.953L104.001,241.973L106,240.955L107.998,239.816L110.002,238.502L112.001,237.13L114,235.627L115.998,234.028L118.002,232.387L120.001,230.723L122,229.142L123.998,227.551L126.003,225.872L128.001,223.996L130,221.856L130,221.856L131.998,219.445L134.003,216.851L136.001,214.102L138,211.245L139.999,208.304L142.003,205.374L144.001,202.394L146,199.344L147.999,196.202L150.003,192.944L152.001,189.735L154,186.488L155.999,183.179L158.003,179.77L160.001,176.242L162,172.814L163.999,169.324L166.003,165.808L168.002,162.335L170,158.947L171.999,155.938L174.003,153.049L176.002,150.259L178,147.53L179.999,144.814L182.003,142.503L184.002,140.264L186,138.011L187.999,135.653L190.003,133.131L192.002,130.888L194,128.563L195.999,126.112L198.003,123.457L200.002,120.524L202,117.785L203.999,114.885L206.003,111.843L208.002,108.721L210.001,105.552L211.999,102.861L214.003,100.239L216.002,97.659L218.001,95.088L219.999,92.492L222.003,90.412L224.002,88.44L226.001,86.532L227.999,84.627L230.003,82.657L232.002,81.259L234.001,79.929L235.999,78.575L238.004,77.102L240.002,75.45L242.001,74.339L243.999,73.15L246.004,71.869L248.002,70.506L250.001,69.066L252,68.265L254.004,67.476L256.002,66.649L258.001,65.721L260,64.623L262.004,64.052L264.002,63.449L266.001,62.786L268,62.008L270.004,61.029L272.002,60.604L274.001,60.154L276,59.596L278.004,58.862L280.003,57.907L282.001,57.561L284,57.145L286.004,56.608L288.003,55.903L290.001,54.995L292,54.726L294.004,54.367L296.003,53.872L298.001,53.216L300,52.386" stroke="#C1D0E6" stroke-width="2"></path></g></g><path class="foreground" aria-hidden="true" d="" display="none"></path></g><g transform="translate(0,0)"><path class="background" aria-hidden="true" d="M0,0h300v300h-300Z"></path><g><g class="mark-line role-mark marks" role="graphics-object" aria-roledescription="line mark container"><path aria-label="Year: Jan 01, 1950; sh_65+: 4.429408%; Region: China" role="graphics-symbol" aria-roledescription="line mark" d="M0,266.779L1.999,266.867L3.997,267.384L6.001,268.085L8,268.812L9.999,269.548L11.997,269.8L14.001,270.028L16,270.416L17.999,271.135L19.997,272.221L22.002,272.054L24,272.345L25.999,272.927L27.998,273.592L30.002,274.262L32,273.768L33.999,273.204L35.998,272.639L38.002,272.162L40,271.793L41.999,271.253L43.998,270.752L46.002,270.268L48,269.758L49.999,269.189L51.998,268.334L54.002,267.461L56.001,266.563L57.999,265.646L59.998,264.721L62.002,263.594L64.001,262.547L65.999,261.582L67.998,260.725L70.002,259.997L72.001,259.398L73.999,258.943L75.998,258.561L78.002,258.143L80.001,257.61L81.999,257.097L83.998,256.386L86.002,255.543L88.001,254.665L89.999,253.792L91.998,252.514L94.002,251.394L96.001,250.357L98,249.299L99.998,248.187L102.002,246.984L104.001,245.748L106,244.507L107.998,243.344L110.002,242.289L112.001,241.275L114,240.311L115.998,239.335L118.002,238.256L120.001,236.998L122,235.56L123.998,234.064L126.003,232.35L128.001,230.18L130,227.429L130,227.429L131.998,224.078L134.003,220.189L136.001,216.049L138,212.102L139.999,208.586L142.003,205.401L144.001,202.641L146,200.028L147.999,197.167L150.003,193.822L152.001,190.168L154,186.22L155.999,181.917L158.003,177.197L160.001,172.031L162,166.635L163.999,160.906L166.003,154.995L168.002,149.132L170,143.472L171.999,138.261L174.003,133.289L176.002,128.678L178,124.617L179.999,121.207L182.003,118.661L184.002,116.792L186,115.364L187.999,114.04L190.003,112.578L192.002,111.158L194,109.798L195.999,108.207L198.003,105.942L200.002,102.728L202,98.731L203.999,93.881L206.003,88.622L208.002,83.719L210.001,79.675L211.999,76.499L214.003,74.233L216.002,72.738L218.001,71.755L219.999,71.09L222.003,70.789L224.002,71.014L226.001,71.592L227.999,72.27L230.003,72.839L232.002,73.399L234.001,73.952L235.999,74.414L238.004,74.718L240.002,74.789L242.001,74.974L243.999,75.028L246.004,74.853L248.002,74.394L250.001,73.649L252,73.002L254.004,72.157L256.002,71.162L258.001,70.112L260,69.053L262.004,68.033L264.002,67.168L266.001,66.498L268,65.939L270.004,65.291L272.002,64.891L274.001,64.702L276,64.492L278.004,64.114L280.003,63.561L282.001,63.55L284,63.492L286.004,63.356L288.003,63.1L290.001,62.688L292,62.866L294.004,62.907L296.003,62.774L298.001,62.493L300,62.095" stroke="#C1D0E6" stroke-width="2"></path></g></g><path class="foreground" aria-hidden="true" d="" display="none"></path></g><g transform="translate(0,0)"><path class="background" aria-hidden="true" d="M0,0h300v300h-300Z"></path><g><g class="mark-line role-mark marks" role="graphics-object" aria-roledescription="line mark container"><path aria-label="Year: Jan 01, 1950; sh_65+: 3.783650%; Region: Democratic Republic of the Congo" role="graphics-symbol" aria-roledescription="line mark" d="M0,271.623L1.999,272.573L3.997,273.526L6.001,274.498L8,275.475L9.999,276.439L11.997,276.692L14.001,276.973L16,277.279L17.999,277.618L19.997,277.991L22.002,278.041L24,278.129L25.999,278.25L27.998,278.403L30.002,278.582L32,278.545L33.999,278.543L35.998,278.572L38.002,278.622L40,278.684L41.999,278.587L43.998,278.526L46.002,278.493L48,278.486L49.999,278.5L51.998,278.396L54.002,278.328L56.001,278.29L57.999,278.273L59.998,278.271L62.002,278.146L64.001,278.064L65.999,278.02L67.998,278.013L70.002,278.04L72.001,277.957L73.999,277.902L75.998,277.873L78.002,277.872L80.001,277.899L81.999,277.858L83.998,277.84L86.002,277.834L88.001,277.822L89.999,277.785L91.998,277.728L94.002,277.708L96.001,277.718L98,277.764L99.998,277.849L102.002,277.774L104.001,277.739L106,277.735L107.998,277.753L110.002,277.785L112.001,277.704L114,277.646L115.998,277.606L118.002,277.582L120.001,277.567L122,277.486L123.998,277.42L126.003,277.376L128.001,277.359L130,277.367L130,277.367L131.998,277.347L134.003,277.351L136.001,277.365L138,277.372L139.999,277.36L142.003,277.284L144.001,277.21L146,277.129L147.999,277.035L150.003,276.922L152.001,276.76L154,276.595L155.999,276.422L158.003,276.236L160.001,276.03L162,275.786L163.999,275.538L166.003,275.282L168.002,275.014L170,274.729L171.999,274.42L174.003,274.109L176.002,273.788L178,273.45L179.999,273.088L182.003,272.707L184.002,272.318L186,271.913L187.999,271.481L190.003,271.017L192.002,270.534L194,270.037L195.999,269.519L198.003,268.972L200.002,268.39L202,267.79L203.999,267.174L206.003,266.533L208.002,265.857L210.001,265.137L211.999,264.405L214.003,263.646L216.002,262.855L218.001,262.031L219.999,261.166L222.003,260.295L224.002,259.401L226.001,258.464L227.999,257.463L230.003,256.38L232.002,255.277L234.001,254.118L235.999,252.889L238.004,251.577L240.002,250.169L242.001,248.748L243.999,247.267L246.004,245.715L248.002,244.081L250.001,242.357L252,240.647L254.004,238.883L256.002,237.063L258.001,235.189L260,233.258L262.004,231.407L264.002,229.533L266.001,227.621L268,225.66L270.004,223.637L272.002,221.714L274.001,219.769L276,217.784L278.004,215.738L280.003,213.614L282.001,211.608L284,209.567L286.004,207.476L288.003,205.321L290.001,203.089L292,200.987L294.004,198.856L296.003,196.68L298.001,194.444L300,192.132" stroke="#C1D0E6" stroke-width="2"></path></g></g><path class="foreground" aria-hidden="true" d="" display="none"></path></g><g transform="translate(0,0)"><path class="background" aria-hidden="true" d="M0,0h300v300h-300Z"></path><g><g class="mark-line role-mark marks" role="graphics-object" aria-roledescription="line mark container"><path aria-label="Year: Jan 01, 1950; sh_65+: 11.395435%; Region: France" role="graphics-symbol" aria-roledescription="line mark" d="M0,214.534L1.999,214.119L3.997,213.447L6.001,213.056L8,213.083L9.999,213.418L11.997,212.893L14.001,212.885L16,213.077L17.999,213.183L19.997,213.095L22.002,212.57L24,211.944L25.999,211.217L27.998,210.429L30.002,209.58L32,208.283L33.999,206.989L35.998,205.76L38.002,204.676L40,203.778L41.999,202.551L43.998,201.643L46.002,200.929L48,200.222L49.999,199.434L51.998,198.114L54.002,196.605L56.001,195.316L57.999,194.89L59.998,195.634L62.002,196.837L64.001,199.262L65.999,202.092L67.998,204.156L70.002,204.826L72.001,204.096L73.999,202.118L75.998,199.435L78.002,196.868L80.001,194.865L81.999,192.661L83.998,190.937L86.002,189.532L88.001,188.173L89.999,186.712L91.998,185.126L94.002,183.619L96.001,182.217L98,180.986L99.998,179.95L102.002,178.959L104.001,178.094L106,177.379L107.998,176.878L110.002,176.582L112.001,176.27L114,176.229L115.998,176.126L118.002,175.447L120.001,173.871L122,171.63L123.998,168.6L126.003,165.015L128.001,161.358L130,157.962L130,157.962L131.998,154.904L134.003,152.114L136.001,149.569L138,147.117L139.999,144.593L142.003,142.241L144.001,139.994L146,137.725L147.999,135.337L150.003,132.795L152.001,130.473L154,128.085L155.999,125.655L158.003,123.206L160.001,120.727L162,118.717L163.999,116.784L166.003,114.865L168.002,112.877L170,110.763L171.999,109.24L174.003,107.662L176.002,106.062L178,104.567L179.999,103.258L182.003,102.665L184.002,102.356L186,102.241L187.999,102.073L190.003,101.6L192.002,101.445L194,101.209L195.999,100.807L198.003,100.238L200.002,99.517L202,99.402L203.999,99.278L206.003,99.102L208.002,98.831L210.001,98.405L211.999,98.609L214.003,98.838L216.002,98.996L218.001,98.946L219.999,98.558L222.003,98.667L224.002,98.647L226.001,98.416L227.999,97.909L230.003,97.066L232.002,96.752L234.001,96.314L235.999,95.707L238.004,94.853L240.002,93.65L242.001,93.086L243.999,92.418L246.004,91.541L248.002,90.413L250.001,89.033L252,88.403L254.004,87.717L256.002,86.951L258.001,86.025L260,84.816L262.004,84.347L264.002,83.848L266.001,83.213L268,82.343L270.004,81.151L272.002,80.805L274.001,80.384L276,79.784L278.004,78.915L280.003,77.707L282.001,77.366L284,76.921L286.004,76.306L288.003,75.435L290.001,74.198L292,73.836L294.004,73.399L296.003,72.782L298.001,71.869L300,70.542" stroke="#C1D0E6" stroke-width="2"></path></g></g><path class="foreground" aria-hidden="true" d="" display="none"></path></g><g transform="translate(0,0)"><path class="background" aria-hidden="true" d="M0,0h300v300h-300Z"></path><g><g class="mark-line role-mark marks" role="graphics-object" aria-roledescription="line mark container"><path aria-label="Year: Jan 01, 1950; sh_65+: 3.138807%; Region: India" role="graphics-symbol" aria-roledescription="line mark" d="M0,276.459L1.999,276.283L3.997,276.08L6.001,275.933L8,275.988L9.999,276.315L11.997,276.293L14.001,276.43L16,276.66L17.999,276.884L19.997,277.055L22.002,276.658L24,276.281L25.999,275.975L27.998,275.794L30.002,275.756L32,275.475L33.999,275.312L35.998,275.224L38.002,275.165L40,275.11L41.999,274.745L43.998,274.413L46.002,274.133L48,273.926L49.999,273.796L51.998,273.47L54.002,273.216L56.001,273.025L57.999,272.885L59.998,272.787L62.002,272.514L64.001,272.316L65.999,272.182L67.998,272.095L70.002,272.038L72.001,271.808L73.999,271.623L75.998,271.478L78.002,271.37L80.001,271.289L81.999,270.863L83.998,270.486L86.002,270.148L88.001,269.837L89.999,269.542L91.998,268.97L94.002,268.444L96.001,267.949L98,267.474L99.998,267.006L102.002,266.372L104.001,265.765L106,265.197L107.998,264.688L110.002,264.239L112.001,263.648L114,263.114L115.998,262.618L118.002,262.138L120.001,261.652L122,260.955L123.998,260.276L126.003,259.555L128.001,258.719L130,257.728L130,257.728L131.998,256.441L134.003,255.083L136.001,253.681L138,252.272L139.999,250.87L142.003,249.427L144.001,248.011L146,246.609L147.999,245.213L150.003,243.809L152.001,242.3L154,240.834L155.999,239.396L158.003,237.97L160.001,236.538L162,235.011L163.999,233.521L166.003,232.043L168.002,230.55L170,229.02L171.999,227.358L174.003,225.705L176.002,224.044L178,222.366L179.999,220.657L182.003,218.783L184.002,216.935L186,215.068L187.999,213.124L190.003,211.069L192.002,208.783L194,206.46L195.999,204.105L198.003,201.73L200.002,199.334L202,196.804L203.999,194.317L206.003,191.859L208.002,189.428L210.001,187.013L211.999,184.527L214.003,182.13L216.002,179.787L218.001,177.46L219.999,175.118L222.003,172.689L224.002,170.327L226.001,168.002L227.999,165.689L230.003,163.364L232.002,160.974L234.001,158.662L235.999,156.404L238.004,154.174L240.002,151.953L242.001,149.664L243.999,147.46L246.004,145.355L248.002,143.391L250.001,141.581L252,139.831L254.004,138.313L256.002,136.941L258.001,135.6L260,134.207L262.004,132.687L264.002,131.213L266.001,129.761L268,128.32L270.004,126.869L272.002,125.331L274.001,123.869L276,122.446L278.004,121.024L280.003,119.574L282.001,118.059L284,116.618L286.004,115.22L288.003,113.841L290.001,112.451L292,111.042L294.004,109.727L296.003,108.469L298.001,107.235L300,105.993" stroke="#C1D0E6" stroke-width="2"></path></g></g><path class="foreground" aria-hidden="true" d="" display="none"></path></g><g transform="translate(0,0)"><path class="background" aria-hidden="true" d="M0,0h300v300h-300Z"></path><g><g class="mark-line role-mark marks" role="graphics-object" aria-roledescription="line mark container"><path aria-label="Year: Jan 01, 1950; sh_65+: 3.960122%; Region: Indonesia" role="graphics-symbol" aria-roledescription="line mark" d="M0,270.299L1.999,270.322L3.997,270.474L6.001,270.71L8,271.029L9.999,271.437L11.997,271.598L14.001,271.83L16,272.154L17.999,272.586L19.997,273.119L22.002,273.385L24,273.724L25.999,274.108L27.998,274.501L30.002,274.88L32,274.91L33.999,274.973L35.998,275.047L38.002,275.103L40,275.129L41.999,274.888L43.998,274.656L46.002,274.444L48,274.264L49.999,274.123L51.998,273.785L54.002,273.5L56.001,273.28L57.999,273.143L59.998,273.094L62.002,272.923L64.001,272.835L65.999,272.797L67.998,272.775L70.002,272.745L72.001,272.544L73.999,272.351L75.998,272.144L78.002,271.904L80.001,271.615L81.999,271.07L83.998,270.526L86.002,269.978L88.001,269.42L89.999,268.844L91.998,268.004L94.002,267.168L96.001,266.331L98,265.498L99.998,264.681L102.002,264.236L104.001,263.953L106,263.846L107.998,263.902L110.002,264.083L112.001,263.703L114,263.454L115.998,263.346L118.002,263.399L120.001,263.627L122,263.24L123.998,262.939L126.003,262.648L128.001,262.281L130,261.787L130,261.787L131.998,260.988L134.003,260.104L136.001,259.118L138,258.01L139.999,256.761L142.003,255.119L144.001,253.404L146,251.636L147.999,249.832L150.003,247.999L152.001,245.999L154,244.021L155.999,242.039L158.003,240.028L160.001,237.968L162,235.751L163.999,233.555L166.003,231.378L168.002,229.213L170,227.049L171.999,224.796L174.003,222.602L176.002,220.47L178,218.407L179.999,216.407L182.003,214.293L184.002,212.306L186,210.399L187.999,208.515L190.003,206.614L192.002,204.499L194,202.436L195.999,200.45L198.003,198.591L200.002,196.875L202,195.038L203.999,193.393L206.003,191.895L208.002,190.488L210.001,189.129L211.999,187.53L214.003,186.04L216.002,184.642L218.001,183.326L219.999,182.074L222.003,180.559L224.002,179.171L226.001,177.856L227.999,176.543L230.003,175.183L232.002,173.434L234.001,171.703L235.999,170.014L238.004,168.412L240.002,166.913L242.001,165.175L243.999,163.608L246.004,162.133L248.002,160.641L250.001,159.065L252,157.108L254.004,155.158L256.002,153.246L258.001,151.43L260,149.733L262.004,147.899L264.002,146.25L266.001,144.741L268,143.322L270.004,141.954L272.002,140.446L274.001,139.068L276,137.791L278.004,136.58L280.003,135.4L282.001,134.106L284,132.918L286.004,131.8L288.003,130.715L290.001,129.625L292,128.418L294.004,127.288L296.003,126.205L298.001,125.139L300,124.053" stroke="#C1D0E6" stroke-width="2"></path></g></g><path class="foreground" aria-hidden="true" d="" display="none"></path></g><g transform="translate(0,0)"><path class="background" aria-hidden="true" d="M0,0h300v300h-300Z"></path><g><g class="mark-line role-mark marks" role="graphics-object" aria-roledescription="line mark container"><path aria-label="Year: Jan 01, 1950; sh_65+: 8.091078%; Region: Italy" role="graphics-symbol" aria-roledescription="line mark" d="M0,239.317L1.999,238.231L3.997,236.982L6.001,235.821L8,234.82L9.999,233.932L11.997,232.615L14.001,231.568L16,230.651L17.999,229.742L19.997,228.791L22.002,227.806L24,226.827L25.999,225.84L27.998,224.851L30.002,223.833L32,222.564L33.999,221.245L35.998,219.846L38.002,218.353L40,216.764L41.999,215.135L43.998,213.635L46.002,212.171L48,210.599L49.999,208.848L51.998,206.809L54.002,204.537L56.001,202.349L57.999,200.763L59.998,200.042L62.002,199.772L64.001,200.405L65.999,201.391L67.998,201.932L70.002,201.581L72.001,199.767L73.999,197.234L75.998,194.264L78.002,191.298L80.001,188.585L81.999,185.766L83.998,183.124L86.002,180.624L88.001,178.196L89.999,175.787L91.998,173.349L94.002,171.019L96.001,168.722L98,166.363L99.998,163.891L102.002,161.671L104.001,159.396L106,157.169L107.998,155.155L110.002,153.425L112.001,151.849L114,150.62L115.998,149.502L118.002,148.131L120.001,146.264L122,143.95L123.998,141.199L126.003,138.15L128.001,135.109L130,132.278L130,132.278L131.998,129.68L134.003,127.341L136.001,125.153L138,122.893L139.999,120.379L142.003,117.955L144.001,115.406L146,112.627L147.999,109.517L150.003,106.011L152.001,102.499L154,98.7L155.999,94.651L158.003,90.424L160.001,86.057L162,81.965L163.999,77.889L166.003,73.814L168.002,69.695L170,65.479L171.999,61.755L174.003,58.106L176.002,54.55L178,51.186L179.999,48.088L182.003,45.868L184.002,44.04L186,42.571L187.999,41.353L190.003,40.241L192.002,39.973L194,39.989L195.999,40.142L198.003,40.289L200.002,40.336L202,41.15L203.999,42.013L206.003,42.852L208.002,43.587L210.001,44.126L211.999,45.285L214.003,46.433L216.002,47.521L218.001,48.476L219.999,49.174L222.003,50.441L224.002,51.724L226.001,52.875L227.999,53.735L230.003,54.162L232.002,55.026L234.001,55.774L235.999,56.303L238.004,56.481L240.002,56.168L242.001,56.318L243.999,56.295L246.004,56.026L248.002,55.503L250.001,54.724L252,54.765L254.004,54.814L256.002,54.753L258.001,54.451L260,53.81L262.004,53.949L264.002,53.982L266.001,53.847L268,53.477L270.004,52.791L272.002,52.931L274.001,52.989L276,52.882L278.004,52.507L280.003,51.751L282.001,51.87L284,51.885L286.004,51.69L288.003,51.178L290.001,50.25L292,50.247L294.004,50.12L296.003,49.783L298.001,49.143L300,48.087" stroke="#C1D0E6" stroke-width="2"></path></g></g><path class="foreground" aria-hidden="true" d="" display="none"></path></g><g transform="translate(0,0)"><path class="background" aria-hidden="true" d="M0,0h300v300h-300Z"></path><g><g class="mark-line role-mark marks" role="graphics-object" aria-roledescription="line mark container"><path aria-label="Year: Jan 01, 1950; sh_65+: 4.911012%; Region: Japan" role="graphics-symbol" aria-roledescription="line mark" d="M0,263.167L1.999,262.623L3.997,262.009L6.001,261.471L8,261.033L9.999,260.653L11.997,259.964L14.001,259.426L16,258.939L17.999,258.422L19.997,257.844L22.002,257.032L24,256.225L25.999,255.409L27.998,254.585L30.002,253.747L32,252.691L33.999,251.605L35.998,250.515L38.002,249.454L40,248.434L41.999,247.162L43.998,245.986L46.002,244.839L48,243.613L49.999,242.239L51.998,240.602L54.002,238.753L56.001,236.791L57.999,234.893L59.998,233.143L62.002,231.22L64.001,229.522L65.999,227.905L67.998,226.158L70.002,224.168L72.001,222.012L73.999,219.642L75.998,217.024L78.002,214.144L80.001,210.985L81.999,207.69L83.998,204.163L86.002,200.462L88.001,196.65L89.999,192.769L91.998,188.758L94.002,184.728L96.001,180.689L98,176.653L99.998,172.615L102.002,168.693L104.001,164.769L106,160.805L107.998,156.765L110.002,152.603L112.001,148.664L114,144.766L115.998,140.731L118.002,136.281L120.001,131.258L122,126.304L123.998,120.895L126.003,115.276L128.001,109.857L130,104.885L130,104.885L131.998,100.766L134.003,97.136L136.001,93.939L138,91.063L139.999,88.41L142.003,86.475L144.001,84.905L146,83.54L147.999,82.153L150.003,80.563L152.001,79.324L154,77.967L155.999,76.442L158.003,74.719L160.001,72.741L162,71.145L163.999,69.463L166.003,67.5L168.002,64.987L170,61.762L171.999,58.544L174.003,54.776L176.002,50.7L178,46.741L179.999,43.15L182.003,40.436L184.002,38.307L186,36.622L187.999,35.044L190.003,33.254L192.002,31.999L194,30.877L195.999,29.741L198.003,28.526L200.002,27.214L202,26.782L203.999,26.413L206.003,26.023L208.002,25.556L210.001,24.978L211.999,25.321L214.003,25.696L216.002,26.041L218.001,26.236L219.999,26.142L222.003,26.851L224.002,27.476L226.001,27.944L227.999,28.236L230.003,28.313L232.002,29.153L234.001,30.059L235.999,31.003L238.004,31.793L240.002,32.107L242.001,33.153L243.999,34.192L246.004,34.92L248.002,35.18L250.001,34.98L252,35.634L254.004,36.102L256.002,36.361L258.001,36.358L260,35.991L262.004,36.422L264.002,36.746L266.001,36.867L268,36.7L270.004,36.177L272.002,36.521L274.001,36.748L276,36.761L278.004,36.484L280.003,35.861L282.001,36.096L284,36.2L286.004,36.129L288.003,35.805L290.001,35.114L292,35.26L294.004,35.328L296.003,35.196L298.001,34.735L300,33.842" stroke="red" stroke-width="2"></path></g></g><path class="foreground" aria-hidden="true" d="" display="none"></path></g><g transform="translate(0,0)"><path class="background" aria-hidden="true" d="M0,0h300v300h-300Z"></path><g><g class="mark-line role-mark marks" role="graphics-object" aria-roledescription="line mark container"><path aria-label="Year: Jan 01, 1950; sh_65+: 2.868070%; Region: Republic of Korea" role="graphics-symbol" aria-roledescription="line mark" d="M0,278.489L1.999,277.697L3.997,276.811L6.001,275.984L8,275.366L9.999,275.007L11.997,274.577L14.001,274.393L16,274.362L17.999,274.377L19.997,274.38L22.002,274.201L24,273.948L25.999,273.709L27.998,273.612L30.002,273.698L32,273.636L33.999,273.756L35.998,273.939L38.002,274.035L40,273.983L41.999,273.558L43.998,273.074L46.002,272.572L48,272.102L49.999,271.676L51.998,271.123L54.002,270.558L56.001,270.008L57.999,269.52L59.998,269.112L62.002,268.504L64.001,268.038L65.999,267.616L67.998,267.092L70.002,266.392L72.001,265.429L73.999,264.25L75.998,262.966L78.002,261.772L80.001,260.762L81.999,259.5L83.998,258.485L86.002,257.564L88.001,256.505L89.999,255.181L91.998,253.803L94.002,252.143L96.001,250.253L98,248.233L99.998,246.129L102.002,243.689L104.001,241.166L106,238.604L107.998,236.05L110.002,233.532L112.001,230.821L114,228.189L115.998,225.535L118.002,222.734L120.001,219.712L122,216.725L123.998,213.473L126.003,210.01L128.001,206.428L130,202.759L130,202.759L131.998,199.227L134.003,195.644L136.001,191.814L138,187.427L139.999,182.307L142.003,176.888L144.001,170.82L146,164.298L147.999,157.644L150.003,151.06L152.001,144.947L154,138.97L155.999,133.053L158.003,127.056L160.001,120.886L162,115.156L163.999,109.394L166.003,103.596L168.002,97.76L170,91.876L171.999,86.581L174.003,81.309L176.002,76.121L178,71.133L179.999,66.41L182.003,62.689L184.002,59.398L186,56.334L187.999,53.18L190.003,49.729L192.002,46.899L194,43.863L195.999,40.769L198.003,37.915L200.002,35.457L202,34.106L203.999,33.323L206.003,32.822L208.002,32.066L210.001,30.618L211.999,29.354L214.003,27.719L216.002,25.748L218.001,23.642L219.999,21.546L222.003,20.326L224.002,19.324L226.001,18.521L227.999,17.888L230.003,17.355L232.002,17.824L234.001,18.693L235.999,19.781L238.004,20.818L240.002,21.568L242.001,23.066L243.999,24.544L246.004,25.817L248.002,26.8L250.001,27.486L252,28.814L254.004,30.001L256.002,31.071L258.001,31.935L260,32.391L262.004,33.566L264.002,34.592L266.001,35.217L268,35.395L270.004,35.253L272.002,35.74L274.001,36.018L276,36.213L278.004,36.259L280.003,35.911L282.001,36.005L284,36.033L286.004,35.822L288.003,35.277L290.001,34.383L292,34.143L294.004,33.851L296.003,33.477L298.001,32.949L300,32.186" stroke="yellow" stroke-width="2"></path></g></g><path class="foreground" aria-hidden="true" d="" display="none"></path></g><g transform="translate(0,0)"><path class="background" aria-hidden="true" d="M0,0h300v300h-300Z"></path><g><g class="mark-line role-mark marks" role="graphics-object" aria-roledescription="line mark container"><path aria-label="Year: Jan 01, 1950; sh_65+: 7.225487%; Region: Spain" role="graphics-symbol" aria-roledescription="line mark" d="M0,245.809L1.999,244.794L3.997,243.822L6.001,242.954L8,242.228L9.999,241.63L11.997,240.817L14.001,240.168L16,239.605L17.999,239.074L19.997,238.56L22.002,237.82L24,237.104L25.999,236.368L27.998,235.55L30.002,234.597L32,233.294L33.999,231.912L35.998,230.499L38.002,229.133L40,227.859L41.999,226.695L43.998,225.72L46.002,224.851L48,223.997L49.999,223.109L51.998,221.813L54.002,220.47L56.001,219.145L57.999,217.939L59.998,216.886L62.002,215.792L64.001,214.814L65.999,213.821L67.998,212.631L70.002,211.131L72.001,209.115L73.999,206.929L75.998,204.572L78.002,202.069L80.001,199.449L81.999,196.991L83.998,194.497L86.002,191.941L88.001,189.286L89.999,186.511L91.998,184.025L94.002,181.406L96.001,178.828L98,176.555L99.998,174.728L102.002,174.303L104.001,174.325L106,174.574L107.998,174.752L110.002,174.687L112.001,174.296L114,173.747L115.998,173.025L118.002,172.115L120.001,170.975L122,168.796L123.998,166.376L126.003,163.767L128.001,161.091L130,158.419L130,158.419L131.998,156.247L134.003,154.227L136.001,152.181L138,149.837L139.999,147.021L142.003,144.156L144.001,140.906L146,137.29L147.999,133.389L150.003,129.237L152.001,125.099L154,120.786L155.999,116.323L158.003,111.722L160.001,106.965L162,102.527L163.999,98.077L166.003,93.497L168.002,88.665L170,83.528L171.999,78.733L174.003,73.791L176.002,68.72L178,63.524L179.999,58.198L182.003,53.426L184.002,48.649L186,44.016L187.999,39.741L190.003,35.93L192.002,33.38L194,31.424L195.999,29.934L198.003,28.73L200.002,27.683L202,27.66L203.999,27.972L206.003,28.501L208.002,29.073L210.001,29.517L211.999,30.756L214.003,32.03L216.002,33.277L218.001,34.454L219.999,35.474L222.003,37.385L224.002,39.353L226.001,41.183L227.999,42.645L230.003,43.552L232.002,44.974L234.001,46.145L235.999,46.962L238.004,47.292L240.002,46.992L242.001,47.022L243.999,46.767L246.004,46.26L248.002,45.556L250.001,44.6L252,44.47L254.004,44.514L256.002,44.478L258.001,44.121L260,43.322L262.004,43.368L264.002,43.297L266.001,43.025L268,42.499L270.004,41.667L272.002,41.78L274.001,41.818L276,41.718L278.004,41.382L280.003,40.679L282.001,41.029L284,41.297L286.004,41.342L288.003,41.04L290.001,40.29L292,40.665L294.004,40.883L296.003,40.872L298.001,40.533L300,39.704" stroke="#C1D0E6" stroke-width="2"></path></g></g><path class="foreground" aria-hidden="true" d="" display="none"></path></g><g transform="translate(0,0)"><path class="background" aria-hidden="true" d="M0,0h300v300h-300Z"></path><g><g class="mark-line role-mark marks" role="graphics-object" aria-roledescription="line mark container"><path aria-label="Year: Jan 01, 1950; sh_65+: 10.832293%; Region: United Kingdom" role="graphics-symbol" aria-roledescription="line mark" d="M0,218.758L1.999,217.69L3.997,216.574L6.001,215.747L8,215.253L9.999,214.98L11.997,213.857L14.001,213.152L16,212.658L17.999,212.223L19.997,211.793L22.002,211.076L24,210.423L25.999,209.797L27.998,209.172L30.002,208.501L32,207.244L33.999,205.946L35.998,204.659L38.002,203.428L40,202.253L41.999,200.468L43.998,198.841L46.002,197.334L48,195.91L49.999,194.554L51.998,192.71L54.002,191.018L56.001,189.544L57.999,188.431L59.998,187.756L62.002,186.942L64.001,186.657L65.999,186.66L67.998,186.604L70.002,186.294L72.001,185.368L73.999,184.24L75.998,183.097L78.002,182.207L80.001,181.694L81.999,180.969L83.998,180.607L86.002,180.523L88.001,180.593L89.999,180.736L91.998,180.62L94.002,180.618L96.001,180.674L98,180.749L99.998,180.81L102.002,180.532L104.001,180.288L106,180.062L107.998,179.856L110.002,179.662L112.001,179.065L114,178.567L115.998,177.97L118.002,177.001L120.001,175.515L122,173.568L123.998,171.137L126.003,168.497L128.001,166.073L130,164.089L130,164.089L131.998,162.372L134.003,161.121L136.001,160.124L138,159.051L139.999,157.689L142.003,156.239L144.001,154.656L146,152.871L147.999,150.834L150.003,148.51L152.001,146.165L154,143.611L155.999,140.897L158.003,138.105L160.001,135.286L162,132.774L163.999,130.319L166.003,127.956L168.002,125.735L170,123.676L171.999,122.236L174.003,121.043L176.002,120L178,118.987L179.999,117.909L182.003,117.24L184.002,116.612L186,115.969L187.999,115.201L190.003,114.183L192.002,113.504L194,112.709L195.999,111.722L198.003,110.525L200.002,109.126L202,108.176L203.999,107.144L206.003,106.041L208.002,104.869L210.001,103.596L211.999,102.823L214.003,102.117L216.002,101.436L218.001,100.718L219.999,99.886L222.003,99.573L224.002,99.321L226.001,99.068L227.999,98.755L230.003,98.306L232.002,98.506L234.001,98.759L235.999,98.883L238.004,98.672L240.002,97.997L242.001,97.777L243.999,97.255L246.004,96.439L248.002,95.37L250.001,94.05L252,93.367L254.004,92.602L256.002,91.71L258.001,90.618L260,89.239L262.004,88.51L264.002,87.74L266.001,86.851L268,85.752L270.004,84.35L272.002,83.654L274.001,82.912L276,82.038L278.004,80.959L280.003,79.601L282.001,79.053L284,78.469L286.004,77.756L288.003,76.82L290.001,75.571L292,75.203L294.004,74.756L296.003,74.13L298.001,73.23L300,71.977" stroke="#C1D0E6" stroke-width="2"></path></g></g><path class="foreground" aria-hidden="true" d="" display="none"></path></g><g transform="translate(0,0)"><path class="background" aria-hidden="true" d="M0,0h300v300h-300Z"></path><g><g class="mark-line role-mark marks" role="graphics-object" aria-roledescription="line mark container"><path aria-label="Year: Jan 01, 1950; sh_65+: 8.213109%; Region: United States of America" role="graphics-symbol" aria-roledescription="line mark" d="M0,238.402L1.999,237.344L3.997,236.402L6.001,235.578L8,234.838L9.999,234.135L11.997,233.352L14.001,232.739L16,232.25L17.999,231.864L19.997,231.558L22.002,231.001L24,230.524L25.999,230.061L27.998,229.559L30.002,229.006L32,228.1L33.999,227.165L35.998,226.206L38.002,225.268L40,224.403L41.999,223.308L43.998,222.336L46.002,221.389L48,220.421L49.999,219.462L51.998,218.285L54.002,217.097L56.001,215.849L57.999,214.564L59.998,213.293L62.002,212.325L64.001,211.481L65.999,210.682L67.998,209.858L70.002,208.999L72.001,208.118L73.999,207.296L75.998,206.537L78.002,205.872L80.001,205.319L81.999,205.002L83.998,204.829L86.002,204.781L88.001,204.87L89.999,205.107L91.998,205.492L94.002,205.985L96.001,206.539L98,207.097L99.998,207.598L102.002,207.759L104.001,207.936L106,208.047L107.998,208.014L110.002,207.795L112.001,207.266L114,206.573L115.998,205.637L118.002,204.368L120.001,202.711L122,200.681L123.998,198.324L126.003,195.724L128.001,192.995L130,190.197L130,190.197L131.998,187.264L134.003,184.4L136.001,181.527L138,178.532L139.999,175.36L142.003,172.306L144.001,169.158L146,165.968L147.999,162.815L150.003,159.736L152.001,156.956L154,154.307L155.999,151.798L158.003,149.446L160.001,147.262L162,145.599L163.999,144.161L166.003,142.896L168.002,141.736L170,140.626L171.999,139.971L174.003,139.418L176.002,138.919L178,138.43L179.999,137.904L182.003,137.728L184.002,137.58L186,137.405L187.999,137.127L190.003,136.67L192.002,136.426L194,136.108L195.999,135.662L198.003,135.035L200.002,134.184L202,133.509L203.999,132.749L206.003,131.855L208.002,130.765L210.001,129.42L211.999,128.258L214.003,126.986L216.002,125.614L218.001,124.177L219.999,122.677L222.003,121.632L224.002,120.66L226.001,119.673L227.999,118.571L230.003,117.285L232.002,116.46L234.001,115.599L235.999,114.645L238.004,113.53L240.002,112.201L242.001,111.394L243.999,110.49L246.004,109.496L248.002,108.444L250.001,107.334L252,106.955L254.004,106.653L256.002,106.322L258.001,105.817L260,105.017L262.004,104.788L264.002,104.442L266.001,103.926L268,103.193L270.004,102.182L272.002,101.766L274.001,101.264L276,100.62L278.004,99.769L280.003,98.627L282.001,98.146L284,97.601L286.004,96.901L288.003,95.97L290.001,94.745L292,94.281L294.004,93.731L296.003,93.035L298.001,92.128L300,90.936" stroke="#C1D0E6" stroke-width="2"></path></g></g><path class="foreground" aria-hidden="true" d="" display="none"></path></g><g transform="translate(0,0)"><path class="background" aria-hidden="true" d="M0,0h300v300h-300Z"></path><g><g class="mark-line role-mark marks" role="graphics-object" aria-roledescription="line mark container"><path aria-label="Year: Jan 01, 1950; sh_65+: 5.078891%; Region: WORLD" role="graphics-symbol" aria-roledescription="line mark" d="M0,261.908L1.999,261.758L3.997,261.7L6.001,261.744L8,261.894L9.999,262.145L11.997,262.047L14.001,262.052L16,262.155L17.999,262.345L19.997,262.603L22.002,262.313L24,262.149L25.999,262.072L27.998,262.041L30.002,262.035L32,261.603L33.999,261.196L35.998,260.818L38.002,260.478L40,260.177L41.999,259.671L43.998,259.234L46.002,258.845L48,258.474L49.999,258.107L51.998,257.514L54.002,256.935L56.001,256.413L57.999,256.022L59.998,255.795L62.002,255.55L64.001,255.491L65.999,255.527L67.998,255.544L70.002,255.48L72.001,255.205L73.999,254.899L75.998,254.563L78.002,254.198L80.001,253.801L81.999,253.254L83.998,252.674L86.002,252.093L88.001,251.554L89.999,251.073L91.998,250.4L94.002,249.847L96.001,249.358L98,248.861L99.998,248.323L102.002,247.624L104.001,246.919L106,246.242L107.998,245.658L110.002,245.186L112.001,244.637L114,244.184L115.998,243.761L118.002,243.283L120.001,242.695L122,241.911L123.998,241.073L126.003,240.144L128.001,239.077L130,237.841L130,237.841L131.998,236.363L134.003,234.761L136.001,233.091L138,231.434L139.999,229.827L142.003,228.205L144.001,226.67L146,225.156L147.999,223.579L150.003,221.887L152.001,220.113L154,218.3L155.999,216.439L158.003,214.527L160.001,212.561L162,210.604L163.999,208.649L166.003,206.7L168.002,204.767L170,202.851L171.999,201.052L174.003,199.313L176.002,197.637L178,196.045L179.999,194.54L182.003,193.205L184.002,191.996L186,190.847L187.999,189.667L190.003,188.389L192.002,187.104L194,185.81L195.999,184.456L198.003,182.979L200.002,181.338L202,179.635L203.999,177.847L206.003,176.024L208.002,174.262L210.001,172.612L211.999,171.169L214.003,169.899L216.002,168.762L218.001,167.702L219.999,166.673L222.003,165.801L224.002,165.045L226.001,164.348L227.999,163.642L230.003,162.872L232.002,162.194L234.001,161.532L235.999,160.844L238.004,160.084L240.002,159.213L242.001,158.424L243.999,157.609L246.004,156.734L248.002,155.774L250.001,154.714L252,153.755L254.004,152.783L256.002,151.78L258.001,150.733L260,149.62L262.004,148.621L264.002,147.659L266.001,146.705L268,145.723L270.004,144.663L272.002,143.763L274.001,142.903L276,142.026L278.004,141.088L280.003,140.057L282.001,139.241L284,138.433L286.004,137.593L288.003,136.684L290.001,135.671L292,134.896L294.004,134.107L296.003,133.267L298.001,132.348L300,131.322" stroke="#C1D0E6" stroke-width="2"></path></g></g><path class="foreground" aria-hidden="true" d="" display="none"></path></g></g><g class="mark-group role-title"><g transform="translate(-27.625,-59)"><path class="background" aria-hidden="true" d="M0,0h0v0h0Z" pointer-events="none"></path><g><g class="mark-text role-title-text" role="graphics-symbol" aria-roledescription="title" aria-label="Title text 'Extreme demographics: the old-age tsunami'" pointer-events="none"><text text-anchor="start" transform="translate(0,10)" font-family="sans-serif" font-size="13px" font-weight="bold" fill="#179fdb" opacity="1">Extreme demographics: the old-age tsunami</text></g><g class="mark-text role-title-subtitle" role="graphics-symbol" aria-roledescription="subtitle" aria-label="Subtitle text 'Share of popluation that is aged 65+ Source: UN. Japan=Red, S Korea=Yellow '" pointer-events="none"><text text-anchor="start" transform="translate(0,24)" font-family="sans-serif" font-size="10px" font-style="italic" fill="#179fdb" opacity="1"><tspan>Share of popluation that is aged 65+</tspan><tspan x="0" dy="12">Source: UN. Japan=Red, S Korea=Yellow</tspan><tspan x="0" dy="12"></tspan></text></g></g><path class="foreground" aria-hidden="true" d="" pointer-events="none" display="none"></path></g></g></g><path class="foreground" aria-hidden="true" d="" display="none"></path></g></g></g></svg>