<svg xmlns="http://www.w3.org/2000/svg" xmlns:xlink="http://www.w3.org/1999/xlink" version="1.1" class="marks" width="638" height="491" viewBox="0 0 638 491" style="background-color: white;"><g fill="none" stroke-miterlimit="10" transform="translate(60,28)"><g class="mark-group role-frame root" role="graphics-object" aria-roledescription="group mark container"><g transform="translate(0,0)"><path class="background" aria-hidden="true" d="M0,0h0v0h0Z"></path><g><g class="mark-group role-scope concat_0_group" role="graphics-object" aria-roledescription="group mark container"><g transform="translate(0,0)"><path class="background" aria-hidden="true" d="M0,0h0v0h0Z"></path><g><g class="mark-group role-scope concat_0_concat_0_group" role="graphics-object" aria-roledescription="group mark container"><g transform="translate(0,0)"><path class="background" aria-hidden="true" d="M0.5,0.5h250v250h-250Z" fill="transparent" stroke="#ddd"></path><g><g class="mark-group role-axis" role="graphics-symbol" aria-roledescription="axis" aria-label="X-axis titled 'log(Computation time) (h)' for a log scale with values from 0.01 to 10"><g transform="translate(0.5,250.5)"><path class="background" aria-hidden="true" d="M0,0h0v0h0Z" pointer-events="none"></path><g><g class="mark-rule role-axis-tick" pointer-events="none"><line transform="translate(0,0)" x2="0" y2="5" stroke="#888" stroke-width="1" opacity="1"></line><line transform="translate(25,0)" x2="0" y2="5" stroke="#888" stroke-width="1" opacity="1"></line><line transform="translate(40,0)" x2="0" y2="5" stroke="#888" stroke-width="1" opacity="1"></line><line transform="translate(50,0)" x2="0" y2="5" stroke="#888" stroke-width="1" opacity="1"></line><line transform="translate(58,0)" x2="0" y2="5" stroke="#888" stroke-width="1" opacity="1"></line><line transform="translate(65,0)" x2="0" y2="5" stroke="#888" stroke-width="1" opacity="1"></line><line transform="translate(70,0)" x2="0" y2="5" stroke="#888" stroke-width="1" opacity="1"></line><line transform="translate(75,0)" x2="0" y2="5" stroke="#888" stroke-width="1" opacity="1"></line><line transform="translate(80,0)" x2="0" y2="5" stroke="#888" stroke-width="1" opacity="1"></line><line transform="translate(83,0)" x2="0" y2="5" stroke="#888" stroke-width="1" opacity="1"></line><line transform="translate(108,0)" x2="0" y2="5" stroke="#888" stroke-width="1" opacity="1"></line><line transform="translate(123,0)" x2="0" y2="5" stroke="#888" stroke-width="1" opacity="1"></line><line transform="translate(134,0)" x2="0" y2="5" stroke="#888" stroke-width="1" opacity="1"></line><line transform="translate(142,0)" x2="0" y2="5" stroke="#888" stroke-width="1" opacity="1"></line><line transform="translate(148,0)" x2="0" y2="5" stroke="#888" stroke-width="1" opacity="1"></line><line transform="translate(154,0)" x2="0" y2="5" stroke="#888" stroke-width="1" opacity="1"></line><line transform="translate(159,0)" x2="0" y2="5" stroke="#888" stroke-width="1" opacity="1"></line><line transform="translate(163,0)" x2="0" y2="5" stroke="#888" stroke-width="1" opacity="1"></line><line transform="translate(167,0)" x2="0" y2="5" stroke="#888" stroke-width="1" opacity="1"></line><line transform="translate(192,0)" x2="0" y2="5" stroke="#888" stroke-width="1" opacity="1"></line><line transform="translate(206,0)" x2="0" y2="5" stroke="#888" stroke-width="1" opacity="1"></line><line transform="translate(217,0)" x2="0" y2="5" stroke="#888" stroke-width="1" opacity="1"></line><line transform="translate(225,0)" x2="0" y2="5" stroke="#888" stroke-width="1" opacity="1"></line><line transform="translate(232,0)" x2="0" y2="5" stroke="#888" stroke-width="1" opacity="1"></line><line transform="translate(237,0)" x2="0" y2="5" stroke="#888" stroke-width="1" opacity="1"></line><line transform="translate(242,0)" x2="0" y2="5" stroke="#888" stroke-width="1" opacity="1"></line><line transform="translate(246,0)" x2="0" y2="5" stroke="#888" stroke-width="1" opacity="1"></line><line transform="translate(250,0)" x2="0" y2="5" stroke="#888" stroke-width="1" opacity="1"></line></g><g class="mark-text role-axis-label" pointer-events="none"><text text-anchor="start" transform="translate(0,15)" font-family="sans-serif" font-size="10px" fill="#000" opacity="1">0.01</text><text text-anchor="middle" transform="translate(25.08583297199842,15)" font-family="sans-serif" font-size="10px" fill="#000" opacity="0">0.02</text><text text-anchor="middle" transform="translate(39.76010455997185,15)" font-family="sans-serif" font-size="10px" fill="#000" opacity="1">0.03</text><text text-anchor="middle" transform="translate(50.17166594399686,15)" font-family="sans-serif" font-size="10px" fill="#000" opacity="1"></text><text text-anchor="middle" transform="translate(58.24750036133489,15)" font-family="sans-serif" font-size="10px" fill="#000" opacity="1"></text><text text-anchor="middle" transform="translate(64.84593753197029,15)" font-family="sans-serif" font-size="10px" fill="#000" opacity="1"></text><text text-anchor="middle" transform="translate(70.42483666785473,15)" font-family="sans-serif" font-size="10px" fill="#000" opacity="1"></text><text text-anchor="middle" transform="translate(75.25749891599528,15)" font-family="sans-serif" font-size="10px" fill="#000" opacity="1"></text><text text-anchor="middle" transform="translate(79.52020911994373,15)" font-family="sans-serif" font-size="10px" fill="#000" opacity="1"></text><text text-anchor="middle" transform="translate(83.33333333333333,15)" font-family="sans-serif" font-size="10px" fill="#000" opacity="1">0.1</text><text text-anchor="middle" transform="translate(108.41916630533174,15)" font-family="sans-serif" font-size="10px" fill="#000" opacity="1">0.2</text><text text-anchor="middle" transform="translate(123.0934378933052,15)" font-family="sans-serif" font-size="10px" fill="#000" opacity="1">0.3</text><text text-anchor="middle" transform="translate(133.5049992773302,15)" font-family="sans-serif" font-size="10px" fill="#000" opacity="1"></text><text text-anchor="middle" transform="translate(141.58083369466823,15)" font-family="sans-serif" font-size="10px" fill="#000" opacity="1"></text><text text-anchor="middle" transform="translate(148.17927086530364,15)" font-family="sans-serif" font-size="10px" fill="#000" opacity="1"></text><text text-anchor="middle" transform="translate(153.75817000118806,15)" font-family="sans-serif" font-size="10px" fill="#000" opacity="1"></text><text text-anchor="middle" transform="translate(158.59083224932863,15)" font-family="sans-serif" font-size="10px" fill="#000" opacity="1"></text><text text-anchor="middle" transform="translate(162.85354245327707,15)" font-family="sans-serif" font-size="10px" fill="#000" opacity="1"></text><text text-anchor="middle" transform="translate(166.66666666666666,15)" font-family="sans-serif" font-size="10px" fill="#000" opacity="1">1</text><text text-anchor="middle" transform="translate(191.75249963866509,15)" font-family="sans-serif" font-size="10px" fill="#000" opacity="1">2</text><text text-anchor="middle" transform="translate(206.42677122663855,15)" font-family="sans-serif" font-size="10px" fill="#000" opacity="1">3</text><text text-anchor="middle" transform="translate(216.83833261066354,15)" font-family="sans-serif" font-size="10px" fill="#000" opacity="1"></text><text text-anchor="middle" transform="translate(224.91416702800157,15)" font-family="sans-serif" font-size="10px" fill="#000" opacity="1"></text><text text-anchor="middle" transform="translate(231.51260419863698,15)" font-family="sans-serif" font-size="10px" fill="#000" opacity="1"></text><text text-anchor="middle" transform="translate(237.0915033345214,15)" font-family="sans-serif" font-size="10px" fill="#000" opacity="1"></text><text text-anchor="middle" transform="translate(241.92416558266194,15)" font-family="sans-serif" font-size="10px" fill="#000" opacity="1"></text><text text-anchor="middle" transform="translate(246.1868757866104,15)" font-family="sans-serif" font-size="10px" fill="#000" opacity="1"></text><text text-anchor="end" transform="translate(250,15)" font-family="sans-serif" font-size="10px" fill="#000" opacity="1">10</text></g><g class="mark-rule role-axis-domain" pointer-events="none"><line transform="translate(0,0)" x2="250" y2="0" stroke="#888" stroke-width="1" opacity="1"></line></g><g class="mark-text role-axis-title" pointer-events="none"><text text-anchor="middle" transform="translate(125,30)" font-family="sans-serif" font-size="11px" font-weight="normal" fill="#000" opacity="1">log(Computation time) (h)</text></g></g><path class="foreground" aria-hidden="true" d="" pointer-events="none" display="none"></path></g></g><g class="mark-group role-axis" role="graphics-symbol" aria-roledescription="axis" aria-label="Y-axis titled 'log(# of sequences)' for a log scale with values from 100 to 10,000"><g transform="translate(0.5,0.5)"><path class="background" aria-hidden="true" d="M0,0h0v0h0Z" pointer-events="none"></path><g><g class="mark-rule role-axis-tick" pointer-events="none"><line transform="translate(0,250)" x2="-5" y2="0" stroke="#888" stroke-width="1" opacity="1"></line><line transform="translate(0,212)" x2="-5" y2="0" stroke="#888" stroke-width="1" opacity="1"></line><line transform="translate(0,190)" x2="-5" y2="0" stroke="#888" stroke-width="1" opacity="1"></line><line transform="translate(0,175)" x2="-5" y2="0" stroke="#888" stroke-width="1" opacity="1"></line><line transform="translate(0,163)" x2="-5" y2="0" stroke="#888" stroke-width="1" opacity="1"></line><line transform="translate(0,153)" x2="-5" y2="0" stroke="#888" stroke-width="1" opacity="1"></line><line transform="translate(0,144)" x2="-5" y2="0" stroke="#888" stroke-width="1" opacity="1"></line><line transform="translate(0,137)" x2="-5" y2="0" stroke="#888" stroke-width="1" opacity="1"></line><line transform="translate(0,131)" x2="-5" y2="0" stroke="#888" stroke-width="1" opacity="1"></line><line transform="translate(0,125)" x2="-5" y2="0" stroke="#888" stroke-width="1" opacity="1"></line><line transform="translate(0,87)" x2="-5" y2="0" stroke="#888" stroke-width="1" opacity="1"></line><line transform="translate(0,65)" x2="-5" y2="0" stroke="#888" stroke-width="1" opacity="1"></line><line transform="translate(0,50)" x2="-5" y2="0" stroke="#888" stroke-width="1" opacity="1"></line><line transform="translate(0,38)" x2="-5" y2="0" stroke="#888" stroke-width="1" opacity="1"></line><line transform="translate(0,28)" x2="-5" y2="0" stroke="#888" stroke-width="1" opacity="1"></line><line transform="translate(0,19)" x2="-5" y2="0" stroke="#888" stroke-width="1" opacity="1"></line><line transform="translate(0,12)" x2="-5" y2="0" stroke="#888" stroke-width="1" opacity="1"></line><line transform="translate(0,6)" x2="-5" y2="0" stroke="#888" stroke-width="1" opacity="1"></line><line transform="translate(0,0)" x2="-5" y2="0" stroke="#888" stroke-width="1" opacity="1"></line></g><g class="mark-text role-axis-label" pointer-events="none"><text text-anchor="end" transform="translate(-7,253)" font-family="sans-serif" font-size="10px" fill="#000" opacity="1">100</text><text text-anchor="end" transform="translate(-7,215.3712505420024)" font-family="sans-serif" font-size="10px" fill="#000" opacity="1">200</text><text text-anchor="end" transform="translate(-7,193.35984316004223)" font-family="sans-serif" font-size="10px" fill="#000" opacity="1">300</text><text text-anchor="end" transform="translate(-7,177.74250108400474)" font-family="sans-serif" font-size="10px" fill="#000" opacity="1">400</text><text text-anchor="end" transform="translate(-7,165.6287494579977)" font-family="sans-serif" font-size="10px" fill="#000" opacity="1">500</text><text text-anchor="end" transform="translate(-7,155.73109370204457)" font-family="sans-serif" font-size="10px" fill="#000" opacity="1"></text><text text-anchor="end" transform="translate(-7,147.36274499821795)" font-family="sans-serif" font-size="10px" fill="#000" opacity="1"></text><text text-anchor="end" transform="translate(-7,140.1137516260071)" font-family="sans-serif" font-size="10px" fill="#000" opacity="1"></text><text text-anchor="end" transform="translate(-7,133.7196863200844)" font-family="sans-serif" font-size="10px" fill="#000" opacity="1"></text><text text-anchor="end" transform="translate(-7,128.00000000000006)" font-family="sans-serif" font-size="10px" fill="#000" opacity="1">1,000</text><text text-anchor="end" transform="translate(-7,90.3712505420024)" font-family="sans-serif" font-size="10px" fill="#000" opacity="1">2,000</text><text text-anchor="end" transform="translate(-7,68.35984316004229)" font-family="sans-serif" font-size="10px" fill="#000" opacity="1">3,000</text><text text-anchor="end" transform="translate(-7,52.74250108400474)" font-family="sans-serif" font-size="10px" fill="#000" opacity="1">4,000</text><text text-anchor="end" transform="translate(-7,40.62874945799766)" font-family="sans-serif" font-size="10px" fill="#000" opacity="1">5,000</text><text text-anchor="end" transform="translate(-7,30.731093702044628)" font-family="sans-serif" font-size="10px" fill="#000" opacity="1"></text><text text-anchor="end" transform="translate(-7,22.36274499821794)" font-family="sans-serif" font-size="10px" fill="#000" opacity="1"></text><text text-anchor="end" transform="translate(-7,15.113751626007085)" font-family="sans-serif" font-size="10px" fill="#000" opacity="1"></text><text text-anchor="end" transform="translate(-7,8.719686320084405)" font-family="sans-serif" font-size="10px" fill="#000" opacity="1"></text><text text-anchor="end" transform="translate(-7,3)" font-family="sans-serif" font-size="10px" fill="#000" opacity="1">10,000</text></g><g class="mark-rule role-axis-domain" pointer-events="none"><line transform="translate(0,250)" x2="0" y2="-250" stroke="#888" stroke-width="1" opacity="1"></line></g><g class="mark-text role-axis-title" pointer-events="none"><text text-anchor="middle" transform="translate(-42.728515625,125) rotate(-90) translate(0,-2)" font-family="sans-serif" font-size="11px" font-weight="normal" fill="#000" opacity="1">log(# of sequences)</text></g></g><path class="foreground" aria-hidden="true" d="" pointer-events="none" display="none"></path></g></g><g class="mark-symbol role-mark concat_0_concat_0_marks" role="graphics-object" aria-roledescription="symbol mark container" clip-path="url(#clip1)"><path aria-label="log(Computation time) (h): 0.0434403056; log(# of sequences): 688; dataset: ace_vaxinpad" role="graphics-symbol" aria-roledescription="point" transform="translate(53.15773931897706,145.30144522056113)" d="M3.873,0A3.873,3.873,0,1,1,-3.873,0A3.873,3.873,0,1,1,3.873,0" fill="lightgrey" stroke-width="2" opacity="0.7"></path><path aria-label="log(Computation time) (h): 0.0457383889; log(# of sequences): 450; dataset: acp_anticp" role="graphics-symbol" aria-roledescription="point" transform="translate(55.0234052372476,168.34843577808206)" d="M3.873,0A3.873,3.873,0,1,1,-3.873,0A3.873,3.873,0,1,1,3.873,0" fill="lightgrey" stroke-width="2" opacity="0.7"></path><path aria-label="log(Computation time) (h): 0.0352134722; log(# of sequences): 344; dataset: acp_iacp" role="graphics-symbol" aria-roledescription="point" transform="translate(45.55907087397817,182.9301946785588)" d="M3.873,0A3.873,3.873,0,1,1,-3.873,0A3.873,3.873,0,1,1,3.873,0" fill="lightgrey" stroke-width="2" opacity="0.7"></path><path aria-label="log(Computation time) (h): 0.0529994444; log(# of sequences): 585; dataset: acp_mlacp" role="graphics-symbol" aria-roledescription="point" transform="translate(60.35594307163979,154.10551673972745)" d="M3.873,0A3.873,3.873,0,1,1,-3.873,0A3.873,3.873,0,1,1,3.873,0" fill="lightgrey" stroke-width="2" opacity="0.7"></path><path aria-label="log(Computation time) (h): 1.6593158056; log(# of sequences): 2768; dataset: afp_amppred" role="graphics-symbol" aria-roledescription="point" transform="translate(184.99408750207883,69.72923927691002)" d="M3.873,0A3.873,3.873,0,1,1,-3.873,0A3.873,3.873,0,1,1,3.873,0" fill="lightgrey" stroke-width="2" opacity="0.7"></path><path aria-label="log(Computation time) (h): 2.0362290833; log(# of sequences): 2916; dataset: afp_antifp" role="graphics-symbol" aria-roledescription="point" transform="translate(192.40221967901823,66.9015600442579)" d="M3.873,0A3.873,3.873,0,1,1,-3.873,0A3.873,3.873,0,1,1,3.873,0" fill="lightgrey" stroke-width="2" opacity="0.7"></path><path aria-label="log(Computation time) (h): 0.1003080556; log(# of sequences): 1049; dataset: aip_aippred" role="graphics-symbol" aria-roledescription="point" transform="translate(83.44465100040931,122.40306397580531)" d="M3.873,0A3.873,3.873,0,1,1,-3.873,0A3.873,3.873,0,1,1,3.873,0" fill="lightgrey" stroke-width="2" opacity="0.7"></path><path aria-label="log(Computation time) (h): 0.7108057222; log(# of sequences): 2124; dataset: aip_antiinflam" role="graphics-symbol" aria-roledescription="point" transform="translate(154.3125762790524,84.10568594882109)" d="M3.873,0A3.873,3.873,0,1,1,-3.873,0A3.873,3.873,0,1,1,3.873,0" fill="lightgrey" stroke-width="2" opacity="0.7"></path><path aria-label="log(Computation time) (h): 0.0651455278; log(# of sequences): 861; dataset: amp_antibp" role="graphics-symbol" aria-roledescription="point" transform="translate(67.82371725213466,133.12460606829322)" d="M3.873,0A3.873,3.873,0,1,1,-3.873,0A3.873,3.873,0,1,1,3.873,0" fill="lightgrey" stroke-width="2" opacity="0.7"></path><path aria-label="log(Computation time) (h): 0.6661740278; log(# of sequences): 1993; dataset: amp_antibp2" role="graphics-symbol" aria-roledescription="point" transform="translate(151.96564139987828,87.5615876624391)" d="M3.873,0A3.873,3.873,0,1,1,-3.873,0A3.873,3.873,0,1,1,3.873,0" fill="lightgrey" stroke-width="2" opacity="0.7"></path><path aria-label="log(Computation time) (h): 0.0399723611; log(# of sequences): 256; dataset: amp_csamp" role="graphics-symbol" aria-roledescription="point" transform="translate(50.146650171737775,198.97000433601886)" d="M3.873,0A3.873,3.873,0,1,1,-3.873,0A3.873,3.873,0,1,1,3.873,0" fill="lightgrey" stroke-width="2" opacity="0.7"></path><path aria-label="log(Computation time) (h): 0.1099590278; log(# of sequences): 231; dataset: amp_fernandes" role="graphics-symbol" aria-roledescription="point" transform="translate(86.76924094871521,204.548502513482)" d="M3.873,0A3.873,3.873,0,1,1,-3.873,0A3.873,3.873,0,1,1,3.873,0" fill="lightgrey" stroke-width="2" opacity="0.7"></path><path aria-label="log(Computation time) (h): 0.0218066111; log(# of sequences): 129; dataset: amp_gonzales" role="graphics-symbol" aria-roledescription="point" transform="translate(28.21568153501892,236.1762862125939)" d="M3.873,0A3.873,3.873,0,1,1,-3.873,0A3.873,3.873,0,1,1,3.873,0" fill="lightgrey" stroke-width="2" opacity="0.7"></path><path aria-label="log(Computation time) (h): 2.7358156667; log(# of sequences): 3284; dataset: amp_iamp2l" role="graphics-symbol" aria-roledescription="point" transform="translate(203.09056935147473,60.449606444074654)" d="M3.873,0A3.873,3.873,0,1,1,-3.873,0A3.873,3.873,0,1,1,3.873,0" fill="lightgrey" stroke-width="2" opacity="0.7"></path><path aria-label="log(Computation time) (h): 1.3651553611; log(# of sequences): 2579; dataset: amp_modlamp" role="graphics-symbol" aria-roledescription="point" transform="translate(177.93183991198057,73.56858223275786)" d="M3.873,0A3.873,3.873,0,1,1,-3.873,0A3.873,3.873,0,1,1,3.873,0" fill="lightgrey" stroke-width="2" opacity="0.7"></path><path aria-label="log(Computation time) (h): 0.0364827778; log(# of sequences): 492; dataset: atb_antitbp" role="graphics-symbol" aria-roledescription="point" transform="translate(46.840658176051534,163.50436215407998)" d="M3.873,0A3.873,3.873,0,1,1,-3.873,0A3.873,3.873,0,1,1,3.873,0" fill="lightgrey" stroke-width="2" opacity="0.7"></path><path aria-label="log(Computation time) (h): 0.0392418333; log(# of sequences): 492; dataset: atb_iantitb" role="graphics-symbol" aria-roledescription="point" transform="translate(49.47910737931862,163.50436215407998)" d="M3.873,0A3.873,3.873,0,1,1,-3.873,0A3.873,3.873,0,1,1,3.873,0" fill="lightgrey" stroke-width="2" opacity="0.7"></path><path aria-label="log(Computation time) (h): 0.4064921111; log(# of sequences): 1478; dataset: avp_amppred" role="graphics-symbol" aria-roledescription="point" transform="translate(134.08767679532525,103.79069574264918)" d="M3.873,0A3.873,3.873,0,1,1,-3.873,0A3.873,3.873,0,1,1,3.873,0" fill="lightgrey" stroke-width="2" opacity="0.7"></path><path aria-label="log(Computation time) (h): 0.1213128333; log(# of sequences): 1047; dataset: avp_avppred" role="graphics-symbol" aria-roledescription="point" transform="translate(90.32556216108937,122.50666479014474)" d="M3.873,0A3.873,3.873,0,1,1,-3.873,0A3.873,3.873,0,1,1,3.873,0" fill="lightgrey" stroke-width="2" opacity="0.7"></path><path aria-label="log(Computation time) (h): 1.1566334444; log(# of sequences): 2518; dataset: bce_ibce" role="graphics-symbol" aria-roledescription="point" transform="translate(171.93297882526898,74.86803427851957)" d="M3.873,0A3.873,3.873,0,1,1,-3.873,0A3.873,3.873,0,1,1,3.873,0" fill="lightgrey" stroke-width="2" opacity="0.7"></path><path aria-label="log(Computation time) (h): 0.4062808056; log(# of sequences): 1614; dataset: cpp_cellppd" role="graphics-symbol" aria-roledescription="point" transform="translate(134.06885874401232,99.01205870174357)" d="M3.873,0A3.873,3.873,0,1,1,-3.873,0A3.873,3.873,0,1,1,3.873,0" fill="lightgrey" stroke-width="2" opacity="0.7"></path><path aria-label="log(Computation time) (h): 0.2681591944; log(# of sequences): 1462; dataset: cpp_cellppdmod" role="graphics-symbol" aria-roledescription="point" transform="translate(119.0327243542415,104.38157842226985)" d="M3.873,0A3.873,3.873,0,1,1,-3.873,0A3.873,3.873,0,1,1,3.873,0" fill="lightgrey" stroke-width="2" opacity="0.7"></path><path aria-label="log(Computation time) (h): 0.1227752778; log(# of sequences): 924; dataset: cpp_cppredfl" role="graphics-symbol" aria-roledescription="point" transform="translate(90.75924378917237,129.29100359748668)" d="M3.873,0A3.873,3.873,0,1,1,-3.873,0A3.873,3.873,0,1,1,3.873,0" fill="lightgrey" stroke-width="2" opacity="0.7"></path><path aria-label="log(Computation time) (h): 0.120295; log(# of sequences): 1003; dataset: cpp_kelmcpp" role="graphics-symbol" aria-roledescription="point" transform="translate(90.0206313739584,124.83738337244776)" d="M3.873,0A3.873,3.873,0,1,1,-3.873,0A3.873,3.873,0,1,1,3.873,0" fill="lightgrey" stroke-width="2" opacity="0.7"></path><path aria-label="log(Computation time) (h): 0.0190466389; log(# of sequences): 128; dataset: cpp_mixed" role="graphics-symbol" aria-roledescription="point" transform="translate(23.318195683513576,236.5987537940165)" d="M3.873,0A3.873,3.873,0,1,1,-3.873,0A3.873,3.873,0,1,1,3.873,0" fill="lightgrey" stroke-width="2" opacity="0.7"></path><path aria-label="log(Computation time) (h): 0.6181235; log(# of sequences): 1903; dataset: cpp_mlcpp" role="graphics-symbol" aria-roledescription="point" transform="translate(149.25627125336027,90.0701514641225)" d="M3.873,0A3.873,3.873,0,1,1,-3.873,0A3.873,3.873,0,1,1,3.873,0" fill="lightgrey" stroke-width="2" opacity="0.7"></path><path aria-label="log(Computation time) (h): 0.0334308056; log(# of sequences): 374; dataset: cpp_mlcppue" role="graphics-symbol" aria-roledescription="point" transform="translate(43.678903512086634,178.39104972494)" d="M3.873,0A3.873,3.873,0,1,1,-3.873,0A3.873,3.873,0,1,1,3.873,0" fill="lightgrey" stroke-width="2" opacity="0.7"></path><path aria-label="log(Computation time) (h): 0.0189923889; log(# of sequences): 145; dataset: cpp_sanders" role="graphics-symbol" aria-roledescription="point" transform="translate(23.214966215519226,229.82899972062816)" d="M3.873,0A3.873,3.873,0,1,1,-3.873,0A3.873,3.873,0,1,1,3.873,0" fill="lightgrey" stroke-width="2" opacity="0.7"></path><path aria-label="log(Computation time) (h): 0.13066175; log(# of sequences): 1104; dataset: hem_hemopi" role="graphics-symbol" aria-roledescription="point" transform="translate(93.01237254629726,119.62886582585253)" d="M3.873,0A3.873,3.873,0,1,1,-3.873,0A3.873,3.873,0,1,1,3.873,0" fill="lightgrey" stroke-width="2" opacity="0.7"></path></g><g class="mark-group role-title"><g transform="translate(125,-22)"><path class="background" aria-hidden="true" d="M0,0h0v0h0Z" pointer-events="none"></path><g><g class="mark-text role-title-text" role="graphics-symbol" aria-roledescription="title" aria-label="Title text 'Multiple datasets'" pointer-events="none"><text text-anchor="middle" transform="translate(0,10)" font-family="sans-serif" font-size="13px" font-weight="bold" fill="#000" opacity="1">Multiple datasets</text></g></g><path class="foreground" aria-hidden="true" d="" pointer-events="none" display="none"></path></g></g></g><path class="foreground" aria-hidden="true" d="" display="none"></path></g></g><g class="mark-group role-scope concat_0_concat_1_group" role="graphics-object" aria-roledescription="group mark container"><g transform="translate(321,0)"><path class="background" aria-hidden="true" d="M0.5,0.5h250v250h-250Z" fill="transparent" stroke="#ddd"></path><g><g class="mark-group role-axis" role="graphics-symbol" aria-roledescription="axis" aria-label="X-axis titled 'tSNE-1' for a linear scale with values from −100 to 100"><g transform="translate(0.5,250.5)"><path class="background" aria-hidden="true" d="M0,0h0v0h0Z" pointer-events="none"></path><g><g class="mark-rule role-axis-tick" pointer-events="none"><line transform="translate(0,0)" x2="0" y2="5" stroke="#888" stroke-width="1" opacity="1"></line><line transform="translate(25,0)" x2="0" y2="5" stroke="#888" stroke-width="1" opacity="1"></line><line transform="translate(50,0)" x2="0" y2="5" stroke="#888" stroke-width="1" opacity="1"></line><line transform="translate(75,0)" x2="0" y2="5" stroke="#888" stroke-width="1" opacity="1"></line><line transform="translate(100,0)" x2="0" y2="5" stroke="#888" stroke-width="1" opacity="1"></line><line transform="translate(125,0)" x2="0" y2="5" stroke="#888" stroke-width="1" opacity="1"></line><line transform="translate(150,0)" x2="0" y2="5" stroke="#888" stroke-width="1" opacity="1"></line><line transform="translate(175,0)" x2="0" y2="5" stroke="#888" stroke-width="1" opacity="1"></line><line transform="translate(200,0)" x2="0" y2="5" stroke="#888" stroke-width="1" opacity="1"></line><line transform="translate(225,0)" x2="0" y2="5" stroke="#888" stroke-width="1" opacity="1"></line><line transform="translate(250,0)" x2="0" y2="5" stroke="#888" stroke-width="1" opacity="1"></line></g><g class="mark-text role-axis-label" pointer-events="none"><text text-anchor="start" transform="translate(0,15)" font-family="sans-serif" font-size="10px" fill="#000" opacity="1">−100</text><text text-anchor="middle" transform="translate(25,15)" font-family="sans-serif" font-size="10px" fill="#000" opacity="0">−80</text><text text-anchor="middle" transform="translate(50,15)" font-family="sans-serif" font-size="10px" fill="#000" opacity="1">−60</text><text text-anchor="middle" transform="translate(75,15)" font-family="sans-serif" font-size="10px" fill="#000" opacity="0">−40</text><text text-anchor="middle" transform="translate(100,15)" font-family="sans-serif" font-size="10px" fill="#000" opacity="1">−20</text><text text-anchor="middle" transform="translate(125,15)" font-family="sans-serif" font-size="10px" fill="#000" opacity="0">0</text><text text-anchor="middle" transform="translate(150,15)" font-family="sans-serif" font-size="10px" fill="#000" opacity="1">20</text><text text-anchor="middle" transform="translate(175,15)" font-family="sans-serif" font-size="10px" fill="#000" opacity="0">40</text><text text-anchor="middle" transform="translate(200,15)" font-family="sans-serif" font-size="10px" fill="#000" opacity="1">60</text><text text-anchor="middle" transform="translate(225,15)" font-family="sans-serif" font-size="10px" fill="#000" opacity="0">80</text><text text-anchor="end" transform="translate(250,15)" font-family="sans-serif" font-size="10px" fill="#000" opacity="1">100</text></g><g class="mark-rule role-axis-domain" pointer-events="none"><line transform="translate(0,0)" x2="250" y2="0" stroke="#888" stroke-width="1" opacity="1"></line></g><g class="mark-text role-axis-title" pointer-events="none"><text text-anchor="middle" transform="translate(125,30)" font-family="sans-serif" font-size="11px" font-weight="normal" fill="#000" opacity="1">tSNE-1</text></g></g><path class="foreground" aria-hidden="true" d="" pointer-events="none" display="none"></path></g></g><g class="mark-group role-axis" role="graphics-symbol" aria-roledescription="axis" aria-label="Y-axis titled 'tSNE-2' for a linear scale with values from −100 to 100"><g transform="translate(0.5,0.5)"><path class="background" aria-hidden="true" d="M0,0h0v0h0Z" pointer-events="none"></path><g><g class="mark-rule role-axis-tick" pointer-events="none"><line transform="translate(0,250)" x2="-5" y2="0" stroke="#888" stroke-width="1" opacity="1"></line><line transform="translate(0,225)" x2="-5" y2="0" stroke="#888" stroke-width="1" opacity="1"></line><line transform="translate(0,200)" x2="-5" y2="0" stroke="#888" stroke-width="1" opacity="1"></line><line transform="translate(0,175)" x2="-5" y2="0" stroke="#888" stroke-width="1" opacity="1"></line><line transform="translate(0,150)" x2="-5" y2="0" stroke="#888" stroke-width="1" opacity="1"></line><line transform="translate(0,125)" x2="-5" y2="0" stroke="#888" stroke-width="1" opacity="1"></line><line transform="translate(0,100)" x2="-5" y2="0" stroke="#888" stroke-width="1" opacity="1"></line><line transform="translate(0,75)" x2="-5" y2="0" stroke="#888" stroke-width="1" opacity="1"></line><line transform="translate(0,50)" x2="-5" y2="0" stroke="#888" stroke-width="1" opacity="1"></line><line transform="translate(0,25)" x2="-5" y2="0" stroke="#888" stroke-width="1" opacity="1"></line><line transform="translate(0,0)" x2="-5" y2="0" stroke="#888" stroke-width="1" opacity="1"></line></g><g class="mark-text role-axis-label" pointer-events="none"><text text-anchor="end" transform="translate(-7,253)" font-family="sans-serif" font-size="10px" fill="#000" opacity="1">−100</text><text text-anchor="end" transform="translate(-7,228)" font-family="sans-serif" font-size="10px" fill="#000" opacity="1">−80</text><text text-anchor="end" transform="translate(-7,203)" font-family="sans-serif" font-size="10px" fill="#000" opacity="1">−60</text><text text-anchor="end" transform="translate(-7,178)" font-family="sans-serif" font-size="10px" fill="#000" opacity="1">−40</text><text text-anchor="end" transform="translate(-7,153)" font-family="sans-serif" font-size="10px" fill="#000" opacity="1">−20</text><text text-anchor="end" transform="translate(-7,128)" font-family="sans-serif" font-size="10px" fill="#000" opacity="1">0</text><text text-anchor="end" transform="translate(-7,103)" font-family="sans-serif" font-size="10px" fill="#000" opacity="1">20</text><text text-anchor="end" transform="translate(-7,78.00000000000001)" font-family="sans-serif" font-size="10px" fill="#000" opacity="1">40</text><text text-anchor="end" transform="translate(-7,52.999999999999986)" font-family="sans-serif" font-size="10px" fill="#000" opacity="1">60</text><text text-anchor="end" transform="translate(-7,27.999999999999993)" font-family="sans-serif" font-size="10px" fill="#000" opacity="1">80</text><text text-anchor="end" transform="translate(-7,3)" font-family="sans-serif" font-size="10px" fill="#000" opacity="1">100</text></g><g class="mark-rule role-axis-domain" pointer-events="none"><line transform="translate(0,250)" x2="0" y2="-250" stroke="#888" stroke-width="1" opacity="1"></line></g><g class="mark-text role-axis-title" pointer-events="none"><text text-anchor="middle" transform="translate(-36.009765625,125) rotate(-90) translate(0,-2)" font-family="sans-serif" font-size="11px" font-weight="normal" fill="#000" opacity="1">tSNE-2</text></g></g><path class="foreground" aria-hidden="true" d="" pointer-events="none" display="none"></path></g></g><g class="mark-symbol role-mark concat_0_concat_1_layer_0_marks" role="graphics-symbol" aria-roledescription="symbol mark container" pointer-events="none"></g><g class="mark-line role-mark concat_0_concat_1_layer_1_marks" role="graphics-symbol" aria-roledescription="line mark container" pointer-events="none"></g><g class="mark-text role-mark concat_0_concat_1_layer_2_marks" role="graphics-object" aria-roledescription="text mark container" pointer-events="none"></g><g class="mark-group role-title"><g transform="translate(125,-22)"><path class="background" aria-hidden="true" d="M0,0h0v0h0Z" pointer-events="none"></path><g><g class="mark-text role-title-text" role="graphics-symbol" aria-roledescription="title" aria-label="Title text 'Single dataset'" pointer-events="none"><text text-anchor="middle" transform="translate(0,10)" font-family="sans-serif" font-size="13px" font-weight="bold" fill="#000" opacity="1">Single dataset</text></g></g><path class="foreground" aria-hidden="true" d="" pointer-events="none" display="none"></path></g></g></g><path class="foreground" aria-hidden="true" d="" display="none"></path></g></g></g><path class="foreground" aria-hidden="true" d="" display="none"></path></g></g><g class="mark-group role-scope concat_1_group" role="graphics-object" aria-roledescription="group mark container"><g transform="translate(0,303)"><path class="background" aria-hidden="true" d="M0,0h0v0h0Z"></path><g><g class="mark-group role-scope concat_1_concat_0_group" role="graphics-object" aria-roledescription="group mark container"><g transform="translate(0,0)"><path class="background" aria-hidden="true" d="M0,0h0v0h0Z"></path><g><g class="mark-group role-scope concat_1_concat_0_concat_0_group" role="graphics-object" aria-roledescription="group mark container"><g transform="translate(0,0)"><path class="background" aria-hidden="true" d="M0,0h20v20h-20Z" fill="transparent"></path><g><g class="mark-text role-mark concat_1_concat_0_concat_0_marks" role="graphics-object" aria-roledescription="text mark container" pointer-events="none"></g></g><path class="foreground" aria-hidden="true" d="" display="none"></path></g></g><g class="mark-group role-scope concat_1_concat_0_concat_1_group" role="graphics-object" aria-roledescription="group mark container"><g transform="translate(40,0)"><path class="background" aria-hidden="true" d="M0,0h20v20h-20Z" fill="transparent"></path><g><g class="mark-text role-mark concat_1_concat_0_concat_1_marks" role="graphics-object" aria-roledescription="text mark container" pointer-events="none"></g></g><path class="foreground" aria-hidden="true" d="" display="none"></path></g></g><g class="mark-group role-scope concat_1_concat_0_concat_2_group" role="graphics-object" aria-roledescription="group mark container"><g transform="translate(80,0)"><path class="background" aria-hidden="true" d="M0,0h20v20h-20Z" fill="transparent"></path><g><g class="mark-text role-mark concat_1_concat_0_concat_2_marks" role="graphics-object" aria-roledescription="text mark container" pointer-events="none"></g></g><path class="foreground" aria-hidden="true" d="" display="none"></path></g></g><g class="mark-group role-scope concat_1_concat_0_concat_3_group" role="graphics-object" aria-roledescription="group mark container"><g transform="translate(120,0)"><path class="background" aria-hidden="true" d="M0,0h125v120h-125Z" fill="transparent"></path><g><g class="mark-text role-mark concat_1_concat_0_concat_3_marks" role="graphics-object" aria-roledescription="text mark container"></g></g><path class="foreground" aria-hidden="true" d="" display="none"></path></g></g></g><path class="foreground" aria-hidden="true" d="" display="none"></path></g></g><g class="mark-group role-scope concat_1_concat_1_group" role="graphics-object" aria-roledescription="group mark container"><g transform="translate(0,125)"><path class="background" aria-hidden="true" d="M0,0h567v30h-567Z" fill="transparent"></path><g><g class="mark-symbol role-mark concat_1_concat_1_marks" role="graphics-symbol" aria-roledescription="symbol mark container"></g></g><path class="foreground" aria-hidden="true" d="" display="none"></path></g></g></g><path class="foreground" aria-hidden="true" d="" display="none"></path></g></g></g><path class="foreground" aria-hidden="true" d="" display="none"></path></g></g></g><defs><clipPath id="clip1"><rect x="0" y="0" width="250" height="250"></rect></clipPath></defs></svg>