<svg xmlns="http://www.w3.org/2000/svg" xmlns:xlink="http://www.w3.org/1999/xlink" version="1.1" class="marks" width="823" height="347" viewBox="0 0 823 347" style="background-color: white;"><g fill="none" stroke-miterlimit="10" transform="translate(53,10)"><g class="mark-group role-frame root" role="graphics-object" aria-roledescription="group mark container"><g transform="translate(0,0)"><path class="background" aria-hidden="true" d="M0.5,0.5h762v300h-762Z" fill="transparent" stroke="#ddd"></path><g><g class="mark-group role-axis" aria-hidden="true"><g transform="translate(0.5,300.5)"><path class="background" aria-hidden="true" d="M0,0h0v0h0Z" pointer-events="none"></path><g><g class="mark-rule role-axis-grid" pointer-events="none"><line transform="translate(0,-300)" x2="0" y2="300" stroke="#ddd" stroke-width="1" opacity="1"></line><line transform="translate(39,-300)" x2="0" y2="300" stroke="#ddd" stroke-width="1" opacity="1"></line><line transform="translate(78,-300)" x2="0" y2="300" stroke="#ddd" stroke-width="1" opacity="1"></line><line transform="translate(117,-300)" x2="0" y2="300" stroke="#ddd" stroke-width="1" opacity="1"></line><line transform="translate(156,-300)" x2="0" y2="300" stroke="#ddd" stroke-width="1" opacity="1"></line><line transform="translate(195,-300)" x2="0" y2="300" stroke="#ddd" stroke-width="1" opacity="1"></line><line transform="translate(234,-300)" x2="0" y2="300" stroke="#ddd" stroke-width="1" opacity="1"></line><line transform="translate(274,-300)" x2="0" y2="300" stroke="#ddd" stroke-width="1" opacity="1"></line><line transform="translate(313,-300)" x2="0" y2="300" stroke="#ddd" stroke-width="1" opacity="1"></line><line transform="translate(352,-300)" x2="0" y2="300" stroke="#ddd" stroke-width="1" opacity="1"></line><line transform="translate(391,-300)" x2="0" y2="300" stroke="#ddd" stroke-width="1" opacity="1"></line><line transform="translate(430,-300)" x2="0" y2="300" stroke="#ddd" stroke-width="1" opacity="1"></line><line transform="translate(469,-300)" x2="0" y2="300" stroke="#ddd" stroke-width="1" opacity="1"></line><line transform="translate(508,-300)" x2="0" y2="300" stroke="#ddd" stroke-width="1" opacity="1"></line><line transform="translate(547,-300)" x2="0" y2="300" stroke="#ddd" stroke-width="1" opacity="1"></line><line transform="translate(586,-300)" x2="0" y2="300" stroke="#ddd" stroke-width="1" opacity="1"></line><line transform="translate(625,-300)" x2="0" y2="300" stroke="#ddd" stroke-width="1" opacity="1"></line><line transform="translate(664,-300)" x2="0" y2="300" stroke="#ddd" stroke-width="1" opacity="1"></line><line transform="translate(703,-300)" x2="0" y2="300" stroke="#ddd" stroke-width="1" opacity="1"></line><line transform="translate(742,-300)" x2="0" y2="300" stroke="#ddd" stroke-width="1" opacity="1"></line></g></g><path class="foreground" aria-hidden="true" d="" pointer-events="none" display="none"></path></g></g><g class="mark-group role-axis" aria-hidden="true"><g transform="translate(0.5,0.5)"><path class="background" aria-hidden="true" d="M0,0h0v0h0Z" pointer-events="none"></path><g><g class="mark-rule role-axis-grid" pointer-events="none"><line transform="translate(0,300)" x2="762" y2="0" stroke="#ddd" stroke-width="1" opacity="1"></line><line transform="translate(0,267)" x2="762" y2="0" stroke="#ddd" stroke-width="1" opacity="1"></line><line transform="translate(0,233)" x2="762" y2="0" stroke="#ddd" stroke-width="1" opacity="1"></line><line transform="translate(0,200)" x2="762" y2="0" stroke="#ddd" stroke-width="1" opacity="1"></line><line transform="translate(0,167)" x2="762" y2="0" stroke="#ddd" stroke-width="1" opacity="1"></line><line transform="translate(0,133)" x2="762" y2="0" stroke="#ddd" stroke-width="1" opacity="1"></line><line transform="translate(0,100)" x2="762" y2="0" stroke="#ddd" stroke-width="1" opacity="1"></line><line transform="translate(0,67)" x2="762" y2="0" stroke="#ddd" stroke-width="1" opacity="1"></line><line transform="translate(0,33)" x2="762" y2="0" stroke="#ddd" stroke-width="1" opacity="1"></line><line transform="translate(0,0)" x2="762" y2="0" stroke="#ddd" stroke-width="1" opacity="1"></line></g></g><path class="foreground" aria-hidden="true" d="" pointer-events="none" display="none"></path></g></g><g class="mark-group role-axis" role="graphics-symbol" aria-roledescription="axis" aria-label="X-axis titled 'year' for a time scale with values from 1980 to 2019"><g transform="translate(0.5,300.5)"><path class="background" aria-hidden="true" d="M0,0h0v0h0Z" pointer-events="none"></path><g><g class="mark-rule role-axis-tick" pointer-events="none"><line transform="translate(0,0)" x2="0" y2="5" stroke="#888" stroke-width="1" opacity="1"></line><line transform="translate(39,0)" x2="0" y2="5" stroke="#888" stroke-width="1" opacity="1"></line><line transform="translate(78,0)" x2="0" y2="5" stroke="#888" stroke-width="1" opacity="1"></line><line transform="translate(117,0)" x2="0" y2="5" stroke="#888" stroke-width="1" opacity="1"></line><line transform="translate(156,0)" x2="0" y2="5" stroke="#888" stroke-width="1" opacity="1"></line><line transform="translate(195,0)" x2="0" y2="5" stroke="#888" stroke-width="1" opacity="1"></line><line transform="translate(234,0)" x2="0" y2="5" stroke="#888" stroke-width="1" opacity="1"></line><line transform="translate(274,0)" x2="0" y2="5" stroke="#888" stroke-width="1" opacity="1"></line><line transform="translate(313,0)" x2="0" y2="5" stroke="#888" stroke-width="1" opacity="1"></line><line transform="translate(352,0)" x2="0" y2="5" stroke="#888" stroke-width="1" opacity="1"></line><line transform="translate(391,0)" x2="0" y2="5" stroke="#888" stroke-width="1" opacity="1"></line><line transform="translate(430,0)" x2="0" y2="5" stroke="#888" stroke-width="1" opacity="1"></line><line transform="translate(469,0)" x2="0" y2="5" stroke="#888" stroke-width="1" opacity="1"></line><line transform="translate(508,0)" x2="0" y2="5" stroke="#888" stroke-width="1" opacity="1"></line><line transform="translate(547,0)" x2="0" y2="5" stroke="#888" stroke-width="1" opacity="1"></line><line transform="translate(586,0)" x2="0" y2="5" stroke="#888" stroke-width="1" opacity="1"></line><line transform="translate(625,0)" x2="0" y2="5" stroke="#888" stroke-width="1" opacity="1"></line><line transform="translate(664,0)" x2="0" y2="5" stroke="#888" stroke-width="1" opacity="1"></line><line transform="translate(703,0)" x2="0" y2="5" stroke="#888" stroke-width="1" opacity="1"></line><line transform="translate(742,0)" x2="0" y2="5" stroke="#888" stroke-width="1" opacity="1"></line></g><g class="mark-text role-axis-label" pointer-events="none"><text text-anchor="start" transform="translate(0,15)" font-family="sans-serif" font-size="10px" fill="#000" opacity="1">1980</text><text text-anchor="middle" transform="translate(39.102983502983506,15)" font-family="sans-serif" font-size="10px" fill="#000" opacity="1">1982</text><text text-anchor="middle" transform="translate(78.15247455247454,15)" font-family="sans-serif" font-size="10px" fill="#000" opacity="1">1984</text><text text-anchor="middle" transform="translate(117.25545805545805,15)" font-family="sans-serif" font-size="10px" fill="#000" opacity="1">1986</text><text text-anchor="middle" transform="translate(156.3049491049491,15)" font-family="sans-serif" font-size="10px" fill="#000" opacity="1">1988</text><text text-anchor="middle" transform="translate(195.40793260793262,15)" font-family="sans-serif" font-size="10px" fill="#000" opacity="1">1990</text><text text-anchor="middle" transform="translate(234.45742365742367,15)" font-family="sans-serif" font-size="10px" fill="#000" opacity="1">1992</text><text text-anchor="middle" transform="translate(273.5604071604071,15)" font-family="sans-serif" font-size="10px" fill="#000" opacity="1">1994</text><text text-anchor="middle" transform="translate(312.6098982098982,15)" font-family="sans-serif" font-size="10px" fill="#000" opacity="1">1996</text><text text-anchor="middle" transform="translate(351.7128817128817,15)" font-family="sans-serif" font-size="10px" fill="#000" opacity="1">1998</text><text text-anchor="middle" transform="translate(390.76237276237276,15)" font-family="sans-serif" font-size="10px" fill="#000" opacity="1">2000</text><text text-anchor="middle" transform="translate(429.86535626535624,15)" font-family="sans-serif" font-size="10px" fill="#000" opacity="1">2002</text><text text-anchor="middle" transform="translate(468.91484731484735,15)" font-family="sans-serif" font-size="10px" fill="#000" opacity="1">2004</text><text text-anchor="middle" transform="translate(508.0178308178308,15)" font-family="sans-serif" font-size="10px" fill="#000" opacity="1">2006</text><text text-anchor="middle" transform="translate(547.0673218673219,15)" font-family="sans-serif" font-size="10px" fill="#000" opacity="1">2008</text><text text-anchor="middle" transform="translate(586.1703053703054,15)" font-family="sans-serif" font-size="10px" fill="#000" opacity="1">2010</text><text text-anchor="middle" transform="translate(625.2197964197964,15)" font-family="sans-serif" font-size="10px" fill="#000" opacity="1">2012</text><text text-anchor="middle" transform="translate(664.3227799227799,15)" font-family="sans-serif" font-size="10px" fill="#000" opacity="1">2014</text><text text-anchor="middle" transform="translate(703.3722709722709,15)" font-family="sans-serif" font-size="10px" fill="#000" opacity="1">2016</text><text text-anchor="middle" transform="translate(742.4752544752545,15)" font-family="sans-serif" font-size="10px" fill="#000" opacity="1">2018</text></g><g class="mark-rule role-axis-domain" pointer-events="none"><line transform="translate(0,0)" x2="762" y2="0" stroke="#888" stroke-width="1" opacity="1"></line></g><g class="mark-text role-axis-title" pointer-events="none"><text text-anchor="middle" transform="translate(381,30)" font-family="sans-serif" font-size="11px" font-weight="bold" fill="#000" opacity="1">year</text></g></g><path class="foreground" aria-hidden="true" d="" pointer-events="none" display="none"></path></g></g><g class="mark-group role-axis" role="graphics-symbol" aria-roledescription="axis" aria-label="Y-axis titled 'Coal Production [MT]' for a linear scale with values from 0 to 9,000"><g transform="translate(0.5,0.5)"><path class="background" aria-hidden="true" d="M0,0h0v0h0Z" pointer-events="none"></path><g><g class="mark-rule role-axis-tick" pointer-events="none"><line transform="translate(0,300)" x2="-5" y2="0" stroke="#888" stroke-width="1" opacity="1"></line><line transform="translate(0,267)" x2="-5" y2="0" stroke="#888" stroke-width="1" opacity="1"></line><line transform="translate(0,233)" x2="-5" y2="0" stroke="#888" stroke-width="1" opacity="1"></line><line transform="translate(0,200)" x2="-5" y2="0" stroke="#888" stroke-width="1" opacity="1"></line><line transform="translate(0,167)" x2="-5" y2="0" stroke="#888" stroke-width="1" opacity="1"></line><line transform="translate(0,133)" x2="-5" y2="0" stroke="#888" stroke-width="1" opacity="1"></line><line transform="translate(0,100)" x2="-5" y2="0" stroke="#888" stroke-width="1" opacity="1"></line><line transform="translate(0,67)" x2="-5" y2="0" stroke="#888" stroke-width="1" opacity="1"></line><line transform="translate(0,33)" x2="-5" y2="0" stroke="#888" stroke-width="1" opacity="1"></line><line transform="translate(0,0)" x2="-5" y2="0" stroke="#888" stroke-width="1" opacity="1"></line></g><g class="mark-text role-axis-label" pointer-events="none"><text text-anchor="end" transform="translate(-7,303)" font-family="sans-serif" font-size="10px" fill="#000" opacity="1">0</text><text text-anchor="end" transform="translate(-7,269.66666666666663)" font-family="sans-serif" font-size="10px" fill="#000" opacity="1">1,000</text><text text-anchor="end" transform="translate(-7,236.33333333333334)" font-family="sans-serif" font-size="10px" fill="#000" opacity="1">2,000</text><text text-anchor="end" transform="translate(-7,203.00000000000003)" font-family="sans-serif" font-size="10px" fill="#000" opacity="1">3,000</text><text text-anchor="end" transform="translate(-7,169.66666666666669)" font-family="sans-serif" font-size="10px" fill="#000" opacity="1">4,000</text><text text-anchor="end" transform="translate(-7,136.33333333333331)" font-family="sans-serif" font-size="10px" fill="#000" opacity="1">5,000</text><text text-anchor="end" transform="translate(-7,103.00000000000001)" font-family="sans-serif" font-size="10px" fill="#000" opacity="1">6,000</text><text text-anchor="end" transform="translate(-7,69.66666666666666)" font-family="sans-serif" font-size="10px" fill="#000" opacity="1">7,000</text><text text-anchor="end" transform="translate(-7,36.33333333333335)" font-family="sans-serif" font-size="10px" fill="#000" opacity="1">8,000</text><text text-anchor="end" transform="translate(-7,3)" font-family="sans-serif" font-size="10px" fill="#000" opacity="1">9,000</text></g><g class="mark-rule role-axis-domain" pointer-events="none"><line transform="translate(0,300)" x2="0" y2="-300" stroke="#888" stroke-width="1" opacity="1"></line></g><g class="mark-text role-axis-title" pointer-events="none"><text text-anchor="middle" transform="translate(-36.8642578125,150) rotate(-90) translate(0,-2)" font-family="sans-serif" font-size="11px" font-weight="bold" fill="#000" opacity="1">Coal Production [MT]</text></g></g><path class="foreground" aria-hidden="true" d="" pointer-events="none" display="none"></path></g></g><g class="mark-line role-mark layer_0_marks" role="graphics-object" aria-roledescription="line mark container"><path aria-label="year: 1980; Coal Production [MT]: 3766.49; MT: 3766.49" role="graphics-symbol" aria-roledescription="line mark" d="M0,174.45L19.578,173.504L39.103,168.419L58.628,167.125L78.152,160.44L97.731,153.861L117.255,150.204L136.78,146.48L156.305,143.136L175.883,140.661L195.408,143.254L214.933,148.765L234.457,152.015L254.036,155.875L273.56,153.117L293.085,150.475L312.61,147.128L332.188,147.01L351.713,147.751L371.238,149.762L390.762,145.042L410.341,137.81L429.865,136.107L449.39,124.267L468.915,110.957L488.493,98.928L508.018,88.546L527.543,79.486L547.067,72.099L566.646,69.541L586.17,55.136L605.695,38.811L625.22,32.007L644.798,28.703L664.323,31.895L683.848,38.96L703.372,56.539L722.951,47.985L742.475,38.035L762,33.075" stroke="dodgerblue" stroke-width="2"></path></g><g class="mark-symbol role-mark layer_1_marks" role="graphics-object" aria-roledescription="symbol mark container"><path aria-label="year: 1980; Coal Production [MT]: 3766.49; MT: 3766.49" role="graphics-symbol" aria-roledescription="point" transform="translate(0,174.4503333333333)" d="M2.739,0A2.739,2.739,0,1,1,-2.739,0A2.739,2.739,0,1,1,2.739,0" fill="dodgerblue" stroke-width="2" opacity="0.7"></path><path aria-label="year: 1981; Coal Production [MT]: 3794.886; MT: 3794.89" role="graphics-symbol" aria-roledescription="point" transform="translate(19.57823797823798,173.5038)" d="M2.739,0A2.739,2.739,0,1,1,-2.739,0A2.739,2.739,0,1,1,2.739,0" fill="dodgerblue" stroke-width="2" opacity="0.7"></path><path aria-label="year: 1982; Coal Production [MT]: 3947.439; MT: 3947.44" role="graphics-symbol" aria-roledescription="point" transform="translate(39.102983502983506,168.4187)" d="M2.739,0A2.739,2.739,0,1,1,-2.739,0A2.739,2.739,0,1,1,2.739,0" fill="dodgerblue" stroke-width="2" opacity="0.7"></path><path aria-label="year: 1983; Coal Production [MT]: 3986.255; MT: 3986.26" role="graphics-symbol" aria-roledescription="point" transform="translate(58.627729027729025,167.12483333333336)" d="M2.739,0A2.739,2.739,0,1,1,-2.739,0A2.739,2.739,0,1,1,2.739,0" fill="dodgerblue" stroke-width="2" opacity="0.7"></path><path aria-label="year: 1984; Coal Production [MT]: 4186.809; MT: 4186.81" role="graphics-symbol" aria-roledescription="point" transform="translate(78.15247455247454,160.43970000000002)" d="M2.739,0A2.739,2.739,0,1,1,-2.739,0A2.739,2.739,0,1,1,2.739,0" fill="dodgerblue" stroke-width="2" opacity="0.7"></path><path aria-label="year: 1985; Coal Production [MT]: 4384.168; MT: 4384.17" role="graphics-symbol" aria-roledescription="point" transform="translate(97.73071253071252,153.86106666666663)" d="M2.739,0A2.739,2.739,0,1,1,-2.739,0A2.739,2.739,0,1,1,2.739,0" fill="dodgerblue" stroke-width="2" opacity="0.7"></path><path aria-label="year: 1986; Coal Production [MT]: 4493.868; MT: 4493.87" role="graphics-symbol" aria-roledescription="point" transform="translate(117.25545805545805,150.2044)" d="M2.739,0A2.739,2.739,0,1,1,-2.739,0A2.739,2.739,0,1,1,2.739,0" fill="dodgerblue" stroke-width="2" opacity="0.7"></path><path aria-label="year: 1987; Coal Production [MT]: 4605.592; MT: 4605.59" role="graphics-symbol" aria-roledescription="point" transform="translate(136.78020358020356,146.48026666666664)" d="M2.739,0A2.739,2.739,0,1,1,-2.739,0A2.739,2.739,0,1,1,2.739,0" fill="dodgerblue" stroke-width="2" opacity="0.7"></path><path aria-label="year: 1988; Coal Production [MT]: 4705.923; MT: 4705.92" role="graphics-symbol" aria-roledescription="point" transform="translate(156.3049491049491,143.1359)" d="M2.739,0A2.739,2.739,0,1,1,-2.739,0A2.739,2.739,0,1,1,2.739,0" fill="dodgerblue" stroke-width="2" opacity="0.7"></path><path aria-label="year: 1989; Coal Production [MT]: 4780.166; MT: 4780.17" role="graphics-symbol" aria-roledescription="point" transform="translate(175.88318708318707,140.66113333333334)" d="M2.739,0A2.739,2.739,0,1,1,-2.739,0A2.739,2.739,0,1,1,2.739,0" fill="dodgerblue" stroke-width="2" opacity="0.7"></path><path aria-label="year: 1990; Coal Production [MT]: 4702.379; MT: 4702.38" role="graphics-symbol" aria-roledescription="point" transform="translate(195.40793260793262,143.25403333333333)" d="M2.739,0A2.739,2.739,0,1,1,-2.739,0A2.739,2.739,0,1,1,2.739,0" fill="dodgerblue" stroke-width="2" opacity="0.7"></path><path aria-label="year: 1991; Coal Production [MT]: 4537.049; MT: 4537.05" role="graphics-symbol" aria-roledescription="point" transform="translate(214.93267813267812,148.76503333333332)" d="M2.739,0A2.739,2.739,0,1,1,-2.739,0A2.739,2.739,0,1,1,2.739,0" fill="dodgerblue" stroke-width="2" opacity="0.7"></path><path aria-label="year: 1992; Coal Production [MT]: 4439.556; MT: 4439.56" role="graphics-symbol" aria-roledescription="point" transform="translate(234.45742365742367,152.01479999999998)" d="M2.739,0A2.739,2.739,0,1,1,-2.739,0A2.739,2.739,0,1,1,2.739,0" fill="dodgerblue" stroke-width="2" opacity="0.7"></path><path aria-label="year: 1993; Coal Production [MT]: 4323.764; MT: 4323.76" role="graphics-symbol" aria-roledescription="point" transform="translate(254.03566163566165,155.87453333333335)" d="M2.739,0A2.739,2.739,0,1,1,-2.739,0A2.739,2.739,0,1,1,2.739,0" fill="dodgerblue" stroke-width="2" opacity="0.7"></path><path aria-label="year: 1994; Coal Production [MT]: 4406.505; MT: 4406.51" role="graphics-symbol" aria-roledescription="point" transform="translate(273.5604071604071,153.1165)" d="M2.739,0A2.739,2.739,0,1,1,-2.739,0A2.739,2.739,0,1,1,2.739,0" fill="dodgerblue" stroke-width="2" opacity="0.7"></path><path aria-label="year: 1995; Coal Production [MT]: 4485.757; MT: 4485.76" role="graphics-symbol" aria-roledescription="point" transform="translate(293.0851526851527,150.47476666666665)" d="M2.739,0A2.739,2.739,0,1,1,-2.739,0A2.739,2.739,0,1,1,2.739,0" fill="dodgerblue" stroke-width="2" opacity="0.7"></path><path aria-label="year: 1996; Coal Production [MT]: 4586.158; MT: 4586.16" role="graphics-symbol" aria-roledescription="point" transform="translate(312.6098982098982,147.12806666666665)" d="M2.739,0A2.739,2.739,0,1,1,-2.739,0A2.739,2.739,0,1,1,2.739,0" fill="dodgerblue" stroke-width="2" opacity="0.7"></path><path aria-label="year: 1997; Coal Production [MT]: 4589.709; MT: 4589.71" role="graphics-symbol" aria-roledescription="point" transform="translate(332.1881361881362,147.0097)" d="M2.739,0A2.739,2.739,0,1,1,-2.739,0A2.739,2.739,0,1,1,2.739,0" fill="dodgerblue" stroke-width="2" opacity="0.7"></path><path aria-label="year: 1998; Coal Production [MT]: 4567.467; MT: 4567.47" role="graphics-symbol" aria-roledescription="point" transform="translate(351.7128817128817,147.75109999999998)" d="M2.739,0A2.739,2.739,0,1,1,-2.739,0A2.739,2.739,0,1,1,2.739,0" fill="dodgerblue" stroke-width="2" opacity="0.7"></path><path aria-label="year: 1999; Coal Production [MT]: 4507.147; MT: 4507.15" role="graphics-symbol" aria-roledescription="point" transform="translate(371.23762723762724,149.7617666666667)" d="M2.739,0A2.739,2.739,0,1,1,-2.739,0A2.739,2.739,0,1,1,2.739,0" fill="dodgerblue" stroke-width="2" opacity="0.7"></path><path aria-label="year: 2000; Coal Production [MT]: 4648.726; MT: 4648.73" role="graphics-symbol" aria-roledescription="point" transform="translate(390.76237276237276,145.04246666666663)" d="M2.739,0A2.739,2.739,0,1,1,-2.739,0A2.739,2.739,0,1,1,2.739,0" fill="dodgerblue" stroke-width="2" opacity="0.7"></path><path aria-label="year: 2001; Coal Production [MT]: 4865.715; MT: 4865.72" role="graphics-symbol" aria-roledescription="point" transform="translate(410.3406107406107,137.8095)" d="M2.739,0A2.739,2.739,0,1,1,-2.739,0A2.739,2.739,0,1,1,2.739,0" fill="dodgerblue" stroke-width="2" opacity="0.7"></path><path aria-label="year: 2002; Coal Production [MT]: 4916.793; MT: 4916.79" role="graphics-symbol" aria-roledescription="point" transform="translate(429.86535626535624,136.1069)" d="M2.739,0A2.739,2.739,0,1,1,-2.739,0A2.739,2.739,0,1,1,2.739,0" fill="dodgerblue" stroke-width="2" opacity="0.7"></path><path aria-label="year: 2003; Coal Production [MT]: 5271.999; MT: 5272.00" role="graphics-symbol" aria-roledescription="point" transform="translate(449.3901017901018,124.26669999999997)" d="M2.739,0A2.739,2.739,0,1,1,-2.739,0A2.739,2.739,0,1,1,2.739,0" fill="dodgerblue" stroke-width="2" opacity="0.7"></path><path aria-label="year: 2004; Coal Production [MT]: 5671.298; MT: 5671.30" role="graphics-symbol" aria-roledescription="point" transform="translate(468.91484731484735,110.9567333333333)" d="M2.739,0A2.739,2.739,0,1,1,-2.739,0A2.739,2.739,0,1,1,2.739,0" fill="dodgerblue" stroke-width="2" opacity="0.7"></path><path aria-label="year: 2005; Coal Production [MT]: 6032.159; MT: 6032.16" role="graphics-symbol" aria-roledescription="point" transform="translate(488.4930852930853,98.9280333333333)" d="M2.739,0A2.739,2.739,0,1,1,-2.739,0A2.739,2.739,0,1,1,2.739,0" fill="dodgerblue" stroke-width="2" opacity="0.7"></path><path aria-label="year: 2006; Coal Production [MT]: 6343.612; MT: 6343.61" role="graphics-symbol" aria-roledescription="point" transform="translate(508.0178308178308,88.54626666666667)" d="M2.739,0A2.739,2.739,0,1,1,-2.739,0A2.739,2.739,0,1,1,2.739,0" fill="dodgerblue" stroke-width="2" opacity="0.7"></path><path aria-label="year: 2007; Coal Production [MT]: 6615.427; MT: 6615.43" role="graphics-symbol" aria-roledescription="point" transform="translate(527.5425763425764,79.48576666666666)" d="M2.739,0A2.739,2.739,0,1,1,-2.739,0A2.739,2.739,0,1,1,2.739,0" fill="dodgerblue" stroke-width="2" opacity="0.7"></path><path aria-label="year: 2008; Coal Production [MT]: 6837.017; MT: 6837.02" role="graphics-symbol" aria-roledescription="point" transform="translate(547.0673218673219,72.0994333333333)" d="M2.739,0A2.739,2.739,0,1,1,-2.739,0A2.739,2.739,0,1,1,2.739,0" fill="dodgerblue" stroke-width="2" opacity="0.7"></path><path aria-label="year: 2009; Coal Production [MT]: 6913.764; MT: 6913.76" role="graphics-symbol" aria-roledescription="point" transform="translate(566.6455598455599,69.5412)" d="M2.739,0A2.739,2.739,0,1,1,-2.739,0A2.739,2.739,0,1,1,2.739,0" fill="dodgerblue" stroke-width="2" opacity="0.7"></path><path aria-label="year: 2010; Coal Production [MT]: 7345.909; MT: 7345.91" role="graphics-symbol" aria-roledescription="point" transform="translate(586.1703053703054,55.13636666666666)" d="M2.739,0A2.739,2.739,0,1,1,-2.739,0A2.739,2.739,0,1,1,2.739,0" fill="dodgerblue" stroke-width="2" opacity="0.7"></path><path aria-label="year: 2011; Coal Production [MT]: 7835.663; MT: 7835.66" role="graphics-symbol" aria-roledescription="point" transform="translate(605.6950508950508,38.81123333333332)" d="M2.739,0A2.739,2.739,0,1,1,-2.739,0A2.739,2.739,0,1,1,2.739,0" fill="dodgerblue" stroke-width="2" opacity="0.7"></path><path aria-label="year: 2012; Coal Production [MT]: 8039.782; MT: 8039.78" role="graphics-symbol" aria-roledescription="point" transform="translate(625.2197964197964,32.007266666666666)" d="M2.739,0A2.739,2.739,0,1,1,-2.739,0A2.739,2.739,0,1,1,2.739,0" fill="dodgerblue" stroke-width="2" opacity="0.7"></path><path aria-label="year: 2013; Coal Production [MT]: 8138.898; MT: 8138.90" role="graphics-symbol" aria-roledescription="point" transform="translate(644.7980343980345,28.70339999999998)" d="M2.739,0A2.739,2.739,0,1,1,-2.739,0A2.739,2.739,0,1,1,2.739,0" fill="dodgerblue" stroke-width="2" opacity="0.7"></path><path aria-label="year: 2014; Coal Production [MT]: 8043.147; MT: 8043.15" role="graphics-symbol" aria-roledescription="point" transform="translate(664.3227799227799,31.895099999999964)" d="M2.739,0A2.739,2.739,0,1,1,-2.739,0A2.739,2.739,0,1,1,2.739,0" fill="dodgerblue" stroke-width="2" opacity="0.7"></path><path aria-label="year: 2015; Coal Production [MT]: 7831.214; MT: 7831.21" role="graphics-symbol" aria-roledescription="point" transform="translate(683.8475254475254,38.9595333333333)" d="M2.739,0A2.739,2.739,0,1,1,-2.739,0A2.739,2.739,0,1,1,2.739,0" fill="dodgerblue" stroke-width="2" opacity="0.7"></path><path aria-label="year: 2016; Coal Production [MT]: 7303.822; MT: 7303.82" role="graphics-symbol" aria-roledescription="point" transform="translate(703.3722709722709,56.53926666666668)" d="M2.739,0A2.739,2.739,0,1,1,-2.739,0A2.739,2.739,0,1,1,2.739,0" fill="dodgerblue" stroke-width="2" opacity="0.7"></path><path aria-label="year: 2017; Coal Production [MT]: 7560.447; MT: 7560.45" role="graphics-symbol" aria-roledescription="point" transform="translate(722.950508950509,47.98509999999999)" d="M2.739,0A2.739,2.739,0,1,1,-2.739,0A2.739,2.739,0,1,1,2.739,0" fill="dodgerblue" stroke-width="2" opacity="0.7"></path><path aria-label="year: 2018; Coal Production [MT]: 7858.962; MT: 7858.96" role="graphics-symbol" aria-roledescription="point" transform="translate(742.4752544752545,38.03459999999998)" d="M2.739,0A2.739,2.739,0,1,1,-2.739,0A2.739,2.739,0,1,1,2.739,0" fill="dodgerblue" stroke-width="2" opacity="0.7"></path><path aria-label="year: 2019; Coal Production [MT]: 8007.745; MT: 8007.75" role="graphics-symbol" aria-roledescription="point" transform="translate(762,33.075166666666654)" d="M2.739,0A2.739,2.739,0,1,1,-2.739,0A2.739,2.739,0,1,1,2.739,0" fill="dodgerblue" stroke-width="2" opacity="0.7"></path></g></g><path class="foreground" aria-hidden="true" d="" display="none"></path></g></g></g></svg>