<svg xmlns="http://www.w3.org/2000/svg" xmlns:xlink="http://www.w3.org/1999/xlink" version="1.1" class="marks" width="338" height="391" viewBox="0 0 338 391" style="background-color: white;"><g fill="none" stroke-miterlimit="10" transform="translate(32,40)"><g class="mark-group role-frame root" role="graphics-object" aria-roledescription="group mark container"><g transform="translate(0,0)"><path class="background" aria-hidden="true" d="M0.5,0.5h300v300h-300Z" fill="transparent" stroke="#ddd"></path><g><g class="mark-group role-axis" aria-hidden="true"><g transform="translate(0.5,300.5)"><path class="background" aria-hidden="true" d="M0,0h0v0h0Z" pointer-events="none"></path><g><g class="mark-rule role-axis-grid" pointer-events="none"><line transform="translate(0,-300)" x2="0" y2="300" stroke="#ddd" stroke-width="1" opacity="1"></line><line transform="translate(38,-300)" x2="0" y2="300" stroke="#ddd" stroke-width="1" opacity="1"></line><line transform="translate(75,-300)" x2="0" y2="300" stroke="#ddd" stroke-width="1" opacity="1"></line><line transform="translate(113,-300)" x2="0" y2="300" stroke="#ddd" stroke-width="1" opacity="1"></line><line transform="translate(150,-300)" x2="0" y2="300" stroke="#ddd" stroke-width="1" opacity="1"></line><line transform="translate(188,-300)" x2="0" y2="300" stroke="#ddd" stroke-width="1" opacity="1"></line><line transform="translate(225,-300)" x2="0" y2="300" stroke="#ddd" stroke-width="1" opacity="1"></line><line transform="translate(263,-300)" x2="0" y2="300" stroke="#ddd" stroke-width="1" opacity="1"></line><line transform="translate(300,-300)" x2="0" y2="300" stroke="#ddd" stroke-width="1" opacity="1"></line></g></g><path class="foreground" aria-hidden="true" d="" pointer-events="none" display="none"></path></g></g><g class="mark-group role-axis" aria-hidden="true"><g transform="translate(0.5,0.5)"><path class="background" aria-hidden="true" d="M0,0h0v0h0Z" pointer-events="none"></path><g><g class="mark-rule role-axis-grid" pointer-events="none"><line transform="translate(0,300)" x2="300" y2="0" stroke="#ddd" stroke-width="1" opacity="1"></line><line transform="translate(0,275)" x2="300" y2="0" stroke="#ddd" stroke-width="1" opacity="1"></line><line transform="translate(0,250)" x2="300" y2="0" stroke="#ddd" stroke-width="1" opacity="1"></line><line transform="translate(0,225)" x2="300" y2="0" stroke="#ddd" stroke-width="1" opacity="1"></line><line transform="translate(0,200)" x2="300" y2="0" stroke="#ddd" stroke-width="1" opacity="1"></line><line transform="translate(0,175)" x2="300" y2="0" stroke="#ddd" stroke-width="1" opacity="1"></line><line transform="translate(0,150)" x2="300" y2="0" stroke="#ddd" stroke-width="1" opacity="1"></line><line transform="translate(0,125)" x2="300" y2="0" stroke="#ddd" stroke-width="1" opacity="1"></line><line transform="translate(0,100)" x2="300" y2="0" stroke="#ddd" stroke-width="1" opacity="1"></line><line transform="translate(0,75)" x2="300" y2="0" stroke="#ddd" stroke-width="1" opacity="1"></line><line transform="translate(0,50)" x2="300" y2="0" stroke="#ddd" stroke-width="1" opacity="1"></line><line transform="translate(0,25)" x2="300" y2="0" stroke="#ddd" stroke-width="1" opacity="1"></line><line transform="translate(0,0)" x2="300" y2="0" stroke="#ddd" stroke-width="1" opacity="1"></line></g></g><path class="foreground" aria-hidden="true" d="" pointer-events="none" display="none"></path></g></g><g class="mark-group role-axis" role="graphics-symbol" aria-roledescription="axis" aria-label="X-axis for a linear scale with values from 40,000 to 80,000"><g transform="translate(0.5,300.5)"><path class="background" aria-hidden="true" d="M0,0h0v0h0Z" pointer-events="none"></path><g><g class="mark-rule role-axis-tick" pointer-events="none"><line transform="translate(0,0)" x2="0" y2="5" stroke="#888" stroke-width="1" opacity="1"></line><line transform="translate(38,0)" x2="0" y2="5" stroke="#888" stroke-width="1" opacity="1"></line><line transform="translate(75,0)" x2="0" y2="5" stroke="#888" stroke-width="1" opacity="1"></line><line transform="translate(113,0)" x2="0" y2="5" stroke="#888" stroke-width="1" opacity="1"></line><line transform="translate(150,0)" x2="0" y2="5" stroke="#888" stroke-width="1" opacity="1"></line><line transform="translate(188,0)" x2="0" y2="5" stroke="#888" stroke-width="1" opacity="1"></line><line transform="translate(225,0)" x2="0" y2="5" stroke="#888" stroke-width="1" opacity="1"></line><line transform="translate(263,0)" x2="0" y2="5" stroke="#888" stroke-width="1" opacity="1"></line><line transform="translate(300,0)" x2="0" y2="5" stroke="#888" stroke-width="1" opacity="1"></line></g><g class="mark-text role-axis-label" pointer-events="none"><text text-anchor="start" transform="translate(0,15)" font-family="sans-serif" font-size="10px" fill="#000" opacity="1">40,000</text><text text-anchor="middle" transform="translate(37.5,15)" font-family="sans-serif" font-size="10px" fill="#000" opacity="0">45,000</text><text text-anchor="middle" transform="translate(75,15)" font-family="sans-serif" font-size="10px" fill="#000" opacity="1">50,000</text><text text-anchor="middle" transform="translate(112.5,15)" font-family="sans-serif" font-size="10px" fill="#000" opacity="0">55,000</text><text text-anchor="middle" transform="translate(150,15)" font-family="sans-serif" font-size="10px" fill="#000" opacity="1">60,000</text><text text-anchor="middle" transform="translate(187.5,15)" font-family="sans-serif" font-size="10px" fill="#000" opacity="0">65,000</text><text text-anchor="middle" transform="translate(225,15)" font-family="sans-serif" font-size="10px" fill="#000" opacity="1">70,000</text><text text-anchor="middle" transform="translate(262.5,15)" font-family="sans-serif" font-size="10px" fill="#000" opacity="0">75,000</text><text text-anchor="end" transform="translate(300,15)" font-family="sans-serif" font-size="10px" fill="#000" opacity="1">80,000</text></g><g class="mark-rule role-axis-domain" pointer-events="none"><line transform="translate(0,0)" x2="300" y2="0" stroke="#888" stroke-width="1" opacity="1"></line></g></g><path class="foreground" aria-hidden="true" d="" pointer-events="none" display="none"></path></g></g><g class="mark-group role-axis" role="graphics-symbol" aria-roledescription="axis" aria-label="Y-axis for a linear scale with values from 0.00 to 0.24"><g transform="translate(0.5,0.5)"><path class="background" aria-hidden="true" d="M0,0h0v0h0Z" pointer-events="none"></path><g><g class="mark-rule role-axis-tick" pointer-events="none"><line transform="translate(0,300)" x2="-5" y2="0" stroke="#888" stroke-width="1" opacity="1"></line><line transform="translate(0,275)" x2="-5" y2="0" stroke="#888" stroke-width="1" opacity="1"></line><line transform="translate(0,250)" x2="-5" y2="0" stroke="#888" stroke-width="1" opacity="1"></line><line transform="translate(0,225)" x2="-5" y2="0" stroke="#888" stroke-width="1" opacity="1"></line><line transform="translate(0,200)" x2="-5" y2="0" stroke="#888" stroke-width="1" opacity="1"></line><line transform="translate(0,175)" x2="-5" y2="0" stroke="#888" stroke-width="1" opacity="1"></line><line transform="translate(0,150)" x2="-5" y2="0" stroke="#888" stroke-width="1" opacity="1"></line><line transform="translate(0,125)" x2="-5" y2="0" stroke="#888" stroke-width="1" opacity="1"></line><line transform="translate(0,100)" x2="-5" y2="0" stroke="#888" stroke-width="1" opacity="1"></line><line transform="translate(0,75)" x2="-5" y2="0" stroke="#888" stroke-width="1" opacity="1"></line><line transform="translate(0,50)" x2="-5" y2="0" stroke="#888" stroke-width="1" opacity="1"></line><line transform="translate(0,25)" x2="-5" y2="0" stroke="#888" stroke-width="1" opacity="1"></line><line transform="translate(0,0)" x2="-5" y2="0" stroke="#888" stroke-width="1" opacity="1"></line></g><g class="mark-text role-axis-label" pointer-events="none"><text text-anchor="end" transform="translate(-7,303)" font-family="sans-serif" font-size="10px" fill="#000" opacity="1">0.00</text><text text-anchor="end" transform="translate(-7,278)" font-family="sans-serif" font-size="10px" fill="#000" opacity="1">0.02</text><text text-anchor="end" transform="translate(-7,252.99999999999997)" font-family="sans-serif" font-size="10px" fill="#000" opacity="1">0.04</text><text text-anchor="end" transform="translate(-7,228)" font-family="sans-serif" font-size="10px" fill="#000" opacity="1">0.06</text><text text-anchor="end" transform="translate(-7,203)" font-family="sans-serif" font-size="10px" fill="#000" opacity="1">0.08</text><text text-anchor="end" transform="translate(-7,177.99999999999997)" font-family="sans-serif" font-size="10px" fill="#000" opacity="1">0.10</text><text text-anchor="end" transform="translate(-7,153)" font-family="sans-serif" font-size="10px" fill="#000" opacity="1">0.12</text><text text-anchor="end" transform="translate(-7,127.99999999999999)" font-family="sans-serif" font-size="10px" fill="#000" opacity="1">0.14</text><text text-anchor="end" transform="translate(-7,102.99999999999997)" font-family="sans-serif" font-size="10px" fill="#000" opacity="1">0.16</text><text text-anchor="end" transform="translate(-7,78)" font-family="sans-serif" font-size="10px" fill="#000" opacity="1">0.18</text><text text-anchor="end" transform="translate(-7,52.999999999999986)" font-family="sans-serif" font-size="10px" fill="#000" opacity="1">0.20</text><text text-anchor="end" transform="translate(-7,27.99999999999998)" font-family="sans-serif" font-size="10px" fill="#000" opacity="1">0.22</text><text text-anchor="end" transform="translate(-7,3)" font-family="sans-serif" font-size="10px" fill="#000" opacity="1">0.24</text></g><g class="mark-rule role-axis-domain" pointer-events="none"><line transform="translate(0,300)" x2="0" y2="-300" stroke="#888" stroke-width="1" opacity="1"></line></g></g><path class="foreground" aria-hidden="true" d="" pointer-events="none" display="none"></path></g></g><g class="mark-symbol role-mark marks" role="graphics-object" aria-roledescription="symbol mark container"><path aria-label="Med income: 47221; Firearm deaths: 0.215; Division: South; State: Alabama" role="graphics-symbol" aria-roledescription="circle" transform="translate(54.1575,31.24999999999999)" d="M8.66,0A8.66,8.66,0,1,1,-8.66,0A8.66,8.66,0,1,1,8.66,0" fill="#4daf4a" stroke-width="2" opacity="0.7"></path><path aria-label="Med income: 75723; Firearm deaths: 0.233; Division: West; State: Alaska" role="graphics-symbol" aria-roledescription="circle" transform="translate(267.9225,8.749999999999968)" d="M8.66,0A8.66,8.66,0,1,1,-8.66,0A8.66,8.66,0,1,1,8.66,0" fill="#984ea3" stroke-width="2" opacity="0.7"></path><path aria-label="Med income: 57100; Firearm deaths: 0.152; Division: West; State: Arizona" role="graphics-symbol" aria-roledescription="circle" transform="translate(128.25,110.00000000000001)" d="M8.66,0A8.66,8.66,0,1,1,-8.66,0A8.66,8.66,0,1,1,8.66,0" fill="#984ea3" stroke-width="2" opacity="0.7"></path><path aria-label="Med income: 45907; Firearm deaths: 0.178; Division: South; State: Arkansas" role="graphics-symbol" aria-roledescription="circle" transform="translate(44.3025,77.49999999999999)" d="M8.66,0A8.66,8.66,0,1,1,-8.66,0A8.66,8.66,0,1,1,8.66,0" fill="#4daf4a" stroke-width="2" opacity="0.7"></path><path aria-label="Med income: 66637; Firearm deaths: 0.079; Division: West; State: California" role="graphics-symbol" aria-roledescription="circle" transform="translate(199.7775,201.25000000000003)" d="M8.66,0A8.66,8.66,0,1,1,-8.66,0A8.66,8.66,0,1,1,8.66,0" fill="#984ea3" stroke-width="2" opacity="0.7"></path><path aria-label="Med income: 70566; Firearm deaths: 0.143; Division: West; State: Colorado" role="graphics-symbol" aria-roledescription="circle" transform="translate(229.245,121.25)" d="M8.66,0A8.66,8.66,0,1,1,-8.66,0A8.66,8.66,0,1,1,8.66,0" fill="#984ea3" stroke-width="2" opacity="0.7"></path><path aria-label="Med income: 75923; Firearm deaths: 0.046; Division: Northeast; State: Connecticut" role="graphics-symbol" aria-roledescription="circle" transform="translate(269.4225,242.5)" d="M8.66,0A8.66,8.66,0,1,1,-8.66,0A8.66,8.66,0,1,1,8.66,0" fill="#377eb8" stroke-width="2" opacity="0.7"></path><path aria-label="Med income: 58046; Firearm deaths: 0.11; Division: South; State: Delaware" role="graphics-symbol" aria-roledescription="circle" transform="translate(135.345,162.5)" d="M8.66,0A8.66,8.66,0,1,1,-8.66,0A8.66,8.66,0,1,1,8.66,0" fill="#4daf4a" stroke-width="2" opacity="0.7"></path><path aria-label="Med income: 51176; Firearm deaths: 0.126; Division: South; State: Florida" role="graphics-symbol" aria-roledescription="circle" transform="translate(83.82,142.5)" d="M8.66,0A8.66,8.66,0,1,1,-8.66,0A8.66,8.66,0,1,1,8.66,0" fill="#4daf4a" stroke-width="2" opacity="0.7"></path><path aria-label="Med income: 53527; Firearm deaths: 0.15; Division: South; State: Georgia" role="graphics-symbol" aria-roledescription="circle" transform="translate(101.4525,112.5)" d="M8.66,0A8.66,8.66,0,1,1,-8.66,0A8.66,8.66,0,1,1,8.66,0" fill="#4daf4a" stroke-width="2" opacity="0.7"></path><path aria-label="Med income: 72133; Firearm deaths: 0.045; Division: West; State: Hawaii" role="graphics-symbol" aria-roledescription="circle" transform="translate(240.99749999999997,243.75)" d="M8.66,0A8.66,8.66,0,1,1,-8.66,0A8.66,8.66,0,1,1,8.66,0" fill="#984ea3" stroke-width="2" opacity="0.7"></path><path aria-label="Med income: 56564; Firearm deaths: 0.146; Division: West; State: Idaho" role="graphics-symbol" aria-roledescription="circle" transform="translate(124.23,117.50000000000001)" d="M8.66,0A8.66,8.66,0,1,1,-8.66,0A8.66,8.66,0,1,1,8.66,0" fill="#984ea3" stroke-width="2" opacity="0.7"></path><path aria-label="Med income: 61386; Firearm deaths: 0.117; Division: Midwest; State: Illinois" role="graphics-symbol" aria-roledescription="circle" transform="translate(160.39499999999998,153.75)" d="M8.66,0A8.66,8.66,0,1,1,-8.66,0A8.66,8.66,0,1,1,8.66,0" fill="#e41a1c" stroke-width="2" opacity="0.7"></path><path aria-label="Med income: 56094; Firearm deaths: 0.15; Division: Midwest; State: Indiana" role="graphics-symbol" aria-roledescription="circle" transform="translate(120.705,112.5)" d="M8.66,0A8.66,8.66,0,1,1,-8.66,0A8.66,8.66,0,1,1,8.66,0" fill="#e41a1c" stroke-width="2" opacity="0.7"></path><path aria-label="Med income: 59094; Firearm deaths: 0.092; Division: Midwest; State: Iowa" role="graphics-symbol" aria-roledescription="circle" transform="translate(143.205,185)" d="M8.66,0A8.66,8.66,0,1,1,-8.66,0A8.66,8.66,0,1,1,8.66,0" fill="#e41a1c" stroke-width="2" opacity="0.7"></path><path aria-label="Med income: 56810; Firearm deaths: 0.134; Division: Midwest; State: Kansas" role="graphics-symbol" aria-roledescription="circle" transform="translate(126.075,132.5)" d="M8.66,0A8.66,8.66,0,1,1,-8.66,0A8.66,8.66,0,1,1,8.66,0" fill="#e41a1c" stroke-width="2" opacity="0.7"></path><path aria-label="Med income: 45369; Firearm deaths: 0.175; Division: South; State: Kentucky" role="graphics-symbol" aria-roledescription="circle" transform="translate(40.267500000000005,81.25000000000001)" d="M8.66,0A8.66,8.66,0,1,1,-8.66,0A8.66,8.66,0,1,1,8.66,0" fill="#4daf4a" stroke-width="2" opacity="0.7"></path><path aria-label="Med income: 42196; Firearm deaths: 0.213; Division: South; State: Louisiana" role="graphics-symbol" aria-roledescription="circle" transform="translate(16.47,33.74999999999998)" d="M8.66,0A8.66,8.66,0,1,1,-8.66,0A8.66,8.66,0,1,1,8.66,0" fill="#4daf4a" stroke-width="2" opacity="0.7"></path><path aria-label="Med income: 50856; Firearm deaths: 0.083; Division: Northeast; State: Maine" role="graphics-symbol" aria-roledescription="circle" transform="translate(81.41999999999999,196.24999999999997)" d="M8.66,0A8.66,8.66,0,1,1,-8.66,0A8.66,8.66,0,1,1,8.66,0" fill="#377eb8" stroke-width="2" opacity="0.7"></path><path aria-label="Med income: 73760; Firearm deaths: 0.119; Division: South; State: Maryland" role="graphics-symbol" aria-roledescription="circle" transform="translate(253.2,151.25)" d="M8.66,0A8.66,8.66,0,1,1,-8.66,0A8.66,8.66,0,1,1,8.66,0" fill="#4daf4a" stroke-width="2" opacity="0.7"></path><path aria-label="Med income: 72266; Firearm deaths: 0.034; Division: Northeast; State: Massachusetts" role="graphics-symbol" aria-roledescription="circle" transform="translate(241.995,257.5)" d="M8.66,0A8.66,8.66,0,1,1,-8.66,0A8.66,8.66,0,1,1,8.66,0" fill="#377eb8" stroke-width="2" opacity="0.7"></path><path aria-label="Med income: 57091; Firearm deaths: 0.123; Division: Midwest; State: Michigan" role="graphics-symbol" aria-roledescription="circle" transform="translate(128.1825,146.24999999999997)" d="M8.66,0A8.66,8.66,0,1,1,-8.66,0A8.66,8.66,0,1,1,8.66,0" fill="#e41a1c" stroke-width="2" opacity="0.7"></path><path aria-label="Med income: 70218; Firearm deaths: 0.076; Division: Midwest; State: Minnesota" role="graphics-symbol" aria-roledescription="circle" transform="translate(226.635,205)" d="M8.66,0A8.66,8.66,0,1,1,-8.66,0A8.66,8.66,0,1,1,8.66,0" fill="#e41a1c" stroke-width="2" opacity="0.7"></path><path aria-label="Med income: 41099; Firearm deaths: 0.199; Division: South; State: Mississippi" role="graphics-symbol" aria-roledescription="circle" transform="translate(8.2425,51.249999999999986)" d="M8.66,0A8.66,8.66,0,1,1,-8.66,0A8.66,8.66,0,1,1,8.66,0" fill="#4daf4a" stroke-width="2" opacity="0.7"></path><path aria-label="Med income: 55016; Firearm deaths: 0.19; Division: Midwest; State: Missouri" role="graphics-symbol" aria-roledescription="circle" transform="translate(112.62,62.49999999999998)" d="M8.66,0A8.66,8.66,0,1,1,-8.66,0A8.66,8.66,0,1,1,8.66,0" fill="#e41a1c" stroke-width="2" opacity="0.7"></path><path aria-label="Med income: 57075; Firearm deaths: 0.189; Division: West; State: Montana" role="graphics-symbol" aria-roledescription="circle" transform="translate(128.0625,63.74999999999997)" d="M8.66,0A8.66,8.66,0,1,1,-8.66,0A8.66,8.66,0,1,1,8.66,0" fill="#984ea3" stroke-width="2" opacity="0.7"></path><path aria-label="Med income: 59374; Firearm deaths: 0.091; Division: Midwest; State: Nebraska" role="graphics-symbol" aria-roledescription="circle" transform="translate(145.305,186.25)" d="M8.66,0A8.66,8.66,0,1,1,-8.66,0A8.66,8.66,0,1,1,8.66,0" fill="#e41a1c" stroke-width="2" opacity="0.7"></path><path aria-label="Med income: 55431; Firearm deaths: 0.168; Division: West; State: Nevada" role="graphics-symbol" aria-roledescription="circle" transform="translate(115.73249999999999,89.99999999999999)" d="M8.66,0A8.66,8.66,0,1,1,-8.66,0A8.66,8.66,0,1,1,8.66,0" fill="#984ea3" stroke-width="2" opacity="0.7"></path><path aria-label="Med income: 76260; Firearm deaths: 0.093; Division: Northeast; State: New Hampshire" role="graphics-symbol" aria-roledescription="circle" transform="translate(271.95,183.75)" d="M8.66,0A8.66,8.66,0,1,1,-8.66,0A8.66,8.66,0,1,1,8.66,0" fill="#377eb8" stroke-width="2" opacity="0.7"></path><path aria-label="Med income: 68468; Firearm deaths: 0.055; Division: Northeast; State: New Jersey" role="graphics-symbol" aria-roledescription="circle" transform="translate(213.51,231.24999999999997)" d="M8.66,0A8.66,8.66,0,1,1,-8.66,0A8.66,8.66,0,1,1,8.66,0" fill="#377eb8" stroke-width="2" opacity="0.7"></path><path aria-label="Med income: 48451; Firearm deaths: 0.181; Division: West; State: New Mexico" role="graphics-symbol" aria-roledescription="circle" transform="translate(63.3825,73.75)" d="M8.66,0A8.66,8.66,0,1,1,-8.66,0A8.66,8.66,0,1,1,8.66,0" fill="#984ea3" stroke-width="2" opacity="0.7"></path><path aria-label="Med income: 61437; Firearm deaths: 0.044; Division: Northeast; State: New York" role="graphics-symbol" aria-roledescription="circle" transform="translate(160.7775,245)" d="M8.66,0A8.66,8.66,0,1,1,-8.66,0A8.66,8.66,0,1,1,8.66,0" fill="#377eb8" stroke-width="2" opacity="0.7"></path><path aria-label="Med income: 53764; Firearm deaths: 0.137; Division: South; State: North Carolina" role="graphics-symbol" aria-roledescription="circle" transform="translate(103.23,128.74999999999997)" d="M8.66,0A8.66,8.66,0,1,1,-8.66,0A8.66,8.66,0,1,1,8.66,0" fill="#4daf4a" stroke-width="2" opacity="0.7"></path><path aria-label="Med income: 60184; Firearm deaths: 0.119; Division: Midwest; State: North Dakota" role="graphics-symbol" aria-roledescription="circle" transform="translate(151.38000000000002,151.25)" d="M8.66,0A8.66,8.66,0,1,1,-8.66,0A8.66,8.66,0,1,1,8.66,0" fill="#e41a1c" stroke-width="2" opacity="0.7"></path><path aria-label="Med income: 53985; Firearm deaths: 0.129; Division: Midwest; State: Ohio" role="graphics-symbol" aria-roledescription="circle" transform="translate(104.8875,138.74999999999997)" d="M8.66,0A8.66,8.66,0,1,1,-8.66,0A8.66,8.66,0,1,1,8.66,0" fill="#e41a1c" stroke-width="2" opacity="0.7"></path><path aria-label="Med income: 50943; Firearm deaths: 0.196; Division: South; State: Oklahoma" role="graphics-symbol" aria-roledescription="circle" transform="translate(82.0725,54.99999999999997)" d="M8.66,0A8.66,8.66,0,1,1,-8.66,0A8.66,8.66,0,1,1,8.66,0" fill="#4daf4a" stroke-width="2" opacity="0.7"></path><path aria-label="Med income: 59135; Firearm deaths: 0.119; Division: West; State: Oregon" role="graphics-symbol" aria-roledescription="circle" transform="translate(143.5125,151.25)" d="M8.66,0A8.66,8.66,0,1,1,-8.66,0A8.66,8.66,0,1,1,8.66,0" fill="#984ea3" stroke-width="2" opacity="0.7"></path><path aria-label="Med income: 60979; Firearm deaths: 0.12; Division: Northeast; State: Pennsylvania" role="graphics-symbol" aria-roledescription="circle" transform="translate(157.3425,150)" d="M8.66,0A8.66,8.66,0,1,1,-8.66,0A8.66,8.66,0,1,1,8.66,0" fill="#377eb8" stroke-width="2" opacity="0.7"></path><path aria-label="Med income: 61528; Firearm deaths: 0.041; Division: Northeast; State: Rhode Island" role="graphics-symbol" aria-roledescription="circle" transform="translate(161.46,248.74999999999997)" d="M8.66,0A8.66,8.66,0,1,1,-8.66,0A8.66,8.66,0,1,1,8.66,0" fill="#377eb8" stroke-width="2" opacity="0.7"></path><path aria-label="Med income: 54336; Firearm deaths: 0.177; Division: South; State: South Carolina" role="graphics-symbol" aria-roledescription="circle" transform="translate(107.52,78.75000000000001)" d="M8.66,0A8.66,8.66,0,1,1,-8.66,0A8.66,8.66,0,1,1,8.66,0" fill="#4daf4a" stroke-width="2" opacity="0.7"></path><path aria-label="Med income: 57450; Firearm deaths: 0.134; Division: Midwest; State: South Dakota" role="graphics-symbol" aria-roledescription="circle" transform="translate(130.875,132.5)" d="M8.66,0A8.66,8.66,0,1,1,-8.66,0A8.66,8.66,0,1,1,8.66,0" fill="#e41a1c" stroke-width="2" opacity="0.7"></path><path aria-label="Med income: 51344; Firearm deaths: 0.171; Division: South; State: Tennessee" role="graphics-symbol" aria-roledescription="circle" transform="translate(85.08000000000001,86.24999999999996)" d="M8.66,0A8.66,8.66,0,1,1,-8.66,0A8.66,8.66,0,1,1,8.66,0" fill="#4daf4a" stroke-width="2" opacity="0.7"></path><path aria-label="Med income: 58146; Firearm deaths: 0.121; Division: South; State: Texas" role="graphics-symbol" aria-roledescription="circle" transform="translate(136.095,148.75)" d="M8.66,0A8.66,8.66,0,1,1,-8.66,0A8.66,8.66,0,1,1,8.66,0" fill="#4daf4a" stroke-width="2" opacity="0.7"></path><path aria-label="Med income: 67481; Firearm deaths: 0.129; Division: West; State: Utah" role="graphics-symbol" aria-roledescription="circle" transform="translate(206.1075,138.74999999999997)" d="M8.66,0A8.66,8.66,0,1,1,-8.66,0A8.66,8.66,0,1,1,8.66,0" fill="#984ea3" stroke-width="2" opacity="0.7"></path><path aria-label="Med income: 60837; Firearm deaths: 0.111; Division: Northeast; State: Vermont" role="graphics-symbol" aria-roledescription="circle" transform="translate(156.2775,161.25)" d="M8.66,0A8.66,8.66,0,1,1,-8.66,0A8.66,8.66,0,1,1,8.66,0" fill="#377eb8" stroke-width="2" opacity="0.7"></path><path aria-label="Med income: 66451; Firearm deaths: 0.121; Division: South; State: Virginia" role="graphics-symbol" aria-roledescription="circle" transform="translate(198.3825,148.75)" d="M8.66,0A8.66,8.66,0,1,1,-8.66,0A8.66,8.66,0,1,1,8.66,0" fill="#4daf4a" stroke-width="2" opacity="0.7"></path><path aria-label="Med income: 70310; Firearm deaths: 0.09; Division: West; State: Washington" role="graphics-symbol" aria-roledescription="circle" transform="translate(227.32500000000002,187.5)" d="M8.66,0A8.66,8.66,0,1,1,-8.66,0A8.66,8.66,0,1,1,8.66,0" fill="#984ea3" stroke-width="2" opacity="0.7"></path><path aria-label="Med income: 44354; Firearm deaths: 0.175; Division: South; State: West Virginia" role="graphics-symbol" aria-roledescription="circle" transform="translate(32.655,81.25000000000001)" d="M8.66,0A8.66,8.66,0,1,1,-8.66,0A8.66,8.66,0,1,1,8.66,0" fill="#4daf4a" stroke-width="2" opacity="0.7"></path><path aria-label="Med income: 59817; Firearm deaths: 0.114; Division: Midwest; State: Wisconsin" role="graphics-symbol" aria-roledescription="circle" transform="translate(148.6275,157.49999999999997)" d="M8.66,0A8.66,8.66,0,1,1,-8.66,0A8.66,8.66,0,1,1,8.66,0" fill="#e41a1c" stroke-width="2" opacity="0.7"></path><path aria-label="Med income: 57829; Firearm deaths: 0.174; Division: West; State: Wyoming" role="graphics-symbol" aria-roledescription="circle" transform="translate(133.7175,82.5)" d="M8.66,0A8.66,8.66,0,1,1,-8.66,0A8.66,8.66,0,1,1,8.66,0" fill="#984ea3" stroke-width="2" opacity="0.7"></path></g><g class="mark-group role-legend" role="graphics-symbol" aria-roledescription="legend" aria-label="Symbol legend for fill color with 4 values: Midwest, Northeast, South, West"><g transform="translate(0,335)"><path class="background" aria-hidden="true" d="M0,0h237v11h-237Z" pointer-events="none"></path><g><g class="mark-group role-legend-entry"><g transform="translate(0,0)"><path class="background" aria-hidden="true" d="M0,0h0v0h0Z" pointer-events="none"></path><g><g class="mark-group role-scope" role="graphics-object" aria-roledescription="group mark container"><g transform="translate(0,0)"><path class="background" aria-hidden="true" d="M0,0h56.6982421875v11h-56.6982421875Z" pointer-events="none" opacity="1"></path><g><g class="mark-symbol role-legend-symbol" pointer-events="none"><path transform="translate(6,6)" d="M5,0A5,5,0,1,1,-5,0A5,5,0,1,1,5,0" fill="#e41a1c" stroke-width="1.5" opacity="0.7"></path></g><g class="mark-text role-legend-label" pointer-events="none"><text text-anchor="start" transform="translate(16,9)" font-family="sans-serif" font-size="10px" fill="#000" opacity="1">Midwest</text></g></g><path class="foreground" aria-hidden="true" d="" pointer-events="none" display="none"></path></g><g transform="translate(67,0)"><path class="background" aria-hidden="true" d="M0,0h64.056640625v11h-64.056640625Z" pointer-events="none" opacity="1"></path><g><g class="mark-symbol role-legend-symbol" pointer-events="none"><path transform="translate(6,6)" d="M5,0A5,5,0,1,1,-5,0A5,5,0,1,1,5,0" fill="#377eb8" stroke-width="1.5" opacity="0.7"></path></g><g class="mark-text role-legend-label" pointer-events="none"><text text-anchor="start" transform="translate(16,9)" font-family="sans-serif" font-size="10px" fill="#000" opacity="1">Northeast</text></g></g><path class="foreground" aria-hidden="true" d="" pointer-events="none" display="none"></path></g><g transform="translate(142,0)"><path class="background" aria-hidden="true" d="M0,0h44.173828125v11h-44.173828125Z" pointer-events="none" opacity="1"></path><g><g class="mark-symbol role-legend-symbol" pointer-events="none"><path transform="translate(6,6)" d="M5,0A5,5,0,1,1,-5,0A5,5,0,1,1,5,0" fill="#4daf4a" stroke-width="1.5" opacity="0.7"></path></g><g class="mark-text role-legend-label" pointer-events="none"><text text-anchor="start" transform="translate(16,9)" font-family="sans-serif" font-size="10px" fill="#000" opacity="1">South</text></g></g><path class="foreground" aria-hidden="true" d="" pointer-events="none" display="none"></path></g><g transform="translate(197,0)"><path class="background" aria-hidden="true" d="M0,0h39.9453125v11h-39.9453125Z" pointer-events="none" opacity="1"></path><g><g class="mark-symbol role-legend-symbol" pointer-events="none"><path transform="translate(6,6)" d="M5,0A5,5,0,1,1,-5,0A5,5,0,1,1,5,0" fill="#984ea3" stroke-width="1.5" opacity="0.7"></path></g><g class="mark-text role-legend-label" pointer-events="none"><text text-anchor="start" transform="translate(16,9)" font-family="sans-serif" font-size="10px" fill="#000" opacity="1">West</text></g></g><path class="foreground" aria-hidden="true" d="" pointer-events="none" display="none"></path></g></g></g><path class="foreground" aria-hidden="true" d="" pointer-events="none" display="none"></path></g></g></g><path class="foreground" aria-hidden="true" d="" pointer-events="none" display="none"></path></g></g><g class="mark-group role-title"><g transform="translate(-27,-35)"><path class="background" aria-hidden="true" d="M0,0h0v0h0Z" pointer-events="none"></path><g><g class="mark-text role-title-text" role="graphics-symbol" aria-roledescription="title" aria-label="Title text 'Gun deaths and income - US states'" pointer-events="none"><text text-anchor="start" transform="translate(0,10)" font-family="sans-serif" font-size="13px" font-weight="bold" fill="black" opacity="1">Gun deaths and income - US states</text></g><g class="mark-text role-title-subtitle" role="graphics-symbol" aria-roledescription="subtitle" aria-label="Subtitle text 'Median income (x), and firearm deaths per 100k population'" pointer-events="none"><text text-anchor="start" transform="translate(0,24)" font-family="sans-serif" font-size="10px" font-style="italic" fill="#000" opacity="1">Median income (x), and firearm deaths per 100k population</text></g></g><path class="foreground" aria-hidden="true" d="" pointer-events="none" display="none"></path></g></g></g><path class="foreground" aria-hidden="true" d="" display="none"></path></g></g></g></svg>