<svg xmlns="http://www.w3.org/2000/svg" xmlns:xlink="http://www.w3.org/1999/xlink" version="1.1" class="marks" width="844" height="737" viewBox="0 0 844 737" style="background-color: white;"><g fill="none" stroke-miterlimit="10" transform="translate(39,10)"><g class="mark-group role-frame root" role="graphics-object" aria-roledescription="group mark container"><g transform="translate(0,0)"><path class="background" aria-hidden="true" d="M0.5,0.5h800v600h-800Z" fill="transparent" stroke="#ddd"></path><g><g class="mark-group role-axis" aria-hidden="true"><g transform="translate(0.5,0.5)"><path class="background" aria-hidden="true" d="M0,0h0v0h0Z" pointer-events="none"></path><g><g class="mark-rule role-axis-grid" pointer-events="none"><line transform="translate(0,600)" x2="800" y2="0" stroke="#ddd" stroke-width="1" opacity="1"></line><line transform="translate(0,557)" x2="800" y2="0" stroke="#ddd" stroke-width="1" opacity="1"></line><line transform="translate(0,514)" x2="800" y2="0" stroke="#ddd" stroke-width="1" opacity="1"></line><line transform="translate(0,471)" x2="800" y2="0" stroke="#ddd" stroke-width="1" opacity="1"></line><line transform="translate(0,429)" x2="800" y2="0" stroke="#ddd" stroke-width="1" opacity="1"></line><line transform="translate(0,386)" x2="800" y2="0" stroke="#ddd" stroke-width="1" opacity="1"></line><line transform="translate(0,343)" x2="800" y2="0" stroke="#ddd" stroke-width="1" opacity="1"></line><line transform="translate(0,300)" x2="800" y2="0" stroke="#ddd" stroke-width="1" opacity="1"></line><line transform="translate(0,257)" x2="800" y2="0" stroke="#ddd" stroke-width="1" opacity="1"></line><line transform="translate(0,214)" x2="800" y2="0" stroke="#ddd" stroke-width="1" opacity="1"></line><line transform="translate(0,171)" x2="800" y2="0" stroke="#ddd" stroke-width="1" opacity="1"></line><line transform="translate(0,129)" x2="800" y2="0" stroke="#ddd" stroke-width="1" opacity="1"></line><line transform="translate(0,86)" x2="800" y2="0" stroke="#ddd" stroke-width="1" opacity="1"></line><line transform="translate(0,43)" x2="800" y2="0" stroke="#ddd" stroke-width="1" opacity="1"></line><line transform="translate(0,0)" x2="800" y2="0" stroke="#ddd" stroke-width="1" opacity="1"></line></g></g><path class="foreground" aria-hidden="true" d="" pointer-events="none" display="none"></path></g></g><g class="mark-group role-axis" role="graphics-symbol" aria-roledescription="axis" aria-label="X-axis titled 'Name' for a discrete scale with 23 values: Olivier Giroud, Antoine Griezmann, André-Pierre Gignac, Blaise Matuidi, Paul Pogba, ending with Benoît Costil"><g transform="translate(0.5,600.5)"><path class="background" aria-hidden="true" d="M0,0h0v0h0Z" pointer-events="none"></path><g><g class="mark-rule role-axis-tick" pointer-events="none"><line transform="translate(17,0)" x2="0" y2="5" stroke="#888" stroke-width="1" opacity="1"></line><line transform="translate(52,0)" x2="0" y2="5" stroke="#888" stroke-width="1" opacity="1"></line><line transform="translate(86,0)" x2="0" y2="5" stroke="#888" stroke-width="1" opacity="1"></line><line transform="translate(121,0)" x2="0" y2="5" stroke="#888" stroke-width="1" opacity="1"></line><line transform="translate(156,0)" x2="0" y2="5" stroke="#888" stroke-width="1" opacity="1"></line><line transform="translate(191,0)" x2="0" y2="5" stroke="#888" stroke-width="1" opacity="1"></line><line transform="translate(226,0)" x2="0" y2="5" stroke="#888" stroke-width="1" opacity="1"></line><line transform="translate(260,0)" x2="0" y2="5" stroke="#888" stroke-width="1" opacity="1"></line><line transform="translate(295,0)" x2="0" y2="5" stroke="#888" stroke-width="1" opacity="1"></line><line transform="translate(330,0)" x2="0" y2="5" stroke="#888" stroke-width="1" opacity="1"></line><line transform="translate(365,0)" x2="0" y2="5" stroke="#888" stroke-width="1" opacity="1"></line><line transform="translate(400,0)" x2="0" y2="5" stroke="#888" stroke-width="1" opacity="1"></line><line transform="translate(434,0)" x2="0" y2="5" stroke="#888" stroke-width="1" opacity="1"></line><line transform="translate(469,0)" x2="0" y2="5" stroke="#888" stroke-width="1" opacity="1"></line><line transform="translate(504,0)" x2="0" y2="5" stroke="#888" stroke-width="1" opacity="1"></line><line transform="translate(539,0)" x2="0" y2="5" stroke="#888" stroke-width="1" opacity="1"></line><line transform="translate(573,0)" x2="0" y2="5" stroke="#888" stroke-width="1" opacity="1"></line><line transform="translate(608,0)" x2="0" y2="5" stroke="#888" stroke-width="1" opacity="1"></line><line transform="translate(643,0)" x2="0" y2="5" stroke="#888" stroke-width="1" opacity="1"></line><line transform="translate(678,0)" x2="0" y2="5" stroke="#888" stroke-width="1" opacity="1"></line><line transform="translate(713,0)" x2="0" y2="5" stroke="#888" stroke-width="1" opacity="1"></line><line transform="translate(747,0)" x2="0" y2="5" stroke="#888" stroke-width="1" opacity="1"></line><line transform="translate(782,0)" x2="0" y2="5" stroke="#888" stroke-width="1" opacity="1"></line></g><g class="mark-text role-axis-label" pointer-events="none"><text text-anchor="end" transform="translate(16.891304347826157,7) rotate(270) translate(0,3)" font-family="sans-serif" font-size="10px" fill="#000" opacity="1">Olivier Giroud</text><text text-anchor="end" transform="translate(51.67391304347833,7) rotate(270) translate(0,3)" font-family="sans-serif" font-size="10px" fill="#000" opacity="1">Antoine Griezmann</text><text text-anchor="end" transform="translate(86.45652173913051,7) rotate(270) translate(0,3)" font-family="sans-serif" font-size="10px" fill="#000" opacity="1">André-Pierre Gignac</text><text text-anchor="end" transform="translate(121.23913043478268,7) rotate(270) translate(0,3)" font-family="sans-serif" font-size="10px" fill="#000" opacity="1">Blaise Matuidi</text><text text-anchor="end" transform="translate(156.02173913043484,7) rotate(270) translate(0,3)" font-family="sans-serif" font-size="10px" fill="#000" opacity="1">Paul Pogba</text><text text-anchor="end" transform="translate(190.80434782608702,7) rotate(270) translate(0,3)" font-family="sans-serif" font-size="10px" fill="#000" opacity="1">Yohan Cabaye</text><text text-anchor="end" transform="translate(225.58695652173918,7) rotate(270) translate(0,3)" font-family="sans-serif" font-size="10px" fill="#000" opacity="1">Dimitri Payet</text><text text-anchor="end" transform="translate(260.36956521739137,7) rotate(270) translate(0,3)" font-family="sans-serif" font-size="10px" fill="#000" opacity="1">Christophe Jallet</text><text text-anchor="end" transform="translate(295.15217391304355,7) rotate(270) translate(0,3)" font-family="sans-serif" font-size="10px" fill="#000" opacity="1">Adil Rami</text><text text-anchor="end" transform="translate(329.93478260869574,7) rotate(270) translate(0,3)" font-family="sans-serif" font-size="10px" fill="#000" opacity="1">N'Golo Kanté</text><text text-anchor="end" transform="translate(364.7173913043479,7) rotate(270) translate(0,3)" font-family="sans-serif" font-size="10px" fill="#000" opacity="1">Moussa Sissoko</text><text text-anchor="end" transform="translate(399.50000000000006,7) rotate(270) translate(0,3)" font-family="sans-serif" font-size="10px" fill="#000" opacity="1">Kingsley Coman</text><text text-anchor="end" transform="translate(434.28260869565224,7) rotate(270) translate(0,3)" font-family="sans-serif" font-size="10px" fill="#000" opacity="1">Hugo Lloris</text><text text-anchor="end" transform="translate(469.06521739130443,7) rotate(270) translate(0,3)" font-family="sans-serif" font-size="10px" fill="#000" opacity="1">Patrice Evra</text><text text-anchor="end" transform="translate(503.84782608695656,7) rotate(270) translate(0,3)" font-family="sans-serif" font-size="10px" fill="#000" opacity="1">Anthony Martial</text><text text-anchor="end" transform="translate(538.6304347826087,7) rotate(270) translate(0,3)" font-family="sans-serif" font-size="10px" fill="#000" opacity="1">Morgan Schneiderlin</text><text text-anchor="end" transform="translate(573.413043478261,7) rotate(270) translate(0,3)" font-family="sans-serif" font-size="10px" fill="#000" opacity="1">Eliaquim Mangala</text><text text-anchor="end" transform="translate(608.195652173913,7) rotate(270) translate(0,3)" font-family="sans-serif" font-size="10px" fill="#000" opacity="1">Steve Mandanda</text><text text-anchor="end" transform="translate(642.9782608695652,7) rotate(270) translate(0,3)" font-family="sans-serif" font-size="10px" fill="#000" opacity="1">Lucas Digne</text><text text-anchor="end" transform="translate(677.7608695652175,7) rotate(270) translate(0,3)" font-family="sans-serif" font-size="10px" fill="#000" opacity="1">Bacary Sagna</text><text text-anchor="end" transform="translate(712.5434782608697,7) rotate(270) translate(0,3)" font-family="sans-serif" font-size="10px" fill="#000" opacity="1">Laurent Koscielny</text><text text-anchor="end" transform="translate(747.3260869565217,7) rotate(270) translate(0,3)" font-family="sans-serif" font-size="10px" fill="#000" opacity="1">Samuel Umtiti</text><text text-anchor="end" transform="translate(782.108695652174,7) rotate(270) translate(0,3)" font-family="sans-serif" font-size="10px" fill="#000" opacity="1">Benoît Costil</text></g><g class="mark-rule role-axis-domain" pointer-events="none"><line transform="translate(0,0)" x2="800" y2="0" stroke="#888" stroke-width="1" opacity="1"></line></g><g class="mark-text role-axis-title" pointer-events="none"><text text-anchor="middle" transform="translate(400,119.6630859375)" font-family="sans-serif" font-size="11px" font-weight="bold" fill="#000" opacity="1">Name</text></g></g><path class="foreground" aria-hidden="true" d="" pointer-events="none" display="none"></path></g></g><g class="mark-group role-axis" role="graphics-symbol" aria-roledescription="axis" aria-label="Y-axis titled 'Goals' for a linear scale with values from 0 to 14"><g transform="translate(0.5,0.5)"><path class="background" aria-hidden="true" d="M0,0h0v0h0Z" pointer-events="none"></path><g><g class="mark-rule role-axis-tick" pointer-events="none"><line transform="translate(0,600)" x2="-5" y2="0" stroke="#888" stroke-width="1" opacity="1"></line><line transform="translate(0,557)" x2="-5" y2="0" stroke="#888" stroke-width="1" opacity="1"></line><line transform="translate(0,514)" x2="-5" y2="0" stroke="#888" stroke-width="1" opacity="1"></line><line transform="translate(0,471)" x2="-5" y2="0" stroke="#888" stroke-width="1" opacity="1"></line><line transform="translate(0,429)" x2="-5" y2="0" stroke="#888" stroke-width="1" opacity="1"></line><line transform="translate(0,386)" x2="-5" y2="0" stroke="#888" stroke-width="1" opacity="1"></line><line transform="translate(0,343)" x2="-5" y2="0" stroke="#888" stroke-width="1" opacity="1"></line><line transform="translate(0,300)" x2="-5" y2="0" stroke="#888" stroke-width="1" opacity="1"></line><line transform="translate(0,257)" x2="-5" y2="0" stroke="#888" stroke-width="1" opacity="1"></line><line transform="translate(0,214)" x2="-5" y2="0" stroke="#888" stroke-width="1" opacity="1"></line><line transform="translate(0,171)" x2="-5" y2="0" stroke="#888" stroke-width="1" opacity="1"></line><line transform="translate(0,129)" x2="-5" y2="0" stroke="#888" stroke-width="1" opacity="1"></line><line transform="translate(0,86)" x2="-5" y2="0" stroke="#888" stroke-width="1" opacity="1"></line><line transform="translate(0,43)" x2="-5" y2="0" stroke="#888" stroke-width="1" opacity="1"></line><line transform="translate(0,0)" x2="-5" y2="0" stroke="#888" stroke-width="1" opacity="1"></line></g><g class="mark-text role-axis-label" pointer-events="none"><text text-anchor="end" transform="translate(-7,603)" font-family="sans-serif" font-size="10px" fill="#000" opacity="1">0</text><text text-anchor="end" transform="translate(-7,560.1428571428571)" font-family="sans-serif" font-size="10px" fill="#000" opacity="1">1</text><text text-anchor="end" transform="translate(-7,517.2857142857143)" font-family="sans-serif" font-size="10px" fill="#000" opacity="1">2</text><text text-anchor="end" transform="translate(-7,474.42857142857144)" font-family="sans-serif" font-size="10px" fill="#000" opacity="1">3</text><text text-anchor="end" transform="translate(-7,431.57142857142856)" font-family="sans-serif" font-size="10px" fill="#000" opacity="1">4</text><text text-anchor="end" transform="translate(-7,388.71428571428567)" font-family="sans-serif" font-size="10px" fill="#000" opacity="1">5</text><text text-anchor="end" transform="translate(-7,345.85714285714283)" font-family="sans-serif" font-size="10px" fill="#000" opacity="1">6</text><text text-anchor="end" transform="translate(-7,303)" font-family="sans-serif" font-size="10px" fill="#000" opacity="1">7</text><text text-anchor="end" transform="translate(-7,260.14285714285717)" font-family="sans-serif" font-size="10px" fill="#000" opacity="1">8</text><text text-anchor="end" transform="translate(-7,217.28571428571425)" font-family="sans-serif" font-size="10px" fill="#000" opacity="1">9</text><text text-anchor="end" transform="translate(-7,174.42857142857142)" font-family="sans-serif" font-size="10px" fill="#000" opacity="1">10</text><text text-anchor="end" transform="translate(-7,131.57142857142858)" font-family="sans-serif" font-size="10px" fill="#000" opacity="1">11</text><text text-anchor="end" transform="translate(-7,88.71428571428574)" font-family="sans-serif" font-size="10px" fill="#000" opacity="1">12</text><text text-anchor="end" transform="translate(-7,45.85714285714284)" font-family="sans-serif" font-size="10px" fill="#000" opacity="1">13</text><text text-anchor="end" transform="translate(-7,3)" font-family="sans-serif" font-size="10px" fill="#000" opacity="1">14</text></g><g class="mark-rule role-axis-domain" pointer-events="none"><line transform="translate(0,600)" x2="0" y2="-600" stroke="#888" stroke-width="1" opacity="1"></line></g><g class="mark-text role-axis-title" pointer-events="none"><text text-anchor="middle" transform="translate(-22.728515625,300) rotate(-90) translate(0,-2)" font-family="sans-serif" font-size="11px" font-weight="bold" fill="#000" opacity="1">Goals</text></g></g><path class="foreground" aria-hidden="true" d="" pointer-events="none" display="none"></path></g></g><g class="mark-rect role-mark marks" role="graphics-object" aria-roledescription="rect mark container"><path aria-label="Name: Hugo Lloris; Goals: 0.00000" role="graphics-symbol" aria-roledescription="bar" d="M419.13043478260875,600h31.304347826086957v0h-31.304347826086957Z" fill="#4c78a8"></path><path aria-label="Name: Christophe Jallet; Goals: 1.00000" role="graphics-symbol" aria-roledescription="bar" d="M245.21739130434787,557.1428571428571h31.304347826086957v42.85714285714289h-31.304347826086957Z" fill="#4c78a8"></path><path aria-label="Name: Patrice Evra; Goals: 0.00000" role="graphics-symbol" aria-roledescription="bar" d="M453.91304347826093,600h31.304347826086957v0h-31.304347826086957Z" fill="#4c78a8"></path><path aria-label="Name: Adil Rami; Goals: 1.00000" role="graphics-symbol" aria-roledescription="bar" d="M280.00000000000006,557.1428571428571h31.304347826086957v42.85714285714289h-31.304347826086957Z" fill="#4c78a8"></path><path aria-label="Name: N'Golo Kanté; Goals: 1.00000" role="graphics-symbol" aria-roledescription="bar" d="M314.78260869565224,557.1428571428571h31.304347826086957v42.85714285714289h-31.304347826086957Z" fill="#4c78a8"></path><path aria-label="Name: Yohan Cabaye; Goals: 4.00000" role="graphics-symbol" aria-roledescription="bar" d="M175.65217391304355,428.57142857142856h31.304347826086957v171.42857142857144h-31.304347826086957Z" fill="#4c78a8"></path><path aria-label="Name: Antoine Griezmann; Goals: 7.00000" role="graphics-symbol" aria-roledescription="bar" d="M36.52173913043485,300h31.304347826086957v300h-31.304347826086957Z" fill="#4c78a8"></path><path aria-label="Name: Dimitri Payet; Goals: 2.00000" role="graphics-symbol" aria-roledescription="bar" d="M210.4347826086957,514.2857142857143h31.304347826086957v85.71428571428567h-31.304347826086957Z" fill="#4c78a8"></path><path aria-label="Name: Olivier Giroud; Goals: 14.0000" role="graphics-symbol" aria-roledescription="bar" d="M1.7391304347826804,0h31.304347826086957v600h-31.304347826086957Z" fill="#4c78a8"></path><path aria-label="Name: André-Pierre Gignac; Goals: 7.00000" role="graphics-symbol" aria-roledescription="bar" d="M71.30434782608702,300h31.304347826086957v300h-31.304347826086957Z" fill="#4c78a8"></path><path aria-label="Name: Anthony Martial; Goals: 0.00000" role="graphics-symbol" aria-roledescription="bar" d="M488.69565217391306,600h31.304347826086957v0h-31.304347826086957Z" fill="#4c78a8"></path><path aria-label="Name: Morgan Schneiderlin; Goals: 0.00000" role="graphics-symbol" aria-roledescription="bar" d="M523.4782608695652,600h31.304347826086957v0h-31.304347826086957Z" fill="#4c78a8"></path><path aria-label="Name: Eliaquim Mangala; Goals: 0.00000" role="graphics-symbol" aria-roledescription="bar" d="M558.2608695652175,600h31.304347826086957v0h-31.304347826086957Z" fill="#4c78a8"></path><path aria-label="Name: Blaise Matuidi; Goals: 7.00000" role="graphics-symbol" aria-roledescription="bar" d="M106.0869565217392,300h31.304347826086957v300h-31.304347826086957Z" fill="#4c78a8"></path><path aria-label="Name: Paul Pogba; Goals: 5.00000" role="graphics-symbol" aria-roledescription="bar" d="M140.86956521739137,385.71428571428567h31.304347826086957v214.28571428571433h-31.304347826086957Z" fill="#4c78a8"></path><path aria-label="Name: Steve Mandanda; Goals: 0.00000" role="graphics-symbol" aria-roledescription="bar" d="M593.0434782608695,600h31.304347826086957v0h-31.304347826086957Z" fill="#4c78a8"></path><path aria-label="Name: Lucas Digne; Goals: 0.00000" role="graphics-symbol" aria-roledescription="bar" d="M627.8260869565217,600h31.304347826086957v0h-31.304347826086957Z" fill="#4c78a8"></path><path aria-label="Name: Moussa Sissoko; Goals: 1.00000" role="graphics-symbol" aria-roledescription="bar" d="M349.56521739130443,557.1428571428571h31.304347826086957v42.85714285714289h-31.304347826086957Z" fill="#4c78a8"></path><path aria-label="Name: Bacary Sagna; Goals: 0.00000" role="graphics-symbol" aria-roledescription="bar" d="M662.608695652174,600h31.304347826086957v0h-31.304347826086957Z" fill="#4c78a8"></path><path aria-label="Name: Kingsley Coman; Goals: 1.00000" role="graphics-symbol" aria-roledescription="bar" d="M384.34782608695656,557.1428571428571h31.304347826086957v42.85714285714289h-31.304347826086957Z" fill="#4c78a8"></path><path aria-label="Name: Laurent Koscielny; Goals: 0.00000" role="graphics-symbol" aria-roledescription="bar" d="M697.3913043478262,600h31.304347826086957v0h-31.304347826086957Z" fill="#4c78a8"></path><path aria-label="Name: Samuel Umtiti; Goals: 0.00000" role="graphics-symbol" aria-roledescription="bar" d="M732.1739130434783,600h31.304347826086957v0h-31.304347826086957Z" fill="#4c78a8"></path><path aria-label="Name: Benoît Costil; Goals: 0.00000" role="graphics-symbol" aria-roledescription="bar" d="M766.9565217391305,600h31.304347826086957v0h-31.304347826086957Z" fill="#4c78a8"></path></g></g><path class="foreground" aria-hidden="true" d="" display="none"></path></g></g></g></svg>