<svg xmlns="http://www.w3.org/2000/svg" xmlns:xlink="http://www.w3.org/1999/xlink" version="1.1" class="marks" width="817" height="347" viewBox="0 0 817 347" style="background-color: white;"><g fill="none" stroke-miterlimit="10" transform="translate(47,10)"><g class="mark-group role-frame root" role="graphics-object" aria-roledescription="group mark container"><g transform="translate(0,0)"><path class="background" aria-hidden="true" d="M0.5,0.5h762v300h-762Z" fill="transparent" stroke="#ddd"></path><g><g class="mark-group role-axis" aria-hidden="true"><g transform="translate(0.5,300.5)"><path class="background" aria-hidden="true" d="M0,0h0v0h0Z" pointer-events="none"></path><g><g class="mark-rule role-axis-grid" pointer-events="none"><line transform="translate(26,-300)" x2="0" y2="300" stroke="#ddd" stroke-width="1" opacity="1"></line><line transform="translate(79,-300)" x2="0" y2="300" stroke="#ddd" stroke-width="1" opacity="1"></line><line transform="translate(131,-300)" x2="0" y2="300" stroke="#ddd" stroke-width="1" opacity="1"></line><line transform="translate(184,-300)" x2="0" y2="300" stroke="#ddd" stroke-width="1" opacity="1"></line><line transform="translate(236,-300)" x2="0" y2="300" stroke="#ddd" stroke-width="1" opacity="1"></line><line transform="translate(289,-300)" x2="0" y2="300" stroke="#ddd" stroke-width="1" opacity="1"></line><line transform="translate(342,-300)" x2="0" y2="300" stroke="#ddd" stroke-width="1" opacity="1"></line><line transform="translate(394,-300)" x2="0" y2="300" stroke="#ddd" stroke-width="1" opacity="1"></line><line transform="translate(447,-300)" x2="0" y2="300" stroke="#ddd" stroke-width="1" opacity="1"></line><line transform="translate(499,-300)" x2="0" y2="300" stroke="#ddd" stroke-width="1" opacity="1"></line><line transform="translate(552,-300)" x2="0" y2="300" stroke="#ddd" stroke-width="1" opacity="1"></line><line transform="translate(604,-300)" x2="0" y2="300" stroke="#ddd" stroke-width="1" opacity="1"></line><line transform="translate(657,-300)" x2="0" y2="300" stroke="#ddd" stroke-width="1" opacity="1"></line><line transform="translate(709,-300)" x2="0" y2="300" stroke="#ddd" stroke-width="1" opacity="1"></line><line transform="translate(762,-300)" x2="0" y2="300" stroke="#ddd" stroke-width="1" opacity="1"></line></g></g><path class="foreground" aria-hidden="true" d="" pointer-events="none" display="none"></path></g></g><g class="mark-group role-axis" aria-hidden="true"><g transform="translate(0.5,0.5)"><path class="background" aria-hidden="true" d="M0,0h0v0h0Z" pointer-events="none"></path><g><g class="mark-rule role-axis-grid" pointer-events="none"><line transform="translate(0,300)" x2="762" y2="0" stroke="#ddd" stroke-width="1" opacity="1"></line><line transform="translate(0,263)" x2="762" y2="0" stroke="#ddd" stroke-width="1" opacity="1"></line><line transform="translate(0,225)" x2="762" y2="0" stroke="#ddd" stroke-width="1" opacity="1"></line><line transform="translate(0,188)" x2="762" y2="0" stroke="#ddd" stroke-width="1" opacity="1"></line><line transform="translate(0,150)" x2="762" y2="0" stroke="#ddd" stroke-width="1" opacity="1"></line><line transform="translate(0,113)" x2="762" y2="0" stroke="#ddd" stroke-width="1" opacity="1"></line><line transform="translate(0,75)" x2="762" y2="0" stroke="#ddd" stroke-width="1" opacity="1"></line><line transform="translate(0,38)" x2="762" y2="0" stroke="#ddd" stroke-width="1" opacity="1"></line><line transform="translate(0,0)" x2="762" y2="0" stroke="#ddd" stroke-width="1" opacity="1"></line></g></g><path class="foreground" aria-hidden="true" d="" pointer-events="none" display="none"></path></g></g><g class="mark-group role-axis" role="graphics-symbol" aria-roledescription="axis" aria-label="X-axis titled 'year' for a time scale with values from 1989 to 2018"><g transform="translate(0.5,300.5)"><path class="background" aria-hidden="true" d="M0,0h0v0h0Z" pointer-events="none"></path><g><g class="mark-rule role-axis-tick" pointer-events="none"><line transform="translate(26,0)" x2="0" y2="5" stroke="#888" stroke-width="1" opacity="1"></line><line transform="translate(79,0)" x2="0" y2="5" stroke="#888" stroke-width="1" opacity="1"></line><line transform="translate(131,0)" x2="0" y2="5" stroke="#888" stroke-width="1" opacity="1"></line><line transform="translate(184,0)" x2="0" y2="5" stroke="#888" stroke-width="1" opacity="1"></line><line transform="translate(236,0)" x2="0" y2="5" stroke="#888" stroke-width="1" opacity="1"></line><line transform="translate(289,0)" x2="0" y2="5" stroke="#888" stroke-width="1" opacity="1"></line><line transform="translate(342,0)" x2="0" y2="5" stroke="#888" stroke-width="1" opacity="1"></line><line transform="translate(394,0)" x2="0" y2="5" stroke="#888" stroke-width="1" opacity="1"></line><line transform="translate(447,0)" x2="0" y2="5" stroke="#888" stroke-width="1" opacity="1"></line><line transform="translate(499,0)" x2="0" y2="5" stroke="#888" stroke-width="1" opacity="1"></line><line transform="translate(552,0)" x2="0" y2="5" stroke="#888" stroke-width="1" opacity="1"></line><line transform="translate(604,0)" x2="0" y2="5" stroke="#888" stroke-width="1" opacity="1"></line><line transform="translate(657,0)" x2="0" y2="5" stroke="#888" stroke-width="1" opacity="1"></line><line transform="translate(709,0)" x2="0" y2="5" stroke="#888" stroke-width="1" opacity="1"></line><line transform="translate(762,0)" x2="0" y2="5" stroke="#888" stroke-width="1" opacity="1"></line></g><g class="mark-text role-axis-label" pointer-events="none"><text text-anchor="middle" transform="translate(26.258496978851966,15)" font-family="sans-serif" font-size="10px" fill="#000" opacity="1">1990</text><text text-anchor="middle" transform="translate(78.77549093655588,15)" font-family="sans-serif" font-size="10px" fill="#000" opacity="1">1992</text><text text-anchor="middle" transform="translate(131.3644259818731,15)" font-family="sans-serif" font-size="10px" fill="#000" opacity="1">1994</text><text text-anchor="middle" transform="translate(183.88141993957703,15)" font-family="sans-serif" font-size="10px" fill="#000" opacity="1">1996</text><text text-anchor="middle" transform="translate(236.47035498489424,15)" font-family="sans-serif" font-size="10px" fill="#000" opacity="1">1998</text><text text-anchor="middle" transform="translate(288.9873489425982,15)" font-family="sans-serif" font-size="10px" fill="#000" opacity="1">2000</text><text text-anchor="middle" transform="translate(341.57628398791536,15)" font-family="sans-serif" font-size="10px" fill="#000" opacity="1">2002</text><text text-anchor="middle" transform="translate(394.0932779456194,15)" font-family="sans-serif" font-size="10px" fill="#000" opacity="1">2004</text><text text-anchor="middle" transform="translate(446.68221299093653,15)" font-family="sans-serif" font-size="10px" fill="#000" opacity="1">2006</text><text text-anchor="middle" transform="translate(499.19920694864044,15)" font-family="sans-serif" font-size="10px" fill="#000" opacity="1">2008</text><text text-anchor="middle" transform="translate(551.7881419939578,15)" font-family="sans-serif" font-size="10px" fill="#000" opacity="1">2010</text><text text-anchor="middle" transform="translate(604.3051359516617,15)" font-family="sans-serif" font-size="10px" fill="#000" opacity="1">2012</text><text text-anchor="middle" transform="translate(656.8940709969788,15)" font-family="sans-serif" font-size="10px" fill="#000" opacity="1">2014</text><text text-anchor="middle" transform="translate(709.4110649546828,15)" font-family="sans-serif" font-size="10px" fill="#000" opacity="1">2016</text><text text-anchor="end" transform="translate(762,15)" font-family="sans-serif" font-size="10px" fill="#000" opacity="1">2018</text></g><g class="mark-rule role-axis-domain" pointer-events="none"><line transform="translate(0,0)" x2="762" y2="0" stroke="#888" stroke-width="1" opacity="1"></line></g><g class="mark-text role-axis-title" pointer-events="none"><text text-anchor="middle" transform="translate(381,30)" font-family="sans-serif" font-size="11px" font-weight="bold" fill="#000" opacity="1">year</text></g></g><path class="foreground" aria-hidden="true" d="" pointer-events="none" display="none"></path></g></g><g class="mark-group role-axis" role="graphics-symbol" aria-roledescription="axis" aria-label="Y-axis titled 'Wind Generation [TW]' for a linear scale with values from 0.0 to 0.4"><g transform="translate(0.5,0.5)"><path class="background" aria-hidden="true" d="M0,0h0v0h0Z" pointer-events="none"></path><g><g class="mark-rule role-axis-tick" pointer-events="none"><line transform="translate(0,300)" x2="-5" y2="0" stroke="#888" stroke-width="1" opacity="1"></line><line transform="translate(0,263)" x2="-5" y2="0" stroke="#888" stroke-width="1" opacity="1"></line><line transform="translate(0,225)" x2="-5" y2="0" stroke="#888" stroke-width="1" opacity="1"></line><line transform="translate(0,188)" x2="-5" y2="0" stroke="#888" stroke-width="1" opacity="1"></line><line transform="translate(0,150)" x2="-5" y2="0" stroke="#888" stroke-width="1" opacity="1"></line><line transform="translate(0,113)" x2="-5" y2="0" stroke="#888" stroke-width="1" opacity="1"></line><line transform="translate(0,75)" x2="-5" y2="0" stroke="#888" stroke-width="1" opacity="1"></line><line transform="translate(0,38)" x2="-5" y2="0" stroke="#888" stroke-width="1" opacity="1"></line><line transform="translate(0,0)" x2="-5" y2="0" stroke="#888" stroke-width="1" opacity="1"></line></g><g class="mark-text role-axis-label" pointer-events="none"><text text-anchor="end" transform="translate(-7,303)" font-family="sans-serif" font-size="10px" fill="#000" opacity="1">0.00</text><text text-anchor="end" transform="translate(-7,265.5)" font-family="sans-serif" font-size="10px" fill="#000" opacity="1">0.05</text><text text-anchor="end" transform="translate(-7,228)" font-family="sans-serif" font-size="10px" fill="#000" opacity="1">0.10</text><text text-anchor="end" transform="translate(-7,190.5)" font-family="sans-serif" font-size="10px" fill="#000" opacity="1">0.15</text><text text-anchor="end" transform="translate(-7,153)" font-family="sans-serif" font-size="10px" fill="#000" opacity="1">0.20</text><text text-anchor="end" transform="translate(-7,115.5)" font-family="sans-serif" font-size="10px" fill="#000" opacity="1">0.25</text><text text-anchor="end" transform="translate(-7,78.00000000000003)" font-family="sans-serif" font-size="10px" fill="#000" opacity="1">0.30</text><text text-anchor="end" transform="translate(-7,40.500000000000036)" font-family="sans-serif" font-size="10px" fill="#000" opacity="1">0.35</text><text text-anchor="end" transform="translate(-7,3)" font-family="sans-serif" font-size="10px" fill="#000" opacity="1">0.40</text></g><g class="mark-rule role-axis-domain" pointer-events="none"><line transform="translate(0,300)" x2="0" y2="-300" stroke="#888" stroke-width="1" opacity="1"></line></g><g class="mark-text role-axis-title" pointer-events="none"><text text-anchor="middle" transform="translate(-31,150) rotate(-90) translate(0,-2)" font-family="sans-serif" font-size="11px" font-weight="bold" fill="#000" opacity="1">Wind Generation [TW]</text></g></g><path class="foreground" aria-hidden="true" d="" pointer-events="none" display="none"></path></g></g><g class="mark-line role-mark layer_0_marks" role="graphics-object" aria-roledescription="line mark container"><path aria-label="year: 1989; Wind Generation [TW]: 0.000906140223737; TW: 0.00" role="graphics-symbol" aria-roledescription="line mark" d="M0,299.32L26.258,299.078L52.517,298.928L78.775,298.804L105.106,298.563L131.364,298.116L157.623,297.948L183.881,297.592L210.212,296.892L236.47,295.881L262.729,294.553L288.987,291.977L315.318,290.059L341.576,286.54L367.835,283.674L394.093,278.869L420.424,273.919L446.682,267.211L472.941,257.727L499.199,245.566L525.53,232.441L551.788,216.941L578.047,194.166L604.305,175.617L630.636,146.012L656.894,129.723L683.153,106.596L709.411,78.656L735.742,40.165L762,11.115" stroke="dodgerblue" stroke-width="2"></path></g><g class="mark-symbol role-mark layer_1_marks" role="graphics-object" aria-roledescription="symbol mark container"><path aria-label="year: 1989; Wind Generation [TW]: 0.000906140223737; TW: 0.00" role="graphics-symbol" aria-roledescription="point" transform="translate(0,299.3203948321972)" d="M2.739,0A2.739,2.739,0,1,1,-2.739,0A2.739,2.739,0,1,1,2.739,0" fill="dodgerblue" stroke-width="2" opacity="0.7"></path><path aria-label="year: 1990; Wind Generation [TW]: 0.00122958744401; TW: 0.00" role="graphics-symbol" aria-roledescription="point" transform="translate(26.258496978851966,299.0778094169931)" d="M2.739,0A2.739,2.739,0,1,1,-2.739,0A2.739,2.739,0,1,1,2.739,0" fill="dodgerblue" stroke-width="2" opacity="0.7"></path><path aria-label="year: 1991; Wind Generation [TW]: 0.00142948017111; TW: 0.00" role="graphics-symbol" aria-roledescription="point" transform="translate(52.51699395770393,298.9278898716705)" d="M2.739,0A2.739,2.739,0,1,1,-2.739,0A2.739,2.739,0,1,1,2.739,0" fill="dodgerblue" stroke-width="2" opacity="0.7"></path><path aria-label="year: 1992; Wind Generation [TW]: 0.00159451525714; TW: 0.00" role="graphics-symbol" aria-roledescription="point" transform="translate(78.77549093655588,298.8041135571429)" d="M2.739,0A2.739,2.739,0,1,1,-2.739,0A2.739,2.739,0,1,1,2.739,0" fill="dodgerblue" stroke-width="2" opacity="0.7"></path><path aria-label="year: 1993; Wind Generation [TW]: 0.00191558582007; TW: 0.00" role="graphics-symbol" aria-roledescription="point" transform="translate(105.10592900302116,298.5633106349475)" d="M2.739,0A2.739,2.739,0,1,1,-2.739,0A2.739,2.739,0,1,1,2.739,0" fill="dodgerblue" stroke-width="2" opacity="0.7"></path><path aria-label="year: 1994; Wind Generation [TW]: 0.0025126338339; TW: 0.00" role="graphics-symbol" aria-roledescription="point" transform="translate(131.3644259818731,298.11552462457604)" d="M2.739,0A2.739,2.739,0,1,1,-2.739,0A2.739,2.739,0,1,1,2.739,0" fill="dodgerblue" stroke-width="2" opacity="0.7"></path><path aria-label="year: 1995; Wind Generation [TW]: 0.00273613469062; TW: 0.00" role="graphics-symbol" aria-roledescription="point" transform="translate(157.62292296072508,297.94789898203317)" d="M2.739,0A2.739,2.739,0,1,1,-2.739,0A2.739,2.739,0,1,1,2.739,0" fill="dodgerblue" stroke-width="2" opacity="0.7"></path><path aria-label="year: 1996; Wind Generation [TW]: 0.00321124433827; TW: 0.00" role="graphics-symbol" aria-roledescription="point" transform="translate(183.88141993957703,297.59156674629736)" d="M2.739,0A2.739,2.739,0,1,1,-2.739,0A2.739,2.739,0,1,1,2.739,0" fill="dodgerblue" stroke-width="2" opacity="0.7"></path><path aria-label="year: 1997; Wind Generation [TW]: 0.00414355948157; TW: 0.00" role="graphics-symbol" aria-roledescription="point" transform="translate(210.21185800604232,296.89233038882486)" d="M2.739,0A2.739,2.739,0,1,1,-2.739,0A2.739,2.739,0,1,1,2.739,0" fill="dodgerblue" stroke-width="2" opacity="0.7"></path><path aria-label="year: 1998; Wind Generation [TW]: 0.00549178966024; TW: 0.01" role="graphics-symbol" aria-roledescription="point" transform="translate(236.47035498489424,295.8811577548212)" d="M2.739,0A2.739,2.739,0,1,1,-2.739,0A2.739,2.739,0,1,1,2.739,0" fill="dodgerblue" stroke-width="2" opacity="0.7"></path><path aria-label="year: 1999; Wind Generation [TW]: 0.00726243107103; TW: 0.01" role="graphics-symbol" aria-roledescription="point" transform="translate(262.7288519637462,294.553176696729)" d="M2.739,0A2.739,2.739,0,1,1,-2.739,0A2.739,2.739,0,1,1,2.739,0" fill="dodgerblue" stroke-width="2" opacity="0.7"></path><path aria-label="year: 2000; Wind Generation [TW]: 0.0106969227559; TW: 0.01" role="graphics-symbol" aria-roledescription="point" transform="translate(288.9873489425982,291.97730793307113)" d="M2.739,0A2.739,2.739,0,1,1,-2.739,0A2.739,2.739,0,1,1,2.739,0" fill="dodgerblue" stroke-width="2" opacity="0.7"></path><path aria-label="year: 2001; Wind Generation [TW]: 0.0132546813906; TW: 0.01" role="graphics-symbol" aria-roledescription="point" transform="translate(315.31778700906347,290.05898895705434)" d="M2.739,0A2.739,2.739,0,1,1,-2.739,0A2.739,2.739,0,1,1,2.739,0" fill="dodgerblue" stroke-width="2" opacity="0.7"></path><path aria-label="year: 2002; Wind Generation [TW]: 0.0179468050762; TW: 0.02" role="graphics-symbol" aria-roledescription="point" transform="translate(341.57628398791536,286.5398961928863)" d="M2.739,0A2.739,2.739,0,1,1,-2.739,0A2.739,2.739,0,1,1,2.739,0" fill="dodgerblue" stroke-width="2" opacity="0.7"></path><path aria-label="year: 2003; Wind Generation [TW]: 0.0217684700869; TW: 0.02" role="graphics-symbol" aria-roledescription="point" transform="translate(367.83478096676737,283.6736474348163)" d="M2.739,0A2.739,2.739,0,1,1,-2.739,0A2.739,2.739,0,1,1,2.739,0" fill="dodgerblue" stroke-width="2" opacity="0.7"></path><path aria-label="year: 2004; Wind Generation [TW]: 0.0281746390497; TW: 0.03" role="graphics-symbol" aria-roledescription="point" transform="translate(394.0932779456194,278.8690207127377)" d="M2.739,0A2.739,2.739,0,1,1,-2.739,0A2.739,2.739,0,1,1,2.739,0" fill="dodgerblue" stroke-width="2" opacity="0.7"></path><path aria-label="year: 2005; Wind Generation [TW]: 0.0347742679203; TW: 0.03" role="graphics-symbol" aria-roledescription="point" transform="translate(420.42371601208464,273.91929905974695)" d="M2.739,0A2.739,2.739,0,1,1,-2.739,0A2.739,2.739,0,1,1,2.739,0" fill="dodgerblue" stroke-width="2" opacity="0.7"></path><path aria-label="year: 2006; Wind Generation [TW]: 0.0437181999073; TW: 0.04" role="graphics-symbol" aria-roledescription="point" transform="translate(446.68221299093653,267.2113500694986)" d="M2.739,0A2.739,2.739,0,1,1,-2.739,0A2.739,2.739,0,1,1,2.739,0" fill="dodgerblue" stroke-width="2" opacity="0.7"></path><path aria-label="year: 2007; Wind Generation [TW]: 0.0563643619513; TW: 0.06" role="graphics-symbol" aria-roledescription="point" transform="translate(472.9407099697885,257.7267285365133)" d="M2.739,0A2.739,2.739,0,1,1,-2.739,0A2.739,2.739,0,1,1,2.739,0" fill="dodgerblue" stroke-width="2" opacity="0.7"></path><path aria-label="year: 2008; Wind Generation [TW]: 0.0725784570679; TW: 0.07" role="graphics-symbol" aria-roledescription="point" transform="translate(499.19920694864044,245.56615719907217)" d="M2.739,0A2.739,2.739,0,1,1,-2.739,0A2.739,2.739,0,1,1,2.739,0" fill="dodgerblue" stroke-width="2" opacity="0.7"></path><path aria-label="year: 2009; Wind Generation [TW]: 0.0900792427823; TW: 0.09" role="graphics-symbol" aria-roledescription="point" transform="translate(525.5296450151058,232.4405679132672)" d="M2.739,0A2.739,2.739,0,1,1,-2.739,0A2.739,2.739,0,1,1,2.739,0" fill="dodgerblue" stroke-width="2" opacity="0.7"></path><path aria-label="year: 2010; Wind Generation [TW]: 0.110744785417; TW: 0.11" role="graphics-symbol" aria-roledescription="point" transform="translate(551.7881419939578,216.94141093701077)" d="M2.739,0A2.739,2.739,0,1,1,-2.739,0A2.739,2.739,0,1,1,2.739,0" fill="dodgerblue" stroke-width="2" opacity="0.7"></path><path aria-label="year: 2011; Wind Generation [TW]: 0.141112065156; TW: 0.14" role="graphics-symbol" aria-roledescription="point" transform="translate(578.0466389728097,194.16595113302267)" d="M2.739,0A2.739,2.739,0,1,1,-2.739,0A2.739,2.739,0,1,1,2.739,0" fill="dodgerblue" stroke-width="2" opacity="0.7"></path><path aria-label="year: 2012; Wind Generation [TW]: 0.165843941753; TW: 0.17" role="graphics-symbol" aria-roledescription="point" transform="translate(604.3051359516617,175.61704368508876)" d="M2.739,0A2.739,2.739,0,1,1,-2.739,0A2.739,2.739,0,1,1,2.739,0" fill="dodgerblue" stroke-width="2" opacity="0.7"></path><path aria-label="year: 2013; Wind Generation [TW]: 0.205317431642; TW: 0.21" role="graphics-symbol" aria-roledescription="point" transform="translate(630.6355740181269,146.01192626821486)" d="M2.739,0A2.739,2.739,0,1,1,-2.739,0A2.739,2.739,0,1,1,2.739,0" fill="dodgerblue" stroke-width="2" opacity="0.7"></path><path aria-label="year: 2014; Wind Generation [TW]: 0.227035960236; TW: 0.23" role="graphics-symbol" aria-roledescription="point" transform="translate(656.8940709969788,129.72302982278836)" d="M2.739,0A2.739,2.739,0,1,1,-2.739,0A2.739,2.739,0,1,1,2.739,0" fill="dodgerblue" stroke-width="2" opacity="0.7"></path><path aria-label="year: 2015; Wind Generation [TW]: 0.257871980181; TW: 0.26" role="graphics-symbol" aria-roledescription="point" transform="translate(683.1525679758307,106.59601486432793)" d="M2.739,0A2.739,2.739,0,1,1,-2.739,0A2.739,2.739,0,1,1,2.739,0" fill="dodgerblue" stroke-width="2" opacity="0.7"></path><path aria-label="year: 2016; Wind Generation [TW]: 0.295125893931; TW: 0.30" role="graphics-symbol" aria-roledescription="point" transform="translate(709.4110649546828,78.65557955161229)" d="M2.739,0A2.739,2.739,0,1,1,-2.739,0A2.739,2.739,0,1,1,2.739,0" fill="dodgerblue" stroke-width="2" opacity="0.7"></path><path aria-label="year: 2017; Wind Generation [TW]: 0.346446355221; TW: 0.35" role="graphics-symbol" aria-roledescription="point" transform="translate(735.7415030211481,40.16523358416215)" d="M2.739,0A2.739,2.739,0,1,1,-2.739,0A2.739,2.739,0,1,1,2.739,0" fill="dodgerblue" stroke-width="2" opacity="0.7"></path><path aria-label="year: 2018; Wind Generation [TW]: 0.385179880768; TW: 0.39" role="graphics-symbol" aria-roledescription="point" transform="translate(762,11.115089423919178)" d="M2.739,0A2.739,2.739,0,1,1,-2.739,0A2.739,2.739,0,1,1,2.739,0" fill="dodgerblue" stroke-width="2" opacity="0.7"></path></g></g><path class="foreground" aria-hidden="true" d="" display="none"></path></g></g></g></svg>