<svg xmlns="http://www.w3.org/2000/svg" xmlns:xlink="http://www.w3.org/1999/xlink" version="1.1" class="marks" width="966" height="264" viewBox="0 0 966 264" style="background-color: white;"><g fill="none" stroke-miterlimit="10" transform="translate(65,27)"><g class="mark-group role-frame root" role="graphics-object" aria-roledescription="group mark container"><g transform="translate(0,0)"><path class="background" aria-hidden="true" d="M0.5,0.5h800v200h-800Z" fill="transparent" stroke="#ddd"></path><g><g class="mark-group role-axis" aria-hidden="true"><g transform="translate(0.5,200.5)"><path class="background" aria-hidden="true" d="M0,0h0v0h0Z" pointer-events="none"></path><g><g class="mark-rule role-axis-grid" pointer-events="none"><line transform="translate(21,-200)" x2="0" y2="200" stroke="#ddd" stroke-width="1" opacity="1"></line><line transform="translate(84,-200)" x2="0" y2="200" stroke="#ddd" stroke-width="1" opacity="1"></line><line transform="translate(148,-200)" x2="0" y2="200" stroke="#ddd" stroke-width="1" opacity="1"></line><line transform="translate(212,-200)" x2="0" y2="200" stroke="#ddd" stroke-width="1" opacity="1"></line><line transform="translate(274,-200)" x2="0" y2="200" stroke="#ddd" stroke-width="1" opacity="1"></line><line transform="translate(337,-200)" x2="0" y2="200" stroke="#ddd" stroke-width="1" opacity="1"></line><line transform="translate(401,-200)" x2="0" y2="200" stroke="#ddd" stroke-width="1" opacity="1"></line><line transform="translate(464,-200)" x2="0" y2="200" stroke="#ddd" stroke-width="1" opacity="1"></line><line transform="translate(527,-200)" x2="0" y2="200" stroke="#ddd" stroke-width="1" opacity="1"></line><line transform="translate(590,-200)" x2="0" y2="200" stroke="#ddd" stroke-width="1" opacity="1"></line><line transform="translate(653,-200)" x2="0" y2="200" stroke="#ddd" stroke-width="1" opacity="1"></line><line transform="translate(717,-200)" x2="0" y2="200" stroke="#ddd" stroke-width="1" opacity="1"></line><line transform="translate(779,-200)" x2="0" y2="200" stroke="#ddd" stroke-width="1" opacity="1"></line></g></g><path class="foreground" aria-hidden="true" d="" pointer-events="none" display="none"></path></g></g><g class="mark-group role-axis" aria-hidden="true"><g transform="translate(0.5,0.5)"><path class="background" aria-hidden="true" d="M0,0h0v0h0Z" pointer-events="none"></path><g><g class="mark-rule role-axis-grid" pointer-events="none"><line transform="translate(0,200)" x2="800" y2="0" stroke="#ddd" stroke-width="1" opacity="1"></line><line transform="translate(0,160)" x2="800" y2="0" stroke="#ddd" stroke-width="1" opacity="1"></line><line transform="translate(0,120)" x2="800" y2="0" stroke="#ddd" stroke-width="1" opacity="1"></line><line transform="translate(0,80)" x2="800" y2="0" stroke="#ddd" stroke-width="1" opacity="1"></line><line transform="translate(0,40)" x2="800" y2="0" stroke="#ddd" stroke-width="1" opacity="1"></line><line transform="translate(0,0)" x2="800" y2="0" stroke="#ddd" stroke-width="1" opacity="1"></line></g></g><path class="foreground" aria-hidden="true" d="" pointer-events="none" display="none"></path></g></g><g class="mark-group role-axis" role="graphics-symbol" aria-roledescription="axis" aria-label="X-axis titled 'Date' for a time scale with values from Sunday, 01 March 2020, 12:00:00 AM to Monday, 01 May 2023, 12:00:00 AM"><g transform="translate(0.5,200.5)"><path class="background" aria-hidden="true" d="M0,0h0v0h0Z" pointer-events="none"></path><g><g class="mark-rule role-axis-tick" pointer-events="none"><line transform="translate(21,0)" x2="0" y2="5" stroke="#888" stroke-width="1" opacity="1"></line><line transform="translate(84,0)" x2="0" y2="5" stroke="#888" stroke-width="1" opacity="1"></line><line transform="translate(148,0)" x2="0" y2="5" stroke="#888" stroke-width="1" opacity="1"></line><line transform="translate(212,0)" x2="0" y2="5" stroke="#888" stroke-width="1" opacity="1"></line><line transform="translate(274,0)" x2="0" y2="5" stroke="#888" stroke-width="1" opacity="1"></line><line transform="translate(337,0)" x2="0" y2="5" stroke="#888" stroke-width="1" opacity="1"></line><line transform="translate(401,0)" x2="0" y2="5" stroke="#888" stroke-width="1" opacity="1"></line><line transform="translate(464,0)" x2="0" y2="5" stroke="#888" stroke-width="1" opacity="1"></line><line transform="translate(527,0)" x2="0" y2="5" stroke="#888" stroke-width="1" opacity="1"></line><line transform="translate(590,0)" x2="0" y2="5" stroke="#888" stroke-width="1" opacity="1"></line><line transform="translate(653,0)" x2="0" y2="5" stroke="#888" stroke-width="1" opacity="1"></line><line transform="translate(717,0)" x2="0" y2="5" stroke="#888" stroke-width="1" opacity="1"></line><line transform="translate(779,0)" x2="0" y2="5" stroke="#888" stroke-width="1" opacity="1"></line></g><g class="mark-text role-axis-label" pointer-events="none"><text text-anchor="middle" transform="translate(21.453287197231834,15)" font-family="sans-serif" font-size="10px" fill="#000" opacity="1">April</text><text text-anchor="middle" transform="translate(84.42906574394463,15)" font-family="sans-serif" font-size="10px" fill="#000" opacity="1">July</text><text text-anchor="middle" transform="translate(148.0968858131488,15)" font-family="sans-serif" font-size="10px" fill="#000" opacity="1">October</text><text text-anchor="middle" transform="translate(211.76470588235296,15)" font-family="sans-serif" font-size="10px" fill="#000" opacity="1">2021</text><text text-anchor="middle" transform="translate(274.0484429065744,15)" font-family="sans-serif" font-size="10px" fill="#000" opacity="1">April</text><text text-anchor="middle" transform="translate(337.0242214532872,15)" font-family="sans-serif" font-size="10px" fill="#000" opacity="1">July</text><text text-anchor="middle" transform="translate(400.6920415224913,15)" font-family="sans-serif" font-size="10px" fill="#000" opacity="1">October</text><text text-anchor="middle" transform="translate(464.35986159169545,15)" font-family="sans-serif" font-size="10px" fill="#000" opacity="1">2022</text><text text-anchor="middle" transform="translate(526.643598615917,15)" font-family="sans-serif" font-size="10px" fill="#000" opacity="1">April</text><text text-anchor="middle" transform="translate(589.6193771626297,15)" font-family="sans-serif" font-size="10px" fill="#000" opacity="1">July</text><text text-anchor="middle" transform="translate(653.2871972318338,15)" font-family="sans-serif" font-size="10px" fill="#000" opacity="1">October</text><text text-anchor="middle" transform="translate(716.9550173010381,15)" font-family="sans-serif" font-size="10px" fill="#000" opacity="1">2023</text><text text-anchor="middle" transform="translate(779.2387543252596,15)" font-family="sans-serif" font-size="10px" fill="#000" opacity="1">April</text></g><g class="mark-rule role-axis-domain" pointer-events="none"><line transform="translate(0,0)" x2="800" y2="0" stroke="#888" stroke-width="1" opacity="1"></line></g><g class="mark-text role-axis-title" pointer-events="none"><text text-anchor="middle" transform="translate(400,30)" font-family="sans-serif" font-size="11px" font-weight="bold" fill="#000" opacity="1">Date</text></g></g><path class="foreground" aria-hidden="true" d="" pointer-events="none" display="none"></path></g></g><g class="mark-group role-axis" role="graphics-symbol" aria-roledescription="axis" aria-label="Y-axis titled 'Downloads' for a linear scale with values from 0 to 500,000"><g transform="translate(0.5,0.5)"><path class="background" aria-hidden="true" d="M0,0h0v0h0Z" pointer-events="none"></path><g><g class="mark-rule role-axis-tick" pointer-events="none"><line transform="translate(0,200)" x2="-5" y2="0" stroke="#888" stroke-width="1" opacity="1"></line><line transform="translate(0,160)" x2="-5" y2="0" stroke="#888" stroke-width="1" opacity="1"></line><line transform="translate(0,120)" x2="-5" y2="0" stroke="#888" stroke-width="1" opacity="1"></line><line transform="translate(0,80)" x2="-5" y2="0" stroke="#888" stroke-width="1" opacity="1"></line><line transform="translate(0,40)" x2="-5" y2="0" stroke="#888" stroke-width="1" opacity="1"></line><line transform="translate(0,0)" x2="-5" y2="0" stroke="#888" stroke-width="1" opacity="1"></line></g><g class="mark-text role-axis-label" pointer-events="none"><text text-anchor="end" transform="translate(-7,203)" font-family="sans-serif" font-size="10px" fill="#000" opacity="1">0</text><text text-anchor="end" transform="translate(-7,163)" font-family="sans-serif" font-size="10px" fill="#000" opacity="1">100,000</text><text text-anchor="end" transform="translate(-7,123)" font-family="sans-serif" font-size="10px" fill="#000" opacity="1">200,000</text><text text-anchor="end" transform="translate(-7,83)" font-family="sans-serif" font-size="10px" fill="#000" opacity="1">300,000</text><text text-anchor="end" transform="translate(-7,42.99999999999999)" font-family="sans-serif" font-size="10px" fill="#000" opacity="1">400,000</text><text text-anchor="end" transform="translate(-7,3)" font-family="sans-serif" font-size="10px" fill="#000" opacity="1">500,000</text></g><g class="mark-rule role-axis-domain" pointer-events="none"><line transform="translate(0,200)" x2="0" y2="-200" stroke="#888" stroke-width="1" opacity="1"></line></g><g class="mark-text role-axis-title" pointer-events="none"><text text-anchor="middle" transform="translate(-48.5927734375,100) rotate(-90) translate(0,-2)" font-family="sans-serif" font-size="11px" font-weight="bold" fill="#000" opacity="1">Downloads</text></g></g><path class="foreground" aria-hidden="true" d="" pointer-events="none" display="none"></path></g></g><g class="mark-group role-scope pathgroup" role="graphics-object" aria-roledescription="group mark container"><g transform="translate(0,0)"><path class="background" aria-hidden="true" d="M0,0h800v200h-800Z"></path><g><g class="mark-area role-mark marks" role="graphics-object" aria-roledescription="area mark container"><path aria-label="Date: Mar 01, 2020; Downloads: 1763; Major Release: 0; Num Downloads: 1,763; Major release: 0" role="graphics-symbol" aria-roledescription="area mark" d="M0,199.295L21.453,199.787L42.215,199.056L63.668,197.727L84.429,194.809L105.882,186.286L127.336,187.036L148.097,185.412L169.55,183.079L190.311,182.398L211.765,181.668L233.218,177.156L252.595,166.865L274.048,173.409L294.81,172.578L316.263,172.22L337.024,174.907L358.478,166.899L379.931,143.97L400.692,98.541L422.145,119.172L442.907,127.342L464.36,127.011L485.813,131.729L505.19,96.811L526.644,93.77L547.405,92.835L568.858,98.579L589.619,96.74L611.073,92.961L632.526,103.278L653.287,82.998L674.74,90.606L695.502,97.973L716.955,75.595L738.408,81.981L757.785,49.534L779.239,12.384L800,37.096L800,53.283L779.239,28.252L757.785,67.738L738.408,98.2L716.955,90.768L695.502,111.343L674.74,105.84L653.287,98.447L632.526,118.437L611.073,107.455L589.619,112.536L568.858,115.87L547.405,110.074L526.644,110.386L505.19,114.05L485.813,148.14L464.36,147.17L442.907,146.586L422.145,137.754L400.692,116.978L379.931,155.114L358.478,182.194L337.024,184.246L316.263,186.143L294.81,187.347L274.048,188.496L252.595,180.877L233.218,190.344L211.765,198.49L190.311,200L169.55,200L148.097,200L127.336,200L105.882,200L84.429,200L63.668,200L42.215,200L21.453,200L0,200Z" fill="#4c78a8"></path></g></g><path class="foreground" aria-hidden="true" d="" display="none"></path></g><g transform="translate(0,0)"><path class="background" aria-hidden="true" d="M0,0h800v200h-800Z"></path><g><g class="mark-area role-mark marks" role="graphics-object" aria-roledescription="area mark container"><path aria-label="Date: Mar 01, 2020; Downloads: 0; Major Release: 1; Num Downloads: 0; Major release: 1" role="graphics-symbol" aria-roledescription="area mark" d="M0,200L21.453,200L42.215,200L63.668,200L84.429,200L105.882,200L127.336,200L148.097,200L169.55,200L190.311,200L211.765,198.49L233.218,190.344L252.595,180.877L274.048,188.496L294.81,187.347L316.263,186.143L337.024,184.246L358.478,182.194L379.931,155.114L400.692,116.978L422.145,137.754L442.907,146.586L464.36,147.17L485.813,148.14L505.19,114.05L526.644,110.386L547.405,110.074L568.858,115.87L589.619,112.536L611.073,107.455L632.526,118.437L653.287,98.447L674.74,105.84L695.502,111.343L716.955,90.768L738.408,98.2L757.785,67.738L779.239,28.252L800,53.283L800,54.622L779.239,28.985L757.785,68.956L738.408,99.182L716.955,91.71L695.502,112.587L674.74,106.954L653.287,99.706L632.526,119.638L611.073,108.621L589.619,113.744L568.858,117.868L547.405,112.532L526.644,113.264L505.19,117.357L485.813,150.924L464.36,150.493L442.907,149.44L422.145,155.949L400.692,200L379.931,200L358.478,200L337.024,200L316.263,200L294.81,200L274.048,200L252.595,200L233.218,200L211.765,200L190.311,200L169.55,200L148.097,200L127.336,200L105.882,200L84.429,200L63.668,200L42.215,200L21.453,200L0,200Z" fill="#f58518"></path></g></g><path class="foreground" aria-hidden="true" d="" display="none"></path></g><g transform="translate(0,0)"><path class="background" aria-hidden="true" d="M0,0h800v200h-800Z"></path><g><g class="mark-area role-mark marks" role="graphics-object" aria-roledescription="area mark container"><path aria-label="Date: Mar 01, 2020; Downloads: 0; Major Release: 2; Num Downloads: 0; Major release: 2" role="graphics-symbol" aria-roledescription="area mark" d="M0,200L21.453,200L42.215,200L63.668,200L84.429,200L105.882,200L127.336,200L148.097,200L169.55,200L190.311,200L211.765,200L233.218,200L252.595,200L274.048,200L294.81,200L316.263,200L337.024,200L358.478,200L379.931,200L400.692,200L422.145,155.949L442.907,149.44L464.36,150.493L485.813,150.924L505.19,117.357L526.644,113.264L547.405,112.532L568.858,117.868L589.619,113.744L611.073,108.621L632.526,119.638L653.287,99.706L674.74,106.954L695.502,112.587L716.955,91.71L738.408,99.182L757.785,68.956L779.239,28.985L800,54.622L800,60.526L779.239,34.726L757.785,73.494L738.408,108.636L716.955,102.72L695.502,117.936L674.74,121.497L653.287,118.453L632.526,131.77L611.073,126.113L589.619,155.021L568.858,198.576L547.405,199.091L526.644,198.947L505.19,199.628L485.813,200L464.36,200L442.907,200L422.145,200L400.692,200L379.931,200L358.478,200L337.024,200L316.263,200L294.81,200L274.048,200L252.595,200L233.218,200L211.765,200L190.311,200L169.55,200L148.097,200L127.336,200L105.882,200L84.429,200L63.668,200L42.215,200L21.453,200L0,200Z" fill="#e45756"></path></g></g><path class="foreground" aria-hidden="true" d="" display="none"></path></g><g transform="translate(0,0)"><path class="background" aria-hidden="true" d="M0,0h800v200h-800Z"></path><g><g class="mark-area role-mark marks" role="graphics-object" aria-roledescription="area mark container"><path aria-label="Date: Mar 01, 2020; Downloads: 0; Major Release: 3; Num Downloads: 0; Major release: 3" role="graphics-symbol" aria-roledescription="area mark" d="M0,200L21.453,200L42.215,200L63.668,200L84.429,200L105.882,200L127.336,200L148.097,200L169.55,200L190.311,200L211.765,200L233.218,200L252.595,200L274.048,200L294.81,200L316.263,200L337.024,200L358.478,200L379.931,200L400.692,200L422.145,200L442.907,200L464.36,200L485.813,200L505.19,199.628L526.644,198.947L547.405,199.091L568.858,198.576L589.619,155.021L611.073,126.113L632.526,131.77L653.287,118.453L674.74,121.497L695.502,117.936L716.955,102.72L738.408,108.636L757.785,73.494L779.239,34.726L800,60.526L800,200L779.239,200L757.785,200L738.408,200L716.955,200L695.502,200L674.74,200L653.287,200L632.526,200L611.073,200L589.619,200L568.858,200L547.405,200L526.644,200L505.19,200L485.813,200L464.36,200L442.907,200L422.145,200L400.692,200L379.931,200L358.478,200L337.024,200L316.263,200L294.81,200L274.048,200L252.595,200L233.218,200L211.765,200L190.311,200L169.55,200L148.097,200L127.336,200L105.882,200L84.429,200L63.668,200L42.215,200L21.453,200L0,200Z" fill="#72b7b2"></path></g></g><path class="foreground" aria-hidden="true" d="" display="none"></path></g></g><g class="mark-group role-legend" role="graphics-symbol" aria-roledescription="legend" aria-label="Symbol legend titled 'Major Release' for fill color with 4 values: 0, 1, 2, 3"><g transform="translate(818,0)"><path class="background" aria-hidden="true" d="M0,0h78v66h-78Z" pointer-events="none"></path><g><g class="mark-group role-legend-entry"><g transform="translate(0,16)"><path class="background" aria-hidden="true" d="M0,0h0v0h0Z" pointer-events="none"></path><g><g class="mark-group role-scope" role="graphics-object" aria-roledescription="group mark container"><g transform="translate(0,0)"><path class="background" aria-hidden="true" d="M0,0h21.8642578125v11h-21.8642578125Z" pointer-events="none" opacity="1"></path><g><g class="mark-symbol role-legend-symbol" pointer-events="none"><path transform="translate(6,6)" d="M5,0A5,5,0,1,1,-5,0A5,5,0,1,1,5,0" fill="#4c78a8" stroke-width="1.5" opacity="1"></path></g><g class="mark-text role-legend-label" pointer-events="none"><text text-anchor="start" transform="translate(16,9)" font-family="sans-serif" font-size="10px" fill="#000" opacity="1">0</text></g></g><path class="foreground" aria-hidden="true" d="" pointer-events="none" display="none"></path></g><g transform="translate(0,13)"><path class="background" aria-hidden="true" d="M0,0h21.8642578125v11h-21.8642578125Z" pointer-events="none" opacity="1"></path><g><g class="mark-symbol role-legend-symbol" pointer-events="none"><path transform="translate(6,6)" d="M5,0A5,5,0,1,1,-5,0A5,5,0,1,1,5,0" fill="#f58518" stroke-width="1.5" opacity="1"></path></g><g class="mark-text role-legend-label" pointer-events="none"><text text-anchor="start" transform="translate(16,9)" font-family="sans-serif" font-size="10px" fill="#000" opacity="1">1</text></g></g><path class="foreground" aria-hidden="true" d="" pointer-events="none" display="none"></path></g><g transform="translate(0,26)"><path class="background" aria-hidden="true" d="M0,0h21.8642578125v11h-21.8642578125Z" pointer-events="none" opacity="1"></path><g><g class="mark-symbol role-legend-symbol" pointer-events="none"><path transform="translate(6,6)" d="M5,0A5,5,0,1,1,-5,0A5,5,0,1,1,5,0" fill="#e45756" stroke-width="1.5" opacity="1"></path></g><g class="mark-text role-legend-label" pointer-events="none"><text text-anchor="start" transform="translate(16,9)" font-family="sans-serif" font-size="10px" fill="#000" opacity="1">2</text></g></g><path class="foreground" aria-hidden="true" d="" pointer-events="none" display="none"></path></g><g transform="translate(0,39)"><path class="background" aria-hidden="true" d="M0,0h21.8642578125v11h-21.8642578125Z" pointer-events="none" opacity="1"></path><g><g class="mark-symbol role-legend-symbol" pointer-events="none"><path transform="translate(6,6)" d="M5,0A5,5,0,1,1,-5,0A5,5,0,1,1,5,0" fill="#72b7b2" stroke-width="1.5" opacity="1"></path></g><g class="mark-text role-legend-label" pointer-events="none"><text text-anchor="start" transform="translate(16,9)" font-family="sans-serif" font-size="10px" fill="#000" opacity="1">3</text></g></g><path class="foreground" aria-hidden="true" d="" pointer-events="none" display="none"></path></g></g></g><path class="foreground" aria-hidden="true" d="" pointer-events="none" display="none"></path></g></g><g class="mark-text role-legend-title" pointer-events="none"><text text-anchor="start" transform="translate(0,9)" font-family="sans-serif" font-size="11px" font-weight="bold" fill="#000" opacity="1">Major Release</text></g></g><path class="foreground" aria-hidden="true" d="" pointer-events="none" display="none"></path></g></g><g class="mark-group role-title"><g transform="translate(400,-22)"><path class="background" aria-hidden="true" d="M0,0h0v0h0Z" pointer-events="none"></path><g><g class="mark-text role-title-text" role="graphics-symbol" aria-roledescription="title" aria-label="Title text 'Monthly downloads by Major Release'" pointer-events="none"><text text-anchor="middle" transform="translate(0,10)" font-family="sans-serif" font-size="13px" font-weight="bold" fill="#000" opacity="1">Monthly downloads by Major Release</text></g></g><path class="foreground" aria-hidden="true" d="" pointer-events="none" display="none"></path></g></g></g><path class="foreground" aria-hidden="true" d="" display="none"></path></g></g></g></svg>