<svg xmlns="http://www.w3.org/2000/svg" xmlns:xlink="http://www.w3.org/1999/xlink" version="1.1" class="marks" width="288" height="200" viewBox="0 0 288 200" style="background-color: white;"><g fill="none" stroke-miterlimit="10" transform="translate(0,0)"><g class="mark-group role-frame root" role="graphics-object" aria-roledescription="group mark container"><g transform="translate(0,0)"><path class="background" aria-hidden="true" d="M0,0h200v200h-200Z" fill="transparent"></path><g><g class="mark-arc role-mark Road_Pie_Chart_marks" role="graphics-object" aria-roledescription="arc mark container"><path aria-label="value: 4.5; category: Mountains; order: 1" role="graphics-symbol" aria-roledescription="arc mark" transform="translate(100,100)" d="M100,-0.306A100,100,0,0,0,95.944,-28.192L0,0Z" fill="#1F7744" opacity="1"></path><path aria-label="value: 9; category: Grass; order: 2" role="graphics-symbol" aria-roledescription="arc mark" transform="translate(100,100)" d="M84.597,53.323A100,100,0,0,0,100,-0.306L0,0Z" fill="#439145" opacity="1"></path><path aria-label="value: 13.5; category: Road; order: 3" role="graphics-symbol" aria-roledescription="arc mark" transform="translate(100,100)" d="M15.95,98.72A100,100,0,0,0,84.597,53.323L0,0Z" fill="#4D4D4B" opacity="1"></path><path aria-label="value: 5; category: Sidewalk; order: 4" role="graphics-symbol" aria-roledescription="arc mark" transform="translate(100,100)" d="M-15.336,98.817A100,100,0,0,0,15.95,98.72L0,0Z" fill="#ABAAAE" opacity="1"></path><path aria-label="value: 13.5; category: Beach; order: 5" role="graphics-symbol" aria-roledescription="arc mark" transform="translate(100,100)" d="M-84.264,53.847A100,100,0,0,0,-15.336,98.817L0,0Z" fill="#E7C641" opacity="1"></path><path aria-label="value: 9; category: Ocean; order: 6" role="graphics-symbol" aria-roledescription="arc mark" transform="translate(100,100)" d="M-100,0.315A100,100,0,0,0,-84.264,53.847L0,0Z" fill="#2A518A" opacity="1"></path><path aria-label="value: 45.5; category: Sky; order: 7" role="graphics-symbol" aria-roledescription="arc mark" transform="translate(100,100)" d="M95.939,-28.21A100,100,0,0,0,-100,0.315L0,0Z" fill="#6499F9" opacity="1"></path></g><g class="mark-group role-legend" role="graphics-symbol" aria-roledescription="legend" aria-label="Symbol legend for fill color with 7 values: Mountains, Grass, Road, Sidewalk, Beach, Ocean, Sky"><g transform="translate(220,55)"><path class="background" aria-hidden="true" d="M0,0h68v89h-68Z" pointer-events="none" fill="transparent"></path><g><g class="mark-group role-legend-entry"><g transform="translate(0,0)"><path class="background" aria-hidden="true" d="M0,0h0v0h0Z" pointer-events="none"></path><g><g class="mark-group role-scope category_legend_entries" role="graphics-object" aria-roledescription="group mark container"><g transform="translate(0,0)"><path class="background" aria-hidden="true" d="M0,0h67.1572265625v11h-67.1572265625Z" fill="transparent" opacity="1"></path><g><g class="mark-symbol role-legend-symbol category_legend_symbols"><path transform="translate(6,6)" d="M5,0A5,5,0,1,1,-5,0A5,5,0,1,1,5,0" fill="#1F7744" stroke-width="1.5" opacity="1"></path></g><g class="mark-text role-legend-label category_legend_labels"><text text-anchor="start" transform="translate(16,9)" font-family="Roboto" font-size="10px" fill="#44475a" opacity="1">Mountains</text></g></g><path class="foreground" aria-hidden="true" d="" display="none"></path></g><g transform="translate(0,13)"><path class="background" aria-hidden="true" d="M0,0h67.1572265625v11h-67.1572265625Z" fill="transparent" opacity="1"></path><g><g class="mark-symbol role-legend-symbol category_legend_symbols"><path transform="translate(6,6)" d="M5,0A5,5,0,1,1,-5,0A5,5,0,1,1,5,0" fill="#439145" stroke-width="1.5" opacity="1"></path></g><g class="mark-text role-legend-label category_legend_labels"><text text-anchor="start" transform="translate(16,9)" font-family="Roboto" font-size="10px" fill="#44475a" opacity="1">Grass</text></g></g><path class="foreground" aria-hidden="true" d="" display="none"></path></g><g transform="translate(0,26)"><path class="background" aria-hidden="true" d="M0,0h67.1572265625v11h-67.1572265625Z" fill="transparent" opacity="1"></path><g><g class="mark-symbol role-legend-symbol category_legend_symbols"><path transform="translate(6,6)" d="M5,0A5,5,0,1,1,-5,0A5,5,0,1,1,5,0" fill="#4D4D4B" stroke-width="1.5" opacity="1"></path></g><g class="mark-text role-legend-label category_legend_labels"><text text-anchor="start" transform="translate(16,9)" font-family="Roboto" font-size="10px" fill="#44475a" opacity="1">Road</text></g></g><path class="foreground" aria-hidden="true" d="" display="none"></path></g><g transform="translate(0,39)"><path class="background" aria-hidden="true" d="M0,0h67.1572265625v11h-67.1572265625Z" fill="transparent" opacity="1"></path><g><g class="mark-symbol role-legend-symbol category_legend_symbols"><path transform="translate(6,6)" d="M5,0A5,5,0,1,1,-5,0A5,5,0,1,1,5,0" fill="#ABAAAE" stroke-width="1.5" opacity="1"></path></g><g class="mark-text role-legend-label category_legend_labels"><text text-anchor="start" transform="translate(16,9)" font-family="Roboto" font-size="10px" fill="#44475a" opacity="1">Sidewalk</text></g></g><path class="foreground" aria-hidden="true" d="" display="none"></path></g><g transform="translate(0,52)"><path class="background" aria-hidden="true" d="M0,0h67.1572265625v11h-67.1572265625Z" fill="transparent" opacity="1"></path><g><g class="mark-symbol role-legend-symbol category_legend_symbols"><path transform="translate(6,6)" d="M5,0A5,5,0,1,1,-5,0A5,5,0,1,1,5,0" fill="#E7C641" stroke-width="1.5" opacity="1"></path></g><g class="mark-text role-legend-label category_legend_labels"><text text-anchor="start" transform="translate(16,9)" font-family="Roboto" font-size="10px" fill="#44475a" opacity="1">Beach</text></g></g><path class="foreground" aria-hidden="true" d="" display="none"></path></g><g transform="translate(0,65)"><path class="background" aria-hidden="true" d="M0,0h67.1572265625v11h-67.1572265625Z" fill="transparent" opacity="1"></path><g><g class="mark-symbol role-legend-symbol category_legend_symbols"><path transform="translate(6,6)" d="M5,0A5,5,0,1,1,-5,0A5,5,0,1,1,5,0" fill="#2A518A" stroke-width="1.5" opacity="1"></path></g><g class="mark-text role-legend-label category_legend_labels"><text text-anchor="start" transform="translate(16,9)" font-family="Roboto" font-size="10px" fill="#44475a" opacity="1">Ocean</text></g></g><path class="foreground" aria-hidden="true" d="" display="none"></path></g><g transform="translate(0,78)"><path class="background" aria-hidden="true" d="M0,0h67.1572265625v11h-67.1572265625Z" fill="transparent" opacity="1"></path><g><g class="mark-symbol role-legend-symbol category_legend_symbols"><path transform="translate(6,6)" d="M5,0A5,5,0,1,1,-5,0A5,5,0,1,1,5,0" fill="#6499F9" stroke-width="1.5" opacity="1"></path></g><g class="mark-text role-legend-label category_legend_labels"><text text-anchor="start" transform="translate(16,9)" font-family="Roboto" font-size="10px" fill="#44475a" opacity="1">Sky</text></g></g><path class="foreground" aria-hidden="true" d="" display="none"></path></g></g></g><path class="foreground" aria-hidden="true" d="" pointer-events="none" display="none"></path></g></g></g><path class="foreground" aria-hidden="true" d="" pointer-events="none" display="none"></path></g></g></g><path class="foreground" aria-hidden="true" d="" display="none"></path></g></g></g></svg>