<svg xmlns="http://www.w3.org/2000/svg" xmlns:xlink="http://www.w3.org/1999/xlink" version="1.1" class="marks" width="380" height="252" viewBox="0 0 380 252" style="background-color: white;"><g fill="none" stroke-miterlimit="10" transform="translate(6,22)"><g class="mark-group role-frame root" role="graphics-object" aria-roledescription="group mark container"><g transform="translate(0,0)"><path class="background" aria-hidden="true" d="M0,0h300v225h-300Z" fill="transparent"></path><g><g class="mark-shape role-mark marks" role="graphics-object" aria-roledescription="shape mark container"><path aria-label="adoption: 1900.77446538; id: Asia (Sans Japan)" role="graphics-symbol" aria-roledescription="geoshape" transform="translate(0,0)" d="M207.122,75.314L206.791,75.513L206.908,75.67L206.877,75.886L206.707,75.821L206.535,75.921L206.309,76.001L206.013,75.616L205.996,75.418L205.812,75.377L205.432,74.958L205.267,74.917L204.98,75.198L204.593,75.341L204.357,76.287L204.497,76.95L204.338,77.714L204.142,77.165L203.735,77.078L203.443,76.278L202.818,76.295L202.815,76.975L202.994,77.968L203.309,78.668L202.99,79.241L203.174,79.788L203.947,79.867L204.391,79.49L204.771,79.716L205.314,79.42L205.127,78.393L205.776,78.081L206.038,77.719L206.532,77.897L206.253,78.874L206.536,79.435L206.6,80.274L206.982,80.961L207.855,80.618L208.84,80.91L209.842,81.022L210.755,81.008L211.382,81.409L211.368,81.956L211.906,82.081L212.404,81.868L213.037,82.397L213.608,82.979L213.455,83.393L214.063,84.432L214.831,85.67L215.421,86.933L215.591,88.358L215.644,89.757L215.214,90.572L215.289,91.229L214.863,91.276L214.999,91.94L214.732,93.146L214.336,93.933L215,94.788L214.768,95.199L214.064,94.922L213.873,94.541L212.947,95.212L212.839,95.613L212.812,97.004L213.108,98.139L213.531,98.717L216.264,99.086L217.228,98.859L218.183,98.939L219.891,99.75L221.201,100.927L221.251,101.922L221.115,103.143L221.284,104.244L221.275,105.706L220.569,105.558L220.222,104.929L219.351,105.09L218.741,105.567L218.109,105.514L217.031,105.186L216.154,105.493L215.664,106.069L215.163,105.452L214.644,106.029L215.41,106.826L216.607,108.978L217.186,109.422L217.608,108.998L218.534,109.326L219.288,109.795L220.062,109.777L220.533,109.431L221.245,109.401L221.453,109.299L222.285,109.275L223.05,109.401L223.594,109.796L223.864,110.171L224.193,110.327L224.684,110.657L225.119,110.576L226.036,110.846L226.289,111.078L225.884,111.667L224.713,111.887L223.352,112.235L222.9,111.981L222.027,111.952L221.323,111.502L220.691,111.386L220.215,110.828L219.766,110.692L219.237,110.714L218.762,110.496L217.366,110.479L217.688,110.995L217.157,110.75L216.775,110.249L216.262,109.398L215.657,108.958L215.292,108.234L214.654,108.057L213.905,107.256L213.281,107.17L212.216,106.561L211.186,105.808L210.343,105.51L210.308,106.266L210.123,107.465L209.721,107.756L209.174,107.97L208.515,106.884L207.723,106.348L206.445,106.007L206.267,105.676L205.832,105.922L204.834,105.754L204.309,105.546L203.925,105.213L203.469,104.972L202.836,104.775L202.267,105.269L202.605,105.512L202.8,106.09L202.406,106.19L202.443,106.4L202.202,106.478L201.913,106.622L202.062,106.973L201.646,107.34L201.034,108.162L201.561,108.688L201.617,109.422L201.156,110.721L201.202,112.224L201.113,113.108L200.873,114.163L201.163,114.517L200.987,114.976L200.604,115.745L200.319,116.034L200.592,116.796L201.527,117.702L202.078,118.318L202.372,119.303L203.416,120.633L203.071,120.965L203.209,121.819L203.625,121.91L203.139,122.645L203.3,123.375L203.184,123.831L201.918,123.605L200.744,122.736L199.871,122.13L199.335,121.935L198.395,121.435L197.483,120.552L197.001,120.133L195.556,119.476L194.158,118.092L193.224,117.189L192.535,116.196L191.871,115.523L191.219,116.691L190.677,116.907L189.118,116.495L189.244,115.974L188.828,115.777L187.58,115.581L186.948,115.682L186.362,115.192L185.444,114.877L184.297,115.793L183.211,116.45L182.313,117.122L182.003,115.965L182.721,114.968L182.43,114.599L182.028,114.643L181.583,113.891L180.729,113.87L180.163,113.496L179.583,113.221L179.728,112.1L179.369,111.571L178.791,111.689L178.431,111.17L177.841,110.591L177.843,109.964L177.497,109.988L177.321,109.255L176.97,108.029L177.777,108.005L178.177,107.624L178.08,107.161L178.474,106.759L178.654,106.292L178.361,105.534L178.755,105.077L178.667,104.71L179.081,104.772L179.271,104.693L179.605,104.495L180.15,104.393L180.396,104.382L180.649,103.841L180.944,103.883L180.881,103.378L181.237,103.163L181.245,102.982L181.079,102.611L181.124,102.16L181.558,102.153L181.664,102.446L181.867,102.368L182.278,103.096L182.688,103.212L182.769,102.899L182.962,102.647L183.069,102.035L183.5,101.822L184.076,101.411L183.655,101.009L183.455,100.68L182.974,100.733L182.856,100.947L182.184,100.292L182.206,99.996L182.005,99.858L182.242,99.108L182.498,98.681L183.144,98.378L182.961,97.711L183.558,97.117L183.505,96.654L183.978,95.603L183.913,95.373L183.523,94.953L183.7,94.478L182.178,93.476L182.901,92.395L183,92.019L182.206,90.365L183.332,89.842L183.297,89.279L182.658,88.503L182.967,88.103L182.866,87.309L182.984,87.093L183.33,86.549L183.556,85.158L183.865,84.219L184.432,84.089L184.873,83.676L185.48,83.726L185.924,83.344L186.683,82.909L186.561,82.015L185.977,81.79L185.625,80.658L186.354,80.468L186.788,80.157L187.421,79.825L188.061,80.234L188.912,79.888L189.129,79.341L189.488,78.704L189.957,78.337L190.699,78.195L191.316,78.23L191.647,77.793L192.227,77.305L192.349,76.721L192.68,75.998L192.605,74.899L192.89,74.68L193.339,74.622L193.669,73.999L194.373,73.628L194.294,72.589L193.927,72.36L193.318,71.361L193.221,70.919L192.748,70.629L192.382,70.762L192.211,70.103L192.422,69.423L192.783,68.783L193.459,68.219L194.022,67.981L195.075,68.179L195.551,68.199L196.177,68.337L197.14,68.621L197.907,67.881L198.856,67.592L199.801,67.81L200.218,66.995L200.098,66.358L200.26,65.352L200.935,66.023L201.169,66.383L202.05,67.053L202.747,67.855L202.247,68.449L202.314,69.086L203.142,69.335L204.152,69.959L204.031,70.263L204.472,70.494L204.674,70.496L204.501,70.684L204.677,71.087L204.877,71.423L205.517,71.733L205.556,72.144L205.661,72.328L205.799,72.69L205.73,73.156L205.818,73.537L206.187,73.764L206.245,73.895L206.514,73.729L207.085,73.608L208.398,73.654L209.05,73.805L210.065,74.349L210.42,74.844L210.286,75.499L210.371,76.188L210.139,76.783L209.624,76.583L209.041,76.103L207.977,75.859L208.091,75.328ZM229.09,106.481L229.801,106.117L230.112,105.395L229.555,104.735L229.659,104.281L230.165,103.221L229.924,102.202L229.69,101.449L229.61,100.927L229.634,99.94L229.469,98.944L229.1,98.11L229.316,97.792L229.997,97.673L230.386,97.869L230.966,97.514L231.653,97.018L231.945,97.288L231.638,97.846L232.129,97.975L232.018,98.749L232.467,99.708L233.652,99.64L233.941,100.032L235.318,99.623L234.772,100.671L235.155,101.316L235.924,101.782L235.942,102.98L236.75,103.549L237.78,104.747L237.408,104.668L237.103,105.891L236.368,105.87L235.907,106.431L235.337,106.663L234.917,107.845L234.299,107.855L233.938,108.433L233.341,109.031L232.188,108.348L231.663,108.574L230.69,108.43L229.914,108.003L229.255,107.348ZM216.269,95.872L216.202,96.738L215.538,97.098L214.848,96.587L214.749,95.985L215.075,95.094L215.379,94.721L215.805,94.808L215.929,95.36ZM245.616,104.147L245.39,104.547L244.03,105.357L244.412,104.409L244.97,104.098L245.429,103.938ZM247.353,99.673L247.639,100.654L247.358,101.572L247.183,101.61L246.943,101.359L246.667,100.644L246.862,99.527L246.726,99.307L246.989,98.395L247.334,97.724L247.391,97.375L247.689,97.094L247.74,97.555L247.562,98.742ZM242.192,105.502L242.625,105.338L242.921,104.739L243.425,104.744L242.907,105.888L242.593,106.589L242.264,107.061L242.003,106.428L242.325,105.935ZM245.045,101.025L245.441,101.443L244.826,102.965L243.968,104.087L243.666,103.893L243.933,103.08L244.55,102.667L244.862,102.026ZM235.353,112.703L236.668,111.16L236.487,110.723L238.039,109.431L238.772,109.522L239.854,108.324L241.1,107.6L240.706,108.817L239.696,109.542L239.157,110.324L238.435,111.177L237.7,111.868L236.63,112.619L236.074,113.173L235.901,113.591L234.373,114.842L233.922,114.724L233.259,115.413L232.981,114.261L233.827,113.31L234.654,112.89L234.994,112.591ZM249.357,89.152L249.734,89.929L249.027,89.684L248.775,89.38L248.562,89.032L248.93,88.947ZM243.348,94.766L243.447,95.255L242.94,95.786L242.463,95.747L242.935,94.817ZM244.598,91.69L245.453,91.712L244.679,92.289L244.197,93.001L243.985,93.545L243.615,94.152L243.247,93.669L243.81,92.547ZM254.75,84.212L253.628,84.772L253.005,85.7L253.164,86.049L252.642,87.302L252.082,86.556L252.102,85.828L251.001,85.651L250.021,85.764L248.419,87.241L247.977,87.986L246.488,88.964L246.785,89.451L246.69,89.843L246.251,89.9L245.857,89.702L245.067,90.178L245.239,89.039L245.585,88.392L245.313,88.354L244.639,89.686L243.933,89.777L243.355,90.49L242.715,90.637L243.124,89.332L243.07,88.717L244.154,87.453L244.554,87.49L246.126,87.935L247.119,87.241L246.527,86.023L246.467,84.703L246.836,83.882L247.509,83.224L248.127,82.678L248.726,81.745L250.028,80.375L251.267,78.803L251.989,78.329L252.661,77.956L253.268,78.008L254.445,76.581L255.03,76.52L254.805,77.466L255.509,77.465L256.448,76.796L257.666,76.499L257.836,75.901L258.239,76.085L258.663,75.361L258.74,75.724L259.499,74.752L259.741,74.959L259.578,75.665L259.25,75.846L258.345,77.654L257.464,78.231L256.738,78.63L255.733,78.856L254.835,79.994L254.77,80.933L254.847,81.675L255.579,81.801L255.583,82.717L255.204,83.219ZM238.113,94.101L238.569,95.293L238.349,96.029L237.694,96.749L236.855,98.195L236.505,99.005L237.062,99.529L238.301,99.24L238.201,98.539L238.896,96.769L239.257,97.07L238.896,97.366L239.175,98.054L239.027,99.021L240.625,98.86L240.826,99.204L242.28,99.017L242.839,99.355L242.799,99.986L242.284,100.154L241.848,99.302L241.645,100.363L241.277,100.444L241.021,100.13L240.129,100.446L239.345,99.866L239.237,100.6L240.269,101.155L241.491,101.881L241.258,102.503L240.778,102.719L240.169,101.975L239.273,101.586L239.029,101.946L238.281,101.836L237.962,101.13L237.391,100.57L236.392,99.333L236.154,98.947L235.978,97.84L236.649,97.339L237.413,96.348L237.969,95.344L237.838,94.134ZM240.037,91.282L240.778,91.749L240.449,92.145L240.904,92.573L241.56,92.465L241.53,92.773L240.781,92.812L239.525,92.466L238.927,91.894L238.76,91.437L239.273,91.641L239.625,91.168ZM232.793,114.413L232.075,115.315L230.862,115.447L229.381,115.929L228.638,115.86L227.509,115.906L226.619,115.787L225.061,115.419L223.852,115.519L223.031,115.144L222.21,114.876L221.146,115.093L220.179,114.877L219.271,115.01L217.786,114.967L217.368,114.67L217.82,114.266L218.981,113.327L220.279,113.378L221.271,113.294L221.945,113.187L223.352,113.216L224.027,112.483L225.092,112.309L226.103,112.427L226.938,112.143L227.302,112.975L227.932,112.765L228.195,112.504L228.836,112.821L229.483,112.914L230.039,112.386L230.827,112.419L231.63,113.397ZM206.575,121.728L207.115,122.625L206.983,123.099L206.487,123.787L205.64,123.445L204.623,122.427L203.947,120.891L204.79,120.931L205.565,121.21ZM232.614,89.672L233.241,89.924L233.75,90.152L234.38,90.878L233.33,90.674L233.549,91.306L234.339,91.409L234.608,91.89L233.538,92.552L232.784,92.413L232.526,91.92L231.822,92.192L232.015,92.663L231.754,93.014L231.86,93.903L231.54,93.877L231.019,93.12L231.076,92.478L231.019,91.847L231.572,91.797L231.702,91.051L231.394,90.688L231.701,90.113L231.005,89.784L231.791,89.368ZM229.9,90.647L230.015,91.092L230.4,91.672L230.503,92.069L229.62,92.199L229.491,91.893L229.375,91.55L228.898,91.139L229.101,90.678L229.602,91.16L229.125,90.081ZM228.041,95.407L228.147,96.954L227.826,96.187L227.677,95.291L227.409,94.451L226.832,93.51L227.594,93.82L227.744,94.624ZM227.535,91.439L228.079,91.133L228.377,90.644L228.72,90.881L228.87,91.452L228.825,92.103L228.408,91.891L228.011,91.57ZM228.979,88.506L230.068,88.841L229.483,89.314L229.785,89.461L230.431,89.585L230.407,90.079L229.775,89.752L229.596,89.959L229.004,89.772L229.34,89.364L229.016,89.174L228.079,89.268L228.527,88.536ZM226.363,91.082L226.977,91.748L226.353,91.803L225.456,91.784L225.899,91.161ZM221.674,88.366L222.195,88.071L222.11,87.71L222.364,87.782L222.642,88.108L223.413,88.243L223.995,88.871L224.003,89.479L224.618,90.021L225.395,90.273L225.74,89.932L225.837,89.54L226.884,88.879L227.302,89.23L227.654,89.103L228.009,89.417L227.219,89.766L226.61,89.777L226.8,90.157L225.997,90.324L225.692,91.09L225.273,91.342L224.955,91.081L224.886,90.715L224.554,90.812L224.798,91.099L224.076,91.166L223.645,91.021L222.822,90.535L223.288,90.429L222.012,89.513L221.401,88.799ZM257.749,68.564L257.763,68.878L257.272,69.203L256.541,69.471L255.742,69.469L255.697,69.303L256.008,69.286L256.309,69.035L257.063,68.742L257.521,68.347ZM255.303,72.103L255.217,72.648L255.44,72.89L255.488,73.511L255.547,74.092L255.369,74.627L254.815,75.346L254.355,75.828L254.09,75.643L254.535,74.798L254.641,74.228L254.238,73.938L254.266,73.777L254.795,73.844L254.908,73.261L254.672,72.875L254.516,72.209L253.92,72.143L254.089,71.554L254.31,71.394L254.824,71.584ZM254.734,70.653L254.886,71.051L254.268,71.06L253.828,71.183L253.378,71.529L252.79,71.95L252.292,72.562L252.144,72.227L252.58,71.777L252.895,71.513L253.25,71.17L253.776,70.908L254.196,70.626ZM216.894,84.933L217.987,86.189L218.495,86.93L217.551,86.832L216.883,86.512L216.311,85.586L216.007,84.643L216.452,84.5Z" fill="rgb(3, 100, 41)" stroke="black"></path><path aria-label="adoption: 121.284268423; id: Middle East and Africa" role="graphics-symbol" aria-roledescription="geoshape" transform="translate(0,0)" d="M149.258,170.908L149.085,170.293L149.159,169.408L149.463,168.458L149.467,168.031L149.735,167.1L149.957,166.666L150.521,165.939L150.826,165.461L150.85,164.718L150.725,164.165L150.365,163.853L150.009,163.276L149.688,162.711L149.725,162.493L150.013,162.067L149.285,160.503L148.702,159.932L148.785,159.726L148.608,159.441L148.253,158.713L147.308,157.745L146.165,156.83L145.424,156.07L144.734,155.091L144.738,154.755L144.926,154.421L145.123,153.677L145.262,152.929L145.069,152.797L145.312,151.647L145.386,150.854L144.964,150.216L144.503,150.087L144.28,149.653L144.026,149.532L144.02,149.254L143.044,149.68L142.675,149.653L142.335,149.893L141.56,149.91L141.017,149.314L140.676,148.609L139.968,147.975L139.261,148.006L138.42,148.028L137.647,148.157L136.887,148.379L135.398,148.978L134.87,149.31L134.001,149.593L133.155,149.29L132.723,149.287L132.054,149.079L131.447,149.065L130.308,149.187L129.618,149.437L128.662,149.75L128.474,149.713L128.23,149.705L127.276,149.163L126.463,148.337L125.709,147.722L125.131,147.021L124.887,146.923L124.254,146.457L123.825,145.878L123.694,145.494L123.672,144.743L123.337,144.114L123.021,143.691L122.818,143.535L122.611,143.312L122.564,142.854L122.464,142.619L122.217,142.424L121.789,141.949L121.419,141.834L121.255,141.531L121.287,141.387L121.04,141.139L121.007,140.919L120.978,140.132L121.151,139.711L120.901,138.9L120.512,138.48L120.918,138.349L121.443,137.715L121.72,137.233L121.708,136.696L122.015,136.243L122.249,135.319L122.287,134.335L122.261,133.829L122.41,133.346L122.254,132.847L121.888,132.358L121.981,131.95L122.081,131.494L122.439,131.264L122.77,130.79L122.759,130.451L123.134,129.793L123.653,129.219L123.941,129.091L124.224,128.542L124.3,128.016L124.659,127.443L125.204,127.137L125.806,126.178L126.247,125.831L126.967,125.789L127.629,125.171L128.036,124.945L128.731,124.158L128.642,122.914L128.99,122.073L129.134,121.56L129.643,120.927L130.394,120.519L130.944,120.135L131.48,119.134L131.73,118.533L132.243,118.557L132.652,118.999L133.32,118.957L134.05,119.196L134.358,119.21L135.041,118.673L135.794,118.505L136.226,118.088L136.901,117.78L138.071,117.578L139.21,117.458L139.568,117.591L140.201,117.167L140.93,117.126L141.217,117.337L141.689,117.24L142.407,116.785L142.9,116.867L142.924,117.373L143.475,116.956L143.541,117.138L143.234,117.658L143.275,118.122L143.543,118.344L143.522,119.215L143.106,119.751L143.283,120.277L143.657,120.261L143.883,120.724L144.172,120.852L145.05,121.108L145.346,120.986L145.966,121.089L146.968,121.411L147.421,122.25L148.108,122.354L149.202,122.616L150.067,122.977L150.379,122.67L150.655,122.16L150.364,121.431L150.507,120.91L150.944,120.362L151.405,120.147L152.41,120.167L152.736,120.552L153.001,120.508L153.266,120.622L153.999,120.596L154.249,120.876L155.199,120.652L156.727,120.875L157.099,120.944L157.569,120.498L157.791,120.147L158.404,119.903L158.938,119.887L159.27,120.314L159.345,119.954L159.981,120.023L160.549,119.92L160.829,119.575L160.944,119.192L160.878,119.152L160.937,118.657L160.859,117.896L160.902,117.611L160.908,116.755L161.038,115.946L160.755,115.23L160.795,114.79L161.021,114.257L160.891,113.716L161.164,113.835L161.804,113.336L162.215,113.397L162.75,113.208L163.385,112.598L163.739,112.49L164.427,112.075L164.637,111.832L165.437,111.669L165.755,111.818L166.001,111.538L165.363,110.936L165.376,110.598L164.765,109.6L165.087,109.177L165.33,109.485L165.807,109.788L166.29,109.735L166.507,109.612L166.957,108.639L167.164,108.472L167.458,108.657L167.434,109.209L168.035,109.521L168.166,109.412L168.661,109.998L169.329,109.928L169.967,110.188L170.936,109.933L171.804,109.233L171.766,108.997L172.222,108.557L172.413,107.834L172.829,107.652L173.001,107.354L173.482,107.217L174.381,107.309L174.922,107.15L176.033,107.54L176.507,107.324L176.97,108.029L177.321,109.255L177.497,109.988L177.843,109.964L177.841,110.591L178.431,111.17L178.791,111.689L179.369,111.571L179.728,112.1L179.583,113.221L180.163,113.496L180.729,113.87L181.583,113.891L182.028,114.643L182.43,114.599L182.721,114.968L182.003,115.965L182.313,117.122L180.871,117.573L180,117.781L179.155,118.076L178.3,117.139L177.891,117.155L177.452,117.569L176.964,118.358L175.959,118.472L174.932,118.109L174.137,118.171L173.284,117.517L172.236,116.528L171.935,116.839L171.366,116.722L171.269,117.19L170.841,117.319L171.159,117.663L171.177,117.895L171.701,118.498L172.316,119.167L172.756,119.226L173.006,119.5L173.657,119.677L173.873,120.028L173.935,120.358L174.162,120.623L174.478,120.787L174.703,121.044L174.916,121.217L174.57,120.584L174.547,120.021L174.704,119.833L175.044,120.019L175.306,120.537L175.388,121.146L175.69,121.43L175.792,121.329L175.939,121.567L176.432,121.158L177.493,120.717L177.691,119.867L177.928,119.039L178.099,118.268L178.15,117.857L178.269,117.898L178.395,118.292L178.388,118.497L178.836,119.158L179.457,119.612L180.022,119.725L180.603,119.568L181.107,119.505L182.043,120.022L182.357,120.001L182.462,120.195L182.483,120.861L182.503,121.166L182.347,121.611L182.402,122.359L182.045,122.483L181.999,122.774L182.112,123.296L182.513,123.833L182.496,123.98L182.159,124.155L181.851,124.726L182.009,125.196L181.931,125.464L181.456,125.694L181.268,126.071L181.461,126.431L181.204,126.868L180.741,126.994L180.374,127.543L180.033,127.759L179.587,128.267L179.619,128.739L179.741,129.06L179.137,129.805L178.042,130.803L177.617,131.754L177.281,131.95L177.006,132.004L176.696,132.586L176.248,132.975L175.573,133.311L175.382,133.44L175.307,133.76L175.109,133.909L175.077,134.203L174.66,134.348L174.437,134.575L173.842,134.749L173.423,134.279L173.253,133.758L173.013,133.543L172.59,132.908L172.213,132.604L172.36,132.505L172.12,132.107L172.144,131.889L171.958,131.496L171.708,131.136L171.379,130.944L171.173,130.593L170.643,130.404L169.934,129.774L169.436,129.085L168.665,128.629L168.257,128.597L167.433,127.877L167.123,127.249L166.965,126.673L166.173,125.776L165.699,125.528L165.227,125.458L164.796,124.996L164.769,124.765L164.4,124.342L164.123,124.199L163.606,123.582L162.919,122.947L162.359,122.409L161.987,122.52L161.944,121.962L161.887,121.621L161.852,121.206L161.791,121.079L161.702,121.523L161.761,122.289L161.701,122.852L161.583,123.065L161.245,122.831L160.79,122.494L159.89,121.261L159.833,121.37L160.423,122.3L161.142,123.141L162.14,124.468L162.57,124.912L162.973,125.372L163.971,126.23L163.859,126.444L164.079,127.051L165.241,127.631L165.445,127.781L165.996,128.634L165.873,128.862L166.297,129.807L166.966,130.844L167.348,130.978L167.894,131.185L168.739,132.117L169.251,132.91L169.859,133.211L171.302,133.709L172.605,134.453L172.971,134.683L173.489,134.813L173.799,135.028L173.911,135.431L173.518,135.831L173.97,135.95L174.308,136.014L174.623,136.34L175.159,136.59L175.591,136.422L176.284,135.868L177.168,135.387L177.783,134.797L178.17,134.563L178.405,134.268L178.858,134.029L179.12,133.897L179.423,133.604L179.826,133.319L180.08,132.83L180.38,132.694L180.514,132.929L180.673,133.494L180.9,133.965L180.876,134.379L181.078,135.461L181.128,136.664L181.109,138.065L180.953,139.725L180.627,141.07L180.101,142.765L179.495,143.882L178.486,145.347L177.889,146.378L177.289,147.89L177.257,148.467L177.123,148.767L176.581,149.377L176.476,149.856L176.148,150.049L176.242,150.76L176.061,151.255L176.083,151.947L175.801,152.388L175.734,153.712L175.969,154.228L176.718,154.354L176.845,154.587L176.757,155.255L176.91,155.522L176.994,156.003L177.552,156.469L178.302,157.247L178.75,157.325L179.058,157.693L179.341,158.641L179.762,159.419L180.324,160.876L180.666,161.275L180.59,162.063L180.398,162.866L179.915,163.68L179.045,164.369L177.987,165.231L177.058,166.648L176.691,166.95L176.148,167.859L175.745,168.227L175.853,168.936L176.608,169.495L176.983,169.987L177.089,170.279L177.264,170.166L177.518,171.113L177.474,171.605L177.798,171.685L177.742,172.138L177.376,172.624L176.527,173.226L175.284,174.144L174.857,174.646L175.068,175.019L175.401,175.002L175.446,175.541L175.34,176.317L175.41,177.154L175.227,177.67L174.351,178.585L173.971,179.21L173.76,179.797L173.252,180.662L172.121,182.007L171.392,182.797L170.57,183.461L169.358,184.14L168.735,184.329L168.618,184.639L167.827,184.659L167.247,184.973L165.846,185.067L165.108,185.337L164.582,185.379L163.356,186.006L162.314,186.357L161.59,186.863L161.02,186.983L160.425,186.716L159.992,186.768L159.387,186.417L159.337,186.565L159.135,186.323L159.045,185.734L158.537,185.142L158.917,184.902L158.766,184.149L157.819,183.341L157.069,182.6L156.004,181.438L154.99,180.815L154.434,180.154L154.038,179.225L153.643,178.541L153.069,177.064L152.893,175.884L152.68,175.367L152.184,175.006L151.497,174.254L150.745,173.137L150.435,172.537L149.397,171.666ZM158.544,143.761L157.851,143.511L157.764,143.478ZM166.649,140.364L166.681,140.474L166.91,141.216ZM188.895,155.645L189.337,155.915L189.862,156.406L190.504,157.426L190.957,157.742L191.049,158.22L190.994,158.566L190.409,158.191L190.324,158.55L190.825,159.133L190.908,159.56L190.705,159.899L190.986,160.703L191.046,161.942L191.065,163.437L191.13,165.459L191.247,166.907L191.195,168.194L190.368,168.78L189.544,169.569L187.78,169.601L187.275,169.235L186.879,168.433L186.221,167.835L185.858,167.204L185.806,166.455L186.241,166.106L186.137,165.788L186.374,164.891L186.248,164.248L185.821,163.914L185.397,163.403L184.979,162.584L185.152,161.913L185.074,161.269L185.58,161.027L186.099,160.602L186.418,160.281L186.87,160.081L187.245,159.318L187.87,158.386L187.982,157.798L187.672,157.468L188.168,157.391L188.456,156.512L188.231,155.951L188.38,155.397Z" fill="rgb(207, 237, 201)" stroke="black"></path><path aria-label="adoption: 416.751276509; id: Eastern Europe" role="graphics-symbol" aria-roledescription="geoshape" transform="translate(0,0)" d="M85.099,38.198L85.099,38.198L81.131,38.479L81.131,38.479L85.099,38.198ZM190.634,38.479L191.028,39.108L190.903,39.698L191.469,39.328L192.314,39.113L192.6,38.92L193.012,38.891L193.262,39.039L192.975,39.91L193.575,41.318L193.645,41.761L194.244,42.597L194.749,43.394L195.166,43.642L194.378,44.228L194.917,45.642L194.513,45.802L194.838,46.354L194.575,46.986L195.188,47.283L196,48.08L196.395,48.146L196.736,47.622L198.142,47.999L198.077,48.484L198.832,48.886L199.303,48.766L199.59,49.809L200.65,50.256L200.688,51.123L201.627,51.536L202.316,52.575L201.599,52.597L200.126,52.438L197.911,52.138L196.651,51.519L196.186,50.932L195.752,50.784L195.735,49.95L194.735,48.76L193.936,47.689L193.35,46.657L192.045,45.99L192.013,46.583L192.751,47.035L193.541,48.487L192.255,48.585L192.272,49.886L193.54,51.526L194.253,51.296L194.18,52.462L194.04,53.239L193.358,52.983L192.974,53.686L193.238,54.429L192.547,55.818L192.229,57.487L193.365,59.774L194.656,62.607L195.136,61.891L195.82,61.908L196.241,61.51L195.93,60.982L196.226,60.462L197.544,60.155L198.335,60.466L199.087,61.249L200.159,61.755L201.529,62.626L202.493,64.034L203.036,64.502L203.755,65.746L204.433,66.999L204.787,67.624L204.956,68.64L204.782,69.009L204.166,69.144L204.423,70.253L204.674,70.496L204.472,70.494L204.031,70.263L204.152,69.959L203.142,69.335L202.314,69.086L202.247,68.449L202.747,67.855L202.05,67.053L201.169,66.383L200.935,66.023L200.26,65.352L200.098,66.358L200.218,66.995L199.801,67.81L198.856,67.592L197.907,67.881L197.14,68.621L196.177,68.337L195.551,68.199L195.075,68.179L194.022,67.981L193.459,68.219L192.783,68.783L192.422,69.423L192.211,70.103L192.382,70.762L192.748,70.629L193.221,70.919L193.318,71.361L193.927,72.36L194.294,72.589L194.373,73.628L193.669,73.999L193.339,74.622L192.89,74.68L192.605,74.899L192.68,75.998L192.349,76.721L192.227,77.305L191.647,77.793L191.316,78.23L190.699,78.195L189.957,78.337L189.488,78.704L189.129,79.341L188.912,79.888L188.061,80.234L187.421,79.825L186.788,80.157L186.354,80.468L185.625,80.658L185.977,81.79L186.561,82.015L186.683,82.909L185.924,83.344L185.48,83.726L184.873,83.676L184.432,84.089L183.865,84.219L183.556,85.158L183.33,86.549L182.984,87.093L182.866,87.309L182.967,88.103L182.658,88.503L183.297,89.279L183.332,89.842L182.206,90.365L183,92.019L182.901,92.395L182.178,93.476L183.7,94.478L183.523,94.953L183.913,95.373L183.978,95.603L183.505,96.654L183.558,97.117L182.961,97.711L183.144,98.378L182.498,98.681L182.242,99.108L182.005,99.858L182.206,99.996L182.184,100.292L182.856,100.947L182.974,100.733L183.455,100.68L183.655,101.009L184.076,101.411L183.5,101.822L183.069,102.035L182.962,102.647L182.769,102.899L182.688,103.212L182.278,103.096L181.867,102.368L181.664,102.446L181.558,102.153L181.124,102.16L181.079,102.611L181.245,102.982L181.237,103.163L180.881,103.378L180.944,103.883L180.649,103.841L180.396,104.382L180.15,104.393L179.605,104.495L179.271,104.693L179.081,104.772L178.667,104.71L178.755,105.077L178.361,105.534L178.654,106.292L178.474,106.759L178.08,107.161L178.177,107.624L177.777,108.005L176.97,108.029L176.507,107.324L176.033,107.54L174.922,107.15L174.381,107.309L173.482,107.217L173.001,107.354L172.829,107.652L172.413,107.834L172.222,108.557L171.766,108.997L171.348,108.419L170.977,107.428L170.362,107.351L170.224,106.666L169.801,106.803L169.566,105.975L170.237,105.935L170.621,105.385L169.928,105.059L169.515,104.624L169.152,105.077L169.399,105.773L168.941,105.275L168.804,105.069L168.776,104.622L168.515,104.365L167.698,104.365L167.066,103.665L166.645,103.577L166.491,103.297L167.085,103.127L166.808,102.455L167.218,102.087L167.776,101.996L167.458,101.062L167.094,100.557L166.563,100.86L165.993,100.852L165.527,101.535L165.099,101.955L165.069,102.608L164.587,102.99L164.407,104.187L165.302,104.834L165.505,105.483L166.61,106.293L167.13,106.638L167.72,107.156L168.022,107.076L168.311,107.243L167.844,107.53L168.06,108.282L168.087,108.653L167.951,108.962L168.166,109.412L168.035,109.521L167.434,109.209L167.458,108.657L167.164,108.472L166.957,108.639L166.507,109.612L166.29,109.735L165.807,109.788L165.33,109.485L165.087,109.177L164.735,108.998L164.192,108.945L164.07,108.467L163.841,108.178L163.08,107.94L162.448,108.223L162.399,107.79L162.014,107.208L161.541,106.987L161.168,106.988L160.848,106.779L159.815,106.242L159.015,106.109L158.318,105.723L158.701,105.421L158.931,104.47L158.481,104.205L159.208,103.533L159.124,103.338L158.654,103.658L158.223,103.885L157.93,104.321L157.402,104.537L157.013,105.039L157.225,105.624L157.578,105.765L158.164,105.524L158.156,105.911L157.559,106.274L156.907,107.064L156.518,106.963L156.517,106.479L155.786,106.38L155.835,106.163L156.317,105.687L156.087,105.515L155.092,105.528L154.963,105.182L154.445,105.447L154.365,106.033L154.084,106.872L154.154,107.116L153.915,107.394L153.705,107.353L153.817,108.562L153.606,109.033L153.543,109.786L153.879,110.294L153.303,110.286L152.72,110.736L152.827,111.223L152.261,111.446L151.737,111.197L151.276,111.566L150.8,111.635L150.679,111.691L150.611,111.879L150.253,111.93L150.045,112.184L149.65,112.346L149.679,112.615L149.493,112.797L149.51,113.117L149.286,113.644L149.163,113.599L149.108,113.385L148.692,113.114L148.56,112.647L148.506,111.969L148.546,111.648L148.413,111.513L148.265,111.462L148.033,111.168L147.723,111.018L147.723,111.018L147.076,110.744L146.657,110.434L146.037,110.223L145.41,109.563L145.524,109.474L145.19,109.097L145.14,108.766L144.72,108.661L144.586,109.104L144.365,108.801L144.341,108.442L144.357,108.423L144.486,108.318L144.291,107.921L144.303,107.427L144.809,107.44L145.081,107.176L145.607,107.083L145.704,106.905L145.811,106.239L145.672,106.035L146.008,105.989L145.992,105.578L145.886,105.247L145.918,105.119L145.619,104.971L145.352,105.057L144.857,104.817L144.66,104.916L144.377,105.362L143.907,105.088L143.529,104.703L143.207,104.499L143.098,104.091L142.968,103.793L143.361,103.538L143.553,103.27L143.942,103.028L144.048,102.826L144.215,102.922L144.459,102.784L144.149,102.181L144.146,101.835L143.947,101.317L143.71,100.991L143.826,100.706L143.643,100.226L143.978,99.889L144.759,99.318L145.394,98.881L145.95,98.97L146.034,99.213L146.553,99.138L146.601,98.682L147.275,98.234L147.024,97.433L146.915,96.689L147.051,96.025L147.464,95.6L148.016,96.25L148.427,96.151L148.366,95.38L148.312,94.791L148.146,94.958L147.758,94.677L147.605,94.125L148.177,93.717L148.764,93.442L149.334,93.482L149.84,93.339L150.252,92.667L149.643,92.328L150.35,90.84L150.639,90.173L150.678,89.639L149.827,89.153L149.849,88.472L149.261,87.855L149.351,86.956L148.572,85.981L148.779,85.155L147.98,84.671L147.872,83.967L148.181,83.798L148.778,83.231L149.104,82.787L149.935,83.181L151.105,83.076L152.998,83.636L153.469,83.972L153.72,84.585L153.426,85.243L152.82,85.741L150.698,85.596L150.421,85.812L151.324,86.315L151.485,86.744L151.8,87.707L152.461,87.829L152.884,87.97L152.791,87.485L152.402,87.163L152.566,86.717L153.813,86.958L154.101,86.599L153.571,86.013L154.235,84.738L154.632,84.651L155.146,84.832L155.142,84.089L154.589,83.672L154.571,83.041L154.054,82.574L155.295,82.438L155.732,82.86L155.265,83.181L155.476,83.694L155.926,83.874L156.474,83.418L156.328,82.787L156.966,81.994L157.964,80.588L158.277,80.49L158.163,81.226L158.688,81.081L158.817,80.643L159.514,80.252L159.881,79.589L160.598,79.889L160.701,79.076L160.035,78.782L160.069,78.391L161.297,78.04L161.951,78.013L163.87,78.167L163.821,77.567L163.175,77.361L163.05,77.189L162.571,77.375L162.435,76.901L161.836,76.361L161.654,76.089L161.805,74.931L161.533,74.037L161.67,73.713L162.674,73.351L163.054,73.753L163.2,74.634L163.588,74.754L164.092,75.259L164.791,76.434L165.532,76.665L165.762,77.321L165.85,78.975L166.355,78.809L166.301,78.409L166.551,77.915L166.358,77.45L166.393,76.843L165.856,76.535L165.637,75.878L165.209,76.082L164.807,75.687L164.503,74.681L163.595,74.322L163.794,73.36L163.307,72.835L163.45,72.702L163.948,73.026L164.382,73.892L164.839,73.78L164.266,73.319L164.57,72.605L165.184,72.062L166.117,72.05L165.32,71.621L164.629,70.814L165.021,70.236L165.759,69.673L166.305,69.038L165.726,68.85L165.621,68.072L165.926,67.766L166.115,66.903L166.723,66.14L166.623,65.861L167.23,65.112L167.603,65.056L167.774,64.1L168.237,63.616L167.985,63.261L167.895,62.722L168.129,61.824L168.76,61.564L168.641,62.092L169.274,61.567L169.716,61.8L169.731,61.388L170.39,60.561L171.257,60.197L171.734,60.178L172.107,60.554L172.105,61.059L171.958,62.183L172.018,62.587L172.413,62.3L172.956,61.997L173.007,61.611L173.637,61.826L173.527,61.531L173.755,60.94L174.584,60.003L175.032,60.185L176.025,58.882L175.379,58.466L175.943,57.851L176.249,57.316L177.016,57.027L177.663,57.17L177.917,57.576L178.84,57.499L179.506,57.127L178.747,56.296L179.438,55.917L179.489,55.189L180.1,54.606L179.968,54.223L180.359,53.674L179.398,53.571L179.207,52.92L181.071,49.824L181.738,49.683L182.789,48.905L183.055,47.267L183.425,46.525L183.912,46.293L184.605,46.516L184.997,46.074L184.923,45.48L185.053,44.752L185.4,44.012L185.43,43.211L186.429,42.632L186.194,42.061L185.512,42.307L185.105,42.054L185.561,40.776L185.605,39.904L186.189,38.753L186.666,38.198L190.634,38.479ZM158.693,116.117L158.741,116.104L158.77,115.841L159.262,115.718L159.789,115.258L159.449,115.792L159.559,115.955L159.601,116.028L159.009,116.614L158.638,116.591L158.377,116.247ZM146.045,117.929L145.959,117.964L145.895,117.922L145.882,117.817ZM145.847,117.772L145.847,117.772L145.847,117.772ZM200.197,59.821L202.057,59.905L201.432,60.608L202.633,61.476L203.807,61.31L204.447,61.58L203.713,61.791L204.283,62.45L203.462,62.236L202.588,61.805L201.569,61.471L200.926,61.056L199.695,60.529L198.66,60.471L197.419,59.9L197.187,59.258L196.681,59.288L196.637,59.004L198.264,59.291L199.177,59.67ZM82.938,40.569L82.721,40.898L83.431,40.708L83.438,41.918L82.636,42.92L82.141,42.538L81.932,41.818L80.967,41.934L80.74,41.779L80.71,41.341L81.017,40.95L81.234,40.313L81.654,40.165L81.772,39.697L81.596,39.192L81.926,38.921L82.3,38.986L82.022,38.467L81.573,38.705L81.131,38.479L85.099,38.198L84.418,39.307L83.551,40.538ZM184.809,38.066L184.832,38.519L184.501,38.562L184.124,38.017L184.809,38.066ZM87.64,38.017L87.641,38.017L86.956,38.066L86.956,38.066L86.956,38.066L87.64,38.017ZM87.062,38.596L86.956,38.066L87.641,38.017L87.685,38.066L87.711,38.406L87.476,39.016L87.334,38.994ZM179.326,51.653L179.114,52.207L178.704,52.892L178.633,52.933L178.407,52.44L178.506,51.965L179.065,51.603ZM178.492,48.465L178.728,49.001L178.448,49.54L177.843,50.064L177.574,49.87L177.947,49.264ZM177.341,50.285L177.931,50.825L177.392,52.095L177.354,52.761L176.463,53.174L175.92,52.709L175.944,52.194L176.359,51.324ZM158.559,78.218L158.384,78.409L157.128,78.887L156.841,78.526L156.059,78.594L155.783,78.128L156.061,77.765L155.823,77.282L156.153,76.174L155.776,76.22L156.213,75.032L155.921,74.676L156.417,73.826L157.179,72.69L158.128,71.925L158.469,71.288L158.992,70.807L159.413,71.002L159.374,71.396L158.528,72.494L157.794,73.478L157.223,74.869L157.164,75.997L157.055,77.132L157.494,77.835ZM167.825,61.234L166.819,62.967L166.269,61.626L166.37,61.339L166.586,61.191L167.576,60.894ZM152.148,70.432L151.559,70.915L151.581,71.084L151.29,71.394L150.867,71.313L150.925,70.953L150.234,71.196L150.763,70.79L151.211,70.585L151.381,70.806L151.461,70.513L151.669,70.243L152.201,70.237ZM166.228,62.197L165.816,62.823L164.946,63.312L164.275,63.439L163.596,63.109L163.132,63.273L163.265,62.198L163.597,61.538L164.4,61.431L165.621,61.529Z" fill="rgb(175, 223, 169)" stroke="black"></path><path aria-label="adoption: 87.6901334159; id: Latin America" role="graphics-symbol" aria-roledescription="geoshape" transform="translate(0,0)" d="M42.653,179.398L42.88,180.097L43.082,181.107L44.356,182.617L45.979,183.894L45.158,183.98L43.94,183.291L43.496,182.602L42.883,182.69L41.655,182.281L41.066,181.864L40.383,181.325L39.666,180.503L38.481,179.538L37.283,178.052L36.379,176.769L35.394,174.709L36.235,175.559L37.525,177.267L38.909,178.644L39.774,178.673L40.539,178.368L41.865,178.751ZM69.878,173.07L69.104,173.388L67.555,173.251L66.795,172.655L66.114,172.431L65.276,171.517L64.489,171.145L64.054,170.298L63.734,170.711L64.786,172.229L64.305,172.762L64.824,173.516L64.555,173.92L62.853,174.474L60.858,174.027L58.434,172.939L57.22,172.13L57.168,172.786L56.572,173.302L56.529,173.87L55.654,173.764L54.423,173.208L53.485,172.234L52.913,172.195L52.566,173.14L53.2,173.861L53.997,173.971L54.066,174.608L52.834,174.252L51.578,174.223L50.898,174.976L50.341,175.259L49.23,174.587L48.052,174.459L47.31,174.87L48.086,176.213L49.116,177.086L48.227,177.596L46.535,177.21L45.139,177.711L43.834,177.342L43.094,177.417L42.918,178.539L43.404,179.54L42.919,179.171L41.854,178.471L41.144,178.298L39.881,177.89L39.16,178.528L38.638,178.205L37.476,177.015L36.523,175.503L35.398,174.009L35.395,173.22L36.082,172.991L35.886,172.032L36.741,170.554L37.782,170.129L39.432,170.357L37.887,168.882L39.475,168.952L40.817,167.874L41.864,169.033L43.628,167.743L43.027,167.006L41.964,167.786L41.341,167.174L42.527,166.263L43.967,165.011L44.847,164.801L45.1,163.791L45.657,162.805L46.129,163.096L47.696,162.225L49.346,161.426L50.628,160.5L51.221,159.086L51.987,158.618L52.562,157.518L53.834,156.908L55.093,155.431L56.554,153.913L58.093,152.258L58.926,150.85L59.498,149.544L58.874,148.437L59.023,148.044L57.728,145.931L56.71,143.87L56.372,142.855L56.493,141.92L56.814,141.802L56.83,140.185L57.101,138.087L57.49,135.884L57.43,135.248L57.618,134.473L57.38,133.452L57.039,132.667L57.585,132.529L57.793,131.471L58.479,131.132L59.518,131.155L60.403,130.896L60.501,130.422L59.908,130.547L59.71,129.826L60.04,129.734L60.472,128.919L60.846,129.019L61.371,128.653L62.07,128.382L62.267,128.018L62.827,128.188L63.602,128.282L63.692,127.96L64.023,128.122L64.294,127.702L64.699,127.56L65.122,127.8L65.819,127.539L66.433,127.336L66.287,126.94L66.777,126.583L67.15,125.729L67.468,125.641L67.861,124.874L67.885,124.226L67.816,123.815L67.986,123.266L68.327,123.188L68.184,122.986L68.248,122.623L68.056,122.125L67.697,121.928L67.331,122.077L66.876,122.042L66.702,121.945L66.498,122.055L66.515,122.755L66.237,122.702L66.032,122.727L65.659,122.494L65.903,121.936L65.708,121.989L65.498,121.746L65.606,121.319L65.352,121.028L65.246,120.783L64.932,120.525L64.772,120.678L64.79,120.492L64.538,119.995L64.533,119.715L64.724,119.65L64.835,119.456L64.798,119.116L64.646,118.731L64.479,118.428L64.64,118.179L64.57,117.883L64.428,118.149L64.136,118.211L64.15,117.856L63.999,117.596L64.03,117.364L64.233,117.129L64.539,116.973L64.436,116.7L64.72,116.686L64.63,115.665L64.708,115.288L64.63,114.804L64.596,114.16L64.774,114.112L64.789,114.322L64.879,114.315L64.974,113.983L64.828,113.732L64.595,113.841L64.225,113.484L64.059,113.201L63.915,112.803L63.601,112.423L63.563,112.098L63.353,111.666L62.957,111.269L62.804,110.852L62.757,110.239L62.795,108.771L62.712,108.229L62.397,107.543L62.002,107.248L61.246,107.012L60.878,106.772L60.635,106.141L60.327,105.541L60.123,104.651L59.79,104.083L59.477,103.044L59.365,102.193L59.418,101.858L59.16,101.463L58.824,100.599L58.94,100.031L58.79,98.978L59.016,98.254L59.26,97.793L59.507,97.938L59.675,97.693L59.989,97.674L60.26,97.464L60.429,96.964L60.687,96.647L60.918,96.131L61.232,94.952L61.344,93.838L61.588,93.146L61.486,92.366L61.591,92.102L62.15,91.822L62.095,91.365L62.206,90.703L62.64,90.127L62.458,89.75L62.612,89.083L62.789,88.512L63.026,88.297L63.393,87.528L63.853,86.868L64.176,86.659L64.184,85.986L64.012,85.816L63.986,85.313L63.586,85.455L63.258,85.826L62.693,86.315L62.513,86.767L62.27,87.62L62.153,87.863L62.169,87.997L61.948,88.276L62.037,88.385L61.605,88.874L61.542,89.216L61.356,89.555L61.229,90.248L60.648,91.012L60.436,91.464L60.198,91.922L59.796,92.27L60.008,92.602L59.844,93.126L59.674,93.629L59.518,93.721L59.019,93.675L58.942,93.561L59.291,93.022L59.425,92.267L59.467,91.506L59.43,91.031L60.028,90.617L60.396,90.208L60.472,89.037L60.309,89.034L60.412,88.716L60.326,88.188L60.537,87.48L60.628,87.482L60.769,87.781L61.238,87.792L61.623,87.558L61.862,86.667L61.834,86.142L62.187,85.562L63.036,84.23L63.612,83.478L64.141,84.123L64.757,84.819L64.555,84.873L64.804,86.05L65.23,87.81L66.49,89.442L66.823,89.179L67.62,90.173L67.513,90.61L67.498,91.094L67.446,91.708L67.201,92.229L66.904,92.727L66.928,93.223L67.108,93.898L68.013,93.733L68.431,94.184L68.49,94.841L68.231,95.591L67.981,96.179L67.863,96.887L67.469,97.485L67.264,97.973L67.447,98.614L67.673,99.175L67.902,99.369L67.062,99.754L66.433,100.147L65.426,101.02L65.02,101.292L64.719,101.781L64.543,102.297L64.093,102.95L63.943,103.856L63.656,104.394L63.535,104.973L63.974,105.793L63.931,106.341L64.651,106.666L65.185,107.042L65.757,107.358L66.253,107.596L66.921,107.667L67.471,107.376L68.092,106.817L68.395,106.698L68.981,106.886L69.776,107.305L70.295,107.817L70.72,108.087L70.727,108.377L70.396,108.716L69.66,108.86L69.111,109.191L69.111,109.421L68.726,109.658L68.048,110.092L68.064,109.754L67.92,109.647L67.83,109.764L67.94,109.874L67.751,110.066L67.353,110.29L67.312,110.462L66.999,110.664L66.978,110.777L66.563,111.073L66.261,111.152L66.131,111.078L65.774,111.216L65.86,111.538L66.014,111.479L66.116,111.748L66.152,111.836L66.418,111.834L66.611,111.985L66.611,112.095L66.744,112.148L66.986,112.483L67.306,112.731L67.587,112.837L67.736,112.815L67.916,113.036L68.025,113.228L68.217,113.361L68.405,113.404L68.603,113.755L68.69,113.861L68.774,114.178L68.82,114.505L68.971,114.823L68.968,115.192L68.848,115.22L68.669,115.358L68.506,115.69L68.134,115.826L67.801,116.07L67.504,116.386L67.375,116.618L67.101,116.986L66.937,116.966L66.591,117.24L66.472,117.482L66.172,117.561L66.028,117.792L66.031,118.008L65.858,118.576L65.87,119.106L65.939,119.714L65.967,120.191L65.823,120.347L66.075,120.616L66.197,120.61L66.236,120.956L66.638,121.185L67.102,121.231L67.662,121.423L68.094,121.378L68.468,121.741L68.377,121.795L68.769,122.138L68.98,122.525L69.041,122.94L69.145,123.366L69.512,123.682L70.481,123.535L70.847,123.672L71.055,123.409L71.686,122.828L72.374,122.752L72.852,123.074L73.037,122.945L73.559,123.423L74.434,123.416L74.852,123.436L75.479,123.281L75.704,123.513L75.757,123.864L75.422,124.042L75.268,124.224L74.761,124.018L74.762,124.562L74.453,124.994L73.79,125.233L73.632,126.085L74.003,126.258L74.577,125.778L74.538,125.328L74.921,124.67L76.078,124.962L76.233,124.497L76.669,124.413L76.553,125.168L77.078,125.529L77.272,126.314L77.129,126.61L77.804,127.057L78.689,127.483L78.9,128.148L79.433,128.613L80.035,128.611L80.179,128.393L81.171,128.909L82.126,129.438L81.295,129.311L81.343,129.875L81.936,130.297L82.307,131.066L82.045,131.836L82.48,132.048L82.689,132.431L83.057,133.048L83.262,133.898L83.048,134.357L83.342,134.54L83.564,135.209L83.738,135.686L84.648,136.379L84.829,136.259L85.541,136.541L86.35,137.236L87.12,137.992L87.686,139.175L87.663,139.614L87.98,139.706L87.974,140.313L87.746,142.127L88.161,142.491L87.906,143.137L86.895,143.58L87.054,143.983L88.594,144.826L88.237,145.767L89.202,145.457L90.23,146.273L91.561,147.466L91.803,148.184L91.455,148.644L92.667,148.777L94.337,149.951L95.79,150.429L96.964,151.699L97.879,153.175L98.548,153.686L99.392,153.99L99.654,154.394L99.627,155.717L99.626,156.347L98.734,157.802L98.038,158.265L96.161,159.142L95.156,159.994L94.114,160.572L93.842,160.499L93.312,161.096L92.79,162.894L91.999,164.239L91.677,164.837L91.197,165.088L90.583,166.276L89.033,167.12L88.501,168.023L87.441,168.111L86.985,168.58L85.792,168.129L83.896,167.815L82.95,167.917L81.602,167.691L79.979,167.886L78.654,168.389L78.2,169.012L78.175,169.597L77.556,170.425L77.106,170.764L76.115,170.939L74.133,171.971L72.802,172.237L71.813,172.293L70.892,172.909ZM85.377,139.124L85.037,139.45L84.767,139.818L84.345,140.085L84.755,139.812L85.041,139.443ZM78.073,111.246L77.899,111.176L78.083,110.598L78.021,110.18L78.544,109.789L78.706,109.963L78.417,110.789ZM79.599,108.877L78.819,108.486L79.014,108.162L79.35,108.318L79.744,108.649ZM80.103,109.246L79.576,109.729L79.535,109.545L79.858,109.134L79.828,108.61L79.897,108.519ZM90.945,109.641L90.966,109.625L90.979,109.623L90.992,109.621L91.019,109.637L91.014,109.625L91.01,109.632L91.005,109.62L90.992,109.621L91.019,109.637L91.023,109.65L90.867,109.67L90.858,109.665L90.849,109.66L90.861,109.6L90.87,109.605L90.845,109.647L90.862,109.658ZM74.734,109.35L75.235,109.851L75.719,110.249L76.111,110.985L76.137,111.471L76.806,111.842L76.899,112.211L77.068,113.116L77.207,113.78L77.432,113.926L77.704,114.379L77.494,114.569L77.97,114.965L78.236,115.657L78.022,115.796L77.502,115.574L77.016,115.282L76.596,114.882L75.591,114.243L76.361,114.138L76.247,113.725L75.868,113.356L75.82,112.96L76.012,112.386L75.621,112.136L75.183,111.46L75.116,111.136L74.394,110.347L74.295,110.014L74.689,110.019L74.101,109.474L73.323,109.497L73.057,109.296L72.811,109.409L72.43,109.236L72.23,108.937L72.755,108.977L73.119,108.813L73.541,108.88L73.981,108.993L74.518,109.309ZM79.591,117.307L79.78,117.218L80.316,117.579L80.568,118.071L80.768,118.174L80.703,118.552L81.103,118.784L80.908,119.017L81.209,119.251L81.36,119.785L80.882,119.955L80.657,119.556L80.305,119.375L80.103,119.183L79.874,119.248L79.569,119.123L79.606,118.853L79.296,118.823L78.629,119.191L78.537,118.941L78.658,118.677L78.291,118.218L77.925,118.054L77.546,117.7L77.105,117.619L76.915,117.103L77.172,116.885L77.724,117.446L78.195,117.874L78.575,117.869L78.509,117.296L78.723,116.988L78.377,116.557L78.695,116.431L79.092,116.766ZM52.195,184.208L53.982,184.514L54.923,185.312L55.874,185.366L56.68,186.298L56.128,186.396L54.288,185.768L53.891,185.144L52.591,184.951ZM74.887,115.431L75.281,115.839L75.504,116.3L75.46,116.602L74.969,116.258L74.654,116.237L74.388,115.832L74.215,115.249L74.44,115.133L74.754,115.29ZM82.76,120.781L83.093,121.081L83.109,121.33L82.798,121.427L82.257,121.094L81.813,120.856L81.998,120.47L82.177,120.409ZM82.306,129.483L82.824,129.634L82.976,129.756L82.577,130.394L81.85,130.107L81.76,129.953L82.117,129.845Z" fill="rgb(211, 238, 205)" stroke="black"></path><path aria-label="adoption: 1339.1798238; id: OECD90" role="graphics-symbol" aria-roledescription="geoshape" transform="translate(0,0)" d="M286.055,90.979L286.83,89.875L286.945,89.153L287.124,88.093L287.443,87.384L288.585,87.681L288.764,88.208L289.483,88.602L289.069,88.964L289.406,90.082L289.254,90.334L288.932,91.116L287.841,91.588L287.163,91.537L286.077,91.958L285.664,91.759ZM260.074,83.405L260.953,83.309L260.859,82.512L261.383,82.307L261.94,81.942L262.316,82.219L263.195,82.294L263.723,82.303L263.939,82.074L264.85,82.084L265.299,82.354L266.051,82.248L266.97,81.242L267.697,80.629L268.359,80.039L268.535,80.257L269.336,79.831L270.515,79.736L270.453,79.223L271.016,78.898L270.957,78.579L272.027,78.697L273.41,77.666L274.451,77.009L275.316,76.915L275.874,77.048L276.442,77.311L277.418,76.989L278.251,77.312L278.628,77.645L279.378,78.24L279.936,78.372L280.551,78.82L281.247,79.613L281.43,80.667L282.035,81.351L282.369,81.914L283.067,82.542L283.379,83.163L283.989,83.712L284.588,84.085L284.914,84.116L284.998,84.944L284.556,86.359L284.547,87.615L284.708,88.325L284.84,89.206L284.044,90.085L283.594,90.79L283.17,90.411L283.095,91.136L283.348,92.492L282.678,93.449L282.256,94.081L281.899,94.759L281.149,95.794L280.252,96.339L279.467,96.263L278.879,96.35L278.249,96.775L277.635,97.862L277.365,97.283L276.568,97.267L276.941,98.111L276.622,99.247L276.412,98.391L275.966,97.989L275.727,97.327L275.005,97.121L275.354,98.426L275.326,99.288L275.837,100.067L275.034,100.813L274.585,100.539L273.571,100.954L272.959,101.375L272.847,101.082L271.594,102.259L271.165,103.042L270.184,103.902L269.22,105.948L268.747,107.556L268.337,108.984L267.699,109.978L267.457,111.409L267.098,112.469L267.419,112.952L267.536,113.569L266.996,114.509L266.64,115.246L265.896,116.102L265.494,116.938L265.068,117.696L265.1,118.623L264.851,118.915L264.731,119.618L264.655,120.31L264.105,121.058L263.614,121.781L262.317,122.542L261.768,122.998L261.311,122.655L261.558,122.058L261.494,121.75L261.178,121.575L260.7,121.047L260.135,120.829L258.919,120.803L258.346,120.638L257.915,120.271L257.081,120.305L256.838,120.154L256.189,120.377L255.467,120.053L254.414,120.147L253.969,120.037L254.632,119.858L253.642,119.653L254.231,119.338L254.753,119.268L254.323,118.983L253.338,119.013L253.017,118.928L252.619,118.977L252.222,118.523L252.161,118.188L251.854,117.761L251.305,117.531L251.002,116.719L251.679,117.079L251.409,116.273L251.68,115.305L251.662,114.586L251.864,113.641L252.1,113.163L252.387,112.957L252.594,111.985L252.889,111.33L252.804,111.058L252.89,110.761L253.268,110.223L253.672,109.058L253.631,108.279L253.337,107.748L253.266,106.901L252.95,106.65L252.501,106.336L252.194,105.225L253.177,105.257L253.251,104.737L252.645,104.842L252.413,104.292L252.857,103.961L252.276,103.468L252.168,102.686L251.958,102.251L252.095,101.673L251.862,101.521L252.205,101.154L252,101.019L252.114,100.522L252.263,99.992L253.061,99.5L253.881,99.23L254.214,98.618L254.638,98.037L254.044,97.988L253.59,97.139L253.6,96.577L253.296,96.611L253.015,95.917L253.012,95.162L253.369,94.718L253.623,93.802L253.157,93.602L252.503,94.17L252.637,93.582L253.188,93.048L253.807,92.699L254.443,91.993L254.482,91.668L255.056,91.186L255.069,90.489L255.32,90.144L255.261,89.826L255.913,89.58L256.28,90.074L256.473,90.629L256.344,90.983L256.752,91.035L257.063,91.546L257.338,92.112L257.63,92.162L258.518,91.578L259.167,90.93L259.716,90.531L260.595,90.028L260.717,89.731L261.196,89.292L261.551,89.253L262.293,88.377L262.273,87.562L261.863,87.146L261.542,86.77L261.092,86.427L260.487,85.816L259.973,85.776L259.739,85.594L259.162,85.493L258.521,85.076L258.423,84.799L258.041,84.828L257.657,84.385L257.232,83.978L256.973,83.856L256.78,83.331L257.35,83.228L257.955,83.387L258.166,83.188L258.57,83.298L259.198,83.111L259.756,83.23ZM140.592,110.568L140.059,111.163L138.787,110.952L137.86,111.309L137.803,111.915L137.854,112.493L137.251,113.168L136.411,113.382L136.357,113.726L135.948,114.283L135.702,115.091L135.949,115.655L135.566,116.112L135.418,116.756L134.894,116.948L134.395,117.708L133.515,117.696L132.86,117.658L132.406,117.992L132.123,118.364L131.782,118.266L131.544,117.911L131.379,117.329L130.756,117.138L130.457,117.38L130.107,117.209L129.739,117.297L129.902,116.531L129.88,115.915L129.59,115.803L129.459,115.4L129.557,114.76L129.858,114.423L129.935,114.019L130.11,113.426L130.131,113.01L130.029,112.642L130.027,112.306L130.107,111.6L129.879,111.14L130.836,110.497L131.586,110.723L132.447,110.758L133.113,110.957L133.645,110.917L134.678,110.973L135.008,110.382L135.153,108.398L134.538,107.344L134.097,106.828L133.193,106.416L133.162,105.687L133.938,105.492L134.927,105.774L134.753,104.644L135.302,105.075L136.654,104.289L136.823,103.478L137.321,103.266L137.777,103.058L138.058,102.78L138.498,101.286L139.238,100.843L139.7,100.843L139.788,100.625L140.251,100.547L140.367,100.752L140.704,100.237L140.555,99.879L140.483,99.311L140.232,98.772L140.142,97.763L140.212,97.488L140.346,97.167L140.798,97.076L140.959,96.785L141.352,96.473L141.382,96.986L141.256,97.325L141.339,97.597L141.642,97.726L141.542,98.112L141.375,98.012L141.052,98.76L141.235,99.229L141.283,99.618L141.847,99.807L141.879,100.156L142.416,99.916L142.695,99.617L143.352,99.939L143.643,100.226L143.826,100.706L143.71,100.991L143.947,101.317L144.146,101.835L144.149,102.181L144.459,102.784L144.215,102.922L144.048,102.826L143.942,103.028L143.553,103.27L143.361,103.538L142.968,103.793L143.098,104.091L143.207,104.499L143.529,104.703L143.907,105.088L144.377,105.362L144.66,104.916L144.857,104.817L145.352,105.057L145.619,104.971L145.918,105.119L145.886,105.247L145.992,105.578L146.008,105.989L145.672,106.035L145.811,106.239L145.704,106.905L145.607,107.083L145.081,107.176L144.809,107.44L144.303,107.427L144.291,107.921L144.486,108.318L143.984,108.235L143.517,108.638L143.604,109.13L143.554,109.423L143.818,109.904L144.459,110.335L144.877,111.126L145.68,111.834L146.179,111.761L146.372,111.958L146.216,112.176L147.361,112.684L148.002,113.124L148.104,113.29L148.029,113.666L147.597,113.26L147,113.182L146.81,113.86L147.348,114.155L147.336,114.677L147.072,114.78L146.828,115.679L146.551,115.79L146.512,115.49L146.583,114.937L146.697,114.708L146.366,114.167L146.097,113.699L145.811,113.612L145.563,113.207L145.124,113.071L144.793,112.706L144.307,112.694L143.747,112.301L143.092,111.717L142.607,111.187L142.324,110.219L142.004,110.131L141.463,109.837L141.18,109.997L140.846,110.478ZM98.809,97.8L99.116,98.13L99.623,98.393L99.157,98.597L98.933,98.534L98.477,97.785L98.515,97.418L98.872,97.269ZM101.043,96.147L100.782,96.017L100.283,95.369L100.054,94.684L100.273,94.719L100.804,95.313L101.121,95.975ZM74.77,71.353L74.5,71.172L74.391,70.098L74.608,69.771L74.655,69.143L74.851,68.91L74.727,68.3L75.089,67.84L75.317,67.78L75.416,68.414L75.46,68.792L75.636,69.314L75.43,69.66L75.166,70.148L75.115,70.863ZM104.701,96.308L103.965,96.923L104.461,96.781L104.704,97.159L104.366,97.374L104.713,97.847L105.063,97.755L105.461,98.283L104.982,98.859L105.426,98.881L105.275,99.397L105.176,100.046L104.571,100.727L104.308,100.638L104.025,100.293L104.493,99.621L104.408,99.426L103.387,99.898L103.079,99.707L103.673,99.475L103.262,99.003L102.669,98.764L101.646,98.187L101.708,97.877L102.197,97.75L102.106,97.386L102.822,97.092L104.093,95.96L104.667,95.622L105.26,95.538L105.479,95.693L105.258,95.884ZM77.064,64.095L77.375,64.528L76.289,64.898L75.797,65.693L75.695,65.494L75.947,64.982L76.27,64.59L76.414,64.202L76.764,63.915L77.063,63.801ZM100.481,80.159L100.009,80.453L99.893,80.258L99.978,79.94L100.371,79.782L100.511,79.922ZM99.838,78.948L99.052,79.011L98.807,78.774L98.902,78.503L99.469,78.381L99.966,78.8ZM100.561,75.721L100.337,76.11L100.609,76.138L100.647,76.512L100.809,77.094L101.026,77.672L100.764,78.059L101.076,78.215L101.132,78.686L100.607,78.676L100.189,78.022L100.277,77.512L99.577,77.619L98.737,77.578L98.996,77.035L98.454,76.689L99.085,76.582L99.651,76.035L100.368,75.447ZM104.722,77.128L104.299,76.875L104.503,76.416L104.983,76.082L105.383,76.205L105.496,76.63L105.252,76.978L105.13,77.061ZM99.57,70.07L99.134,70.126L98.954,69.501L98.643,69.325L98.579,68.605L99.056,68.665L99.57,68.581L99.71,69.405ZM75.397,71.442L75.358,71.378L75.607,69.899L75.779,69.316L75.623,68.215L76.238,67.505L76.823,67.281L76.851,66.445L77.507,65.976L77.832,65.056L78.288,64.8L78.484,64.362L78.545,63.802L79.245,63.269L79.674,62.299L80.395,61.636L80.242,61.17L79.916,60.417L79.927,59.752L80.454,58.371L80.438,57.854L80.441,56.915L80.103,56.306L80.182,55.225L80.381,54.53L79.997,54.083L79.384,54.409L79.234,54.177L78.847,53.697L78.388,53.377L78.014,52.906L78.553,52.661L79.555,52.579L80.005,52.988L80.203,52.777L79.484,52.353L78.75,52.223L77.861,51.737L77.498,52.234L76.679,51.973L76.127,51.563L75.696,51.143L75.235,51.132L74.518,50.469L74.027,50.425L73.462,49.922L73.447,49.544L73.062,49.121L72.614,48.661L72.192,48.299L71.714,47.441L71.865,47.325L72.449,47.815L72.853,48.266L73.51,48.701L73.763,49.322L74.221,49.482L74.983,50.043L75.21,50.107L75.646,50.389L76.396,50.29L77.031,50.389L76.589,49.896L76.714,49.693L76.291,49.518L76.701,49.068L76.327,49.018L76.76,48.722L76.262,48.315L76.192,48.006L76.756,47.835L77.143,47.843L77.417,47.456L77.097,46.861L77.468,46.354L77.635,45.978L78.187,45.863L78.534,45.417L79.138,45.49L79.759,45.769L80.288,45.834L80.438,46.198L80.353,46.544L80.895,46.807L80.891,47.161L81.274,47.439L81.7,47.252L81.816,46.956L82.268,47.206L82.196,46.93L81.875,46.509L81.629,46.416L81.768,46.013L81.525,45.397L81.638,44.686L81.996,44.423L82.459,43.755L82.98,44.308L83.658,45.191L83.733,45.553L83.224,45.595L83.465,46.508L83.993,46.023L84.246,45.414L84.67,45.004L85.005,44.513L85.209,43.874L85.767,44.016L85.944,44.752L86.5,45.178L86.993,45.175L87.545,45.479L87.748,45.851L88.367,46.5L88.388,46.881L89.07,47.348L89.03,47.995L88.672,48.404L88.92,48.524L89.05,49.202L88.825,49.248L88.861,49.901L89.085,50.268L89.067,51.193L89.255,51.971L89.246,52.319L89.597,52.774L89.552,53.475L89.595,53.943L89.684,54.754L89.514,55.56L89.617,56.001L90.151,56.16L90.651,56.487L90.813,57.093L91.492,57.457L92.025,57.946L91.791,58.391L92.148,58.552L92.601,58.41L92.646,58.711L92.217,59.759L93.084,59.9L92.458,60.333L92.863,60.692L93.197,60.675L93.415,61.136L93.405,61.899L93.642,62.928L93.826,63.506L94.12,63.814L94.031,64.579L93.282,64.37L93.564,65.132L94.348,66.002L94.717,66.19L94.528,66.919L95.216,66.987L95.274,66.375L95.722,66.376L96.077,66.756L96.37,66.96L96.402,67.371L96.263,68.057L96.638,68.371L96.803,69.243L97.369,69.641L97.779,70.122L98.2,69.664L98.592,69.819L98.805,70.537L98.126,71.187L98.886,70.832L99.113,71.096L99.961,70.524L100.078,69.772L100.028,69.147L100.848,68.397L101.696,68.238L101.961,68.724L101.943,69.325L101.555,70.518L100.953,70.618L101.372,71.301L100.673,72.045L101.62,71.855L101.568,72.669L100.975,73.135L100.838,73.923L101.656,73.686L102.462,73.24L103.191,72.424L103.591,72.862L103.973,73.372L104.096,74.115L103.813,74.515L103.224,74.733L103.128,75.338L102.783,75.679L101.671,75.665L101.099,75.386L100.942,74.863L100.51,75.158L99.629,75.493L99.239,75.737L98.389,75.873L97.856,75.472L97.297,75.53L96.83,75.976L96.346,75.696L95.367,75.86L94.197,76.289L93.504,76.704L92.655,77.507L93.074,78.154L92.589,78.981L92.239,79.689L92.896,80.047L93.31,81.035L93.448,81.668L93.416,82.276L93.735,82.916L93.898,83.607L94.534,84.22L94.924,84.668L94.299,85.286L93.8,86.166L93.414,87.294L93.483,88.56L94.034,88.575L94.903,87.945L95.631,86.527L95.654,85.871L96.628,86.036L97.529,85.837L98.179,85.465L98.548,84.895L98.769,84.01L98.728,83.036L99.831,82.561L100.209,81.71L101.022,80.368L101.424,80.386L101.92,81.089L102.264,81.459L102.741,81.478L102.911,82.016L103.077,82.834L102.982,83.233L103.662,83.784L103.193,84.473L102.638,85.622L102.945,86.006L102.944,86.693L103.865,86.622L104.857,85.926L105.376,85.704L105.256,86.668L105.097,89.421L104.6,89.863L104.948,90.703L105.103,91.43L105.74,92.066L105.895,92.515L105.701,93.362L106.023,93.672L106.05,94.106L105.58,95.132L105.051,95.276L104.534,95.406L103.534,95.279L102.508,95.653L101.569,95.318L100.603,94.515L99.862,94.064L99.307,93.81L98.515,94.164L97.641,94.131L96.205,94.766L95.113,95.157L95.625,95.302L97.155,94.732L98.654,94.693L99.457,95.069L99.657,95.759L98.83,96.045L98.442,97.07L98.227,97.817L98.66,98.64L99.614,99.026L100.694,98.347L100.385,98.997L100.562,99.504L99.569,99.712L98.076,99.539L97.342,99.581L96.364,99.823L95.996,99.512L96.414,98.781L97.765,98.644L96.899,98.159L96.245,97.898L96.166,98.224L95.339,98.273L94.607,98.21L93.885,98.088L93.285,98.406L93.068,98.536L92.765,98.972L92.642,99.518L92.858,99.691L92.995,99.351L93.041,99.646L92.838,99.854L92.392,99.744L92.14,99.556L91.647,99.429L91.043,99.132L90.424,99.047L91.325,99.456L91.38,99.721L90.443,99.44L90.1,99.199L90.191,99.103L89.866,99.222L89.99,99.371L89.464,99.869L88.624,100.212L88.726,99.973L88.644,99.843L88.604,99.512L88.407,100.025L88.44,100.271L88.228,100.581L87.819,100.769L87.035,101.187L87.012,101.12L87.584,100.699L87.525,100.179L87.958,99.463L87.594,99.732L87.338,100.335L87.068,99.941L87.256,100.478L86.717,101.258L86.836,101.426L86.683,101.75L86.174,102.612L85.373,102.946L84.611,102.744L83.891,102.927L83.571,102.764L83.052,102.839L82.772,103.035L81.745,103.05L81.128,103.165L80.48,103.41L79.945,103.891L79.616,104.517L79.283,105.339L79.099,106.102L78.844,106.441L78.405,107.573L77.969,108.092L77.705,108.373L77.174,108.723L76.909,108.68L76.681,108.341L76.862,107.921L76.773,107.555L76.985,106.633L77.194,105.811L77.36,105.439L77.898,105.025L78.081,104.467L78.165,103.453L78.038,103.143L77.183,103.005L77.11,102.878L77.143,102.291L76.947,101.795L76.235,101.328L75.813,100.805L75.349,100.47L75.019,100.377L74.929,100.661L74.65,100.948L74.635,101.2L74.444,101.203L74.333,100.899L74.002,100.848L73.62,100.444L73.572,99.677L73.021,99.316L72.794,98.774L72.411,98.499L71.799,98.21L70.783,98.238L69.948,97.999L69.315,98.022L68.87,98.206L68.359,98.676L68.046,99.034L67.902,99.369L67.673,99.175L67.447,98.614L67.264,97.973L67.469,97.485L67.863,96.887L67.981,96.179L68.231,95.591L68.49,94.841L68.431,94.184L68.013,93.733L67.108,93.898L66.928,93.223L66.904,92.727L67.201,92.229L67.446,91.708L67.498,91.094L67.513,90.61L67.62,90.173L66.823,89.179L66.49,89.442L65.23,87.81L64.804,86.05L64.555,84.873L64.757,84.819L64.141,84.123L63.612,83.478L63.962,83.093L64.177,82.386L64.087,82.044L64.293,81.823L64.113,81.458L64.196,81.092L63.925,80.489L63.966,80.249L64.385,79.889L64.873,78.776L65.745,77.561L65.95,77.458L66.08,77.028L66.528,76.143L67.174,75.647L67.455,75.064L68.247,74.768L68.975,74.314L69.522,73.747L70.466,73.481L72.094,72.687L73.187,71.904L73.829,71.305L74.132,70.919L74.34,70.885L74.493,71.795L73.852,72.564L74.151,72.551L74.805,72.04ZM97.801,61.749L97.309,61.861L98.063,62.39L97.988,63.124L98.664,63.175L98.622,63.656L98.053,64.517L98.505,64.418L99.126,63.57L99.46,63.741L99.578,64.147L99.543,64.735L98.958,65.551L98.501,66.099L98.569,66.946L98.708,67.82L98.353,68.074L97.838,67.612L97.725,68.066L97.36,68.194L96.976,67.51L96.72,66.781L96.356,66.438L95.599,66.021L94.824,65.249L94.292,64.704L94.546,64.232L94.434,63.608L94.126,63.365L94.481,62.493L94.723,62.662L95.231,63.094L95.536,63.594L95.99,63.928L95.709,63.148L95.147,62.471L94.832,61.976L95.027,61.59L95.885,62.146L95.521,61.64L95.35,60.906L96.155,60.777L96.642,60.789L97.739,61.308ZM100.345,64.524L99.612,64.691L99.772,63.778L99.963,63.792L100.319,64.161ZM108.085,72.23L107.947,72.473L107.308,71.932L106.89,71.774L106.834,71.658L106.831,70.968L107.068,70.698L107.253,70.761L107.884,71.385ZM105.025,69.688L104.85,70.36L105.65,69.981L106.66,70.294L106.531,71.522L106.076,71.995L106.875,72.248L107.41,72.164L107.811,73.092L107.982,73.8L107.773,74.182L108.521,74.426L108.508,75.187L109.113,76.066L109.197,76.595L109.041,77.597L108.133,77.563L108.635,78.662L109.11,79.21L109.185,80.308L109.754,80.72L109.286,81.262L108.023,81.861L107.76,81.21L107.657,80.017L107.097,79.819L106.741,80.27L106.838,81.017L107.126,81.733L107.157,82.058L106.903,83.068L106.394,83.591L106.024,83.05L105.445,81.748L105.546,82.829L105.654,83.599L105.539,83.941L104.644,82.903L104.114,81.859L103.91,81.138L104.203,81.002L103.658,79.393L103.492,79.636L102.326,78.969L102.222,78.459L102.9,78.061L103.599,78.552L104.43,79.001L104.513,78.619L104.931,78.305L105.959,77.838L106.109,77.405L106.165,77.036L105.904,76.26L105.413,75.465L105.785,75.425L105.793,74.668L105.536,74.402L105.484,73.93L105.128,74.025L104.455,73.659L103.427,72.519L102.958,71.72L102.557,71.163L102.543,70.672L103.171,70.617L102.749,70.229L103.339,69.406L104.169,68.961L104.745,68.924L105.663,69.389ZM101.711,65.456L101.871,65.935L102.425,66.347L102.289,66.619L101.68,66.689L101.785,67.415L101.087,67.985L100.353,67.769L100.149,67.428L100.245,66.964L100.161,65.714L100.405,65.509L100.846,66.192L101.047,65.436ZM102.863,68.202L102.038,68.431L101.74,68.084L102.194,67.298L102.561,66.949L103,66.802L103.463,66.876L104.002,67.466L104.366,68.141L103.331,68.396ZM94.978,60.644L94.002,59.987L94.263,59.582L94.249,58.509L94.694,58.447L95.46,58.316L96.202,58.272L96.54,57.639L97.335,58.655L97.455,59.226L97.938,60.066L97.903,60.539L97.795,61.116L97.316,60.854L96.191,60.446L95.343,60.411ZM104.29,66.524L103.876,66.654L103.542,66.212L103.412,65.702L103.875,65.535L104.446,65.722L104.42,66.205ZM104.289,64.025L104.144,64.539L103.777,64.9L103.12,65.287L102.626,64.908L102.478,64.501L102.919,64.112L102.458,63.713L103.026,63.184L103.262,63.502L103.877,63.686L104.172,64.092ZM101.611,61.696L101.426,62.028L101.757,62.18L101.968,62.502L101.623,62.867L101.113,62.993L100.208,62.089L99.289,61.589L98.932,61.14L99.169,60.91L99.984,61.279L98.904,59.977L98.76,59.445L99.854,59.312L100.275,59.433L100.596,60.458L100.515,61.333L100.838,61.901L101.283,60.899L101.77,60.944L101.907,61.307ZM105.507,64.749L105.564,65.257L106.07,65.749L106.07,66.2L105.758,66.411L105.907,66.864L105.918,67.197L106.261,67.563L106.608,67.991L107.193,68.206L107.819,68.625L108.241,69.053L108.313,69.6L108.122,69.98L107.777,70.04L107.203,69.851L106.905,69.448L105.983,68.866L105.387,68.36L105.017,67.854L104.514,66.938L104.801,66.454L105.119,66.068L105.162,65.503L104.72,64.881L104.654,64.365L105.04,64.178ZM98.497,57.364L99.452,57.495L100.388,57.76L100.675,58.223L101.068,58.54L100.407,58.933L99.968,58.9L99.74,58.647L99.013,58.313L98.57,57.902ZM106.02,64.662L105.883,64.572L105.465,64.054L105.599,63.793L106.083,64.31L106.126,64.618ZM102.351,60.225L101.724,59.867L101.675,59.261L102.105,59.297L102.492,59.641L102.666,60.127ZM103.18,59.817L102.767,59.599L102.433,59.136L102.548,59.058L102.995,59.167L103.072,59.339ZM105.911,63.786L105.404,63.554L105.374,63.189L105.549,62.825L105.828,62.526L106.102,62.878L106.195,63.07L106.233,63.602ZM105.096,62.538L104.887,62.915L104.582,62.418L104.449,61.771L103.974,61.161L104.416,61.229L104.336,60.753L104.61,60.495L104.939,61.088L105.272,62.025ZM109.19,64.715L109.287,65.224L108.735,65.141L107.765,65.267L107.266,64.903L106.841,64.313L106.855,63.765L107.121,63.512L107.496,63.514L107.051,63.082L107.025,62.589L107.207,62.119L107.689,61.971L108.063,61.921L108.345,62.113L108.407,61.851L108.975,62.344L108.902,63.01L109.162,63.544L109.434,64.046ZM115.994,65.566L116.654,66.066L117.153,66.517L117.507,67.033L117.363,67.261L116.484,67.251L115.72,67.025L115.358,67.059L115.954,67.418L114.989,67.531L114.385,67.482L113.466,67.852L112.804,67.596L112.508,67.637L111.62,67.123L111.921,67.497L111.625,67.503L111.566,68.067L111.099,68.15L110.502,68.051L110.126,68.267L109.554,68.196L109.452,68.407L109.961,68.747L109.821,68.949L108.689,68.824L108.127,68.01L107.219,67.441L106.894,66.99L106.419,66.492L106.708,66.114L107.35,66.389L107.707,65.733L107.908,65.826L108.332,66.773L108.392,65.971L108.095,65.456L108.562,65.358L109.175,65.581L109.477,65.377L109.37,64.775L109.606,64.287L110.261,64.907L110.388,65.163L111.022,65.209L110.523,64.648L109.617,63.946L109.42,63.305L109.495,62.828L109.418,62.362L109.603,62.064L110.075,62.252L110.366,62.476L110.937,62.77L111.529,62.789L111.787,63.075L111.864,63.512L112.387,63.244L112.807,63.375L113.305,63.633L114.075,64.165L114.145,64.347L114.967,64.722ZM142.666,98.47L142.424,99.308L141.809,98.801L141.695,98.393L142.442,97.993ZM141.482,95.337L141.085,94.75L140.174,95.984L139.516,96.264L138.773,95.796L138.545,94.727L138.294,92.433L138.705,91.776L139.896,90.862L140.732,89.763L141.433,88.301L142.27,86.266L142.884,85.428L143.85,84.02L144.674,83.44L145.355,83.363L145.805,82.423L146.541,82.314L147.211,81.95L148.628,82.349L148.177,82.746L148.778,83.231L148.181,83.798L147.872,83.967L147.98,84.671L148.779,85.155L148.572,85.981L149.351,86.956L149.261,87.855L149.849,88.472L149.827,89.153L150.678,89.639L150.639,90.173L150.35,90.84L149.643,92.328L148.783,92.61L148.002,93.153L147.247,93.512L146.863,93.037L146.331,92.802L146.264,91.81L145.878,90.967L145.995,90.365L146.304,89.668L147.13,88.396L147.385,88.133L147.252,87.727L146.54,87.4L145.831,87.82L145.521,88.583L145.699,89.173L145.117,90.086L144.348,91.076L144.202,92.517L144.646,93.162L145.201,93.639L144.917,94.823L144.425,95.134L144.46,96.811L144.291,97.782L143.639,97.767L143.442,98.589L142.828,98.699L142.556,97.784L142.006,96.699ZM144.733,96.427L144.483,97.303L144.571,97.67L144.814,96.473ZM145.826,95.681L145.691,95.67L145.663,95.724L145.472,95.771L145.24,96.187L145.292,96.336L145.274,96.462L145.357,96.615L145.347,96.84L145.451,96.791L145.492,96.569L145.612,96.476L145.589,96.381L145.71,96.295L145.72,96.219L145.633,96.233L145.587,96.034ZM145.569,89.793L145.545,90.038L145.605,90.036L145.673,89.775ZM272.403,46.137L272.72,45.774L273.225,46.011L273.303,46.734L273.123,47.354L272.674,47.425L272.374,46.944L272.541,46.44ZM0.489,44.198L0.489,44.198L0,44.232L0,44.232L0.489,44.198ZM271.765,44.232L271.956,44.971L271.956,44.971L272.103,45.708L271.723,45.838L271.566,45.246L271.536,44.89L271.276,44.198L271.765,44.232ZM0.064,44.324L0,44.232L0.489,44.198L0.547,44.434ZM142.064,112.011L141.904,112.793L141.595,112.612L141.4,111.954L141.501,111.579L141.888,111.164ZM131.803,99.174L132.254,99.16L132.802,99.81L132.475,100.481L132.532,101.195L132.058,102.07L131.024,102.593L130.237,102.376L130.772,101.37L130.563,100.338L131.368,99.612ZM133.934,102.975L133.048,102.781L132.905,102.374L133.506,102.095L133.218,101.537L133.353,100.888L134.17,101.004L134.27,100.435L133.91,99.796L133.257,99.593L133.138,99.318L133.354,98.878L133.184,98.601L132.876,99.053L132.89,98.097L132.647,97.578L132.89,96.552L133.325,95.762L133.733,95.859L134.348,95.796L133.764,96.857L134.302,96.735L134.873,96.746L134.719,97.569L134.221,98.448L134.776,98.517L134.812,98.624L135.276,99.815L135.652,99.972L135.984,101.108L136.142,101.5L136.822,101.681L136.759,102.328L136.475,102.625L136.705,103.137L136.199,103.664L135.435,103.647L134.446,103.911L134.182,103.709L133.786,104.164L133.25,104.031L132.824,104.406L132.53,104.18L133.419,103.179ZM152.384,117.058L152.83,117.31L153.353,117.142L153.882,117.096L153.899,117.267L154.253,117.072L154.229,117.379L153.251,117.673L153.217,117.513L152.339,117.492ZM152.9,111.725L152.503,111.778L152.148,111.762L151.417,112.179L151.978,112.64L151.678,112.86L151.311,112.941L150.873,112.502L150.795,112.742L151.044,113.293L151.467,113.685L151.258,113.95L151.72,114.326L152.107,114.548L152.229,115.098L151.553,114.966L151.849,115.424L151.441,115.612L151.866,116.42L151.416,116.523L150.779,116.201L150.378,115.46L150.158,114.828L149.38,113.918L149.286,113.644L149.51,113.117L149.493,112.797L149.679,112.615L149.65,112.346L150.045,112.184L150.253,111.93L150.611,111.879L150.679,111.691L150.8,111.635L151.276,111.566L151.737,111.197L152.261,111.446L152.827,111.223L152.72,110.736L153.303,110.286L153.879,110.294L154.037,110.643L154.661,110.828L154.6,111.086L153.865,111.321L153.666,111.695L153.237,112.337L152.937,111.935ZM121.719,69.08L122.902,68.906L123.892,69.316L124.381,69.094L125.425,69.323L127.733,70.061L129.455,71.218L128.822,71.5L127.635,71.295L125.973,70.983L126.081,71.199L127.188,71.36L128.046,71.903L128.71,71.728L128.903,72.131L128.449,72.626L129.315,72.412L130.905,72.267L131.827,72.566L131.958,73.007L130.562,73.556L130.347,73.757L129.274,73.764L130.028,73.942L129.53,74.601L129.156,75.194L128.984,76.291L129.303,76.996L128.741,76.955L128.113,77.159L128.673,77.796L128.621,78.649L128.212,78.67L128.551,79.597L127.713,79.527L128.074,79.998L127.891,80.322L127.33,80.379L126.797,80.276L127.149,81.043L127.073,81.477L126.379,80.925L126.129,81.14L126.601,81.494L127.004,82.187L127.009,83.011L126.256,83.058L125.643,81.955L125.641,82.648L125.059,83.056L126.12,83.322L126.672,83.488L125.402,84.117L124.098,84.637L122.795,84.667L122.336,84.545L121.804,84.796L120.924,85.64L119.809,86.036L119.501,85.982L118.85,86.028L118.159,86.036L117.584,86.493L117.347,87.145L116.908,87.692L115.914,88.172L115.823,88.966L115.333,89.673L114.75,90.492L114.072,90.292L113.69,89.269L112.789,88.886L112.564,88.202L112.663,87.176L112.429,85.709L112.487,85.016L112.804,84.182L112.632,83.08L113.091,82.484L112.979,82.041L113.866,81.18L114.614,81.104L114.94,80.795L115.34,80.124L114.76,80.245L114.485,80.288L114.081,80.251L113.759,79.732L114.031,79.11L114.407,78.712L114.757,78.863L115.407,79.455L115.038,78.58L114.856,78.113L114.437,78.063L114.241,77.692L115.054,77.065L115.003,76.63L115.038,75.862L115.115,74.718L114.871,74.157L115.067,73.789L114.483,72.8L113.844,72.35L112.199,71.476L112.014,70.977L111.842,70.116L112.794,70.364L113.425,70.706L112.302,69.668L111.88,68.883L112.141,68.587L113.484,68.922L114.795,69.18L115.091,68.939L114.518,68.16L114.976,67.976L116.298,67.966L116.753,68.107L116.862,67.652L117.646,67.792L118.575,68.112L119.44,68.535L119.619,68.965L120.607,68.817L121.143,69.451L121.524,69.698L122.015,70.245L121.514,69.464ZM129.442,87.617L129.262,88.254L129.684,88.986L129.008,89.671L127.58,90.167L127.153,90.284L126.569,90.04L125.346,89.496L125.872,89.146L124.982,88.475L125.816,88.446L125.852,88.154L124.96,87.746L125.388,87.166L126.078,87.149L126.644,87.94L127.409,87.513L127.922,87.881L128.722,87.451ZM146.405,115.488L146.256,116.298L146.401,116.592L146.32,117.113L145.741,116.806L145.39,116.74L144.38,116.342L144.423,115.828L145.227,115.83L145.902,115.642ZM141.908,112.965L142.354,113.642L142.366,114.961L142.059,114.92L141.809,115.274L141.534,115.032L141.431,113.835L141.234,113.268L141.598,113.291ZM213.04,71.759L213.388,71.826L213.756,72.454L213.345,72.571L213.395,73.004L213.828,73.436L213.362,73.728L212.939,73.515L212.583,72.894L212.87,72.574L212.625,72.128ZM212.148,66.472L212.777,67.022L213.289,67.11L213.793,67.721L213.865,68.732L213.406,69.899L214.016,71.304L213.453,71.576L212.769,71.284L212.432,72.482L212.477,73.451L212.108,74.205L213.096,73.891L214.375,75.102L214.543,75.718L214.026,75.858L213.318,75.275L212.842,75.546L212.104,75.488L212.15,74.741L211.766,74.118L211.64,73.24L211.269,72.471L211.611,71.093L212.119,70.501L210.819,69.094L211.44,68.875L210.748,67.032L209.788,66.162L208.715,65.826L208.238,65.319L208.337,64.619L209.759,64.812L210.5,65.135L211.191,66.093ZM206.365,62.058L206.724,61.718L206.484,61.151L207.582,61.41L207.501,62.403L208.215,63.29L207.207,63.974L208.078,64.711L207.81,65.387L206.865,65.082L206.276,64.486L206.484,63.842L205.287,63.145L204.632,62.677L205.874,62.39ZM274.108,61.083L274.888,60.25L275.457,59.727L275.609,60.213L275.225,60.804L274.619,61.536L273.959,62.185L273.116,62.807L272.755,62.9L272.873,62.404L273.328,61.84L273.758,61.386ZM144.481,75.749L143.792,76.311L143.141,76.188L143.33,75.89L143.071,75.612L143.737,75.29L143.942,75.625ZM141.973,74.336L143.193,74.885L142.409,75.417L142.334,76.173L142.058,76.404L142.008,77.245L141.581,77.346L140.751,76.832L141.021,76.446L140.471,76.214L139.716,75.445L139.379,74.697L140.255,74.249L140.477,74.577L140.945,74.504L141.028,74.156L141.506,74.05ZM144.196,73.204L144.908,73.413L144.541,74.04L143.606,74.359L142.602,74.367L142.496,74.111L142.019,74.172L141.593,73.765L142.553,73.331L143.061,73.481L143.33,73.131ZM295.081,55.238L295.524,54.99L295.244,54.002L295.705,53.657L296.127,53.707L296.522,54.253L297.148,55.236L297.456,55.972L297.99,55.538L297.867,56.589L298.08,57.785L298.666,58.241L299.552,59.177L300,61.025L299.777,62.277L299.303,63.107L298.965,64.574L298.561,64.737L297.963,63.877L297.295,62.014L297.255,61.109L297.038,60.1L296.7,58.864L296.3,57.994L295.652,57.285L295.472,56.742L294.956,56.48L294.612,55.481ZM290.619,52.57L291.772,51.756L291.094,51.645L291.433,51.089L292.2,50.985L292.621,49.985L292.787,49.107L292.481,48.317L292.652,47.663L293.512,48.052L294.054,48.511L293.938,49.514L294.205,49.896L294.649,49.807L294.808,50.03L295.912,51.298L296.198,52.377L295.913,52.575L295.705,53.104L294.97,52.26L294.378,52.629L293.813,53.997L293.461,53.916L293.233,52.93L292.488,52.619L291.841,52.601L291.121,53.055L290.947,52.997L290.467,53.568L289.464,54.473L288.691,54.904L288.679,54.426L289.312,53.793L289.692,52.83ZM262.922,62.979L263.32,62.769L263.151,63.487L262.453,63.752L262.835,63.179ZM262.021,64.168L261.939,64.588L261.686,65.217L261.485,65.387L261.119,65.235L261.437,64.578L261.725,64.287ZM261.949,63.245L262.098,63.435L261.073,64.024L260.449,64.109L260.532,63.757L261.392,63.554ZM260.289,64.846L260.49,64.848L259.887,65.553L259.388,66.032L258.963,66.34L258.909,66.157L259.257,65.751L259.914,65.002ZM258.714,67.002L258.712,67.233L258.372,67.622L257.864,67.932L257.722,67.832L258.295,67.339ZM162.448,108.223L163.08,107.94L163.841,108.178L164.07,108.467L164.192,108.945L164.735,108.998L165.087,109.177L164.765,109.6L165.376,110.598L165.363,110.936L166.001,111.538L165.755,111.818L165.437,111.669L164.637,111.832L164.427,112.075L163.739,112.49L163.385,112.598L162.75,113.208L162.215,113.397L161.804,113.336L161.164,113.835L160.891,113.716L161.021,114.257L160.795,114.79L160.415,114.429L160.557,113.992L160.181,114.202L159.562,114.149L159.263,114.833L158.281,115.232L157.59,114.862L156.863,115.022L156.806,115.467L156.367,115.697L155.592,115.343L154.863,115.534L154.241,114.663L153.641,114.238L153.786,113.402L153.266,113.033L153.781,111.945L154.753,111.671L154.84,110.859L156.083,110.675L156.671,109.847L157.329,109.373L158.352,109.055L159.637,109.384L160.654,109.457L161.337,109.073L161.898,108.965ZM38.986,61.899L38.789,61.832L38.873,61.587L39.147,61.535L39.456,61.302L39.57,61.319L39.773,61.409L39.947,61.3L40.054,61.319L39.977,61.742L39.929,61.902L39.839,62.062L39.552,62.365L39.499,62.356L39.207,62.108ZM40.361,61.052L40.223,60.799L40.498,60.47L40.598,60.528L40.588,60.832L40.497,61.086ZM40.725,60.373L40.617,60.378L40.534,59.943L40.667,59.968ZM40.676,59.618L40.612,59.599L40.572,59.25L40.79,59.05L40.979,59.228L40.933,59.311ZM40.966,58.114L40.849,58.048L40.958,57.736L41.171,57.85L41.201,58.043ZM75.875,52.878L75.357,52.485L75.532,52.155L75.957,51.947L76.434,52.296L76.654,52.519L76.692,52.866L76.46,53.167ZM77.027,45.975L76.818,45.705L76.942,45.345L77.154,44.999L77.41,45.451L77.395,45.853ZM80.348,42.409L80.194,42.719L80.343,42.998L80.142,43.411L80.087,43.885L79.969,43.871L79.71,43.554L79.864,43.164L80.015,42.96L79.898,42.553L79.971,42.429ZM270.007,57.899L270.069,58.3L269.578,58.587L269.319,58.508ZM268.356,58.464L269.185,58.419L269.003,58.694L269.017,58.939L268.715,59.046L267.954,58.938Z" fill="rgb(52, 156, 82)" stroke="black"></path><path aria-label="adoption: 571.522729305; id: EU" role="graphics-symbol" aria-roledescription="geoshape" transform="translate(0,0)" d="M152.9,111.725L152.503,111.778L152.148,111.762L151.417,112.179L151.978,112.64L151.678,112.86L151.311,112.941L150.873,112.502L150.795,112.742L151.044,113.293L151.467,113.685L151.258,113.95L151.72,114.326L152.107,114.548L152.229,115.098L151.553,114.966L151.849,115.424L151.441,115.612L151.866,116.42L151.416,116.523L150.779,116.201L150.378,115.46L150.158,114.828L149.38,113.918L149.286,113.644L149.51,113.117L149.493,112.797L149.679,112.615L149.65,112.346L150.045,112.184L150.253,111.93L150.611,111.879L150.679,111.691L150.8,111.635L150.629,110.994L150.246,110.743L150.328,110.586L150.235,110.487L150.282,110.154L150.462,109.795L150.08,109.427L149.952,109.086L150.067,108.831L149.921,108.684L150.03,108.497L149.858,108.397L149.708,108.658L149.29,108.436L149.173,108.042L148.76,107.875L148.637,107.573L148.244,107.243L147.861,107.266L147.431,107.6L147.647,107.955L147.884,108.214L147.708,108.615L147.395,108.441L146.972,108.522L146.417,108.438L146.134,108.503L146.022,108.724L145.774,108.527L145.697,108.949L146.066,109.37L146.24,109.659L146.583,109.982L146.855,110.166L147.147,110.544L147.769,110.838L147.723,111.018L147.076,110.744L146.657,110.434L146.037,110.223L145.41,109.563L145.524,109.474L145.19,109.097L145.14,108.766L144.72,108.661L144.586,109.104L144.365,108.801L144.341,108.442L144.357,108.423L144.486,108.318L143.984,108.235L143.517,108.638L143.604,109.13L143.554,109.423L143.818,109.904L144.459,110.335L144.877,111.126L145.68,111.834L146.179,111.761L146.372,111.958L146.216,112.176L147.361,112.684L148.002,113.124L148.104,113.29L148.029,113.666L147.597,113.26L147,113.182L146.81,113.86L147.348,114.155L147.336,114.677L147.072,114.78L146.828,115.679L146.551,115.79L146.512,115.49L146.583,114.937L146.697,114.708L146.366,114.167L146.097,113.699L145.811,113.612L145.563,113.207L145.124,113.071L144.793,112.706L144.307,112.694L143.747,112.301L143.092,111.717L142.607,111.187L142.324,110.219L142.004,110.131L141.463,109.837L141.18,109.997L140.846,110.478L140.592,110.568L140.059,111.163L138.787,110.952L137.86,111.309L137.803,111.915L137.854,112.493L137.251,113.168L136.411,113.382L136.357,113.726L135.948,114.283L135.702,115.091L135.949,115.655L135.566,116.112L135.418,116.756L134.894,116.948L134.395,117.708L133.515,117.696L132.86,117.658L132.406,117.992L132.123,118.364L131.782,118.266L131.544,117.911L131.379,117.329L130.756,117.138L130.457,117.38L130.107,117.209L129.739,117.297L129.902,116.531L129.88,115.915L129.59,115.803L129.459,115.4L129.557,114.76L129.858,114.423L129.935,114.019L130.11,113.426L130.131,113.01L130.029,112.642L130.027,112.306L130.107,111.6L129.879,111.14L130.836,110.497L131.586,110.723L132.447,110.758L133.113,110.957L133.645,110.917L134.678,110.973L135.008,110.382L135.153,108.398L134.538,107.344L134.097,106.828L133.193,106.416L133.162,105.687L133.938,105.492L134.927,105.774L134.753,104.644L135.302,105.075L136.654,104.289L136.823,103.478L137.321,103.266L137.777,103.058L138.058,102.78L138.498,101.286L139.238,100.843L139.7,100.843L139.788,100.625L140.251,100.547L140.367,100.752L140.704,100.237L140.555,99.879L140.483,99.311L140.232,98.772L140.142,97.763L140.212,97.488L140.346,97.167L140.798,97.076L140.959,96.785L141.352,96.473L141.382,96.986L141.256,97.325L141.339,97.597L141.642,97.726L141.542,98.112L141.375,98.012L141.052,98.76L141.235,99.229L141.283,99.618L141.847,99.807L141.879,100.156L142.416,99.916L142.695,99.617L143.352,99.939L143.643,100.226L143.978,99.889L144.759,99.318L145.394,98.881L145.95,98.97L146.034,99.213L146.553,99.138L147.24,99.136L148.216,98.94L148.123,98.7L148.131,98.416L147.868,98.3L147.275,98.234L147.024,97.433L146.915,96.689L147.051,96.025L147.464,95.6L148.016,96.25L148.427,96.151L148.366,95.38L148.312,94.791L148.146,94.958L147.758,94.677L147.605,94.125L148.177,93.717L148.764,93.442L149.334,93.482L149.84,93.339L149.949,93.489L149.734,94.136L150.092,95L149.944,95.361L150.246,95.525L150.402,95.992L150.698,96.526L150.229,97.031L149.949,97.262L150.099,97.688L149.736,98.095L149.73,98.682L149.223,99.164L148.706,99.269L148.813,99.689L149.034,100.036L149.111,100.421L148.817,100.687L149.079,101.11L149.182,101.548L149.63,102.341L149.629,102.624L149.363,102.794L149.004,103.712L149.235,104.126L149.102,104.093L148.986,104.381L148.945,104.796L149.325,104.998L149.418,105.255L149.625,104.99L150.012,105.03L150.393,104.953L150.716,105.136L150.883,104.942L151.294,104.761L151.392,104.497L151.638,104.442L151.841,104.496L152.088,104.741L152.368,105.12L152.845,105.612L152.962,106.029L153.002,106.456L153.21,106.877L153.518,106.995L153.76,106.768L154.084,106.872L154.154,107.116L153.915,107.394L153.705,107.353L153.817,108.562L153.606,109.033L153.543,109.786L153.879,110.294L153.303,110.286L152.72,110.736L153.092,110.929L153.03,111.579ZM142.218,107.252L141.908,107.254L141.62,107.089L141.695,106.845L141.655,106.668L140.988,106.407L140.885,106.636L140.367,106.662L140.216,106.843L139.939,106.769L139.978,107.02L139.563,107.599L139.577,108.048L139.863,107.877L140.095,108.306L140.368,108.503L140.66,108.435L140.976,108.079L141.1,108.225L141.392,108.171L141.491,107.763L141.949,107.849L142.211,107.663ZM159.559,115.955L159.601,116.028L159.009,116.614L158.638,116.591L158.377,116.247L158.693,116.117L158.833,116.137L158.991,116L159.13,115.977L159.23,116.11L159.36,116.056L159.473,115.946ZM142.666,98.47L142.424,99.308L141.809,98.801L141.695,98.393L142.442,97.993ZM141.482,95.337L141.648,94.739L141.995,94.015L142.04,92.836L141.674,92.365L141.516,91.051L141.723,90.085L142.182,90.052L142.3,89.643L142.093,89.322L142.619,87.852L142.915,86.693L143.104,85.95L143.516,85.898L143.547,85.324L144.374,85.366L144.323,84.696L144.575,84.611L144.776,84.31L145.33,84.748L145.869,84.594L146.364,84.734L146.672,84.218L146.719,83.463L147.274,82.993L147.88,83.25L147.872,83.967L147.98,84.671L148.779,85.155L148.572,85.981L149.351,86.956L149.261,87.855L149.849,88.472L149.827,89.153L150.678,89.639L150.639,90.173L150.35,90.84L149.643,92.328L148.783,92.61L148.002,93.153L147.247,93.512L146.863,93.037L146.331,92.802L146.264,91.81L145.878,90.967L145.995,90.365L146.304,89.668L147.13,88.396L147.385,88.133L147.252,87.727L146.54,87.4L145.831,87.82L145.521,88.583L145.699,89.173L145.117,90.086L144.348,91.076L144.202,92.517L144.646,93.162L145.201,93.639L144.917,94.823L144.425,95.134L144.46,96.811L144.291,97.782L143.639,97.767L143.442,98.589L142.828,98.699L142.556,97.784L142.006,96.699ZM144.733,96.427L144.483,97.303L144.571,97.67L144.814,96.473ZM145.826,95.681L145.691,95.67L145.663,95.724L145.472,95.771L145.24,96.187L145.292,96.336L145.274,96.462L145.357,96.615L145.347,96.84L145.451,96.791L145.492,96.569L145.612,96.476L145.589,96.381L145.71,96.295L145.72,96.219L145.633,96.233L145.587,96.034ZM145.569,89.793L145.545,90.038L145.605,90.036L145.673,89.775ZM142.064,112.011L141.904,112.793L141.595,112.612L141.4,111.954L141.501,111.579L141.888,111.164ZM131.803,99.174L132.254,99.16L132.802,99.81L132.475,100.481L132.532,101.195L132.058,102.07L131.024,102.593L130.237,102.376L130.772,101.37L130.563,100.338L131.368,99.612ZM133.934,102.975L133.048,102.781L132.905,102.374L133.506,102.095L133.218,101.537L133.353,100.888L134.17,101.004L134.27,100.435L133.91,99.796L133.257,99.593L133.138,99.318L133.354,98.878L133.184,98.601L132.876,99.053L132.89,98.097L132.647,97.578L132.89,96.552L133.325,95.762L133.733,95.859L134.348,95.796L133.764,96.857L134.302,96.735L134.873,96.746L134.719,97.569L134.221,98.448L134.776,98.517L134.812,98.624L135.276,99.815L135.652,99.972L135.984,101.108L136.142,101.5L136.822,101.681L136.759,102.328L136.475,102.625L136.705,103.137L136.199,103.664L135.435,103.647L134.446,103.911L134.182,103.709L133.786,104.164L133.25,104.031L132.824,104.406L132.53,104.18L133.419,103.179ZM152.384,117.058L152.83,117.31L153.353,117.142L153.882,117.096L153.899,117.267L154.253,117.072L154.229,117.379L153.251,117.673L153.217,117.513L152.339,117.492ZM146.405,115.488L146.256,116.298L146.401,116.592L146.32,117.113L145.741,116.806L145.39,116.74L144.38,116.342L144.423,115.828L145.227,115.83L145.902,115.642ZM141.908,112.965L142.354,113.642L142.366,114.961L142.059,114.92L141.809,115.274L141.534,115.032L141.431,113.835L141.234,113.268L141.598,113.291ZM146.045,117.929L145.959,117.964L145.895,117.922L145.882,117.817ZM145.847,117.772L145.847,117.772L145.847,117.772Z" fill="rgb(156, 214, 152)" stroke="black"></path><path aria-label="adoption: 1165.83605376; id: China" role="graphics-symbol" aria-roledescription="geoshape" transform="translate(0,0)" d="M216.269,95.872L216.202,96.738L215.538,97.098L214.848,96.587L214.749,95.985L215.075,95.094L215.379,94.721L215.805,94.808L215.929,95.36ZM197.907,67.881L198.856,67.592L199.801,67.81L200.218,66.995L200.098,66.358L200.26,65.352L200.935,66.023L201.169,66.383L202.05,67.053L202.747,67.855L202.247,68.449L202.314,69.086L203.142,69.335L204.152,69.959L204.031,70.263L204.472,70.494L203.761,70.581L204.135,71.078L204.034,72.156L204.54,72.32L204.235,72.804L203.82,72.908L204.208,73.648L204.312,74.545L204.593,75.341L204.357,76.287L204.497,76.95L204.338,77.714L204.142,77.165L203.735,77.078L203.443,76.278L202.818,76.295L202.815,76.975L202.994,77.968L203.309,78.668L202.99,79.241L203.174,79.788L203.947,79.867L204.391,79.49L204.771,79.716L205.314,79.42L205.127,78.393L205.776,78.081L206.038,77.719L206.532,77.897L206.253,78.874L206.536,79.435L206.6,80.274L206.982,80.961L207.855,80.618L208.84,80.91L209.842,81.022L210.755,81.008L211.382,81.409L211.368,81.956L211.906,82.081L212.404,81.868L213.037,82.397L213.608,82.979L213.455,83.393L214.063,84.432L214.831,85.67L215.421,86.933L215.591,88.358L215.644,89.757L215.214,90.572L215.289,91.229L214.863,91.276L214.999,91.94L214.732,93.146L214.336,93.933L215,94.788L214.768,95.199L214.064,94.922L213.873,94.541L212.947,95.212L212.839,95.613L212.116,96.098L211.56,96.136L211.195,95.678L210.594,96.13L210.059,96.188L210.02,97.061L209.598,97.736L209.174,98.215L209.073,98.703L208.903,99.119L209.844,99.78L209.534,100.094L209.303,99.997L208.983,99.743L208.795,100.38L208.421,100.525L207.74,100.714L207.281,99.982L206.797,100.217L206.003,99.728L205.55,100.462L204.745,99.578L204.651,98.472L204.069,97.886L203.491,97.38L203.089,97.464L202.49,97.243L202.233,97.622L201.561,98.111L201.44,97.637L200.735,97.461L200.673,98.145L200.043,98.422L199.872,99.492L199.899,100.505L199.548,101.014L199.119,101.051L198.805,101.315L198.247,101.524L198.119,101.989L198.246,102.881L197.67,102.345L197.463,102.809L196.729,103.334L195.929,103.731L195.174,103.81L194.606,104.036L194.099,103.833L193.687,103.987L192.688,103.975L192.026,104.113L191.942,104.495L190.691,104.591L189.723,104.535L188.893,103.793L189.393,103.583L189.101,103.158L188.558,102.938L188.123,102.242L186.802,101.781L185.651,102.142L185.025,101.639L184.338,101.574L184.076,101.411L183.655,101.009L183.455,100.68L182.974,100.733L182.856,100.947L182.184,100.292L182.206,99.996L182.005,99.858L182.242,99.108L182.498,98.681L183.144,98.378L182.961,97.711L183.558,97.117L183.505,96.654L183.978,95.603L183.913,95.373L183.523,94.953L183.7,94.478L182.178,93.476L182.901,92.395L183,92.019L182.206,90.365L183.332,89.842L183.297,89.279L182.658,88.503L182.967,88.103L182.866,87.309L182.984,87.093L183.56,87.509L184.291,87.563L185.168,87.252L186.027,87.554L186.659,88.564L187.115,88.729L187.767,88.343L188.462,87.858L189.439,87.76L189.795,87.563L190.649,87.998L191.342,88.14L191.813,87.612L192.878,86.804L193.355,86.071L193.888,85.693L194.973,85.366L195.478,84.773L195.899,84.742L195.963,83.831L196.356,82.799L196.92,82.016L197.101,81.204L196.949,80.512L196.949,79.952L196.623,79.843L196.199,79.77L195.883,79.128L196.165,78.898L196.703,78.505L196.635,77.688L196.855,76.689L196.565,75.943L196.577,75.43L196.958,74.62L197.31,74.274L197.048,74.033L196.161,74.107L195.63,74.335L195.681,74.919L195.218,75.322L195.122,75.678L194.706,75.575L194.125,74.663L193.669,73.999L194.373,73.628L194.294,72.589L193.927,72.36L193.318,71.361L193.221,70.919L192.748,70.629L192.382,70.762L192.211,70.103L192.422,69.423L192.783,68.783L193.459,68.219L194.022,67.981L195.075,68.179L195.551,68.199L196.177,68.337L197.14,68.621Z" fill="rgb(71, 172, 95)" stroke="black"></path><path aria-label="adoption: 588.526116162; id: India" role="graphics-symbol" aria-roledescription="geoshape" transform="translate(0,0)" d="M186.802,101.781L188.123,102.242L188.558,102.938L189.101,103.158L189.393,103.583L188.893,103.793L189.723,104.535L190.691,104.591L191.942,104.495L191.85,105.143L192.199,106.065L193.012,105.898L193.877,105.819L195.005,105.62L195.892,105.034L196.558,105.141L197.078,104.82L197.938,104.368L198.41,103.923L198.207,103.568L197.704,103.174L197.463,102.809L197.67,102.345L198.246,102.881L198.395,103.011L199.169,102.819L199.418,102.364L199.94,101.961L200.374,101.512L199.98,101.041L199.548,101.014L199.899,100.505L199.872,99.492L200.043,98.422L200.673,98.145L200.735,97.461L201.44,97.637L201.561,98.111L202.233,97.622L202.548,97.848L202.5,98.16L202.98,98.543L202.474,98.812L202.269,100.017L202.691,100.402L202.98,101.296L203.29,101.667L203.627,102.497L203.023,102.785L203.715,103.536L203.826,103.909L204.188,104.148L204.067,104.598L202.652,103.762L202.503,103.917L202.854,104.464L202.178,104.397L201.964,103.812L202.177,103.529L201.853,102.661L201.405,102.855L200.892,103.366L200.258,103.781L199.729,103.325L199.42,103.544L198.673,103.641L198.924,104.328L199.695,104.334L199.585,104.942L199.693,105.329L200.245,105.203L200.547,105.735L201.257,106.093L201.913,106.622L202.062,106.973L201.646,107.34L201.034,108.162L201.561,108.688L201.617,109.422L201.156,110.721L201.202,112.224L201.113,113.108L200.873,114.163L201.163,114.517L200.987,114.976L200.604,115.745L200.319,116.034L200.592,116.796L201.527,117.702L202.078,118.318L202.372,119.303L203.416,120.633L203.071,120.965L203.209,121.819L203.625,121.91L203.139,122.645L203.3,123.375L203.184,123.831L201.918,123.605L200.744,122.736L199.871,122.13L199.335,121.935L198.395,121.435L197.483,120.552L197.001,120.133L195.556,119.476L194.158,118.092L193.224,117.189L192.535,116.196L191.871,115.523L191.219,116.691L190.677,116.907L189.118,116.495L189.244,115.974L188.828,115.777L187.58,115.581L187.664,114.731L189.122,113.78L188.509,113.149L187.868,112.967L187.375,112.383L186.703,112.278L186.829,110.951L187.614,110.51L187.677,109.198L187.48,108.1L187.497,106.868L187.07,106.289L187.235,105.456L186.474,105.4L185.886,104.997L185.161,104.429L185.202,103.879L186.224,103.444L186.769,102.849Z" fill="rgb(153, 213, 150)" stroke="black"></path><path aria-label="adoption: 588.449764052; id: USA" role="graphics-symbol" aria-roledescription="geoshape" transform="translate(0,0)" d="M82.76,120.781L83.093,121.081L83.109,121.33L82.798,121.427L82.257,121.094L81.813,120.856L81.998,120.47L82.177,120.409ZM38.986,61.899L38.789,61.832L38.873,61.587L39.147,61.535L39.456,61.302L39.57,61.319L39.773,61.409L39.947,61.3L40.054,61.319L39.977,61.742L39.929,61.902L39.839,62.062L39.552,62.365L39.499,62.356L39.207,62.108ZM40.361,61.052L40.223,60.799L40.498,60.47L40.598,60.528L40.588,60.832L40.497,61.086ZM40.725,60.373L40.617,60.378L40.534,59.943L40.667,59.968ZM40.676,59.618L40.612,59.599L40.572,59.25L40.79,59.05L40.979,59.228L40.933,59.311ZM40.966,58.114L40.849,58.048L40.958,57.736L41.171,57.85L41.201,58.043ZM96.245,97.898L96.166,98.224L95.339,98.273L94.607,98.21L93.885,98.088L93.285,98.406L93.068,98.536L92.765,98.972L92.642,99.518L92.858,99.691L92.995,99.351L93.041,99.646L92.838,99.854L92.392,99.744L92.14,99.556L91.647,99.429L91.043,99.132L90.424,99.047L91.325,99.456L91.38,99.721L90.443,99.44L90.1,99.199L90.191,99.103L89.866,99.222L89.99,99.371L89.464,99.869L88.624,100.212L88.726,99.973L88.644,99.843L88.604,99.512L88.407,100.025L88.44,100.271L88.228,100.581L87.819,100.769L87.035,101.187L87.012,101.12L87.584,100.699L87.525,100.179L87.958,99.463L87.594,99.732L87.338,100.335L87.068,99.941L87.256,100.478L86.717,101.258L86.836,101.426L86.683,101.75L86.174,102.612L85.373,102.946L84.611,102.744L83.891,102.927L83.571,102.764L83.052,102.839L82.772,103.035L81.745,103.05L81.128,103.165L80.48,103.41L79.945,103.891L79.616,104.517L79.283,105.339L79.099,106.102L78.844,106.441L78.405,107.573L77.969,108.092L77.705,108.373L77.174,108.723L76.909,108.68L76.681,108.341L76.862,107.921L76.773,107.555L76.985,106.633L77.194,105.811L77.36,105.439L77.898,105.025L78.081,104.467L78.165,103.453L78.038,103.143L77.183,103.005L77.11,102.878L77.143,102.291L76.947,101.795L76.235,101.328L75.813,100.805L75.349,100.47L75.019,100.377L74.929,100.661L74.65,100.948L74.635,101.2L74.444,101.203L74.333,100.899L74.002,100.848L73.62,100.444L73.572,99.677L73.021,99.316L72.794,98.774L72.411,98.499L71.799,98.21L70.783,98.238L69.948,97.999L69.315,98.022L68.87,98.206L68.359,98.676L68.046,99.034L67.902,99.369L67.673,99.175L67.447,98.614L67.264,97.973L67.469,97.485L67.863,96.887L67.981,96.179L68.231,95.591L68.49,94.841L68.431,94.184L68.013,93.733L67.108,93.898L66.928,93.223L66.904,92.727L67.201,92.229L67.446,91.708L67.498,91.094L67.513,90.61L67.62,90.173L66.823,89.179L66.49,89.442L65.23,87.81L64.804,86.05L64.555,84.873L64.757,84.819L64.141,84.123L63.612,83.478L63.962,83.093L64.177,82.386L64.087,82.044L64.293,81.823L64.113,81.458L64.196,81.092L63.925,80.489L63.966,80.249L64.385,79.889L64.873,78.776L65.745,77.561L65.95,77.458L66.08,77.028L66.528,76.143L67.174,75.647L67.455,75.064L68.247,74.768L68.975,74.314L69.522,73.747L70.466,73.481L72.094,72.687L73.187,71.904L73.829,71.305L74.132,70.919L74.34,70.885L74.493,71.795L73.852,72.564L74.151,72.551L74.805,72.04L75.397,71.442L85.425,84.296L85.692,84.033L85.838,84.169L85.526,84.631L85.534,84.882L85.785,85.213L86.113,85.752L86.304,86.367L86.748,86.61L87.106,87.302L87.254,87.428L87.845,87.581L88.198,88.914L88.499,90.028L88.375,90.266L88.417,90.43L88.32,90.477L88.431,90.613L88.585,90.605L88.459,90.808L88.452,91.005L88.585,91.116L88.573,91.266L88.397,91.354L88.593,92.131L88.125,92.91L87.681,93.665L87.157,94.006L86.571,94.233L86.241,94.416L86.165,94.479L86.127,94.639L86.198,94.9L86.326,95.005L87.251,95.072L87.869,95.366L88.834,95.488L88.909,95.422L89.048,95.137L89.09,94.922L89.412,94.975L90.375,95.694L90.762,95.503L91.832,95.305L92.171,95.318L92.951,95.862L93.9,96.516L94.089,96.348L94.284,96.42L94.593,96.431L95.016,96.173L95.603,95.631L96.402,95.256L96.424,95.582L96.857,95.666L96.927,96.05L96.201,97.195ZM75.875,52.878L75.357,52.485L75.532,52.155L75.957,51.947L76.434,52.296L76.654,52.519L76.692,52.866L76.46,53.167ZM77.027,45.975L76.818,45.705L76.942,45.345L77.154,44.999L77.41,45.451L77.395,45.853ZM80.348,42.409L80.194,42.719L80.343,42.998L80.142,43.411L80.087,43.885L79.969,43.871L79.71,43.554L79.864,43.164L80.015,42.96L79.898,42.553L79.971,42.429ZM89.595,53.943L86.178,55.364L80.941,57.552L81.102,58.017L81.039,58.572L80.783,59.064L80.363,59.745L81.08,59.958L81.585,60.285L81.234,60.744L81.015,61.23L80.814,61.842L80.314,62.449L79.544,63.443L79.398,64.541L78.849,64.849L78.288,64.8L78.484,64.362L78.545,63.802L79.245,63.269L79.674,62.299L80.395,61.636L80.242,61.17L79.916,60.417L79.927,59.752L80.454,58.371L80.438,57.854L80.441,56.915L80.103,56.306L80.182,55.225L80.381,54.53L79.997,54.083L79.384,54.409L79.234,54.177L78.847,53.697L78.388,53.377L78.014,52.906L78.553,52.661L79.555,52.579L80.005,52.988L80.203,52.777L79.484,52.353L78.75,52.223L77.861,51.737L77.498,52.234L76.679,51.973L76.127,51.563L75.696,51.143L75.235,51.132L74.518,50.469L74.027,50.425L73.462,49.922L73.447,49.544L73.062,49.121L72.614,48.661L72.192,48.299L71.714,47.441L71.865,47.325L72.449,47.815L72.853,48.266L73.51,48.701L73.763,49.322L74.221,49.482L74.983,50.043L75.21,50.107L75.646,50.389L76.396,50.29L77.031,50.389L76.589,49.896L76.714,49.693L76.291,49.518L76.701,49.068L76.327,49.018L76.76,48.722L76.262,48.315L76.192,48.006L76.756,47.835L77.143,47.843L77.417,47.456L77.097,46.861L77.468,46.354L77.635,45.978L78.187,45.863L78.534,45.417L79.138,45.49L79.759,45.769L80.288,45.834L80.438,46.198L80.353,46.544L80.895,46.807L80.891,47.161L81.274,47.439L81.7,47.252L81.816,46.956L82.268,47.206L82.196,46.93L81.875,46.509L81.629,46.416L81.768,46.013L81.525,45.397L81.638,44.686L81.996,44.423L82.459,43.755L82.98,44.308L83.658,45.191L83.733,45.553L83.224,45.595L83.465,46.508L83.993,46.023L84.246,45.414L84.67,45.004L85.005,44.513L85.209,43.874L85.767,44.016L85.944,44.752L86.5,45.178L86.993,45.175L87.545,45.479L87.748,45.851L88.367,46.5L88.388,46.881L89.07,47.348L89.03,47.995L88.672,48.404L88.92,48.524L89.05,49.202L88.825,49.248L88.861,49.901L89.085,50.268L89.067,51.193L89.255,51.971L89.246,52.319L89.597,52.774L89.552,53.475Z" fill="rgb(153, 213, 150)" stroke="black"></path></g><g class="mark-group role-legend" role="graphics-symbol" aria-roledescription="legend" aria-label="Gradient legend titled 'adoption' for fill color with values from 88 to 1,901"><g transform="translate(318,0)"><path class="background" aria-hidden="true" d="M0,0h51v216h-51Z" pointer-events="none"></path><g><g class="mark-group role-legend-entry"><g transform="translate(0,16)"><path class="background" aria-hidden="true" d="M0,0h0v0h0Z" pointer-events="none"></path><g><g class="mark-rect role-legend-gradient" pointer-events="none"><path d="M0,0h16v200h-16Z" fill="url(file:///D:/files/study2024/VL2D3_20241224/datasets/VLchart_html/vl_0065.vl.html#gradient_0)" stroke="#ddd" stroke-width="0" opacity="1"></path></g><g class="mark-text role-legend-label" pointer-events="none"><text text-anchor="start" transform="translate(18,157.51840167449956)" font-family="sans-serif" font-size="10px" fill="#000" opacity="1">500</text><text text-anchor="start" transform="translate(18,102.36376918618856)" font-family="sans-serif" font-size="10px" fill="#000" opacity="1">1,000</text><text text-anchor="start" transform="translate(18,47.20913669787756)" font-family="sans-serif" font-size="10px" fill="#000" opacity="1">1,500</text></g></g><path class="foreground" aria-hidden="true" d="" pointer-events="none" display="none"></path></g></g><g class="mark-text role-legend-title" pointer-events="none"><text text-anchor="start" transform="translate(0,9)" font-family="sans-serif" font-size="11px" font-weight="bold" fill="#000" opacity="1">adoption</text></g></g><path class="foreground" aria-hidden="true" d="" pointer-events="none" display="none"></path></g></g><g class="mark-group role-title"><g transform="translate(150,-17)"><path class="background" aria-hidden="true" d="M0,0h0v0h0Z" pointer-events="none"></path><g><g class="mark-text role-title-text" role="graphics-symbol" aria-roledescription="title" aria-label="Title text 'Regional Adoption in 2050'" pointer-events="none"><text text-anchor="middle" transform="translate(0,10)" font-family="sans-serif" font-size="13px" font-weight="bold" fill="#000" opacity="1">Regional Adoption in 2050</text></g></g><path class="foreground" aria-hidden="true" d="" pointer-events="none" display="none"></path></g></g></g><path class="foreground" aria-hidden="true" d="" display="none"></path></g></g></g><defs><linearGradient id="gradient_0" x1="0" x2="0" y1="1" y2="0"><stop offset="0" stop-color="rgb(211, 238, 205)"></stop><stop offset="0.006789461674258265" stop-color="rgb(210, 237, 204)"></stop><stop offset="0.061944094162569255" stop-color="rgb(199, 233, 193)"></stop><stop offset="0.11709872665088024" stop-color="rgb(188, 228, 182)"></stop><stop offset="0.17225335913919126" stop-color="rgb(177, 223, 171)"></stop><stop offset="0.22740799162750225" stop-color="rgb(165, 218, 160)"></stop><stop offset="0.28256262411581323" stop-color="rgb(152, 213, 148)"></stop><stop offset="0.3377172566041242" stop-color="rgb(139, 206, 137)"></stop><stop offset="0.3928718890924352" stop-color="rgb(125, 200, 126)"></stop><stop offset="0.4480265215807462" stop-color="rgb(110, 193, 117)"></stop><stop offset="0.5031811540690572" stop-color="rgb(95, 186, 108)"></stop><stop offset="0.5583357865573682" stop-color="rgb(81, 177, 100)"></stop><stop offset="0.6134904190456791" stop-color="rgb(67, 169, 92)"></stop><stop offset="0.6686450515339901" stop-color="rgb(56, 159, 85)"></stop><stop offset="0.7237996840223011" stop-color="rgb(46, 150, 78)"></stop><stop offset="0.7789543165106122" stop-color="rgb(36, 141, 70)"></stop><stop offset="0.8341089489989232" stop-color="rgb(26, 131, 62)"></stop><stop offset="0.8892635814872342" stop-color="rgb(16, 121, 55)"></stop><stop offset="0.9444182139755452" stop-color="rgb(9, 111, 48)"></stop><stop offset="0.9995728464638561" stop-color="rgb(3, 100, 41)"></stop><stop offset="1" stop-color="rgb(3, 100, 41)"></stop></linearGradient></defs></svg>