<svg xmlns="http://www.w3.org/2000/svg" xmlns:xlink="http://www.w3.org/1999/xlink" version="1.1" class="marks" width="803" height="347" viewBox="0 0 803 347" style="background-color: white;"><g fill="none" stroke-miterlimit="10" transform="translate(33,10)"><g class="mark-group role-frame root" role="graphics-object" aria-roledescription="group mark container"><g transform="translate(0,0)"><path class="background" aria-hidden="true" d="M0.5,0.5h762v300h-762Z" fill="transparent" stroke="#ddd"></path><g><g class="mark-group role-axis" aria-hidden="true"><g transform="translate(0.5,300.5)"><path class="background" aria-hidden="true" d="M0,0h0v0h0Z" pointer-events="none"></path><g><g class="mark-rule role-axis-grid" pointer-events="none"><line transform="translate(0,-300)" x2="0" y2="300" stroke="#ddd" stroke-width="1" opacity="1"></line><line transform="translate(40,-300)" x2="0" y2="300" stroke="#ddd" stroke-width="1" opacity="1"></line><line transform="translate(80,-300)" x2="0" y2="300" stroke="#ddd" stroke-width="1" opacity="1"></line><line transform="translate(120,-300)" x2="0" y2="300" stroke="#ddd" stroke-width="1" opacity="1"></line><line transform="translate(160,-300)" x2="0" y2="300" stroke="#ddd" stroke-width="1" opacity="1"></line><line transform="translate(201,-300)" x2="0" y2="300" stroke="#ddd" stroke-width="1" opacity="1"></line><line transform="translate(241,-300)" x2="0" y2="300" stroke="#ddd" stroke-width="1" opacity="1"></line><line transform="translate(281,-300)" x2="0" y2="300" stroke="#ddd" stroke-width="1" opacity="1"></line><line transform="translate(321,-300)" x2="0" y2="300" stroke="#ddd" stroke-width="1" opacity="1"></line><line transform="translate(361,-300)" x2="0" y2="300" stroke="#ddd" stroke-width="1" opacity="1"></line><line transform="translate(401,-300)" x2="0" y2="300" stroke="#ddd" stroke-width="1" opacity="1"></line><line transform="translate(441,-300)" x2="0" y2="300" stroke="#ddd" stroke-width="1" opacity="1"></line><line transform="translate(481,-300)" x2="0" y2="300" stroke="#ddd" stroke-width="1" opacity="1"></line><line transform="translate(521,-300)" x2="0" y2="300" stroke="#ddd" stroke-width="1" opacity="1"></line><line transform="translate(561,-300)" x2="0" y2="300" stroke="#ddd" stroke-width="1" opacity="1"></line><line transform="translate(602,-300)" x2="0" y2="300" stroke="#ddd" stroke-width="1" opacity="1"></line><line transform="translate(642,-300)" x2="0" y2="300" stroke="#ddd" stroke-width="1" opacity="1"></line><line transform="translate(682,-300)" x2="0" y2="300" stroke="#ddd" stroke-width="1" opacity="1"></line><line transform="translate(722,-300)" x2="0" y2="300" stroke="#ddd" stroke-width="1" opacity="1"></line><line transform="translate(762,-300)" x2="0" y2="300" stroke="#ddd" stroke-width="1" opacity="1"></line></g></g><path class="foreground" aria-hidden="true" d="" pointer-events="none" display="none"></path></g></g><g class="mark-group role-axis" aria-hidden="true"><g transform="translate(0.5,0.5)"><path class="background" aria-hidden="true" d="M0,0h0v0h0Z" pointer-events="none"></path><g><g class="mark-rule role-axis-grid" pointer-events="none"><line transform="translate(0,300)" x2="762" y2="0" stroke="#ddd" stroke-width="1" opacity="1"></line><line transform="translate(0,250)" x2="762" y2="0" stroke="#ddd" stroke-width="1" opacity="1"></line><line transform="translate(0,200)" x2="762" y2="0" stroke="#ddd" stroke-width="1" opacity="1"></line><line transform="translate(0,150)" x2="762" y2="0" stroke="#ddd" stroke-width="1" opacity="1"></line><line transform="translate(0,100)" x2="762" y2="0" stroke="#ddd" stroke-width="1" opacity="1"></line><line transform="translate(0,50)" x2="762" y2="0" stroke="#ddd" stroke-width="1" opacity="1"></line><line transform="translate(0,0)" x2="762" y2="0" stroke="#ddd" stroke-width="1" opacity="1"></line></g></g><path class="foreground" aria-hidden="true" d="" pointer-events="none" display="none"></path></g></g><g class="mark-group role-axis" role="graphics-symbol" aria-roledescription="axis" aria-label="X-axis titled 'year' for a time scale with values from 1980 to 2018"><g transform="translate(0.5,300.5)"><path class="background" aria-hidden="true" d="M0,0h0v0h0Z" pointer-events="none"></path><g><g class="mark-rule role-axis-tick" pointer-events="none"><line transform="translate(0,0)" x2="0" y2="5" stroke="#888" stroke-width="1" opacity="1"></line><line transform="translate(40,0)" x2="0" y2="5" stroke="#888" stroke-width="1" opacity="1"></line><line transform="translate(80,0)" x2="0" y2="5" stroke="#888" stroke-width="1" opacity="1"></line><line transform="translate(120,0)" x2="0" y2="5" stroke="#888" stroke-width="1" opacity="1"></line><line transform="translate(160,0)" x2="0" y2="5" stroke="#888" stroke-width="1" opacity="1"></line><line transform="translate(201,0)" x2="0" y2="5" stroke="#888" stroke-width="1" opacity="1"></line><line transform="translate(241,0)" x2="0" y2="5" stroke="#888" stroke-width="1" opacity="1"></line><line transform="translate(281,0)" x2="0" y2="5" stroke="#888" stroke-width="1" opacity="1"></line><line transform="translate(321,0)" x2="0" y2="5" stroke="#888" stroke-width="1" opacity="1"></line><line transform="translate(361,0)" x2="0" y2="5" stroke="#888" stroke-width="1" opacity="1"></line><line transform="translate(401,0)" x2="0" y2="5" stroke="#888" stroke-width="1" opacity="1"></line><line transform="translate(441,0)" x2="0" y2="5" stroke="#888" stroke-width="1" opacity="1"></line><line transform="translate(481,0)" x2="0" y2="5" stroke="#888" stroke-width="1" opacity="1"></line><line transform="translate(521,0)" x2="0" y2="5" stroke="#888" stroke-width="1" opacity="1"></line><line transform="translate(561,0)" x2="0" y2="5" stroke="#888" stroke-width="1" opacity="1"></line><line transform="translate(602,0)" x2="0" y2="5" stroke="#888" stroke-width="1" opacity="1"></line><line transform="translate(642,0)" x2="0" y2="5" stroke="#888" stroke-width="1" opacity="1"></line><line transform="translate(682,0)" x2="0" y2="5" stroke="#888" stroke-width="1" opacity="1"></line><line transform="translate(722,0)" x2="0" y2="5" stroke="#888" stroke-width="1" opacity="1"></line><line transform="translate(762,0)" x2="0" y2="5" stroke="#888" stroke-width="1" opacity="1"></line></g><g class="mark-text role-axis-label" pointer-events="none"><text text-anchor="start" transform="translate(0,15)" font-family="sans-serif" font-size="10px" fill="#000" opacity="1">1980</text><text text-anchor="middle" transform="translate(40.131268011527375,15)" font-family="sans-serif" font-size="10px" fill="#000" opacity="1">1982</text><text text-anchor="middle" transform="translate(80.20763688760807,15)" font-family="sans-serif" font-size="10px" fill="#000" opacity="1">1984</text><text text-anchor="middle" transform="translate(120.33890489913544,15)" font-family="sans-serif" font-size="10px" fill="#000" opacity="1">1986</text><text text-anchor="middle" transform="translate(160.41527377521615,15)" font-family="sans-serif" font-size="10px" fill="#000" opacity="1">1988</text><text text-anchor="middle" transform="translate(200.5465417867435,15)" font-family="sans-serif" font-size="10px" fill="#000" opacity="1">1990</text><text text-anchor="middle" transform="translate(240.6229106628242,15)" font-family="sans-serif" font-size="10px" fill="#000" opacity="1">1992</text><text text-anchor="middle" transform="translate(280.7541786743516,15)" font-family="sans-serif" font-size="10px" fill="#000" opacity="1">1994</text><text text-anchor="middle" transform="translate(320.8305475504323,15)" font-family="sans-serif" font-size="10px" fill="#000" opacity="1">1996</text><text text-anchor="middle" transform="translate(360.96181556195967,15)" font-family="sans-serif" font-size="10px" fill="#000" opacity="1">1998</text><text text-anchor="middle" transform="translate(401.03818443804033,15)" font-family="sans-serif" font-size="10px" fill="#000" opacity="1">2000</text><text text-anchor="middle" transform="translate(441.16945244956776,15)" font-family="sans-serif" font-size="10px" fill="#000" opacity="1">2002</text><text text-anchor="middle" transform="translate(481.2458213256484,15)" font-family="sans-serif" font-size="10px" fill="#000" opacity="1">2004</text><text text-anchor="middle" transform="translate(521.3770893371758,15)" font-family="sans-serif" font-size="10px" fill="#000" opacity="1">2006</text><text text-anchor="middle" transform="translate(561.4534582132565,15)" font-family="sans-serif" font-size="10px" fill="#000" opacity="1">2008</text><text text-anchor="middle" transform="translate(601.5847262247839,15)" font-family="sans-serif" font-size="10px" fill="#000" opacity="1">2010</text><text text-anchor="middle" transform="translate(641.6610951008646,15)" font-family="sans-serif" font-size="10px" fill="#000" opacity="1">2012</text><text text-anchor="middle" transform="translate(681.7923631123919,15)" font-family="sans-serif" font-size="10px" fill="#000" opacity="1">2014</text><text text-anchor="middle" transform="translate(721.8687319884726,15)" font-family="sans-serif" font-size="10px" fill="#000" opacity="1">2016</text><text text-anchor="end" transform="translate(762,15)" font-family="sans-serif" font-size="10px" fill="#000" opacity="1">2018</text></g><g class="mark-rule role-axis-domain" pointer-events="none"><line transform="translate(0,0)" x2="762" y2="0" stroke="#888" stroke-width="1" opacity="1"></line></g><g class="mark-text role-axis-title" pointer-events="none"><text text-anchor="middle" transform="translate(381,30)" font-family="sans-serif" font-size="11px" font-weight="bold" fill="#000" opacity="1">year</text></g></g><path class="foreground" aria-hidden="true" d="" pointer-events="none" display="none"></path></g></g><g class="mark-group role-axis" role="graphics-symbol" aria-roledescription="axis" aria-label="Y-axis titled 'Oil Production [km^3]' for a linear scale with values from 0 to 6"><g transform="translate(0.5,0.5)"><path class="background" aria-hidden="true" d="M0,0h0v0h0Z" pointer-events="none"></path><g><g class="mark-rule role-axis-tick" pointer-events="none"><line transform="translate(0,300)" x2="-5" y2="0" stroke="#888" stroke-width="1" opacity="1"></line><line transform="translate(0,250)" x2="-5" y2="0" stroke="#888" stroke-width="1" opacity="1"></line><line transform="translate(0,200)" x2="-5" y2="0" stroke="#888" stroke-width="1" opacity="1"></line><line transform="translate(0,150)" x2="-5" y2="0" stroke="#888" stroke-width="1" opacity="1"></line><line transform="translate(0,100)" x2="-5" y2="0" stroke="#888" stroke-width="1" opacity="1"></line><line transform="translate(0,50)" x2="-5" y2="0" stroke="#888" stroke-width="1" opacity="1"></line><line transform="translate(0,0)" x2="-5" y2="0" stroke="#888" stroke-width="1" opacity="1"></line></g><g class="mark-text role-axis-label" pointer-events="none"><text text-anchor="end" transform="translate(-7,303)" font-family="sans-serif" font-size="10px" fill="#000" opacity="1">0</text><text text-anchor="end" transform="translate(-7,253)" font-family="sans-serif" font-size="10px" fill="#000" opacity="1">1</text><text text-anchor="end" transform="translate(-7,203.00000000000003)" font-family="sans-serif" font-size="10px" fill="#000" opacity="1">2</text><text text-anchor="end" transform="translate(-7,153)" font-family="sans-serif" font-size="10px" fill="#000" opacity="1">3</text><text text-anchor="end" transform="translate(-7,103.00000000000001)" font-family="sans-serif" font-size="10px" fill="#000" opacity="1">4</text><text text-anchor="end" transform="translate(-7,52.999999999999986)" font-family="sans-serif" font-size="10px" fill="#000" opacity="1">5</text><text text-anchor="end" transform="translate(-7,3)" font-family="sans-serif" font-size="10px" fill="#000" opacity="1">6</text></g><g class="mark-rule role-axis-domain" pointer-events="none"><line transform="translate(0,300)" x2="0" y2="-300" stroke="#888" stroke-width="1" opacity="1"></line></g><g class="mark-text role-axis-title" pointer-events="none"><text text-anchor="middle" transform="translate(-16.8642578125,150) rotate(-90) translate(0,-2)" font-family="sans-serif" font-size="11px" font-weight="bold" fill="#000" opacity="1">Oil Production [km^3]</text></g></g><path class="foreground" aria-hidden="true" d="" pointer-events="none" display="none"></path></g></g><g class="mark-line role-mark layer_0_marks" role="graphics-object" aria-roledescription="line mark container"><path aria-label="year: 1980; Oil Production [km^3]: 3.71324684451; km^3: 3.71" role="graphics-symbol" aria-roledescription="line mark" d="M0,114.338L20.093,124.162L40.131,131.422L60.169,131.918L80.208,127.177L100.301,128.358L120.339,121.455L140.377,119.813L160.415,113.145L180.508,109.878L200.547,107.232L220.585,107.516L240.623,106.898L260.716,105.305L280.754,100.843L300.792,96.006L320.831,91.131L340.924,84.649L360.962,80.404L381,82.85L401.038,74.468L421.131,74.63L441.169,76.281L461.208,68.972L481.246,57.665L501.339,52.91L521.377,52.561L541.415,52.413L561.453,48.531L581.547,50.879L601.585,42.96L621.623,41.678L641.661,35.622L661.754,33.954L681.792,26.48L701.831,18.28L721.869,16.826L741.962,15.167L762,7.562" stroke="dodgerblue" stroke-width="2"></path></g><g class="mark-symbol role-mark layer_1_marks" role="graphics-object" aria-roledescription="symbol mark container"><path aria-label="year: 1980; Oil Production [km^3]: 3.71324684451; km^3: 3.71" role="graphics-symbol" aria-roledescription="point" transform="translate(0,114.3376577743831)" d="M2.739,0A2.739,2.739,0,1,1,-2.739,0A2.739,2.739,0,1,1,2.739,0" fill="dodgerblue" stroke-width="2" opacity="0.7"></path><path aria-label="year: 1981; Oil Production [km^3]: 3.51675603662; km^3: 3.52" role="graphics-symbol" aria-roledescription="point" transform="translate(20.093083573487032,124.16219816908118)" d="M2.739,0A2.739,2.739,0,1,1,-2.739,0A2.739,2.739,0,1,1,2.739,0" fill="dodgerblue" stroke-width="2" opacity="0.7"></path><path aria-label="year: 1982; Oil Production [km^3]: 3.3715640693; km^3: 3.37" role="graphics-symbol" aria-roledescription="point" transform="translate(40.131268011527375,131.4217965351575)" d="M2.739,0A2.739,2.739,0,1,1,-2.739,0A2.739,2.739,0,1,1,2.739,0" fill="dodgerblue" stroke-width="2" opacity="0.7"></path><path aria-label="year: 1983; Oil Production [km^3]: 3.36164087729; km^3: 3.36" role="graphics-symbol" aria-roledescription="point" transform="translate(60.16945244956772,131.91795613571668)" d="M2.739,0A2.739,2.739,0,1,1,-2.739,0A2.739,2.739,0,1,1,2.739,0" fill="dodgerblue" stroke-width="2" opacity="0.7"></path><path aria-label="year: 1984; Oil Production [km^3]: 3.45646248984; km^3: 3.46" role="graphics-symbol" aria-roledescription="point" transform="translate(80.20763688760807,127.17687550815123)" d="M2.739,0A2.739,2.739,0,1,1,-2.739,0A2.739,2.739,0,1,1,2.739,0" fill="dodgerblue" stroke-width="2" opacity="0.7"></path><path aria-label="year: 1985; Oil Production [km^3]: 3.43284413224; km^3: 3.43" role="graphics-symbol" aria-roledescription="point" transform="translate(100.30072046109511,128.35779338784468)" d="M2.739,0A2.739,2.739,0,1,1,-2.739,0A2.739,2.739,0,1,1,2.739,0" fill="dodgerblue" stroke-width="2" opacity="0.7"></path><path aria-label="year: 1986; Oil Production [km^3]: 3.57089836496; km^3: 3.57" role="graphics-symbol" aria-roledescription="point" transform="translate(120.33890489913544,121.45508175199515)" d="M2.739,0A2.739,2.739,0,1,1,-2.739,0A2.739,2.739,0,1,1,2.739,0" fill="dodgerblue" stroke-width="2" opacity="0.7"></path><path aria-label="year: 1987; Oil Production [km^3]: 3.60374355021; km^3: 3.60" role="graphics-symbol" aria-roledescription="point" transform="translate(140.3770893371758,119.81282248932558)" d="M2.739,0A2.739,2.739,0,1,1,-2.739,0A2.739,2.739,0,1,1,2.739,0" fill="dodgerblue" stroke-width="2" opacity="0.7"></path><path aria-label="year: 1988; Oil Production [km^3]: 3.73709732356; km^3: 3.74" role="graphics-symbol" aria-roledescription="point" transform="translate(160.41527377521615,113.14513382216195)" d="M2.739,0A2.739,2.739,0,1,1,-2.739,0A2.739,2.739,0,1,1,2.739,0" fill="dodgerblue" stroke-width="2" opacity="0.7"></path><path aria-label="year: 1989; Oil Production [km^3]: 3.80243951189; km^3: 3.80" role="graphics-symbol" aria-roledescription="point" transform="translate(180.50835734870316,109.87802440561441)" d="M2.739,0A2.739,2.739,0,1,1,-2.739,0A2.739,2.739,0,1,1,2.739,0" fill="dodgerblue" stroke-width="2" opacity="0.7"></path><path aria-label="year: 1990; Oil Production [km^3]: 3.85536320261; km^3: 3.86" role="graphics-symbol" aria-roledescription="point" transform="translate(200.5465417867435,107.2318398692988)" d="M2.739,0A2.739,2.739,0,1,1,-2.739,0A2.739,2.739,0,1,1,2.739,0" fill="dodgerblue" stroke-width="2" opacity="0.7"></path><path aria-label="year: 1991; Oil Production [km^3]: 3.84967622708; km^3: 3.85" role="graphics-symbol" aria-roledescription="point" transform="translate(220.58472622478388,107.51618864622746)" d="M2.739,0A2.739,2.739,0,1,1,-2.739,0A2.739,2.739,0,1,1,2.739,0" fill="dodgerblue" stroke-width="2" opacity="0.7"></path><path aria-label="year: 1992; Oil Production [km^3]: 3.86203669432; km^3: 3.86" role="graphics-symbol" aria-roledescription="point" transform="translate(240.6229106628242,106.89816528412736)" d="M2.739,0A2.739,2.739,0,1,1,-2.739,0A2.739,2.739,0,1,1,2.739,0" fill="dodgerblue" stroke-width="2" opacity="0.7"></path><path aria-label="year: 1993; Oil Production [km^3]: 3.89389536341; km^3: 3.89" role="graphics-symbol" aria-roledescription="point" transform="translate(260.71599423631125,105.30523182970056)" d="M2.739,0A2.739,2.739,0,1,1,-2.739,0A2.739,2.739,0,1,1,2.739,0" fill="dodgerblue" stroke-width="2" opacity="0.7"></path><path aria-label="year: 1994; Oil Production [km^3]: 3.98314606114; km^3: 3.98" role="graphics-symbol" aria-roledescription="point" transform="translate(280.7541786743516,100.84269694279993)" d="M2.739,0A2.739,2.739,0,1,1,-2.739,0A2.739,2.739,0,1,1,2.739,0" fill="dodgerblue" stroke-width="2" opacity="0.7"></path><path aria-label="year: 1995; Oil Production [km^3]: 4.07988267566; km^3: 4.08" role="graphics-symbol" aria-roledescription="point" transform="translate(300.79236311239197,96.0058662168809)" d="M2.739,0A2.739,2.739,0,1,1,-2.739,0A2.739,2.739,0,1,1,2.739,0" fill="dodgerblue" stroke-width="2" opacity="0.7"></path><path aria-label="year: 1996; Oil Production [km^3]: 4.1773736849; km^3: 4.18" role="graphics-symbol" aria-roledescription="point" transform="translate(320.8305475504323,91.13131575524694)" d="M2.739,0A2.739,2.739,0,1,1,-2.739,0A2.739,2.739,0,1,1,2.739,0" fill="dodgerblue" stroke-width="2" opacity="0.7"></path><path aria-label="year: 1997; Oil Production [km^3]: 4.30701351503; km^3: 4.31" role="graphics-symbol" aria-roledescription="point" transform="translate(340.92363112391934,84.6493242485265)" d="M2.739,0A2.739,2.739,0,1,1,-2.739,0A2.739,2.739,0,1,1,2.739,0" fill="dodgerblue" stroke-width="2" opacity="0.7"></path><path aria-label="year: 1998; Oil Production [km^3]: 4.39191193557; km^3: 4.39" role="graphics-symbol" aria-roledescription="point" transform="translate(360.96181556195967,80.40440322152024)" d="M2.739,0A2.739,2.739,0,1,1,-2.739,0A2.739,2.739,0,1,1,2.739,0" fill="dodgerblue" stroke-width="2" opacity="0.7"></path><path aria-label="year: 1999; Oil Production [km^3]: 4.34299233987; km^3: 4.34" role="graphics-symbol" aria-roledescription="point" transform="translate(381,82.85038300673303)" d="M2.739,0A2.739,2.739,0,1,1,-2.739,0A2.739,2.739,0,1,1,2.739,0" fill="dodgerblue" stroke-width="2" opacity="0.7"></path><path aria-label="year: 2000; Oil Production [km^3]: 4.51064205753; km^3: 4.51" role="graphics-symbol" aria-roledescription="point" transform="translate(401.03818443804033,74.46789712360162)" d="M2.739,0A2.739,2.739,0,1,1,-2.739,0A2.739,2.739,0,1,1,2.739,0" fill="dodgerblue" stroke-width="2" opacity="0.7"></path><path aria-label="year: 2001; Oil Production [km^3]: 4.50739235722; km^3: 4.51" role="graphics-symbol" aria-roledescription="point" transform="translate(421.13126801152737,74.63038213898949)" d="M2.739,0A2.739,2.739,0,1,1,-2.739,0A2.739,2.739,0,1,1,2.739,0" fill="dodgerblue" stroke-width="2" opacity="0.7"></path><path aria-label="year: 2002; Oil Production [km^3]: 4.47437308088; km^3: 4.47" role="graphics-symbol" aria-roledescription="point" transform="translate(441.16945244956776,76.28134595605484)" d="M2.739,0A2.739,2.739,0,1,1,-2.739,0A2.739,2.739,0,1,1,2.739,0" fill="dodgerblue" stroke-width="2" opacity="0.7"></path><path aria-label="year: 2003; Oil Production [km^3]: 4.62055156437; km^3: 4.62" role="graphics-symbol" aria-roledescription="point" transform="translate(461.2076368876081,68.97242178173575)" d="M2.739,0A2.739,2.739,0,1,1,-2.739,0A2.739,2.739,0,1,1,2.739,0" fill="dodgerblue" stroke-width="2" opacity="0.7"></path><path aria-label="year: 2004; Oil Production [km^3]: 4.84669588757; km^3: 4.85" role="graphics-symbol" aria-roledescription="point" transform="translate(481.2458213256484,57.66520562162404)" d="M2.739,0A2.739,2.739,0,1,1,-2.739,0A2.739,2.739,0,1,1,2.739,0" fill="dodgerblue" stroke-width="2" opacity="0.7"></path><path aria-label="year: 2005; Oil Production [km^3]: 4.94180765193; km^3: 4.94" role="graphics-symbol" aria-roledescription="point" transform="translate(501.33890489913546,52.90961740339893)" d="M2.739,0A2.739,2.739,0,1,1,-2.739,0A2.739,2.739,0,1,1,2.739,0" fill="dodgerblue" stroke-width="2" opacity="0.7"></path><path aria-label="year: 2006; Oil Production [km^3]: 4.94877129545; km^3: 4.95" role="graphics-symbol" aria-roledescription="point" transform="translate(521.3770893371758,52.561435227567934)" d="M2.739,0A2.739,2.739,0,1,1,-2.739,0A2.739,2.739,0,1,1,2.739,0" fill="dodgerblue" stroke-width="2" opacity="0.7"></path><path aria-label="year: 2007; Oil Production [km^3]: 4.95173084394; km^3: 4.95" role="graphics-symbol" aria-roledescription="point" transform="translate(541.4152737752161,52.413457802839716)" d="M2.739,0A2.739,2.739,0,1,1,-2.739,0A2.739,2.739,0,1,1,2.739,0" fill="dodgerblue" stroke-width="2" opacity="0.7"></path><path aria-label="year: 2008; Oil Production [km^3]: 5.02937546915; km^3: 5.03" role="graphics-symbol" aria-roledescription="point" transform="translate(561.4534582132565,48.53122654232413)" d="M2.739,0A2.739,2.739,0,1,1,-2.739,0A2.739,2.739,0,1,1,2.739,0" fill="dodgerblue" stroke-width="2" opacity="0.7"></path><path aria-label="year: 2009; Oil Production [km^3]: 4.98242890578; km^3: 4.98" role="graphics-symbol" aria-roledescription="point" transform="translate(581.5465417867435,50.878554711051436)" d="M2.739,0A2.739,2.739,0,1,1,-2.739,0A2.739,2.739,0,1,1,2.739,0" fill="dodgerblue" stroke-width="2" opacity="0.7"></path><path aria-label="year: 2010; Oil Production [km^3]: 5.14079376542; km^3: 5.14" role="graphics-symbol" aria-roledescription="point" transform="translate(601.5847262247839,42.960311729028156)" d="M2.739,0A2.739,2.739,0,1,1,-2.739,0A2.739,2.739,0,1,1,2.739,0" fill="dodgerblue" stroke-width="2" opacity="0.7"></path><path aria-label="year: 2011; Oil Production [km^3]: 5.16644318571; km^3: 5.17" role="graphics-symbol" aria-roledescription="point" transform="translate(621.6229106628242,41.67784071471726)" d="M2.739,0A2.739,2.739,0,1,1,-2.739,0A2.739,2.739,0,1,1,2.739,0" fill="dodgerblue" stroke-width="2" opacity="0.7"></path><path aria-label="year: 2012; Oil Production [km^3]: 5.28755255253; km^3: 5.29" role="graphics-symbol" aria-roledescription="point" transform="translate(641.6610951008646,35.62237237338981)" d="M2.739,0A2.739,2.739,0,1,1,-2.739,0A2.739,2.739,0,1,1,2.739,0" fill="dodgerblue" stroke-width="2" opacity="0.7"></path><path aria-label="year: 2013; Oil Production [km^3]: 5.32092001105; km^3: 5.32" role="graphics-symbol" aria-roledescription="point" transform="translate(661.7541786743516,33.95399944753298)" d="M2.739,0A2.739,2.739,0,1,1,-2.739,0A2.739,2.739,0,1,1,2.739,0" fill="dodgerblue" stroke-width="2" opacity="0.7"></path><path aria-label="year: 2014; Oil Production [km^3]: 5.47040622521; km^3: 5.47" role="graphics-symbol" aria-roledescription="point" transform="translate(681.7923631123919,26.479688739694083)" d="M2.739,0A2.739,2.739,0,1,1,-2.739,0A2.739,2.739,0,1,1,2.739,0" fill="dodgerblue" stroke-width="2" opacity="0.7"></path><path aria-label="year: 2015; Oil Production [km^3]: 5.63440003002; km^3: 5.63" role="graphics-symbol" aria-roledescription="point" transform="translate(701.8305475504322,18.279998498874093)" d="M2.739,0A2.739,2.739,0,1,1,-2.739,0A2.739,2.739,0,1,1,2.739,0" fill="dodgerblue" stroke-width="2" opacity="0.7"></path><path aria-label="year: 2016; Oil Production [km^3]: 5.6634732417; km^3: 5.66" role="graphics-symbol" aria-roledescription="point" transform="translate(721.8687319884726,16.826337914779643)" d="M2.739,0A2.739,2.739,0,1,1,-2.739,0A2.739,2.739,0,1,1,2.739,0" fill="dodgerblue" stroke-width="2" opacity="0.7"></path><path aria-label="year: 2017; Oil Production [km^3]: 5.69666660913; km^3: 5.70" role="graphics-symbol" aria-roledescription="point" transform="translate(741.9618155619596,15.166669543318523)" d="M2.739,0A2.739,2.739,0,1,1,-2.739,0A2.739,2.739,0,1,1,2.739,0" fill="dodgerblue" stroke-width="2" opacity="0.7"></path><path aria-label="year: 2018; Oil Production [km^3]: 5.84876418961; km^3: 5.85" role="graphics-symbol" aria-roledescription="point" transform="translate(762,7.561790519543033)" d="M2.739,0A2.739,2.739,0,1,1,-2.739,0A2.739,2.739,0,1,1,2.739,0" fill="dodgerblue" stroke-width="2" opacity="0.7"></path></g></g><path class="foreground" aria-hidden="true" d="" display="none"></path></g></g></g></svg>