<svg xmlns="http://www.w3.org/2000/svg" xmlns:xlink="http://www.w3.org/1999/xlink" version="1.1" class="marks" width="534" height="610" viewBox="0 0 534 610" style="background-color: transparent;"><g fill="none" stroke-miterlimit="10" transform="translate(6,5)"><g class="mark-group role-frame root" role="graphics-object" aria-roledescription="group mark container"><g transform="translate(0,0)"><path class="background" aria-hidden="true" d="M0,0h300v600h-300Z" fill="transparent"></path><g><g class="mark-shape role-mark marks" role="graphics-object" aria-roledescription="shape mark container"><path aria-label="properties.name: Tanzania" role="graphics-symbol" aria-roledescription="geoshape" transform="translate(0,0)" d="M229.32,311.676L253.092,334.445L257.018,368.767L230.797,376.052L223.217,362.176L214.268,356.764L208.423,333.366L213.687,320.624L213.504,312.805Z" fill="#72b7b2"></path><path aria-label="properties.name: W. Sahara" role="graphics-symbol" aria-roledescription="geoshape" transform="translate(0,0)" d="M38.309,140.268L38.188,141.763L0.503,178.993L0.791,176.504Z" fill="#ff9da6"></path><path aria-label="properties.name: Dem. Rep. Congo" role="graphics-symbol" aria-roledescription="geoshape" transform="translate(0,0)" d="M208.423,333.366L214.268,356.764L208.532,386.543L183.046,372.462L131.24,343.127L130.62,341.236L134.348,335.082L159.138,284.45L199.451,273.891L215.273,284.42L209.688,314.068L207.112,323.223Z" fill="#f58518"></path><path aria-label="properties.name: Somalia" role="graphics-symbol" aria-roledescription="geoshape" transform="translate(0,0)" d="M264.151,316.158L265.202,281.918L291.336,257.021L295.504,236.346Z" fill="#bab0ac"></path><path aria-label="properties.name: Kenya" role="graphics-symbol" aria-roledescription="geoshape" transform="translate(0,0)" d="M253.092,334.445L229.32,311.676L229.587,279.897L235.304,272.232L265.202,281.918L264.151,316.158Z" fill="#e45756"></path><path aria-label="properties.name: Sudan" role="graphics-symbol" aria-roledescription="geoshape" transform="translate(0,0)" d="M186.412,255.646L178.295,237.969L180.648,187.382L184.956,173.107L236.924,173.107L245.691,196.78L238.298,218.181L228.808,252.877Z" fill="#e45756"></path><path aria-label="properties.name: Chad" role="graphics-symbol" aria-roledescription="geoshape" transform="translate(0,0)" d="M180.648,187.382L178.295,237.969L144.533,260.557L140.464,227.593L140.323,168.046Z" fill="#9d755d"></path><path aria-label="properties.name: South Africa" role="graphics-symbol" aria-roledescription="geoshape" transform="translate(0,0)" d="M145.291,476.729L161.766,454.799L204.328,439.166L211.958,440.106L213.001,461.031L213.526,466.168L216.786,466.216L188.405,490.04L158.674,511.578ZM199.053,478.888L194.482,487.902L190.142,484.115L195.252,478.295Z" fill="#f58518"></path><path aria-label="properties.name: Lesotho" role="graphics-symbol" aria-roledescription="geoshape" transform="translate(0,0)" d="M199.053,478.888L194.482,487.902L190.142,484.115L195.252,478.295Z" fill="#72b7b2"></path><path aria-label="properties.name: Zimbabwe" role="graphics-symbol" aria-roledescription="geoshape" transform="translate(0,0)" d="M211.958,440.106L204.328,439.166L187.51,413.397L210.463,400.074Z" fill="#bab0ac"></path><path aria-label="properties.name: Botswana" role="graphics-symbol" aria-roledescription="geoshape" transform="translate(0,0)" d="M204.328,439.166L161.766,454.799L186.735,412.952L187.51,413.397Z" fill="#72b7b2"></path><path aria-label="properties.name: Namibia" role="graphics-symbol" aria-roledescription="geoshape" transform="translate(0,0)" d="M161.766,454.799L145.291,476.729L127.567,410.805L178.48,412.125L186.735,412.952Z" fill="#e45756"></path><path aria-label="properties.name: Senegal" role="graphics-symbol" aria-roledescription="geoshape" transform="translate(0,0)" d="M0.638,223.158L2.168,207.904L21.093,217.01L23.805,230.106L14.01,229.241L0.628,230.457L0,225.832Z" fill="#ff9da6"></path><path aria-label="properties.name: Mali" role="graphics-symbol" aria-roledescription="geoshape" transform="translate(0,0)" d="M23.805,230.106L21.093,217.01L50.777,211.699L54.132,155.737L94.322,189.903L77.144,215.136L51.136,242.643L39.305,243.638Z" fill="#9d755d"></path><path aria-label="properties.name: Mauritania" role="graphics-symbol" aria-roledescription="geoshape" transform="translate(0,0)" d="M0.503,178.993L38.188,141.763L54.132,155.737L50.777,211.699L21.093,217.01L2.168,207.904Z" fill="#bab0ac"></path><path aria-label="properties.name: Benin" role="graphics-symbol" aria-roledescription="geoshape" transform="translate(0,0)" d="M87.651,267.642L83.912,268.353L79.517,238.847L85.146,233.144L91.696,234.836Z" fill="#e45756"></path><path aria-label="properties.name: Niger" role="graphics-symbol" aria-roledescription="geoshape" transform="translate(0,0)" d="M140.323,168.046L140.464,227.593L139.099,229.86L91.696,234.836L85.146,233.144L77.144,215.136L94.322,189.903L127.76,164.487Z" fill="#72b7b2"></path><path aria-label="properties.name: Nigeria" role="graphics-symbol" aria-roledescription="geoshape" transform="translate(0,0)" d="M87.651,267.642L91.696,234.836L139.099,229.86L113.982,276.71Z" fill="#54a24b"></path><path aria-label="properties.name: Cameroon" role="graphics-symbol" aria-roledescription="geoshape" transform="translate(0,0)" d="M140.464,227.593L144.533,260.557L148.112,292.005L134.788,292.009L126.625,292.046L119.243,291.907L113.982,276.71L139.099,229.86Z" fill="#b279a2"></path><path aria-label="properties.name: Togo" role="graphics-symbol" aria-roledescription="geoshape" transform="translate(0,0)" d="M79.517,238.847L83.912,268.353L80.269,269.653L75.577,238.718Z" fill="#54a24b"></path><path aria-label="properties.name: Ghana" role="graphics-symbol" aria-roledescription="geoshape" transform="translate(0,0)" d="M75.577,238.718L80.269,269.653L62.532,275.352L62.725,247.06Z" fill="#bab0ac"></path><path aria-label="properties.name: Côte d'Ivoire" role="graphics-symbol" aria-roledescription="geoshape" transform="translate(0,0)" d="M39.305,243.638L51.136,242.643L62.725,247.06L62.532,275.352L40.52,279.197L37.336,258.95Z" fill="#4c78a8"></path><path aria-label="properties.name: Guinea" role="graphics-symbol" aria-roledescription="geoshape" transform="translate(0,0)" d="M14.01,229.241L23.805,230.106L39.305,243.638L37.336,258.95L29.283,254.569L15.701,251.55L7.414,238.586Z" fill="#4c78a8"></path><path aria-label="properties.name: Guinea-Bissau" role="graphics-symbol" aria-roledescription="geoshape" transform="translate(0,0)" d="M0.628,230.457L14.01,229.241L7.414,238.586Z" fill="#f58518"></path><path aria-label="properties.name: Liberia" role="graphics-symbol" aria-roledescription="geoshape" transform="translate(0,0)" d="M37.336,258.95L40.52,279.197L23.733,264.43L29.283,254.569Z" fill="#54a24b"></path><path aria-label="properties.name: Sierra Leone" role="graphics-symbol" aria-roledescription="geoshape" transform="translate(0,0)" d="M15.701,251.55L29.283,254.569L23.733,264.43Z" fill="#9d755d"></path><path aria-label="properties.name: Burkina Faso" role="graphics-symbol" aria-roledescription="geoshape" transform="translate(0,0)" d="M51.136,242.643L77.144,215.136L85.146,233.144L79.517,238.847L75.577,238.718L62.725,247.06Z" fill="#54a24b"></path><path aria-label="properties.name: Central African Rep." role="graphics-symbol" aria-roledescription="geoshape" transform="translate(0,0)" d="M199.451,273.891L159.138,284.45L148.112,292.005L144.533,260.557L178.295,237.969L186.412,255.646Z" fill="#ff9da6"></path><path aria-label="properties.name: Congo" role="graphics-symbol" aria-roledescription="geoshape" transform="translate(0,0)" d="M159.138,284.45L134.348,335.082L129.442,336.649L125.757,330.184L134.788,292.009L148.112,292.005Z" fill="#bab0ac"></path><path aria-label="properties.name: Gabon" role="graphics-symbol" aria-roledescription="geoshape" transform="translate(0,0)" d="M126.625,292.046L134.788,292.009L125.757,330.184L118.547,299.692Z" fill="#ff9da6"></path><path aria-label="properties.name: Eq. Guinea" role="graphics-symbol" aria-roledescription="geoshape" transform="translate(0,0)" d="M119.243,291.907L126.625,292.046L118.547,299.692Z" fill="#54a24b"></path><path aria-label="properties.name: Zambia" role="graphics-symbol" aria-roledescription="geoshape" transform="translate(0,0)" d="M214.268,356.764L223.217,362.176L224.065,390.847L210.463,400.074L187.51,413.397L186.735,412.952L178.48,412.125L183.046,372.462L208.532,386.543Z" fill="#9d755d"></path><path aria-label="properties.name: Malawi" role="graphics-symbol" aria-roledescription="geoshape" transform="translate(0,0)" d="M223.217,362.176L230.797,376.052L224.065,390.847Z" fill="#ff9da6"></path><path aria-label="properties.name: Mozambique" role="graphics-symbol" aria-roledescription="geoshape" transform="translate(0,0)" d="M230.797,376.052L257.018,368.767L238.105,418.336L216.786,466.216L213.526,466.168L213.001,461.031L211.958,440.106L210.463,400.074L224.065,390.847Z" fill="#f58518"></path><path aria-label="properties.name: eSwatini" role="graphics-symbol" aria-roledescription="geoshape" transform="translate(0,0)" d="M213.526,466.168L213.001,461.031L213.526,466.168Z" fill="#4c78a8"></path><path aria-label="properties.name: Angola" role="graphics-symbol" aria-roledescription="geoshape" transform="translate(0,0)" d="M134.348,335.082L130.62,341.236L129.442,336.649ZM131.24,343.127L183.046,372.462L178.48,412.125L127.567,410.805Z" fill="#f58518"></path><path aria-label="properties.name: Burundi" role="graphics-symbol" aria-roledescription="geoshape" transform="translate(0,0)" d="M213.687,320.624L208.423,333.366L207.112,323.223Z" fill="#eeca3b"></path><path aria-label="properties.name: Madagascar" role="graphics-symbol" aria-roledescription="geoshape" transform="translate(0,0)" d="M297.768,381.792L300,401.262L271.81,459.632L270.6,411.45Z" fill="#b279a2"></path><path aria-label="properties.name: Gambia" role="graphics-symbol" aria-roledescription="geoshape" transform="translate(0,0)" d="M0.638,223.158L0,225.832L0.638,223.158Z" fill="#9d755d"></path><path aria-label="properties.name: Tunisia" role="graphics-symbol" aria-roledescription="geoshape" transform="translate(0,0)" d="M115.664,125.179L109.966,88.422L123.509,109.322Z" fill="#eeca3b"></path><path aria-label="properties.name: Algeria" role="graphics-symbol" aria-roledescription="geoshape" transform="translate(0,0)" d="M38.188,141.763L38.309,140.268L66.493,98.109L109.966,88.422L115.664,125.179L127.76,164.487L94.322,189.903L54.132,155.737Z" fill="#4c78a8"></path><path aria-label="properties.name: Eritrea" role="graphics-symbol" aria-roledescription="geoshape" transform="translate(0,0)" d="M238.298,218.181L245.691,196.78L268.69,228.556L265.473,229.506Z" fill="#eeca3b"></path><path aria-label="properties.name: Morocco" role="graphics-symbol" aria-roledescription="geoshape" transform="translate(0,0)" d="M66.493,98.109L38.309,140.268L0.791,176.504L32.398,135.465Z" fill="#4c78a8"></path><path aria-label="properties.name: Egypt" role="graphics-symbol" aria-roledescription="geoshape" transform="translate(0,0)" d="M236.924,173.107L184.956,173.107L181.51,118.076L220.1,120.04Z" fill="#72b7b2"></path><path aria-label="properties.name: Libya" role="graphics-symbol" aria-roledescription="geoshape" transform="translate(0,0)" d="M184.956,173.107L180.648,187.382L140.323,168.046L127.76,164.487L115.664,125.179L123.509,109.322L152.581,112.655L181.51,118.076Z" fill="#eeca3b"></path><path aria-label="properties.name: Ethiopia" role="graphics-symbol" aria-roledescription="geoshape" transform="translate(0,0)" d="M291.336,257.021L265.202,281.918L235.304,272.232L228.808,252.877L238.298,218.181L265.473,229.506L267.914,239.274Z" fill="#b279a2"></path><path aria-label="properties.name: Djibouti" role="graphics-symbol" aria-roledescription="geoshape" transform="translate(0,0)" d="M265.473,229.506L268.69,228.556L269.402,236.035L267.914,239.274Z" fill="#e45756"></path><path aria-label="properties.name: Somaliland" role="graphics-symbol" aria-roledescription="geoshape" transform="translate(0,0)" d="M295.504,236.346L291.336,257.021L267.914,239.274L269.402,236.035Z" fill="#4c78a8"></path><path aria-label="properties.name: Uganda" role="graphics-symbol" aria-roledescription="geoshape" transform="translate(0,0)" d="M229.32,311.676L213.504,312.805L209.688,314.068L215.273,284.42L229.587,279.897Z" fill="#b279a2"></path><path aria-label="properties.name: Rwanda" role="graphics-symbol" aria-roledescription="geoshape" transform="translate(0,0)" d="M213.504,312.805L213.687,320.624L207.112,323.223L209.688,314.068Z" fill="#eeca3b"></path><path aria-label="properties.name: S. Sudan" role="graphics-symbol" aria-roledescription="geoshape" transform="translate(0,0)" d="M215.273,284.42L199.451,273.891L186.412,255.646L228.808,252.877L235.304,272.232L229.587,279.897Z" fill="#b279a2"></path></g><g class="mark-group role-legend" role="graphics-symbol" aria-roledescription="legend" aria-label="Symbol legend titled 'properties.name' for fill color with 51 values: Algeria, Angola, Benin, Botswana, Burkina Faso, ending with eSwatini"><g transform="translate(318,0)"><path class="background" aria-hidden="true" d="M0,0h205v209h-205Z" pointer-events="none"></path><g><g class="mark-group role-legend-entry"><g transform="translate(0,16)"><path class="background" aria-hidden="true" d="M0,0h0v0h0Z" pointer-events="none"></path><g><g class="mark-group role-scope" role="graphics-object" aria-roledescription="group mark container"><g transform="translate(0,0)"><path class="background" aria-hidden="true" d="M0,0h110.5556640625v11h-110.5556640625Z" pointer-events="none" opacity="1"></path><g><g class="mark-symbol role-legend-symbol" pointer-events="none"><path transform="translate(6,6)" d="M5,0A5,5,0,1,1,-5,0A5,5,0,1,1,5,0" fill="#4c78a8" stroke-width="1.5" opacity="1"></path></g><g class="mark-text role-legend-label" pointer-events="none"><text text-anchor="start" transform="translate(16,9)" font-family="sans-serif" font-size="10px" fill="#000" opacity="1">Algeria</text></g></g><path class="foreground" aria-hidden="true" d="" pointer-events="none" display="none"></path></g><g transform="translate(121,0)"><path class="background" aria-hidden="true" d="M0,0h83.83203125v11h-83.83203125Z" pointer-events="none" opacity="1"></path><g><g class="mark-symbol role-legend-symbol" pointer-events="none"><path transform="translate(6,6)" d="M5,0A5,5,0,1,1,-5,0A5,5,0,1,1,5,0" fill="#eeca3b" stroke-width="1.5" opacity="1"></path></g><g class="mark-text role-legend-label" pointer-events="none"><text text-anchor="start" transform="translate(16,9)" font-family="sans-serif" font-size="10px" fill="#000" opacity="1">Eritrea</text></g></g><path class="foreground" aria-hidden="true" d="" pointer-events="none" display="none"></path></g><g transform="translate(0,13)"><path class="background" aria-hidden="true" d="M0,0h110.5556640625v11h-110.5556640625Z" pointer-events="none" opacity="1"></path><g><g class="mark-symbol role-legend-symbol" pointer-events="none"><path transform="translate(6,6)" d="M5,0A5,5,0,1,1,-5,0A5,5,0,1,1,5,0" fill="#f58518" stroke-width="1.5" opacity="1"></path></g><g class="mark-text role-legend-label" pointer-events="none"><text text-anchor="start" transform="translate(16,9)" font-family="sans-serif" font-size="10px" fill="#000" opacity="1">Angola</text></g></g><path class="foreground" aria-hidden="true" d="" pointer-events="none" display="none"></path></g><g transform="translate(121,13)"><path class="background" aria-hidden="true" d="M0,0h83.83203125v11h-83.83203125Z" pointer-events="none" opacity="1"></path><g><g class="mark-symbol role-legend-symbol" pointer-events="none"><path transform="translate(6,6)" d="M5,0A5,5,0,1,1,-5,0A5,5,0,1,1,5,0" fill="#b279a2" stroke-width="1.5" opacity="1"></path></g><g class="mark-text role-legend-label" pointer-events="none"><text text-anchor="start" transform="translate(16,9)" font-family="sans-serif" font-size="10px" fill="#000" opacity="1">Ethiopia</text></g></g><path class="foreground" aria-hidden="true" d="" pointer-events="none" display="none"></path></g><g transform="translate(0,26)"><path class="background" aria-hidden="true" d="M0,0h110.5556640625v11h-110.5556640625Z" pointer-events="none" opacity="1"></path><g><g class="mark-symbol role-legend-symbol" pointer-events="none"><path transform="translate(6,6)" d="M5,0A5,5,0,1,1,-5,0A5,5,0,1,1,5,0" fill="#e45756" stroke-width="1.5" opacity="1"></path></g><g class="mark-text role-legend-label" pointer-events="none"><text text-anchor="start" transform="translate(16,9)" font-family="sans-serif" font-size="10px" fill="#000" opacity="1">Benin</text></g></g><path class="foreground" aria-hidden="true" d="" pointer-events="none" display="none"></path></g><g transform="translate(121,26)"><path class="background" aria-hidden="true" d="M0,0h83.83203125v11h-83.83203125Z" pointer-events="none" opacity="1"></path><g><g class="mark-symbol role-legend-symbol" pointer-events="none"><path transform="translate(6,6)" d="M5,0A5,5,0,1,1,-5,0A5,5,0,1,1,5,0" fill="#ff9da6" stroke-width="1.5" opacity="1"></path></g><g class="mark-text role-legend-label" pointer-events="none"><text text-anchor="start" transform="translate(16,9)" font-family="sans-serif" font-size="10px" fill="#000" opacity="1">Gabon</text></g></g><path class="foreground" aria-hidden="true" d="" pointer-events="none" display="none"></path></g><g transform="translate(0,39)"><path class="background" aria-hidden="true" d="M0,0h110.5556640625v11h-110.5556640625Z" pointer-events="none" opacity="1"></path><g><g class="mark-symbol role-legend-symbol" pointer-events="none"><path transform="translate(6,6)" d="M5,0A5,5,0,1,1,-5,0A5,5,0,1,1,5,0" fill="#72b7b2" stroke-width="1.5" opacity="1"></path></g><g class="mark-text role-legend-label" pointer-events="none"><text text-anchor="start" transform="translate(16,9)" font-family="sans-serif" font-size="10px" fill="#000" opacity="1">Botswana</text></g></g><path class="foreground" aria-hidden="true" d="" pointer-events="none" display="none"></path></g><g transform="translate(121,39)"><path class="background" aria-hidden="true" d="M0,0h83.83203125v11h-83.83203125Z" pointer-events="none" opacity="1"></path><g><g class="mark-symbol role-legend-symbol" pointer-events="none"><path transform="translate(6,6)" d="M5,0A5,5,0,1,1,-5,0A5,5,0,1,1,5,0" fill="#9d755d" stroke-width="1.5" opacity="1"></path></g><g class="mark-text role-legend-label" pointer-events="none"><text text-anchor="start" transform="translate(16,9)" font-family="sans-serif" font-size="10px" fill="#000" opacity="1">Gambia</text></g></g><path class="foreground" aria-hidden="true" d="" pointer-events="none" display="none"></path></g><g transform="translate(0,52)"><path class="background" aria-hidden="true" d="M0,0h110.5556640625v11h-110.5556640625Z" pointer-events="none" opacity="1"></path><g><g class="mark-symbol role-legend-symbol" pointer-events="none"><path transform="translate(6,6)" d="M5,0A5,5,0,1,1,-5,0A5,5,0,1,1,5,0" fill="#54a24b" stroke-width="1.5" opacity="1"></path></g><g class="mark-text role-legend-label" pointer-events="none"><text text-anchor="start" transform="translate(16,9)" font-family="sans-serif" font-size="10px" fill="#000" opacity="1">Burkina Faso</text></g></g><path class="foreground" aria-hidden="true" d="" pointer-events="none" display="none"></path></g><g transform="translate(121,52)"><path class="background" aria-hidden="true" d="M0,0h83.83203125v11h-83.83203125Z" pointer-events="none" opacity="1"></path><g><g class="mark-symbol role-legend-symbol" pointer-events="none"><path transform="translate(6,6)" d="M5,0A5,5,0,1,1,-5,0A5,5,0,1,1,5,0" fill="#bab0ac" stroke-width="1.5" opacity="1"></path></g><g class="mark-text role-legend-label" pointer-events="none"><text text-anchor="start" transform="translate(16,9)" font-family="sans-serif" font-size="10px" fill="#000" opacity="1">Ghana</text></g></g><path class="foreground" aria-hidden="true" d="" pointer-events="none" display="none"></path></g><g transform="translate(0,65)"><path class="background" aria-hidden="true" d="M0,0h110.5556640625v11h-110.5556640625Z" pointer-events="none" opacity="1"></path><g><g class="mark-symbol role-legend-symbol" pointer-events="none"><path transform="translate(6,6)" d="M5,0A5,5,0,1,1,-5,0A5,5,0,1,1,5,0" fill="#eeca3b" stroke-width="1.5" opacity="1"></path></g><g class="mark-text role-legend-label" pointer-events="none"><text text-anchor="start" transform="translate(16,9)" font-family="sans-serif" font-size="10px" fill="#000" opacity="1">Burundi</text></g></g><path class="foreground" aria-hidden="true" d="" pointer-events="none" display="none"></path></g><g transform="translate(121,65)"><path class="background" aria-hidden="true" d="M0,0h83.83203125v11h-83.83203125Z" pointer-events="none" opacity="1"></path><g><g class="mark-symbol role-legend-symbol" pointer-events="none"><path transform="translate(6,6)" d="M5,0A5,5,0,1,1,-5,0A5,5,0,1,1,5,0" fill="#4c78a8" stroke-width="1.5" opacity="1"></path></g><g class="mark-text role-legend-label" pointer-events="none"><text text-anchor="start" transform="translate(16,9)" font-family="sans-serif" font-size="10px" fill="#000" opacity="1">Guinea</text></g></g><path class="foreground" aria-hidden="true" d="" pointer-events="none" display="none"></path></g><g transform="translate(0,78)"><path class="background" aria-hidden="true" d="M0,0h110.5556640625v11h-110.5556640625Z" pointer-events="none" opacity="1"></path><g><g class="mark-symbol role-legend-symbol" pointer-events="none"><path transform="translate(6,6)" d="M5,0A5,5,0,1,1,-5,0A5,5,0,1,1,5,0" fill="#b279a2" stroke-width="1.5" opacity="1"></path></g><g class="mark-text role-legend-label" pointer-events="none"><text text-anchor="start" transform="translate(16,9)" font-family="sans-serif" font-size="10px" fill="#000" opacity="1">Cameroon</text></g></g><path class="foreground" aria-hidden="true" d="" pointer-events="none" display="none"></path></g><g transform="translate(121,78)"><path class="background" aria-hidden="true" d="M0,0h83.83203125v11h-83.83203125Z" pointer-events="none" opacity="1"></path><g><g class="mark-symbol role-legend-symbol" pointer-events="none"><path transform="translate(6,6)" d="M5,0A5,5,0,1,1,-5,0A5,5,0,1,1,5,0" fill="#f58518" stroke-width="1.5" opacity="1"></path></g><g class="mark-text role-legend-label" pointer-events="none"><text text-anchor="start" transform="translate(16,9)" font-family="sans-serif" font-size="10px" fill="#000" opacity="1">Guinea-Bissau</text></g></g><path class="foreground" aria-hidden="true" d="" pointer-events="none" display="none"></path></g><g transform="translate(0,91)"><path class="background" aria-hidden="true" d="M0,0h110.5556640625v11h-110.5556640625Z" pointer-events="none" opacity="1"></path><g><g class="mark-symbol role-legend-symbol" pointer-events="none"><path transform="translate(6,6)" d="M5,0A5,5,0,1,1,-5,0A5,5,0,1,1,5,0" fill="#ff9da6" stroke-width="1.5" opacity="1"></path></g><g class="mark-text role-legend-label" pointer-events="none"><text text-anchor="start" transform="translate(16,9)" font-family="sans-serif" font-size="10px" fill="#000" opacity="1">Central African Rep.</text></g></g><path class="foreground" aria-hidden="true" d="" pointer-events="none" display="none"></path></g><g transform="translate(121,91)"><path class="background" aria-hidden="true" d="M0,0h83.83203125v11h-83.83203125Z" pointer-events="none" opacity="1"></path><g><g class="mark-symbol role-legend-symbol" pointer-events="none"><path transform="translate(6,6)" d="M5,0A5,5,0,1,1,-5,0A5,5,0,1,1,5,0" fill="#e45756" stroke-width="1.5" opacity="1"></path></g><g class="mark-text role-legend-label" pointer-events="none"><text text-anchor="start" transform="translate(16,9)" font-family="sans-serif" font-size="10px" fill="#000" opacity="1">Kenya</text></g></g><path class="foreground" aria-hidden="true" d="" pointer-events="none" display="none"></path></g><g transform="translate(0,104)"><path class="background" aria-hidden="true" d="M0,0h110.5556640625v11h-110.5556640625Z" pointer-events="none" opacity="1"></path><g><g class="mark-symbol role-legend-symbol" pointer-events="none"><path transform="translate(6,6)" d="M5,0A5,5,0,1,1,-5,0A5,5,0,1,1,5,0" fill="#9d755d" stroke-width="1.5" opacity="1"></path></g><g class="mark-text role-legend-label" pointer-events="none"><text text-anchor="start" transform="translate(16,9)" font-family="sans-serif" font-size="10px" fill="#000" opacity="1">Chad</text></g></g><path class="foreground" aria-hidden="true" d="" pointer-events="none" display="none"></path></g><g transform="translate(121,104)"><path class="background" aria-hidden="true" d="M0,0h83.83203125v11h-83.83203125Z" pointer-events="none" opacity="1"></path><g><g class="mark-symbol role-legend-symbol" pointer-events="none"><path transform="translate(6,6)" d="M5,0A5,5,0,1,1,-5,0A5,5,0,1,1,5,0" fill="#72b7b2" stroke-width="1.5" opacity="1"></path></g><g class="mark-text role-legend-label" pointer-events="none"><text text-anchor="start" transform="translate(16,9)" font-family="sans-serif" font-size="10px" fill="#000" opacity="1">Lesotho</text></g></g><path class="foreground" aria-hidden="true" d="" pointer-events="none" display="none"></path></g><g transform="translate(0,117)"><path class="background" aria-hidden="true" d="M0,0h110.5556640625v11h-110.5556640625Z" pointer-events="none" opacity="1"></path><g><g class="mark-symbol role-legend-symbol" pointer-events="none"><path transform="translate(6,6)" d="M5,0A5,5,0,1,1,-5,0A5,5,0,1,1,5,0" fill="#bab0ac" stroke-width="1.5" opacity="1"></path></g><g class="mark-text role-legend-label" pointer-events="none"><text text-anchor="start" transform="translate(16,9)" font-family="sans-serif" font-size="10px" fill="#000" opacity="1">Congo</text></g></g><path class="foreground" aria-hidden="true" d="" pointer-events="none" display="none"></path></g><g transform="translate(121,117)"><path class="background" aria-hidden="true" d="M0,0h83.83203125v11h-83.83203125Z" pointer-events="none" opacity="1"></path><g><g class="mark-symbol role-legend-symbol" pointer-events="none"><path transform="translate(6,6)" d="M5,0A5,5,0,1,1,-5,0A5,5,0,1,1,5,0" fill="#54a24b" stroke-width="1.5" opacity="1"></path></g><g class="mark-text role-legend-label" pointer-events="none"><text text-anchor="start" transform="translate(16,9)" font-family="sans-serif" font-size="10px" fill="#000" opacity="1">Liberia</text></g></g><path class="foreground" aria-hidden="true" d="" pointer-events="none" display="none"></path></g><g transform="translate(0,130)"><path class="background" aria-hidden="true" d="M0,0h110.5556640625v11h-110.5556640625Z" pointer-events="none" opacity="1"></path><g><g class="mark-symbol role-legend-symbol" pointer-events="none"><path transform="translate(6,6)" d="M5,0A5,5,0,1,1,-5,0A5,5,0,1,1,5,0" fill="#4c78a8" stroke-width="1.5" opacity="1"></path></g><g class="mark-text role-legend-label" pointer-events="none"><text text-anchor="start" transform="translate(16,9)" font-family="sans-serif" font-size="10px" fill="#000" opacity="1">Côte d'Ivoire</text></g></g><path class="foreground" aria-hidden="true" d="" pointer-events="none" display="none"></path></g><g transform="translate(121,130)"><path class="background" aria-hidden="true" d="M0,0h83.83203125v11h-83.83203125Z" pointer-events="none" opacity="1"></path><g><g class="mark-symbol role-legend-symbol" pointer-events="none"><path transform="translate(6,6)" d="M5,0A5,5,0,1,1,-5,0A5,5,0,1,1,5,0" fill="#eeca3b" stroke-width="1.5" opacity="1"></path></g><g class="mark-text role-legend-label" pointer-events="none"><text text-anchor="start" transform="translate(16,9)" font-family="sans-serif" font-size="10px" fill="#000" opacity="1">Libya</text></g></g><path class="foreground" aria-hidden="true" d="" pointer-events="none" display="none"></path></g><g transform="translate(0,143)"><path class="background" aria-hidden="true" d="M0,0h110.5556640625v11h-110.5556640625Z" pointer-events="none" opacity="1"></path><g><g class="mark-symbol role-legend-symbol" pointer-events="none"><path transform="translate(6,6)" d="M5,0A5,5,0,1,1,-5,0A5,5,0,1,1,5,0" fill="#f58518" stroke-width="1.5" opacity="1"></path></g><g class="mark-text role-legend-label" pointer-events="none"><text text-anchor="start" transform="translate(16,9)" font-family="sans-serif" font-size="10px" fill="#000" opacity="1">Dem. Rep. Congo</text></g></g><path class="foreground" aria-hidden="true" d="" pointer-events="none" display="none"></path></g><g transform="translate(121,143)"><path class="background" aria-hidden="true" d="M0,0h83.83203125v11h-83.83203125Z" pointer-events="none" opacity="1"></path><g><g class="mark-symbol role-legend-symbol" pointer-events="none"><path transform="translate(6,6)" d="M5,0A5,5,0,1,1,-5,0A5,5,0,1,1,5,0" fill="#b279a2" stroke-width="1.5" opacity="1"></path></g><g class="mark-text role-legend-label" pointer-events="none"><text text-anchor="start" transform="translate(16,9)" font-family="sans-serif" font-size="10px" fill="#000" opacity="1">Madagascar</text></g></g><path class="foreground" aria-hidden="true" d="" pointer-events="none" display="none"></path></g><g transform="translate(0,156)"><path class="background" aria-hidden="true" d="M0,0h110.5556640625v11h-110.5556640625Z" pointer-events="none" opacity="1"></path><g><g class="mark-symbol role-legend-symbol" pointer-events="none"><path transform="translate(6,6)" d="M5,0A5,5,0,1,1,-5,0A5,5,0,1,1,5,0" fill="#e45756" stroke-width="1.5" opacity="1"></path></g><g class="mark-text role-legend-label" pointer-events="none"><text text-anchor="start" transform="translate(16,9)" font-family="sans-serif" font-size="10px" fill="#000" opacity="1">Djibouti</text></g></g><path class="foreground" aria-hidden="true" d="" pointer-events="none" display="none"></path></g><g transform="translate(121,156)"><path class="background" aria-hidden="true" d="M0,0h83.83203125v11h-83.83203125Z" pointer-events="none" opacity="1"></path><g><g class="mark-symbol role-legend-symbol" pointer-events="none"><path transform="translate(6,6)" d="M5,0A5,5,0,1,1,-5,0A5,5,0,1,1,5,0" fill="#ff9da6" stroke-width="1.5" opacity="1"></path></g><g class="mark-text role-legend-label" pointer-events="none"><text text-anchor="start" transform="translate(16,9)" font-family="sans-serif" font-size="10px" fill="#000" opacity="1">Malawi</text></g></g><path class="foreground" aria-hidden="true" d="" pointer-events="none" display="none"></path></g><g transform="translate(0,169)"><path class="background" aria-hidden="true" d="M0,0h110.5556640625v11h-110.5556640625Z" pointer-events="none" opacity="1"></path><g><g class="mark-symbol role-legend-symbol" pointer-events="none"><path transform="translate(6,6)" d="M5,0A5,5,0,1,1,-5,0A5,5,0,1,1,5,0" fill="#72b7b2" stroke-width="1.5" opacity="1"></path></g><g class="mark-text role-legend-label" pointer-events="none"><text text-anchor="start" transform="translate(16,9)" font-family="sans-serif" font-size="10px" fill="#000" opacity="1">Egypt</text></g></g><path class="foreground" aria-hidden="true" d="" pointer-events="none" display="none"></path></g><g transform="translate(121,169)"><path class="background" aria-hidden="true" d="M0,0h83.83203125v11h-83.83203125Z" pointer-events="none" opacity="1"></path><g><g class="mark-symbol role-legend-symbol" pointer-events="none"><path transform="translate(6,6)" d="M5,0A5,5,0,1,1,-5,0A5,5,0,1,1,5,0" fill="#9d755d" stroke-width="1.5" opacity="1"></path></g><g class="mark-text role-legend-label" pointer-events="none"><text text-anchor="start" transform="translate(16,9)" font-family="sans-serif" font-size="10px" fill="#000" opacity="1">Mali</text></g></g><path class="foreground" aria-hidden="true" d="" pointer-events="none" display="none"></path></g><g transform="translate(0,182)"><path class="background" aria-hidden="true" d="M0,0h110.5556640625v11h-110.5556640625Z" pointer-events="none" opacity="1"></path><g><g class="mark-symbol role-legend-symbol" pointer-events="none"><path transform="translate(6,6)" d="M5,0A5,5,0,1,1,-5,0A5,5,0,1,1,5,0" fill="#54a24b" stroke-width="1.5" opacity="1"></path></g><g class="mark-text role-legend-label" pointer-events="none"><text text-anchor="start" transform="translate(16,9)" font-family="sans-serif" font-size="10px" fill="#000" opacity="1">Eq. Guinea</text></g></g><path class="foreground" aria-hidden="true" d="" pointer-events="none" display="none"></path></g><g transform="translate(121,182)"><path class="background" aria-hidden="true" d="M0,0h83.83203125v11h-83.83203125Z" pointer-events="none" opacity="1"></path><g><g class="mark-symbol role-legend-symbol" pointer-events="none"><path transform="translate(6,6)" d="M5,0A5,5,0,1,1,-5,0A5,5,0,1,1,5,0" fill="#bab0ac" stroke-width="1.5" opacity="1"></path></g><g class="mark-text role-legend-label" pointer-events="none"><text text-anchor="start" transform="translate(16,9)" font-family="sans-serif" font-size="10px" fill="#000" opacity="1">…22 entries</text></g></g><path class="foreground" aria-hidden="true" d="" pointer-events="none" display="none"></path></g></g></g><path class="foreground" aria-hidden="true" d="" pointer-events="none" display="none"></path></g></g><g class="mark-text role-legend-title" pointer-events="none"><text text-anchor="start" transform="translate(0,9)" font-family="sans-serif" font-size="11px" font-weight="bold" fill="#000" opacity="1">properties.name</text></g></g><path class="foreground" aria-hidden="true" d="" pointer-events="none" display="none"></path></g></g></g><path class="foreground" aria-hidden="true" d="" display="none"></path></g></g></g></svg>