<svg xmlns="http://www.w3.org/2000/svg" xmlns:xlink="http://www.w3.org/1999/xlink" version="1.1" class="marks" width="854" height="730" viewBox="0 0 854 730" style="background-color: white;"><g fill="none" stroke-miterlimit="10" transform="translate(49,10)"><g class="mark-group role-frame root" role="graphics-object" aria-roledescription="group mark container"><g transform="translate(0,0)"><path class="background" aria-hidden="true" d="M0.5,0.5h800v600h-800Z" fill="transparent" stroke="#ddd"></path><g><g class="mark-group role-axis" aria-hidden="true"><g transform="translate(0.5,0.5)"><path class="background" aria-hidden="true" d="M0,0h0v0h0Z" pointer-events="none"></path><g><g class="mark-rule role-axis-grid" pointer-events="none"><line transform="translate(0,600)" x2="800" y2="0" stroke="#ddd" stroke-width="1" opacity="1"></line><line transform="translate(0,570)" x2="800" y2="0" stroke="#ddd" stroke-width="1" opacity="1"></line><line transform="translate(0,540)" x2="800" y2="0" stroke="#ddd" stroke-width="1" opacity="1"></line><line transform="translate(0,510)" x2="800" y2="0" stroke="#ddd" stroke-width="1" opacity="1"></line><line transform="translate(0,480)" x2="800" y2="0" stroke="#ddd" stroke-width="1" opacity="1"></line><line transform="translate(0,450)" x2="800" y2="0" stroke="#ddd" stroke-width="1" opacity="1"></line><line transform="translate(0,420)" x2="800" y2="0" stroke="#ddd" stroke-width="1" opacity="1"></line><line transform="translate(0,390)" x2="800" y2="0" stroke="#ddd" stroke-width="1" opacity="1"></line><line transform="translate(0,360)" x2="800" y2="0" stroke="#ddd" stroke-width="1" opacity="1"></line><line transform="translate(0,330)" x2="800" y2="0" stroke="#ddd" stroke-width="1" opacity="1"></line><line transform="translate(0,300)" x2="800" y2="0" stroke="#ddd" stroke-width="1" opacity="1"></line><line transform="translate(0,270)" x2="800" y2="0" stroke="#ddd" stroke-width="1" opacity="1"></line><line transform="translate(0,240)" x2="800" y2="0" stroke="#ddd" stroke-width="1" opacity="1"></line><line transform="translate(0,210)" x2="800" y2="0" stroke="#ddd" stroke-width="1" opacity="1"></line><line transform="translate(0,180)" x2="800" y2="0" stroke="#ddd" stroke-width="1" opacity="1"></line><line transform="translate(0,150)" x2="800" y2="0" stroke="#ddd" stroke-width="1" opacity="1"></line><line transform="translate(0,120)" x2="800" y2="0" stroke="#ddd" stroke-width="1" opacity="1"></line><line transform="translate(0,90)" x2="800" y2="0" stroke="#ddd" stroke-width="1" opacity="1"></line><line transform="translate(0,60)" x2="800" y2="0" stroke="#ddd" stroke-width="1" opacity="1"></line><line transform="translate(0,30)" x2="800" y2="0" stroke="#ddd" stroke-width="1" opacity="1"></line><line transform="translate(0,0)" x2="800" y2="0" stroke="#ddd" stroke-width="1" opacity="1"></line></g></g><path class="foreground" aria-hidden="true" d="" pointer-events="none" display="none"></path></g></g><g class="mark-group role-axis" role="graphics-symbol" aria-roledescription="axis" aria-label="X-axis titled 'Club' for a discrete scale with 35 values: 1. FC Köln, Arsenal, Athletic Bilbao, Atlético Madrid, Barcelona, ending with Wolfsburg"><g transform="translate(0.5,600.5)"><path class="background" aria-hidden="true" d="M0,0h0v0h0Z" pointer-events="none"></path><g><g class="mark-rule role-axis-tick" pointer-events="none"><line transform="translate(11,0)" x2="0" y2="5" stroke="#888" stroke-width="1" opacity="1"></line><line transform="translate(34,0)" x2="0" y2="5" stroke="#888" stroke-width="1" opacity="1"></line><line transform="translate(57,0)" x2="0" y2="5" stroke="#888" stroke-width="1" opacity="1"></line><line transform="translate(80,0)" x2="0" y2="5" stroke="#888" stroke-width="1" opacity="1"></line><line transform="translate(102,0)" x2="0" y2="5" stroke="#888" stroke-width="1" opacity="1"></line><line transform="translate(125,0)" x2="0" y2="5" stroke="#888" stroke-width="1" opacity="1"></line><line transform="translate(148,0)" x2="0" y2="5" stroke="#888" stroke-width="1" opacity="1"></line><line transform="translate(171,0)" x2="0" y2="5" stroke="#888" stroke-width="1" opacity="1"></line><line transform="translate(194,0)" x2="0" y2="5" stroke="#888" stroke-width="1" opacity="1"></line><line transform="translate(217,0)" x2="0" y2="5" stroke="#888" stroke-width="1" opacity="1"></line><line transform="translate(240,0)" x2="0" y2="5" stroke="#888" stroke-width="1" opacity="1"></line><line transform="translate(262,0)" x2="0" y2="5" stroke="#888" stroke-width="1" opacity="1"></line><line transform="translate(285,0)" x2="0" y2="5" stroke="#888" stroke-width="1" opacity="1"></line><line transform="translate(308,0)" x2="0" y2="5" stroke="#888" stroke-width="1" opacity="1"></line><line transform="translate(331,0)" x2="0" y2="5" stroke="#888" stroke-width="1" opacity="1"></line><line transform="translate(354,0)" x2="0" y2="5" stroke="#888" stroke-width="1" opacity="1"></line><line transform="translate(377,0)" x2="0" y2="5" stroke="#888" stroke-width="1" opacity="1"></line><line transform="translate(400,0)" x2="0" y2="5" stroke="#888" stroke-width="1" opacity="1"></line><line transform="translate(422,0)" x2="0" y2="5" stroke="#888" stroke-width="1" opacity="1"></line><line transform="translate(445,0)" x2="0" y2="5" stroke="#888" stroke-width="1" opacity="1"></line><line transform="translate(468,0)" x2="0" y2="5" stroke="#888" stroke-width="1" opacity="1"></line><line transform="translate(491,0)" x2="0" y2="5" stroke="#888" stroke-width="1" opacity="1"></line><line transform="translate(514,0)" x2="0" y2="5" stroke="#888" stroke-width="1" opacity="1"></line><line transform="translate(537,0)" x2="0" y2="5" stroke="#888" stroke-width="1" opacity="1"></line><line transform="translate(560,0)" x2="0" y2="5" stroke="#888" stroke-width="1" opacity="1"></line><line transform="translate(582,0)" x2="0" y2="5" stroke="#888" stroke-width="1" opacity="1"></line><line transform="translate(605,0)" x2="0" y2="5" stroke="#888" stroke-width="1" opacity="1"></line><line transform="translate(628,0)" x2="0" y2="5" stroke="#888" stroke-width="1" opacity="1"></line><line transform="translate(651,0)" x2="0" y2="5" stroke="#888" stroke-width="1" opacity="1"></line><line transform="translate(674,0)" x2="0" y2="5" stroke="#888" stroke-width="1" opacity="1"></line><line transform="translate(697,0)" x2="0" y2="5" stroke="#888" stroke-width="1" opacity="1"></line><line transform="translate(720,0)" x2="0" y2="5" stroke="#888" stroke-width="1" opacity="1"></line><line transform="translate(742,0)" x2="0" y2="5" stroke="#888" stroke-width="1" opacity="1"></line><line transform="translate(765,0)" x2="0" y2="5" stroke="#888" stroke-width="1" opacity="1"></line><line transform="translate(788,0)" x2="0" y2="5" stroke="#888" stroke-width="1" opacity="1"></line></g><g class="mark-text role-axis-label" pointer-events="none"><text text-anchor="end" transform="translate(10.928571428571454,7) rotate(270) translate(0,3)" font-family="sans-serif" font-size="10px" fill="#000" opacity="1">1. FC Köln</text><text text-anchor="end" transform="translate(33.78571428571431,7) rotate(270) translate(0,3)" font-family="sans-serif" font-size="10px" fill="#000" opacity="1">Arsenal</text><text text-anchor="end" transform="translate(56.64285714285717,7) rotate(270) translate(0,3)" font-family="sans-serif" font-size="10px" fill="#000" opacity="1">Athletic Bilbao</text><text text-anchor="end" transform="translate(79.50000000000003,7) rotate(270) translate(0,3)" font-family="sans-serif" font-size="10px" fill="#000" opacity="1">Atlético Madrid</text><text text-anchor="end" transform="translate(102.35714285714289,7) rotate(270) translate(0,3)" font-family="sans-serif" font-size="10px" fill="#000" opacity="1">Barcelona</text><text text-anchor="end" transform="translate(125.21428571428575,7) rotate(270) translate(0,3)" font-family="sans-serif" font-size="10px" fill="#000" opacity="1">Bayer Leverkusen</text><text text-anchor="end" transform="translate(148.07142857142858,7) rotate(270) translate(0,3)" font-family="sans-serif" font-size="10px" fill="#000" opacity="1">Bayern Munich</text><text text-anchor="end" transform="translate(170.92857142857144,7) rotate(270) translate(0,3)" font-family="sans-serif" font-size="10px" fill="#000" opacity="1">Benfica</text><text text-anchor="end" transform="translate(193.7857142857143,7) rotate(270) translate(0,3)" font-family="sans-serif" font-size="10px" fill="#000" opacity="1">Beşiktaş</text><text text-anchor="end" transform="translate(216.64285714285717,7) rotate(270) translate(0,3)" font-family="sans-serif" font-size="10px" fill="#000" opacity="1">Borussia Dortmund</text><text text-anchor="end" transform="translate(239.50000000000003,7) rotate(270) translate(0,3)" font-family="sans-serif" font-size="10px" fill="#000" opacity="1">Braga</text><text text-anchor="end" transform="translate(262.3571428571429,7) rotate(270) translate(0,3)" font-family="sans-serif" font-size="10px" fill="#000" opacity="1">Celta Vigo</text><text text-anchor="end" transform="translate(285.2142857142857,7) rotate(270) translate(0,3)" font-family="sans-serif" font-size="10px" fill="#000" opacity="1">Chelsea</text><text text-anchor="end" transform="translate(308.0714285714286,7) rotate(270) translate(0,3)" font-family="sans-serif" font-size="10px" fill="#000" opacity="1">Dinamo Zagreb</text><text text-anchor="end" transform="translate(330.92857142857144,7) rotate(270) translate(0,3)" font-family="sans-serif" font-size="10px" fill="#000" opacity="1">Fenerbahçe</text><text text-anchor="end" transform="translate(353.78571428571433,7) rotate(270) translate(0,3)" font-family="sans-serif" font-size="10px" fill="#000" opacity="1">Galatasaray</text><text text-anchor="end" transform="translate(376.64285714285717,7) rotate(270) translate(0,3)" font-family="sans-serif" font-size="10px" fill="#000" opacity="1">Juventus</text><text text-anchor="end" transform="translate(399.5,7) rotate(270) translate(0,3)" font-family="sans-serif" font-size="10px" fill="#000" opacity="1">Lille</text><text text-anchor="end" transform="translate(422.3571428571429,7) rotate(270) translate(0,3)" font-family="sans-serif" font-size="10px" fill="#000" opacity="1">Liverpool</text><text text-anchor="end" transform="translate(445.2142857142857,7) rotate(270) translate(0,3)" font-family="sans-serif" font-size="10px" fill="#000" opacity="1">Lorient</text><text text-anchor="end" transform="translate(468.0714285714286,7) rotate(270) translate(0,3)" font-family="sans-serif" font-size="10px" fill="#000" opacity="1">Lyon</text><text text-anchor="end" transform="translate(490.92857142857144,7) rotate(270) translate(0,3)" font-family="sans-serif" font-size="10px" fill="#000" opacity="1">Manchester City</text><text text-anchor="end" transform="translate(513.7857142857143,7) rotate(270) translate(0,3)" font-family="sans-serif" font-size="10px" fill="#000" opacity="1">Manchester United</text><text text-anchor="end" transform="translate(536.6428571428572,7) rotate(270) translate(0,3)" font-family="sans-serif" font-size="10px" fill="#000" opacity="1">Monaco</text><text text-anchor="end" transform="translate(559.5000000000001,7) rotate(270) translate(0,3)" font-family="sans-serif" font-size="10px" fill="#000" opacity="1">Porto</text><text text-anchor="end" transform="translate(582.357142857143,7) rotate(270) translate(0,3)" font-family="sans-serif" font-size="10px" fill="#000" opacity="1">Real Madrid</text><text text-anchor="end" transform="translate(605.2142857142859,7) rotate(270) translate(0,3)" font-family="sans-serif" font-size="10px" fill="#000" opacity="1">Roma</text><text text-anchor="end" transform="translate(628.0714285714286,7) rotate(270) translate(0,3)" font-family="sans-serif" font-size="10px" fill="#000" opacity="1">Schalke 04</text><text text-anchor="end" transform="translate(650.9285714285714,7) rotate(270) translate(0,3)" font-family="sans-serif" font-size="10px" fill="#000" opacity="1">Sevilla</text><text text-anchor="end" transform="translate(673.7857142857143,7) rotate(270) translate(0,3)" font-family="sans-serif" font-size="10px" fill="#000" opacity="1">Southampton</text><text text-anchor="end" transform="translate(696.6428571428572,7) rotate(270) translate(0,3)" font-family="sans-serif" font-size="10px" fill="#000" opacity="1">Sporting CP</text><text text-anchor="end" transform="translate(719.5000000000001,7) rotate(270) translate(0,3)" font-family="sans-serif" font-size="10px" fill="#000" opacity="1">Valencia</text><text text-anchor="end" transform="translate(742.357142857143,7) rotate(270) translate(0,3)" font-family="sans-serif" font-size="10px" fill="#000" opacity="1">VfL Wolfsburg</text><text text-anchor="end" transform="translate(765.2142857142859,7) rotate(270) translate(0,3)" font-family="sans-serif" font-size="10px" fill="#000" opacity="1">Villarreal</text><text text-anchor="end" transform="translate(788.0714285714286,7) rotate(270) translate(0,3)" font-family="sans-serif" font-size="10px" fill="#000" opacity="1">Wolfsburg</text></g><g class="mark-rule role-axis-domain" pointer-events="none"><line transform="translate(0,0)" x2="800" y2="0" stroke="#888" stroke-width="1" opacity="1"></line></g><g class="mark-text role-axis-title" pointer-events="none"><text text-anchor="middle" transform="translate(400,112.939453125)" font-family="sans-serif" font-size="11px" font-weight="bold" fill="#000" opacity="1">Club</text></g></g><path class="foreground" aria-hidden="true" d="" pointer-events="none" display="none"></path></g></g><g class="mark-group role-axis" role="graphics-symbol" aria-roledescription="axis" aria-label="Y-axis titled 'Median of Salary' for a linear scale with values from 0M to 40M"><g transform="translate(0.5,0.5)"><path class="background" aria-hidden="true" d="M0,0h0v0h0Z" pointer-events="none"></path><g><g class="mark-rule role-axis-tick" pointer-events="none"><line transform="translate(0,600)" x2="-5" y2="0" stroke="#888" stroke-width="1" opacity="1"></line><line transform="translate(0,570)" x2="-5" y2="0" stroke="#888" stroke-width="1" opacity="1"></line><line transform="translate(0,540)" x2="-5" y2="0" stroke="#888" stroke-width="1" opacity="1"></line><line transform="translate(0,510)" x2="-5" y2="0" stroke="#888" stroke-width="1" opacity="1"></line><line transform="translate(0,480)" x2="-5" y2="0" stroke="#888" stroke-width="1" opacity="1"></line><line transform="translate(0,450)" x2="-5" y2="0" stroke="#888" stroke-width="1" opacity="1"></line><line transform="translate(0,420)" x2="-5" y2="0" stroke="#888" stroke-width="1" opacity="1"></line><line transform="translate(0,390)" x2="-5" y2="0" stroke="#888" stroke-width="1" opacity="1"></line><line transform="translate(0,360)" x2="-5" y2="0" stroke="#888" stroke-width="1" opacity="1"></line><line transform="translate(0,330)" x2="-5" y2="0" stroke="#888" stroke-width="1" opacity="1"></line><line transform="translate(0,300)" x2="-5" y2="0" stroke="#888" stroke-width="1" opacity="1"></line><line transform="translate(0,270)" x2="-5" y2="0" stroke="#888" stroke-width="1" opacity="1"></line><line transform="translate(0,240)" x2="-5" y2="0" stroke="#888" stroke-width="1" opacity="1"></line><line transform="translate(0,210)" x2="-5" y2="0" stroke="#888" stroke-width="1" opacity="1"></line><line transform="translate(0,180)" x2="-5" y2="0" stroke="#888" stroke-width="1" opacity="1"></line><line transform="translate(0,150)" x2="-5" y2="0" stroke="#888" stroke-width="1" opacity="1"></line><line transform="translate(0,120)" x2="-5" y2="0" stroke="#888" stroke-width="1" opacity="1"></line><line transform="translate(0,90)" x2="-5" y2="0" stroke="#888" stroke-width="1" opacity="1"></line><line transform="translate(0,60)" x2="-5" y2="0" stroke="#888" stroke-width="1" opacity="1"></line><line transform="translate(0,30)" x2="-5" y2="0" stroke="#888" stroke-width="1" opacity="1"></line><line transform="translate(0,0)" x2="-5" y2="0" stroke="#888" stroke-width="1" opacity="1"></line></g><g class="mark-text role-axis-label" pointer-events="none"><text text-anchor="end" transform="translate(-7,603)" font-family="sans-serif" font-size="10px" fill="#000" opacity="1">0M</text><text text-anchor="end" transform="translate(-7,573)" font-family="sans-serif" font-size="10px" fill="#000" opacity="1">2M</text><text text-anchor="end" transform="translate(-7,543)" font-family="sans-serif" font-size="10px" fill="#000" opacity="1">4M</text><text text-anchor="end" transform="translate(-7,513)" font-family="sans-serif" font-size="10px" fill="#000" opacity="1">6M</text><text text-anchor="end" transform="translate(-7,483)" font-family="sans-serif" font-size="10px" fill="#000" opacity="1">8M</text><text text-anchor="end" transform="translate(-7,453)" font-family="sans-serif" font-size="10px" fill="#000" opacity="1">10M</text><text text-anchor="end" transform="translate(-7,423)" font-family="sans-serif" font-size="10px" fill="#000" opacity="1">12M</text><text text-anchor="end" transform="translate(-7,393)" font-family="sans-serif" font-size="10px" fill="#000" opacity="1">14M</text><text text-anchor="end" transform="translate(-7,363)" font-family="sans-serif" font-size="10px" fill="#000" opacity="1">16M</text><text text-anchor="end" transform="translate(-7,333)" font-family="sans-serif" font-size="10px" fill="#000" opacity="1">18M</text><text text-anchor="end" transform="translate(-7,303)" font-family="sans-serif" font-size="10px" fill="#000" opacity="1">20M</text><text text-anchor="end" transform="translate(-7,273)" font-family="sans-serif" font-size="10px" fill="#000" opacity="1">22M</text><text text-anchor="end" transform="translate(-7,243)" font-family="sans-serif" font-size="10px" fill="#000" opacity="1">24M</text><text text-anchor="end" transform="translate(-7,213)" font-family="sans-serif" font-size="10px" fill="#000" opacity="1">26M</text><text text-anchor="end" transform="translate(-7,183.00000000000003)" font-family="sans-serif" font-size="10px" fill="#000" opacity="1">28M</text><text text-anchor="end" transform="translate(-7,153)" font-family="sans-serif" font-size="10px" fill="#000" opacity="1">30M</text><text text-anchor="end" transform="translate(-7,122.99999999999997)" font-family="sans-serif" font-size="10px" fill="#000" opacity="1">32M</text><text text-anchor="end" transform="translate(-7,93.00000000000001)" font-family="sans-serif" font-size="10px" fill="#000" opacity="1">34M</text><text text-anchor="end" transform="translate(-7,62.999999999999986)" font-family="sans-serif" font-size="10px" fill="#000" opacity="1">36M</text><text text-anchor="end" transform="translate(-7,33.00000000000003)" font-family="sans-serif" font-size="10px" fill="#000" opacity="1">38M</text><text text-anchor="end" transform="translate(-7,3)" font-family="sans-serif" font-size="10px" fill="#000" opacity="1">40M</text></g><g class="mark-rule role-axis-domain" pointer-events="none"><line transform="translate(0,600)" x2="0" y2="-600" stroke="#888" stroke-width="1" opacity="1"></line></g><g class="mark-text role-axis-title" pointer-events="none"><text text-anchor="middle" transform="translate(-32.4990234375,300) rotate(-90) translate(0,-2)" font-family="sans-serif" font-size="11px" font-weight="bold" fill="#000" opacity="1">Median of Salary</text></g></g><path class="foreground" aria-hidden="true" d="" pointer-events="none" display="none"></path></g></g><g class="mark-rect role-mark marks" role="graphics-object" aria-roledescription="rect mark container"><path aria-label="Club: Bayern Munich; Median of Salary: 37.5000M" role="graphics-symbol" aria-roledescription="bar" d="M138.2857142857143,37.5h20.571428571428573v562.5h-20.571428571428573Z" fill="#4c78a8"></path><path aria-label="Club: Valencia; Median of Salary: 19.0000M" role="graphics-symbol" aria-roledescription="bar" d="M709.7142857142858,315h20.571428571428573v285h-20.571428571428573Z" fill="#4c78a8"></path><path aria-label="Club: 1. FC Köln; Median of Salary: 11.0000M" role="graphics-symbol" aria-roledescription="bar" d="M1.1428571428571672,435h20.571428571428573v165h-20.571428571428573Z" fill="#4c78a8"></path><path aria-label="Club: Schalke 04; Median of Salary: 14.5000M" role="graphics-symbol" aria-roledescription="bar" d="M618.2857142857142,382.5h20.571428571428573v217.5h-20.571428571428573Z" fill="#4c78a8"></path><path aria-label="Club: Borussia Dortmund; Median of Salary: 26.0000M" role="graphics-symbol" aria-roledescription="bar" d="M206.8571428571429,210h20.571428571428573v390h-20.571428571428573Z" fill="#4c78a8"></path><path aria-label="Club: Juventus; Median of Salary: 22.5000M" role="graphics-symbol" aria-roledescription="bar" d="M366.8571428571429,262.5h20.571428571428573v337.5h-20.571428571428573Z" fill="#4c78a8"></path><path aria-label="Club: Manchester United; Median of Salary: 23.5000M" role="graphics-symbol" aria-roledescription="bar" d="M504.00000000000006,247.5h20.571428571428573v352.5h-20.571428571428573Z" fill="#4c78a8"></path><path aria-label="Club: Arsenal; Median of Salary: 31.5000M" role="graphics-symbol" aria-roledescription="bar" d="M24.000000000000025,127.50000000000001h20.571428571428573v472.5h-20.571428571428573Z" fill="#4c78a8"></path><path aria-label="Club: VfL Wolfsburg; Median of Salary: 21.0000M" role="graphics-symbol" aria-roledescription="bar" d="M732.5714285714287,285h20.571428571428573v315h-20.571428571428573Z" fill="#4c78a8"></path><path aria-label="Club: Galatasaray; Median of Salary: 8.00000M" role="graphics-symbol" aria-roledescription="bar" d="M344.00000000000006,480h20.571428571428573v120h-20.571428571428573Z" fill="#4c78a8"></path><path aria-label="Club: Bayer Leverkusen; Median of Salary: 16.0000M" role="graphics-symbol" aria-roledescription="bar" d="M115.42857142857146,360h20.571428571428573v240h-20.571428571428573Z" fill="#4c78a8"></path><path aria-label="Club: Liverpool; Median of Salary: 18.0000M" role="graphics-symbol" aria-roledescription="bar" d="M412.5714285714286,330h20.571428571428573v270h-20.571428571428573Z" fill="#4c78a8"></path><path aria-label="Club: Roma; Median of Salary: 12.0000M" role="graphics-symbol" aria-roledescription="bar" d="M595.4285714285716,420h20.571428571428573v180h-20.571428571428573Z" fill="#4c78a8"></path><path aria-label="Club: Real Madrid; Median of Salary: 40.0000M" role="graphics-symbol" aria-roledescription="bar" d="M572.5714285714287,0h20.571428571428573v600h-20.571428571428573Z" fill="#4c78a8"></path><path aria-label="Club: Barcelona; Median of Salary: 35.0000M" role="graphics-symbol" aria-roledescription="bar" d="M92.5714285714286,75h20.571428571428573v525h-20.571428571428573Z" fill="#4c78a8"></path><path aria-label="Club: Beşiktaş; Median of Salary: 11.0000M" role="graphics-symbol" aria-roledescription="bar" d="M184.00000000000003,435h20.571428571428573v165h-20.571428571428573Z" fill="#4c78a8"></path><path aria-label="Club: Porto; Median of Salary: 6.00000M" role="graphics-symbol" aria-roledescription="bar" d="M549.7142857142858,510h20.571428571428573v90h-20.571428571428573Z" fill="#4c78a8"></path><path aria-label="Club: Chelsea; Median of Salary: 23.0000M" role="graphics-symbol" aria-roledescription="bar" d="M275.42857142857144,255.00000000000003h20.571428571428573v345h-20.571428571428573Z" fill="#4c78a8"></path><path aria-label="Club: Atlético Madrid; Median of Salary: 33.0000M" role="graphics-symbol" aria-roledescription="bar" d="M69.71428571428574,105.00000000000003h20.571428571428573v495h-20.571428571428573Z" fill="#4c78a8"></path><path aria-label="Club: Athletic Bilbao; Median of Salary: 5.50000M" role="graphics-symbol" aria-roledescription="bar" d="M46.85714285714288,517.5h20.571428571428573v82.5h-20.571428571428573Z" fill="#4c78a8"></path><path aria-label="Club: Villarreal; Median of Salary: 8.00000M" role="graphics-symbol" aria-roledescription="bar" d="M755.4285714285716,480h20.571428571428573v120h-20.571428571428573Z" fill="#4c78a8"></path><path aria-label="Club: Manchester City; Median of Salary: 38.0000M" role="graphics-symbol" aria-roledescription="bar" d="M481.14285714285717,30.00000000000003h20.571428571428573v570h-20.571428571428573Z" fill="#4c78a8"></path><path aria-label="Club: Celta Vigo; Median of Salary: 15.0000M" role="graphics-symbol" aria-roledescription="bar" d="M252.5714285714286,375h20.571428571428573v225h-20.571428571428573Z" fill="#4c78a8"></path><path aria-label="Club: Sevilla; Median of Salary: 10.0000M" role="graphics-symbol" aria-roledescription="bar" d="M641.1428571428571,450h20.571428571428573v150h-20.571428571428573Z" fill="#4c78a8"></path><path aria-label="Club: Sporting CP; Median of Salary: 14.0000M" role="graphics-symbol" aria-roledescription="bar" d="M686.8571428571429,390h20.571428571428573v210h-20.571428571428573Z" fill="#4c78a8"></path><path aria-label="Club: Fenerbahçe; Median of Salary: 9.10000M" role="graphics-symbol" aria-roledescription="bar" d="M321.14285714285717,463.5h20.571428571428573v136.5h-20.571428571428573Z" fill="#4c78a8"></path><path aria-label="Club: Southampton; Median of Salary: 8.00000M" role="graphics-symbol" aria-roledescription="bar" d="M664,480h20.571428571428573v120h-20.571428571428573Z" fill="#4c78a8"></path><path aria-label="Club: Lorient; Median of Salary: 7.50000M" role="graphics-symbol" aria-roledescription="bar" d="M435.42857142857144,487.5h20.571428571428573v112.5h-20.571428571428573Z" fill="#4c78a8"></path><path aria-label="Club: Monaco; Median of Salary: 9.25000M" role="graphics-symbol" aria-roledescription="bar" d="M526.8571428571429,461.25h20.571428571428573v138.75h-20.571428571428573Z" fill="#4c78a8"></path><path aria-label="Club: Lille; Median of Salary: 5.00000M" role="graphics-symbol" aria-roledescription="bar" d="M389.7142857142857,525h20.571428571428573v75h-20.571428571428573Z" fill="#4c78a8"></path><path aria-label="Club: Wolfsburg; Median of Salary: 8.00000M" role="graphics-symbol" aria-roledescription="bar" d="M778.2857142857142,480h20.571428571428573v120h-20.571428571428573Z" fill="#4c78a8"></path><path aria-label="Club: Lyon; Median of Salary: 12.0000M" role="graphics-symbol" aria-roledescription="bar" d="M458.28571428571433,420h20.571428571428573v180h-20.571428571428573Z" fill="#4c78a8"></path><path aria-label="Club: Benfica; Median of Salary: 6.00000M" role="graphics-symbol" aria-roledescription="bar" d="M161.14285714285717,510h20.571428571428573v90h-20.571428571428573Z" fill="#4c78a8"></path><path aria-label="Club: Braga; Median of Salary: 11.0000M" role="graphics-symbol" aria-roledescription="bar" d="M229.71428571428575,435h20.571428571428573v165h-20.571428571428573Z" fill="#4c78a8"></path><path aria-label="Club: Dinamo Zagreb; Median of Salary: 1.50000M" role="graphics-symbol" aria-roledescription="bar" d="M298.28571428571433,577.5h20.571428571428573v22.5h-20.571428571428573Z" fill="#4c78a8"></path></g></g><path class="foreground" aria-hidden="true" d="" display="none"></path></g></g></g></svg>