<svg xmlns="http://www.w3.org/2000/svg" xmlns:xlink="http://www.w3.org/1999/xlink" version="1.1" class="marks" width="410" height="430" viewBox="0 0 410 430" style="background-color: white;"><g fill="none" stroke-miterlimit="10" transform="translate(5,25)"><g class="mark-group role-frame root" role="graphics-object" aria-roledescription="group mark container"><g transform="translate(0,0)"><path class="background" aria-hidden="true" d="M0,0h400v400h-400Z" fill="transparent"></path><g><g class="mark-shape role-mark layer_0_marks" role="graphics-symbol" aria-roledescription="shape mark container"><path transform="translate(0,0)" d="M23.273,260.027L47.225,250.684L44.987,244.637L33.45,242.233L36.972,232.272L45.038,230.363L42.979,221.584L34.556,216.019L47.218,219.122L49.585,219.853L60.348,223.305L63.258,221.069L70.743,217.985L76.321,205.942L87.504,202.13L88.586,203.49L94.136,203.841L94.58,207.429L107.056,214.959L115.724,213.352L122.335,211.802L123.333,211.735L113.866,197.922L109.52,198.512L106.919,196.702L101.59,186.703L92.627,186.01L92.704,181.15L91.955,175.121L88.16,172.669L89.406,170.207L75.415,161.512L73.628,154.493L59.721,145.385L63.341,128.867L61.197,125.577L53.099,114.126L51.26,110.841L47.478,107.968L47.673,99.344L40.731,87.701L44.476,84.473L43.631,78.457L49.822,70.602L48.962,65.657L52.217,62.163L53.197,50.136L62.96,45.54L63.723,37.336L73.736,41.071L72.467,33.235L75.947,21.482L80.016,14.381L89.985,7.208L97.462,7.287L99.789,5.022L105.415,0L116.665,4.957L118.243,13.493L126.755,19.737L128.339,30.689L132.51,31.154L132.946,36.004L136.149,34.406L140.907,37.631L140.549,39.138L142.505,54.218L148.491,59.389L154.87,63.331L167.275,59.465L188.931,74.038L195.341,70.492L200.214,75.399L203.808,74.211L205.455,80.002L213.873,88.534L221.159,86.453L227.938,97.867L234.504,101.116L243.615,98.044L254.823,99.156L259.129,112.337L268.529,108.677L281.706,113.767L282.568,105.915L291.817,107.695L300.139,104.328L306.748,99.91L312.465,102.551L316.666,97.85L325.625,97.557L326.476,94.406L344.658,97.136L347.45,90.543L348.325,85.248L362.499,84.041L365.765,86.005L361.546,93.113L363.205,100.455L359.867,105.676L362.527,111.493L376.727,126.808L374.969,137.315L370.994,146.627L358.647,151.932L358.779,158.524L361.205,165.837L355.253,177.085L341.848,185.935L333.201,185.961L332.154,188.636L328.932,189.052L328.734,197.639L324.486,202.641L326.044,209.4L325.96,210.127L322.278,212.946L312.111,216.709L305.901,221.824L304.338,232.653L306.19,235.516L311.564,254.596L315.296,262.928L315.269,262.921L312.528,263.21L312.711,263.351L309.234,266.182L309.505,266.226L301.761,271.529L301.165,278.878L293.093,273.654L287.389,278.524L285.824,278.524L285.608,278.725L285.62,278.819L285.391,278.656L284.891,277.527L282.185,280.189L279.097,283.418L279.001,283.506L277.573,284.761L276.991,285.314L276.981,286.697L276.776,288.297L278.893,289.805L277.837,290.402L277.994,290.161L274.906,292.506L269.188,292.231L267.281,290.69L266.195,291.449L265.252,291.969L264.919,292.122L264.709,292.908L262.984,292.057L262.107,291.849L261.823,291.529L256.949,293.303L257.03,293.328L256.915,293.738L256.934,294.019L256.865,294.065L256.767,294.164L256.678,294.178L255.945,294.544L254.14,294.785L253.899,294.848L253.126,295.446L252.507,295.961L253.027,296.377L252.57,297.707L252.368,297.897L251.334,299.624L250.633,299.631L250.574,299.543L249.864,300.046L249.88,300.274L251.191,303.965L251.27,304.636L251.395,304.757L251.397,304.787L251.563,304.995L251.714,304.977L252.403,305.844L256.461,306.993L253.238,307.276L252.794,307.284L248.868,312.599L248.341,309.337L248.391,309.155L248.339,303.976L248.382,303.849L248.413,303.832L248.333,303.65L248.283,303.509L248.251,303.35L248.765,303.119L248.787,302.242L248.417,300.879L248.264,300.736L247.948,300.662L244.362,299.625L244.312,299.773L243.515,301.136L243.633,301.244L242.864,302.162L242.564,302.463L243.082,304.269L242.053,307.521L238.776,307.346L236.951,304.584L236.712,304.922L236.404,305.292L234.556,304.15L234.39,304.103L234.28,304.087L233.284,303.765L230.013,303.544L228.867,303.494L225.902,304.055L222.574,305.392L221.058,306.371L217.673,310.405L217.433,312.57L214.99,320.297L214.696,320.298L209.773,325.402L207.35,321.725L207.27,321.564L207.136,321.459L205.525,320.063L200.612,321.468L200.774,321.112L199.634,320.942L198.109,320.658L198.142,320.574L189.745,327.215L187.734,331.532L187.346,331.825L184.642,338.12L184.649,350.589L185.283,350.385L184.684,353.945L184.305,354.093L184.359,354.548L182.979,357.051L183.057,357.594L183.599,358.339L184.035,358.97L184.777,359.882L185.003,359.635L185.071,359.584L188.08,359.91L187.389,366.404L189.505,367.845L185.855,371.228L184.408,370.234L182.179,372.337L180.728,368.802L181.239,364.263L181.228,364.363L179.005,362.965L179.583,362.998L179.987,362.733L179.901,362.447L179.636,361.581L179.072,360.984L176.149,359.563L170.602,359.648L170.58,359.743L167.21,362.884L167.195,362.358L163.36,364.595L161.004,368.357L154.76,375.345L153.423,374.489L153.822,374.216L151.9,372.57L152.302,372.69L151.557,369.588L147.496,369.798L147.982,370.861L142.52,369.202L141.989,369.161L127.194,375.093L127.243,375.162L126.406,375.609L124.261,381.131L124.134,380.961L122.628,384.261L122.183,384.694L122.017,384.621L122.268,387.008L122.349,386.978L127.063,388.322L127.557,391.708L127.742,391.772L124.758,397.927L120.38,398.746L120.475,398.583L119.775,400L113.882,398.817L113.579,393.914L110.746,393.472L104.285,390.013L108.33,378.859L102.603,376.524L105.368,367.447L111.511,362.216L108.947,354.285L113.435,346.831L107.668,341.087L103.97,343.277L98.427,344.81L95.693,341.197L93.965,344.23L89.569,339.703L84.701,335.397L81.183,332.347L76.49,333.441L73.828,326.498L64.215,316.418L64.145,309.742L68.613,303.796L66.054,293.7L65.667,290.844L64.416,290.297L63.029,287.032L62.543,285.198L62.15,284.383L58.781,284.256L53.997,283.633L51.471,283.718L47.881,283.088L48.242,282.704L48.782,280.242L45.602,277.499L43.198,276.207L41.712,276.003L34.97,277.649L31.681,279.446L30.131,278.942L28.629,271.403L25.177,270.105L26.559,267.085L23.805,264.33L23.383,260.8ZM148.473,369.195L148.455,369.27L148.376,369.256L148.4,369.176ZM157.089,389.441L157.124,389.279L157.231,389.477L157.034,389.593ZM157.731,388.93L154.298,388.001L154.334,387.303L160.223,387.601ZM159.001,391.449L159.025,391.432L159.001,391.449ZM160.939,388.581L160.978,388.526L161.066,388.541L161.03,388.597ZM161.193,388.159L161.374,388.468L160.6,388.488L160.991,388.365ZM161.252,388.683L161.273,388.608L161.543,388.422L161.377,388.698ZM161.375,387.81L161.446,387.847L161.402,387.902L161.312,387.882ZM161.512,387.927L161.491,387.909L161.555,387.893L161.537,387.931ZM161.869,387.869L161.827,387.851L162.23,387.88L161.984,387.908ZM164.05,384.519L152.524,381.197L157.312,380.18L165.297,383.248ZM166.006,384.265L165.773,384.135L165.995,383.605L166.249,384.69ZM169.803,360.317L169.732,360.342L169.698,360.26L169.779,360.232ZM169.928,361.241L169.855,361.234L169.859,361.148L169.941,361.157ZM183.507,370.285L183.611,370.28L183.592,370.304ZM183.863,357.827L184.073,358.331L184.034,358.371L183.913,358.147ZM183.918,370.237L183.952,370.216L183.977,370.226L183.956,370.25ZM184.358,358.717L184.338,358.772L184.271,358.754L184.293,358.689ZM185.262,358.494L185.286,358.417L185.322,358.432L185.291,358.507ZM185.272,371.506L185.294,371.49L185.314,371.495L185.289,371.53ZM185.412,371.431L185.427,371.432L185.413,371.446ZM185.44,371.385L185.456,371.374L185.449,371.405ZM187.257,366.418L187.281,366.42L187.276,366.447ZM187.371,369.225L187.449,369.239L187.41,369.326ZM188.035,358.943L188.094,358.831L188.275,358.747L188.215,358.951ZM188.247,360.272L188.275,360.302L188.254,360.336L188.238,360.335ZM189.126,366.623L189.172,366.675L189.147,366.73L189.125,366.719ZM252.443,298.34L252.368,298.274L253.084,297.4L252.861,297.921ZM253.083,295.828L253.075,295.769L253.289,295.656L253.296,295.699ZM253.125,295.682L253.096,295.594L253.179,295.597L253.186,295.626ZM262.154,291.943L262.25,292.299L261.968,291.993L262.046,291.928ZM262.244,292.309L262.278,292.302L262.275,292.336L262.256,292.329ZM270.344,291.928L270.344,291.992L270.265,291.97L270.31,291.953Z" fill="lightgray"></path></g><g class="mark-shape role-mark layer_1_marks" role="graphics-object" aria-roledescription="shape mark container"><path aria-label="name: Le Var" role="graphics-symbol" aria-roledescription="geoshape" transform="translate(0,0)" d="M60.966,56.586L57.889,70.345L65.969,103.242L75.753,112.659L91.725,117.974L95.951,131.13L91.637,145.147L65.84,170.402L63.594,178.064L69.365,178.502L80.215,188.103L114.165,185.599L160.56,191.736L173.374,197.889L188.043,194.83L205.968,207.065L203.513,215.582L206.716,231.709L203.24,247.432M203.24,247.432L207.176,254.396M207.176,254.396L207.597,254.894M207.597,254.894L208.925,257.795M208.925,257.795L212.93,261.959L212.701,266.858L201.316,284.44L207.27,321.564M203.24,247.432L207.176,254.396M207.597,254.894L208.925,257.795" fill="transparent" stroke="#4c78a8"></path><path aria-label="name: La Tinée" role="graphics-symbol" aria-roledescription="geoshape" transform="translate(0,0)" d="M81.101,14.163L83.715,17.087L91.989,16.036L108.92,20.987L109.79,35.948L134.59,70.845L170.669,87.856L175.373,104.727L171.881,112.163L176.626,121.771L176.412,129.942L184.41,143.854L187.064,175.487L193.037,183.564L194.667,192.749L203.363,198.409L202.68,205.306" fill="transparent" stroke="#4c78a8"></path><path aria-label="name: La Roya" role="graphics-symbol" aria-roledescription="geoshape" transform="translate(0,0)" d="M320.955,168.989L321.967,171.961L313.799,180.94L309.868,193.251L312.894,197.336L311,205.671L314.208,207.239L318.715,223.43L329.251,226.522L329.288,232.412L334.865,236.115L331.686,240.923L340.247,261.174M334.816,141.741L334.6,142.18" fill="transparent" stroke="#4c78a8"></path><path aria-label="name: L'Estéron" role="graphics-symbol" aria-roledescription="geoshape" transform="translate(0,0)" d="M23.449,232.518L44.853,238.949L54.26,235.43L53.162,229.746L67.234,230.281L78.245,226.775L85.679,229.05L93.913,221.097L101.876,223.854L110.964,222.366L116.771,232.822L139.107,221.411L144.23,222.815L148.419,229.434L156.524,230.997L168.716,231.112L176.244,227.575L188.081,237.01L190.563,234.275L196.14,236.153L203.187,246.967" fill="transparent" stroke="#4c78a8"></path><path aria-label="name: La Cagne" role="graphics-symbol" aria-roledescription="geoshape" transform="translate(0,0)" d="M158.639,257.426L154.022,260.248L165.926,265.23L178.197,264.397L178.857,272.55L186.747,282.388L192.894,322.359" fill="transparent" stroke="#4c78a8"></path><path aria-label="name: Le Paillon" role="graphics-symbol" aria-roledescription="geoshape" transform="translate(0,0)" d="M266.565,215.239L258.92,219.373L255.089,227.13L257.916,234.427L256.066,238.14L266.685,248.957L263.599,268.944L248.023,270.97L242.545,284.33L234.565,287.551L234.262,298.165L229.912,303.532" fill="transparent" stroke="#4c78a8"></path><path aria-label="name: La Siagne" role="graphics-symbol" aria-roledescription="geoshape" transform="translate(0,0)" d="M89.025,288.009L79.612,287.794L79.113,298.177L65.448,306.05L64.686,317.826L71.621,322.096L76.49,333.441L82.336,332.747L93.791,344.157L95.621,341.214L98.427,344.81L107.438,340.768L118.447,350.711L124.442,362.105L125.863,377.341" fill="transparent" stroke="#4c78a8"></path><path aria-label="name: Le Loup" role="graphics-symbol" aria-roledescription="geoshape" transform="translate(0,0)" d="M65.535,272.831L102.727,261.134L130.747,260.265L141.721,279.317L139.157,294.6L142.399,300.626L162.513,302.237L165.966,305.947M165.966,305.947L165.511,306.82L165.555,307.137L165.689,307.328L166.396,307.693L166.541,308.575L167.697,309.661L168.16,309.896L168.649,309.855L168.876,310.275L169.061,310.311L171.339,308.897L171.158,309.69L171.542,310.374L172.418,311.545L173.572,312.319L173.849,313.134L174.049,313.225L174.713,312.998L175.155,314.099L175.5,314.377L178.294,315.315M165.966,305.947L165.97,306.081L165.566,306.737L165.574,307.139L165.741,307.343L166.378,307.648L166.46,307.743L166.494,307.824L166.564,308.581L167.465,309.118L167.575,309.244L167.77,309.697L168.704,309.835L168.902,310.267L169.044,310.301L169.895,309.064L169.949,309.039L170.092,309.067L170.59,309.318L171.005,308.953L171.243,308.837L171.34,308.849L171.436,309.017L171.429,309.114L171.174,309.671L171.361,310.021L171.994,310.839L172.43,311.528L173.444,312.203L173.652,312.387L173.922,313.131L174.4,312.899L174.738,312.969L174.912,313.239L175.184,314.113L175.549,314.375L176.408,314.644L177.385,314.54L177.574,314.577L177.866,314.754L178.294,315.315M178.294,315.315L178.02,314.852L177.744,314.63L177.517,314.532L175.473,314.297L175.174,314.037L175.048,313.49L174.854,313.039L174.76,312.95L174.432,312.851L173.984,313.095L173.879,312.962L173.734,312.486L173.609,312.299L171.447,310.13L171.193,309.689L171.485,309.025L171.37,308.816L169.877,309.033L169.01,310.288L168.699,309.807L167.763,309.669L167.608,309.276L167.498,309.129L166.578,308.574L166.51,307.798L166.452,307.705L166.326,307.594L165.736,307.318L165.59,307.102L165.594,306.78L165.986,306.098L166,305.987L165.966,305.947M178.294,315.315L189.745,327.216" fill="transparent" stroke="#4c78a8"></path><path aria-label="name: Cians" role="graphics-symbol" aria-roledescription="geoshape" transform="translate(0,0)" d="M143.785,107.094L138.373,113.877L140.569,127.613L134.272,149.87L145.671,179.426L138.077,188.562" fill="transparent" stroke="#4c78a8"></path></g><g class="mark-group role-title"><g transform="translate(0,-20)"><path class="background" aria-hidden="true" d="M0,0h0v0h0Z" pointer-events="none"></path><g><g class="mark-text role-title-text" role="graphics-symbol" aria-roledescription="title" aria-label="Title text 'Main rivers of French Riviera'" pointer-events="none"><text text-anchor="start" transform="translate(0,13)" font-family="Fira Sans" font-size="16px" font-weight="bold" fill="#000" opacity="1">Main rivers of French Riviera</text></g></g><path class="foreground" aria-hidden="true" d="" pointer-events="none" display="none"></path></g></g></g><path class="foreground" aria-hidden="true" d="" display="none"></path></g></g></g></svg>