<svg xmlns="http://www.w3.org/2000/svg" xmlns:xlink="http://www.w3.org/1999/xlink" version="1.1" class="marks" width="868" height="511" viewBox="0 0 868 511" style="background-color: white;"><g fill="none" stroke-miterlimit="10" transform="translate(15,5)"><g class="mark-group role-frame root" role="graphics-object" aria-roledescription="group mark container"><g transform="translate(0,0)"><path class="background" aria-hidden="true" d="M0,0h0v500h0Z"></path><g><g class="mark-group role-scope concat_0_group" role="graphics-object" aria-roledescription="group mark container"><g transform="translate(0,0)"><path class="background" aria-hidden="true" d="M0,0h200v500h-200Z" fill="transparent"></path><g><g class="mark-rect role-mark concat_0_layer_0_marks" role="graphics-object" aria-roledescription="rect mark container"><path aria-label="s: 314; s_end: 891; Sex: male" role="graphics-symbol" aria-roledescription="bar" d="M-10,5.000000000000004h10v320.55555555555554h-10Z" fill="#4c78a8"></path><path aria-label="s: 0; s_end: 314; Sex: female" role="graphics-symbol" aria-roledescription="bar" d="M-10,325.55555555555554h10v174.44444444444446h-10Z" fill="#bab0ac"></path></g><g class="mark-rect role-mark concat_0_layer_1_marks" role="graphics-object" aria-roledescription="rect mark container"><path aria-label="s: 0; s_end: 549; Survived: Died" role="graphics-symbol" aria-roledescription="bar" d="M200,195h10v305h-10Z" fill="#eeca3b"></path><path aria-label="s: 549; s_end: 891; Survived: Survived" role="graphics-symbol" aria-roledescription="bar" d="M200,5.000000000000004h10v190h-10Z" fill="#9d755d"></path></g><g class="mark-group role-scope concat_0_layer_2_pathgroup" role="graphics-object" aria-roledescription="group mark container"><g transform="translate(0,0)"><path class="background" aria-hidden="true" d="M0,0h200v500h-200Z"></path><g><g class="mark-area role-mark concat_0_layer_2_marks" role="graphics-object" aria-roledescription="area mark container"><path aria-label="x: 0; y: 314; y2: 782; g: male and Died" role="graphics-symbol" aria-roledescription="area mark" d="M0,325.556L3.333,325.556C6.667,325.556,13.333,325.556,43.333,347.13C73.333,368.704,126.667,411.852,156.667,433.426C186.667,455,193.333,455,196.667,455L200,455L200,195L196.667,195C193.333,195,186.667,195,156.667,173.426C126.667,151.852,73.333,108.704,43.333,87.13C13.333,65.556,6.667,65.556,3.333,65.556L0,65.556Z" fill="lightgrey" fill-opacity="0.25" stroke="grey" stroke-width="0.5"></path></g></g><path class="foreground" aria-hidden="true" d="" display="none"></path></g><g transform="translate(0,0)"><path class="background" aria-hidden="true" d="M0,0h200v500h-200Z"></path><g><g class="mark-area role-mark concat_0_layer_2_marks" role="graphics-object" aria-roledescription="area mark container"><path aria-label="x: 0; y: 81; y2: 314; g: female and Survived" role="graphics-symbol" aria-roledescription="area mark" d="M0,455L3.333,455C6.667,455,13.333,455,43.333,411.667C73.333,368.333,126.667,281.667,156.667,238.333C186.667,195,193.333,195,196.667,195L200,195L200,65.556L196.667,65.556C193.333,65.556,186.667,65.556,156.667,108.889C126.667,152.222,73.333,238.889,43.333,282.222C13.333,325.556,6.667,325.556,3.333,325.556L0,325.556Z" fill="lightgrey" fill-opacity="0.25" stroke="grey" stroke-width="0.5"></path></g></g><path class="foreground" aria-hidden="true" d="" display="none"></path></g><g transform="translate(0,0)"><path class="background" aria-hidden="true" d="M0,0h200v500h-200Z"></path><g><g class="mark-area role-mark concat_0_layer_2_marks" role="graphics-object" aria-roledescription="area mark container"><path aria-label="x: 0; y: 0; y2: 81; g: female and Died" role="graphics-symbol" aria-roledescription="area mark" d="M0,500L3.333,500C6.667,500,13.333,500,43.333,500C73.333,500,126.667,500,156.667,500C186.667,500,193.333,500,196.667,500L200,500L200,455L196.667,455C193.333,455,186.667,455,156.667,455C126.667,455,73.333,455,43.333,455C13.333,455,6.667,455,3.333,455L0,455Z" fill="lightgrey" fill-opacity="0.25" stroke="grey" stroke-width="0.5"></path></g></g><path class="foreground" aria-hidden="true" d="" display="none"></path></g><g transform="translate(0,0)"><path class="background" aria-hidden="true" d="M0,0h200v500h-200Z"></path><g><g class="mark-area role-mark concat_0_layer_2_marks" role="graphics-object" aria-roledescription="area mark container"><path aria-label="x: 0; y: 782; y2: 891; g: male and Survived" role="graphics-symbol" aria-roledescription="area mark" d="M0,65.556L3.333,65.556C6.667,65.556,13.333,65.556,43.333,65.556C73.333,65.556,126.667,65.556,156.667,65.556C186.667,65.556,193.333,65.556,196.667,65.556L200,65.556L200,5L196.667,5C193.333,5,186.667,5,156.667,5C126.667,5,73.333,5,43.333,5C13.333,5,6.667,5,3.333,5L0,5Z" fill="lightgrey" fill-opacity="0.25" stroke="grey" stroke-width="0.5"></path></g></g><path class="foreground" aria-hidden="true" d="" display="none"></path></g></g></g><path class="foreground" aria-hidden="true" d="" display="none"></path></g></g><g class="mark-group role-scope concat_1_group" role="graphics-object" aria-roledescription="group mark container"><g transform="translate(211,0)"><path class="background" aria-hidden="true" d="M0,0h200v500h-200Z" fill="transparent"></path><g><g class="mark-rect role-mark concat_1_layer_0_marks" role="graphics-object" aria-roledescription="rect mark container"><path aria-label="s: 400; s_end: 891; Pclass: Class 3" role="graphics-symbol" aria-roledescription="bar" d="M200,5.000000000000004h10v272.77777777777777h-10Z" fill="#54a24b"></path><path aria-label="s: 0; s_end: 216; Pclass: Class 1" role="graphics-symbol" aria-roledescription="bar" d="M200,380h10v120h-10Z" fill="#e45756"></path><path aria-label="s: 216; s_end: 400; Pclass: Class 2" role="graphics-symbol" aria-roledescription="bar" d="M200,277.77777777777777h10v102.22222222222223h-10Z" fill="#72b7b2"></path></g><g class="mark-group role-scope concat_1_layer_1_pathgroup" role="graphics-object" aria-roledescription="group mark container"><g transform="translate(0,0)"><path class="background" aria-hidden="true" d="M0,0h200v500h-200Z"></path><g><g class="mark-area role-mark concat_1_layer_1_marks" role="graphics-object" aria-roledescription="area mark container"><path aria-label="x: 0; y: 177; y2: 549; g: Died and Class 3" role="graphics-symbol" aria-roledescription="area mark" d="M0,401.667L3.333,401.667C6.667,401.667,13.333,401.667,43.333,381.019C73.333,360.37,126.667,319.074,156.667,298.426C186.667,277.778,193.333,277.778,196.667,277.778L200,277.778L200,71.111L196.667,71.111C193.333,71.111,186.667,71.111,156.667,91.759C126.667,112.407,73.333,153.704,43.333,174.352C13.333,195,6.667,195,3.333,195L0,195Z" fill="lightgrey" fill-opacity="0.25" stroke="grey" stroke-width="0.5"></path></g></g><path class="foreground" aria-hidden="true" d="" display="none"></path></g><g transform="translate(0,0)"><path class="background" aria-hidden="true" d="M0,0h200v500h-200Z"></path><g><g class="mark-area role-mark concat_1_layer_1_marks" role="graphics-object" aria-roledescription="area mark container"><path aria-label="x: 0; y: 549; y2: 685; g: Survived and Class 1" role="graphics-symbol" aria-roledescription="area mark" d="M0,195L3.333,195C6.667,195,13.333,195,43.333,238.426C73.333,281.852,126.667,368.704,156.667,412.13C186.667,455.556,193.333,455.556,196.667,455.556L200,455.556L200,380L196.667,380C193.333,380,186.667,380,156.667,336.574C126.667,293.148,73.333,206.296,43.333,162.87C13.333,119.444,6.667,119.444,3.333,119.444L0,119.444Z" fill="lightgrey" fill-opacity="0.25" stroke="grey" stroke-width="0.5"></path></g></g><path class="foreground" aria-hidden="true" d="" display="none"></path></g><g transform="translate(0,0)"><path class="background" aria-hidden="true" d="M0,0h200v500h-200Z"></path><g><g class="mark-area role-mark concat_1_layer_1_marks" role="graphics-object" aria-roledescription="area mark container"><path aria-label="x: 0; y: 772; y2: 891; g: Survived and Class 3" role="graphics-symbol" aria-roledescription="area mark" d="M0,71.111L3.333,71.111C6.667,71.111,13.333,71.111,43.333,71.111C73.333,71.111,126.667,71.111,156.667,71.111C186.667,71.111,193.333,71.111,196.667,71.111L200,71.111L200,5L196.667,5C193.333,5,186.667,5,156.667,5C126.667,5,73.333,5,43.333,5C13.333,5,6.667,5,3.333,5L0,5Z" fill="lightgrey" fill-opacity="0.25" stroke="grey" stroke-width="0.5"></path></g></g><path class="foreground" aria-hidden="true" d="" display="none"></path></g><g transform="translate(0,0)"><path class="background" aria-hidden="true" d="M0,0h200v500h-200Z"></path><g><g class="mark-area role-mark concat_1_layer_1_marks" role="graphics-object" aria-roledescription="area mark container"><path aria-label="x: 0; y: 0; y2: 80; g: Died and Class 1" role="graphics-symbol" aria-roledescription="area mark" d="M0,500L3.333,500C6.667,500,13.333,500,43.333,500C73.333,500,126.667,500,156.667,500C186.667,500,193.333,500,196.667,500L200,500L200,455.556L196.667,455.556C193.333,455.556,186.667,455.556,156.667,455.556C126.667,455.556,73.333,455.556,43.333,455.556C13.333,455.556,6.667,455.556,3.333,455.556L0,455.556Z" fill="lightgrey" fill-opacity="0.25" stroke="grey" stroke-width="0.5"></path></g></g><path class="foreground" aria-hidden="true" d="" display="none"></path></g><g transform="translate(0,0)"><path class="background" aria-hidden="true" d="M0,0h200v500h-200Z"></path><g><g class="mark-area role-mark concat_1_layer_1_marks" role="graphics-object" aria-roledescription="area mark container"><path aria-label="x: 0; y: 685; y2: 772; g: Survived and Class 2" role="graphics-symbol" aria-roledescription="area mark" d="M0,119.444L3.333,119.444C6.667,119.444,13.333,119.444,43.333,153.889C73.333,188.333,126.667,257.222,156.667,291.667C186.667,326.111,193.333,326.111,196.667,326.111L200,326.111L200,277.778L196.667,277.778C193.333,277.778,186.667,277.778,156.667,243.333C126.667,208.889,73.333,140,43.333,105.556C13.333,71.111,6.667,71.111,3.333,71.111L0,71.111Z" fill="lightgrey" fill-opacity="0.25" stroke="grey" stroke-width="0.5"></path></g></g><path class="foreground" aria-hidden="true" d="" display="none"></path></g><g transform="translate(0,0)"><path class="background" aria-hidden="true" d="M0,0h200v500h-200Z"></path><g><g class="mark-area role-mark concat_1_layer_1_marks" role="graphics-object" aria-roledescription="area mark container"><path aria-label="x: 0; y: 80; y2: 177; g: Died and Class 2" role="graphics-symbol" aria-roledescription="area mark" d="M0,455.556L3.333,455.556C6.667,455.556,13.333,455.556,43.333,442.963C73.333,430.37,126.667,405.185,156.667,392.593C186.667,380,193.333,380,196.667,380L200,380L200,326.111L196.667,326.111C193.333,326.111,186.667,326.111,156.667,338.704C126.667,351.296,73.333,376.481,43.333,389.074C13.333,401.667,6.667,401.667,3.333,401.667L0,401.667Z" fill="lightgrey" fill-opacity="0.25" stroke="grey" stroke-width="0.5"></path></g></g><path class="foreground" aria-hidden="true" d="" display="none"></path></g></g></g><path class="foreground" aria-hidden="true" d="" display="none"></path></g></g><g class="mark-group role-scope concat_2_group" role="graphics-object" aria-roledescription="group mark container"><g transform="translate(422,0)"><path class="background" aria-hidden="true" d="M0,0h200v500h-200Z" fill="transparent"></path><g><g class="mark-rect role-mark concat_2_layer_0_marks" role="graphics-object" aria-roledescription="rect mark container"><path aria-label="s: 247; s_end: 891; Embarked: S" role="graphics-symbol" aria-roledescription="bar" d="M200,5.000000000000004h10v357.77777777777777h-10Z" fill="#ff9da6"></path><path aria-label="s: 2; s_end: 170; Embarked: C" role="graphics-symbol" aria-roledescription="bar" d="M200,405.55555555555554h10v93.33333333333331h-10Z" fill="#f58518"></path><path aria-label="s: 170; s_end: 247; Embarked: Q" role="graphics-symbol" aria-roledescription="bar" d="M200,362.77777777777777h10v42.77777777777777h-10Z" fill="#b279a2"></path><path aria-label="s: 0; s_end: 2; Embarked: " role="graphics-symbol" aria-roledescription="bar" d="M200,498.88888888888886h10v1.1111111111111427h-10Z" fill="#4c78a8"></path></g><g class="mark-group role-scope concat_2_layer_1_pathgroup" role="graphics-object" aria-roledescription="group mark container"><g transform="translate(0,0)"><path class="background" aria-hidden="true" d="M0,0h200v500h-200Z"></path><g><g class="mark-area role-mark concat_2_layer_1_marks" role="graphics-object" aria-roledescription="area mark container"><path aria-label="x: 0; y: 538; y2: 891; g: Class 3 and S" role="graphics-symbol" aria-roledescription="area mark" d="M0,201.111L3.333,201.111C6.667,201.111,13.333,201.111,43.333,201.111C73.333,201.111,126.667,201.111,156.667,201.111C186.667,201.111,193.333,201.111,196.667,201.111L200,201.111L200,5L196.667,5C193.333,5,186.667,5,156.667,5C126.667,5,73.333,5,43.333,5C13.333,5,6.667,5,3.333,5L0,5Z" fill="lightgrey" fill-opacity="0.25" stroke="grey" stroke-width="0.5"></path></g></g><path class="foreground" aria-hidden="true" d="" display="none"></path></g><g transform="translate(0,0)"><path class="background" aria-hidden="true" d="M0,0h200v500h-200Z"></path><g><g class="mark-area role-mark concat_2_layer_1_marks" role="graphics-object" aria-roledescription="area mark container"><path aria-label="x: 0; y: 2; y2: 87; g: Class 1 and C" role="graphics-symbol" aria-roledescription="area mark" d="M0,498.889L3.333,498.889C6.667,498.889,13.333,498.889,43.333,498.889C73.333,498.889,126.667,498.889,156.667,498.889C186.667,498.889,193.333,498.889,196.667,498.889L200,498.889L200,451.667L196.667,451.667C193.333,451.667,186.667,451.667,156.667,451.667C126.667,451.667,73.333,451.667,43.333,451.667C13.333,451.667,6.667,451.667,3.333,451.667L0,451.667Z" fill="lightgrey" fill-opacity="0.25" stroke="grey" stroke-width="0.5"></path></g></g><path class="foreground" aria-hidden="true" d="" display="none"></path></g><g transform="translate(0,0)"><path class="background" aria-hidden="true" d="M0,0h200v500h-200Z"></path><g><g class="mark-area role-mark concat_2_layer_1_marks" role="graphics-object" aria-roledescription="area mark container"><path aria-label="x: 0; y: 89; y2: 216; g: Class 1 and S" role="graphics-symbol" aria-roledescription="area mark" d="M0,450.556L3.333,450.556C6.667,450.556,13.333,450.556,43.333,435.926C73.333,421.296,126.667,392.037,156.667,377.407C186.667,362.778,193.333,362.778,196.667,362.778L200,362.778L200,292.222L196.667,292.222C193.333,292.222,186.667,292.222,156.667,306.852C126.667,321.481,73.333,350.741,43.333,365.37C13.333,380,6.667,380,3.333,380L0,380Z" fill="lightgrey" fill-opacity="0.25" stroke="grey" stroke-width="0.5"></path></g></g><path class="foreground" aria-hidden="true" d="" display="none"></path></g><g transform="translate(0,0)"><path class="background" aria-hidden="true" d="M0,0h200v500h-200Z"></path><g><g class="mark-area role-mark concat_2_layer_1_marks" role="graphics-object" aria-roledescription="area mark container"><path aria-label="x: 0; y: 466; y2: 538; g: Class 3 and Q" role="graphics-symbol" aria-roledescription="area mark" d="M0,241.111L3.333,241.111C6.667,241.111,13.333,241.111,43.333,268.056C73.333,295,126.667,348.889,156.667,375.833C186.667,402.778,193.333,402.778,196.667,402.778L200,402.778L200,362.778L196.667,362.778C193.333,362.778,186.667,362.778,156.667,335.833C126.667,308.889,73.333,255,43.333,228.056C13.333,201.111,6.667,201.111,3.333,201.111L0,201.111Z" fill="lightgrey" fill-opacity="0.25" stroke="grey" stroke-width="0.5"></path></g></g><path class="foreground" aria-hidden="true" d="" display="none"></path></g><g transform="translate(0,0)"><path class="background" aria-hidden="true" d="M0,0h200v500h-200Z"></path><g><g class="mark-area role-mark concat_2_layer_1_marks" role="graphics-object" aria-roledescription="area mark container"><path aria-label="x: 0; y: 216; y2: 233; g: Class 2 and C" role="graphics-symbol" aria-roledescription="area mark" d="M0,380L3.333,380C6.667,380,13.333,380,43.333,391.944C73.333,403.889,126.667,427.778,156.667,439.722C186.667,451.667,193.333,451.667,196.667,451.667L200,451.667L200,442.222L196.667,442.222C193.333,442.222,186.667,442.222,156.667,430.278C126.667,418.333,73.333,394.444,43.333,382.5C13.333,370.556,6.667,370.556,3.333,370.556L0,370.556Z" fill="lightgrey" fill-opacity="0.25" stroke="grey" stroke-width="0.5"></path></g></g><path class="foreground" aria-hidden="true" d="" display="none"></path></g><g transform="translate(0,0)"><path class="background" aria-hidden="true" d="M0,0h200v500h-200Z"></path><g><g class="mark-area role-mark concat_2_layer_1_marks" role="graphics-object" aria-roledescription="area mark container"><path aria-label="x: 0; y: 236; y2: 400; g: Class 2 and S" role="graphics-symbol" aria-roledescription="area mark" d="M0,368.889L3.333,368.889C6.667,368.889,13.333,368.889,43.333,356.111C73.333,343.333,126.667,317.778,156.667,305C186.667,292.222,193.333,292.222,196.667,292.222L200,292.222L200,201.111L196.667,201.111C193.333,201.111,186.667,201.111,156.667,213.889C126.667,226.667,73.333,252.222,43.333,265C13.333,277.778,6.667,277.778,3.333,277.778L0,277.778Z" fill="lightgrey" fill-opacity="0.25" stroke="grey" stroke-width="0.5"></path></g></g><path class="foreground" aria-hidden="true" d="" display="none"></path></g><g transform="translate(0,0)"><path class="background" aria-hidden="true" d="M0,0h200v500h-200Z"></path><g><g class="mark-area role-mark concat_2_layer_1_marks" role="graphics-object" aria-roledescription="area mark container"><path aria-label="x: 0; y: 400; y2: 466; g: Class 3 and C" role="graphics-symbol" aria-roledescription="area mark" d="M0,277.778L3.333,277.778C6.667,277.778,13.333,277.778,43.333,305.185C73.333,332.593,126.667,387.407,156.667,414.815C186.667,442.222,193.333,442.222,196.667,442.222L200,442.222L200,405.556L196.667,405.556C193.333,405.556,186.667,405.556,156.667,378.148C126.667,350.741,73.333,295.926,43.333,268.519C13.333,241.111,6.667,241.111,3.333,241.111L0,241.111Z" fill="lightgrey" fill-opacity="0.25" stroke="grey" stroke-width="0.5"></path></g></g><path class="foreground" aria-hidden="true" d="" display="none"></path></g><g transform="translate(0,0)"><path class="background" aria-hidden="true" d="M0,0h200v500h-200Z"></path><g><g class="mark-area role-mark concat_2_layer_1_marks" role="graphics-object" aria-roledescription="area mark container"><path aria-label="x: 0; y: 0; y2: 2; g: Class 1 and " role="graphics-symbol" aria-roledescription="area mark" d="M0,500L3.333,500C6.667,500,13.333,500,43.333,500C73.333,500,126.667,500,156.667,500C186.667,500,193.333,500,196.667,500L200,500L200,498.889L196.667,498.889C193.333,498.889,186.667,498.889,156.667,498.889C126.667,498.889,73.333,498.889,43.333,498.889C13.333,498.889,6.667,498.889,3.333,498.889L0,498.889Z" fill="lightgrey" fill-opacity="0.25" stroke="grey" stroke-width="0.5"></path></g></g><path class="foreground" aria-hidden="true" d="" display="none"></path></g><g transform="translate(0,0)"><path class="background" aria-hidden="true" d="M0,0h200v500h-200Z"></path><g><g class="mark-area role-mark concat_2_layer_1_marks" role="graphics-object" aria-roledescription="area mark container"><path aria-label="x: 0; y: 87; y2: 89; g: Class 1 and Q" role="graphics-symbol" aria-roledescription="area mark" d="M0,451.667L3.333,451.667C6.667,451.667,13.333,451.667,43.333,443.981C73.333,436.296,126.667,420.926,156.667,413.241C186.667,405.556,193.333,405.556,196.667,405.556L200,405.556L200,404.444L196.667,404.444C193.333,404.444,186.667,404.444,156.667,412.13C126.667,419.815,73.333,435.185,43.333,442.87C13.333,450.556,6.667,450.556,3.333,450.556L0,450.556Z" fill="lightgrey" fill-opacity="0.25" stroke="grey" stroke-width="0.5"></path></g></g><path class="foreground" aria-hidden="true" d="" display="none"></path></g><g transform="translate(0,0)"><path class="background" aria-hidden="true" d="M0,0h200v500h-200Z"></path><g><g class="mark-area role-mark concat_2_layer_1_marks" role="graphics-object" aria-roledescription="area mark container"><path aria-label="x: 0; y: 233; y2: 236; g: Class 2 and Q" role="graphics-symbol" aria-roledescription="area mark" d="M0,370.556L3.333,370.556C6.667,370.556,13.333,370.556,43.333,376.204C73.333,381.852,126.667,393.148,156.667,398.796C186.667,404.444,193.333,404.444,196.667,404.444L200,404.444L200,402.778L196.667,402.778C193.333,402.778,186.667,402.778,156.667,397.13C126.667,391.481,73.333,380.185,43.333,374.537C13.333,368.889,6.667,368.889,3.333,368.889L0,368.889Z" fill="lightgrey" fill-opacity="0.25" stroke="grey" stroke-width="0.5"></path></g></g><path class="foreground" aria-hidden="true" d="" display="none"></path></g></g></g><path class="foreground" aria-hidden="true" d="" display="none"></path></g></g><g class="mark-group role-legend" role="graphics-symbol" aria-roledescription="legend" aria-label="Symbol legend titled 'Sex, Survived, Pclass, Embarked' for fill color with 11 values: , C, Class 1, Class 2, Class 3, ending with male"><g transform="translate(672,0)"><path class="background" aria-hidden="true" d="M0,0h176v157h-176Z" pointer-events="none"></path><g><g class="mark-group role-legend-entry"><g transform="translate(0,16)"><path class="background" aria-hidden="true" d="M0,0h0v0h0Z" pointer-events="none"></path><g><g class="mark-group role-scope" role="graphics-object" aria-roledescription="group mark container"><g transform="translate(0,0)"><path class="background" aria-hidden="true" d="M0,0h57.3525390625v11h-57.3525390625Z" pointer-events="none" opacity="1"></path><g><g class="mark-symbol role-legend-symbol" pointer-events="none"><path transform="translate(6,6)" d="M-5,-5h10v10h-10Z" fill="#4c78a8" stroke-width="1.5" opacity="1"></path></g><g class="mark-text role-legend-label" pointer-events="none"><text text-anchor="start" transform="translate(16,9)" font-family="sans-serif" font-size="10px" fill="#000" opacity="1"></text></g></g><path class="foreground" aria-hidden="true" d="" pointer-events="none" display="none"></path></g><g transform="translate(0,13)"><path class="background" aria-hidden="true" d="M0,0h57.3525390625v11h-57.3525390625Z" pointer-events="none" opacity="1"></path><g><g class="mark-symbol role-legend-symbol" pointer-events="none"><path transform="translate(6,6)" d="M-5,-5h10v10h-10Z" fill="#f58518" stroke-width="1.5" opacity="1"></path></g><g class="mark-text role-legend-label" pointer-events="none"><text text-anchor="start" transform="translate(16,9)" font-family="sans-serif" font-size="10px" fill="#000" opacity="1">C</text></g></g><path class="foreground" aria-hidden="true" d="" pointer-events="none" display="none"></path></g><g transform="translate(0,26)"><path class="background" aria-hidden="true" d="M0,0h57.3525390625v11h-57.3525390625Z" pointer-events="none" opacity="1"></path><g><g class="mark-symbol role-legend-symbol" pointer-events="none"><path transform="translate(6,6)" d="M-5,-5h10v10h-10Z" fill="#e45756" stroke-width="1.5" opacity="1"></path></g><g class="mark-text role-legend-label" pointer-events="none"><text text-anchor="start" transform="translate(16,9)" font-family="sans-serif" font-size="10px" fill="#000" opacity="1">Class 1</text></g></g><path class="foreground" aria-hidden="true" d="" pointer-events="none" display="none"></path></g><g transform="translate(0,39)"><path class="background" aria-hidden="true" d="M0,0h57.3525390625v11h-57.3525390625Z" pointer-events="none" opacity="1"></path><g><g class="mark-symbol role-legend-symbol" pointer-events="none"><path transform="translate(6,6)" d="M-5,-5h10v10h-10Z" fill="#72b7b2" stroke-width="1.5" opacity="1"></path></g><g class="mark-text role-legend-label" pointer-events="none"><text text-anchor="start" transform="translate(16,9)" font-family="sans-serif" font-size="10px" fill="#000" opacity="1">Class 2</text></g></g><path class="foreground" aria-hidden="true" d="" pointer-events="none" display="none"></path></g><g transform="translate(0,52)"><path class="background" aria-hidden="true" d="M0,0h57.3525390625v11h-57.3525390625Z" pointer-events="none" opacity="1"></path><g><g class="mark-symbol role-legend-symbol" pointer-events="none"><path transform="translate(6,6)" d="M-5,-5h10v10h-10Z" fill="#54a24b" stroke-width="1.5" opacity="1"></path></g><g class="mark-text role-legend-label" pointer-events="none"><text text-anchor="start" transform="translate(16,9)" font-family="sans-serif" font-size="10px" fill="#000" opacity="1">Class 3</text></g></g><path class="foreground" aria-hidden="true" d="" pointer-events="none" display="none"></path></g><g transform="translate(0,65)"><path class="background" aria-hidden="true" d="M0,0h57.3525390625v11h-57.3525390625Z" pointer-events="none" opacity="1"></path><g><g class="mark-symbol role-legend-symbol" pointer-events="none"><path transform="translate(6,6)" d="M-5,-5h10v10h-10Z" fill="#eeca3b" stroke-width="1.5" opacity="1"></path></g><g class="mark-text role-legend-label" pointer-events="none"><text text-anchor="start" transform="translate(16,9)" font-family="sans-serif" font-size="10px" fill="#000" opacity="1">Died</text></g></g><path class="foreground" aria-hidden="true" d="" pointer-events="none" display="none"></path></g><g transform="translate(0,78)"><path class="background" aria-hidden="true" d="M0,0h57.3525390625v11h-57.3525390625Z" pointer-events="none" opacity="1"></path><g><g class="mark-symbol role-legend-symbol" pointer-events="none"><path transform="translate(6,6)" d="M-5,-5h10v10h-10Z" fill="#b279a2" stroke-width="1.5" opacity="1"></path></g><g class="mark-text role-legend-label" pointer-events="none"><text text-anchor="start" transform="translate(16,9)" font-family="sans-serif" font-size="10px" fill="#000" opacity="1">Q</text></g></g><path class="foreground" aria-hidden="true" d="" pointer-events="none" display="none"></path></g><g transform="translate(0,91)"><path class="background" aria-hidden="true" d="M0,0h57.3525390625v11h-57.3525390625Z" pointer-events="none" opacity="1"></path><g><g class="mark-symbol role-legend-symbol" pointer-events="none"><path transform="translate(6,6)" d="M-5,-5h10v10h-10Z" fill="#ff9da6" stroke-width="1.5" opacity="1"></path></g><g class="mark-text role-legend-label" pointer-events="none"><text text-anchor="start" transform="translate(16,9)" font-family="sans-serif" font-size="10px" fill="#000" opacity="1">S</text></g></g><path class="foreground" aria-hidden="true" d="" pointer-events="none" display="none"></path></g><g transform="translate(0,104)"><path class="background" aria-hidden="true" d="M0,0h57.3525390625v11h-57.3525390625Z" pointer-events="none" opacity="1"></path><g><g class="mark-symbol role-legend-symbol" pointer-events="none"><path transform="translate(6,6)" d="M-5,-5h10v10h-10Z" fill="#9d755d" stroke-width="1.5" opacity="1"></path></g><g class="mark-text role-legend-label" pointer-events="none"><text text-anchor="start" transform="translate(16,9)" font-family="sans-serif" font-size="10px" fill="#000" opacity="1">Survived</text></g></g><path class="foreground" aria-hidden="true" d="" pointer-events="none" display="none"></path></g><g transform="translate(0,117)"><path class="background" aria-hidden="true" d="M0,0h57.3525390625v11h-57.3525390625Z" pointer-events="none" opacity="1"></path><g><g class="mark-symbol role-legend-symbol" pointer-events="none"><path transform="translate(6,6)" d="M-5,-5h10v10h-10Z" fill="#bab0ac" stroke-width="1.5" opacity="1"></path></g><g class="mark-text role-legend-label" pointer-events="none"><text text-anchor="start" transform="translate(16,9)" font-family="sans-serif" font-size="10px" fill="#000" opacity="1">female</text></g></g><path class="foreground" aria-hidden="true" d="" pointer-events="none" display="none"></path></g><g transform="translate(0,130)"><path class="background" aria-hidden="true" d="M0,0h57.3525390625v11h-57.3525390625Z" pointer-events="none" opacity="1"></path><g><g class="mark-symbol role-legend-symbol" pointer-events="none"><path transform="translate(6,6)" d="M-5,-5h10v10h-10Z" fill="#4c78a8" stroke-width="1.5" opacity="1"></path></g><g class="mark-text role-legend-label" pointer-events="none"><text text-anchor="start" transform="translate(16,9)" font-family="sans-serif" font-size="10px" fill="#000" opacity="1">male</text></g></g><path class="foreground" aria-hidden="true" d="" pointer-events="none" display="none"></path></g></g></g><path class="foreground" aria-hidden="true" d="" pointer-events="none" display="none"></path></g></g><g class="mark-text role-legend-title" pointer-events="none"><text text-anchor="start" transform="translate(0,9)" font-family="sans-serif" font-size="11px" font-weight="bold" fill="#000" opacity="1">Sex, Survived, Pclass, Embarked</text></g></g><path class="foreground" aria-hidden="true" d="" pointer-events="none" display="none"></path></g></g></g><path class="foreground" aria-hidden="true" d="" display="none"></path></g></g></g></svg>