<svg xmlns="http://www.w3.org/2000/svg" xmlns:xlink="http://www.w3.org/1999/xlink" version="1.1" class="marks" width="511" height="283" viewBox="0 0 511 283" style="background-color: white;"><g fill="none" stroke-miterlimit="10" transform="translate(214,23)"><g class="mark-group role-frame root" role="graphics-object" aria-roledescription="group mark container"><g transform="translate(0,0)"><path class="background" aria-hidden="true" d="M0,0h0v0h0Z"></path><g><g class="mark-group role-row-title row-title" role="graphics-object" aria-roledescription="group mark container"><g transform="translate(-97,111)"><path class="background" aria-hidden="true" d="M0,0h0v0h0Z"></path><g><g class="mark-group role-title"><g transform="translate(-21.000000000000007,0)"><path class="background" aria-hidden="true" d="M0,0h0v0h0Z" pointer-events="none"></path><g><g class="mark-text role-title-text" role="graphics-symbol" aria-roledescription="title" aria-label="Title text 'Dimensions (of Prior)'" pointer-events="none"><text text-anchor="middle" transform="translate(0,0) rotate(-90) translate(0,9)" font-family="sans-serif" font-size="11px" font-weight="bold" fill="#000" opacity="1">Dimensions (of Prior)</text></g></g><path class="foreground" aria-hidden="true" d="" pointer-events="none" display="none"></path></g></g></g><path class="foreground" aria-hidden="true" d="" display="none"></path></g></g><g class="mark-group role-row-header row_header" role="graphics-object" aria-roledescription="group mark container"><g transform="translate(-1,0)"><path class="background" aria-hidden="true" d="M0,0h0v100h0Z"></path><g><g class="mark-group role-axis" role="graphics-symbol" aria-roledescription="axis" aria-label="Y-axis titled 'Edit Type' for a discrete scale with 4 values: add_field, agg, bin, mark"><g transform="translate(0.5,0.5)"><path class="background" aria-hidden="true" d="M0,0h0v0h0Z" pointer-events="none"></path><g><g class="mark-rule role-axis-tick" pointer-events="none"><line transform="translate(0,12)" x2="-5" y2="0" stroke="#888" stroke-width="1" opacity="1"></line><line transform="translate(0,37)" x2="-5" y2="0" stroke="#888" stroke-width="1" opacity="1"></line><line transform="translate(0,62)" x2="-5" y2="0" stroke="#888" stroke-width="1" opacity="1"></line><line transform="translate(0,87)" x2="-5" y2="0" stroke="#888" stroke-width="1" opacity="1"></line></g><g class="mark-text role-axis-label" pointer-events="none"><text text-anchor="end" transform="translate(-7,15)" font-family="sans-serif" font-size="10px" fill="#000" opacity="1">add_field</text><text text-anchor="end" transform="translate(-7,40)" font-family="sans-serif" font-size="10px" fill="#000" opacity="1">agg</text><text text-anchor="end" transform="translate(-7,65)" font-family="sans-serif" font-size="10px" fill="#000" opacity="1">bin</text><text text-anchor="end" transform="translate(-7,90)" font-family="sans-serif" font-size="10px" fill="#000" opacity="1">mark</text></g><g class="mark-rule role-axis-domain" pointer-events="none"><line transform="translate(0,0)" x2="0" y2="100" stroke="#888" stroke-width="1" opacity="1"></line></g><g class="mark-text role-axis-title" pointer-events="none"><text text-anchor="middle" transform="translate(-54.662109375,50) rotate(-90) translate(0,-2)" font-family="sans-serif" font-size="11px" font-weight="bold" fill="#000" opacity="1">Edit Type</text></g></g><path class="foreground" aria-hidden="true" d="" pointer-events="none" display="none"></path></g></g><g class="mark-group role-title"><g transform="translate(-85.662109375,50)"><path class="background" aria-hidden="true" d="M0,0h0v0h0Z" pointer-events="none"></path><g><g class="mark-text role-title-text" role="graphics-symbol" aria-roledescription="title" aria-label="Title text '1'" pointer-events="none"><text text-anchor="middle" transform="translate(0,0) rotate(-90) translate(0,8)" font-family="sans-serif" font-size="10px" fill="#000" opacity="1">1</text></g></g><path class="foreground" aria-hidden="true" d="" pointer-events="none" display="none"></path></g></g></g><path class="foreground" aria-hidden="true" d="" display="none"></path></g><g transform="translate(-1,122)"><path class="background" aria-hidden="true" d="M0,0h0v100h0Z"></path><g><g class="mark-group role-axis" role="graphics-symbol" aria-roledescription="axis" aria-label="Y-axis titled 'Edit Type' for a discrete scale with 4 values: add_field, agg, bin, mark"><g transform="translate(0.5,0.5)"><path class="background" aria-hidden="true" d="M0,0h0v0h0Z" pointer-events="none"></path><g><g class="mark-rule role-axis-tick" pointer-events="none"><line transform="translate(0,12)" x2="-5" y2="0" stroke="#888" stroke-width="1" opacity="1"></line><line transform="translate(0,37)" x2="-5" y2="0" stroke="#888" stroke-width="1" opacity="1"></line><line transform="translate(0,62)" x2="-5" y2="0" stroke="#888" stroke-width="1" opacity="1"></line><line transform="translate(0,87)" x2="-5" y2="0" stroke="#888" stroke-width="1" opacity="1"></line></g><g class="mark-text role-axis-label" pointer-events="none"><text text-anchor="end" transform="translate(-7,15)" font-family="sans-serif" font-size="10px" fill="#000" opacity="1">add_field</text><text text-anchor="end" transform="translate(-7,40)" font-family="sans-serif" font-size="10px" fill="#000" opacity="1">agg</text><text text-anchor="end" transform="translate(-7,65)" font-family="sans-serif" font-size="10px" fill="#000" opacity="1">bin</text><text text-anchor="end" transform="translate(-7,90)" font-family="sans-serif" font-size="10px" fill="#000" opacity="1">mark</text></g><g class="mark-rule role-axis-domain" pointer-events="none"><line transform="translate(0,0)" x2="0" y2="100" stroke="#888" stroke-width="1" opacity="1"></line></g><g class="mark-text role-axis-title" pointer-events="none"><text text-anchor="middle" transform="translate(-54.662109375,50) rotate(-90) translate(0,-2)" font-family="sans-serif" font-size="11px" font-weight="bold" fill="#000" opacity="1">Edit Type</text></g></g><path class="foreground" aria-hidden="true" d="" pointer-events="none" display="none"></path></g></g><g class="mark-group role-title"><g transform="translate(-85.662109375,50)"><path class="background" aria-hidden="true" d="M0,0h0v0h0Z" pointer-events="none"></path><g><g class="mark-text role-title-text" role="graphics-symbol" aria-roledescription="title" aria-label="Title text '2'" pointer-events="none"><text text-anchor="middle" transform="translate(0,0) rotate(-90) translate(0,8)" font-family="sans-serif" font-size="10px" fill="#000" opacity="1">2</text></g></g><path class="foreground" aria-hidden="true" d="" pointer-events="none" display="none"></path></g></g></g><path class="foreground" aria-hidden="true" d="" display="none"></path></g></g><g class="mark-group role-column-footer column_footer" role="graphics-object" aria-roledescription="group mark container"><g transform="translate(0,223)"><path class="background" aria-hidden="true" d="M0,0h200v0h-200Z"></path><g><g class="mark-group role-axis" role="graphics-symbol" aria-roledescription="axis" aria-label="X-axis titled 'Change in Rank' for a linear scale with values from −5 to 50"><g transform="translate(0.5,0.5)"><path class="background" aria-hidden="true" d="M0,0h0v0h0Z" pointer-events="none"></path><g><g class="mark-rule role-axis-tick" pointer-events="none"><line transform="translate(18,0)" x2="0" y2="5" stroke="#888" stroke-width="1" opacity="1"></line><line transform="translate(55,0)" x2="0" y2="5" stroke="#888" stroke-width="1" opacity="1"></line><line transform="translate(91,0)" x2="0" y2="5" stroke="#888" stroke-width="1" opacity="1"></line><line transform="translate(127,0)" x2="0" y2="5" stroke="#888" stroke-width="1" opacity="1"></line><line transform="translate(164,0)" x2="0" y2="5" stroke="#888" stroke-width="1" opacity="1"></line><line transform="translate(200,0)" x2="0" y2="5" stroke="#888" stroke-width="1" opacity="1"></line></g><g class="mark-text role-axis-label" pointer-events="none"><text text-anchor="middle" transform="translate(18.181818181818183,15)" font-family="sans-serif" font-size="10px" fill="#000" opacity="1">0</text><text text-anchor="middle" transform="translate(54.54545454545454,15)" font-family="sans-serif" font-size="10px" fill="#000" opacity="1">10</text><text text-anchor="middle" transform="translate(90.9090909090909,15)" font-family="sans-serif" font-size="10px" fill="#000" opacity="1">20</text><text text-anchor="middle" transform="translate(127.27272727272727,15)" font-family="sans-serif" font-size="10px" fill="#000" opacity="1">30</text><text text-anchor="middle" transform="translate(163.63636363636365,15)" font-family="sans-serif" font-size="10px" fill="#000" opacity="1">40</text><text text-anchor="end" transform="translate(200,15)" font-family="sans-serif" font-size="10px" fill="#000" opacity="1">50</text></g><g class="mark-rule role-axis-domain" pointer-events="none"><line transform="translate(0,0)" x2="200" y2="0" stroke="#888" stroke-width="1" opacity="1"></line></g><g class="mark-text role-axis-title" pointer-events="none"><text text-anchor="middle" transform="translate(100,30)" font-family="sans-serif" font-size="11px" font-weight="bold" fill="#000" opacity="1">Change in Rank</text></g></g><path class="foreground" aria-hidden="true" d="" pointer-events="none" display="none"></path></g></g></g><path class="foreground" aria-hidden="true" d="" display="none"></path></g></g><g class="mark-group role-scope cell" role="graphics-object" aria-roledescription="group mark container"><g transform="translate(0,0)"><path class="background" aria-hidden="true" d="M0.5,0.5h200v100h-200Z" fill="transparent" stroke="#ddd"></path><g><g class="mark-group role-axis" aria-hidden="true"><g transform="translate(0.5,100.5)"><path class="background" aria-hidden="true" d="M0,0h0v0h0Z" pointer-events="none"></path><g><g class="mark-rule role-axis-grid" pointer-events="none"><line transform="translate(18,0)" x2="0" y2="-100" stroke="#ddd" stroke-width="1" opacity="1"></line><line transform="translate(55,0)" x2="0" y2="-100" stroke="#ddd" stroke-width="1" opacity="1"></line><line transform="translate(91,0)" x2="0" y2="-100" stroke="#ddd" stroke-width="1" opacity="1"></line><line transform="translate(127,0)" x2="0" y2="-100" stroke="#ddd" stroke-width="1" opacity="1"></line><line transform="translate(164,0)" x2="0" y2="-100" stroke="#ddd" stroke-width="1" opacity="1"></line><line transform="translate(200,0)" x2="0" y2="-100" stroke="#ddd" stroke-width="1" opacity="1"></line></g></g><path class="foreground" aria-hidden="true" d="" pointer-events="none" display="none"></path></g></g><g class="mark-symbol role-mark child_layer_0_marks" role="graphics-object" aria-roledescription="symbol mark container"><path aria-label="Mean of delta_gr: 6; Edit Type: mark" role="graphics-symbol" aria-roledescription="point" transform="translate(40,87.5)" d="M3.536,0A3.536,3.536,0,1,1,-3.536,0A3.536,3.536,0,1,1,3.536,0" fill="#579aff" stroke-width="2"></path><path aria-label="Mean of delta_gr: 23.75; Edit Type: add_field" role="graphics-symbol" aria-roledescription="point" transform="translate(104.54545454545455,12.5)" d="M3.536,0A3.536,3.536,0,1,1,-3.536,0A3.536,3.536,0,1,1,3.536,0" fill="#579aff" stroke-width="2"></path><path aria-label="Mean of delta_gr: 9; Edit Type: bin" role="graphics-symbol" aria-roledescription="point" transform="translate(50.90909090909091,62.5)" d="M3.536,0A3.536,3.536,0,1,1,-3.536,0A3.536,3.536,0,1,1,3.536,0" fill="#579aff" stroke-width="2"></path></g><g class="mark-rule role-mark child_layer_1_marks" role="graphics-object" aria-roledescription="rule mark container"><line aria-label="Change in Rank: 5; Edit Type: mark; upper_delta_gr: 7; Ci1 of delta_gr: 7; Ci0 of delta_gr: 5; Mean of delta_gr: 6" role="graphics-symbol" aria-roledescription="errorbar" transform="translate(36.36363636363637,87.5)" x2="7.272727272727266" y2="0" stroke="#579aff" opacity="0.5"></line><line aria-label="Change in Rank: 15.36875; Edit Type: add_field; upper_delta_gr: 31.5; Ci1 of delta_gr: 31.5; Ci0 of delta_gr: 15.36875; Mean of delta_gr: 23.75" role="graphics-symbol" aria-roledescription="errorbar" transform="translate(74.06818181818181,12.5)" x2="58.659090909090935" y2="0" stroke="#579aff" opacity="0.5"></line><line aria-label="Change in Rank: 9; Edit Type: bin; upper_delta_gr: 9; Ci1 of delta_gr: 9; Ci0 of delta_gr: 9; Mean of delta_gr: 9" role="graphics-symbol" aria-roledescription="errorbar" transform="translate(50.90909090909091,62.5)" x2="0" y2="0" stroke="#579aff" opacity="0.5"></line></g><g class="mark-symbol role-mark child_layer_2_marks" role="graphics-object" aria-roledescription="symbol mark container"><path aria-label="Mean of neg_delta_dr: 8.5; Edit Type: mark" role="graphics-symbol" aria-roledescription="point" transform="translate(49.09090909090909,87.5)" d="M3.536,0A3.536,3.536,0,1,1,-3.536,0A3.536,3.536,0,1,1,3.536,0" fill="#ff8f87" stroke-width="2"></path><path aria-label="Mean of neg_delta_dr: 5.90909090909; Edit Type: add_field" role="graphics-symbol" aria-roledescription="point" transform="translate(39.6694214876033,12.5)" d="M3.536,0A3.536,3.536,0,1,1,-3.536,0A3.536,3.536,0,1,1,3.536,0" fill="#ff8f87" stroke-width="2"></path><path aria-label="Mean of neg_delta_dr: 2; Edit Type: bin" role="graphics-symbol" aria-roledescription="point" transform="translate(25.454545454545453,62.5)" d="M3.536,0A3.536,3.536,0,1,1,-3.536,0A3.536,3.536,0,1,1,3.536,0" fill="#ff8f87" stroke-width="2"></path></g><g class="mark-rule role-mark child_layer_3_marks" role="graphics-object" aria-roledescription="rule mark container"><line aria-label="Change in Rank: −1; Edit Type: mark; upper_neg_delta_dr: 18; Ci1 of neg_delta_dr: 18; Ci0 of neg_delta_dr: −1; Mean of neg_delta_dr: 8.5" role="graphics-symbol" aria-roledescription="errorbar" transform="translate(14.545454545454545,87.5)" x2="69.09090909090908" y2="0" stroke="#ff8f87" opacity="0.5"></line><line aria-label="Change in Rank: 1.36136363636; Edit Type: add_field; upper_neg_delta_dr: 13.3636363636; Ci1 of neg_delta_dr: 13.3636363636; Ci0 of neg_delta_dr: 1.36136363636; Mean of neg_delta_dr: 5.90909090909" role="graphics-symbol" aria-roledescription="errorbar" transform="translate(23.132231404958677,12.5)" x2="43.64462809917356" y2="0" stroke="#ff8f87" opacity="0.5"></line><line aria-label="Change in Rank: 2; Edit Type: bin; upper_neg_delta_dr: 2; Ci1 of neg_delta_dr: 2; Ci0 of neg_delta_dr: 2; Mean of neg_delta_dr: 2" role="graphics-symbol" aria-roledescription="errorbar" transform="translate(25.454545454545453,62.5)" x2="0" y2="0" stroke="#ff8f87" opacity="0.5"></line></g></g><path class="foreground" aria-hidden="true" d="" display="none"></path></g><g transform="translate(0,122)"><path class="background" aria-hidden="true" d="M0.5,0.5h200v100h-200Z" fill="transparent" stroke="#ddd"></path><g><g class="mark-group role-axis" aria-hidden="true"><g transform="translate(0.5,100.5)"><path class="background" aria-hidden="true" d="M0,0h0v0h0Z" pointer-events="none"></path><g><g class="mark-rule role-axis-grid" pointer-events="none"><line transform="translate(18,0)" x2="0" y2="-100" stroke="#ddd" stroke-width="1" opacity="1"></line><line transform="translate(55,0)" x2="0" y2="-100" stroke="#ddd" stroke-width="1" opacity="1"></line><line transform="translate(91,0)" x2="0" y2="-100" stroke="#ddd" stroke-width="1" opacity="1"></line><line transform="translate(127,0)" x2="0" y2="-100" stroke="#ddd" stroke-width="1" opacity="1"></line><line transform="translate(164,0)" x2="0" y2="-100" stroke="#ddd" stroke-width="1" opacity="1"></line><line transform="translate(200,0)" x2="0" y2="-100" stroke="#ddd" stroke-width="1" opacity="1"></line></g></g><path class="foreground" aria-hidden="true" d="" pointer-events="none" display="none"></path></g></g><g class="mark-symbol role-mark child_layer_0_marks" role="graphics-object" aria-roledescription="symbol mark container"><path aria-label="Mean of delta_gr: 13.3888888889; Edit Type: mark" role="graphics-symbol" aria-roledescription="point" transform="translate(66.86868686868686,87.5)" d="M3.536,0A3.536,3.536,0,1,1,-3.536,0A3.536,3.536,0,1,1,3.536,0" fill="#579aff" stroke-width="2"></path><path aria-label="Mean of delta_gr: 23.4166666667; Edit Type: add_field" role="graphics-symbol" aria-roledescription="point" transform="translate(103.33333333333331,12.5)" d="M3.536,0A3.536,3.536,0,1,1,-3.536,0A3.536,3.536,0,1,1,3.536,0" fill="#579aff" stroke-width="2"></path><path aria-label="Mean of delta_gr: 9.66666666667; Edit Type: bin" role="graphics-symbol" aria-roledescription="point" transform="translate(53.333333333333336,62.5)" d="M3.536,0A3.536,3.536,0,1,1,-3.536,0A3.536,3.536,0,1,1,3.536,0" fill="#579aff" stroke-width="2"></path></g><g class="mark-rule role-mark child_layer_1_marks" role="graphics-object" aria-roledescription="rule mark container"><line aria-label="Change in Rank: 8.60972222222; Edit Type: mark; upper_delta_gr: 18.7777777778; Ci1 of delta_gr: 18.7777777778; Ci0 of delta_gr: 8.60972222222; Mean of delta_gr: 13.3888888889" role="graphics-symbol" aria-roledescription="errorbar" transform="translate(49.48989898989899,87.5)" x2="36.974747474747474" y2="0" stroke="#579aff" opacity="0.5"></line><line aria-label="Change in Rank: 16.8333333333; Edit Type: add_field; upper_delta_gr: 29.4166666667; Ci1 of delta_gr: 29.4166666667; Ci0 of delta_gr: 16.8333333333; Mean of delta_gr: 23.4166666667" role="graphics-symbol" aria-roledescription="errorbar" transform="translate(79.39393939393939,12.5)" x2="45.75757575757578" y2="0" stroke="#579aff" opacity="0.5"></line><line aria-label="Change in Rank: 4; Edit Type: bin; upper_delta_gr: 20; Ci1 of delta_gr: 20; Ci0 of delta_gr: 4; Mean of delta_gr: 9.66666666667" role="graphics-symbol" aria-roledescription="errorbar" transform="translate(32.72727272727273,62.5)" x2="58.18181818181818" y2="0" stroke="#579aff" opacity="0.5"></line></g><g class="mark-symbol role-mark child_layer_2_marks" role="graphics-object" aria-roledescription="symbol mark container"><path aria-label="Mean of neg_delta_dr: 4.27777777778; Edit Type: mark" role="graphics-symbol" aria-roledescription="point" transform="translate(33.73737373737374,87.5)" d="M3.536,0A3.536,3.536,0,1,1,-3.536,0A3.536,3.536,0,1,1,3.536,0" fill="#ff8f87" stroke-width="2"></path><path aria-label="Mean of neg_delta_dr: 7.34375; Edit Type: add_field" role="graphics-symbol" aria-roledescription="point" transform="translate(44.88636363636363,12.5)" d="M3.536,0A3.536,3.536,0,1,1,-3.536,0A3.536,3.536,0,1,1,3.536,0" fill="#ff8f87" stroke-width="2"></path><path aria-label="Mean of neg_delta_dr: 0.666666666667; Edit Type: bin" role="graphics-symbol" aria-roledescription="point" transform="translate(20.60606060606061,62.5)" d="M3.536,0A3.536,3.536,0,1,1,-3.536,0A3.536,3.536,0,1,1,3.536,0" fill="#ff8f87" stroke-width="2"></path><path aria-label="Mean of neg_delta_dr: 2; Edit Type: agg" role="graphics-symbol" aria-roledescription="point" transform="translate(25.454545454545453,37.5)" d="M3.536,0A3.536,3.536,0,1,1,-3.536,0A3.536,3.536,0,1,1,3.536,0" fill="#ff8f87" stroke-width="2"></path></g><g class="mark-rule role-mark child_layer_3_marks" role="graphics-object" aria-roledescription="rule mark container"><line aria-label="Change in Rank: 0.5; Edit Type: mark; upper_neg_delta_dr: 9.39027777778; Ci1 of neg_delta_dr: 9.39027777778; Ci0 of neg_delta_dr: 0.5; Mean of neg_delta_dr: 4.27777777778" role="graphics-symbol" aria-roledescription="errorbar" transform="translate(20,87.5)" x2="32.32828282828282" y2="0" stroke="#ff8f87" opacity="0.5"></line><line aria-label="Change in Rank: 3.49921875; Edit Type: add_field; upper_neg_delta_dr: 12.75234375; Ci1 of neg_delta_dr: 12.75234375; Ci0 of neg_delta_dr: 3.49921875; Mean of neg_delta_dr: 7.34375" role="graphics-symbol" aria-roledescription="errorbar" transform="translate(30.90625,12.5)" x2="33.647727272727266" y2="0" stroke="#ff8f87" opacity="0.5"></line><line aria-label="Change in Rank: 0; Edit Type: bin; upper_neg_delta_dr: 1; Ci1 of neg_delta_dr: 1; Ci0 of neg_delta_dr: 0; Mean of neg_delta_dr: 0.666666666667" role="graphics-symbol" aria-roledescription="errorbar" transform="translate(18.181818181818183,62.5)" x2="3.636363636363633" y2="0" stroke="#ff8f87" opacity="0.5"></line><line aria-label="Change in Rank: 1; Edit Type: agg; upper_neg_delta_dr: 3; Ci1 of neg_delta_dr: 3; Ci0 of neg_delta_dr: 1; Mean of neg_delta_dr: 2" role="graphics-symbol" aria-roledescription="errorbar" transform="translate(21.818181818181817,37.5)" x2="7.272727272727273" y2="0" stroke="#ff8f87" opacity="0.5"></line></g></g><path class="foreground" aria-hidden="true" d="" display="none"></path></g></g><g class="mark-group role-title"><g transform="translate(41.49999999999999,-18)"><path class="background" aria-hidden="true" d="M0,0h0v0h0Z" pointer-events="none"></path><g><g class="mark-text role-title-text" role="graphics-symbol" aria-roledescription="title" aria-label="Title text 'Change in Rank (Red = Loss in Draco Rank, Blue = Gain in Graphscape Rank)'" pointer-events="none"><text text-anchor="middle" transform="translate(0,10)" font-family="sans-serif" font-size="13px" font-weight="bold" fill="#000" opacity="1">Change in Rank (Red = Loss in Draco Rank, Blue = Gain in Graphscape Rank)</text></g></g><path class="foreground" aria-hidden="true" d="" pointer-events="none" display="none"></path></g></g></g><path class="foreground" aria-hidden="true" d="" display="none"></path></g></g></g></svg>