<svg xmlns="http://www.w3.org/2000/svg" xmlns:xlink="http://www.w3.org/1999/xlink" version="1.1" class="marks" width="817" height="347" viewBox="0 0 817 347" style="background-color: white;"><g fill="none" stroke-miterlimit="10" transform="translate(47,10)"><g class="mark-group role-frame root" role="graphics-object" aria-roledescription="group mark container"><g transform="translate(0,0)"><path class="background" aria-hidden="true" d="M0.5,0.5h762v300h-762Z" fill="transparent" stroke="#ddd"></path><g><g class="mark-group role-axis" aria-hidden="true"><g transform="translate(0.5,300.5)"><path class="background" aria-hidden="true" d="M0,0h0v0h0Z" pointer-events="none"></path><g><g class="mark-rule role-axis-grid" pointer-events="none"><line transform="translate(0,-300)" x2="0" y2="300" stroke="#ddd" stroke-width="1" opacity="1"></line><line transform="translate(46,-300)" x2="0" y2="300" stroke="#ddd" stroke-width="1" opacity="1"></line><line transform="translate(92,-300)" x2="0" y2="300" stroke="#ddd" stroke-width="1" opacity="1"></line><line transform="translate(139,-300)" x2="0" y2="300" stroke="#ddd" stroke-width="1" opacity="1"></line><line transform="translate(185,-300)" x2="0" y2="300" stroke="#ddd" stroke-width="1" opacity="1"></line><line transform="translate(231,-300)" x2="0" y2="300" stroke="#ddd" stroke-width="1" opacity="1"></line><line transform="translate(277,-300)" x2="0" y2="300" stroke="#ddd" stroke-width="1" opacity="1"></line><line transform="translate(323,-300)" x2="0" y2="300" stroke="#ddd" stroke-width="1" opacity="1"></line><line transform="translate(369,-300)" x2="0" y2="300" stroke="#ddd" stroke-width="1" opacity="1"></line><line transform="translate(416,-300)" x2="0" y2="300" stroke="#ddd" stroke-width="1" opacity="1"></line><line transform="translate(462,-300)" x2="0" y2="300" stroke="#ddd" stroke-width="1" opacity="1"></line><line transform="translate(508,-300)" x2="0" y2="300" stroke="#ddd" stroke-width="1" opacity="1"></line><line transform="translate(554,-300)" x2="0" y2="300" stroke="#ddd" stroke-width="1" opacity="1"></line><line transform="translate(600,-300)" x2="0" y2="300" stroke="#ddd" stroke-width="1" opacity="1"></line><line transform="translate(647,-300)" x2="0" y2="300" stroke="#ddd" stroke-width="1" opacity="1"></line><line transform="translate(693,-300)" x2="0" y2="300" stroke="#ddd" stroke-width="1" opacity="1"></line><line transform="translate(739,-300)" x2="0" y2="300" stroke="#ddd" stroke-width="1" opacity="1"></line></g></g><path class="foreground" aria-hidden="true" d="" pointer-events="none" display="none"></path></g></g><g class="mark-group role-axis" aria-hidden="true"><g transform="translate(0.5,0.5)"><path class="background" aria-hidden="true" d="M0,0h0v0h0Z" pointer-events="none"></path><g><g class="mark-rule role-axis-grid" pointer-events="none"><line transform="translate(0,300)" x2="762" y2="0" stroke="#ddd" stroke-width="1" opacity="1"></line><line transform="translate(0,267)" x2="762" y2="0" stroke="#ddd" stroke-width="1" opacity="1"></line><line transform="translate(0,233)" x2="762" y2="0" stroke="#ddd" stroke-width="1" opacity="1"></line><line transform="translate(0,200)" x2="762" y2="0" stroke="#ddd" stroke-width="1" opacity="1"></line><line transform="translate(0,167)" x2="762" y2="0" stroke="#ddd" stroke-width="1" opacity="1"></line><line transform="translate(0,133)" x2="762" y2="0" stroke="#ddd" stroke-width="1" opacity="1"></line><line transform="translate(0,100)" x2="762" y2="0" stroke="#ddd" stroke-width="1" opacity="1"></line><line transform="translate(0,67)" x2="762" y2="0" stroke="#ddd" stroke-width="1" opacity="1"></line><line transform="translate(0,33)" x2="762" y2="0" stroke="#ddd" stroke-width="1" opacity="1"></line><line transform="translate(0,0)" x2="762" y2="0" stroke="#ddd" stroke-width="1" opacity="1"></line></g></g><path class="foreground" aria-hidden="true" d="" pointer-events="none" display="none"></path></g></g><g class="mark-group role-axis" role="graphics-symbol" aria-roledescription="axis" aria-label="X-axis titled 'year' for a time scale with values from 1986 to 2019"><g transform="translate(0.5,300.5)"><path class="background" aria-hidden="true" d="M0,0h0v0h0Z" pointer-events="none"></path><g><g class="mark-rule role-axis-tick" pointer-events="none"><line transform="translate(0,0)" x2="0" y2="5" stroke="#888" stroke-width="1" opacity="1"></line><line transform="translate(46,0)" x2="0" y2="5" stroke="#888" stroke-width="1" opacity="1"></line><line transform="translate(92,0)" x2="0" y2="5" stroke="#888" stroke-width="1" opacity="1"></line><line transform="translate(139,0)" x2="0" y2="5" stroke="#888" stroke-width="1" opacity="1"></line><line transform="translate(185,0)" x2="0" y2="5" stroke="#888" stroke-width="1" opacity="1"></line><line transform="translate(231,0)" x2="0" y2="5" stroke="#888" stroke-width="1" opacity="1"></line><line transform="translate(277,0)" x2="0" y2="5" stroke="#888" stroke-width="1" opacity="1"></line><line transform="translate(323,0)" x2="0" y2="5" stroke="#888" stroke-width="1" opacity="1"></line><line transform="translate(369,0)" x2="0" y2="5" stroke="#888" stroke-width="1" opacity="1"></line><line transform="translate(416,0)" x2="0" y2="5" stroke="#888" stroke-width="1" opacity="1"></line><line transform="translate(462,0)" x2="0" y2="5" stroke="#888" stroke-width="1" opacity="1"></line><line transform="translate(508,0)" x2="0" y2="5" stroke="#888" stroke-width="1" opacity="1"></line><line transform="translate(554,0)" x2="0" y2="5" stroke="#888" stroke-width="1" opacity="1"></line><line transform="translate(600,0)" x2="0" y2="5" stroke="#888" stroke-width="1" opacity="1"></line><line transform="translate(647,0)" x2="0" y2="5" stroke="#888" stroke-width="1" opacity="1"></line><line transform="translate(693,0)" x2="0" y2="5" stroke="#888" stroke-width="1" opacity="1"></line><line transform="translate(739,0)" x2="0" y2="5" stroke="#888" stroke-width="1" opacity="1"></line></g><g class="mark-text role-axis-label" pointer-events="none"><text text-anchor="start" transform="translate(0,15)" font-family="sans-serif" font-size="10px" fill="#000" opacity="1">1986</text><text text-anchor="middle" transform="translate(46.15116568489173,15)" font-family="sans-serif" font-size="10px" fill="#000" opacity="1">1988</text><text text-anchor="middle" transform="translate(92.36555214469426,15)" font-family="sans-serif" font-size="10px" fill="#000" opacity="1">1990</text><text text-anchor="middle" transform="translate(138.51671782958599,15)" font-family="sans-serif" font-size="10px" fill="#000" opacity="1">1992</text><text text-anchor="middle" transform="translate(184.73110428938853,15)" font-family="sans-serif" font-size="10px" fill="#000" opacity="1">1994</text><text text-anchor="middle" transform="translate(230.88226997428026,15)" font-family="sans-serif" font-size="10px" fill="#000" opacity="1">1996</text><text text-anchor="middle" transform="translate(277.09665643408283,15)" font-family="sans-serif" font-size="10px" fill="#000" opacity="1">1998</text><text text-anchor="middle" transform="translate(323.2478221189745,15)" font-family="sans-serif" font-size="10px" fill="#000" opacity="1">2000</text><text text-anchor="middle" transform="translate(369.46220857877705,15)" font-family="sans-serif" font-size="10px" fill="#000" opacity="1">2002</text><text text-anchor="middle" transform="translate(415.61337426366885,15)" font-family="sans-serif" font-size="10px" fill="#000" opacity="1">2004</text><text text-anchor="middle" transform="translate(461.8277607234714,15)" font-family="sans-serif" font-size="10px" fill="#000" opacity="1">2006</text><text text-anchor="middle" transform="translate(507.97892640836307,15)" font-family="sans-serif" font-size="10px" fill="#000" opacity="1">2008</text><text text-anchor="middle" transform="translate(554.1933128681657,15)" font-family="sans-serif" font-size="10px" fill="#000" opacity="1">2010</text><text text-anchor="middle" transform="translate(600.3444785530573,15)" font-family="sans-serif" font-size="10px" fill="#000" opacity="1">2012</text><text text-anchor="middle" transform="translate(646.5588650128599,15)" font-family="sans-serif" font-size="10px" fill="#000" opacity="1">2014</text><text text-anchor="middle" transform="translate(692.7100306977516,15)" font-family="sans-serif" font-size="10px" fill="#000" opacity="1">2016</text><text text-anchor="middle" transform="translate(738.9244171575541,15)" font-family="sans-serif" font-size="10px" fill="#000" opacity="1">2018</text></g><g class="mark-rule role-axis-domain" pointer-events="none"><line transform="translate(0,0)" x2="762" y2="0" stroke="#888" stroke-width="1" opacity="1"></line></g><g class="mark-text role-axis-title" pointer-events="none"><text text-anchor="middle" transform="translate(381,30)" font-family="sans-serif" font-size="11px" font-weight="bold" fill="#000" opacity="1">year</text></g></g><path class="foreground" aria-hidden="true" d="" pointer-events="none" display="none"></path></g></g><g class="mark-group role-axis" role="graphics-symbol" aria-roledescription="axis" aria-label="Y-axis titled 'Wind Generation [TW]' for a linear scale with values from 0.0 to 0.5"><g transform="translate(0.5,0.5)"><path class="background" aria-hidden="true" d="M0,0h0v0h0Z" pointer-events="none"></path><g><g class="mark-rule role-axis-tick" pointer-events="none"><line transform="translate(0,300)" x2="-5" y2="0" stroke="#888" stroke-width="1" opacity="1"></line><line transform="translate(0,267)" x2="-5" y2="0" stroke="#888" stroke-width="1" opacity="1"></line><line transform="translate(0,233)" x2="-5" y2="0" stroke="#888" stroke-width="1" opacity="1"></line><line transform="translate(0,200)" x2="-5" y2="0" stroke="#888" stroke-width="1" opacity="1"></line><line transform="translate(0,167)" x2="-5" y2="0" stroke="#888" stroke-width="1" opacity="1"></line><line transform="translate(0,133)" x2="-5" y2="0" stroke="#888" stroke-width="1" opacity="1"></line><line transform="translate(0,100)" x2="-5" y2="0" stroke="#888" stroke-width="1" opacity="1"></line><line transform="translate(0,67)" x2="-5" y2="0" stroke="#888" stroke-width="1" opacity="1"></line><line transform="translate(0,33)" x2="-5" y2="0" stroke="#888" stroke-width="1" opacity="1"></line><line transform="translate(0,0)" x2="-5" y2="0" stroke="#888" stroke-width="1" opacity="1"></line></g><g class="mark-text role-axis-label" pointer-events="none"><text text-anchor="end" transform="translate(-7,303)" font-family="sans-serif" font-size="10px" fill="#000" opacity="1">0.00</text><text text-anchor="end" transform="translate(-7,269.66666666666663)" font-family="sans-serif" font-size="10px" fill="#000" opacity="1">0.05</text><text text-anchor="end" transform="translate(-7,236.33333333333334)" font-family="sans-serif" font-size="10px" fill="#000" opacity="1">0.10</text><text text-anchor="end" transform="translate(-7,203.00000000000003)" font-family="sans-serif" font-size="10px" fill="#000" opacity="1">0.15</text><text text-anchor="end" transform="translate(-7,169.66666666666669)" font-family="sans-serif" font-size="10px" fill="#000" opacity="1">0.20</text><text text-anchor="end" transform="translate(-7,136.33333333333331)" font-family="sans-serif" font-size="10px" fill="#000" opacity="1">0.25</text><text text-anchor="end" transform="translate(-7,103.00000000000001)" font-family="sans-serif" font-size="10px" fill="#000" opacity="1">0.30</text><text text-anchor="end" transform="translate(-7,69.6666666666667)" font-family="sans-serif" font-size="10px" fill="#000" opacity="1">0.35</text><text text-anchor="end" transform="translate(-7,36.333333333333314)" font-family="sans-serif" font-size="10px" fill="#000" opacity="1">0.40</text><text text-anchor="end" transform="translate(-7,3)" font-family="sans-serif" font-size="10px" fill="#000" opacity="1">0.45</text></g><g class="mark-rule role-axis-domain" pointer-events="none"><line transform="translate(0,300)" x2="0" y2="-300" stroke="#888" stroke-width="1" opacity="1"></line></g><g class="mark-text role-axis-title" pointer-events="none"><text text-anchor="middle" transform="translate(-31,150) rotate(-90) translate(0,-2)" font-family="sans-serif" font-size="11px" font-weight="bold" fill="#000" opacity="1">Wind Generation [TW]</text></g></g><path class="foreground" aria-hidden="true" d="" pointer-events="none" display="none"></path></g></g><g class="mark-line role-mark layer_0_marks" role="graphics-object" aria-roledescription="line mark container"><path aria-label="year: 1986; Wind Generation [TW]: 0.000048959141307; TW: 0.00" role="graphics-symbol" aria-roledescription="line mark" d="M0,299.967L23.076,299.954L46.151,299.922L69.29,299.388L92.366,299.165L115.441,299.047L138.517,298.937L161.656,298.723L184.731,298.325L207.807,298.176L230.882,297.859L254.021,297.238L277.097,296.339L300.172,295.15L323.248,292.876L346.387,291.164L369.462,288.043L392.538,285.443L415.613,281.106L438.752,276.767L461.828,270.501L484.903,262.259L507.979,251.378L531.118,239.571L554.193,225.685L577.269,205.391L600.344,188.696L623.483,162.529L646.559,147.34L669.634,127.22L692.71,102.313L715.849,67.494L738.924,41.427L762,16.66" stroke="dodgerblue" stroke-width="2"></path></g><g class="mark-symbol role-mark layer_1_marks" role="graphics-object" aria-roledescription="symbol mark container"><path aria-label="year: 1986; Wind Generation [TW]: 0.000048959141307; TW: 0.00" role="graphics-symbol" aria-roledescription="point" transform="translate(0,299.967360572462)" d="M2.739,0A2.739,2.739,0,1,1,-2.739,0A2.739,2.739,0,1,1,2.739,0" fill="dodgerblue" stroke-width="2" opacity="0.7"></path><path aria-label="year: 1987; Wind Generation [TW]: 0.0000691448843572; TW: 0.00" role="graphics-symbol" aria-roledescription="point" transform="translate(23.075582842445865,299.95390341042855)" d="M2.739,0A2.739,2.739,0,1,1,-2.739,0A2.739,2.739,0,1,1,2.739,0" fill="dodgerblue" stroke-width="2" opacity="0.7"></path><path aria-label="year: 1988; Wind Generation [TW]: 0.000116963230139; TW: 0.00" role="graphics-symbol" aria-roledescription="point" transform="translate(46.15116568489173,299.9220245132409)" d="M2.739,0A2.739,2.739,0,1,1,-2.739,0A2.739,2.739,0,1,1,2.739,0" fill="dodgerblue" stroke-width="2" opacity="0.7"></path><path aria-label="year: 1989; Wind Generation [TW]: 0.000918657285754; TW: 0.00" role="graphics-symbol" aria-roledescription="point" transform="translate(69.28996930224841,299.38756180949736)" d="M2.739,0A2.739,2.739,0,1,1,-2.739,0A2.739,2.739,0,1,1,2.739,0" fill="dodgerblue" stroke-width="2" opacity="0.7"></path><path aria-label="year: 1990; Wind Generation [TW]: 0.0012532272624; TW: 0.00" role="graphics-symbol" aria-roledescription="point" transform="translate(92.36555214469426,299.16451515839947)" d="M2.739,0A2.739,2.739,0,1,1,-2.739,0A2.739,2.739,0,1,1,2.739,0" fill="dodgerblue" stroke-width="2" opacity="0.7"></path><path aria-label="year: 1991; Wind Generation [TW]: 0.00142948017111; TW: 0.00" role="graphics-symbol" aria-roledescription="point" transform="translate(115.44113498714013,299.0470132192627)" d="M2.739,0A2.739,2.739,0,1,1,-2.739,0A2.739,2.739,0,1,1,2.739,0" fill="dodgerblue" stroke-width="2" opacity="0.7"></path><path aria-label="year: 1992; Wind Generation [TW]: 0.00159480045602; TW: 0.00" role="graphics-symbol" aria-roledescription="point" transform="translate(138.51671782958599,298.93679969598384)" d="M2.739,0A2.739,2.739,0,1,1,-2.739,0A2.739,2.739,0,1,1,2.739,0" fill="dodgerblue" stroke-width="2" opacity="0.7"></path><path aria-label="year: 1993; Wind Generation [TW]: 0.00191561750883; TW: 0.00" role="graphics-symbol" aria-roledescription="point" transform="translate(161.65552144694266,298.72292166077693)" d="M2.739,0A2.739,2.739,0,1,1,-2.739,0A2.739,2.739,0,1,1,2.739,0" fill="dodgerblue" stroke-width="2" opacity="0.7"></path><path aria-label="year: 1994; Wind Generation [TW]: 0.00251238032378; TW: 0.00" role="graphics-symbol" aria-roledescription="point" transform="translate(184.73110428938853,298.3250797841455)" d="M2.739,0A2.739,2.739,0,1,1,-2.739,0A2.739,2.739,0,1,1,2.739,0" fill="dodgerblue" stroke-width="2" opacity="0.7"></path><path aria-label="year: 1995; Wind Generation [TW]: 0.00273588118051; TW: 0.00" role="graphics-symbol" aria-roledescription="point" transform="translate(207.80668713183442,298.1760792129963)" d="M2.739,0A2.739,2.739,0,1,1,-2.739,0A2.739,2.739,0,1,1,2.739,0" fill="dodgerblue" stroke-width="2" opacity="0.7"></path><path aria-label="year: 1996; Wind Generation [TW]: 0.00321108589445; TW: 0.00" role="graphics-symbol" aria-roledescription="point" transform="translate(230.88226997428026,297.85927607036854)" d="M2.739,0A2.739,2.739,0,1,1,-2.739,0A2.739,2.739,0,1,1,2.739,0" fill="dodgerblue" stroke-width="2" opacity="0.7"></path><path aria-label="year: 1997; Wind Generation [TW]: 0.00414343272651; TW: 0.00" role="graphics-symbol" aria-roledescription="point" transform="translate(254.02107359163693,297.2377115156611)" d="M2.739,0A2.739,2.739,0,1,1,-2.739,0A2.739,2.739,0,1,1,2.739,0" fill="dodgerblue" stroke-width="2" opacity="0.7"></path><path aria-label="year: 1998; Wind Generation [TW]: 0.00549144108383; TW: 0.01" role="graphics-symbol" aria-roledescription="point" transform="translate(277.09665643408283,296.33903927744814)" d="M2.739,0A2.739,2.739,0,1,1,-2.739,0A2.739,2.739,0,1,1,2.739,0" fill="dodgerblue" stroke-width="2" opacity="0.7"></path><path aria-label="year: 1999; Wind Generation [TW]: 0.00727434604652; TW: 0.01" role="graphics-symbol" aria-roledescription="point" transform="translate(300.17223927652867,295.1504359689883)" d="M2.739,0A2.739,2.739,0,1,1,-2.739,0A2.739,2.739,0,1,1,2.739,0" fill="dodgerblue" stroke-width="2" opacity="0.7"></path><path aria-label="year: 2000; Wind Generation [TW]: 0.0106860218209; TW: 0.01" role="graphics-symbol" aria-roledescription="point" transform="translate(323.2478221189745,292.87598545274477)" d="M2.739,0A2.739,2.739,0,1,1,-2.739,0A2.739,2.739,0,1,1,2.739,0" fill="dodgerblue" stroke-width="2" opacity="0.7"></path><path aria-label="year: 2001; Wind Generation [TW]: 0.0132543328142; TW: 0.01" role="graphics-symbol" aria-roledescription="point" transform="translate(346.3866257363312,291.1637781238776)" d="M2.739,0A2.739,2.739,0,1,1,-2.739,0A2.739,2.739,0,1,1,2.739,0" fill="dodgerblue" stroke-width="2" opacity="0.7"></path><path aria-label="year: 2002; Wind Generation [TW]: 0.0179359041411; TW: 0.02" role="graphics-symbol" aria-roledescription="point" transform="translate(369.46220857877705,288.0427305725805)" d="M2.739,0A2.739,2.739,0,1,1,-2.739,0A2.739,2.739,0,1,1,2.739,0" fill="dodgerblue" stroke-width="2" opacity="0.7"></path><path aria-label="year: 2003; Wind Generation [TW]: 0.0218358087117; TW: 0.02" role="graphics-symbol" aria-roledescription="point" transform="translate(392.53779142122295,285.44279419220896)" d="M2.739,0A2.739,2.739,0,1,1,-2.739,0A2.739,2.739,0,1,1,2.739,0" fill="dodgerblue" stroke-width="2" opacity="0.7"></path><path aria-label="year: 2004; Wind Generation [TW]: 0.0283417339054; TW: 0.03" role="graphics-symbol" aria-roledescription="point" transform="translate(415.61337426366885,281.1055107297208)" d="M2.739,0A2.739,2.739,0,1,1,-2.739,0A2.739,2.739,0,1,1,2.739,0" fill="dodgerblue" stroke-width="2" opacity="0.7"></path><path aria-label="year: 2005; Wind Generation [TW]: 0.0348501625116; TW: 0.03" role="graphics-symbol" aria-roledescription="point" transform="translate(438.75217788102543,276.7665583256304)" d="M2.739,0A2.739,2.739,0,1,1,-2.739,0A2.739,2.739,0,1,1,2.739,0" fill="dodgerblue" stroke-width="2" opacity="0.7"></path><path aria-label="year: 2006; Wind Generation [TW]: 0.0442481311177; TW: 0.04" role="graphics-symbol" aria-roledescription="point" transform="translate(461.8277607234714,270.50124592150604)" d="M2.739,0A2.739,2.739,0,1,1,-2.739,0A2.739,2.739,0,1,1,2.739,0" fill="dodgerblue" stroke-width="2" opacity="0.7"></path><path aria-label="year: 2007; Wind Generation [TW]: 0.0566115343152; TW: 0.06" role="graphics-symbol" aria-roledescription="point" transform="translate(484.9033435659172,262.25897712320295)" d="M2.739,0A2.739,2.739,0,1,1,-2.739,0A2.739,2.739,0,1,1,2.739,0" fill="dodgerblue" stroke-width="2" opacity="0.7"></path><path aria-label="year: 2008; Wind Generation [TW]: 0.0729329275887; TW: 0.07" role="graphics-symbol" aria-roledescription="point" transform="translate(507.97892640836307,251.37804827418705)" d="M2.739,0A2.739,2.739,0,1,1,-2.739,0A2.739,2.739,0,1,1,2.739,0" fill="dodgerblue" stroke-width="2" opacity="0.7"></path><path aria-label="year: 2009; Wind Generation [TW]: 0.0906437781237; TW: 0.09" role="graphics-symbol" aria-roledescription="point" transform="translate(531.1177300257198,239.57081458422707)" d="M2.739,0A2.739,2.739,0,1,1,-2.739,0A2.739,2.739,0,1,1,2.739,0" fill="dodgerblue" stroke-width="2" opacity="0.7"></path><path aria-label="year: 2010; Wind Generation [TW]: 0.111471820744; TW: 0.11" role="graphics-symbol" aria-roledescription="point" transform="translate(554.1933128681657,225.68545283764215)" d="M2.739,0A2.739,2.739,0,1,1,-2.739,0A2.739,2.739,0,1,1,2.739,0" fill="dodgerblue" stroke-width="2" opacity="0.7"></path><path aria-label="year: 2011; Wind Generation [TW]: 0.141913759212; TW: 0.14" role="graphics-symbol" aria-roledescription="point" transform="translate(577.2688957106114,205.39082719227653)" d="M2.739,0A2.739,2.739,0,1,1,-2.739,0A2.739,2.739,0,1,1,2.739,0" fill="dodgerblue" stroke-width="2" opacity="0.7"></path><path aria-label="year: 2012; Wind Generation [TW]: 0.166956534278; TW: 0.17" role="graphics-symbol" aria-roledescription="point" transform="translate(600.3444785530573,188.6956438144527)" d="M2.739,0A2.739,2.739,0,1,1,-2.739,0A2.739,2.739,0,1,1,2.739,0" fill="dodgerblue" stroke-width="2" opacity="0.7"></path><path aria-label="year: 2013; Wind Generation [TW]: 0.206205826158; TW: 0.21" role="graphics-symbol" aria-roledescription="point" transform="translate(623.483282170414,162.52944922803923)" d="M2.739,0A2.739,2.739,0,1,1,-2.739,0A2.739,2.739,0,1,1,2.739,0" fill="dodgerblue" stroke-width="2" opacity="0.7"></path><path aria-label="year: 2014; Wind Generation [TW]: 0.228990396482; TW: 0.23" role="graphics-symbol" aria-roledescription="point" transform="translate(646.5588650128599,147.33973567883214)" d="M2.739,0A2.739,2.739,0,1,1,-2.739,0A2.739,2.739,0,1,1,2.739,0" fill="dodgerblue" stroke-width="2" opacity="0.7"></path><path aria-label="year: 2015; Wind Generation [TW]: 0.25916966678; TW: 0.26" role="graphics-symbol" aria-roledescription="point" transform="translate(669.6344478553058,127.22022214664615)" d="M2.739,0A2.739,2.739,0,1,1,-2.739,0A2.739,2.739,0,1,1,2.739,0" fill="dodgerblue" stroke-width="2" opacity="0.7"></path><path aria-label="year: 2016; Wind Generation [TW]: 0.296529959713; TW: 0.30" role="graphics-symbol" aria-roledescription="point" transform="translate(692.7100306977516,102.31336019127974)" d="M2.739,0A2.739,2.739,0,1,1,-2.739,0A2.739,2.739,0,1,1,2.739,0" fill="dodgerblue" stroke-width="2" opacity="0.7"></path><path aria-label="year: 2017; Wind Generation [TW]: 0.348758969573; TW: 0.35" role="graphics-symbol" aria-roledescription="point" transform="translate(715.8488343151083,67.49402028475963)" d="M2.739,0A2.739,2.739,0,1,1,-2.739,0A2.739,2.739,0,1,1,2.739,0" fill="dodgerblue" stroke-width="2" opacity="0.7"></path><path aria-label="year: 2018; Wind Generation [TW]: 0.387859609458; TW: 0.39" role="graphics-symbol" aria-roledescription="point" transform="translate(738.9244171575541,41.4269270281719)" d="M2.739,0A2.739,2.739,0,1,1,-2.739,0A2.739,2.739,0,1,1,2.739,0" fill="dodgerblue" stroke-width="2" opacity="0.7"></path><path aria-label="year: 2019; Wind Generation [TW]: 0.425010186147; TW: 0.43" role="graphics-symbol" aria-roledescription="point" transform="translate(762,16.659875902220644)" d="M2.739,0A2.739,2.739,0,1,1,-2.739,0A2.739,2.739,0,1,1,2.739,0" fill="dodgerblue" stroke-width="2" opacity="0.7"></path></g></g><path class="foreground" aria-hidden="true" d="" display="none"></path></g></g></g></svg>