<svg xmlns="http://www.w3.org/2000/svg" xmlns:xlink="http://www.w3.org/1999/xlink" version="1.1" class="marks" width="848" height="647" viewBox="0 0 848 647" style="background-color: white;"><g fill="none" stroke-miterlimit="10" transform="translate(42,10)"><g class="mark-group role-frame root" role="graphics-object" aria-roledescription="group mark container"><g transform="translate(0,0)"><path class="background" aria-hidden="true" d="M0.5,0.5h800v600h-800Z" fill="transparent" stroke="#ddd"></path><g><g class="mark-group role-axis" aria-hidden="true"><g transform="translate(0.5,600.5)"><path class="background" aria-hidden="true" d="M0,0h0v0h0Z" pointer-events="none"></path><g><g class="mark-rule role-axis-grid" pointer-events="none"><line transform="translate(22,-600)" x2="0" y2="600" stroke="#ddd" stroke-width="1" opacity="1"></line><line transform="translate(44,-600)" x2="0" y2="600" stroke="#ddd" stroke-width="1" opacity="1"></line><line transform="translate(66,-600)" x2="0" y2="600" stroke="#ddd" stroke-width="1" opacity="1"></line><line transform="translate(89,-600)" x2="0" y2="600" stroke="#ddd" stroke-width="1" opacity="1"></line><line transform="translate(111,-600)" x2="0" y2="600" stroke="#ddd" stroke-width="1" opacity="1"></line><line transform="translate(133,-600)" x2="0" y2="600" stroke="#ddd" stroke-width="1" opacity="1"></line><line transform="translate(155,-600)" x2="0" y2="600" stroke="#ddd" stroke-width="1" opacity="1"></line><line transform="translate(178,-600)" x2="0" y2="600" stroke="#ddd" stroke-width="1" opacity="1"></line><line transform="translate(200,-600)" x2="0" y2="600" stroke="#ddd" stroke-width="1" opacity="1"></line><line transform="translate(222,-600)" x2="0" y2="600" stroke="#ddd" stroke-width="1" opacity="1"></line><line transform="translate(244,-600)" x2="0" y2="600" stroke="#ddd" stroke-width="1" opacity="1"></line><line transform="translate(267,-600)" x2="0" y2="600" stroke="#ddd" stroke-width="1" opacity="1"></line><line transform="translate(289,-600)" x2="0" y2="600" stroke="#ddd" stroke-width="1" opacity="1"></line><line transform="translate(311,-600)" x2="0" y2="600" stroke="#ddd" stroke-width="1" opacity="1"></line><line transform="translate(333,-600)" x2="0" y2="600" stroke="#ddd" stroke-width="1" opacity="1"></line><line transform="translate(356,-600)" x2="0" y2="600" stroke="#ddd" stroke-width="1" opacity="1"></line><line transform="translate(377,-600)" x2="0" y2="600" stroke="#ddd" stroke-width="1" opacity="1"></line><line transform="translate(400,-600)" x2="0" y2="600" stroke="#ddd" stroke-width="1" opacity="1"></line><line transform="translate(422,-600)" x2="0" y2="600" stroke="#ddd" stroke-width="1" opacity="1"></line><line transform="translate(444,-600)" x2="0" y2="600" stroke="#ddd" stroke-width="1" opacity="1"></line><line transform="translate(466,-600)" x2="0" y2="600" stroke="#ddd" stroke-width="1" opacity="1"></line><line transform="translate(488,-600)" x2="0" y2="600" stroke="#ddd" stroke-width="1" opacity="1"></line><line transform="translate(511,-600)" x2="0" y2="600" stroke="#ddd" stroke-width="1" opacity="1"></line><line transform="translate(533,-600)" x2="0" y2="600" stroke="#ddd" stroke-width="1" opacity="1"></line><line transform="translate(555,-600)" x2="0" y2="600" stroke="#ddd" stroke-width="1" opacity="1"></line><line transform="translate(577,-600)" x2="0" y2="600" stroke="#ddd" stroke-width="1" opacity="1"></line><line transform="translate(600,-600)" x2="0" y2="600" stroke="#ddd" stroke-width="1" opacity="1"></line><line transform="translate(622,-600)" x2="0" y2="600" stroke="#ddd" stroke-width="1" opacity="1"></line><line transform="translate(644,-600)" x2="0" y2="600" stroke="#ddd" stroke-width="1" opacity="1"></line><line transform="translate(666,-600)" x2="0" y2="600" stroke="#ddd" stroke-width="1" opacity="1"></line><line transform="translate(689,-600)" x2="0" y2="600" stroke="#ddd" stroke-width="1" opacity="1"></line><line transform="translate(711,-600)" x2="0" y2="600" stroke="#ddd" stroke-width="1" opacity="1"></line><line transform="translate(733,-600)" x2="0" y2="600" stroke="#ddd" stroke-width="1" opacity="1"></line><line transform="translate(755,-600)" x2="0" y2="600" stroke="#ddd" stroke-width="1" opacity="1"></line><line transform="translate(778,-600)" x2="0" y2="600" stroke="#ddd" stroke-width="1" opacity="1"></line><line transform="translate(800,-600)" x2="0" y2="600" stroke="#ddd" stroke-width="1" opacity="1"></line></g></g><path class="foreground" aria-hidden="true" d="" pointer-events="none" display="none"></path></g></g><g class="mark-group role-axis" aria-hidden="true"><g transform="translate(0.5,0.5)"><path class="background" aria-hidden="true" d="M0,0h0v0h0Z" pointer-events="none"></path><g><g class="mark-rule role-axis-grid" pointer-events="none"><line transform="translate(0,600)" x2="800" y2="0" stroke="#ddd" stroke-width="1" opacity="1"></line><line transform="translate(0,567)" x2="800" y2="0" stroke="#ddd" stroke-width="1" opacity="1"></line><line transform="translate(0,533)" x2="800" y2="0" stroke="#ddd" stroke-width="1" opacity="1"></line><line transform="translate(0,500)" x2="800" y2="0" stroke="#ddd" stroke-width="1" opacity="1"></line><line transform="translate(0,467)" x2="800" y2="0" stroke="#ddd" stroke-width="1" opacity="1"></line><line transform="translate(0,433)" x2="800" y2="0" stroke="#ddd" stroke-width="1" opacity="1"></line><line transform="translate(0,400)" x2="800" y2="0" stroke="#ddd" stroke-width="1" opacity="1"></line><line transform="translate(0,367)" x2="800" y2="0" stroke="#ddd" stroke-width="1" opacity="1"></line><line transform="translate(0,333)" x2="800" y2="0" stroke="#ddd" stroke-width="1" opacity="1"></line><line transform="translate(0,300)" x2="800" y2="0" stroke="#ddd" stroke-width="1" opacity="1"></line><line transform="translate(0,267)" x2="800" y2="0" stroke="#ddd" stroke-width="1" opacity="1"></line><line transform="translate(0,233)" x2="800" y2="0" stroke="#ddd" stroke-width="1" opacity="1"></line><line transform="translate(0,200)" x2="800" y2="0" stroke="#ddd" stroke-width="1" opacity="1"></line><line transform="translate(0,167)" x2="800" y2="0" stroke="#ddd" stroke-width="1" opacity="1"></line><line transform="translate(0,133)" x2="800" y2="0" stroke="#ddd" stroke-width="1" opacity="1"></line><line transform="translate(0,100)" x2="800" y2="0" stroke="#ddd" stroke-width="1" opacity="1"></line><line transform="translate(0,67)" x2="800" y2="0" stroke="#ddd" stroke-width="1" opacity="1"></line><line transform="translate(0,33)" x2="800" y2="0" stroke="#ddd" stroke-width="1" opacity="1"></line><line transform="translate(0,0)" x2="800" y2="0" stroke="#ddd" stroke-width="1" opacity="1"></line></g></g><path class="foreground" aria-hidden="true" d="" pointer-events="none" display="none"></path></g></g><g class="mark-group role-axis" role="graphics-symbol" aria-roledescription="axis" aria-label="X-axis titled 'datetime' for a time scale with values from Wednesday, 01 January 2014, 8:00:00 AM to Sunday, 01 January 2023, 8:00:00 AM"><g transform="translate(0.5,600.5)"><path class="background" aria-hidden="true" d="M0,0h0v0h0Z" pointer-events="none"></path><g><g class="mark-rule role-axis-tick" pointer-events="none"><line transform="translate(22,0)" x2="0" y2="5" stroke="#888" stroke-width="1" opacity="1"></line><line transform="translate(44,0)" x2="0" y2="5" stroke="#888" stroke-width="1" opacity="1"></line><line transform="translate(66,0)" x2="0" y2="5" stroke="#888" stroke-width="1" opacity="1"></line><line transform="translate(89,0)" x2="0" y2="5" stroke="#888" stroke-width="1" opacity="1"></line><line transform="translate(111,0)" x2="0" y2="5" stroke="#888" stroke-width="1" opacity="1"></line><line transform="translate(133,0)" x2="0" y2="5" stroke="#888" stroke-width="1" opacity="1"></line><line transform="translate(155,0)" x2="0" y2="5" stroke="#888" stroke-width="1" opacity="1"></line><line transform="translate(178,0)" x2="0" y2="5" stroke="#888" stroke-width="1" opacity="1"></line><line transform="translate(200,0)" x2="0" y2="5" stroke="#888" stroke-width="1" opacity="1"></line><line transform="translate(222,0)" x2="0" y2="5" stroke="#888" stroke-width="1" opacity="1"></line><line transform="translate(244,0)" x2="0" y2="5" stroke="#888" stroke-width="1" opacity="1"></line><line transform="translate(267,0)" x2="0" y2="5" stroke="#888" stroke-width="1" opacity="1"></line><line transform="translate(289,0)" x2="0" y2="5" stroke="#888" stroke-width="1" opacity="1"></line><line transform="translate(311,0)" x2="0" y2="5" stroke="#888" stroke-width="1" opacity="1"></line><line transform="translate(333,0)" x2="0" y2="5" stroke="#888" stroke-width="1" opacity="1"></line><line transform="translate(356,0)" x2="0" y2="5" stroke="#888" stroke-width="1" opacity="1"></line><line transform="translate(377,0)" x2="0" y2="5" stroke="#888" stroke-width="1" opacity="1"></line><line transform="translate(400,0)" x2="0" y2="5" stroke="#888" stroke-width="1" opacity="1"></line><line transform="translate(422,0)" x2="0" y2="5" stroke="#888" stroke-width="1" opacity="1"></line><line transform="translate(444,0)" x2="0" y2="5" stroke="#888" stroke-width="1" opacity="1"></line><line transform="translate(466,0)" x2="0" y2="5" stroke="#888" stroke-width="1" opacity="1"></line><line transform="translate(488,0)" x2="0" y2="5" stroke="#888" stroke-width="1" opacity="1"></line><line transform="translate(511,0)" x2="0" y2="5" stroke="#888" stroke-width="1" opacity="1"></line><line transform="translate(533,0)" x2="0" y2="5" stroke="#888" stroke-width="1" opacity="1"></line><line transform="translate(555,0)" x2="0" y2="5" stroke="#888" stroke-width="1" opacity="1"></line><line transform="translate(577,0)" x2="0" y2="5" stroke="#888" stroke-width="1" opacity="1"></line><line transform="translate(600,0)" x2="0" y2="5" stroke="#888" stroke-width="1" opacity="1"></line><line transform="translate(622,0)" x2="0" y2="5" stroke="#888" stroke-width="1" opacity="1"></line><line transform="translate(644,0)" x2="0" y2="5" stroke="#888" stroke-width="1" opacity="1"></line><line transform="translate(666,0)" x2="0" y2="5" stroke="#888" stroke-width="1" opacity="1"></line><line transform="translate(689,0)" x2="0" y2="5" stroke="#888" stroke-width="1" opacity="1"></line><line transform="translate(711,0)" x2="0" y2="5" stroke="#888" stroke-width="1" opacity="1"></line><line transform="translate(733,0)" x2="0" y2="5" stroke="#888" stroke-width="1" opacity="1"></line><line transform="translate(755,0)" x2="0" y2="5" stroke="#888" stroke-width="1" opacity="1"></line><line transform="translate(778,0)" x2="0" y2="5" stroke="#888" stroke-width="1" opacity="1"></line><line transform="translate(800,0)" x2="0" y2="5" stroke="#888" stroke-width="1" opacity="1"></line></g><g class="mark-text role-axis-label" pointer-events="none"><text text-anchor="middle" transform="translate(21.823344488388603,15)" font-family="sans-serif" font-size="10px" fill="#000" opacity="1">April</text><text text-anchor="middle" transform="translate(43.9711996754893,15)" font-family="sans-serif" font-size="10px" fill="#000" opacity="0">July</text><text text-anchor="middle" transform="translate(66.36243788662406,15)" font-family="sans-serif" font-size="10px" fill="#000" opacity="1">October</text><text text-anchor="middle" transform="translate(88.75367609775886,15)" font-family="sans-serif" font-size="10px" fill="#000" opacity="0">2015</text><text text-anchor="middle" transform="translate(110.65814826082547,15)" font-family="sans-serif" font-size="10px" fill="#000" opacity="1">April</text><text text-anchor="middle" transform="translate(132.80600344792617,15)" font-family="sans-serif" font-size="10px" fill="#000" opacity="0">July</text><text text-anchor="middle" transform="translate(155.19724165906095,15)" font-family="sans-serif" font-size="10px" fill="#000" opacity="1">October</text><text text-anchor="middle" transform="translate(177.58847987019573,15)" font-family="sans-serif" font-size="10px" fill="#000" opacity="0">2016</text><text text-anchor="middle" transform="translate(199.73633505729643,15)" font-family="sans-serif" font-size="10px" fill="#000" opacity="1">April</text><text text-anchor="middle" transform="translate(221.88419024439713,15)" font-family="sans-serif" font-size="10px" fill="#000" opacity="0">July</text><text text-anchor="middle" transform="translate(244.27542845553188,15)" font-family="sans-serif" font-size="10px" fill="#000" opacity="1">October</text><text text-anchor="middle" transform="translate(266.66666666666663,15)" font-family="sans-serif" font-size="10px" fill="#000" opacity="0">2017</text><text text-anchor="middle" transform="translate(288.5711388297333,15)" font-family="sans-serif" font-size="10px" fill="#000" opacity="1">April</text><text text-anchor="middle" transform="translate(310.718994016834,15)" font-family="sans-serif" font-size="10px" fill="#000" opacity="0">July</text><text text-anchor="middle" transform="translate(333.11023222796877,15)" font-family="sans-serif" font-size="10px" fill="#000" opacity="1">October</text><text text-anchor="middle" transform="translate(355.5014704391035,15)" font-family="sans-serif" font-size="10px" fill="#000" opacity="0">2018</text><text text-anchor="middle" transform="translate(377.40594260217017,15)" font-family="sans-serif" font-size="10px" fill="#000" opacity="1">April</text><text text-anchor="middle" transform="translate(399.55379778927085,15)" font-family="sans-serif" font-size="10px" fill="#000" opacity="0">July</text><text text-anchor="middle" transform="translate(421.9450360004056,15)" font-family="sans-serif" font-size="10px" fill="#000" opacity="1">October</text><text text-anchor="middle" transform="translate(444.3362742115404,15)" font-family="sans-serif" font-size="10px" fill="#000" opacity="0">2019</text><text text-anchor="middle" transform="translate(466.240746374607,15)" font-family="sans-serif" font-size="10px" fill="#000" opacity="1">April</text><text text-anchor="middle" transform="translate(488.3886015617078,15)" font-family="sans-serif" font-size="10px" fill="#000" opacity="0">July</text><text text-anchor="middle" transform="translate(510.77983977284254,15)" font-family="sans-serif" font-size="10px" fill="#000" opacity="1">October</text><text text-anchor="middle" transform="translate(533.1710779839773,15)" font-family="sans-serif" font-size="10px" fill="#000" opacity="0">2020</text><text text-anchor="middle" transform="translate(555.3189331710779,15)" font-family="sans-serif" font-size="10px" fill="#000" opacity="1">April</text><text text-anchor="middle" transform="translate(577.4667883581786,15)" font-family="sans-serif" font-size="10px" fill="#000" opacity="0">July</text><text text-anchor="middle" transform="translate(599.8580265693134,15)" font-family="sans-serif" font-size="10px" fill="#000" opacity="1">October</text><text text-anchor="middle" transform="translate(622.2492647804482,15)" font-family="sans-serif" font-size="10px" fill="#000" opacity="0">2021</text><text text-anchor="middle" transform="translate(644.1537369435149,15)" font-family="sans-serif" font-size="10px" fill="#000" opacity="1">April</text><text text-anchor="middle" transform="translate(666.3015921306155,15)" font-family="sans-serif" font-size="10px" fill="#000" opacity="0">July</text><text text-anchor="middle" transform="translate(688.6928303417503,15)" font-family="sans-serif" font-size="10px" fill="#000" opacity="1">October</text><text text-anchor="middle" transform="translate(711.0840685528851,15)" font-family="sans-serif" font-size="10px" fill="#000" opacity="0">2022</text><text text-anchor="middle" transform="translate(732.9885407159518,15)" font-family="sans-serif" font-size="10px" fill="#000" opacity="1">April</text><text text-anchor="middle" transform="translate(755.1363959030525,15)" font-family="sans-serif" font-size="10px" fill="#000" opacity="0">July</text><text text-anchor="middle" transform="translate(777.5276341141872,15)" font-family="sans-serif" font-size="10px" fill="#000" opacity="1">October</text><text text-anchor="end" transform="translate(799.918872325322,15)" font-family="sans-serif" font-size="10px" fill="#000" opacity="0">2023</text></g><g class="mark-rule role-axis-domain" pointer-events="none"><line transform="translate(0,0)" x2="800" y2="0" stroke="#888" stroke-width="1" opacity="1"></line></g><g class="mark-text role-axis-title" pointer-events="none"><text text-anchor="middle" transform="translate(400,30)" font-family="sans-serif" font-size="11px" font-weight="bold" fill="#000" opacity="1">datetime</text></g></g><path class="foreground" aria-hidden="true" d="" pointer-events="none" display="none"></path></g></g><g class="mark-group role-axis" role="graphics-symbol" aria-roledescription="axis" aria-label="Y-axis titled 'SNWD' for a linear scale with values from 0.0 to 1.8"><g transform="translate(0.5,0.5)"><path class="background" aria-hidden="true" d="M0,0h0v0h0Z" pointer-events="none"></path><g><g class="mark-rule role-axis-tick" pointer-events="none"><line transform="translate(0,600)" x2="-5" y2="0" stroke="#888" stroke-width="1" opacity="1"></line><line transform="translate(0,567)" x2="-5" y2="0" stroke="#888" stroke-width="1" opacity="1"></line><line transform="translate(0,533)" x2="-5" y2="0" stroke="#888" stroke-width="1" opacity="1"></line><line transform="translate(0,500)" x2="-5" y2="0" stroke="#888" stroke-width="1" opacity="1"></line><line transform="translate(0,467)" x2="-5" y2="0" stroke="#888" stroke-width="1" opacity="1"></line><line transform="translate(0,433)" x2="-5" y2="0" stroke="#888" stroke-width="1" opacity="1"></line><line transform="translate(0,400)" x2="-5" y2="0" stroke="#888" stroke-width="1" opacity="1"></line><line transform="translate(0,367)" x2="-5" y2="0" stroke="#888" stroke-width="1" opacity="1"></line><line transform="translate(0,333)" x2="-5" y2="0" stroke="#888" stroke-width="1" opacity="1"></line><line transform="translate(0,300)" x2="-5" y2="0" stroke="#888" stroke-width="1" opacity="1"></line><line transform="translate(0,267)" x2="-5" y2="0" stroke="#888" stroke-width="1" opacity="1"></line><line transform="translate(0,233)" x2="-5" y2="0" stroke="#888" stroke-width="1" opacity="1"></line><line transform="translate(0,200)" x2="-5" y2="0" stroke="#888" stroke-width="1" opacity="1"></line><line transform="translate(0,167)" x2="-5" y2="0" stroke="#888" stroke-width="1" opacity="1"></line><line transform="translate(0,133)" x2="-5" y2="0" stroke="#888" stroke-width="1" opacity="1"></line><line transform="translate(0,100)" x2="-5" y2="0" stroke="#888" stroke-width="1" opacity="1"></line><line transform="translate(0,67)" x2="-5" y2="0" stroke="#888" stroke-width="1" opacity="1"></line><line transform="translate(0,33)" x2="-5" y2="0" stroke="#888" stroke-width="1" opacity="1"></line><line transform="translate(0,0)" x2="-5" y2="0" stroke="#888" stroke-width="1" opacity="1"></line></g><g class="mark-text role-axis-label" pointer-events="none"><text text-anchor="end" transform="translate(-7,603)" font-family="sans-serif" font-size="10px" fill="#000" opacity="1">0.0</text><text text-anchor="end" transform="translate(-7,569.6666666666666)" font-family="sans-serif" font-size="10px" fill="#000" opacity="1">0.1</text><text text-anchor="end" transform="translate(-7,536.3333333333333)" font-family="sans-serif" font-size="10px" fill="#000" opacity="1">0.2</text><text text-anchor="end" transform="translate(-7,503)" font-family="sans-serif" font-size="10px" fill="#000" opacity="1">0.3</text><text text-anchor="end" transform="translate(-7,469.6666666666667)" font-family="sans-serif" font-size="10px" fill="#000" opacity="1">0.4</text><text text-anchor="end" transform="translate(-7,436.3333333333333)" font-family="sans-serif" font-size="10px" fill="#000" opacity="1">0.5</text><text text-anchor="end" transform="translate(-7,403.00000000000006)" font-family="sans-serif" font-size="10px" fill="#000" opacity="1">0.6</text><text text-anchor="end" transform="translate(-7,369.6666666666667)" font-family="sans-serif" font-size="10px" fill="#000" opacity="1">0.7</text><text text-anchor="end" transform="translate(-7,336.33333333333337)" font-family="sans-serif" font-size="10px" fill="#000" opacity="1">0.8</text><text text-anchor="end" transform="translate(-7,303)" font-family="sans-serif" font-size="10px" fill="#000" opacity="1">0.9</text><text text-anchor="end" transform="translate(-7,269.66666666666663)" font-family="sans-serif" font-size="10px" fill="#000" opacity="1">1.0</text><text text-anchor="end" transform="translate(-7,236.33333333333331)" font-family="sans-serif" font-size="10px" fill="#000" opacity="1">1.1</text><text text-anchor="end" transform="translate(-7,203.00000000000003)" font-family="sans-serif" font-size="10px" fill="#000" opacity="1">1.2</text><text text-anchor="end" transform="translate(-7,169.66666666666669)" font-family="sans-serif" font-size="10px" fill="#000" opacity="1">1.3</text><text text-anchor="end" transform="translate(-7,136.3333333333334)" font-family="sans-serif" font-size="10px" fill="#000" opacity="1">1.4</text><text text-anchor="end" transform="translate(-7,103.00000000000004)" font-family="sans-serif" font-size="10px" fill="#000" opacity="1">1.5</text><text text-anchor="end" transform="translate(-7,69.66666666666663)" font-family="sans-serif" font-size="10px" fill="#000" opacity="1">1.6</text><text text-anchor="end" transform="translate(-7,36.33333333333335)" font-family="sans-serif" font-size="10px" fill="#000" opacity="1">1.7</text><text text-anchor="end" transform="translate(-7,3)" font-family="sans-serif" font-size="10px" fill="#000" opacity="1">1.8</text></g><g class="mark-rule role-axis-domain" pointer-events="none"><line transform="translate(0,600)" x2="0" y2="-600" stroke="#888" stroke-width="1" opacity="1"></line></g><g class="mark-text role-axis-title" pointer-events="none"><text text-anchor="middle" transform="translate(-25.1357421875,300) rotate(-90) translate(0,-2)" font-family="sans-serif" font-size="11px" font-weight="bold" fill="#000" opacity="1">SNWD</text></g></g><path class="foreground" aria-hidden="true" d="" pointer-events="none" display="none"></path></g></g><g class="mark-line role-mark marks" role="graphics-object" aria-roledescription="line mark container" clip-path="url(#clip1)"><path aria-label="datetime: Jan 01, 2014; SNWD: 0.0254" role="graphics-symbol" aria-roledescription="line mark" d="M0,591.533L0.243,583.067L0.487,583.067L0.73,583.067L0.974,583.067L1.217,583.067L1.46,583.067L1.704,583.067L1.947,591.533L2.19,583.067L2.434,583.067L2.677,583.067L2.921,583.067L3.164,583.067L3.407,583.067L3.651,583.067L3.894,583.067L4.138,583.067L4.381,583.067L4.624,583.067L4.868,583.067L5.111,583.067L5.354,583.067L5.598,583.067L5.841,591.533L6.085,591.533L6.328,591.533L6.571,591.533L6.815,600L7.058,600L7.301,600L7.545,600L7.788,600L8.032,600L8.275,600L8.518,600L8.762,600L9.005,600L9.249,557.667L9.492,566.133L9.735,523.8L9.979,532.267L10.222,549.2L10.465,557.667L10.709,566.133L10.952,591.533L11.196,574.6L11.439,566.133L11.682,566.133L11.926,566.133L12.169,557.667L12.413,566.133L12.656,566.133L12.899,566.133L13.143,574.6L13.386,574.6L13.629,583.067L13.873,583.067L14.116,591.533L14.36,566.133L14.603,566.133L14.846,566.133L15.09,557.667L15.333,566.133L15.577,583.067L15.82,583.067L16.063,583.067L16.307,591.533L16.55,600L16.793,583.067L17.037,583.067L17.28,600L17.524,600L17.767,600L18.01,600L18.254,600L18.497,600L18.74,600L18.984,600L19.227,600L19.471,600L19.714,600L19.957,600L20.201,600L20.444,591.533L20.688,574.6L20.931,557.667L21.174,574.6L21.418,506.867L21.661,515.333L21.904,481.467L22.148,498.4L22.391,498.4L22.635,506.867L22.878,498.4L23.121,515.333L23.365,532.267L23.608,549.2L23.852,566.133L24.095,583.067L24.338,591.533L24.582,600L24.825,600L25.068,600L25.312,600L25.555,600L25.799,600L26.042,600L26.285,600L26.529,600L26.772,600L27.016,600L27.259,600L27.502,600L27.746,574.6L27.989,574.6L28.232,591.533L28.476,591.533L28.719,600L28.963,600L29.206,600L29.449,600L29.693,600L29.936,600L30.179,600L30.423,600L30.666,600L30.91,600L31.153,600L31.396,600L31.64,600L31.883,600L32.127,600L32.37,600L32.613,600L32.857,600L33.1,600L33.343,600L33.587,600L33.83,600L34.074,600L34.317,600L34.56,600L34.804,600L35.047,600L35.291,600L35.534,600L35.777,600L36.021,600L36.264,600L36.507,600L36.751,600L36.994,600L37.238,600L37.481,600L37.724,600L37.968,600L38.211,600L38.455,600L38.698,600L38.941,600L39.185,600L39.428,600L39.671,600L39.915,600L40.158,600L40.402,600L40.645,600L40.888,600L41.132,600L41.375,600L41.618,600L41.862,600L42.105,600L42.349,600L42.592,600L42.835,600L43.079,600L43.322,600L43.566,600L43.809,600L44.052,600L44.296,600L44.539,600L44.782,600L45.026,600L45.269,600L45.513,600L45.756,600L45.999,600L46.243,600L46.486,600L46.73,600L46.973,600L47.216,600L47.46,600L47.703,600L47.946,600L48.19,600L48.433,600L48.677,600L48.92,600L49.163,600L49.407,600L49.65,600L49.894,600L50.137,600L50.38,600L50.624,600L50.867,600L51.11,600L51.354,600L51.597,600L51.841,600L52.084,600L52.327,600L52.571,600L52.814,600L53.057,600L53.301,600L53.544,600L53.788,600L54.031,600L54.274,600L54.518,600L54.761,600L55.005,600L55.248,600L55.491,600L55.735,600L55.978,600L56.221,600L56.465,600L56.708,600L56.952,600L57.195,600L57.438,600L57.682,600L57.925,600L58.169,600L58.412,600L58.655,600L58.899,600L59.142,600L59.385,600L59.629,600L59.872,600L60.116,600L60.359,600L60.602,600L60.846,600L61.089,600L61.333,600L61.576,600L61.819,600L62.063,600L62.306,600L62.549,600L62.793,600L63.036,600L63.28,600L63.523,600L63.766,600L64.01,600L64.253,600L64.497,600L64.74,600L64.983,600L65.227,600L65.47,600L65.713,600L65.957,600L66.2,600L66.444,600L66.687,600L66.93,600L67.174,600L67.417,600L67.66,600L67.904,600L68.147,600L68.391,600L68.634,600L68.877,600L69.121,600L69.364,600L69.608,600L69.851,600L70.094,600L70.338,600L70.581,600L70.824,600L71.068,600L71.311,600L71.555,600L71.798,600L72.041,600L72.285,600L72.528,591.533L72.772,600L73.015,600L73.258,600L73.502,600L73.745,600L73.988,600L74.232,600L74.475,600L74.719,600L74.962,600L75.205,600L75.449,600L75.692,600L75.936,600L76.179,600L76.422,600L76.666,600L76.909,600L77.152,600L77.396,600L77.639,600L77.883,600L78.126,600L78.369,600L78.613,600L78.856,600L79.099,600L79.343,600L79.586,600L79.83,600L80.073,600L80.316,600L80.56,600L80.803,600L81.047,583.067L81.29,566.133L81.533,583.067L81.777,583.067L82.02,583.067L82.263,583.067L82.507,591.533L82.75,600L82.994,600L83.237,600L83.48,600L83.724,600L83.967,583.067L84.211,549.2L84.454,557.667L84.697,566.133L84.941,532.267L85.184,549.2L85.427,532.267L85.671,540.733L85.914,515.333L86.158,506.867L86.401,540.733L86.644,566.133L86.888,566.133L87.131,566.133L87.375,566.133L87.618,557.667L87.861,557.667L88.105,557.667L88.348,549.2L88.591,540.733L88.835,549.2L89.078,540.733L89.322,549.2L89.565,549.2L89.808,549.2L90.052,549.2L90.295,557.667L90.538,557.667L90.782,557.667L91.025,557.667L91.269,557.667L91.512,557.667L91.755,557.667L91.999,557.667L92.242,557.667L92.486,557.667L92.729,557.667L92.972,566.133L93.216,566.133L93.459,566.133L93.702,566.133L93.946,566.133L94.189,566.133L94.433,566.133L94.676,566.133L94.919,574.6L95.163,574.6L95.406,583.067L95.65,583.067L95.893,583.067L96.136,583.067L96.38,583.067L96.623,591.533L96.866,591.533L97.11,591.533L97.353,591.533L97.597,591.533L97.84,591.533L98.083,591.533L98.327,591.533L98.57,591.533L98.814,591.533L99.057,600L99.3,600L99.544,600L99.787,600L100.03,600L100.274,600L100.517,600L100.761,600L101.004,600L101.247,600L101.491,600L101.734,600L101.977,600L102.221,600L102.464,600L102.708,600L102.951,583.067L103.194,583.067L103.438,583.067L103.681,591.533L103.925,600L104.168,600L104.411,600L104.655,600L104.898,600L105.141,600L105.385,600L105.628,600L105.872,600L106.115,600L106.358,600L106.602,600L106.845,600L107.089,600L107.332,600L107.575,600L107.819,600L108.062,600L108.305,600L108.549,591.533L108.792,591.533L109.036,583.067L109.279,600L109.522,600L109.766,600L110.009,600L110.253,600L110.496,600L110.739,600L110.983,600L111.226,600L111.469,600L111.713,600L111.956,583.067L112.2,600L112.443,600L112.686,600L112.93,600L113.173,600L113.416,600L113.66,600L113.903,600L114.147,600L114.39,600L114.633,600L114.877,600L115.12,600L115.364,600L115.607,600L115.85,600L116.094,600L116.337,600L116.58,574.6L116.824,600L117.067,600L117.311,600L117.554,600L117.797,600L118.041,600L118.284,600L118.528,600L118.771,600L119.014,600L119.258,600L119.501,600L119.744,600L119.988,600L120.231,600L120.475,600L120.718,600L120.961,600L121.205,600L121.448,600L121.692,600L121.935,600L122.178,600L122.422,600L122.665,600L122.908,600L123.152,600L123.395,600L123.639,600L123.882,600L124.125,600L124.369,600L124.612,600L124.855,600L125.099,600L125.342,600L125.586,600L125.829,600L126.072,600L126.316,600L126.559,600L126.803,600L127.046,600L127.289,600L127.533,600L127.776,600L128.019,600L128.263,600L128.506,600L128.75,600L128.993,600L129.236,600L129.48,600L129.723,600L129.967,600L130.21,600L130.453,600L130.697,600L130.94,600L131.183,600L131.427,600L131.67,600L131.914,600L132.157,600L132.4,600L132.644,600L132.887,600L133.131,600L133.374,600L133.617,600L133.861,600L134.104,600L134.347,600L134.591,600L134.834,600L135.078,600L135.321,600L135.564,600L135.808,600L136.051,600L136.294,600L136.538,600L136.781,600L137.025,600L137.268,600L137.511,600L137.755,600L137.998,600L138.242,600L138.485,600L138.728,600L138.972,600L139.215,600L139.458,600L139.702,600L139.945,600L140.189,600L140.432,600L140.675,600L140.919,600L141.162,600L141.406,600L141.649,600L141.892,600L142.136,600L142.379,600L142.622,600L142.866,600L143.109,600L143.353,600L143.596,600L143.839,600L144.083,600L144.326,600L144.57,600L144.813,600L145.056,600L145.3,600L145.543,600L145.786,600L146.03,600L146.273,600L146.517,600L146.76,600L147.003,600L147.247,600L147.49,600L147.733,600L147.977,600L148.22,600L148.464,600L148.707,600L148.95,600L149.194,600L149.437,600L149.681,600L149.924,600L150.167,600L150.411,600L150.654,600L150.897,600L151.141,600L151.384,600L151.628,600L151.871,600L152.114,600L152.358,600L152.601,600L152.845,600L153.088,600L153.331,600L153.575,600L153.818,600L154.061,600L154.305,600L154.548,600L154.792,600L155.035,600L155.278,600L155.522,600L155.765,600L156.009,600L156.252,600L156.495,600L156.739,600L156.982,600L157.225,600L157.469,600L157.712,600L157.956,600L158.199,600L158.442,600L158.686,600L158.929,600L159.172,600L159.416,600L159.659,600L159.903,600L160.146,600L160.389,600L160.633,600L160.876,600L161.12,600L161.363,600L161.606,600L161.85,600L162.093,600L162.336,600L162.58,600L162.823,600L163.067,600L163.31,557.667L163.553,566.133L163.797,583.067L164.04,583.067L164.284,583.067L164.527,591.533L164.77,549.2L165.014,532.267L165.257,540.733L165.5,549.2L165.744,549.2L165.987,549.2L166.231,557.667L166.474,532.267L166.717,540.733L166.961,540.733L167.204,549.2L167.448,557.667L167.691,566.133L167.934,566.133L168.178,566.133L168.421,566.133L168.664,498.4L168.908,473L169.151,481.467L169.395,489.933L169.638,498.4L169.881,498.4L170.125,498.4L170.368,498.4L170.611,515.333L170.855,506.867L171.098,489.933L171.342,489.933L171.585,481.467L171.828,506.867L172.072,515.333L172.315,515.333L172.559,506.867L172.802,481.467L173.045,473L173.289,405.267L173.532,413.733L173.775,422.2L174.019,430.667L174.262,430.667L174.506,388.333L174.749,371.4L174.992,371.4L175.236,329.067L175.479,303.667L175.723,312.133L175.966,261.333L176.209,269.8L176.453,278.267L176.696,295.2L176.939,286.733L177.183,278.267L177.426,278.267L177.67,295.2L177.913,295.2L178.156,295.2L178.4,303.667L178.643,303.667L178.887,303.667L179.13,303.667L179.373,312.133L179.617,312.133L179.86,286.733L180.103,295.2L180.347,303.667L180.59,303.667L180.834,286.733L181.077,278.267L181.32,261.333L181.564,269.8L181.807,261.333L182.051,269.8L182.294,261.333L182.537,269.8L182.781,278.267L183.024,286.733L183.267,235.933L183.511,235.933L183.754,244.4L183.998,252.867L184.241,252.867L184.484,252.867L184.728,210.533L184.971,219L185.214,202.067L185.458,210.533L185.701,210.533L185.945,193.6L186.188,202.067L186.431,210.533L186.675,219L186.918,227.467L187.162,235.933L187.405,244.4L187.648,244.4L187.892,252.867L188.135,261.333L188.378,269.8L188.622,278.267L188.865,286.733L189.109,286.733L189.352,252.867L189.595,252.867L189.839,235.933L190.082,244.4L190.326,244.4L190.569,252.867L190.812,261.333L191.056,269.8L191.299,278.267L191.542,278.267L191.786,286.733L192.029,295.2L192.273,303.667L192.516,312.133L192.759,312.133L193.003,329.067L193.246,329.067L193.49,346L193.733,303.667L193.976,269.8L194.22,269.8L194.463,295.2L194.706,295.2L194.95,303.667L195.193,261.333L195.437,252.867L195.68,252.867L195.923,261.333L196.167,269.8L196.41,278.267L196.653,286.733L196.897,295.2L197.14,303.667L197.384,261.333L197.627,252.867L197.87,269.8L198.114,286.733L198.357,295.2L198.601,303.667L198.844,312.133L199.087,303.667L199.331,303.667L199.574,312.133L199.817,329.067L200.061,346L200.304,354.467L200.548,371.4L200.791,388.333L201.034,396.8L201.278,413.733L201.521,430.667L201.765,456.067L202.008,481.467L202.251,498.4L202.495,523.8L202.738,532.267L202.981,540.733L203.225,540.733L203.468,540.733L203.712,557.667L203.955,583.067L204.198,600L204.442,600L204.685,600L204.929,600L205.172,600L205.415,600L205.659,600L205.902,600L206.145,600L206.389,600L206.632,600L206.876,600L207.119,600L207.362,600L207.606,600L207.849,600L208.092,600L208.336,600L208.579,600L208.823,600L209.066,600L209.309,600L209.553,600L209.796,600L210.04,600L210.283,600L210.526,600L210.77,600L211.013,600L211.256,600L211.5,600L211.743,600L211.987,583.067L212.23,591.533L212.473,600L212.717,600L212.96,600L213.204,600L213.447,600L213.69,600L213.934,600L214.177,600L214.42,600L214.664,600L214.907,600L215.151,600L215.394,600L215.637,600L215.881,600L216.124,600L216.368,600L216.611,600L216.854,600L217.098,600L217.341,600L217.584,600L217.828,600L218.071,600L218.315,600L218.558,600L218.801,600L219.045,600L219.288,600L219.531,600L219.775,600L220.018,600L220.262,600L220.505,600L220.748,600L220.992,600L221.235,600L221.479,600L221.722,600L221.965,600L222.209,600L222.452,600L222.695,600L222.939,600L223.182,600L223.426,600L223.669,600L223.912,600L224.156,600L224.399,600L224.643,600L224.886,600L225.129,600L225.373,600L225.616,600L225.859,600L226.103,600L226.346,600L226.59,600L226.833,600L227.076,600L227.32,600L227.563,600L227.807,600L228.05,600L228.293,600L228.537,600L228.78,600L229.023,600L229.267,600L229.51,600L229.754,600L229.997,600L230.24,600L230.484,600L230.727,600L230.97,600L231.214,600L231.457,600L231.701,600L231.944,600L232.187,600L232.431,600L232.674,600L232.918,600L233.161,600L233.404,600L233.648,600L233.891,600L234.134,600L234.378,600L234.621,600L234.865,600L235.108,600L235.351,600L235.595,600L235.838,600L236.082,600L236.325,600L236.568,600L236.812,600L237.055,600L237.298,600L237.542,600L237.785,600L238.029,600L238.272,600L238.515,600L238.759,600L239.002,600L239.246,600L239.489,600L239.732,600L239.976,600L240.219,600L240.462,600L240.706,600L240.949,600L241.193,600L241.436,600L241.679,600L241.923,600L242.166,600L242.409,600L242.653,600L242.896,600L243.14,600L243.383,600L243.626,600L243.87,600L244.113,600L244.357,600L244.6,600L244.843,600L245.087,600L245.33,600L245.573,600L245.817,600L246.06,600L246.304,600L246.547,600L246.79,600L247.034,600L247.277,600L247.521,600L247.764,600L248.007,600L248.251,600L248.494,600L248.737,600L248.981,600L249.224,600L249.468,600L249.711,600L249.954,600L250.198,600L250.441,600L250.685,600L250.928,600L251.171,600L251.415,600L251.658,591.533L251.901,600L252.145,600L252.388,600L252.632,600L252.875,600L253.118,600L253.362,600L253.605,600L253.848,600L254.092,600L254.335,600L254.579,600L254.822,600L255.065,600L255.309,600L255.552,600L255.796,600L256.039,600L256.282,600L256.526,591.533L256.769,591.533L257.012,591.533L257.256,574.6L257.499,574.6L257.743,574.6L257.986,583.067L258.229,549.2L258.473,532.267L258.716,515.333L258.96,515.333L259.203,515.333L259.446,523.8L259.69,532.267L259.933,523.8L260.176,515.333L260.42,523.8L260.663,515.333L260.907,489.933L261.15,489.933L261.393,515.333L261.637,532.267L261.88,532.267L262.124,532.267L262.367,506.867L262.61,515.333L262.854,506.867L263.097,506.867L263.34,498.4L263.584,498.4L263.827,498.4L264.071,506.867L264.314,506.867L264.557,506.867L264.801,447.6L265.044,447.6L265.287,447.6L265.531,456.067L265.774,456.067L266.018,456.067L266.261,464.533L266.504,464.533L266.748,464.533L266.991,439.133L267.235,371.4L267.478,329.067L267.721,303.667L267.965,320.6L268.208,329.067L268.451,320.6L268.695,346L268.938,329.067L269.182,244.4L269.425,219L269.668,235.933L269.912,244.4L270.155,252.867L270.399,252.867L270.642,261.333L270.885,261.333L271.129,244.4L271.372,227.467L271.615,227.467L271.859,227.467L272.102,202.067L272.346,202.067L272.589,210.533L272.832,219L273.076,219L273.319,227.467L273.563,227.467L273.806,235.933L274.049,244.4L274.293,244.4L274.536,252.867L274.779,252.867L275.023,252.867L275.266,261.333L275.51,261.333L275.753,210.533L275.996,227.467L276.24,252.867L276.483,261.333L276.726,227.467L276.97,244.4L277.213,252.867L277.457,261.333L277.7,261.333L277.943,269.8L278.187,261.333L278.43,261.333L278.674,244.4L278.917,219L279.16,151.267L279.404,117.4L279.647,100.467L279.89,100.467L280.134,117.4L280.377,117.4L280.621,100.467L280.864,108.933L281.107,117.4L281.351,134.333L281.594,142.8L281.838,142.8L282.081,117.4L282.324,75.067L282.568,58.133L282.811,58.133L283.054,92L283.298,125.867L283.541,142.8L283.785,159.733L284.028,168.2L284.271,176.667L284.515,193.6L284.758,202.067L285.002,219L285.245,235.933L285.488,244.4L285.732,261.333L285.975,269.8L286.218,261.333L286.462,252.867L286.705,261.333L286.949,244.4L287.192,252.867L287.435,244.4L287.679,244.4L287.922,252.867L288.166,261.333L288.409,261.333L288.652,261.333L288.896,278.267L289.139,295.2L289.382,303.667L289.626,312.133L289.869,329.067L290.113,329.067L290.356,295.2L290.599,286.733L290.843,303.667L291.086,320.6L291.329,320.6L291.573,329.067L291.816,261.333L292.06,286.733L292.303,303.667L292.546,312.133L292.79,320.6L293.033,329.067L293.277,346L293.52,337.533L293.763,354.467L294.007,371.4L294.25,388.333L294.493,362.933L294.737,371.4L294.98,379.867L295.224,396.8L295.467,405.267L295.71,422.2L295.954,439.133L296.197,464.533L296.441,489.933L296.684,515.333L296.927,549.2L297.171,574.6L297.414,591.533L297.657,600L297.901,600L298.144,600L298.388,600L298.631,600L298.874,600L299.118,600L299.361,600L299.605,600L299.848,600L300.091,600L300.335,600L300.578,600L300.821,600L301.065,600L301.308,600L301.552,600L301.795,600L302.038,600L302.282,600L302.525,600L302.768,600L303.012,600L303.255,600L303.499,600L303.742,600L303.985,600L304.229,600L304.472,600L304.716,600L304.959,600L305.202,600L305.446,600L305.689,600L305.932,600L306.176,600L306.419,600L306.663,600L306.906,600L307.149,600L307.393,600L307.636,600L307.88,600L308.123,600L308.366,600L308.61,600L308.853,600L309.096,600L309.34,600L309.583,600L309.827,600L310.07,600L310.313,600L310.557,600L310.8,600L311.044,600L311.287,600L311.53,600L311.774,600L312.017,600L312.26,600L312.504,600L312.747,600L312.991,600L313.234,600L313.477,600L313.721,600L313.964,600L314.207,600L314.451,600L314.694,600L314.938,600L315.181,600L315.424,600L315.668,600L315.911,600L316.155,600L316.398,600L316.641,600L316.885,600L317.128,600L317.371,600L317.615,600L317.858,600L318.102,600L318.345,600L318.588,600L318.832,600L319.075,600L319.319,600L319.562,600L319.805,600L320.049,600L320.292,600L320.535,600L320.779,600L321.022,600L321.266,600L321.509,600L321.752,600L321.996,600L322.239,600L322.483,600L322.726,600L322.969,600L323.213,600L323.456,600L323.699,600L323.943,600L324.186,600L324.43,600L324.673,600L324.916,600L325.16,600L325.403,600L325.646,600L325.89,600L326.133,600L326.377,600L326.62,600L326.863,600L327.107,600L327.35,600L327.594,600L327.837,600L328.08,600L328.324,600L328.567,600L328.81,600L329.054,600L329.297,600L329.541,600L329.784,600L330.027,600L330.271,600L330.514,600L330.758,600L331.001,600L331.244,600L331.488,600L331.731,600L331.974,600L332.218,600L332.461,600L332.705,600L332.948,600L333.191,600L333.435,600L333.678,600L333.922,600L334.165,600L334.408,600L334.652,600L334.895,600L335.138,600L335.382,600L335.625,600L335.869,600L336.112,600L336.355,600L336.599,600L336.842,600L337.085,600L337.329,600L337.572,600L337.816,600L338.059,591.533L338.302,600L338.546,600L338.789,600L339.033,600L339.276,600L339.519,600L339.763,600L340.006,600L340.249,600L340.493,600L340.736,600L340.98,600L341.223,600L341.466,600L341.71,591.533L341.953,583.067L342.197,591.533L342.44,591.533L342.683,591.533L342.927,600L343.17,600L343.413,600L343.657,600L343.9,600L344.144,591.533L344.387,574.6L344.63,498.4L344.874,489.933L345.117,506.867L345.361,515.333L345.604,532.267L345.847,557.667L346.091,566.133L346.334,574.6L346.577,583.067L346.821,583.067L347.064,591.533L347.308,600L347.551,600L347.794,600L348.038,600L348.281,600L348.524,591.533L348.768,591.533L349.011,591.533L349.255,591.533L349.498,591.533L349.741,591.533L349.985,591.533L350.228,591.533L350.472,583.067L350.715,583.067L350.958,583.067L351.202,591.533L351.445,583.067L351.688,591.533L351.932,591.533L352.175,583.067L352.419,583.067L352.662,574.6L352.905,557.667L353.149,557.667L353.392,557.667L353.636,566.133L353.879,566.133L354.122,574.6L354.366,566.133L354.609,566.133L354.852,566.133L355.096,574.6L355.339,574.6L355.583,574.6L355.826,574.6L356.069,574.6L356.313,574.6L356.556,574.6L356.8,583.067L357.043,583.067L357.286,583.067L357.53,583.067L357.773,591.533L358.016,583.067L358.26,591.533L358.503,591.533L358.747,591.533L358.99,591.533L359.233,591.533L359.477,591.533L359.72,591.533L359.963,523.8L360.207,532.267L360.45,540.733L360.694,540.733L360.937,540.733L361.18,540.733L361.424,515.333L361.667,498.4L361.911,498.4L362.154,506.867L362.397,506.867L362.641,515.333L362.884,523.8L363.127,523.8L363.371,532.267L363.614,532.267L363.858,540.733L364.101,540.733L364.344,540.733L364.588,549.2L364.831,549.2L365.075,549.2L365.318,549.2L365.561,549.2L365.805,549.2L366.048,549.2L366.291,549.2L366.535,549.2L366.778,549.2L367.022,549.2L367.265,549.2L367.508,549.2L367.752,540.733L367.995,540.733L368.239,540.733L368.482,506.867L368.725,515.333L368.969,506.867L369.212,515.333L369.455,456.067L369.699,464.533L369.942,464.533L370.186,439.133L370.429,447.6L370.672,413.733L370.916,422.2L371.159,439.133L371.402,447.6L371.646,464.533L371.889,473L372.133,473L372.376,481.467L372.619,489.933L372.863,489.933L373.106,489.933L373.35,481.467L373.593,422.2L373.836,405.267L374.08,413.733L374.323,439.133L374.566,447.6L374.81,456.067L375.053,473L375.297,447.6L375.54,447.6L375.783,439.133L376.027,430.667L376.27,439.133L376.514,447.6L376.757,464.533L377,473L377.244,481.467L377.487,489.933L377.73,498.4L377.974,506.867L378.217,523.8L378.461,532.267L378.704,540.733L378.947,540.733L379.191,557.667L379.434,566.133L379.678,583.067L379.921,591.533L380.164,566.133L380.408,549.2L380.651,583.067L380.894,591.533L381.138,566.133L381.381,557.667L381.625,583.067L381.868,574.6L382.111,583.067L382.355,600L382.598,600L382.841,600L383.085,600L383.328,600L383.572,600L383.815,600L384.058,600L384.302,566.133L384.545,583.067L384.789,583.067L385.032,600L385.275,600L385.519,600L385.762,600L386.005,600L386.249,600L386.492,600L386.736,600L386.979,600L387.222,600L387.466,600L387.709,600L387.953,600L388.196,600L388.439,600L388.683,600L388.926,600L389.169,600L389.413,600L389.656,600L389.9,600L390.143,600L390.386,600L390.63,600L390.873,600L391.117,600L391.36,600L391.603,600L391.847,600L392.09,600L392.333,600L392.577,600L392.82,600L393.064,600L393.307,600L393.55,600L393.794,600L394.037,600L394.28,600L394.524,600L394.767,600L395.011,600L395.254,600L395.497,600L395.741,600L395.984,600L396.228,600L396.471,600L396.714,600L396.958,600L397.201,600L397.444,600L397.688,600L397.931,600L398.175,600L398.418,600L398.661,600L398.905,600L399.148,600L399.392,600L399.635,600L399.878,600L400.122,600L400.365,600L400.608,600L400.852,600L401.095,600L401.339,600L401.582,600L401.825,600L402.069,600L402.312,600L402.556,600L402.799,600L403.042,600L403.286,600L403.529,600L403.772,600L404.016,600L404.259,600L404.503,600L404.746,600L404.989,600L405.233,600L405.476,600L405.72,600L405.963,600L406.206,600L406.45,600L406.693,600L406.936,600L407.18,600L407.423,600L407.667,600L407.91,600L408.153,600L408.397,600L408.64,600L408.883,600L409.127,600L409.37,600L409.614,600L409.857,600L410.1,600L410.344,600L410.587,600L410.831,600L411.074,600L411.317,600L411.561,600L411.804,600L412.047,600L412.291,600L412.534,600L412.778,600L413.021,600L413.264,600L413.508,600L413.751,600L413.995,600L414.238,600L414.481,600L414.725,600L414.968,600L415.211,600L415.455,600L415.698,600L415.942,600L416.185,600L416.428,600L416.672,600L416.915,600L417.159,600L417.402,600L417.645,600L417.889,600L418.132,600L418.375,600L418.619,600L418.862,600L419.106,600L419.349,600L419.592,600L419.836,600L420.079,600L420.322,600L420.566,600L420.809,600L421.053,600L421.296,600L421.539,600L421.783,600L422.026,600L422.27,600L422.513,600L422.756,600L423,600L423.243,600L423.486,600L423.73,600L423.973,600L424.217,600L424.46,600L424.703,600L424.947,600L425.19,600L425.434,600L425.677,600L425.92,600L426.164,600L426.407,600L426.65,600L426.894,600L427.137,600L427.381,600L427.624,600L427.867,600L428.111,600L428.354,600L428.598,600L428.841,600L429.084,600L429.328,600L429.571,600L429.814,600L430.058,600L430.301,600L430.545,600L430.788,600L431.031,600L431.275,600L431.518,600L431.761,600L432.005,600L432.248,600L432.492,600L432.735,600L432.978,600L433.222,600L433.465,600L433.709,600L433.952,600L434.195,600L434.439,600L434.682,591.533L434.925,574.6L435.169,574.6L435.412,583.067L435.656,583.067L435.899,583.067L436.142,574.6L436.386,566.133L436.629,557.667L436.873,549.2L437.116,532.267L437.359,540.733L437.603,532.267L437.846,540.733L438.089,532.267L438.333,523.8L438.576,532.267L438.82,532.267L439.063,532.267L439.306,532.267L439.55,532.267L439.793,532.267L440.037,532.267L440.28,532.267L440.523,532.267L440.767,532.267L441.01,515.333L441.253,515.333L441.497,523.8L441.74,515.333L441.984,523.8L442.227,515.333L442.47,498.4L442.714,456.067L442.957,439.133L443.2,447.6L443.444,447.6L443.687,447.6L443.931,456.067L444.174,456.067L444.417,456.067L444.661,456.067L444.904,456.067L445.148,456.067L445.391,456.067L445.634,447.6L445.878,388.333L446.121,379.867L446.364,388.333L446.608,405.267L446.851,405.267L447.095,405.267L447.338,413.733L447.581,413.733L447.825,413.733L448.068,396.8L448.312,379.867L448.555,337.533L448.798,312.133L449.042,346L449.285,244.4L449.528,269.8L449.772,278.267L450.015,295.2L450.259,295.2L450.502,303.667L450.745,303.667L450.989,303.667L451.232,303.667L451.476,312.133L451.719,312.133L451.962,312.133L452.206,320.6L452.449,303.667L452.692,278.267L452.936,219L453.179,227.467L453.423,227.467L453.666,235.933L453.909,244.4L454.153,193.6L454.396,193.6L454.639,193.6L454.883,185.133L455.126,176.667L455.37,176.667L455.613,176.667L455.856,134.333L456.1,125.867L456.343,142.8L456.587,151.267L456.83,142.8L457.073,142.8L457.317,151.267L457.56,151.267L457.803,159.733L458.047,142.8L458.29,125.867L458.534,142.8L458.777,151.267L459.02,151.267L459.264,125.867L459.507,142.8L459.751,108.933L459.994,100.467L460.237,100.467L460.481,100.467L460.724,100.467L460.967,83.533L461.211,92L461.454,100.467L461.698,100.467L461.941,108.933L462.184,108.933L462.428,117.4L462.671,125.867L462.915,134.333L463.158,151.267L463.401,159.733L463.645,176.667L463.888,176.667L464.131,176.667L464.375,159.733L464.618,176.667L464.862,185.133L465.105,185.133L465.348,185.133L465.592,176.667L465.835,176.667L466.078,185.133L466.322,202.067L466.565,210.533L466.809,219L467.052,235.933L467.295,244.4L467.539,244.4L467.782,252.867L468.026,269.8L468.269,295.2L468.512,278.267L468.756,286.733L468.999,286.733L469.242,303.667L469.486,320.6L469.729,329.067L469.973,320.6L470.216,329.067L470.459,346L470.703,362.933L470.946,388.333L471.19,396.8L471.433,422.2L471.676,439.133L471.92,464.533L472.163,481.467L472.406,515.333L472.65,532.267L472.893,549.2L473.137,574.6L473.38,591.533L473.623,600L473.867,600L474.11,600L474.354,600L474.597,600L474.84,600L475.084,600L475.327,600L475.57,600L475.814,600L476.057,600L476.301,600L476.544,600L476.787,600L477.031,600L477.274,600L477.517,591.533L477.761,600L478.004,600L478.248,600L478.491,600L478.734,600L478.978,600L479.221,600L479.465,583.067L479.708,600L479.951,600L480.195,600L480.438,600L480.681,600L480.925,600L481.168,600L481.412,600L481.655,600L481.898,600L482.142,600L482.385,600L482.629,600L482.872,600L483.115,600L483.359,600L483.602,600L483.845,600L484.089,600L484.332,600L484.576,600L484.819,600L485.062,600L485.306,600L485.549,600L485.793,600L486.036,600L486.279,600L486.523,600L486.766,600L487.009,600L487.253,600L487.496,600L487.74,600L487.983,600L488.226,600L488.47,600L488.713,600L488.956,600L489.2,600L489.443,600L489.687,600L489.93,600L490.173,600L490.417,600L490.66,600L490.904,600L491.147,600L491.39,600L491.634,600L491.877,600L492.12,600L492.364,600L492.607,600L492.851,600L493.094,600L493.337,600L493.581,600L493.824,600L494.068,600L494.311,600L494.554,600L494.798,600L495.041,600L495.284,600L495.528,600L495.771,600L496.015,600L496.258,600L496.501,600L496.745,600L496.988,600L497.232,600L497.475,600L497.718,600L497.962,600L498.205,600L498.448,600L498.692,600L498.935,600L499.179,600L499.422,600L499.665,600L499.909,600L500.152,600L500.395,600L500.639,600L500.882,600L501.126,600L501.369,600L501.612,600L501.856,600L502.099,600L502.343,600L502.586,600L502.829,600L503.073,600L503.316,600L503.559,600L503.803,600L504.046,600L504.29,600L504.533,600L504.776,600L505.02,600L505.263,600L505.507,600L505.75,600L505.993,600L506.237,600L506.48,600L506.723,600L506.967,600L507.21,600L507.454,600L507.697,600L507.94,600L508.184,600L508.427,600L508.671,600L508.914,600L509.157,600L509.401,600L509.644,600L509.887,600L510.131,600L510.374,600L510.618,600L510.861,600L511.104,600L511.348,600L511.591,600L511.834,600L512.078,600L512.321,600L512.565,600L512.808,600L513.051,600L513.295,600L513.538,600L513.782,600L514.025,600L514.268,600L514.512,600L514.755,600L514.998,600L515.242,600L515.485,600L515.729,600L515.972,600L516.215,600L516.459,600L516.702,600L516.946,600L517.189,600L517.432,600L517.676,600L517.919,600L518.162,600L518.406,600L518.649,600L518.893,600L519.136,600L519.379,600L519.623,600L519.866,600L520.11,600L520.353,600L520.596,600L520.84,600L521.083,600L521.326,600L521.57,600L521.813,600L522.057,600L522.3,600L522.543,600L522.787,600L523.03,600L523.274,600L523.517,600L523.76,600L524.004,600L524.247,600L524.49,600L524.734,583.067L524.977,574.6L525.221,583.067L525.464,583.067L525.707,583.067L525.951,557.667L526.194,574.6L526.437,574.6L526.681,574.6L526.924,583.067L527.168,583.067L527.411,574.6L527.654,566.133L527.898,574.6L528.141,566.133L528.385,549.2L528.628,566.133L528.871,540.733L529.115,515.333L529.358,515.333L529.601,515.333L529.845,515.333L530.088,515.333L530.332,515.333L530.575,523.8L530.818,523.8L531.062,506.867L531.305,506.867L531.549,506.867L531.792,506.867L532.035,498.4L532.279,506.867L532.522,498.4L532.765,506.867L533.009,506.867L533.252,506.867L533.496,506.867L533.739,506.867L533.982,506.867L534.226,489.933L534.469,489.933L534.713,481.467L534.956,481.467L535.199,473L535.443,456.067L535.686,464.533L535.929,464.533L536.173,456.067L536.416,447.6L536.66,413.733L536.903,413.733L537.146,379.867L537.39,354.467L537.633,362.933L537.876,371.4L538.12,371.4L538.363,371.4L538.607,371.4L538.85,379.867L539.093,388.333L539.337,405.267L539.58,396.8L539.824,405.267L540.067,396.8L540.31,405.267L540.554,405.267L540.797,413.733L541.04,405.267L541.284,413.733L541.527,413.733L541.771,413.733L542.014,413.733L542.257,413.733L542.501,413.733L542.744,413.733L542.988,413.733L543.231,413.733L543.474,413.733L543.718,413.733L543.961,413.733L544.204,413.733L544.448,413.733L544.691,413.733L544.935,413.733L545.178,413.733L545.421,413.733L545.665,413.733L545.908,413.733L546.152,413.733L546.395,422.2L546.638,422.2L546.882,422.2L547.125,422.2L547.368,430.667L547.612,430.667L547.855,430.667L548.099,430.667L548.342,439.133L548.585,439.133L548.829,439.133L549.072,456.067L549.315,456.067L549.559,447.6L549.802,456.067L550.046,447.6L550.289,456.067L550.532,464.533L550.776,473L551.019,473L551.263,464.533L551.506,430.667L551.749,430.667L551.993,371.4L552.236,329.067L552.479,354.467L552.723,379.867L552.966,388.333L553.21,396.8L553.453,405.267L553.696,371.4L553.94,379.867L554.183,379.867L554.427,388.333L554.67,388.333L554.913,388.333L555.157,396.8L555.4,405.267L555.643,413.733L555.887,413.733L556.13,422.2L556.374,413.733L556.617,413.733L556.86,413.733L557.104,430.667L557.347,439.133L557.591,456.067L557.834,473L558.077,489.933L558.321,506.867L558.564,515.333L558.807,540.733L559.051,557.667L559.294,574.6L559.538,591.533L559.781,591.533L560.024,591.533L560.268,600L560.511,600L560.754,600L560.998,600L561.241,600L561.485,600L561.728,600L561.971,600L562.215,600L562.458,600L562.702,600L562.945,600L563.188,600L563.432,600L563.675,600L563.918,600L564.162,600L564.405,600L564.649,600L564.892,600L565.135,600L565.379,600L565.622,600L565.866,600L566.109,600L566.352,600L566.596,600L566.839,600L567.082,600L567.326,600L567.569,600L567.813,600L568.056,600L568.299,600L568.543,600L568.786,600L569.03,600L569.273,600L569.516,600L569.76,600L570.003,600L570.246,600L570.49,600L570.733,600L570.977,600L571.22,600L571.463,600L571.707,600L571.95,600L572.193,600L572.437,600L572.68,600L572.924,600L573.167,600L573.41,600L573.654,600L573.897,600L574.141,600L574.384,600L574.627,600L574.871,600L575.114,600L575.357,600L575.601,600L575.844,600L576.088,600L576.331,600L576.574,600L576.818,600L577.061,600L577.305,600L577.548,600L577.791,600L578.035,600L578.278,600L578.521,600L578.765,600L579.008,600L579.252,600L579.495,600L579.738,600L579.982,600L580.225,600L580.469,600L580.712,600L580.955,600L581.199,600L581.442,600L581.685,600L581.929,600L582.172,600L582.416,600L582.659,600L582.902,600L583.146,600L583.389,600L583.632,600L583.876,600L584.119,600L584.363,600L584.606,600L584.849,600L585.093,600L585.336,600L585.58,600L585.823,600L586.066,600L586.31,600L586.553,600L586.796,600L587.04,600L587.283,600L587.527,600L587.77,600L588.013,600L588.257,600L588.5,600L588.744,600L588.987,600L589.23,600L589.474,600L589.717,600L589.96,600L590.204,600L590.447,600L590.691,600L590.934,600L591.177,600L591.421,600L591.664,600L591.908,600L592.151,600L592.394,600L592.638,600L592.881,600L593.124,600L593.368,600L593.611,600L593.855,600L594.098,600L594.341,600L594.585,600L594.828,600L595.071,600L595.315,600L595.558,600L595.802,600L596.045,600L596.288,600L596.532,600L596.775,600L597.019,600L597.262,600L597.505,600L597.749,600L597.992,600L598.235,600L598.479,600L598.722,600L598.966,600L599.209,600L599.452,600L599.696,600L599.939,600L600.183,600L600.426,600L600.669,600L600.913,600L601.156,600L601.399,600L601.643,600L601.886,600L602.13,600L602.373,600L602.616,600L602.86,600L603.103,600L603.347,600L603.59,600L603.833,600L604.077,600L604.32,600L604.563,600L604.807,600L605.05,600L605.294,600L605.537,600L605.78,600L606.024,600L606.267,600L606.51,600L606.754,600L606.997,600L607.241,600L607.484,600L607.727,600L607.971,600L608.214,600L608.458,600L608.701,600L608.944,591.533L609.188,583.067L609.431,591.533L609.674,591.533L609.918,600L610.161,583.067L610.405,591.533L610.648,481.467L610.891,583.067L611.135,532.267L611.378,591.533L611.622,566.133L611.865,540.733L612.108,540.733L612.352,540.733L612.595,549.2L612.838,549.2L613.082,549.2L613.325,549.2L613.569,532.267L613.812,540.733L614.055,540.733L614.299,540.733L614.542,540.733L614.786,540.733L615.029,540.733L615.272,540.733L615.516,540.733L615.759,540.733L616.002,540.733L616.246,540.733L616.489,540.733L616.733,540.733L616.976,540.733L617.219,540.733L617.463,523.8L617.706,523.8L617.949,498.4L618.193,506.867L618.436,506.867L618.68,498.4L618.923,489.933L619.166,506.867L619.41,481.467L619.653,489.933L619.897,489.933L620.14,481.467L620.383,481.467L620.627,481.467L620.87,473L621.113,413.733L621.357,422.2L621.6,430.667L621.844,430.667L622.087,413.733L622.33,413.733L622.574,413.733L622.817,422.2L623.061,430.667L623.304,388.333L623.547,396.8L623.791,405.267L624.034,405.267L624.277,396.8L624.521,396.8L624.764,396.8L625.008,396.8L625.251,405.267L625.494,430.667L625.738,430.667L625.981,430.667L626.225,430.667L626.468,430.667L626.711,430.667L626.955,430.667L627.198,430.667L627.441,430.667L627.685,422.2L627.928,430.667L628.172,388.333L628.415,388.333L628.658,388.333L628.902,388.333L629.145,354.467L629.389,354.467L629.632,354.467L629.875,362.933L630.119,371.4L630.362,346L630.605,337.533L630.849,337.533L631.092,346L631.336,346L631.579,354.467L631.822,354.467L632.066,354.467L632.309,362.933L632.552,354.467L632.796,329.067L633.039,312.133L633.283,295.2L633.526,303.667L633.769,303.667L634.013,312.133L634.256,269.8L634.5,269.8L634.743,252.867L634.986,261.333L635.23,269.8L635.473,269.8L635.716,278.267L635.96,278.267L636.203,286.733L636.447,286.733L636.69,286.733L636.933,295.2L637.177,303.667L637.42,303.667L637.664,312.133L637.907,320.6L638.15,303.667L638.394,303.667L638.637,269.8L638.88,269.8L639.124,244.4L639.367,252.867L639.611,269.8L639.854,286.733L640.097,278.267L640.341,278.267L640.584,286.733L640.828,295.2L641.071,303.667L641.314,295.2L641.558,295.2L641.801,303.667L642.044,295.2L642.288,295.2L642.531,295.2L642.775,303.667L643.018,303.667L643.261,320.6L643.505,346L643.748,346L643.991,362.933L644.235,379.867L644.478,396.8L644.722,405.267L644.965,422.2L645.208,439.133L645.452,439.133L645.695,464.533L645.939,481.467L646.182,498.4L646.425,523.8L646.669,523.8L646.912,549.2L647.155,566.133L647.399,574.6L647.642,574.6L647.886,591.533L648.129,600L648.372,600L648.616,600L648.859,600L649.103,600L649.346,600L649.589,600L649.833,600L650.076,600L650.319,583.067L650.563,591.533L650.806,600L651.05,600L651.293,600L651.536,600L651.78,600L652.023,600L652.267,600L652.51,600L652.753,600L652.997,600L653.24,600L653.483,600L653.727,600L653.97,600L654.214,600L654.457,600L654.7,600L654.944,600L655.187,600L655.43,600L655.674,600L655.917,600L656.161,600L656.404,600L656.647,600L656.891,600L657.134,600L657.378,600L657.621,600L657.864,600L658.108,600L658.351,600L658.594,600L658.838,600L659.081,600L659.325,600L659.568,600L659.811,600L660.055,600L660.298,600L660.542,600L660.785,600L661.028,600L661.272,600L661.515,600L661.758,600L662.002,600L662.245,600L662.489,600L662.732,600L662.975,600L663.219,600L663.462,600L663.706,600L663.949,600L664.192,600L664.436,600L664.679,600L664.922,600L665.166,600L665.409,600L665.653,600L665.896,600L666.139,600M666.626,600L666.869,600L667.113,600L667.356,600L667.6,600L667.843,600L668.086,600L668.33,600L668.573,600L668.817,600L669.06,600L669.303,600L669.547,600L669.79,600L670.033,600L670.277,600L670.52,600L670.764,600L671.007,600L671.25,600L671.494,600L671.737,600L671.981,600L672.224,600L672.467,600L672.711,600L672.954,600L673.197,600L673.441,600L673.684,600L673.928,600L674.171,600L674.414,600L674.658,600L674.901,600L675.145,600L675.388,600L675.631,600L675.875,600L676.118,600L676.361,600L676.605,600L676.848,600L677.092,600L677.335,600L677.578,600L677.822,600L678.065,600L678.308,600L678.552,600L678.795,600L679.039,600L679.282,600L679.525,600L679.769,600L680.012,600L680.256,600L680.499,600L680.742,600L680.986,600L681.229,600L681.472,600L681.716,600L681.959,600L682.203,600L682.446,600L682.689,600L682.933,600L683.176,600L683.42,600L683.663,600L683.906,600L684.15,600L684.393,600L684.636,600L684.88,600L685.123,600L685.367,600L685.61,600L685.853,600L686.097,600L686.34,600L686.584,600L686.827,600L687.07,600L687.314,600L687.557,600L687.8,600L688.044,600L688.287,600L688.531,600L688.774,600L689.017,600L689.261,600L689.504,600L689.747,600L689.991,600L690.234,600L690.478,600L690.721,600L690.964,600L691.208,600L691.451,600L691.695,600L691.938,600L692.181,600L692.425,600L692.668,600L692.911,600L693.155,600L693.398,600L693.642,600L693.885,600L694.128,600L694.372,600L694.615,600L694.859,574.6L695.102,583.067L695.345,600L695.589,600L695.832,600L696.075,600L696.319,600L696.562,600L696.806,600L697.049,600L697.292,600L697.536,600L697.779,600L698.023,600L698.266,600L698.509,600L698.753,600L698.996,600L699.239,600L699.483,600L699.726,600L699.97,600L700.213,600L700.456,600L700.7,600L700.943,600L701.186,600L701.43,600L701.673,600L701.917,600L702.16,600L702.403,600L702.647,600L702.89,600L703.134,600L703.377,600L703.62,600L703.864,600L704.107,600L704.35,600L704.594,600L704.837,600L705.081,600L705.324,600L705.567,600L705.811,600L706.054,600L706.298,600L706.541,574.6L706.784,464.533L707.028,498.4L707.271,456.067L707.514,464.533L707.758,464.533L708.001,481.467L708.245,481.467L708.488,481.467L708.731,481.467L708.975,481.467L709.218,422.2L709.462,354.467L709.705,269.8L709.948,278.267L710.192,235.933L710.435,235.933L710.678,244.4L710.922,261.333L711.165,269.8L711.409,278.267L711.652,286.733L711.895,295.2L712.139,286.733L712.382,303.667L712.625,329.067L712.869,320.6L713.112,320.6L713.356,320.6L713.599,329.067L713.842,329.067L714.086,329.067L714.329,337.533L714.573,337.533L714.816,337.533L715.059,337.533L715.303,337.533L715.546,337.533L715.789,362.933L716.033,337.533L716.276,346L716.52,346L716.763,346L717.006,346L717.25,346L717.493,346L717.737,346L717.98,354.467L718.223,354.467L718.467,354.467L718.71,354.467L718.953,354.467L719.197,354.467L719.44,362.933L719.684,354.467L719.927,354.467L720.17,354.467L720.414,354.467L720.657,354.467L720.901,362.933L721.144,388.333L721.387,371.4L721.631,371.4L721.874,379.867L722.117,362.933L722.361,362.933L722.604,371.4L722.848,371.4L723.091,379.867L723.334,388.333L723.578,388.333L723.821,362.933L724.064,354.467L724.308,354.467L724.551,362.933L724.795,362.933L725.038,362.933L725.281,379.867L725.525,388.333L725.768,413.733L726.012,405.267L726.255,405.267L726.498,371.4L726.742,346L726.985,362.933L727.228,371.4L727.472,379.867L727.715,379.867L727.959,379.867L728.202,388.333L728.445,388.333L728.689,388.333L728.932,396.8L729.176,405.267L729.419,396.8L729.662,396.8L729.906,405.267L730.149,405.267L730.392,413.733L730.636,430.667L730.879,447.6L731.123,464.533L731.366,481.467L731.609,498.4L731.853,506.867L732.096,515.333L732.34,523.8L732.583,549.2L732.826,549.2L733.07,557.667L733.313,574.6L733.556,583.067L733.8,591.533L734.043,600L734.287,600L734.53,600L734.773,600L735.017,600L735.26,600L735.503,600L735.747,583.067L735.99,583.067L736.234,566.133L736.477,557.667L736.72,523.8L736.964,515.333L737.207,549.2L737.451,566.133L737.694,574.6L737.937,566.133L738.181,540.733L738.424,566.133L738.667,583.067L738.911,591.533L739.154,600L739.398,600L739.641,600L739.884,600L740.128,600L740.371,600L740.615,600L740.858,600L741.101,600L741.345,600L741.588,600L741.831,600L742.075,600L742.318,591.533L742.562,591.533L742.805,583.067L743.048,591.533L743.292,600L743.535,600L743.779,600L744.022,600L744.265,600L744.509,600L744.752,600L744.995,600L745.239,600L745.482,600L745.726,600L745.969,600L746.212,600L746.456,600L746.699,600L746.943,600L747.186,600L747.429,600L747.673,600L747.916,600L748.159,600L748.403,600L748.646,600L748.89,600L749.133,600L749.376,600L749.62,600L749.863,600L750.106,600L750.35,600L750.593,600L750.837,600L751.08,600L751.323,600L751.567,600L751.81,600L752.054,600L752.297,600L752.54,600L752.784,600L753.027,600L753.27,600L753.514,600L753.757,600L754.001,600L754.244,600L754.487,600L754.731,600L754.974,600L755.218,600L755.461,600L755.704,600L755.948,600L756.191,600L756.434,600L756.678,600L756.921,600L757.165,600L757.408,600L757.651,600L757.895,600L758.138,600L758.382,600L758.625,600L758.868,600L759.112,600L759.355,600L759.598,600L759.842,600L760.085,600L760.329,600L760.572,600L760.815,600L761.059,600L761.302,600L761.545,600L761.789,600L762.032,600L762.276,600L762.519,600L762.762,600L763.006,600L763.249,600L763.493,600L763.736,600L763.979,600L764.223,600L764.466,600L764.709,600L764.953,600L765.196,600L765.44,600L765.683,600L765.926,600L766.17,600L766.413,600L766.657,600L766.9,600L767.143,600L767.387,600L767.63,600L767.873,600L768.117,600L768.36,600L768.604,600L768.847,600L769.09,600L769.334,600L769.577,600L769.821,600L770.064,600L770.307,600L770.551,600L770.794,600L771.037,600L771.281,600L771.524,600L771.768,600L772.011,600L772.254,600L772.498,600L772.741,600L772.984,600L773.228,600L773.471,600L773.715,600L773.958,600L774.201,600L774.445,600L774.688,600L774.932,600L775.175,600L775.418,600L775.662,600L775.905,600L776.148,600L776.392,600L776.635,600L776.879,600L777.122,600L777.365,600L777.609,600L777.852,600L778.096,600L778.339,600L778.582,600L778.826,600L779.069,600L779.312,600L779.556,600L779.799,600L780.043,600L780.286,600L780.529,600L780.773,600L781.016,600L781.26,600L781.503,600L781.746,600L781.99,600L782.233,600L782.476,600L782.72,600L782.963,600L783.207,600L783.45,600L783.693,600L783.937,600L784.18,600L784.423,600M784.91,600L785.154,600L785.397,557.667L785.64,557.667L785.884,566.133L786.127,583.067L786.371,600L786.614,566.133L786.857,532.267L787.101,515.333L787.344,489.933L787.587,489.933L787.831,489.933L788.074,515.333L788.318,506.867L788.561,506.867L788.804,532.267L789.048,523.8L789.291,515.333L789.535,506.867L789.778,498.4L790.021,506.867L790.265,506.867L790.508,532.267L790.751,515.333L790.995,506.867L791.238,515.333L791.482,523.8L791.725,506.867L791.968,506.867L792.212,506.867L792.455,506.867L792.699,439.133L792.942,456.067L793.185,405.267L793.429,422.2L793.672,396.8L793.915,396.8L794.159,430.667L794.402,354.467L794.646,362.933L794.889,312.133L795.132,286.733L795.376,303.667L795.619,320.6L795.862,329.067L796.106,337.533L796.349,337.533L796.593,346L796.836,354.467L797.079,354.467L797.323,371.4L797.566,362.933L797.81,371.4L798.053,379.867L798.296,396.8L798.54,388.333L798.783,388.333L799.026,388.333L799.27,388.333L799.513,379.867L799.757,405.267L800,388.333" stroke="#4c78a8" stroke-width="2"></path></g></g><path class="foreground" aria-hidden="true" d="" display="none"></path></g></g></g><defs><clipPath id="clip1"><rect x="0" y="0" width="800" height="600"></rect></clipPath></defs></svg>