<svg xmlns="http://www.w3.org/2000/svg" xmlns:xlink="http://www.w3.org/1999/xlink" version="1.1" class="marks" width="477" height="382" viewBox="0 0 477 382" style="background-color: white;"><g fill="none" stroke-miterlimit="10" transform="translate(32,10)"><g class="mark-group role-frame root" role="graphics-object" aria-roledescription="group mark container"><g transform="translate(0,0)"><path class="background" aria-hidden="true" d="M0.5,0.5h400v350h-400Z" fill="transparent" stroke="#ddd"></path><g><g class="mark-group role-axis" aria-hidden="true"><g transform="translate(0.5,350.5)"><path class="background" aria-hidden="true" d="M0,0h0v0h0Z" pointer-events="none"></path><g><g class="mark-rule role-axis-grid" pointer-events="none"><line transform="translate(34,-350)" x2="0" y2="350" stroke="#ddd" stroke-width="1" opacity="1"></line><line transform="translate(76,-350)" x2="0" y2="350" stroke="#ddd" stroke-width="1" opacity="1"></line><line transform="translate(118,-350)" x2="0" y2="350" stroke="#ddd" stroke-width="1" opacity="1"></line><line transform="translate(160,-350)" x2="0" y2="350" stroke="#ddd" stroke-width="1" opacity="1"></line><line transform="translate(202,-350)" x2="0" y2="350" stroke="#ddd" stroke-width="1" opacity="1"></line><line transform="translate(244,-350)" x2="0" y2="350" stroke="#ddd" stroke-width="1" opacity="1"></line><line transform="translate(286,-350)" x2="0" y2="350" stroke="#ddd" stroke-width="1" opacity="1"></line><line transform="translate(328,-350)" x2="0" y2="350" stroke="#ddd" stroke-width="1" opacity="1"></line><line transform="translate(371,-350)" x2="0" y2="350" stroke="#ddd" stroke-width="1" opacity="1"></line></g></g><path class="foreground" aria-hidden="true" d="" pointer-events="none" display="none"></path></g></g><g class="mark-group role-axis" aria-hidden="true"><g transform="translate(0.5,0.5)"><path class="background" aria-hidden="true" d="M0,0h0v0h0Z" pointer-events="none"></path><g><g class="mark-rule role-axis-grid" pointer-events="none"><line transform="translate(0,350)" x2="400" y2="0" stroke="#ddd" stroke-width="1" opacity="1"></line><line transform="translate(0,315)" x2="400" y2="0" stroke="#ddd" stroke-width="1" opacity="1"></line><line transform="translate(0,280)" x2="400" y2="0" stroke="#ddd" stroke-width="1" opacity="1"></line><line transform="translate(0,245)" x2="400" y2="0" stroke="#ddd" stroke-width="1" opacity="1"></line><line transform="translate(0,210)" x2="400" y2="0" stroke="#ddd" stroke-width="1" opacity="1"></line><line transform="translate(0,175)" x2="400" y2="0" stroke="#ddd" stroke-width="1" opacity="1"></line><line transform="translate(0,140)" x2="400" y2="0" stroke="#ddd" stroke-width="1" opacity="1"></line><line transform="translate(0,105)" x2="400" y2="0" stroke="#ddd" stroke-width="1" opacity="1"></line><line transform="translate(0,70)" x2="400" y2="0" stroke="#ddd" stroke-width="1" opacity="1"></line><line transform="translate(0,35)" x2="400" y2="0" stroke="#ddd" stroke-width="1" opacity="1"></line><line transform="translate(0,0)" x2="400" y2="0" stroke="#ddd" stroke-width="1" opacity="1"></line></g></g><path class="foreground" aria-hidden="true" d="" pointer-events="none" display="none"></path></g></g><g class="mark-group role-axis" role="graphics-symbol" aria-roledescription="axis" aria-label="X-axis for a time scale with values from Sunday, 01 January 1922, 8:00:00 AM to Sunday, 01 January 2017, 8:00:00 AM"><g transform="translate(0.5,350.5)"><path class="background" aria-hidden="true" d="M0,0h0v0h0Z" pointer-events="none"></path><g><g class="mark-rule role-axis-tick" pointer-events="none"><line transform="translate(34,0)" x2="0" y2="5" stroke="#888" stroke-width="1" opacity="1"></line><line transform="translate(76,0)" x2="0" y2="5" stroke="#888" stroke-width="1" opacity="1"></line><line transform="translate(118,0)" x2="0" y2="5" stroke="#888" stroke-width="1" opacity="1"></line><line transform="translate(160,0)" x2="0" y2="5" stroke="#888" stroke-width="1" opacity="1"></line><line transform="translate(202,0)" x2="0" y2="5" stroke="#888" stroke-width="1" opacity="1"></line><line transform="translate(244,0)" x2="0" y2="5" stroke="#888" stroke-width="1" opacity="1"></line><line transform="translate(286,0)" x2="0" y2="5" stroke="#888" stroke-width="1" opacity="1"></line><line transform="translate(328,0)" x2="0" y2="5" stroke="#888" stroke-width="1" opacity="1"></line><line transform="translate(371,0)" x2="0" y2="5" stroke="#888" stroke-width="1" opacity="1"></line></g><g class="mark-text role-axis-label" pointer-events="none"><text text-anchor="middle" transform="translate(33.68012526777909,15)" font-family="sans-serif" font-size="10px" fill="#000" opacity="1">1930</text><text text-anchor="middle" transform="translate(75.77932121002526,15)" font-family="sans-serif" font-size="10px" fill="#000" opacity="1">1940</text><text text-anchor="middle" transform="translate(117.89004486200372,15)" font-family="sans-serif" font-size="10px" fill="#000" opacity="1">1950</text><text text-anchor="middle" transform="translate(159.98924080424987,15)" font-family="sans-serif" font-size="10px" fill="#000" opacity="1">1960</text><text text-anchor="middle" transform="translate(202.09996445622832,15)" font-family="sans-serif" font-size="10px" fill="#000" opacity="1">1970</text><text text-anchor="middle" transform="translate(244.1991603984745,15)" font-family="sans-serif" font-size="10px" fill="#000" opacity="1">1980</text><text text-anchor="middle" transform="translate(286.3098840504529,15)" font-family="sans-serif" font-size="10px" fill="#000" opacity="1">1990</text><text text-anchor="middle" transform="translate(328.4090799926991,15)" font-family="sans-serif" font-size="10px" fill="#000" opacity="1">2000</text><text text-anchor="middle" transform="translate(370.51980364467755,15)" font-family="sans-serif" font-size="10px" fill="#000" opacity="1">2010</text></g><g class="mark-rule role-axis-domain" pointer-events="none"><line transform="translate(0,0)" x2="400" y2="0" stroke="#888" stroke-width="1" opacity="1"></line></g></g><path class="foreground" aria-hidden="true" d="" pointer-events="none" display="none"></path></g></g><g class="mark-group role-axis" role="graphics-symbol" aria-roledescription="axis" aria-label="Y-axis for a linear scale with values from −25 to 25"><g transform="translate(0.5,0.5)"><path class="background" aria-hidden="true" d="M0,0h0v0h0Z" pointer-events="none"></path><g><g class="mark-rule role-axis-tick" pointer-events="none"><line transform="translate(0,350)" x2="-5" y2="0" stroke="#888" stroke-width="1" opacity="1"></line><line transform="translate(0,315)" x2="-5" y2="0" stroke="#888" stroke-width="1" opacity="1"></line><line transform="translate(0,280)" x2="-5" y2="0" stroke="#888" stroke-width="1" opacity="1"></line><line transform="translate(0,245)" x2="-5" y2="0" stroke="#888" stroke-width="1" opacity="1"></line><line transform="translate(0,210)" x2="-5" y2="0" stroke="#888" stroke-width="1" opacity="1"></line><line transform="translate(0,175)" x2="-5" y2="0" stroke="#888" stroke-width="1" opacity="1"></line><line transform="translate(0,140)" x2="-5" y2="0" stroke="#888" stroke-width="1" opacity="1"></line><line transform="translate(0,105)" x2="-5" y2="0" stroke="#888" stroke-width="1" opacity="1"></line><line transform="translate(0,70)" x2="-5" y2="0" stroke="#888" stroke-width="1" opacity="1"></line><line transform="translate(0,35)" x2="-5" y2="0" stroke="#888" stroke-width="1" opacity="1"></line><line transform="translate(0,0)" x2="-5" y2="0" stroke="#888" stroke-width="1" opacity="1"></line></g><g class="mark-text role-axis-label" pointer-events="none"><text text-anchor="end" transform="translate(-7,353)" font-family="sans-serif" font-size="10px" fill="#000" opacity="1">−25</text><text text-anchor="end" transform="translate(-7,318)" font-family="sans-serif" font-size="10px" fill="#000" opacity="1">−20</text><text text-anchor="end" transform="translate(-7,283)" font-family="sans-serif" font-size="10px" fill="#000" opacity="1">−15</text><text text-anchor="end" transform="translate(-7,247.99999999999997)" font-family="sans-serif" font-size="10px" fill="#000" opacity="1">−10</text><text text-anchor="end" transform="translate(-7,213)" font-family="sans-serif" font-size="10px" fill="#000" opacity="1">−5</text><text text-anchor="end" transform="translate(-7,178)" font-family="sans-serif" font-size="10px" fill="#000" opacity="1">0</text><text text-anchor="end" transform="translate(-7,143)" font-family="sans-serif" font-size="10px" fill="#000" opacity="1">5</text><text text-anchor="end" transform="translate(-7,108.00000000000001)" font-family="sans-serif" font-size="10px" fill="#000" opacity="1">10</text><text text-anchor="end" transform="translate(-7,72.99999999999999)" font-family="sans-serif" font-size="10px" fill="#000" opacity="1">15</text><text text-anchor="end" transform="translate(-7,37.99999999999999)" font-family="sans-serif" font-size="10px" fill="#000" opacity="1">20</text><text text-anchor="end" transform="translate(-7,3)" font-family="sans-serif" font-size="10px" fill="#000" opacity="1">25</text></g><g class="mark-rule role-axis-domain" pointer-events="none"><line transform="translate(0,350)" x2="0" y2="-350" stroke="#888" stroke-width="1" opacity="1"></line></g></g><path class="foreground" aria-hidden="true" d="" pointer-events="none" display="none"></path></g></g><g class="mark-area role-mark layer_0_marks" role="graphics-object" aria-roledescription="area mark container"><path aria-label="x: Jan 01, 1922; y: 0" role="graphics-symbol" aria-roledescription="area mark" d="M0,350L20.692,350L20.692,0L0,0Z" fill="#e54753" opacity="0.2"></path></g><g class="mark-area role-mark layer_1_marks" role="graphics-object" aria-roledescription="area mark container"><path aria-label="x: Jan 01, 1927; y: 0" role="graphics-symbol" aria-roledescription="area mark" d="M21.05,350L239.638,350L239.638,0L21.05,0Z" fill="#55373a" opacity="0.2"></path></g><g class="mark-area role-mark layer_2_marks" role="graphics-object" aria-roledescription="area mark container"><path aria-label="x: Jan 01, 1979; y: 0" role="graphics-symbol" aria-roledescription="area mark" d="M239.995,350L323.848,350L323.848,0L239.995,0Z" fill="#e54753" opacity="0.2"></path></g><g class="mark-area role-mark layer_3_marks" role="graphics-object" aria-roledescription="area mark container"><path aria-label="x: Jan 01, 1999; y: 0" role="graphics-symbol" aria-roledescription="area mark" d="M324.205,350L400,350L400,0L324.205,0Z" fill="#55373a" opacity="0.2"></path></g><g class="mark-text role-mark layer_4_marks" role="graphics-object" aria-roledescription="text mark container"><text aria-label="x: Jan 01, 1922; y: 23; t: ➡ Free currency era" role="graphics-symbol" aria-roledescription="text mark" text-anchor="start" transform="translate(0,17.000000000000014)" font-family="sans-serif" font-size="11px" fill="#55373a">➡ Free currency era</text><text aria-label="x: Jan 01, 1927; y: 20; t: ➡ Peg" role="graphics-symbol" aria-roledescription="text mark" text-anchor="start" transform="translate(21.049597971123088,37.99999999999999)" font-family="sans-serif" font-size="11px" fill="#55373a">➡ Peg</text><text aria-label="x: Jan 01, 1979; y: 23; t: ➡ Float" role="graphics-symbol" aria-roledescription="text mark" text-anchor="start" transform="translate(239.9953889161071,17.000000000000014)" font-family="sans-serif" font-size="11px" fill="#55373a">➡ Float</text><text aria-label="x: Jan 01, 1999; y: 20; t: ➡ Euro era" role="graphics-symbol" aria-roledescription="text mark" text-anchor="start" transform="translate(324.2053085103317,37.99999999999999)" font-family="sans-serif" font-size="11px" fill="#55373a">➡ Euro era</text></g><g class="mark-group role-scope layer_5_pathgroup" role="graphics-object" aria-roledescription="group mark container"><g transform="translate(0,0)"><path class="background" aria-hidden="true" d="M0,0h400v350h-400Z"></path><g><g class="mark-line role-mark layer_5_marks" role="graphics-object" aria-roledescription="line mark container"><path aria-label="date: Jan 01, 1922; value: −20.12560557; country: Ireland; Country: Ireland; Year: Jan 1922; Inflation rate (%): −20.12560557" role="graphics-symbol" aria-roledescription="line mark" d="M0,315.879L4.208,189.894L8.415,167.391L12.634,159.946L16.842,193.421L21.05,212.838L25.257,179L29.476,166.954L33.684,194.886L37.892,220.029L42.099,188.125L46.318,201.752L50.526,170.364L54.734,156.579L58.941,157.051L63.16,131.25L67.368,162.647L71.576,154.769L75.783,68.82L80.002,103.293L84.21,100.664L88.418,88.2L92.625,140.125L96.844,177.373L101.052,184.524L105.26,133.966L109.467,152.199L113.686,172.792L117.894,166.195L122.102,118.478L126.309,114.655L130.528,137.963L134.736,172.889L138.943,156.764L143.151,145.264L147.37,146.148L151.578,143.983L155.785,174.849L159.993,171.985L164.212,155.639L168.42,145.207L172.627,157.77L176.835,127.969L181.054,139.769L185.262,154.143L189.469,153.088L193.677,141.694L197.896,123.144L202.104,117.636L206.311,112.264L210.519,114.74L214.738,95.043L218.946,56.235L223.153,28.871L227.361,49.098L231.58,79.571L235.788,121.555L239.995,82.319L244.203,47.449L248.422,32.14L252.63,55.135L256.837,101.597L261.045,114.918L265.264,136.899L269.472,148.336L273.679,153.034L277.887,160.011L282.106,146.416L286.314,151.781L290.521,152.626L294.729,153.162L298.948,165.145L303.156,158.583L307.363,157.388L311.571,163.157L315.79,164.84L319.998,158.08L324.205,163.52L328.413,136.044L332.632,140.899L336.84,142.538L341.047,150.634L345.255,159.642L349.474,157.977L353.682,147.425L357.889,140.951L362.097,146.622L366.316,206.363L370.524,181.617L374.731,156.905L378.939,163.151L383.158,171.477L387.366,173.625L391.573,177.061L395.781,175" stroke="#36b7b4" stroke-width="2"></path></g></g><path class="foreground" aria-hidden="true" d="" display="none"></path></g><g transform="translate(0,0)"><path class="background" aria-hidden="true" d="M0,0h400v350h-400Z"></path><g><g class="mark-line role-mark layer_5_marks" role="graphics-object" aria-roledescription="line mark container"><path aria-label="date: Jan 01, 1922; value: −14; country: UK; Country: UK; Year: Jan 1922; Inflation rate (%): −14" role="graphics-symbol" aria-roledescription="line mark" d="M0,273L4.208,217L8.415,179.9L12.634,172.9L16.842,180.6L21.05,191.8L25.257,177.1L29.476,181.3L33.684,194.6L37.892,205.1L42.099,193.2L46.318,189.7L50.526,175L54.734,170.1L58.941,170.1L63.16,151.2L67.368,163.8L71.576,155.4L75.783,57.4L80.002,99.4L84.21,125.3L88.418,151.2L92.625,156.1L96.844,155.4L101.052,153.3L105.26,126L109.467,121.1L113.686,155.4L117.894,147.571L122.102,111.652L126.309,100.45L130.528,149.625L134.736,158.957L138.943,139.505L143.151,138.861L147.37,148.106L151.578,154.856L155.785,170.804L159.993,169.439L164.212,152.241L168.42,145.611L172.627,160.256L176.835,152.399L181.054,145.2L185.262,147L189.469,159.295L193.677,147.022L197.896,138.602L202.104,129.37L206.311,109.095L210.519,124.662L214.738,109.576L218.946,64.879L223.153,16.096L227.361,65.399L231.58,70.402L235.788,122.694L239.995,95.393L244.203,68.92L248.422,92.332L252.63,118.223L256.837,140.455L261.045,145.194L265.264,140.544L269.472,151.718L273.679,152.565L277.887,148.686L282.106,138.337L286.314,126.191L290.521,122.271L294.729,145.169L298.948,157.455L303.156,161.151L307.363,156.405L311.571,158.198L315.79,162.228L319.998,164.098L324.205,165.699L328.413,169.425L332.632,166.365L336.84,166.188L341.047,165.469L345.255,165.595L349.474,160.601L353.682,158.699L357.889,158.74L362.097,149.787L366.316,159.843L370.524,151.913L374.731,143.754L378.939,155.202L383.158,157.046L387.366,164.773L391.573,174.719L395.781,170.382" stroke="#122b39" stroke-width="2"></path></g></g><path class="foreground" aria-hidden="true" d="" display="none"></path></g></g><g class="mark-text role-mark layer_6_marks" role="graphics-object" aria-roledescription="text mark container"><text aria-label="date: Jan 01, 2013; value: 0.503310152; country: Ireland; Country: Ireland; Year: Jan 2013; Inflation rate (%): 0.503310152" role="graphics-symbol" aria-roledescription="text mark" text-anchor="start" transform="translate(403.1580160811551,184.47682893599998)" font-family="sans-serif" font-size="11px" fill="#36b7b4">Ireland</text><text aria-label="date: Jan 01, 2013; value: 2.564799; country: UK; Country: UK; Year: Jan 2013; Inflation rate (%): 2.564799" role="graphics-symbol" aria-roledescription="text mark" text-anchor="start" transform="translate(403.1580160811551,170.046407)" font-family="sans-serif" font-size="11px" fill="#122b39">UK</text></g><g class="mark-rule role-mark layer_7_marks" role="graphics-object" aria-roledescription="rule mark container"><line aria-label="line: Jan 01, 1979" role="graphics-symbol" aria-roledescription="rule mark" transform="translate(239.9953889161071,0)" x2="0" y2="350" stroke="#e54753" stroke-width="1.5"></line></g></g><path class="foreground" aria-hidden="true" d="" display="none"></path></g></g></g></svg>