<svg xmlns="http://www.w3.org/2000/svg" xmlns:xlink="http://www.w3.org/1999/xlink" version="1.1" class="marks" width="695" height="615" viewBox="0 0 695 615" style="background-color: white;"><g fill="none" stroke-miterlimit="10" transform="translate(59,5)"><g class="mark-group role-frame root" role="graphics-object" aria-roledescription="group mark container"><g transform="translate(0,0)"><path class="background" aria-hidden="true" d="M0.5,0.5h500v600h-500Z" fill="transparent" stroke="#ddd"></path><g><g class="mark-group role-axis" aria-hidden="true"><g transform="translate(0.5,0.5)"><path class="background" aria-hidden="true" d="M0,0h0v0h0Z" pointer-events="none"></path><g><g class="mark-rule role-axis-grid" pointer-events="none"><line transform="translate(0,600)" x2="500" y2="0" stroke="#ddd" stroke-width="1" opacity="1"></line><line transform="translate(0,573)" x2="500" y2="0" stroke="#ddd" stroke-width="1" opacity="1"></line><line transform="translate(0,547)" x2="500" y2="0" stroke="#ddd" stroke-width="1" opacity="1"></line><line transform="translate(0,520)" x2="500" y2="0" stroke="#ddd" stroke-width="1" opacity="1"></line><line transform="translate(0,493)" x2="500" y2="0" stroke="#ddd" stroke-width="1" opacity="1"></line><line transform="translate(0,467)" x2="500" y2="0" stroke="#ddd" stroke-width="1" opacity="1"></line><line transform="translate(0,440)" x2="500" y2="0" stroke="#ddd" stroke-width="1" opacity="1"></line><line transform="translate(0,413)" x2="500" y2="0" stroke="#ddd" stroke-width="1" opacity="1"></line><line transform="translate(0,387)" x2="500" y2="0" stroke="#ddd" stroke-width="1" opacity="1"></line><line transform="translate(0,360)" x2="500" y2="0" stroke="#ddd" stroke-width="1" opacity="1"></line><line transform="translate(0,333)" x2="500" y2="0" stroke="#ddd" stroke-width="1" opacity="1"></line><line transform="translate(0,307)" x2="500" y2="0" stroke="#ddd" stroke-width="1" opacity="1"></line><line transform="translate(0,280)" x2="500" y2="0" stroke="#ddd" stroke-width="1" opacity="1"></line><line transform="translate(0,253)" x2="500" y2="0" stroke="#ddd" stroke-width="1" opacity="1"></line><line transform="translate(0,227)" x2="500" y2="0" stroke="#ddd" stroke-width="1" opacity="1"></line><line transform="translate(0,200)" x2="500" y2="0" stroke="#ddd" stroke-width="1" opacity="1"></line><line transform="translate(0,173)" x2="500" y2="0" stroke="#ddd" stroke-width="1" opacity="1"></line><line transform="translate(0,147)" x2="500" y2="0" stroke="#ddd" stroke-width="1" opacity="1"></line><line transform="translate(0,120)" x2="500" y2="0" stroke="#ddd" stroke-width="1" opacity="1"></line><line transform="translate(0,93)" x2="500" y2="0" stroke="#ddd" stroke-width="1" opacity="1"></line><line transform="translate(0,67)" x2="500" y2="0" stroke="#ddd" stroke-width="1" opacity="1"></line><line transform="translate(0,40)" x2="500" y2="0" stroke="#ddd" stroke-width="1" opacity="1"></line><line transform="translate(0,13)" x2="500" y2="0" stroke="#ddd" stroke-width="1" opacity="1"></line></g></g><path class="foreground" aria-hidden="true" d="" pointer-events="none" display="none"></path></g></g><g class="mark-group role-axis" role="graphics-symbol" aria-roledescription="axis" aria-label="Y-axis titled 'population' for a linear scale with values from 0 to 45,000"><g transform="translate(0.5,0.5)"><path class="background" aria-hidden="true" d="M0,0h0v0h0Z" pointer-events="none"></path><g><g class="mark-rule role-axis-tick" pointer-events="none"><line transform="translate(0,600)" x2="-5" y2="0" stroke="#888" stroke-width="1" opacity="1"></line><line transform="translate(0,573)" x2="-5" y2="0" stroke="#888" stroke-width="1" opacity="1"></line><line transform="translate(0,547)" x2="-5" y2="0" stroke="#888" stroke-width="1" opacity="1"></line><line transform="translate(0,520)" x2="-5" y2="0" stroke="#888" stroke-width="1" opacity="1"></line><line transform="translate(0,493)" x2="-5" y2="0" stroke="#888" stroke-width="1" opacity="1"></line><line transform="translate(0,467)" x2="-5" y2="0" stroke="#888" stroke-width="1" opacity="1"></line><line transform="translate(0,440)" x2="-5" y2="0" stroke="#888" stroke-width="1" opacity="1"></line><line transform="translate(0,413)" x2="-5" y2="0" stroke="#888" stroke-width="1" opacity="1"></line><line transform="translate(0,387)" x2="-5" y2="0" stroke="#888" stroke-width="1" opacity="1"></line><line transform="translate(0,360)" x2="-5" y2="0" stroke="#888" stroke-width="1" opacity="1"></line><line transform="translate(0,333)" x2="-5" y2="0" stroke="#888" stroke-width="1" opacity="1"></line><line transform="translate(0,307)" x2="-5" y2="0" stroke="#888" stroke-width="1" opacity="1"></line><line transform="translate(0,280)" x2="-5" y2="0" stroke="#888" stroke-width="1" opacity="1"></line><line transform="translate(0,253)" x2="-5" y2="0" stroke="#888" stroke-width="1" opacity="1"></line><line transform="translate(0,227)" x2="-5" y2="0" stroke="#888" stroke-width="1" opacity="1"></line><line transform="translate(0,200)" x2="-5" y2="0" stroke="#888" stroke-width="1" opacity="1"></line><line transform="translate(0,173)" x2="-5" y2="0" stroke="#888" stroke-width="1" opacity="1"></line><line transform="translate(0,147)" x2="-5" y2="0" stroke="#888" stroke-width="1" opacity="1"></line><line transform="translate(0,120)" x2="-5" y2="0" stroke="#888" stroke-width="1" opacity="1"></line><line transform="translate(0,93)" x2="-5" y2="0" stroke="#888" stroke-width="1" opacity="1"></line><line transform="translate(0,67)" x2="-5" y2="0" stroke="#888" stroke-width="1" opacity="1"></line><line transform="translate(0,40)" x2="-5" y2="0" stroke="#888" stroke-width="1" opacity="1"></line><line transform="translate(0,13)" x2="-5" y2="0" stroke="#888" stroke-width="1" opacity="1"></line></g><g class="mark-text role-axis-label" pointer-events="none"><text text-anchor="end" transform="translate(-7,603)" font-family="sans-serif" font-size="10px" fill="#000" opacity="1">0</text><text text-anchor="end" transform="translate(-7,576.3333333333334)" font-family="sans-serif" font-size="10px" fill="#000" opacity="1">2,000</text><text text-anchor="end" transform="translate(-7,549.6666666666666)" font-family="sans-serif" font-size="10px" fill="#000" opacity="1">4,000</text><text text-anchor="end" transform="translate(-7,523)" font-family="sans-serif" font-size="10px" fill="#000" opacity="1">6,000</text><text text-anchor="end" transform="translate(-7,496.3333333333333)" font-family="sans-serif" font-size="10px" fill="#000" opacity="1">8,000</text><text text-anchor="end" transform="translate(-7,469.6666666666667)" font-family="sans-serif" font-size="10px" fill="#000" opacity="1">10,000</text><text text-anchor="end" transform="translate(-7,443.00000000000006)" font-family="sans-serif" font-size="10px" fill="#000" opacity="1">12,000</text><text text-anchor="end" transform="translate(-7,416.3333333333333)" font-family="sans-serif" font-size="10px" fill="#000" opacity="1">14,000</text><text text-anchor="end" transform="translate(-7,389.66666666666663)" font-family="sans-serif" font-size="10px" fill="#000" opacity="1">16,000</text><text text-anchor="end" transform="translate(-7,363)" font-family="sans-serif" font-size="10px" fill="#000" opacity="1">18,000</text><text text-anchor="end" transform="translate(-7,336.33333333333337)" font-family="sans-serif" font-size="10px" fill="#000" opacity="1">20,000</text><text text-anchor="end" transform="translate(-7,309.66666666666663)" font-family="sans-serif" font-size="10px" fill="#000" opacity="1">22,000</text><text text-anchor="end" transform="translate(-7,283)" font-family="sans-serif" font-size="10px" fill="#000" opacity="1">24,000</text><text text-anchor="end" transform="translate(-7,256.33333333333337)" font-family="sans-serif" font-size="10px" fill="#000" opacity="1">26,000</text><text text-anchor="end" transform="translate(-7,229.66666666666666)" font-family="sans-serif" font-size="10px" fill="#000" opacity="1">28,000</text><text text-anchor="end" transform="translate(-7,203.00000000000003)" font-family="sans-serif" font-size="10px" fill="#000" opacity="1">30,000</text><text text-anchor="end" transform="translate(-7,176.33333333333331)" font-family="sans-serif" font-size="10px" fill="#000" opacity="1">32,000</text><text text-anchor="end" transform="translate(-7,149.66666666666669)" font-family="sans-serif" font-size="10px" fill="#000" opacity="1">34,000</text><text text-anchor="end" transform="translate(-7,122.99999999999997)" font-family="sans-serif" font-size="10px" fill="#000" opacity="1">36,000</text><text text-anchor="end" transform="translate(-7,96.33333333333333)" font-family="sans-serif" font-size="10px" fill="#000" opacity="1">38,000</text><text text-anchor="end" transform="translate(-7,69.6666666666667)" font-family="sans-serif" font-size="10px" fill="#000" opacity="1">40,000</text><text text-anchor="end" transform="translate(-7,42.99999999999999)" font-family="sans-serif" font-size="10px" fill="#000" opacity="1">42,000</text><text text-anchor="end" transform="translate(-7,16.333333333333353)" font-family="sans-serif" font-size="10px" fill="#000" opacity="1">44,000</text></g><g class="mark-rule role-axis-domain" pointer-events="none"><line transform="translate(0,600)" x2="0" y2="-600" stroke="#888" stroke-width="1" opacity="1"></line></g><g class="mark-text role-axis-title" pointer-events="none"><text text-anchor="middle" transform="translate(-42.728515625,300) rotate(-90) translate(0,-2)" font-family="sans-serif" font-size="11px" font-weight="bold" fill="#000" opacity="1">population</text></g></g><path class="foreground" aria-hidden="true" d="" pointer-events="none" display="none"></path></g></g><g class="mark-rect role-mark layer_0_marks" role="graphics-object" aria-roledescription="rect mark container"><path aria-label="start (year): 1933; end (year): 1945; event: Nazi Rule" role="graphics-symbol" aria-roledescription="rect mark" d="M208.6312741378964,0h43.165691569715165v600h-43.165691569715165Z" fill="#f58518"></path><path aria-label="start (year): 1948; end (year): 1989; event: GDR (East Germany)" role="graphics-symbol" aria-roledescription="rect mark" d="M262.58151514761767,0h147.49156797400252v600h-147.49156797400252Z" fill="#4c78a8"></path></g><g class="mark-line role-mark layer_1_marks" role="graphics-object" aria-roledescription="line mark container"><path aria-label="year (year): 1875; population: 1309" role="graphics-symbol" aria-roledescription="line mark" d="M0,582.547L53.96,579.227L125.894,539.84L179.854,490.933L208.631,387.8L230.209,269.013L255.392,223L269.781,210.813L320.136,201.587L345.319,253.24L381.296,279.613L395.684,288.8L410.073,302.573L413.668,305.507L417.263,304.813L420.857,305.267L424.462,303.44L428.056,295.987L431.651,276.36L435.246,258.133L438.85,234.76L442.445,206.6L446.04,171.68L449.635,149.453L453.239,129.373L456.834,117.613L460.429,108.947L464.023,100.093L467.628,88.32L471.223,79.893L474.817,75.12L478.412,69.053L482.017,64.28L485.611,59.853L489.206,60.467L492.801,54.6L496.405,49.893L500,42.973" stroke="#333" stroke-width="2"></path></g><g class="mark-symbol role-mark layer_2_marks" role="graphics-object" aria-roledescription="symbol mark container"><path aria-label="year (year): 1875; population: 1309" role="graphics-symbol" aria-roledescription="point" transform="translate(0,582.5466666666666)" d="M2.739,0A2.739,2.739,0,1,1,-2.739,0A2.739,2.739,0,1,1,2.739,0" fill="transparent" stroke="#333" stroke-width="2" opacity="0.7"></path><path aria-label="year (year): 1890; population: 1558" role="graphics-symbol" aria-roledescription="point" transform="translate(53.960089538565676,579.2266666666667)" d="M2.739,0A2.739,2.739,0,1,1,-2.739,0A2.739,2.739,0,1,1,2.739,0" fill="transparent" stroke="#333" stroke-width="2" opacity="0.7"></path><path aria-label="year (year): 1910; population: 4512" role="graphics-symbol" aria-roledescription="point" transform="translate(125.89378331594165,539.8399999999999)" d="M2.739,0A2.739,2.739,0,1,1,-2.739,0A2.739,2.739,0,1,1,2.739,0" fill="transparent" stroke="#333" stroke-width="2" opacity="0.7"></path><path aria-label="year (year): 1925; population: 8180" role="graphics-symbol" aria-roledescription="point" transform="translate(179.8538728545073,490.93333333333334)" d="M2.739,0A2.739,2.739,0,1,1,-2.739,0A2.739,2.739,0,1,1,2.739,0" fill="transparent" stroke="#333" stroke-width="2" opacity="0.7"></path><path aria-label="year (year): 1933; population: 15915" role="graphics-symbol" aria-roledescription="point" transform="translate(208.6312741378964,387.8)" d="M2.739,0A2.739,2.739,0,1,1,-2.739,0A2.739,2.739,0,1,1,2.739,0" fill="transparent" stroke="#333" stroke-width="2" opacity="0.7"></path><path aria-label="year (year): 1939; population: 24824" role="graphics-symbol" aria-roledescription="point" transform="translate(230.20940083601604,269.0133333333333)" d="M2.739,0A2.739,2.739,0,1,1,-2.739,0A2.739,2.739,0,1,1,2.739,0" fill="transparent" stroke="#333" stroke-width="2" opacity="0.7"></path><path aria-label="year (year): 1946; population: 28275" role="graphics-symbol" aria-roledescription="point" transform="translate(255.3920890911926,223.00000000000003)" d="M2.739,0A2.739,2.739,0,1,1,-2.739,0A2.739,2.739,0,1,1,2.739,0" fill="transparent" stroke="#333" stroke-width="2" opacity="0.7"></path><path aria-label="year (year): 1950; population: 29189" role="graphics-symbol" aria-roledescription="point" transform="translate(269.7807897328872,210.81333333333333)" d="M2.739,0A2.739,2.739,0,1,1,-2.739,0A2.739,2.739,0,1,1,2.739,0" fill="transparent" stroke="#333" stroke-width="2" opacity="0.7"></path><path aria-label="year (year): 1964; population: 29881" role="graphics-symbol" aria-roledescription="point" transform="translate(320.1363177143959,201.5866666666667)" d="M2.739,0A2.739,2.739,0,1,1,-2.739,0A2.739,2.739,0,1,1,2.739,0" fill="transparent" stroke="#333" stroke-width="2" opacity="0.7"></path><path aria-label="year (year): 1971; population: 26007" role="graphics-symbol" aria-roledescription="point" transform="translate(345.31900596957246,253.24)" d="M2.739,0A2.739,2.739,0,1,1,-2.739,0A2.739,2.739,0,1,1,2.739,0" fill="transparent" stroke="#333" stroke-width="2" opacity="0.7"></path><path aria-label="year (year): 1981; population: 24029" role="graphics-symbol" aria-roledescription="point" transform="translate(381.295681838231,279.61333333333334)" d="M2.739,0A2.739,2.739,0,1,1,-2.739,0A2.739,2.739,0,1,1,2.739,0" fill="transparent" stroke="#333" stroke-width="2" opacity="0.7"></path><path aria-label="year (year): 1985; population: 23340" role="graphics-symbol" aria-roledescription="point" transform="translate(395.6843824799256,288.79999999999995)" d="M2.739,0A2.739,2.739,0,1,1,-2.739,0A2.739,2.739,0,1,1,2.739,0" fill="transparent" stroke="#333" stroke-width="2" opacity="0.7"></path><path aria-label="year (year): 1989; population: 22307" role="graphics-symbol" aria-roledescription="point" transform="translate(410.0730831216202,302.5733333333333)" d="M2.739,0A2.739,2.739,0,1,1,-2.739,0A2.739,2.739,0,1,1,2.739,0" fill="transparent" stroke="#333" stroke-width="2" opacity="0.7"></path><path aria-label="year (year): 1990; population: 22087" role="graphics-symbol" aria-roledescription="point" transform="translate(413.66779614983267,305.50666666666666)" d="M2.739,0A2.739,2.739,0,1,1,-2.739,0A2.739,2.739,0,1,1,2.739,0" fill="transparent" stroke="#333" stroke-width="2" opacity="0.7"></path><path aria-label="year (year): 1991; population: 22139" role="graphics-symbol" aria-roledescription="point" transform="translate(417.2625091780452,304.8133333333333)" d="M2.739,0A2.739,2.739,0,1,1,-2.739,0A2.739,2.739,0,1,1,2.739,0" fill="transparent" stroke="#333" stroke-width="2" opacity="0.7"></path><path aria-label="year (year): 1992; population: 22105" role="graphics-symbol" aria-roledescription="point" transform="translate(420.85722220625775,305.26666666666665)" d="M2.739,0A2.739,2.739,0,1,1,-2.739,0A2.739,2.739,0,1,1,2.739,0" fill="transparent" stroke="#333" stroke-width="2" opacity="0.7"></path><path aria-label="year (year): 1993; population: 22242" role="graphics-symbol" aria-roledescription="point" transform="translate(424.4617837633147,303.44)" d="M2.739,0A2.739,2.739,0,1,1,-2.739,0A2.739,2.739,0,1,1,2.739,0" fill="transparent" stroke="#333" stroke-width="2" opacity="0.7"></path><path aria-label="year (year): 1994; population: 22801" role="graphics-symbol" aria-roledescription="point" transform="translate(428.05649679152725,295.9866666666667)" d="M2.739,0A2.739,2.739,0,1,1,-2.739,0A2.739,2.739,0,1,1,2.739,0" fill="transparent" stroke="#333" stroke-width="2" opacity="0.7"></path><path aria-label="year (year): 1995; population: 24273" role="graphics-symbol" aria-roledescription="point" transform="translate(431.65120981973973,276.36)" d="M2.739,0A2.739,2.739,0,1,1,-2.739,0A2.739,2.739,0,1,1,2.739,0" fill="transparent" stroke="#333" stroke-width="2" opacity="0.7"></path><path aria-label="year (year): 1996; population: 25640" role="graphics-symbol" aria-roledescription="point" transform="translate(435.24592284795233,258.1333333333333)" d="M2.739,0A2.739,2.739,0,1,1,-2.739,0A2.739,2.739,0,1,1,2.739,0" fill="transparent" stroke="#333" stroke-width="2" opacity="0.7"></path><path aria-label="year (year): 1997; population: 27393" role="graphics-symbol" aria-roledescription="point" transform="translate(438.85048440500924,234.76)" d="M2.739,0A2.739,2.739,0,1,1,-2.739,0A2.739,2.739,0,1,1,2.739,0" fill="transparent" stroke="#333" stroke-width="2" opacity="0.7"></path><path aria-label="year (year): 1998; population: 29505" role="graphics-symbol" aria-roledescription="point" transform="translate(442.4451974332218,206.60000000000002)" d="M2.739,0A2.739,2.739,0,1,1,-2.739,0A2.739,2.739,0,1,1,2.739,0" fill="transparent" stroke="#333" stroke-width="2" opacity="0.7"></path><path aria-label="year (year): 1999; population: 32124" role="graphics-symbol" aria-roledescription="point" transform="translate(446.0399104614343,171.68)" d="M2.739,0A2.739,2.739,0,1,1,-2.739,0A2.739,2.739,0,1,1,2.739,0" fill="transparent" stroke="#333" stroke-width="2" opacity="0.7"></path><path aria-label="year (year): 2000; population: 33791" role="graphics-symbol" aria-roledescription="point" transform="translate(449.63462348964686,149.45333333333335)" d="M2.739,0A2.739,2.739,0,1,1,-2.739,0A2.739,2.739,0,1,1,2.739,0" fill="transparent" stroke="#333" stroke-width="2" opacity="0.7"></path><path aria-label="year (year): 2001; population: 35297" role="graphics-symbol" aria-roledescription="point" transform="translate(453.2391850467038,129.37333333333336)" d="M2.739,0A2.739,2.739,0,1,1,-2.739,0A2.739,2.739,0,1,1,2.739,0" fill="transparent" stroke="#333" stroke-width="2" opacity="0.7"></path><path aria-label="year (year): 2002; population: 36179" role="graphics-symbol" aria-roledescription="point" transform="translate(456.83389807491636,117.61333333333333)" d="M2.739,0A2.739,2.739,0,1,1,-2.739,0A2.739,2.739,0,1,1,2.739,0" fill="transparent" stroke="#333" stroke-width="2" opacity="0.7"></path><path aria-label="year (year): 2003; population: 36829" role="graphics-symbol" aria-roledescription="point" transform="translate(460.4286111031289,108.94666666666663)" d="M2.739,0A2.739,2.739,0,1,1,-2.739,0A2.739,2.739,0,1,1,2.739,0" fill="transparent" stroke="#333" stroke-width="2" opacity="0.7"></path><path aria-label="year (year): 2004; population: 37493" role="graphics-symbol" aria-roledescription="point" transform="translate(464.0233241313414,100.09333333333332)" d="M2.739,0A2.739,2.739,0,1,1,-2.739,0A2.739,2.739,0,1,1,2.739,0" fill="transparent" stroke="#333" stroke-width="2" opacity="0.7"></path><path aria-label="year (year): 2005; population: 38376" role="graphics-symbol" aria-roledescription="point" transform="translate(467.62788568839835,88.32)" d="M2.739,0A2.739,2.739,0,1,1,-2.739,0A2.739,2.739,0,1,1,2.739,0" fill="transparent" stroke="#333" stroke-width="2" opacity="0.7"></path><path aria-label="year (year): 2006; population: 39008" role="graphics-symbol" aria-roledescription="point" transform="translate(471.2225987166109,79.89333333333335)" d="M2.739,0A2.739,2.739,0,1,1,-2.739,0A2.739,2.739,0,1,1,2.739,0" fill="transparent" stroke="#333" stroke-width="2" opacity="0.7"></path><path aria-label="year (year): 2007; population: 39366" role="graphics-symbol" aria-roledescription="point" transform="translate(474.8173117448234,75.11999999999999)" d="M2.739,0A2.739,2.739,0,1,1,-2.739,0A2.739,2.739,0,1,1,2.739,0" fill="transparent" stroke="#333" stroke-width="2" opacity="0.7"></path><path aria-label="year (year): 2008; population: 39821" role="graphics-symbol" aria-roledescription="point" transform="translate(478.41202477303597,69.05333333333334)" d="M2.739,0A2.739,2.739,0,1,1,-2.739,0A2.739,2.739,0,1,1,2.739,0" fill="transparent" stroke="#333" stroke-width="2" opacity="0.7"></path><path aria-label="year (year): 2009; population: 40179" role="graphics-symbol" aria-roledescription="point" transform="translate(482.01658633009293,64.27999999999999)" d="M2.739,0A2.739,2.739,0,1,1,-2.739,0A2.739,2.739,0,1,1,2.739,0" fill="transparent" stroke="#333" stroke-width="2" opacity="0.7"></path><path aria-label="year (year): 2010; population: 40511" role="graphics-symbol" aria-roledescription="point" transform="translate(485.6112993583054,59.85333333333336)" d="M2.739,0A2.739,2.739,0,1,1,-2.739,0A2.739,2.739,0,1,1,2.739,0" fill="transparent" stroke="#333" stroke-width="2" opacity="0.7"></path><path aria-label="year (year): 2011; population: 40465" role="graphics-symbol" aria-roledescription="point" transform="translate(489.206012386518,60.46666666666665)" d="M2.739,0A2.739,2.739,0,1,1,-2.739,0A2.739,2.739,0,1,1,2.739,0" fill="transparent" stroke="#333" stroke-width="2" opacity="0.7"></path><path aria-label="year (year): 2012; population: 40905" role="graphics-symbol" aria-roledescription="point" transform="translate(492.80072541473055,54.59999999999998)" d="M2.739,0A2.739,2.739,0,1,1,-2.739,0A2.739,2.739,0,1,1,2.739,0" fill="transparent" stroke="#333" stroke-width="2" opacity="0.7"></path><path aria-label="year (year): 2013; population: 41258" role="graphics-symbol" aria-roledescription="point" transform="translate(496.40528697178746,49.893333333333324)" d="M2.739,0A2.739,2.739,0,1,1,-2.739,0A2.739,2.739,0,1,1,2.739,0" fill="transparent" stroke="#333" stroke-width="2" opacity="0.7"></path><path aria-label="year (year): 2014; population: 41777" role="graphics-symbol" aria-roledescription="point" transform="translate(500,42.97333333333335)" d="M2.739,0A2.739,2.739,0,1,1,-2.739,0A2.739,2.739,0,1,1,2.739,0" fill="transparent" stroke="#333" stroke-width="2" opacity="0.7"></path></g><g class="mark-group role-legend" role="graphics-symbol" aria-roledescription="legend" aria-label="Symbol legend titled 'event' for fill color with 2 values: GDR (East Germany), Nazi Rule"><g transform="translate(518,0)"><path class="background" aria-hidden="true" d="M0,0h113v40h-113Z" pointer-events="none"></path><g><g class="mark-group role-legend-entry"><g transform="translate(0,16)"><path class="background" aria-hidden="true" d="M0,0h0v0h0Z" pointer-events="none"></path><g><g class="mark-group role-scope" role="graphics-object" aria-roledescription="group mark container"><g transform="translate(0,0)"><path class="background" aria-hidden="true" d="M0,0h112.8212890625v11h-112.8212890625Z" pointer-events="none" opacity="1"></path><g><g class="mark-symbol role-legend-symbol" pointer-events="none"><path transform="translate(6,6)" d="M-5,-5h10v10h-10Z" fill="#4c78a8" stroke-width="1.5" opacity="1"></path></g><g class="mark-text role-legend-label" pointer-events="none"><text text-anchor="start" transform="translate(16,9)" font-family="sans-serif" font-size="10px" fill="#000" opacity="1">GDR (East Germany)</text></g></g><path class="foreground" aria-hidden="true" d="" pointer-events="none" display="none"></path></g><g transform="translate(0,13)"><path class="background" aria-hidden="true" d="M0,0h112.8212890625v11h-112.8212890625Z" pointer-events="none" opacity="1"></path><g><g class="mark-symbol role-legend-symbol" pointer-events="none"><path transform="translate(6,6)" d="M-5,-5h10v10h-10Z" fill="#f58518" stroke-width="1.5" opacity="1"></path></g><g class="mark-text role-legend-label" pointer-events="none"><text text-anchor="start" transform="translate(16,9)" font-family="sans-serif" font-size="10px" fill="#000" opacity="1">Nazi Rule</text></g></g><path class="foreground" aria-hidden="true" d="" pointer-events="none" display="none"></path></g></g></g><path class="foreground" aria-hidden="true" d="" pointer-events="none" display="none"></path></g></g><g class="mark-text role-legend-title" pointer-events="none"><text text-anchor="start" transform="translate(0,9)" font-family="sans-serif" font-size="11px" font-weight="bold" fill="#000" opacity="1">event</text></g></g><path class="foreground" aria-hidden="true" d="" pointer-events="none" display="none"></path></g></g></g><path class="foreground" aria-hidden="true" d="" display="none"></path></g></g></g></svg>