<svg xmlns="http://www.w3.org/2000/svg" xmlns:xlink="http://www.w3.org/1999/xlink" version="1.1" class="marks" width="884" height="649" viewBox="0 0 884 649" style="background-color: white;"><g fill="none" stroke-miterlimit="10" transform="translate(79,10)"><g class="mark-group role-frame root" role="graphics-object" aria-roledescription="group mark container"><g transform="translate(0,0)"><path class="background" aria-hidden="true" d="M0.5,0.5h800v600h-800Z" fill="transparent" stroke="#ddd"></path><g><g class="mark-group role-axis" aria-hidden="true"><g transform="translate(0.5,0.5)"><path class="background" aria-hidden="true" d="M0,0h0v0h0Z" pointer-events="none"></path><g><g class="mark-rule role-axis-grid" pointer-events="none"><line transform="translate(0,600)" x2="800" y2="0" stroke="#ddd" stroke-width="1" opacity="1"></line><line transform="translate(0,550)" x2="800" y2="0" stroke="#ddd" stroke-width="1" opacity="1"></line><line transform="translate(0,500)" x2="800" y2="0" stroke="#ddd" stroke-width="1" opacity="1"></line><line transform="translate(0,450)" x2="800" y2="0" stroke="#ddd" stroke-width="1" opacity="1"></line><line transform="translate(0,400)" x2="800" y2="0" stroke="#ddd" stroke-width="1" opacity="1"></line><line transform="translate(0,350)" x2="800" y2="0" stroke="#ddd" stroke-width="1" opacity="1"></line><line transform="translate(0,300)" x2="800" y2="0" stroke="#ddd" stroke-width="1" opacity="1"></line><line transform="translate(0,250)" x2="800" y2="0" stroke="#ddd" stroke-width="1" opacity="1"></line><line transform="translate(0,200)" x2="800" y2="0" stroke="#ddd" stroke-width="1" opacity="1"></line><line transform="translate(0,150)" x2="800" y2="0" stroke="#ddd" stroke-width="1" opacity="1"></line><line transform="translate(0,100)" x2="800" y2="0" stroke="#ddd" stroke-width="1" opacity="1"></line><line transform="translate(0,50)" x2="800" y2="0" stroke="#ddd" stroke-width="1" opacity="1"></line><line transform="translate(0,0)" x2="800" y2="0" stroke="#ddd" stroke-width="1" opacity="1"></line></g></g><path class="foreground" aria-hidden="true" d="" pointer-events="none" display="none"></path></g></g><g class="mark-group role-axis" role="graphics-symbol" aria-roledescription="axis" aria-label="X-axis titled 'age' for a discrete scale with 19 values: 0, 5, 10, 15, 20, ending with 90"><g transform="translate(0.5,600.5)"><path class="background" aria-hidden="true" d="M0,0h0v0h0Z" pointer-events="none"></path><g><g class="mark-rule role-axis-tick" pointer-events="none"><line transform="translate(21,0)" x2="0" y2="5" stroke="#888" stroke-width="1" opacity="1"></line><line transform="translate(63,0)" x2="0" y2="5" stroke="#888" stroke-width="1" opacity="1"></line><line transform="translate(105,0)" x2="0" y2="5" stroke="#888" stroke-width="1" opacity="1"></line><line transform="translate(147,0)" x2="0" y2="5" stroke="#888" stroke-width="1" opacity="1"></line><line transform="translate(189,0)" x2="0" y2="5" stroke="#888" stroke-width="1" opacity="1"></line><line transform="translate(231,0)" x2="0" y2="5" stroke="#888" stroke-width="1" opacity="1"></line><line transform="translate(273,0)" x2="0" y2="5" stroke="#888" stroke-width="1" opacity="1"></line><line transform="translate(315,0)" x2="0" y2="5" stroke="#888" stroke-width="1" opacity="1"></line><line transform="translate(357,0)" x2="0" y2="5" stroke="#888" stroke-width="1" opacity="1"></line><line transform="translate(400,0)" x2="0" y2="5" stroke="#888" stroke-width="1" opacity="1"></line><line transform="translate(442,0)" x2="0" y2="5" stroke="#888" stroke-width="1" opacity="1"></line><line transform="translate(484,0)" x2="0" y2="5" stroke="#888" stroke-width="1" opacity="1"></line><line transform="translate(526,0)" x2="0" y2="5" stroke="#888" stroke-width="1" opacity="1"></line><line transform="translate(568,0)" x2="0" y2="5" stroke="#888" stroke-width="1" opacity="1"></line><line transform="translate(610,0)" x2="0" y2="5" stroke="#888" stroke-width="1" opacity="1"></line><line transform="translate(652,0)" x2="0" y2="5" stroke="#888" stroke-width="1" opacity="1"></line><line transform="translate(694,0)" x2="0" y2="5" stroke="#888" stroke-width="1" opacity="1"></line><line transform="translate(736,0)" x2="0" y2="5" stroke="#888" stroke-width="1" opacity="1"></line><line transform="translate(778,0)" x2="0" y2="5" stroke="#888" stroke-width="1" opacity="1"></line></g><g class="mark-text role-axis-label" pointer-events="none"><text text-anchor="end" transform="translate(20.55263157894737,7) rotate(270) translate(0,3)" font-family="sans-serif" font-size="10px" fill="#000" opacity="1">0</text><text text-anchor="end" transform="translate(62.65789473684211,7) rotate(270) translate(0,3)" font-family="sans-serif" font-size="10px" fill="#000" opacity="1">5</text><text text-anchor="end" transform="translate(104.76315789473685,7) rotate(270) translate(0,3)" font-family="sans-serif" font-size="10px" fill="#000" opacity="1">10</text><text text-anchor="end" transform="translate(146.8684210526316,7) rotate(270) translate(0,3)" font-family="sans-serif" font-size="10px" fill="#000" opacity="1">15</text><text text-anchor="end" transform="translate(188.97368421052633,7) rotate(270) translate(0,3)" font-family="sans-serif" font-size="10px" fill="#000" opacity="1">20</text><text text-anchor="end" transform="translate(231.07894736842107,7) rotate(270) translate(0,3)" font-family="sans-serif" font-size="10px" fill="#000" opacity="1">25</text><text text-anchor="end" transform="translate(273.18421052631584,7) rotate(270) translate(0,3)" font-family="sans-serif" font-size="10px" fill="#000" opacity="1">30</text><text text-anchor="end" transform="translate(315.2894736842105,7) rotate(270) translate(0,3)" font-family="sans-serif" font-size="10px" fill="#000" opacity="1">35</text><text text-anchor="end" transform="translate(357.3947368421053,7) rotate(270) translate(0,3)" font-family="sans-serif" font-size="10px" fill="#000" opacity="1">40</text><text text-anchor="end" transform="translate(399.5,7) rotate(270) translate(0,3)" font-family="sans-serif" font-size="10px" fill="#000" opacity="1">45</text><text text-anchor="end" transform="translate(441.6052631578948,7) rotate(270) translate(0,3)" font-family="sans-serif" font-size="10px" fill="#000" opacity="1">50</text><text text-anchor="end" transform="translate(483.7105263157895,7) rotate(270) translate(0,3)" font-family="sans-serif" font-size="10px" fill="#000" opacity="1">55</text><text text-anchor="end" transform="translate(525.8157894736843,7) rotate(270) translate(0,3)" font-family="sans-serif" font-size="10px" fill="#000" opacity="1">60</text><text text-anchor="end" transform="translate(567.9210526315791,7) rotate(270) translate(0,3)" font-family="sans-serif" font-size="10px" fill="#000" opacity="1">65</text><text text-anchor="end" transform="translate(610.0263157894738,7) rotate(270) translate(0,3)" font-family="sans-serif" font-size="10px" fill="#000" opacity="1">70</text><text text-anchor="end" transform="translate(652.1315789473684,7) rotate(270) translate(0,3)" font-family="sans-serif" font-size="10px" fill="#000" opacity="1">75</text><text text-anchor="end" transform="translate(694.2368421052632,7) rotate(270) translate(0,3)" font-family="sans-serif" font-size="10px" fill="#000" opacity="1">80</text><text text-anchor="end" transform="translate(736.342105263158,7) rotate(270) translate(0,3)" font-family="sans-serif" font-size="10px" fill="#000" opacity="1">85</text><text text-anchor="end" transform="translate(778.4473684210527,7) rotate(270) translate(0,3)" font-family="sans-serif" font-size="10px" fill="#000" opacity="1">90</text></g><g class="mark-rule role-axis-domain" pointer-events="none"><line transform="translate(0,0)" x2="800" y2="0" stroke="#888" stroke-width="1" opacity="1"></line></g><g class="mark-text role-axis-title" pointer-events="none"><text text-anchor="middle" transform="translate(400,31.728515625)" font-family="sans-serif" font-size="11px" font-weight="bold" fill="#000" opacity="1">age</text></g></g><path class="foreground" aria-hidden="true" d="" pointer-events="none" display="none"></path></g></g><g class="mark-group role-axis" role="graphics-symbol" aria-roledescription="axis" aria-label="Y-axis titled 'population' for a linear scale with values from 0 to 12,000,000"><g transform="translate(0.5,0.5)"><path class="background" aria-hidden="true" d="M0,0h0v0h0Z" pointer-events="none"></path><g><g class="mark-rule role-axis-tick" pointer-events="none"><line transform="translate(0,600)" x2="-5" y2="0" stroke="#888" stroke-width="1" opacity="1"></line><line transform="translate(0,550)" x2="-5" y2="0" stroke="#888" stroke-width="1" opacity="1"></line><line transform="translate(0,500)" x2="-5" y2="0" stroke="#888" stroke-width="1" opacity="1"></line><line transform="translate(0,450)" x2="-5" y2="0" stroke="#888" stroke-width="1" opacity="1"></line><line transform="translate(0,400)" x2="-5" y2="0" stroke="#888" stroke-width="1" opacity="1"></line><line transform="translate(0,350)" x2="-5" y2="0" stroke="#888" stroke-width="1" opacity="1"></line><line transform="translate(0,300)" x2="-5" y2="0" stroke="#888" stroke-width="1" opacity="1"></line><line transform="translate(0,250)" x2="-5" y2="0" stroke="#888" stroke-width="1" opacity="1"></line><line transform="translate(0,200)" x2="-5" y2="0" stroke="#888" stroke-width="1" opacity="1"></line><line transform="translate(0,150)" x2="-5" y2="0" stroke="#888" stroke-width="1" opacity="1"></line><line transform="translate(0,100)" x2="-5" y2="0" stroke="#888" stroke-width="1" opacity="1"></line><line transform="translate(0,50)" x2="-5" y2="0" stroke="#888" stroke-width="1" opacity="1"></line><line transform="translate(0,0)" x2="-5" y2="0" stroke="#888" stroke-width="1" opacity="1"></line></g><g class="mark-text role-axis-label" pointer-events="none"><text text-anchor="end" transform="translate(-7,603)" font-family="sans-serif" font-size="10px" fill="#000" opacity="1">0</text><text text-anchor="end" transform="translate(-7,553)" font-family="sans-serif" font-size="10px" fill="#000" opacity="1">1,000,000</text><text text-anchor="end" transform="translate(-7,503)" font-family="sans-serif" font-size="10px" fill="#000" opacity="1">2,000,000</text><text text-anchor="end" transform="translate(-7,453)" font-family="sans-serif" font-size="10px" fill="#000" opacity="1">3,000,000</text><text text-anchor="end" transform="translate(-7,403.00000000000006)" font-family="sans-serif" font-size="10px" fill="#000" opacity="1">4,000,000</text><text text-anchor="end" transform="translate(-7,352.99999999999994)" font-family="sans-serif" font-size="10px" fill="#000" opacity="1">5,000,000</text><text text-anchor="end" transform="translate(-7,303)" font-family="sans-serif" font-size="10px" fill="#000" opacity="1">6,000,000</text><text text-anchor="end" transform="translate(-7,252.99999999999997)" font-family="sans-serif" font-size="10px" fill="#000" opacity="1">7,000,000</text><text text-anchor="end" transform="translate(-7,203.00000000000003)" font-family="sans-serif" font-size="10px" fill="#000" opacity="1">8,000,000</text><text text-anchor="end" transform="translate(-7,153)" font-family="sans-serif" font-size="10px" fill="#000" opacity="1">9,000,000</text><text text-anchor="end" transform="translate(-7,102.99999999999997)" font-family="sans-serif" font-size="10px" fill="#000" opacity="1">10,000,000</text><text text-anchor="end" transform="translate(-7,53.00000000000002)" font-family="sans-serif" font-size="10px" fill="#000" opacity="1">11,000,000</text><text text-anchor="end" transform="translate(-7,3)" font-family="sans-serif" font-size="10px" fill="#000" opacity="1">12,000,000</text></g><g class="mark-rule role-axis-domain" pointer-events="none"><line transform="translate(0,600)" x2="0" y2="-600" stroke="#888" stroke-width="1" opacity="1"></line></g><g class="mark-text role-axis-title" pointer-events="none"><text text-anchor="middle" transform="translate(-62.728515625,300) rotate(-90) translate(0,-2)" font-family="sans-serif" font-size="11px" font-weight="bold" fill="#000" opacity="1">population</text></g></g><path class="foreground" aria-hidden="true" d="" pointer-events="none" display="none"></path></g></g><g class="mark-rule role-mark layer_0_marks" aria-hidden="true"><line transform="translate(21.05263157894737,527.4812000000001)" x2="0" y2="-117.358475" stroke="black"></line><line transform="translate(63.15789473684211,532.0166)" x2="0" y2="-110.55399999999997" stroke="black"></line><line transform="translate(105.26315789473685,539.1943)" x2="0" y2="-98.41331250000002" stroke="black"></line><line transform="translate(147.3684210526316,546.14335)" x2="0" y2="-88.12210000000005" stroke="black"></line><line transform="translate(189.47368421052633,549.80795)" x2="0" y2="-91.52517499999999" stroke="black"></line><line transform="translate(231.57894736842107,560.0259)" x2="0" y2="-79.95383749999996" stroke="black"></line><line transform="translate(273.68421052631584,568.0182)" x2="0" y2="-66.92438749999997" stroke="black"></line><line transform="translate(315.7894736842105,574.7493999999999)" x2="0" y2="-61.8750624999999" stroke="black"></line><line transform="translate(357.8947368421053,578.59075)" x2="0" y2="-50.13189999999997" stroke="black"></line><line transform="translate(400,582.9372999999999)" x2="0" y2="-43.51159999999993" stroke="black"></line><line transform="translate(442.1052631578948,585.6709999999999)" x2="0" y2="-39.48891249999997" stroke="black"></line><line transform="translate(484.2105263157895,590.6396)" x2="0" y2="-29.415512499999977" stroke="black"></line><line transform="translate(526.3157894736843,591.8882)" x2="0" y2="-24.743225000000052" stroke="black"></line><line transform="translate(568.4210526315791,594.7233)" x2="0" y2="-16.57837500000005" stroke="black"></line><line transform="translate(610.5263157894738,596.4119)" x2="0" y2="-11.490312499999959" stroke="black"></line><line transform="translate(652.6315789473684,597.98855)" x2="0" y2="-6.69377499999996" stroke="black"></line><line transform="translate(694.7368421052632,598.8525500000001)" x2="0" y2="-3.3438625" stroke="black"></line><line transform="translate(736.842105263158,599.5907)" x2="0" y2="-1.3118124999999736" stroke="black"></line><line transform="translate(778.9473684210527,599.7370500000001)" x2="0" y2="-0.498837500000036" stroke="black"></line></g><g class="mark-rule role-mark layer_1_marks" aria-hidden="true"><line transform="translate(21.05263157894737,179.4376875)" x2="0" y2="-98.1864375" stroke="black"></line><line transform="translate(63.15789473684211,161.4925625)" x2="0" y2="-89.09986249999999" stroke="black"></line><line transform="translate(105.26315789473685,174.64520000000002)" x2="0" y2="-112.46535000000003" stroke="black"></line><line transform="translate(147.3684210526316,195.0765625)" x2="0" y2="-130.01936250000003" stroke="black"></line><line transform="translate(189.47368421052633,236.4549)" x2="0" y2="-167.20225" stroke="black"></line><line transform="translate(231.57894736842107,275.80956249999997)" x2="0" y2="-208.71091249999995" stroke="black"></line><line transform="translate(273.68421052631584,305.78781250000003)" x2="0" y2="-261.0753125" stroke="black"></line><line transform="translate(315.7894736842105,301.284875)" x2="0" y2="-283.067225" stroke="black"></line><line transform="translate(357.8947368421053,314.40297499999997)" x2="0" y2="-288.83187499999997" stroke="black"></line><line transform="translate(400,326.32822500000003)" x2="0" y2="-239.39087500000005" stroke="black"></line><line transform="translate(442.1052631578948,339.70275000000004)" x2="0" y2="-185.25940000000006" stroke="black"></line><line transform="translate(484.2105263157895,366.3548625)" x2="0" y2="-112.41826250000003" stroke="black"></line><line transform="translate(526.3157894736843,402.04040000000003)" x2="0" y2="-85.48845000000006" stroke="black"></line><line transform="translate(568.4210526315791,438.1412125)" x2="0" y2="-117.84661249999999" stroke="black"></line><line transform="translate(610.5263157894738,476.37171250000006)" x2="0" y2="-135.61446250000006" stroke="black"></line><line transform="translate(652.6315789473684,518.457725)" x2="0" y2="-136.23992500000003" stroke="black"></line><line transform="translate(694.7368421052632,556.0572874999999)" x2="0" y2="-117.15218749999991" stroke="black"></line><line transform="translate(736.842105263158,580.9395125)" x2="0" y2="-79.99731249999996" stroke="black"></line><line transform="translate(778.9473684210527,591.309)" x2="0" y2="-44.53805" stroke="black"></line></g><g class="mark-rect role-mark layer_2_marks" role="graphics-object" aria-roledescription="rect mark container"><path aria-label="age: 0; people: 3797545.5; upper_box_people: 8411246.25; Max of people: 10374975; Q3 of people: 8411246.25; Median of people: 5678387; Q1 of people: 3797545.5; Min of people: 1450376" role="graphics-symbol" aria-roledescription="box" d="M14.05263157894737,179.4376875h14v230.68503750000005h-14Z" fill="#4c78a8"></path><path aria-label="age: 5; people: 3570748; upper_box_people: 8770148.75; Max of people: 10552146; Q3 of people: 8770148.75; Median of people: 5741484; Q1 of people: 3570748; Min of people: 1359668" role="graphics-symbol" aria-roledescription="box" d="M56.15789473684211,161.4925625h14v259.9700375000001h-14Z" fill="#4c78a8"></path><path aria-label="age: 10; people: 3184380.25; upper_box_people: 8507096; Max of people: 10756403; Q3 of people: 8507096; Median of people: 5530289.5; Q1 of people: 3184380.25; Min of people: 1216114" role="graphics-symbol" aria-roledescription="box" d="M98.26315789473685,174.64520000000002h14v266.1357875h-14Z" fill="#4c78a8"></path><path aria-label="age: 15; people: 2839575; upper_box_people: 8098468.75; Max of people: 10698856; Q3 of people: 8098468.75; Median of people: 5276435.5; Q1 of people: 2839575; Min of people: 1077133" role="graphics-symbol" aria-roledescription="box" d="M140.3684210526316,195.0765625h14v262.9446875h-14Z" fill="#4c78a8"></path><path aria-label="age: 20; people: 2834344.5; upper_box_people: 7270902; Max of people: 10614947; Q3 of people: 7270902; Median of people: 5287188; Q1 of people: 2834344.5; Min of people: 1003841" role="graphics-symbol" aria-roledescription="box" d="M182.47368421052633,236.4549h14v221.827875h-14Z" fill="#4c78a8"></path><path aria-label="age: 25; people: 2398558.75; upper_box_people: 6483808.75; Max of people: 10658027; Q3 of people: 6483808.75; Median of people: 4990041; Q1 of people: 2398558.75; Min of people: 799482" role="graphics-symbol" aria-roledescription="box" d="M224.57894736842107,275.80956249999997h14v204.26250000000005h-14Z" fill="#4c78a8"></path><path aria-label="age: 30; people: 1978123.75; upper_box_people: 5884243.75; Max of people: 11105750; Q3 of people: 5884243.75; Median of people: 4439810.5; Q1 of people: 1978123.75; Min of people: 639636" role="graphics-symbol" aria-roledescription="box" d="M266.68421052631584,305.78781250000003h14v195.30599999999998h-14Z" fill="#4c78a8"></path><path aria-label="age: 35; people: 1742513.25; upper_box_people: 5974302.5; Max of people: 11635647; Q3 of people: 5974302.5; Median of people: 4585153.5; Q1 of people: 1742513.25; Min of people: 505012" role="graphics-symbol" aria-roledescription="box" d="M308.7894736842105,301.284875h14v211.58946250000002h-14Z" fill="#4c78a8"></path><path aria-label="age: 40; people: 1430823; upper_box_people: 5711940.5; Max of people: 11488578; Q3 of people: 5711940.5; Median of people: 3914580.5; Q1 of people: 1430823; Min of people: 428185" role="graphics-symbol" aria-roledescription="box" d="M350.8947368421053,314.40297499999997h14v214.05587500000001h-14Z" fill="#4c78a8"></path><path aria-label="age: 45; people: 1211486; upper_box_people: 5473435.5; Max of people: 10261253; Q3 of people: 5473435.5; Median of people: 3514855; Q1 of people: 1211486; Min of people: 341254" role="graphics-symbol" aria-roledescription="box" d="M393,326.32822500000003h14v213.09747499999997h-14Z" fill="#4c78a8"></path><path aria-label="age: 50; people: 1076358.25; upper_box_people: 5205945; Max of people: 8911133; Q3 of people: 5205945; Median of people: 2968649.5; Q1 of people: 1076358.25; Min of people: 286580" role="graphics-symbol" aria-roledescription="box" d="M435.1052631578948,339.70275000000004h14v206.47933749999993h-14Z" fill="#4c78a8"></path><path aria-label="age: 55; people: 775518.25; upper_box_people: 4672902.75; Max of people: 6921268; Q3 of people: 4672902.75; Median of people: 2366345.5; Q1 of people: 775518.25; Min of people: 187208" role="graphics-symbol" aria-roledescription="box" d="M477.2105263157895,366.3548625h14v194.86922499999997h-14Z" fill="#4c78a8"></path><path aria-label="age: 60; people: 657100.5; upper_box_people: 3959192; Max of people: 5668961; Q3 of people: 3959192; Median of people: 1855539.5; Q1 of people: 657100.5; Min of people: 162236" role="graphics-symbol" aria-roledescription="box" d="M519.3157894736843,402.04040000000003h14v165.1045749999999h-14Z" fill="#4c78a8"></path><path aria-label="age: 65; people: 437101.5; upper_box_people: 3237175.75; Max of people: 5594108; Q3 of people: 3237175.75; Median of people: 1352293.5; Q1 of people: 437101.5; Min of people: 105534" role="graphics-symbol" aria-roledescription="box" d="M561.4210526315791,438.1412125h14v140.00371249999995h-14Z" fill="#4c78a8"></path><path aria-label="age: 70; people: 301568.25; upper_box_people: 2472565.75; Max of people: 5184855; Q3 of people: 2472565.75; Median of people: 918777; Q1 of people: 301568.25; Min of people: 71762" role="graphics-symbol" aria-roledescription="box" d="M603.5263157894738,476.37171250000006h14v108.54987499999993h-14Z" fill="#4c78a8"></path><path aria-label="age: 75; people: 174104.5; upper_box_people: 1630845.5; Max of people: 4355644; Q3 of people: 1630845.5; Median of people: 529545.5; Q1 of people: 174104.5; Min of people: 40229" role="graphics-symbol" aria-roledescription="box" d="M645.6315789473684,518.457725h14v72.83705000000009h-14Z" fill="#4c78a8"></path><path aria-label="age: 80; people: 89826.25; upper_box_people: 878854.25; Max of people: 3221898; Q3 of people: 878854.25; Median of people: 265143.5; Q1 of people: 89826.25; Min of people: 22949" role="graphics-symbol" aria-roledescription="box" d="M687.7368421052632,556.0572874999999h14v39.45140000000015h-14Z" fill="#4c78a8"></path><path aria-label="age: 85; people: 34422.25; upper_box_people: 381209.75; Max of people: 1981156; Q3 of people: 381209.75; Median of people: 101019.5; Q1 of people: 34422.25; Min of people: 8186" role="graphics-symbol" aria-roledescription="box" d="M729.842105263158,580.9395125h14v17.339375000000018h-14Z" fill="#4c78a8"></path><path aria-label="age: 90; people: 15235.75; upper_box_people: 173820; Max of people: 1064581; Q3 of people: 173820; Median of people: 37174; Q1 of people: 15235.75; Min of people: 5259" role="graphics-symbol" aria-roledescription="box" d="M771.9473684210527,591.309h14v7.929212500000062h-14Z" fill="#4c78a8"></path></g><g class="mark-rect role-mark layer_3_marks" aria-hidden="true"><path d="M14.05263157894737,315.58065h14v1h-14Z" fill="white" opacity="0.7"></path><path d="M56.15789473684211,312.4258h14v1h-14Z" fill="white" opacity="0.7"></path><path d="M98.26315789473685,322.985525h14v1h-14Z" fill="white" opacity="0.7"></path><path d="M140.3684210526316,335.67822499999994h14v1h-14Z" fill="white" opacity="0.7"></path><path d="M182.47368421052633,335.1406h14v1h-14Z" fill="white" opacity="0.7"></path><path d="M224.57894736842107,349.99795h14v1h-14Z" fill="white" opacity="0.7"></path><path d="M266.68421052631584,377.509475h14v1h-14Z" fill="white" opacity="0.7"></path><path d="M308.7894736842105,370.242325h14v1h-14Z" fill="white" opacity="0.7"></path><path d="M350.8947368421053,403.77097499999996h14v1h-14Z" fill="white" opacity="0.7"></path><path d="M393,423.75725h14v1h-14Z" fill="white" opacity="0.7"></path><path d="M435.1052631578948,451.067525h14v1h-14Z" fill="white" opacity="0.7"></path><path d="M477.2105263157895,481.182725h14v1h-14Z" fill="white" opacity="0.7"></path><path d="M519.3157894736843,506.723025h14v1h-14Z" fill="white" opacity="0.7"></path><path d="M561.4210526315791,531.885325h14v1h-14Z" fill="white" opacity="0.7"></path><path d="M603.5263157894738,553.56115h14v1h-14Z" fill="white" opacity="0.7"></path><path d="M645.6315789473684,573.022725h14v1h-14Z" fill="white" opacity="0.7"></path><path d="M687.7368421052632,586.242825h14v1h-14Z" fill="white" opacity="0.7"></path><path d="M729.842105263158,594.449025h14v1h-14Z" fill="white" opacity="0.7"></path><path d="M771.9473684210527,597.6413h14v1h-14Z" fill="white" opacity="0.7"></path></g></g><path class="foreground" aria-hidden="true" d="" display="none"></path></g></g></g></svg>