<svg xmlns="http://www.w3.org/2000/svg" xmlns:xlink="http://www.w3.org/1999/xlink" version="1.1" class="marks" width="300" height="200" viewBox="0 0 300 200" style="background-color: white;"><g fill="none" stroke-miterlimit="10" transform="translate(0,0)"><g class="mark-group role-frame root" role="graphics-object" aria-roledescription="group mark container"><g transform="translate(0,0)"><path class="background" aria-hidden="true" d="M0,0h200v200h-200Z" fill="transparent"></path><g><g class="mark-arc role-mark Pac_Man_Pie_Chart_marks" role="graphics-object" aria-roledescription="arc mark container"><path aria-label="value: 305; category: Pac-Man; order: 1" role="graphics-symbol" aria-roledescription="arc mark" transform="translate(100,100)" d="M88.705,-46.168A100,100,0,1,0,88.69,46.196L0,0Z" fill="#f2af29" opacity="1"></path><path aria-label="value: 55; category: Not Pac-Man; order: 2" role="graphics-symbol" aria-roledescription="arc mark" transform="translate(100,100)" d="M88.699,46.18A100,100,0,0,0,88.705,-46.168L0,0Z" fill="#44475a" opacity="1"></path></g><g class="mark-group role-legend" role="graphics-symbol" aria-roledescription="legend" aria-label="Symbol legend for fill color with 2 values: Pac-Man, Not Pac-Man"><g transform="translate(220,87.5)"><path class="background" aria-hidden="true" d="M0,0h80v24h-80Z" pointer-events="none" fill="transparent"></path><g><g class="mark-group role-legend-entry"><g transform="translate(0,0)"><path class="background" aria-hidden="true" d="M0,0h0v0h0Z" pointer-events="none"></path><g><g class="mark-group role-scope category_legend_entries" role="graphics-object" aria-roledescription="group mark container"><g transform="translate(0,0)"><path class="background" aria-hidden="true" d="M0,0h79.271484375v11h-79.271484375Z" fill="transparent" opacity="1"></path><g><g class="mark-symbol role-legend-symbol category_legend_symbols"><path transform="translate(6,6)" d="M5,0A5,5,0,1,1,-5,0A5,5,0,1,1,5,0" fill="#f2af29" stroke-width="1.5" opacity="1"></path></g><g class="mark-text role-legend-label category_legend_labels"><text text-anchor="start" transform="translate(16,9)" font-family="Roboto" font-size="10px" fill="#44475a" opacity="1">Pac-Man</text></g></g><path class="foreground" aria-hidden="true" d="" display="none"></path></g><g transform="translate(0,13)"><path class="background" aria-hidden="true" d="M0,0h79.271484375v11h-79.271484375Z" fill="transparent" opacity="1"></path><g><g class="mark-symbol role-legend-symbol category_legend_symbols"><path transform="translate(6,6)" d="M5,0A5,5,0,1,1,-5,0A5,5,0,1,1,5,0" fill="#44475a" stroke-width="1.5" opacity="1"></path></g><g class="mark-text role-legend-label category_legend_labels"><text text-anchor="start" transform="translate(16,9)" font-family="Roboto" font-size="10px" fill="#44475a" opacity="1">Not Pac-Man</text></g></g><path class="foreground" aria-hidden="true" d="" display="none"></path></g></g></g><path class="foreground" aria-hidden="true" d="" pointer-events="none" display="none"></path></g></g></g><path class="foreground" aria-hidden="true" d="" pointer-events="none" display="none"></path></g></g></g><path class="foreground" aria-hidden="true" d="" display="none"></path></g></g></g></svg>