<svg xmlns="http://www.w3.org/2000/svg" xmlns:xlink="http://www.w3.org/1999/xlink" version="1.1" class="marks" width="600" height="647" viewBox="0 0 600 647" style="background-color: white;"><g fill="none" stroke-miterlimit="10" transform="translate(79,10)"><g class="mark-group role-frame root" role="graphics-object" aria-roledescription="group mark container"><g transform="translate(0,0)"><path class="background" aria-hidden="true" d="M0.5,0.5h516v600h-516Z" fill="transparent" stroke="#ddd"></path><g><g class="mark-group role-axis" aria-hidden="true"><g transform="translate(0.5,600.5)"><path class="background" aria-hidden="true" d="M0,0h0v0h0Z" pointer-events="none"></path><g><g class="mark-rule role-axis-grid" pointer-events="none"><line transform="translate(14,-600)" x2="0" y2="600" stroke="#ddd" stroke-width="1" opacity="1"></line><line transform="translate(52,-600)" x2="0" y2="600" stroke="#ddd" stroke-width="1" opacity="1"></line><line transform="translate(91,-600)" x2="0" y2="600" stroke="#ddd" stroke-width="1" opacity="1"></line><line transform="translate(130,-600)" x2="0" y2="600" stroke="#ddd" stroke-width="1" opacity="1"></line><line transform="translate(169,-600)" x2="0" y2="600" stroke="#ddd" stroke-width="1" opacity="1"></line><line transform="translate(208,-600)" x2="0" y2="600" stroke="#ddd" stroke-width="1" opacity="1"></line><line transform="translate(246,-600)" x2="0" y2="600" stroke="#ddd" stroke-width="1" opacity="1"></line><line transform="translate(285,-600)" x2="0" y2="600" stroke="#ddd" stroke-width="1" opacity="1"></line><line transform="translate(324,-600)" x2="0" y2="600" stroke="#ddd" stroke-width="1" opacity="1"></line><line transform="translate(363,-600)" x2="0" y2="600" stroke="#ddd" stroke-width="1" opacity="1"></line><line transform="translate(402,-600)" x2="0" y2="600" stroke="#ddd" stroke-width="1" opacity="1"></line><line transform="translate(440,-600)" x2="0" y2="600" stroke="#ddd" stroke-width="1" opacity="1"></line><line transform="translate(479,-600)" x2="0" y2="600" stroke="#ddd" stroke-width="1" opacity="1"></line></g></g><path class="foreground" aria-hidden="true" d="" pointer-events="none" display="none"></path></g></g><g class="mark-group role-axis" aria-hidden="true"><g transform="translate(0.5,0.5)"><path class="background" aria-hidden="true" d="M0,0h0v0h0Z" pointer-events="none"></path><g><g class="mark-rule role-axis-grid" pointer-events="none"><line transform="translate(0,600)" x2="516" y2="0" stroke="#ddd" stroke-width="1" opacity="1"></line><line transform="translate(0,574)" x2="516" y2="0" stroke="#ddd" stroke-width="1" opacity="1"></line><line transform="translate(0,559)" x2="516" y2="0" stroke="#ddd" stroke-width="1" opacity="1"></line><line transform="translate(0,548)" x2="516" y2="0" stroke="#ddd" stroke-width="1" opacity="1"></line><line transform="translate(0,540)" x2="516" y2="0" stroke="#ddd" stroke-width="1" opacity="1"></line><line transform="translate(0,533)" x2="516" y2="0" stroke="#ddd" stroke-width="1" opacity="1"></line><line transform="translate(0,528)" x2="516" y2="0" stroke="#ddd" stroke-width="1" opacity="1"></line><line transform="translate(0,523)" x2="516" y2="0" stroke="#ddd" stroke-width="1" opacity="1"></line><line transform="translate(0,518)" x2="516" y2="0" stroke="#ddd" stroke-width="1" opacity="1"></line><line transform="translate(0,514)" x2="516" y2="0" stroke="#ddd" stroke-width="1" opacity="1"></line><line transform="translate(0,488)" x2="516" y2="0" stroke="#ddd" stroke-width="1" opacity="1"></line><line transform="translate(0,473)" x2="516" y2="0" stroke="#ddd" stroke-width="1" opacity="1"></line><line transform="translate(0,463)" x2="516" y2="0" stroke="#ddd" stroke-width="1" opacity="1"></line><line transform="translate(0,454)" x2="516" y2="0" stroke="#ddd" stroke-width="1" opacity="1"></line><line transform="translate(0,448)" x2="516" y2="0" stroke="#ddd" stroke-width="1" opacity="1"></line><line transform="translate(0,442)" x2="516" y2="0" stroke="#ddd" stroke-width="1" opacity="1"></line><line transform="translate(0,437)" x2="516" y2="0" stroke="#ddd" stroke-width="1" opacity="1"></line><line transform="translate(0,432)" x2="516" y2="0" stroke="#ddd" stroke-width="1" opacity="1"></line><line transform="translate(0,429)" x2="516" y2="0" stroke="#ddd" stroke-width="1" opacity="1"></line><line transform="translate(0,403)" x2="516" y2="0" stroke="#ddd" stroke-width="1" opacity="1"></line><line transform="translate(0,388)" x2="516" y2="0" stroke="#ddd" stroke-width="1" opacity="1"></line><line transform="translate(0,377)" x2="516" y2="0" stroke="#ddd" stroke-width="1" opacity="1"></line><line transform="translate(0,369)" x2="516" y2="0" stroke="#ddd" stroke-width="1" opacity="1"></line><line transform="translate(0,362)" x2="516" y2="0" stroke="#ddd" stroke-width="1" opacity="1"></line><line transform="translate(0,356)" x2="516" y2="0" stroke="#ddd" stroke-width="1" opacity="1"></line><line transform="translate(0,351)" x2="516" y2="0" stroke="#ddd" stroke-width="1" opacity="1"></line><line transform="translate(0,347)" x2="516" y2="0" stroke="#ddd" stroke-width="1" opacity="1"></line><line transform="translate(0,343)" x2="516" y2="0" stroke="#ddd" stroke-width="1" opacity="1"></line><line transform="translate(0,317)" x2="516" y2="0" stroke="#ddd" stroke-width="1" opacity="1"></line><line transform="translate(0,302)" x2="516" y2="0" stroke="#ddd" stroke-width="1" opacity="1"></line><line transform="translate(0,291)" x2="516" y2="0" stroke="#ddd" stroke-width="1" opacity="1"></line><line transform="translate(0,283)" x2="516" y2="0" stroke="#ddd" stroke-width="1" opacity="1"></line><line transform="translate(0,276)" x2="516" y2="0" stroke="#ddd" stroke-width="1" opacity="1"></line><line transform="translate(0,270)" x2="516" y2="0" stroke="#ddd" stroke-width="1" opacity="1"></line><line transform="translate(0,265)" x2="516" y2="0" stroke="#ddd" stroke-width="1" opacity="1"></line><line transform="translate(0,261)" x2="516" y2="0" stroke="#ddd" stroke-width="1" opacity="1"></line><line transform="translate(0,257)" x2="516" y2="0" stroke="#ddd" stroke-width="1" opacity="1"></line><line transform="translate(0,231)" x2="516" y2="0" stroke="#ddd" stroke-width="1" opacity="1"></line><line transform="translate(0,216)" x2="516" y2="0" stroke="#ddd" stroke-width="1" opacity="1"></line><line transform="translate(0,206)" x2="516" y2="0" stroke="#ddd" stroke-width="1" opacity="1"></line><line transform="translate(0,197)" x2="516" y2="0" stroke="#ddd" stroke-width="1" opacity="1"></line><line transform="translate(0,190)" x2="516" y2="0" stroke="#ddd" stroke-width="1" opacity="1"></line><line transform="translate(0,185)" x2="516" y2="0" stroke="#ddd" stroke-width="1" opacity="1"></line><line transform="translate(0,180)" x2="516" y2="0" stroke="#ddd" stroke-width="1" opacity="1"></line><line transform="translate(0,175)" x2="516" y2="0" stroke="#ddd" stroke-width="1" opacity="1"></line><line transform="translate(0,171)" x2="516" y2="0" stroke="#ddd" stroke-width="1" opacity="1"></line><line transform="translate(0,146)" x2="516" y2="0" stroke="#ddd" stroke-width="1" opacity="1"></line><line transform="translate(0,131)" x2="516" y2="0" stroke="#ddd" stroke-width="1" opacity="1"></line><line transform="translate(0,120)" x2="516" y2="0" stroke="#ddd" stroke-width="1" opacity="1"></line><line transform="translate(0,112)" x2="516" y2="0" stroke="#ddd" stroke-width="1" opacity="1"></line><line transform="translate(0,105)" x2="516" y2="0" stroke="#ddd" stroke-width="1" opacity="1"></line><line transform="translate(0,99)" x2="516" y2="0" stroke="#ddd" stroke-width="1" opacity="1"></line><line transform="translate(0,94)" x2="516" y2="0" stroke="#ddd" stroke-width="1" opacity="1"></line><line transform="translate(0,90)" x2="516" y2="0" stroke="#ddd" stroke-width="1" opacity="1"></line><line transform="translate(0,86)" x2="516" y2="0" stroke="#ddd" stroke-width="1" opacity="1"></line><line transform="translate(0,60)" x2="516" y2="0" stroke="#ddd" stroke-width="1" opacity="1"></line><line transform="translate(0,45)" x2="516" y2="0" stroke="#ddd" stroke-width="1" opacity="1"></line><line transform="translate(0,34)" x2="516" y2="0" stroke="#ddd" stroke-width="1" opacity="1"></line><line transform="translate(0,26)" x2="516" y2="0" stroke="#ddd" stroke-width="1" opacity="1"></line><line transform="translate(0,19)" x2="516" y2="0" stroke="#ddd" stroke-width="1" opacity="1"></line><line transform="translate(0,13)" x2="516" y2="0" stroke="#ddd" stroke-width="1" opacity="1"></line><line transform="translate(0,8)" x2="516" y2="0" stroke="#ddd" stroke-width="1" opacity="1"></line><line transform="translate(0,4)" x2="516" y2="0" stroke="#ddd" stroke-width="1" opacity="1"></line><line transform="translate(0,0)" x2="516" y2="0" stroke="#ddd" stroke-width="1" opacity="1"></line></g></g><path class="foreground" aria-hidden="true" d="" pointer-events="none" display="none"></path></g></g><g class="mark-group role-axis" role="graphics-symbol" aria-roledescription="axis" aria-label="X-axis titled 'Year Acquired' for a time scale with values from Monday, 01 January 1753, 12:00:00 AM to Tuesday, 01 January 2019, 12:00:00 AM"><g transform="translate(0.5,600.5)"><path class="background" aria-hidden="true" d="M0,0h0v0h0Z" pointer-events="none"></path><g><g class="mark-rule role-axis-tick" pointer-events="none"><line transform="translate(14,0)" x2="0" y2="5" stroke="#888" stroke-width="1" opacity="1"></line><line transform="translate(52,0)" x2="0" y2="5" stroke="#888" stroke-width="1" opacity="1"></line><line transform="translate(91,0)" x2="0" y2="5" stroke="#888" stroke-width="1" opacity="1"></line><line transform="translate(130,0)" x2="0" y2="5" stroke="#888" stroke-width="1" opacity="1"></line><line transform="translate(169,0)" x2="0" y2="5" stroke="#888" stroke-width="1" opacity="1"></line><line transform="translate(208,0)" x2="0" y2="5" stroke="#888" stroke-width="1" opacity="1"></line><line transform="translate(246,0)" x2="0" y2="5" stroke="#888" stroke-width="1" opacity="1"></line><line transform="translate(285,0)" x2="0" y2="5" stroke="#888" stroke-width="1" opacity="1"></line><line transform="translate(324,0)" x2="0" y2="5" stroke="#888" stroke-width="1" opacity="1"></line><line transform="translate(363,0)" x2="0" y2="5" stroke="#888" stroke-width="1" opacity="1"></line><line transform="translate(402,0)" x2="0" y2="5" stroke="#888" stroke-width="1" opacity="1"></line><line transform="translate(440,0)" x2="0" y2="5" stroke="#888" stroke-width="1" opacity="1"></line><line transform="translate(479,0)" x2="0" y2="5" stroke="#888" stroke-width="1" opacity="1"></line></g><g class="mark-text role-axis-label" pointer-events="none"><text text-anchor="middle" transform="translate(13.575312865216718,15)" font-family="sans-serif" font-size="10px" fill="#000" opacity="1">1760</text><text text-anchor="middle" transform="translate(52.373302098553225,15)" font-family="sans-serif" font-size="10px" fill="#000" opacity="1">1780</text><text text-anchor="middle" transform="translate(91.17129133188973,15)" font-family="sans-serif" font-size="10px" fill="#000" opacity="1">1800</text><text text-anchor="middle" transform="translate(129.96396940995814,15)" font-family="sans-serif" font-size="10px" fill="#000" opacity="1">1820</text><text text-anchor="middle" transform="translate(168.7619586432947,15)" font-family="sans-serif" font-size="10px" fill="#000" opacity="1">1840</text><text text-anchor="middle" transform="translate(207.55994787663118,15)" font-family="sans-serif" font-size="10px" fill="#000" opacity="1">1860</text><text text-anchor="middle" transform="translate(246.35793710996768,15)" font-family="sans-serif" font-size="10px" fill="#000" opacity="1">1880</text><text text-anchor="middle" transform="translate(285.15592634330415,15)" font-family="sans-serif" font-size="10px" fill="#000" opacity="1">1900</text><text text-anchor="middle" transform="translate(323.9486255061673,15)" font-family="sans-serif" font-size="10px" fill="#000" opacity="1">1920</text><text text-anchor="middle" transform="translate(362.7466147395038,15)" font-family="sans-serif" font-size="10px" fill="#000" opacity="1">1940</text><text text-anchor="middle" transform="translate(401.54460397284026,15)" font-family="sans-serif" font-size="10px" fill="#000" opacity="1">1960</text><text text-anchor="middle" transform="translate(440.3425932061768,15)" font-family="sans-serif" font-size="10px" fill="#000" opacity="1">1980</text><text text-anchor="middle" transform="translate(479.1405824395133,15)" font-family="sans-serif" font-size="10px" fill="#000" opacity="1">2000</text></g><g class="mark-rule role-axis-domain" pointer-events="none"><line transform="translate(0,0)" x2="516" y2="0" stroke="#888" stroke-width="1" opacity="1"></line></g><g class="mark-text role-axis-title" pointer-events="none"><text text-anchor="middle" transform="translate(258,30)" font-family="sans-serif" font-size="11px" font-weight="bold" fill="#000" opacity="1">Year Acquired</text></g></g><path class="foreground" aria-hidden="true" d="" pointer-events="none" display="none"></path></g></g><g class="mark-group role-axis" role="graphics-symbol" aria-roledescription="axis" aria-label="Y-axis titled 'max, min' for a log scale with values from 1 to 10,000,000"><g transform="translate(0.5,0.5)"><path class="background" aria-hidden="true" d="M0,0h0v0h0Z" pointer-events="none"></path><g><g class="mark-rule role-axis-tick" pointer-events="none"><line transform="translate(0,600)" x2="-5" y2="0" stroke="#888" stroke-width="1" opacity="1"></line><line transform="translate(0,574)" x2="-5" y2="0" stroke="#888" stroke-width="1" opacity="1"></line><line transform="translate(0,559)" x2="-5" y2="0" stroke="#888" stroke-width="1" opacity="1"></line><line transform="translate(0,548)" x2="-5" y2="0" stroke="#888" stroke-width="1" opacity="1"></line><line transform="translate(0,540)" x2="-5" y2="0" stroke="#888" stroke-width="1" opacity="1"></line><line transform="translate(0,533)" x2="-5" y2="0" stroke="#888" stroke-width="1" opacity="1"></line><line transform="translate(0,528)" x2="-5" y2="0" stroke="#888" stroke-width="1" opacity="1"></line><line transform="translate(0,523)" x2="-5" y2="0" stroke="#888" stroke-width="1" opacity="1"></line><line transform="translate(0,518)" x2="-5" y2="0" stroke="#888" stroke-width="1" opacity="1"></line><line transform="translate(0,514)" x2="-5" y2="0" stroke="#888" stroke-width="1" opacity="1"></line><line transform="translate(0,488)" x2="-5" y2="0" stroke="#888" stroke-width="1" opacity="1"></line><line transform="translate(0,473)" x2="-5" y2="0" stroke="#888" stroke-width="1" opacity="1"></line><line transform="translate(0,463)" x2="-5" y2="0" stroke="#888" stroke-width="1" opacity="1"></line><line transform="translate(0,454)" x2="-5" y2="0" stroke="#888" stroke-width="1" opacity="1"></line><line transform="translate(0,448)" x2="-5" y2="0" stroke="#888" stroke-width="1" opacity="1"></line><line transform="translate(0,442)" x2="-5" y2="0" stroke="#888" stroke-width="1" opacity="1"></line><line transform="translate(0,437)" x2="-5" y2="0" stroke="#888" stroke-width="1" opacity="1"></line><line transform="translate(0,432)" x2="-5" y2="0" stroke="#888" stroke-width="1" opacity="1"></line><line transform="translate(0,429)" x2="-5" y2="0" stroke="#888" stroke-width="1" opacity="1"></line><line transform="translate(0,403)" x2="-5" y2="0" stroke="#888" stroke-width="1" opacity="1"></line><line transform="translate(0,388)" x2="-5" y2="0" stroke="#888" stroke-width="1" opacity="1"></line><line transform="translate(0,377)" x2="-5" y2="0" stroke="#888" stroke-width="1" opacity="1"></line><line transform="translate(0,369)" x2="-5" y2="0" stroke="#888" stroke-width="1" opacity="1"></line><line transform="translate(0,362)" x2="-5" y2="0" stroke="#888" stroke-width="1" opacity="1"></line><line transform="translate(0,356)" x2="-5" y2="0" stroke="#888" stroke-width="1" opacity="1"></line><line transform="translate(0,351)" x2="-5" y2="0" stroke="#888" stroke-width="1" opacity="1"></line><line transform="translate(0,347)" x2="-5" y2="0" stroke="#888" stroke-width="1" opacity="1"></line><line transform="translate(0,343)" x2="-5" y2="0" stroke="#888" stroke-width="1" opacity="1"></line><line transform="translate(0,317)" x2="-5" y2="0" stroke="#888" stroke-width="1" opacity="1"></line><line transform="translate(0,302)" x2="-5" y2="0" stroke="#888" stroke-width="1" opacity="1"></line><line transform="translate(0,291)" x2="-5" y2="0" stroke="#888" stroke-width="1" opacity="1"></line><line transform="translate(0,283)" x2="-5" y2="0" stroke="#888" stroke-width="1" opacity="1"></line><line transform="translate(0,276)" x2="-5" y2="0" stroke="#888" stroke-width="1" opacity="1"></line><line transform="translate(0,270)" x2="-5" y2="0" stroke="#888" stroke-width="1" opacity="1"></line><line transform="translate(0,265)" x2="-5" y2="0" stroke="#888" stroke-width="1" opacity="1"></line><line transform="translate(0,261)" x2="-5" y2="0" stroke="#888" stroke-width="1" opacity="1"></line><line transform="translate(0,257)" x2="-5" y2="0" stroke="#888" stroke-width="1" opacity="1"></line><line transform="translate(0,231)" x2="-5" y2="0" stroke="#888" stroke-width="1" opacity="1"></line><line transform="translate(0,216)" x2="-5" y2="0" stroke="#888" stroke-width="1" opacity="1"></line><line transform="translate(0,206)" x2="-5" y2="0" stroke="#888" stroke-width="1" opacity="1"></line><line transform="translate(0,197)" x2="-5" y2="0" stroke="#888" stroke-width="1" opacity="1"></line><line transform="translate(0,190)" x2="-5" y2="0" stroke="#888" stroke-width="1" opacity="1"></line><line transform="translate(0,185)" x2="-5" y2="0" stroke="#888" stroke-width="1" opacity="1"></line><line transform="translate(0,180)" x2="-5" y2="0" stroke="#888" stroke-width="1" opacity="1"></line><line transform="translate(0,175)" x2="-5" y2="0" stroke="#888" stroke-width="1" opacity="1"></line><line transform="translate(0,171)" x2="-5" y2="0" stroke="#888" stroke-width="1" opacity="1"></line><line transform="translate(0,146)" x2="-5" y2="0" stroke="#888" stroke-width="1" opacity="1"></line><line transform="translate(0,131)" x2="-5" y2="0" stroke="#888" stroke-width="1" opacity="1"></line><line transform="translate(0,120)" x2="-5" y2="0" stroke="#888" stroke-width="1" opacity="1"></line><line transform="translate(0,112)" x2="-5" y2="0" stroke="#888" stroke-width="1" opacity="1"></line><line transform="translate(0,105)" x2="-5" y2="0" stroke="#888" stroke-width="1" opacity="1"></line><line transform="translate(0,99)" x2="-5" y2="0" stroke="#888" stroke-width="1" opacity="1"></line><line transform="translate(0,94)" x2="-5" y2="0" stroke="#888" stroke-width="1" opacity="1"></line><line transform="translate(0,90)" x2="-5" y2="0" stroke="#888" stroke-width="1" opacity="1"></line><line transform="translate(0,86)" x2="-5" y2="0" stroke="#888" stroke-width="1" opacity="1"></line><line transform="translate(0,60)" x2="-5" y2="0" stroke="#888" stroke-width="1" opacity="1"></line><line transform="translate(0,45)" x2="-5" y2="0" stroke="#888" stroke-width="1" opacity="1"></line><line transform="translate(0,34)" x2="-5" y2="0" stroke="#888" stroke-width="1" opacity="1"></line><line transform="translate(0,26)" x2="-5" y2="0" stroke="#888" stroke-width="1" opacity="1"></line><line transform="translate(0,19)" x2="-5" y2="0" stroke="#888" stroke-width="1" opacity="1"></line><line transform="translate(0,13)" x2="-5" y2="0" stroke="#888" stroke-width="1" opacity="1"></line><line transform="translate(0,8)" x2="-5" y2="0" stroke="#888" stroke-width="1" opacity="1"></line><line transform="translate(0,4)" x2="-5" y2="0" stroke="#888" stroke-width="1" opacity="1"></line><line transform="translate(0,0)" x2="-5" y2="0" stroke="#888" stroke-width="1" opacity="1"></line></g><g class="mark-text role-axis-label" pointer-events="none"><text text-anchor="end" transform="translate(-7,603)" font-family="sans-serif" font-size="10px" fill="#000" opacity="1">1</text><text text-anchor="end" transform="translate(-7,577.1974289430873)" font-family="sans-serif" font-size="10px" fill="#000" opacity="1"></text><text text-anchor="end" transform="translate(-7,562.1038924526003)" font-family="sans-serif" font-size="10px" fill="#000" opacity="1"></text><text text-anchor="end" transform="translate(-7,551.3948578861747)" font-family="sans-serif" font-size="10px" fill="#000" opacity="1"></text><text text-anchor="end" transform="translate(-7,543.0882853426269)" font-family="sans-serif" font-size="10px" fill="#000" opacity="1"></text><text text-anchor="end" transform="translate(-7,536.3013213956876)" font-family="sans-serif" font-size="10px" fill="#000" opacity="1"></text><text text-anchor="end" transform="translate(-7,530.5630251416351)" font-family="sans-serif" font-size="10px" fill="#000" opacity="1"></text><text text-anchor="end" transform="translate(-7,525.592286829262)" font-family="sans-serif" font-size="10px" fill="#000" opacity="1"></text><text text-anchor="end" transform="translate(-7,521.2077849052007)" font-family="sans-serif" font-size="10px" fill="#000" opacity="1"></text><text text-anchor="end" transform="translate(-7,517.2857142857142)" font-family="sans-serif" font-size="10px" fill="#000" opacity="1">10</text><text text-anchor="end" transform="translate(-7,491.4831432288016)" font-family="sans-serif" font-size="10px" fill="#000" opacity="1"></text><text text-anchor="end" transform="translate(-7,476.3896067383147)" font-family="sans-serif" font-size="10px" fill="#000" opacity="1"></text><text text-anchor="end" transform="translate(-7,465.6805721718889)" font-family="sans-serif" font-size="10px" fill="#000" opacity="1"></text><text text-anchor="end" transform="translate(-7,457.37399962834127)" font-family="sans-serif" font-size="10px" fill="#000" opacity="1"></text><text text-anchor="end" transform="translate(-7,450.587035681402)" font-family="sans-serif" font-size="10px" fill="#000" opacity="1"></text><text text-anchor="end" transform="translate(-7,444.84873942734936)" font-family="sans-serif" font-size="10px" fill="#000" opacity="1"></text><text text-anchor="end" transform="translate(-7,439.87800111497626)" font-family="sans-serif" font-size="10px" fill="#000" opacity="1"></text><text text-anchor="end" transform="translate(-7,435.49349919091503)" font-family="sans-serif" font-size="10px" fill="#000" opacity="1"></text><text text-anchor="end" transform="translate(-7,431.5714285714285)" font-family="sans-serif" font-size="10px" fill="#000" opacity="1">100</text><text text-anchor="end" transform="translate(-7,405.7688575145159)" font-family="sans-serif" font-size="10px" fill="#000" opacity="1"></text><text text-anchor="end" transform="translate(-7,390.675321024029)" font-family="sans-serif" font-size="10px" fill="#000" opacity="1"></text><text text-anchor="end" transform="translate(-7,379.9662864576032)" font-family="sans-serif" font-size="10px" fill="#000" opacity="1"></text><text text-anchor="end" transform="translate(-7,371.65971391405554)" font-family="sans-serif" font-size="10px" fill="#000" opacity="1"></text><text text-anchor="end" transform="translate(-7,364.87274996711625)" font-family="sans-serif" font-size="10px" fill="#000" opacity="1"></text><text text-anchor="end" transform="translate(-7,359.1344537130637)" font-family="sans-serif" font-size="10px" fill="#000" opacity="1"></text><text text-anchor="end" transform="translate(-7,354.16371540069053)" font-family="sans-serif" font-size="10px" fill="#000" opacity="1"></text><text text-anchor="end" transform="translate(-7,349.77921347662937)" font-family="sans-serif" font-size="10px" fill="#000" opacity="1"></text><text text-anchor="end" transform="translate(-7,345.85714285714283)" font-family="sans-serif" font-size="10px" fill="#000" opacity="1">1,000</text><text text-anchor="end" transform="translate(-7,320.0545718002302)" font-family="sans-serif" font-size="10px" fill="#000" opacity="1"></text><text text-anchor="end" transform="translate(-7,304.96103530974324)" font-family="sans-serif" font-size="10px" fill="#000" opacity="1"></text><text text-anchor="end" transform="translate(-7,294.2520007433175)" font-family="sans-serif" font-size="10px" fill="#000" opacity="1"></text><text text-anchor="end" transform="translate(-7,285.9454281997698)" font-family="sans-serif" font-size="10px" fill="#000" opacity="1"></text><text text-anchor="end" transform="translate(-7,279.1584642528306)" font-family="sans-serif" font-size="10px" fill="#000" opacity="1"></text><text text-anchor="end" transform="translate(-7,273.420167998778)" font-family="sans-serif" font-size="10px" fill="#000" opacity="1"></text><text text-anchor="end" transform="translate(-7,268.44942968640487)" font-family="sans-serif" font-size="10px" fill="#000" opacity="1"></text><text text-anchor="end" transform="translate(-7,264.0649277623436)" font-family="sans-serif" font-size="10px" fill="#000" opacity="1"></text><text text-anchor="end" transform="translate(-7,260.1428571428571)" font-family="sans-serif" font-size="10px" fill="#000" opacity="1">10,000</text><text text-anchor="end" transform="translate(-7,234.3402860859445)" font-family="sans-serif" font-size="10px" fill="#000" opacity="1"></text><text text-anchor="end" transform="translate(-7,219.24674959545752)" font-family="sans-serif" font-size="10px" fill="#000" opacity="1"></text><text text-anchor="end" transform="translate(-7,208.53771502903183)" font-family="sans-serif" font-size="10px" fill="#000" opacity="1"></text><text text-anchor="end" transform="translate(-7,200.23114248548416)" font-family="sans-serif" font-size="10px" fill="#000" opacity="1"></text><text text-anchor="end" transform="translate(-7,193.44417853854486)" font-family="sans-serif" font-size="10px" fill="#000" opacity="1"></text><text text-anchor="end" transform="translate(-7,187.70588228449233)" font-family="sans-serif" font-size="10px" fill="#000" opacity="1"></text><text text-anchor="end" transform="translate(-7,182.73514397211918)" font-family="sans-serif" font-size="10px" fill="#000" opacity="1"></text><text text-anchor="end" transform="translate(-7,178.35064204805792)" font-family="sans-serif" font-size="10px" fill="#000" opacity="1"></text><text text-anchor="end" transform="translate(-7,174.42857142857142)" font-family="sans-serif" font-size="10px" fill="#000" opacity="1">100,000</text><text text-anchor="end" transform="translate(-7,148.62600037165876)" font-family="sans-serif" font-size="10px" fill="#000" opacity="1"></text><text text-anchor="end" transform="translate(-7,133.53246388117182)" font-family="sans-serif" font-size="10px" fill="#000" opacity="1"></text><text text-anchor="end" transform="translate(-7,122.8234293147461)" font-family="sans-serif" font-size="10px" fill="#000" opacity="1"></text><text text-anchor="end" transform="translate(-7,114.5168567711984)" font-family="sans-serif" font-size="10px" fill="#000" opacity="1"></text><text text-anchor="end" transform="translate(-7,107.72989282425917)" font-family="sans-serif" font-size="10px" fill="#000" opacity="1"></text><text text-anchor="end" transform="translate(-7,101.9915965702066)" font-family="sans-serif" font-size="10px" fill="#000" opacity="1"></text><text text-anchor="end" transform="translate(-7,97.02085825783344)" font-family="sans-serif" font-size="10px" fill="#000" opacity="1"></text><text text-anchor="end" transform="translate(-7,92.63635633377211)" font-family="sans-serif" font-size="10px" fill="#000" opacity="1"></text><text text-anchor="end" transform="translate(-7,88.71428571428574)" font-family="sans-serif" font-size="10px" fill="#000" opacity="1">1,000,000</text><text text-anchor="end" transform="translate(-7,62.91171465737308)" font-family="sans-serif" font-size="10px" fill="#000" opacity="1"></text><text text-anchor="end" transform="translate(-7,47.81817816688609)" font-family="sans-serif" font-size="10px" fill="#000" opacity="1"></text><text text-anchor="end" transform="translate(-7,37.10914360046042)" font-family="sans-serif" font-size="10px" fill="#000" opacity="1"></text><text text-anchor="end" transform="translate(-7,28.80257105691266)" font-family="sans-serif" font-size="10px" fill="#000" opacity="1"></text><text text-anchor="end" transform="translate(-7,22.015607109973367)" font-family="sans-serif" font-size="10px" fill="#000" opacity="1"></text><text text-anchor="end" transform="translate(-7,16.277310855920852)" font-family="sans-serif" font-size="10px" fill="#000" opacity="1"></text><text text-anchor="end" transform="translate(-7,11.306572543547697)" font-family="sans-serif" font-size="10px" fill="#000" opacity="1"></text><text text-anchor="end" transform="translate(-7,6.922070619486506)" font-family="sans-serif" font-size="10px" fill="#000" opacity="1"></text><text text-anchor="end" transform="translate(-7,3)" font-family="sans-serif" font-size="10px" fill="#000" opacity="1">10,000,000</text></g><g class="mark-rule role-axis-domain" pointer-events="none"><line transform="translate(0,600)" x2="0" y2="-600" stroke="#888" stroke-width="1" opacity="1"></line></g><g class="mark-text role-axis-title" pointer-events="none"><text text-anchor="middle" transform="translate(-62.728515625,300) rotate(-90) translate(0,-2)" font-family="sans-serif" font-size="11px" font-weight="bold" fill="#000" opacity="1">max, min</text></g></g><path class="foreground" aria-hidden="true" d="" pointer-events="none" display="none"></path></g></g><g class="mark-line role-mark layer_0_marks" role="graphics-object" aria-roledescription="line mark container" clip-path="url(#clip1)"><path aria-label="Year Acquired: Jan 01, 1753; max: 1200" role="graphics-symbol" aria-roledescription="line mark" d="M0,336.07L95.048,295.236L110.568,296.953L153.243,164.642L162.946,256.035L164.885,316.869L166.823,251.133L168.762,230.931L170.706,298.913L174.583,346.779L176.522,290.442L178.465,191.72L184.281,248.248L188.164,321.665L193.985,136.582L195.923,314.536L197.862,201.054L199.8,353.566L201.744,241.743L203.683,242.049L205.621,284.102L207.56,231.044L213.381,240.127L217.263,185.763L221.141,305.883L226.962,303.688L228.9,296.964L230.839,242.298L232.783,253.595L234.721,272.611L236.66,317.429L238.598,122.927L242.481,212.619L246.358,194.285L248.302,272.212L250.24,204.513L252.179,262.866L256.061,219.826L258,201.319L259.939,176.773L261.877,192.894L265.76,219.609L267.698,311.449L269.637,168.003L271.581,247.448L273.519,177.478L275.458,168.32L277.396,174.13L279.34,160.839L281.279,210.445L283.217,196.482L285.156,168.681L287.095,176.957L289.033,143.107L290.972,183.963L292.91,241.312L294.854,161.053L296.793,245.288L298.731,199.018L300.67,170.502L302.614,158.302L304.552,201.094L306.491,152.396L308.429,171.217L310.373,210.07L312.312,132.679L314.25,156.639L316.189,192.933L318.133,218.709L320.071,239.904L322.01,220.111L323.949,171.429L325.893,186.966L327.831,193.17L329.77,117.975L331.708,199.146L333.652,145.034L335.591,104.979L337.529,156.172L339.468,184.919L341.412,115.439L343.35,182.71L345.289,130.561L347.227,175.268L349.171,221.417L351.11,191.511L353.048,179.735L354.987,181.533L356.931,136.635L358.869,160.409L360.808,168.087L362.747,125.753L364.69,175.778L366.629,184.034L368.567,233.99L370.506,233.592L372.45,172.792L374.389,201.153L376.327,197.843L378.266,207.15L380.21,148.485L382.148,135.826L384.087,154.962L386.025,133.082L387.969,152.801L389.908,138.286L391.846,115.231L393.785,126.811L395.729,164.797L397.667,147.344L399.606,125.367L401.545,127.722L403.488,148.781L405.427,136.976L407.366,126.323L409.304,148.351L411.248,114.577L413.187,141.267L415.125,140.735L417.064,133.49L419.008,114.887L420.946,140.99L422.885,111.517L424.823,125.01L426.767,148.436L428.706,133.39L430.644,153.862L432.583,130.722L434.527,100.544L436.465,157.717L438.404,184.18L440.343,178.704L442.286,142.712L444.225,136.073L446.164,157.087L448.102,89.093L450.046,78.927L451.985,170.833L453.923,125.413L455.862,182.138L457.806,115.95L459.744,141.066L461.683,94.976L463.621,164.724L465.565,205.538L467.504,197.775L469.442,164.735L471.381,138.505L473.325,163.122L475.263,165.894L477.202,201.153L479.141,161.14L481.084,129.639L483.023,158.903L484.962,128.312L486.9,155.073L488.844,126.397L490.783,149.548L492.721,145.116L494.66,157.705L496.604,172.948L498.542,156.789L500.481,188.042L502.419,159.982L504.363,140.316L506.302,173.405L508.24,169.612L510.179,148.73L512.123,271.94L514.061,250.356L516,353.073" stroke="blue" stroke-width="2"></path></g><g class="mark-line role-mark layer_1_marks" role="graphics-object" aria-roledescription="line mark container" pointer-events="none" clip-path="url(#clip2)"><path aria-label="Year Acquired: Jan 01, 1753; min: 1200" role="graphics-symbol" aria-roledescription="line mark" d="M0,336.07L95.048,349.083L110.568,399.904L153.243,164.642L162.946,256.035L164.885,316.869L166.823,251.133L168.762,361.38L170.706,298.913L174.583,346.779L176.522,290.442L178.465,295.009L184.281,324.351L188.164,368.66L193.985,136.582L195.923,314.536L197.862,338.705L199.8,353.566L201.744,301.961L203.683,268.518L205.621,284.102L207.56,466.603L213.381,240.127L217.263,398.384L221.141,305.883L226.962,303.688L228.9,388.937L230.839,242.298L232.783,253.595L234.721,272.611L236.66,376.966L238.598,336.07L242.481,212.619L246.358,320.977L248.302,272.212L250.24,234.953L252.179,413.478L256.061,405.873L258,454.374L259.939,242.049L261.877,217.836L265.76,387.675L267.698,311.449L269.637,287.874L271.581,351.164L273.519,177.478L275.458,287.334L277.396,246.245L279.34,160.839L281.279,323.104L283.217,213.579L285.156,402.769L287.095,329.026L289.033,435.959L290.972,256.086L292.91,370.179L294.854,413.478L296.793,272.475L298.731,303.223L300.67,306.132L302.614,313.932L304.552,413.478L306.491,411.075L308.429,296.608L310.373,337.59L312.312,298.549L314.25,293.794L316.189,496.79L318.133,283.728L320.071,409.259L322.01,315.238L323.949,428.571L325.893,409.259L327.831,389.195L329.77,416.582L331.708,299.559L333.652,480.177L335.591,425.707L337.529,356.509L339.468,455.894L341.412,514.286L343.35,454.374L345.289,378.1L347.227,480.177L349.171,387.675L351.11,389.979L353.048,473.39L354.987,441.849L356.931,418.805L358.869,455.894L360.808,398.55L362.747,473.39L364.69,428.571L366.629,421.169L368.567,380.579L370.506,398.55L372.45,477.312L374.389,391.597L376.327,454.374L378.266,428.571L380.21,436.878L382.148,507.499L384.087,414.74L386.025,480.177L387.969,421.784L389.908,462.681L391.846,488.483L393.785,418.237L395.729,462.681L397.667,507.499L399.606,488.483L401.545,518.208L403.488,480.177L405.427,507.499L407.366,507.499L409.304,488.483L411.248,488.483L413.187,496.79L415.125,507.499L417.064,488.483L419.008,480.177L420.946,492.405L422.885,420.564L424.823,496.79L426.767,481.696L428.706,496.79L430.644,496.79L432.583,496.79L434.527,492.405L436.465,455.894L438.404,507.499L440.343,507.499L442.286,488.483L444.225,488.483L446.164,480.177L448.102,492.405L450.046,488.483L451.985,507.499L453.923,492.405L455.862,492.405L457.806,496.79L459.744,466.603L461.683,492.405L463.621,488.483L465.565,492.405L467.504,466.603L469.442,445.185L471.381,488.483L473.325,481.696L475.263,480.177L477.202,473.39L479.141,481.696L481.084,445.185L483.023,436.878L484.962,488.483L486.9,441.849L488.844,447.587L490.783,466.603L492.721,488.483L494.66,431.273L496.604,488.483L498.542,481.696L500.481,481.696L502.419,428.571L504.363,414.998L506.302,514.286L508.24,414.998L510.179,337.59L512.123,271.94L514.061,328.897L516,353.073" stroke="orange" stroke-width="2"></path></g></g><path class="foreground" aria-hidden="true" d="" display="none"></path></g></g></g><defs><clipPath id="clip1"><rect x="0" y="0" width="516" height="600"></rect></clipPath><clipPath id="clip2"><rect x="0" y="0" width="516" height="600"></rect></clipPath></defs></svg>