<svg xmlns="http://www.w3.org/2000/svg" xmlns:xlink="http://www.w3.org/1999/xlink" version="1.1" class="marks" width="152" height="664" viewBox="0 0 152 664" style="background-color: white;"><g fill="none" stroke-miterlimit="10" transform="translate(50,22)"><g class="mark-group role-frame root" role="graphics-object" aria-roledescription="group mark container"><g transform="translate(0,0)"><path class="background" aria-hidden="true" d="M0.5,0.5h60v600h-60Z" fill="transparent" stroke="#ddd"></path><g><g class="mark-group role-axis" aria-hidden="true"><g transform="translate(0.5,0.5)"><path class="background" aria-hidden="true" d="M0,0h0v0h0Z" pointer-events="none"></path><g><g class="mark-rule role-axis-grid" pointer-events="none"><line transform="translate(0,75)" x2="60" y2="0" stroke="#ddd" stroke-width="1" opacity="1"></line><line transform="translate(0,225)" x2="60" y2="0" stroke="#ddd" stroke-width="1" opacity="1"></line><line transform="translate(0,375)" x2="60" y2="0" stroke="#ddd" stroke-width="1" opacity="1"></line><line transform="translate(0,525)" x2="60" y2="0" stroke="#ddd" stroke-width="1" opacity="1"></line></g></g><path class="foreground" aria-hidden="true" d="" pointer-events="none" display="none"></path></g></g><g class="mark-group role-axis" role="graphics-symbol" aria-roledescription="axis" aria-label="Y-axis titled 'mAb' for a discrete scale with 4 values: seq1,  seq2,   seq3,    seq4"><g transform="translate(0.5,0.5)"><path class="background" aria-hidden="true" d="M0,0h0v0h0Z" pointer-events="none"></path><g><g class="mark-rule role-axis-tick" pointer-events="none"><line transform="translate(0,75)" x2="-5" y2="0" stroke="#888" stroke-width="1" opacity="1"></line><line transform="translate(0,225)" x2="-5" y2="0" stroke="#888" stroke-width="1" opacity="1"></line><line transform="translate(0,375)" x2="-5" y2="0" stroke="#888" stroke-width="1" opacity="1"></line><line transform="translate(0,525)" x2="-5" y2="0" stroke="#888" stroke-width="1" opacity="1"></line></g><g class="mark-text role-axis-label" pointer-events="none"><text text-anchor="end" transform="translate(-7,77.5)" font-family="sans-serif" font-size="10px" fill="#000" opacity="1">seq1</text><text text-anchor="end" transform="translate(-7,227.5)" font-family="sans-serif" font-size="10px" fill="#000" opacity="1">seq2</text><text text-anchor="end" transform="translate(-7,377.5)" font-family="sans-serif" font-size="10px" fill="#000" opacity="1">seq3</text><text text-anchor="end" transform="translate(-7,527.5)" font-family="sans-serif" font-size="10px" fill="#000" opacity="1">seq4</text></g><g class="mark-rule role-axis-domain" pointer-events="none"><line transform="translate(0,0)" x2="0" y2="600" stroke="#888" stroke-width="1" opacity="1"></line></g><g class="mark-text role-axis-title" pointer-events="none"><text text-anchor="middle" transform="translate(-33.5634765625,300) rotate(-90) translate(0,-2)" font-family="sans-serif" font-size="11px" font-weight="bold" fill="#000" opacity="1">mAb</text></g></g><path class="foreground" aria-hidden="true" d="" pointer-events="none" display="none"></path></g></g><g class="mark-rect role-mark layer_0_marks" role="graphics-object" aria-roledescription="rect mark container"><path aria-label="position: 0" role="graphics-symbol" aria-roledescription="rect mark" d="M0,0h5v600h-5Z" fill="#169cf5" opacity="0.25"></path><path aria-label="position: 3" role="graphics-symbol" aria-roledescription="rect mark" d="M15,0h5v600h-5Z" fill="#169cf5" opacity="0.25"></path><path aria-label="position: 7" role="graphics-symbol" aria-roledescription="rect mark" d="M35,0h5v600h-5Z" fill="#169cf5" opacity="0.25"></path><path aria-label="position: 8" role="graphics-symbol" aria-roledescription="rect mark" d="M40,0h5v600h-5Z" fill="#169cf5" opacity="0.25"></path><path aria-label="position: 9" role="graphics-symbol" aria-roledescription="rect mark" d="M45,0h5v600h-5Z" fill="#169cf5" opacity="0.25"></path><path aria-label="position: 10" role="graphics-symbol" aria-roledescription="rect mark" d="M50,0h5v600h-5Z" fill="#169cf5" opacity="0.25"></path><path aria-label="position: 11" role="graphics-symbol" aria-roledescription="rect mark" d="M55,0h5v600h-5Z" fill="#169cf5" opacity="0.25"></path></g><g class="mark-rect role-mark layer_1_marks" role="graphics-object" aria-roledescription="rect mark container"><path aria-label="position: 1" role="graphics-symbol" aria-roledescription="rect mark" d="M5,0h5v600h-5Z" fill="#f5e216" opacity="0.25"></path><path aria-label="position: 2" role="graphics-symbol" aria-roledescription="rect mark" d="M10,0h5v600h-5Z" fill="#f5e216" opacity="0.25"></path><path aria-label="position: 4" role="graphics-symbol" aria-roledescription="rect mark" d="M20,0h5v600h-5Z" fill="#f5e216" opacity="0.25"></path><path aria-label="position: 5" role="graphics-symbol" aria-roledescription="rect mark" d="M25,0h5v600h-5Z" fill="#f5e216" opacity="0.25"></path><path aria-label="position: 6" role="graphics-symbol" aria-roledescription="rect mark" d="M30,0h5v600h-5Z" fill="#f5e216" opacity="0.25"></path></g><g class="mark-rect role-mark layer_2_marks" role="graphics-object" aria-roledescription="rect mark container"><path aria-label="Amino acid position: 0; sequence: seq1; real_mut: false" role="graphics-symbol" aria-roledescription="tick" d="M1.5,18.75h2v112.5h-2Z" fill="transparent" opacity="1"></path><path aria-label="Amino acid position: 1; sequence: seq1; real_mut: false" role="graphics-symbol" aria-roledescription="tick" d="M6.5,18.75h2v112.5h-2Z" fill="transparent" opacity="1"></path><path aria-label="Amino acid position: 2; sequence: seq1; real_mut: true" role="graphics-symbol" aria-roledescription="tick" d="M11.5,18.75h2v112.5h-2Z" fill="black" opacity="1"></path><path aria-label="Amino acid position: 3; sequence: seq1; real_mut: true" role="graphics-symbol" aria-roledescription="tick" d="M16.5,18.75h2v112.5h-2Z" fill="black" opacity="1"></path><path aria-label="Amino acid position: 4; sequence: seq1; real_mut: false" role="graphics-symbol" aria-roledescription="tick" d="M21.5,18.75h2v112.5h-2Z" fill="transparent" opacity="1"></path><path aria-label="Amino acid position: 5; sequence: seq1; real_mut: false" role="graphics-symbol" aria-roledescription="tick" d="M26.5,18.75h2v112.5h-2Z" fill="transparent" opacity="1"></path><path aria-label="Amino acid position: 6; sequence: seq1; real_mut: false" role="graphics-symbol" aria-roledescription="tick" d="M31.5,18.75h2v112.5h-2Z" fill="transparent" opacity="1"></path><path aria-label="Amino acid position: 7; sequence: seq1; real_mut: false" role="graphics-symbol" aria-roledescription="tick" d="M36.5,18.75h2v112.5h-2Z" fill="transparent" opacity="1"></path><path aria-label="Amino acid position: 8; sequence: seq1; real_mut: false" role="graphics-symbol" aria-roledescription="tick" d="M41.5,18.75h2v112.5h-2Z" fill="transparent" opacity="1"></path><path aria-label="Amino acid position: 9; sequence: seq1; real_mut: false" role="graphics-symbol" aria-roledescription="tick" d="M46.5,18.75h2v112.5h-2Z" fill="transparent" opacity="1"></path><path aria-label="Amino acid position: 10; sequence: seq1; real_mut: false" role="graphics-symbol" aria-roledescription="tick" d="M51.5,18.75h2v112.5h-2Z" fill="transparent" opacity="1"></path><path aria-label="Amino acid position: 11; sequence: seq1; real_mut: true" role="graphics-symbol" aria-roledescription="tick" d="M56.5,18.75h2v112.5h-2Z" fill="black" opacity="1"></path><path aria-label="Amino acid position: 0; sequence:  seq2; real_mut: false" role="graphics-symbol" aria-roledescription="tick" d="M1.5,168.75h2v112.5h-2Z" fill="transparent" opacity="1"></path><path aria-label="Amino acid position: 1; sequence:  seq2; real_mut: false" role="graphics-symbol" aria-roledescription="tick" d="M6.5,168.75h2v112.5h-2Z" fill="transparent" opacity="1"></path><path aria-label="Amino acid position: 2; sequence:  seq2; real_mut: true" role="graphics-symbol" aria-roledescription="tick" d="M11.5,168.75h2v112.5h-2Z" fill="black" opacity="1"></path><path aria-label="Amino acid position: 3; sequence:  seq2; real_mut: false" role="graphics-symbol" aria-roledescription="tick" d="M16.5,168.75h2v112.5h-2Z" fill="transparent" opacity="1"></path><path aria-label="Amino acid position: 4; sequence:  seq2; real_mut: false" role="graphics-symbol" aria-roledescription="tick" d="M21.5,168.75h2v112.5h-2Z" fill="transparent" opacity="1"></path><path aria-label="Amino acid position: 5; sequence:  seq2; real_mut: false" role="graphics-symbol" aria-roledescription="tick" d="M26.5,168.75h2v112.5h-2Z" fill="transparent" opacity="1"></path><path aria-label="Amino acid position: 6; sequence:  seq2; real_mut: false" role="graphics-symbol" aria-roledescription="tick" d="M31.5,168.75h2v112.5h-2Z" fill="transparent" opacity="1"></path><path aria-label="Amino acid position: 7; sequence:  seq2; real_mut: false" role="graphics-symbol" aria-roledescription="tick" d="M36.5,168.75h2v112.5h-2Z" fill="transparent" opacity="1"></path><path aria-label="Amino acid position: 8; sequence:  seq2; real_mut: false" role="graphics-symbol" aria-roledescription="tick" d="M41.5,168.75h2v112.5h-2Z" fill="transparent" opacity="1"></path><path aria-label="Amino acid position: 9; sequence:  seq2; real_mut: false" role="graphics-symbol" aria-roledescription="tick" d="M46.5,168.75h2v112.5h-2Z" fill="transparent" opacity="1"></path><path aria-label="Amino acid position: 10; sequence:  seq2; real_mut: true" role="graphics-symbol" aria-roledescription="tick" d="M51.5,168.75h2v112.5h-2Z" fill="black" opacity="1"></path><path aria-label="Amino acid position: 11; sequence:  seq2; real_mut: false" role="graphics-symbol" aria-roledescription="tick" d="M56.5,168.75h2v112.5h-2Z" fill="transparent" opacity="1"></path><path aria-label="Amino acid position: 0; sequence:   seq3; real_mut: false" role="graphics-symbol" aria-roledescription="tick" d="M1.5,318.75h2v112.5h-2Z" fill="transparent" opacity="1"></path><path aria-label="Amino acid position: 1; sequence:   seq3; real_mut: false" role="graphics-symbol" aria-roledescription="tick" d="M6.5,318.75h2v112.5h-2Z" fill="transparent" opacity="1"></path><path aria-label="Amino acid position: 2; sequence:   seq3; real_mut: false" role="graphics-symbol" aria-roledescription="tick" d="M11.5,318.75h2v112.5h-2Z" fill="transparent" opacity="1"></path><path aria-label="Amino acid position: 3; sequence:   seq3; real_mut: true" role="graphics-symbol" aria-roledescription="tick" d="M16.5,318.75h2v112.5h-2Z" fill="black" opacity="1"></path><path aria-label="Amino acid position: 4; sequence:   seq3; real_mut: false" role="graphics-symbol" aria-roledescription="tick" d="M21.5,318.75h2v112.5h-2Z" fill="transparent" opacity="1"></path><path aria-label="Amino acid position: 5; sequence:   seq3; real_mut: false" role="graphics-symbol" aria-roledescription="tick" d="M26.5,318.75h2v112.5h-2Z" fill="transparent" opacity="1"></path><path aria-label="Amino acid position: 6; sequence:   seq3; real_mut: false" role="graphics-symbol" aria-roledescription="tick" d="M31.5,318.75h2v112.5h-2Z" fill="transparent" opacity="1"></path><path aria-label="Amino acid position: 7; sequence:   seq3; real_mut: false" role="graphics-symbol" aria-roledescription="tick" d="M36.5,318.75h2v112.5h-2Z" fill="transparent" opacity="1"></path><path aria-label="Amino acid position: 8; sequence:   seq3; real_mut: false" role="graphics-symbol" aria-roledescription="tick" d="M41.5,318.75h2v112.5h-2Z" fill="transparent" opacity="1"></path><path aria-label="Amino acid position: 9; sequence:   seq3; real_mut: false" role="graphics-symbol" aria-roledescription="tick" d="M46.5,318.75h2v112.5h-2Z" fill="transparent" opacity="1"></path><path aria-label="Amino acid position: 10; sequence:   seq3; real_mut: true" role="graphics-symbol" aria-roledescription="tick" d="M51.5,318.75h2v112.5h-2Z" fill="black" opacity="1"></path><path aria-label="Amino acid position: 11; sequence:   seq3; real_mut: false" role="graphics-symbol" aria-roledescription="tick" d="M56.5,318.75h2v112.5h-2Z" fill="transparent" opacity="1"></path><path aria-label="Amino acid position: 0; sequence:    seq4; real_mut: false" role="graphics-symbol" aria-roledescription="tick" d="M1.5,468.75h2v112.5h-2Z" fill="transparent" opacity="1"></path><path aria-label="Amino acid position: 1; sequence:    seq4; real_mut: false" role="graphics-symbol" aria-roledescription="tick" d="M6.5,468.75h2v112.5h-2Z" fill="transparent" opacity="1"></path><path aria-label="Amino acid position: 2; sequence:    seq4; real_mut: false" role="graphics-symbol" aria-roledescription="tick" d="M11.5,468.75h2v112.5h-2Z" fill="transparent" opacity="1"></path><path aria-label="Amino acid position: 3; sequence:    seq4; real_mut: false" role="graphics-symbol" aria-roledescription="tick" d="M16.5,468.75h2v112.5h-2Z" fill="transparent" opacity="1"></path><path aria-label="Amino acid position: 4; sequence:    seq4; real_mut: false" role="graphics-symbol" aria-roledescription="tick" d="M21.5,468.75h2v112.5h-2Z" fill="transparent" opacity="1"></path><path aria-label="Amino acid position: 5; sequence:    seq4; real_mut: false" role="graphics-symbol" aria-roledescription="tick" d="M26.5,468.75h2v112.5h-2Z" fill="transparent" opacity="1"></path><path aria-label="Amino acid position: 6; sequence:    seq4; real_mut: false" role="graphics-symbol" aria-roledescription="tick" d="M31.5,468.75h2v112.5h-2Z" fill="transparent" opacity="1"></path><path aria-label="Amino acid position: 7; sequence:    seq4; real_mut: false" role="graphics-symbol" aria-roledescription="tick" d="M36.5,468.75h2v112.5h-2Z" fill="transparent" opacity="1"></path><path aria-label="Amino acid position: 8; sequence:    seq4; real_mut: false" role="graphics-symbol" aria-roledescription="tick" d="M41.5,468.75h2v112.5h-2Z" fill="transparent" opacity="1"></path><path aria-label="Amino acid position: 9; sequence:    seq4; real_mut: false" role="graphics-symbol" aria-roledescription="tick" d="M46.5,468.75h2v112.5h-2Z" fill="transparent" opacity="1"></path><path aria-label="Amino acid position: 10; sequence:    seq4; real_mut: false" role="graphics-symbol" aria-roledescription="tick" d="M51.5,468.75h2v112.5h-2Z" fill="transparent" opacity="1"></path><path aria-label="Amino acid position: 11; sequence:    seq4; real_mut: false" role="graphics-symbol" aria-roledescription="tick" d="M56.5,468.75h2v112.5h-2Z" fill="transparent" opacity="1"></path></g><g class="mark-group role-title"><g transform="translate(30,-17)"><path class="background" aria-hidden="true" d="M0,0h0v0h0Z" pointer-events="none"></path><g><g class="mark-text role-title-text" role="graphics-symbol" aria-roledescription="title" aria-label="Title text 'lineage 1 light chain'" pointer-events="none"><text text-anchor="middle" transform="translate(0,10)" font-family="sans-serif" font-size="13px" font-weight="bold" fill="#000" opacity="1">lineage 1 light chain</text></g></g><path class="foreground" aria-hidden="true" d="" pointer-events="none" display="none"></path></g></g><g class="mark-group role-axis" role="graphics-symbol" aria-roledescription="axis" aria-label="X-axis titled 'Amino acid position' for a discrete scale with 12 values: 0, 1, 2, 3, 4, ending with 11"><g transform="translate(0.5,600.5)"><path class="background" aria-hidden="true" d="M0,0h0v0h0Z" pointer-events="none"></path><g><g class="mark-rule role-axis-tick" pointer-events="none"><line transform="translate(2,0)" x2="0" y2="5" stroke="#888" stroke-width="1" opacity="1"></line><line transform="translate(7,0)" x2="0" y2="5" stroke="#888" stroke-width="1" opacity="1"></line><line transform="translate(12,0)" x2="0" y2="5" stroke="#888" stroke-width="1" opacity="1"></line><line transform="translate(17,0)" x2="0" y2="5" stroke="#888" stroke-width="1" opacity="1"></line><line transform="translate(22,0)" x2="0" y2="5" stroke="#888" stroke-width="1" opacity="1"></line><line transform="translate(27,0)" x2="0" y2="5" stroke="#888" stroke-width="1" opacity="1"></line><line transform="translate(32,0)" x2="0" y2="5" stroke="#888" stroke-width="1" opacity="1"></line><line transform="translate(37,0)" x2="0" y2="5" stroke="#888" stroke-width="1" opacity="1"></line><line transform="translate(42,0)" x2="0" y2="5" stroke="#888" stroke-width="1" opacity="1"></line><line transform="translate(47,0)" x2="0" y2="5" stroke="#888" stroke-width="1" opacity="1"></line><line transform="translate(52,0)" x2="0" y2="5" stroke="#888" stroke-width="1" opacity="1"></line><line transform="translate(57,0)" x2="0" y2="5" stroke="#888" stroke-width="1" opacity="1"></line></g><g class="mark-text role-axis-label" pointer-events="none"><text text-anchor="end" transform="translate(2,7) rotate(270) translate(0,4)" font-family="sans-serif" font-size="12px" fill="#000" opacity="1">0</text><text text-anchor="end" transform="translate(7,7) rotate(270) translate(0,4)" font-family="sans-serif" font-size="12px" fill="#000" opacity="0">1</text><text text-anchor="end" transform="translate(12,7) rotate(270) translate(0,4)" font-family="sans-serif" font-size="12px" fill="#000" opacity="0">2</text><text text-anchor="end" transform="translate(17,7) rotate(270) translate(0,4)" font-family="sans-serif" font-size="12px" fill="#000" opacity="0">3</text><text text-anchor="end" transform="translate(22,7) rotate(270) translate(0,4)" font-family="sans-serif" font-size="12px" fill="#000" opacity="0">4</text><text text-anchor="end" transform="translate(27,7) rotate(270) translate(0,4)" font-family="sans-serif" font-size="12px" fill="#000" opacity="0">5</text><text text-anchor="end" transform="translate(32,7) rotate(270) translate(0,4)" font-family="sans-serif" font-size="12px" fill="#000" opacity="0">6</text><text text-anchor="end" transform="translate(37,7) rotate(270) translate(0,4)" font-family="sans-serif" font-size="12px" fill="#000" opacity="0">7</text><text text-anchor="end" transform="translate(42,7) rotate(270) translate(0,4)" font-family="sans-serif" font-size="12px" fill="#000" opacity="0">8</text><text text-anchor="end" transform="translate(47,7) rotate(270) translate(0,4)" font-family="sans-serif" font-size="12px" fill="#000" opacity="0">9</text><text text-anchor="end" transform="translate(52,7) rotate(270) translate(0,4)" font-family="sans-serif" font-size="12px" fill="#000" opacity="0">10</text><text text-anchor="end" transform="translate(57,7) rotate(270) translate(0,4)" font-family="sans-serif" font-size="12px" fill="#000" opacity="1">11</text></g><g class="mark-rule role-axis-domain" pointer-events="none"><line transform="translate(0,0)" x2="60" y2="0" stroke="#888" stroke-width="1" opacity="1"></line></g><g class="mark-text role-axis-title" pointer-events="none"><text text-anchor="middle" transform="translate(30,34.07421875)" font-family="sans-serif" font-size="11px" font-weight="bold" fill="#000" opacity="1">Amino acid position</text></g></g><path class="foreground" aria-hidden="true" d="" pointer-events="none" display="none"></path></g></g></g><path class="foreground" aria-hidden="true" d="" display="none"></path></g></g></g></svg>