<svg xmlns="http://www.w3.org/2000/svg" xmlns:xlink="http://www.w3.org/1999/xlink" version="1.1" class="marks" width="562" height="442" viewBox="0 0 562 442" style="background-color: white;"><g fill="none" stroke-miterlimit="10" transform="translate(46,54)"><g class="mark-group role-frame root" role="graphics-object" aria-roledescription="group mark container"><g transform="translate(0,0)"><path class="background" aria-hidden="true" d="M0,0h0v0h0Z"></path><g><g class="mark-group role-scope concat_0_group" role="graphics-object" aria-roledescription="group mark container"><g transform="translate(0,0)"><path class="background" aria-hidden="true" d="M0,0h0v0h0Z"></path><g><g class="mark-group role-column-footer concat_0_column_footer" role="graphics-object" aria-roledescription="group mark container"><g transform="translate(0,351)"><path class="background" aria-hidden="true" d="M0,0h400v0h-400Z"></path><g><g class="mark-group role-axis" role="graphics-symbol" aria-roledescription="axis" aria-label="X-axis titled 'm_probability' for a linear scale with values from 0.0 to 1.0"><g transform="translate(0.5,0.5)"><path class="background" aria-hidden="true" d="M0,0h0v0h0Z" pointer-events="none"></path><g><g class="mark-rule role-axis-tick" pointer-events="none"><line transform="translate(0,0)" x2="0" y2="5" stroke="#888" stroke-width="1" opacity="1"></line><line transform="translate(40,0)" x2="0" y2="5" stroke="#888" stroke-width="1" opacity="1"></line><line transform="translate(80,0)" x2="0" y2="5" stroke="#888" stroke-width="1" opacity="1"></line><line transform="translate(120,0)" x2="0" y2="5" stroke="#888" stroke-width="1" opacity="1"></line><line transform="translate(160,0)" x2="0" y2="5" stroke="#888" stroke-width="1" opacity="1"></line><line transform="translate(200,0)" x2="0" y2="5" stroke="#888" stroke-width="1" opacity="1"></line><line transform="translate(240,0)" x2="0" y2="5" stroke="#888" stroke-width="1" opacity="1"></line><line transform="translate(280,0)" x2="0" y2="5" stroke="#888" stroke-width="1" opacity="1"></line><line transform="translate(320,0)" x2="0" y2="5" stroke="#888" stroke-width="1" opacity="1"></line><line transform="translate(360,0)" x2="0" y2="5" stroke="#888" stroke-width="1" opacity="1"></line><line transform="translate(400,0)" x2="0" y2="5" stroke="#888" stroke-width="1" opacity="1"></line></g><g class="mark-text role-axis-label" pointer-events="none"><text text-anchor="start" transform="translate(0,15)" font-family="sans-serif" font-size="10px" fill="#000" opacity="1">0.0</text><text text-anchor="middle" transform="translate(40,15)" font-family="sans-serif" font-size="10px" fill="#000" opacity="1">0.1</text><text text-anchor="middle" transform="translate(80,15)" font-family="sans-serif" font-size="10px" fill="#000" opacity="1">0.2</text><text text-anchor="middle" transform="translate(120,15)" font-family="sans-serif" font-size="10px" fill="#000" opacity="1">0.3</text><text text-anchor="middle" transform="translate(160,15)" font-family="sans-serif" font-size="10px" fill="#000" opacity="1">0.4</text><text text-anchor="middle" transform="translate(200,15)" font-family="sans-serif" font-size="10px" fill="#000" opacity="1">0.5</text><text text-anchor="middle" transform="translate(240,15)" font-family="sans-serif" font-size="10px" fill="#000" opacity="1">0.6</text><text text-anchor="middle" transform="translate(280,15)" font-family="sans-serif" font-size="10px" fill="#000" opacity="1">0.7</text><text text-anchor="middle" transform="translate(320,15)" font-family="sans-serif" font-size="10px" fill="#000" opacity="1">0.8</text><text text-anchor="middle" transform="translate(360,15)" font-family="sans-serif" font-size="10px" fill="#000" opacity="1">0.9</text><text text-anchor="end" transform="translate(400,15)" font-family="sans-serif" font-size="10px" fill="#000" opacity="1">1.0</text></g><g class="mark-rule role-axis-domain" pointer-events="none"><line transform="translate(0,0)" x2="400" y2="0" stroke="#888" stroke-width="1" opacity="1"></line></g><g class="mark-text role-axis-title" pointer-events="none"><text text-anchor="middle" transform="translate(200,30)" font-family="sans-serif" font-size="11px" font-weight="bold" fill="#000" opacity="1">m_probability</text></g></g><path class="foreground" aria-hidden="true" d="" pointer-events="none" display="none"></path></g></g></g><path class="foreground" aria-hidden="true" d="" display="none"></path></g></g><g class="mark-group role-scope concat_0_cell" role="graphics-object" aria-roledescription="group mark container"><g transform="translate(0,0)"><path class="background" aria-hidden="true" d="M0.5,0.5h400v40h-400Z" fill="transparent" stroke="#ddd"></path><g><g class="mark-group role-axis" aria-hidden="true"><g transform="translate(0.5,40.5)"><path class="background" aria-hidden="true" d="M0,0h0v0h0Z" pointer-events="none"></path><g><g class="mark-rule role-axis-grid" pointer-events="none"><line transform="translate(0,0)" x2="0" y2="-40" stroke="#ddd" stroke-width="1" opacity="1"></line><line transform="translate(40,0)" x2="0" y2="-40" stroke="#ddd" stroke-width="1" opacity="1"></line><line transform="translate(80,0)" x2="0" y2="-40" stroke="#ddd" stroke-width="1" opacity="1"></line><line transform="translate(120,0)" x2="0" y2="-40" stroke="#ddd" stroke-width="1" opacity="1"></line><line transform="translate(160,0)" x2="0" y2="-40" stroke="#ddd" stroke-width="1" opacity="1"></line><line transform="translate(200,0)" x2="0" y2="-40" stroke="#ddd" stroke-width="1" opacity="1"></line><line transform="translate(240,0)" x2="0" y2="-40" stroke="#ddd" stroke-width="1" opacity="1"></line><line transform="translate(280,0)" x2="0" y2="-40" stroke="#ddd" stroke-width="1" opacity="1"></line><line transform="translate(320,0)" x2="0" y2="-40" stroke="#ddd" stroke-width="1" opacity="1"></line><line transform="translate(360,0)" x2="0" y2="-40" stroke="#ddd" stroke-width="1" opacity="1"></line><line transform="translate(400,0)" x2="0" y2="-40" stroke="#ddd" stroke-width="1" opacity="1"></line></g></g><path class="foreground" aria-hidden="true" d="" pointer-events="none" display="none"></path></g></g><g class="mark-group role-axis" aria-hidden="true"><g transform="translate(0.5,0.5)"><path class="background" aria-hidden="true" d="M0,0h0v0h0Z" pointer-events="none"></path><g><g class="mark-rule role-axis-grid" pointer-events="none"><line transform="translate(0,10)" x2="400" y2="0" stroke="#ddd" stroke-width="1" opacity="1"></line><line transform="translate(0,30)" x2="400" y2="0" stroke="#ddd" stroke-width="1" opacity="1"></line></g></g><path class="foreground" aria-hidden="true" d="" pointer-events="none" display="none"></path></g></g><g class="mark-group role-axis" role="graphics-symbol" aria-roledescription="axis" aria-label="Y-axis for a discrete scale with 2 values: level_0, level_1"><g transform="translate(0.5,0.5)"><path class="background" aria-hidden="true" d="M0,0h0v0h0Z" pointer-events="none"></path><g><g class="mark-rule role-axis-tick" pointer-events="none"><line transform="translate(0,10)" x2="-5" y2="0" stroke="#888" stroke-width="1" opacity="1"></line><line transform="translate(0,30)" x2="-5" y2="0" stroke="#888" stroke-width="1" opacity="1"></line></g><g class="mark-text role-axis-label" pointer-events="none"><text text-anchor="end" transform="translate(-7,13)" font-family="sans-serif" font-size="10px" fill="#000" opacity="1">level_0</text><text text-anchor="end" transform="translate(-7,33)" font-family="sans-serif" font-size="10px" fill="#000" opacity="1">level_1</text></g><g class="mark-rule role-axis-domain" pointer-events="none"><line transform="translate(0,0)" x2="0" y2="40" stroke="#888" stroke-width="1" opacity="1"></line></g></g><path class="foreground" aria-hidden="true" d="" pointer-events="none" display="none"></path></g></g><g class="mark-symbol role-mark concat_0_child_marks" role="graphics-object" aria-roledescription="symbol mark container" clip-path="url(#clip1)"><path aria-label="m_probability: 0.344130667676; level_name: level_0; estimate_name: True value; column_name: surname_std; u_probability: 0.999531707675" role="graphics-symbol" aria-roledescription="point" transform="translate(137.65226707022032,10)" d="M-5,-5h10v10h-10Z" fill="transparent" stroke="#f58518" stroke-width="2" opacity="0.7"></path><path aria-label="m_probability: 0.655869332324; level_name: level_1; estimate_name: True value; column_name: surname_std; u_probability: 0.000468292324505" role="graphics-symbol" aria-roledescription="point" transform="translate(262.3477329297797,30)" d="M-5,-5h10v10h-10Z" fill="transparent" stroke="#f58518" stroke-width="2" opacity="0.7"></path><path aria-label="m_probability: 0.202055737771; level_name: level_0; estimate_name: Estimated value; column_name: surname_std; u_probability: 0.999526890261" role="graphics-symbol" aria-roledescription="point" transform="translate(80.82229510837274,10)" d="M5,0A5,5,0,1,1,-5,0A5,5,0,1,1,5,0" fill="transparent" stroke="#4c78a8" stroke-width="2" opacity="0.7"></path><path aria-label="m_probability: 0.797944262229; level_name: level_1; estimate_name: Estimated value; column_name: surname_std; u_probability: 0.000473109738623" role="graphics-symbol" aria-roledescription="point" transform="translate(319.17770489162734,30)" d="M5,0A5,5,0,1,1,-5,0A5,5,0,1,1,5,0" fill="transparent" stroke="#4c78a8" stroke-width="2" opacity="0.7"></path></g></g><path class="foreground" aria-hidden="true" d="" display="none"></path></g><g transform="translate(0,62)"><path class="background" aria-hidden="true" d="M0.5,0.5h400v40h-400Z" fill="transparent" stroke="#ddd"></path><g><g class="mark-group role-axis" aria-hidden="true"><g transform="translate(0.5,40.5)"><path class="background" aria-hidden="true" d="M0,0h0v0h0Z" pointer-events="none"></path><g><g class="mark-rule role-axis-grid" pointer-events="none"><line transform="translate(0,0)" x2="0" y2="-40" stroke="#ddd" stroke-width="1" opacity="1"></line><line transform="translate(40,0)" x2="0" y2="-40" stroke="#ddd" stroke-width="1" opacity="1"></line><line transform="translate(80,0)" x2="0" y2="-40" stroke="#ddd" stroke-width="1" opacity="1"></line><line transform="translate(120,0)" x2="0" y2="-40" stroke="#ddd" stroke-width="1" opacity="1"></line><line transform="translate(160,0)" x2="0" y2="-40" stroke="#ddd" stroke-width="1" opacity="1"></line><line transform="translate(200,0)" x2="0" y2="-40" stroke="#ddd" stroke-width="1" opacity="1"></line><line transform="translate(240,0)" x2="0" y2="-40" stroke="#ddd" stroke-width="1" opacity="1"></line><line transform="translate(280,0)" x2="0" y2="-40" stroke="#ddd" stroke-width="1" opacity="1"></line><line transform="translate(320,0)" x2="0" y2="-40" stroke="#ddd" stroke-width="1" opacity="1"></line><line transform="translate(360,0)" x2="0" y2="-40" stroke="#ddd" stroke-width="1" opacity="1"></line><line transform="translate(400,0)" x2="0" y2="-40" stroke="#ddd" stroke-width="1" opacity="1"></line></g></g><path class="foreground" aria-hidden="true" d="" pointer-events="none" display="none"></path></g></g><g class="mark-group role-axis" aria-hidden="true"><g transform="translate(0.5,0.5)"><path class="background" aria-hidden="true" d="M0,0h0v0h0Z" pointer-events="none"></path><g><g class="mark-rule role-axis-grid" pointer-events="none"><line transform="translate(0,10)" x2="400" y2="0" stroke="#ddd" stroke-width="1" opacity="1"></line><line transform="translate(0,30)" x2="400" y2="0" stroke="#ddd" stroke-width="1" opacity="1"></line></g></g><path class="foreground" aria-hidden="true" d="" pointer-events="none" display="none"></path></g></g><g class="mark-group role-axis" role="graphics-symbol" aria-roledescription="axis" aria-label="Y-axis for a discrete scale with 2 values: level_0, level_1"><g transform="translate(0.5,0.5)"><path class="background" aria-hidden="true" d="M0,0h0v0h0Z" pointer-events="none"></path><g><g class="mark-rule role-axis-tick" pointer-events="none"><line transform="translate(0,10)" x2="-5" y2="0" stroke="#888" stroke-width="1" opacity="1"></line><line transform="translate(0,30)" x2="-5" y2="0" stroke="#888" stroke-width="1" opacity="1"></line></g><g class="mark-text role-axis-label" pointer-events="none"><text text-anchor="end" transform="translate(-7,13)" font-family="sans-serif" font-size="10px" fill="#000" opacity="1">level_0</text><text text-anchor="end" transform="translate(-7,33)" font-family="sans-serif" font-size="10px" fill="#000" opacity="1">level_1</text></g><g class="mark-rule role-axis-domain" pointer-events="none"><line transform="translate(0,0)" x2="0" y2="40" stroke="#888" stroke-width="1" opacity="1"></line></g></g><path class="foreground" aria-hidden="true" d="" pointer-events="none" display="none"></path></g></g><g class="mark-symbol role-mark concat_0_child_marks" role="graphics-object" aria-roledescription="symbol mark container" clip-path="url(#clip2)"><path aria-label="m_probability: 0.512902427743; level_name: level_0; estimate_name: True value; column_name: forename1_std; u_probability: 0.995101144993" role="graphics-symbol" aria-roledescription="point" transform="translate(205.1609710972711,10)" d="M-5,-5h10v10h-10Z" fill="transparent" stroke="#f58518" stroke-width="2" opacity="0.7"></path><path aria-label="m_probability: 0.487097572257; level_name: level_1; estimate_name: True value; column_name: forename1_std; u_probability: 0.00489885500735" role="graphics-symbol" aria-roledescription="point" transform="translate(194.83902890272893,30)" d="M-5,-5h10v10h-10Z" fill="transparent" stroke="#f58518" stroke-width="2" opacity="0.7"></path><path aria-label="m_probability: 0.325876035443; level_name: level_0; estimate_name: Estimated value; column_name: forename1_std; u_probability: 0.995228362427" role="graphics-symbol" aria-roledescription="point" transform="translate(130.35041417707302,10)" d="M5,0A5,5,0,1,1,-5,0A5,5,0,1,1,5,0" fill="transparent" stroke="#4c78a8" stroke-width="2" opacity="0.7"></path><path aria-label="m_probability: 0.674123964557; level_name: level_1; estimate_name: Estimated value; column_name: forename1_std; u_probability: 0.00477163757339" role="graphics-symbol" aria-roledescription="point" transform="translate(269.649585822927,30)" d="M5,0A5,5,0,1,1,-5,0A5,5,0,1,1,5,0" fill="transparent" stroke="#4c78a8" stroke-width="2" opacity="0.7"></path></g></g><path class="foreground" aria-hidden="true" d="" display="none"></path></g><g transform="translate(0,124)"><path class="background" aria-hidden="true" d="M0.5,0.5h400v40h-400Z" fill="transparent" stroke="#ddd"></path><g><g class="mark-group role-axis" aria-hidden="true"><g transform="translate(0.5,40.5)"><path class="background" aria-hidden="true" d="M0,0h0v0h0Z" pointer-events="none"></path><g><g class="mark-rule role-axis-grid" pointer-events="none"><line transform="translate(0,0)" x2="0" y2="-40" stroke="#ddd" stroke-width="1" opacity="1"></line><line transform="translate(40,0)" x2="0" y2="-40" stroke="#ddd" stroke-width="1" opacity="1"></line><line transform="translate(80,0)" x2="0" y2="-40" stroke="#ddd" stroke-width="1" opacity="1"></line><line transform="translate(120,0)" x2="0" y2="-40" stroke="#ddd" stroke-width="1" opacity="1"></line><line transform="translate(160,0)" x2="0" y2="-40" stroke="#ddd" stroke-width="1" opacity="1"></line><line transform="translate(200,0)" x2="0" y2="-40" stroke="#ddd" stroke-width="1" opacity="1"></line><line transform="translate(240,0)" x2="0" y2="-40" stroke="#ddd" stroke-width="1" opacity="1"></line><line transform="translate(280,0)" x2="0" y2="-40" stroke="#ddd" stroke-width="1" opacity="1"></line><line transform="translate(320,0)" x2="0" y2="-40" stroke="#ddd" stroke-width="1" opacity="1"></line><line transform="translate(360,0)" x2="0" y2="-40" stroke="#ddd" stroke-width="1" opacity="1"></line><line transform="translate(400,0)" x2="0" y2="-40" stroke="#ddd" stroke-width="1" opacity="1"></line></g></g><path class="foreground" aria-hidden="true" d="" pointer-events="none" display="none"></path></g></g><g class="mark-group role-axis" aria-hidden="true"><g transform="translate(0.5,0.5)"><path class="background" aria-hidden="true" d="M0,0h0v0h0Z" pointer-events="none"></path><g><g class="mark-rule role-axis-grid" pointer-events="none"><line transform="translate(0,10)" x2="400" y2="0" stroke="#ddd" stroke-width="1" opacity="1"></line><line transform="translate(0,30)" x2="400" y2="0" stroke="#ddd" stroke-width="1" opacity="1"></line></g></g><path class="foreground" aria-hidden="true" d="" pointer-events="none" display="none"></path></g></g><g class="mark-group role-axis" role="graphics-symbol" aria-roledescription="axis" aria-label="Y-axis for a discrete scale with 2 values: level_0, level_1"><g transform="translate(0.5,0.5)"><path class="background" aria-hidden="true" d="M0,0h0v0h0Z" pointer-events="none"></path><g><g class="mark-rule role-axis-tick" pointer-events="none"><line transform="translate(0,10)" x2="-5" y2="0" stroke="#888" stroke-width="1" opacity="1"></line><line transform="translate(0,30)" x2="-5" y2="0" stroke="#888" stroke-width="1" opacity="1"></line></g><g class="mark-text role-axis-label" pointer-events="none"><text text-anchor="end" transform="translate(-7,13)" font-family="sans-serif" font-size="10px" fill="#000" opacity="1">level_0</text><text text-anchor="end" transform="translate(-7,33)" font-family="sans-serif" font-size="10px" fill="#000" opacity="1">level_1</text></g><g class="mark-rule role-axis-domain" pointer-events="none"><line transform="translate(0,0)" x2="0" y2="40" stroke="#888" stroke-width="1" opacity="1"></line></g></g><path class="foreground" aria-hidden="true" d="" pointer-events="none" display="none"></path></g></g><g class="mark-symbol role-mark concat_0_child_marks" role="graphics-object" aria-roledescription="symbol mark container" clip-path="url(#clip3)"><path aria-label="m_probability: 0.505572257388; level_name: level_0; estimate_name: True value; column_name: forename2_std; u_probability: 0.995151733341" role="graphics-symbol" aria-roledescription="point" transform="translate(202.22890295528506,10)" d="M-5,-5h10v10h-10Z" fill="transparent" stroke="#f58518" stroke-width="2" opacity="0.7"></path><path aria-label="m_probability: 0.494427742612; level_name: level_1; estimate_name: True value; column_name: forename2_std; u_probability: 0.00484826665864" role="graphics-symbol" aria-roledescription="point" transform="translate(197.77109704471494,30)" d="M-5,-5h10v10h-10Z" fill="transparent" stroke="#f58518" stroke-width="2" opacity="0.7"></path><path aria-label="m_probability: 0.472801252077; level_name: level_0; estimate_name: Estimated value; column_name: forename2_std; u_probability: 0.994203551712" role="graphics-symbol" aria-roledescription="point" transform="translate(189.1205008308317,10)" d="M5,0A5,5,0,1,1,-5,0A5,5,0,1,1,5,0" fill="transparent" stroke="#4c78a8" stroke-width="2" opacity="0.7"></path><path aria-label="m_probability: 0.4506546469; level_name: level_1; estimate_name: Estimated value; column_name: forename2_std; u_probability: 0.00579644828757" role="graphics-symbol" aria-roledescription="point" transform="translate(180.26185876016623,30)" d="M5,0A5,5,0,1,1,-5,0A5,5,0,1,1,5,0" fill="transparent" stroke="#4c78a8" stroke-width="2" opacity="0.7"></path></g></g><path class="foreground" aria-hidden="true" d="" display="none"></path></g><g transform="translate(0,186)"><path class="background" aria-hidden="true" d="M0.5,0.5h400v40h-400Z" fill="transparent" stroke="#ddd"></path><g><g class="mark-group role-axis" aria-hidden="true"><g transform="translate(0.5,40.5)"><path class="background" aria-hidden="true" d="M0,0h0v0h0Z" pointer-events="none"></path><g><g class="mark-rule role-axis-grid" pointer-events="none"><line transform="translate(0,0)" x2="0" y2="-40" stroke="#ddd" stroke-width="1" opacity="1"></line><line transform="translate(40,0)" x2="0" y2="-40" stroke="#ddd" stroke-width="1" opacity="1"></line><line transform="translate(80,0)" x2="0" y2="-40" stroke="#ddd" stroke-width="1" opacity="1"></line><line transform="translate(120,0)" x2="0" y2="-40" stroke="#ddd" stroke-width="1" opacity="1"></line><line transform="translate(160,0)" x2="0" y2="-40" stroke="#ddd" stroke-width="1" opacity="1"></line><line transform="translate(200,0)" x2="0" y2="-40" stroke="#ddd" stroke-width="1" opacity="1"></line><line transform="translate(240,0)" x2="0" y2="-40" stroke="#ddd" stroke-width="1" opacity="1"></line><line transform="translate(280,0)" x2="0" y2="-40" stroke="#ddd" stroke-width="1" opacity="1"></line><line transform="translate(320,0)" x2="0" y2="-40" stroke="#ddd" stroke-width="1" opacity="1"></line><line transform="translate(360,0)" x2="0" y2="-40" stroke="#ddd" stroke-width="1" opacity="1"></line><line transform="translate(400,0)" x2="0" y2="-40" stroke="#ddd" stroke-width="1" opacity="1"></line></g></g><path class="foreground" aria-hidden="true" d="" pointer-events="none" display="none"></path></g></g><g class="mark-group role-axis" aria-hidden="true"><g transform="translate(0.5,0.5)"><path class="background" aria-hidden="true" d="M0,0h0v0h0Z" pointer-events="none"></path><g><g class="mark-rule role-axis-grid" pointer-events="none"><line transform="translate(0,10)" x2="400" y2="0" stroke="#ddd" stroke-width="1" opacity="1"></line><line transform="translate(0,30)" x2="400" y2="0" stroke="#ddd" stroke-width="1" opacity="1"></line></g></g><path class="foreground" aria-hidden="true" d="" pointer-events="none" display="none"></path></g></g><g class="mark-group role-axis" role="graphics-symbol" aria-roledescription="axis" aria-label="Y-axis for a discrete scale with 2 values: level_0, level_1"><g transform="translate(0.5,0.5)"><path class="background" aria-hidden="true" d="M0,0h0v0h0Z" pointer-events="none"></path><g><g class="mark-rule role-axis-tick" pointer-events="none"><line transform="translate(0,10)" x2="-5" y2="0" stroke="#888" stroke-width="1" opacity="1"></line><line transform="translate(0,30)" x2="-5" y2="0" stroke="#888" stroke-width="1" opacity="1"></line></g><g class="mark-text role-axis-label" pointer-events="none"><text text-anchor="end" transform="translate(-7,13)" font-family="sans-serif" font-size="10px" fill="#000" opacity="1">level_0</text><text text-anchor="end" transform="translate(-7,33)" font-family="sans-serif" font-size="10px" fill="#000" opacity="1">level_1</text></g><g class="mark-rule role-axis-domain" pointer-events="none"><line transform="translate(0,0)" x2="0" y2="40" stroke="#888" stroke-width="1" opacity="1"></line></g></g><path class="foreground" aria-hidden="true" d="" pointer-events="none" display="none"></path></g></g><g class="mark-symbol role-mark concat_0_child_marks" role="graphics-object" aria-roledescription="symbol mark container" clip-path="url(#clip4)"><path aria-label="m_probability: 0.123834156021; level_name: level_0; estimate_name: True value; column_name: occupation; u_probability: 0.961487009646" role="graphics-symbol" aria-roledescription="point" transform="translate(49.53366240845737,10)" d="M-5,-5h10v10h-10Z" fill="transparent" stroke="#f58518" stroke-width="2" opacity="0.7"></path><path aria-label="m_probability: 0.876165843979; level_name: level_1; estimate_name: True value; column_name: occupation; u_probability: 0.038512990354" role="graphics-symbol" aria-roledescription="point" transform="translate(350.46633759154264,30)" d="M-5,-5h10v10h-10Z" fill="transparent" stroke="#f58518" stroke-width="2" opacity="0.7"></path><path aria-label="m_probability: 0.0721762903547; level_name: level_0; estimate_name: Estimated value; column_name: occupation; u_probability: 0.961407162243" role="graphics-symbol" aria-roledescription="point" transform="translate(28.870516141886192,10)" d="M5,0A5,5,0,1,1,-5,0A5,5,0,1,1,5,0" fill="transparent" stroke="#4c78a8" stroke-width="2" opacity="0.7"></path><path aria-label="m_probability: 0.927819933685; level_name: level_1; estimate_name: Estimated value; column_name: occupation; u_probability: 0.0385928377571" role="graphics-symbol" aria-roledescription="point" transform="translate(371.12797347385043,30)" d="M5,0A5,5,0,1,1,-5,0A5,5,0,1,1,5,0" fill="transparent" stroke="#4c78a8" stroke-width="2" opacity="0.7"></path></g></g><path class="foreground" aria-hidden="true" d="" display="none"></path></g><g transform="translate(0,248)"><path class="background" aria-hidden="true" d="M0.5,0.5h400v40h-400Z" fill="transparent" stroke="#ddd"></path><g><g class="mark-group role-axis" aria-hidden="true"><g transform="translate(0.5,40.5)"><path class="background" aria-hidden="true" d="M0,0h0v0h0Z" pointer-events="none"></path><g><g class="mark-rule role-axis-grid" pointer-events="none"><line transform="translate(0,0)" x2="0" y2="-40" stroke="#ddd" stroke-width="1" opacity="1"></line><line transform="translate(40,0)" x2="0" y2="-40" stroke="#ddd" stroke-width="1" opacity="1"></line><line transform="translate(80,0)" x2="0" y2="-40" stroke="#ddd" stroke-width="1" opacity="1"></line><line transform="translate(120,0)" x2="0" y2="-40" stroke="#ddd" stroke-width="1" opacity="1"></line><line transform="translate(160,0)" x2="0" y2="-40" stroke="#ddd" stroke-width="1" opacity="1"></line><line transform="translate(200,0)" x2="0" y2="-40" stroke="#ddd" stroke-width="1" opacity="1"></line><line transform="translate(240,0)" x2="0" y2="-40" stroke="#ddd" stroke-width="1" opacity="1"></line><line transform="translate(280,0)" x2="0" y2="-40" stroke="#ddd" stroke-width="1" opacity="1"></line><line transform="translate(320,0)" x2="0" y2="-40" stroke="#ddd" stroke-width="1" opacity="1"></line><line transform="translate(360,0)" x2="0" y2="-40" stroke="#ddd" stroke-width="1" opacity="1"></line><line transform="translate(400,0)" x2="0" y2="-40" stroke="#ddd" stroke-width="1" opacity="1"></line></g></g><path class="foreground" aria-hidden="true" d="" pointer-events="none" display="none"></path></g></g><g class="mark-group role-axis" aria-hidden="true"><g transform="translate(0.5,0.5)"><path class="background" aria-hidden="true" d="M0,0h0v0h0Z" pointer-events="none"></path><g><g class="mark-rule role-axis-grid" pointer-events="none"><line transform="translate(0,10)" x2="400" y2="0" stroke="#ddd" stroke-width="1" opacity="1"></line><line transform="translate(0,30)" x2="400" y2="0" stroke="#ddd" stroke-width="1" opacity="1"></line></g></g><path class="foreground" aria-hidden="true" d="" pointer-events="none" display="none"></path></g></g><g class="mark-group role-axis" role="graphics-symbol" aria-roledescription="axis" aria-label="Y-axis for a discrete scale with 2 values: level_0, level_1"><g transform="translate(0.5,0.5)"><path class="background" aria-hidden="true" d="M0,0h0v0h0Z" pointer-events="none"></path><g><g class="mark-rule role-axis-tick" pointer-events="none"><line transform="translate(0,10)" x2="-5" y2="0" stroke="#888" stroke-width="1" opacity="1"></line><line transform="translate(0,30)" x2="-5" y2="0" stroke="#888" stroke-width="1" opacity="1"></line></g><g class="mark-text role-axis-label" pointer-events="none"><text text-anchor="end" transform="translate(-7,13)" font-family="sans-serif" font-size="10px" fill="#000" opacity="1">level_0</text><text text-anchor="end" transform="translate(-7,33)" font-family="sans-serif" font-size="10px" fill="#000" opacity="1">level_1</text></g><g class="mark-rule role-axis-domain" pointer-events="none"><line transform="translate(0,0)" x2="0" y2="40" stroke="#888" stroke-width="1" opacity="1"></line></g></g><path class="foreground" aria-hidden="true" d="" pointer-events="none" display="none"></path></g></g><g class="mark-symbol role-mark concat_0_child_marks" role="graphics-object" aria-roledescription="symbol mark container" clip-path="url(#clip5)"><path aria-label="m_probability: 0.500641440124; level_name: level_0; estimate_name: True value; column_name: dob; u_probability: 0.99968370487" role="graphics-symbol" aria-roledescription="point" transform="translate(200.25657604957505,10)" d="M-5,-5h10v10h-10Z" fill="transparent" stroke="#f58518" stroke-width="2" opacity="0.7"></path><path aria-label="m_probability: 0.499358559876; level_name: level_1; estimate_name: True value; column_name: dob; u_probability: 0.000316295130328" role="graphics-symbol" aria-roledescription="point" transform="translate(199.74342395042495,30)" d="M-5,-5h10v10h-10Z" fill="transparent" stroke="#f58518" stroke-width="2" opacity="0.7"></path><path aria-label="m_probability: 0.475504173084; level_name: level_0; estimate_name: Estimated value; column_name: dob; u_probability: 0.999717257638" role="graphics-symbol" aria-roledescription="point" transform="translate(190.20166923374677,10)" d="M5,0A5,5,0,1,1,-5,0A5,5,0,1,1,5,0" fill="transparent" stroke="#4c78a8" stroke-width="2" opacity="0.7"></path><path aria-label="m_probability: 0.524495826916; level_name: level_1; estimate_name: Estimated value; column_name: dob; u_probability: 0.000282742361974" role="graphics-symbol" aria-roledescription="point" transform="translate(209.79833076625343,30)" d="M5,0A5,5,0,1,1,-5,0A5,5,0,1,1,5,0" fill="transparent" stroke="#4c78a8" stroke-width="2" opacity="0.7"></path></g></g><path class="foreground" aria-hidden="true" d="" display="none"></path></g><g transform="translate(0,310)"><path class="background" aria-hidden="true" d="M0.5,0.5h400v40h-400Z" fill="transparent" stroke="#ddd"></path><g><g class="mark-group role-axis" aria-hidden="true"><g transform="translate(0.5,40.5)"><path class="background" aria-hidden="true" d="M0,0h0v0h0Z" pointer-events="none"></path><g><g class="mark-rule role-axis-grid" pointer-events="none"><line transform="translate(0,0)" x2="0" y2="-40" stroke="#ddd" stroke-width="1" opacity="1"></line><line transform="translate(40,0)" x2="0" y2="-40" stroke="#ddd" stroke-width="1" opacity="1"></line><line transform="translate(80,0)" x2="0" y2="-40" stroke="#ddd" stroke-width="1" opacity="1"></line><line transform="translate(120,0)" x2="0" y2="-40" stroke="#ddd" stroke-width="1" opacity="1"></line><line transform="translate(160,0)" x2="0" y2="-40" stroke="#ddd" stroke-width="1" opacity="1"></line><line transform="translate(200,0)" x2="0" y2="-40" stroke="#ddd" stroke-width="1" opacity="1"></line><line transform="translate(240,0)" x2="0" y2="-40" stroke="#ddd" stroke-width="1" opacity="1"></line><line transform="translate(280,0)" x2="0" y2="-40" stroke="#ddd" stroke-width="1" opacity="1"></line><line transform="translate(320,0)" x2="0" y2="-40" stroke="#ddd" stroke-width="1" opacity="1"></line><line transform="translate(360,0)" x2="0" y2="-40" stroke="#ddd" stroke-width="1" opacity="1"></line><line transform="translate(400,0)" x2="0" y2="-40" stroke="#ddd" stroke-width="1" opacity="1"></line></g></g><path class="foreground" aria-hidden="true" d="" pointer-events="none" display="none"></path></g></g><g class="mark-group role-axis" aria-hidden="true"><g transform="translate(0.5,0.5)"><path class="background" aria-hidden="true" d="M0,0h0v0h0Z" pointer-events="none"></path><g><g class="mark-rule role-axis-grid" pointer-events="none"><line transform="translate(0,10)" x2="400" y2="0" stroke="#ddd" stroke-width="1" opacity="1"></line><line transform="translate(0,30)" x2="400" y2="0" stroke="#ddd" stroke-width="1" opacity="1"></line></g></g><path class="foreground" aria-hidden="true" d="" pointer-events="none" display="none"></path></g></g><g class="mark-group role-axis" role="graphics-symbol" aria-roledescription="axis" aria-label="Y-axis for a discrete scale with 2 values: level_0, level_1"><g transform="translate(0.5,0.5)"><path class="background" aria-hidden="true" d="M0,0h0v0h0Z" pointer-events="none"></path><g><g class="mark-rule role-axis-tick" pointer-events="none"><line transform="translate(0,10)" x2="-5" y2="0" stroke="#888" stroke-width="1" opacity="1"></line><line transform="translate(0,30)" x2="-5" y2="0" stroke="#888" stroke-width="1" opacity="1"></line></g><g class="mark-text role-axis-label" pointer-events="none"><text text-anchor="end" transform="translate(-7,13)" font-family="sans-serif" font-size="10px" fill="#000" opacity="1">level_0</text><text text-anchor="end" transform="translate(-7,33)" font-family="sans-serif" font-size="10px" fill="#000" opacity="1">level_1</text></g><g class="mark-rule role-axis-domain" pointer-events="none"><line transform="translate(0,0)" x2="0" y2="40" stroke="#888" stroke-width="1" opacity="1"></line></g></g><path class="foreground" aria-hidden="true" d="" pointer-events="none" display="none"></path></g></g><g class="mark-symbol role-mark concat_0_child_marks" role="graphics-object" aria-roledescription="symbol mark container" clip-path="url(#clip6)"><path aria-label="m_probability: 0.40275055538; level_name: level_0; estimate_name: True value; column_name: postcode; u_probability: 0.999983999286" role="graphics-symbol" aria-roledescription="point" transform="translate(161.10022215192657,10)" d="M-5,-5h10v10h-10Z" fill="transparent" stroke="#f58518" stroke-width="2" opacity="0.7"></path><path aria-label="m_probability: 0.59724944462; level_name: level_1; estimate_name: True value; column_name: postcode; u_probability: 0.0000160007138421" role="graphics-symbol" aria-roledescription="point" transform="translate(238.8997778480734,30)" d="M-5,-5h10v10h-10Z" fill="transparent" stroke="#f58518" stroke-width="2" opacity="0.7"></path><path aria-label="m_probability: 0.39988418002; level_name: level_0; estimate_name: Estimated value; column_name: postcode; u_probability: 0.999983121057" role="graphics-symbol" aria-roledescription="point" transform="translate(159.9536720080952,10)" d="M5,0A5,5,0,1,1,-5,0A5,5,0,1,1,5,0" fill="transparent" stroke="#4c78a8" stroke-width="2" opacity="0.7"></path><path aria-label="m_probability: 0.60011581998; level_name: level_1; estimate_name: Estimated value; column_name: postcode; u_probability: 0.0000168789426547" role="graphics-symbol" aria-roledescription="point" transform="translate(240.04632799190492,30)" d="M5,0A5,5,0,1,1,-5,0A5,5,0,1,1,5,0" fill="transparent" stroke="#4c78a8" stroke-width="2" opacity="0.7"></path></g></g><path class="foreground" aria-hidden="true" d="" display="none"></path></g></g><g class="mark-group role-title"><g transform="translate(180.39892578125,-18)"><path class="background" aria-hidden="true" d="M0,0h0v0h0Z" pointer-events="none"></path><g><g class="mark-text role-title-text" role="graphics-symbol" aria-roledescription="title" aria-label="Title text 'Matches'" pointer-events="none"><text text-anchor="middle" transform="translate(0,10)" font-family="sans-serif" font-size="13px" font-weight="bold" fill="#000" opacity="1">Matches</text></g></g><path class="foreground" aria-hidden="true" d="" pointer-events="none" display="none"></path></g></g></g><path class="foreground" aria-hidden="true" d="" display="none"></path></g></g><g class="mark-group role-legend" role="graphics-symbol" aria-roledescription="legend" aria-label="Symbol legend titled 'estimate_name' for shape and stroke color with 2 values: Estimated value, True value"><g transform="translate(419,0)"><path class="background" aria-hidden="true" d="M0,0h92v45h-92Z" pointer-events="none"></path><g><g class="mark-group role-legend-entry"><g transform="translate(0,16)"><path class="background" aria-hidden="true" d="M0,0h0v0h0Z" pointer-events="none"></path><g><g class="mark-group role-scope" role="graphics-object" aria-roledescription="group mark container"><g transform="translate(0,0)"><path class="background" aria-hidden="true" d="M0,0h91.1611328125v12.5h-91.1611328125Z" pointer-events="none" opacity="1"></path><g><g class="mark-symbol role-legend-symbol" pointer-events="none"><path transform="translate(6,6)" d="M5,0A5,5,0,1,1,-5,0A5,5,0,1,1,5,0" fill="transparent" stroke="#4c78a8" stroke-width="1.5" opacity="0.7"></path></g><g class="mark-text role-legend-label" pointer-events="none"><text text-anchor="start" transform="translate(16,9)" font-family="sans-serif" font-size="10px" fill="#000" opacity="1">Estimated value</text></g></g><path class="foreground" aria-hidden="true" d="" pointer-events="none" display="none"></path></g><g transform="translate(0,16)"><path class="background" aria-hidden="true" d="M0,0h91.1611328125v12.5h-91.1611328125Z" pointer-events="none" opacity="1"></path><g><g class="mark-symbol role-legend-symbol" pointer-events="none"><path transform="translate(6,6)" d="M-5,-5h10v10h-10Z" fill="transparent" stroke="#f58518" stroke-width="1.5" opacity="0.7"></path></g><g class="mark-text role-legend-label" pointer-events="none"><text text-anchor="start" transform="translate(16,9)" font-family="sans-serif" font-size="10px" fill="#000" opacity="1">True value</text></g></g><path class="foreground" aria-hidden="true" d="" pointer-events="none" display="none"></path></g></g></g><path class="foreground" aria-hidden="true" d="" pointer-events="none" display="none"></path></g></g><g class="mark-text role-legend-title" pointer-events="none"><text text-anchor="start" transform="translate(0,9)" font-family="sans-serif" font-size="11px" font-weight="bold" fill="#000" opacity="1">estimate_name</text></g></g><path class="foreground" aria-hidden="true" d="" pointer-events="none" display="none"></path></g></g><g class="mark-group role-title"><g transform="translate(235.39892578125,-49)"><path class="background" aria-hidden="true" d="M0,0h0v0h0Z" pointer-events="none"></path><g><g class="mark-text role-title-text" role="graphics-symbol" aria-roledescription="title" aria-label="Title text 'Comparison of parameter estimates between jobs'" pointer-events="none"><text text-anchor="middle" transform="translate(0,10)" font-family="sans-serif" font-size="13px" font-weight="bold" fill="#000" opacity="1">Comparison of parameter estimates between jobs</text></g><g class="mark-text role-title-subtitle" role="graphics-symbol" aria-roledescription="subtitle" aria-label="Subtitle text 'Use mousewheeel to zoom'" pointer-events="none"><text text-anchor="middle" transform="translate(0,25)" font-family="sans-serif" font-size="12px" fill="#000" opacity="1">Use mousewheeel to zoom</text></g></g><path class="foreground" aria-hidden="true" d="" pointer-events="none" display="none"></path></g></g></g><path class="foreground" aria-hidden="true" d="" display="none"></path></g></g></g><defs><clipPath id="clip1"><rect x="0" y="0" width="400" height="40"></rect></clipPath><clipPath id="clip2"><rect x="0" y="0" width="400" height="40"></rect></clipPath><clipPath id="clip3"><rect x="0" y="0" width="400" height="40"></rect></clipPath><clipPath id="clip4"><rect x="0" y="0" width="400" height="40"></rect></clipPath><clipPath id="clip5"><rect x="0" y="0" width="400" height="40"></rect></clipPath><clipPath id="clip6"><rect x="0" y="0" width="400" height="40"></rect></clipPath></defs></svg>